  0
SECTION
  2
HEADER
  9
$ACADVER
  1
AC1009
  9
$DWGCODEPAGE
  3
ansi_1252
  9
$INSBASE
 10
0.0
 20
0.0
 30
0.0
  9
$EXTMIN
 10
76.49309009521627
 20
-134.5508714538946
 30
0.0
  9
$EXTMAX
 10
452.985446963008
 20
65.657419860195
 30
0.0
  9
$LIMMIN
 10
0.0
 20
0.0
  9
$LIMMAX
 10
420.0
 20
297.0
  9
$ORTHOMODE
 70
     0
  9
$REGENMODE
 70
     1
  9
$FILLMODE
 70
     1
  9
$QTEXTMODE
 70
     0
  9
$MIRRTEXT
 70
     1
  9
$DRAGMODE
 70
     2
  9
$LTSCALE
 40
1.0
  9
$OSMODE
 70
 15295
  9
$ATTMODE
 70
     1
  9
$TEXTSIZE
 40
3.5
  9
$TRACEWID
 40
1.0
  9
$TEXTSTYLE
  7
STANDARD
  9
$CLAYER
  8
0
  9
$CELTYPE
  6
BYLAYER
  9
$CECOLOR
 62
   256
  9
$DIMSCALE
 40
1.0
  9
$DIMASZ
 40
3.302
  9
$DIMEXO
 40
1.0
  9
$DIMDLI
 40
3.75
  9
$DIMRND
 40
0.0
  9
$DIMDLE
 40
0.0
  9
$DIMEXE
 40
1.0
  9
$DIMTP
 40
0.0
  9
$DIMTM
 40
0.0
  9
$DIMTXT
 40
3.5
  9
$DIMCEN
 40
2.5
  9
$DIMTSZ
 40
0.0
  9
$DIMTOL
 70
     0
  9
$DIMLIM
 70
     0
  9
$DIMTIH
 70
     1
  9
$DIMTOH
 70
     1
  9
$DIMSE1
 70
     0
  9
$DIMSE2
 70
     0
  9
$DIMTAD
 70
     1
  9
$DIMZIN
 70
     0
  9
$DIMBLK
  1

  9
$DIMASO
 70
     1
  9
$DIMSHO
 70
     1
  9
$DIMPOST
  1

  9
$DIMAPOST
  1

  9
$DIMALT
 70
     0
  9
$DIMALTD
 70
     3
  9
$DIMALTF
 40
0.0393700787
  9
$DIMLFAC
 40
1.0
  9
$DIMTOFL
 70
     1
  9
$DIMTVP
 40
0.0
  9
$DIMTIX
 70
     0
  9
$DIMSOXD
 70
     0
  9
$DIMSAH
 70
     0
  9
$DIMBLK1
  1

  9
$DIMBLK2
  1

  9
$DIMSTYLE
  2
ISO-25
  9
$DIMCLRD
 70
     0
  9
$DIMCLRE
 70
     0
  9
$DIMCLRT
 70
     0
  9
$DIMTFAC
 40
1.0
  9
$DIMGAP
 40
1.524
  9
$LUNITS
 70
     2
  9
$LUPREC
 70
     2
  9
$SKETCHINC
 40
1.0
  9
$FILLETRAD
 40
10.0
  9
$AUNITS
 70
     0
  9
$AUPREC
 70
     2
  9
$MENU
  1
.
  9
$ELEVATION
 40
0.0
  9
$PELEVATION
 40
0.0
  9
$THICKNESS
 40
0.0
  9
$LIMCHECK
 70
     0
  9
$CHAMFERA
 40
0.0
  9
$CHAMFERB
 40
0.0
  9
$SKPOLY
 70
     0
  9
$TDCREATE
 40
2458822.440866424
  9
$TDUPDATE
 40
2458833.798371458
  9
$TDINDWG
 40
0.0090596759
  9
$TDUSRTIMER
 40
2458833.798112153
  9
$USRTIMER
 70
     1
  9
$ANGBASE
 50
0.0
  9
$ANGDIR
 70
     0
  9
$PDMODE
 70
     0
  9
$PDSIZE
 40
-1.0
  9
$PLINEWID
 40
0.0
  9
$COORDS
 70
     1
  9
$SPLFRAME
 70
     0
  9
$SPLINETYPE
 70
     6
  9
$SPLINESEGS
 70
     8
  9
$ATTDIA
 70
     0
  9
$ATTREQ
 70
     1
  9
$HANDLING
 70
     1
  9
$HANDSEED
  5
B0E
  9
$SURFTAB1
 70
     6
  9
$SURFTAB2
 70
     6
  9
$SURFTYPE
 70
     6
  9
$SURFU
 70
     6
  9
$SURFV
 70
     6
  9
$UCSNAME
  2

  9
$UCSORG
 10
0.0
 20
0.0
 30
0.0
  9
$UCSXDIR
 10
1.0
 20
0.0
 30
0.0
  9
$UCSYDIR
 10
0.0
 20
1.0
 30
0.0
  9
$PUCSNAME
  2

  9
$PUCSORG
 10
0.0
 20
0.0
 30
0.0
  9
$PUCSXDIR
 10
1.0
 20
0.0
 30
0.0
  9
$PUCSYDIR
 10
0.0
 20
1.0
 30
0.0
  9
$USERI1
 70
     0
  9
$USERI2
 70
     0
  9
$USERI3
 70
     0
  9
$USERI4
 70
     0
  9
$USERI5
 70
     0
  9
$USERR1
 40
0.0
  9
$USERR2
 40
0.0
  9
$USERR3
 40
0.0
  9
$USERR4
 40
0.0
  9
$USERR5
 40
0.0
  9
$WORLDVIEW
 70
     1
  9
$SHADEDGE
 70
     3
  9
$SHADEDIF
 70
    70
  9
$TILEMODE
 70
     1
  9
$MAXACTVP
 70
    64
  9
$PLIMCHECK
 70
     0
  9
$PEXTMIN
 10
1.000000000000000E+20
 20
1.000000000000000E+20
 30
1.000000000000000E+20
  9
$PEXTMAX
 10
-1.000000000000000E+20
 20
-1.000000000000000E+20
 30
-1.000000000000000E+20
  9
$PLIMMIN
 10
0.0
 20
0.0
  9
$PLIMMAX
 10
0.0
 20
0.0
  9
$UNITMODE
 70
     0
  9
$VISRETAIN
 70
     1
  9
$PLINEGEN
 70
     0
  9
$PSLTSCALE
 70
     1
  0
ENDSEC
  0
SECTION
  2
TABLES
  0
TABLE
  2
VPORT
 70
     1
  0
VPORT
  2
*ACTIVE
 70
     0
 10
0.0
 20
0.0
 11
1.0
 21
1.0
 12
349.2416878170371
 22
-6.182411760421431
 13
0.0
 23
0.0
 14
10.0
 24
10.0
 15
10.0
 25
10.0
 16
0.0
 26
0.0
 36
1.0
 17
0.0
 27
0.0
 37
0.0
 40
520.2867545627439
 41
2.295798319327731
 42
50.0
 43
0.0
 44
0.0
 50
0.0
 51
0.0
 71
    16
 72
   100
 73
     1
 74
     3
 75
     0
 76
     0
 77
     0
 78
     0
  0
ENDTAB
  0
TABLE
  2
LTYPE
 70
     6
  0
LTYPE
  2
CONTINUOUS
 70
     0
  3
Solid line
 72
    65
 73
     0
 40
0.0
  0
LTYPE
  2
HIDDEN
 70
     0
  3
Hidden __ __ __ __ __ __ __ __ __ __ __ __ __ __
 72
    65
 73
     2
 40
1.905
 49
1.27
 49
-0.635
  0
LTYPE
  2
PHANTOM
 70
     0
  3
Phantom ______  __  __  ______  __  __  ______
 72
    65
 73
     6
 40
12.7
 49
6.35
 49
-1.27
 49
1.27
 49
-1.27
 49
1.27
 49
-1.27
  0
LTYPE
  2
CENTER
 70
     0
  3
Center ____ _ ____ _ ____ _ ____ _ ____ _ ____
 72
    65
 73
     4
 40
10.16
 49
6.35
 49
-1.27
 49
1.27
 49
-1.27
  0
LTYPE
  2
CENTERX2
 70
     0
  3
Center (2x) ________  __  ________  __  _____
 72
    65
 73
     4
 40
20.32
 49
12.7
 49
-2.54
 49
2.54
 49
-2.54
  0
LTYPE
  2
DOT2
 70
     0
  3
Dot (.5x) ........................................
 72
    65
 73
     2
 40
0.635
 49
0.0
 49
-0.635
  0
ENDTAB
  0
TABLE
  2
LAYER
 70
     3
  0
LAYER
  2
0
 70
     0
 62
     7
  6
CONTINUOUS
  0
LAYER
  2
DEFPOINTS
 70
     0
 62
     7
  6
CONTINUOUS
  0
LAYER
  2
DIMENSIONS
 70
     0
 62
     2
  6
CENTER
  0
ENDTAB
  0
TABLE
  2
STYLE
 70
     1
  0
STYLE
  2
STANDARD
 70
     0
 40
0.0
 41
1.0
 50
0.0
 71
     0
 42
3.5
  3
txt
  4

  0
ENDTAB
  0
TABLE
  2
VIEW
 70
     0
  0
ENDTAB
  0
TABLE
  2
UCS
 70
     0
  0
ENDTAB
  0
TABLE
  2
APPID
 70
     3
  0
APPID
  2
ACAD
 70
     0
  0
APPID
  2
ACAECLAYERSTANDARD
 70
     0
  0
APPID
  2
ACAD_DSTYLE_DIMRADIAL_EXTE
 70
     0
  0
ENDTAB
  0
TABLE
  2
DIMSTYLE
 70
     1
  0
DIMSTYLE
  2
ISO-25
 70
     0
  3

  4

  5

  6

  7

 40
1.0
 41
2.5
 42
0.625
 43
3.75
 44
1.25
 45
0.0
 46
0.0
 47
0.0
 48
0.0
140
2.5
141
2.5
142
0.0
143
0.0393700787
144
1.0
145
0.0
146
1.0
147
0.625
 71
     0
 72
     0
 73
     0
 74
     0
 75
     0
 76
     0
 77
     1
 78
     8
170
     0
171
     3
172
     1
173
     0
174
     0
175
     0
176
     0
177
     0
178
     0
  0
ENDTAB
  0
ENDSEC
  0
SECTION
  2
BLOCKS
  0
BLOCK
  8
0
  2
$MODEL_SPACE
 70
     0
 10
0.0
 20
0.0
 30
0.0
  3
$MODEL_SPACE
  1

  0
ENDBLK
  5
21
  8
0
  0
BLOCK
 67
     1
  8
0
  2
$PAPER_SPACE
 70
     0
 10
0.0
 20
0.0
 30
0.0
  3
$PAPER_SPACE
  1

  0
ENDBLK
  5
1D
 67
     1
  8
0
  0
BLOCK
  8
0
  2
*D0
 70
     1
 10
0.0
 20
0.0
 30
0.0
  3
*D0
  1

  0
LINE
  5
2E4
  8
0
 62
     0
 10
369.7738619318
 20
65.0
 30
0.0
 11
528.4011697931828
 21
65.0
 31
0.0
  0
LINE
  5
2E5
  8
0
 62
     0
 10
369.7738619318
 20
-135.0
 30
0.0
 11
528.4011697931828
 21
-135.0
 31
0.0
  0
LINE
  5
2E6
  8
0
 62
     0
 10
527.4011697931828
 20
61.698
 30
0.0
 11
527.4011697931828
 21
-31.726
 31
0.0
  0
LINE
  5
2E7
  8
0
 62
     0
 10
527.4011697931828
 20
-131.698
 30
0.0
 11
527.4011697931828
 21
-38.274
 31
0.0
  0
SOLID
  5
2E8
  8
0
 62
     0
 10
527.9515031265162
 20
61.698
 30
0.0
 11
526.8508364598495
 21
61.698
 31
0.0
 12
527.4011697931828
 22
65.0
 32
0.0
 13
527.4011697931828
 23
65.0
 33
0.0
  0
SOLID
  5
2E9
  8
0
 62
     0
 10
526.8508364598495
 20
-131.698
 30
0.0
 11
527.9515031265162
 21
-131.698
 31
0.0
 12
527.4011697931828
 22
-135.0
 32
0.0
 13
527.4011697931828
 23
-135.0
 33
0.0
  0
TEXT
  5
2EA
  8
0
  6
CONTINUOUS
 62
     0
 10
519.8178364598494
 20
-36.75
 30
0.0
 40
3.5
  1
200.00
  0
POINT
  5
2EB
  8
DEFPOINTS
 62
     0
 10
368.7738619318
 20
65.0
 30
0.0
  0
POINT
  5
2EC
  8
DEFPOINTS
 62
     0
 10
368.7738619318
 20
-135.0
 30
0.0
  0
POINT
  5
2ED
  8
DEFPOINTS
 62
     0
 10
527.4011697931828
 20
-135.0
 30
0.0
  0
ENDBLK
  5
2E3
  8
0
  0
BLOCK
  8
0
  2
*D1
 70
     1
 10
0.0
 20
0.0
 30
0.0
  3
*D1
  1

  0
LINE
  5
630
  8
DIMENSIONS
 62
     0
 10
278.0433114956013
 20
30.44912854610544
 30
0.0
 11
278.0433114956013
 21
18.40529681440929
 31
0.0
  0
LINE
  5
631
  8
DIMENSIONS
 62
     0
 10
318.0433114956013
 20
30.44912854610544
 30
0.0
 11
318.0433114956013
 21
18.40529681440929
 31
0.0
  0
LINE
  5
632
  8
DIMENSIONS
 62
     0
 10
281.3453114956013
 20
19.40529681440929
 30
0.0
 11
314.7413114956013
 21
19.40529681440929
 31
0.0
  0
SOLID
  5
633
  8
DIMENSIONS
 62
     0
 10
281.3453114956013
 20
19.95563014774263
 30
0.0
 11
281.3453114956013
 21
18.85496348107596
 31
0.0
 12
278.0433114956013
 22
19.40529681440929
 32
0.0
 13
278.0433114956013
 23
19.40529681440929
 33
0.0
  0
SOLID
  5
634
  8
DIMENSIONS
 62
     0
 10
314.7413114956013
 20
18.85496348107596
 30
0.0
 11
314.7413114956013
 21
19.95563014774263
 31
0.0
 12
318.0433114956013
 22
19.40529681440929
 32
0.0
 13
318.0433114956013
 23
19.40529681440929
 33
0.0
  0
TEXT
  5
635
  8
DIMENSIONS
  6
CONTINUOUS
 62
     0
 10
291.9183114956013
 20
20.92929681440929
 30
0.0
 40
3.5
  1
40.00
  0
POINT
  5
636
  8
DEFPOINTS
 62
     0
 10
278.0433114956013
 20
31.44912854610544
 30
0.0
  0
POINT
  5
637
  8
DEFPOINTS
 62
     0
 10
318.0433114956013
 20
31.44912854610544
 30
0.0
  0
POINT
  5
638
  8
DEFPOINTS
 62
     0
 10
318.0433114956013
 20
19.40529681440929
 30
0.0
  0
ENDBLK
  5
62F
  8
0
  0
BLOCK
  8
0
  2
*D2
 70
     1
 10
0.0
 20
0.0
 30
0.0
  3
*D2
  1

  0
LINE
  5
640
  8
DIMENSIONS
 62
     0
 10
318.0433114956013
 20
30.44912854610544
 30
0.0
 11
318.0433114956013
 21
18.49394318420855
 31
0.0
  0
LINE
  5
641
  8
DIMENSIONS
 62
     0
 10
378.0433114956013
 20
30.44912854610544
 30
0.0
 11
378.0433114956013
 21
18.49394318420855
 31
0.0
  0
LINE
  5
642
  8
DIMENSIONS
 62
     0
 10
321.3453114956013
 20
19.49394318420855
 30
0.0
 11
374.7413114956013
 21
19.49394318420855
 31
0.0
  0
SOLID
  5
643
  8
DIMENSIONS
 62
     0
 10
321.3453114956013
 20
20.04427651754188
 30
0.0
 11
321.3453114956013
 21
18.94360985087521
 31
0.0
 12
318.0433114956013
 22
19.49394318420855
 32
0.0
 13
318.0433114956013
 23
19.49394318420855
 33
0.0
  0
SOLID
  5
644
  8
DIMENSIONS
 62
     0
 10
374.7413114956013
 20
18.94360985087521
 30
0.0
 11
374.7413114956013
 21
20.04427651754188
 31
0.0
 12
378.0433114956013
 22
19.49394318420855
 32
0.0
 13
378.0433114956013
 23
19.49394318420855
 33
0.0
  0
TEXT
  5
645
  8
DIMENSIONS
  6
CONTINUOUS
 62
     0
 10
341.9183114956013
 20
21.01794318420855
 30
0.0
 40
3.5
  1
60.00
  0
POINT
  5
646
  8
DEFPOINTS
 62
     0
 10
318.0433114956013
 20
31.44912854610544
 30
0.0
  0
POINT
  5
647
  8
DEFPOINTS
 62
     0
 10
378.0433114956013
 20
31.44912854610544
 30
0.0
  0
POINT
  5
648
  8
DEFPOINTS
 62
     0
 10
378.0433114956013
 20
19.49394318420855
 30
0.0
  0
ENDBLK
  5
63F
  8
0
  0
BLOCK
  8
0
  2
*D3
 70
     1
 10
0.0
 20
0.0
 30
0.0
  3
*D3
  1

  0
LINE
  5
64F
  8
DIMENSIONS
 62
     0
 10
378.0433114956013
 20
30.44912854610544
 30
0.0
 11
378.0433114956013
 21
18.49394318420855
 31
0.0
  0
LINE
  5
650
  8
DIMENSIONS
 62
     0
 10
418.0433114956013
 20
30.44912854610544
 30
0.0
 11
418.0433114956013
 21
18.49394318420855
 31
0.0
  0
LINE
  5
651
  8
DIMENSIONS
 62
     0
 10
381.3453114956013
 20
19.49394318420855
 30
0.0
 11
414.7413114956013
 21
19.49394318420855
 31
0.0
  0
SOLID
  5
652
  8
DIMENSIONS
 62
     0
 10
381.3453114956013
 20
20.04427651754188
 30
0.0
 11
381.3453114956013
 21
18.94360985087521
 31
0.0
 12
378.0433114956013
 22
19.49394318420855
 32
0.0
 13
378.0433114956013
 23
19.49394318420855
 33
0.0
  0
SOLID
  5
653
  8
DIMENSIONS
 62
     0
 10
414.7413114956013
 20
18.94360985087521
 30
0.0
 11
414.7413114956013
 21
20.04427651754188
 31
0.0
 12
418.0433114956013
 22
19.49394318420855
 32
0.0
 13
418.0433114956013
 23
19.49394318420855
 33
0.0
  0
TEXT
  5
654
  8
DIMENSIONS
  6
CONTINUOUS
 62
     0
 10
391.9183114956013
 20
21.01794318420855
 30
0.0
 40
3.5
  1
40.00
  0
POINT
  5
655
  8
DEFPOINTS
 62
     0
 10
378.0433114956013
 20
31.44912854610544
 30
0.0
  0
POINT
  5
656
  8
DEFPOINTS
 62
     0
 10
418.0433114956013
 20
31.44912854610544
 30
0.0
  0
POINT
  5
657
  8
DEFPOINTS
 62
     0
 10
418.0433114956013
 20
19.49394318420855
 30
0.0
  0
ENDBLK
  5
64E
  8
0
  0
BLOCK
  8
0
  2
*D4
 70
     1
 10
0.0
 20
0.0
 30
0.0
  3
*D4
  1

  0
LINE
  5
65E
  8
DIMENSIONS
 62
     0
 10
419.0433114956013
 20
30.44912854610544
 30
0.0
 11
446.4021136296747
 21
30.44912854610544
 31
0.0
  0
LINE
  5
65F
  8
DIMENSIONS
 62
     0
 10
419.0433114956013
 20
-118.5508714538945
 30
0.0
 11
446.4021136296747
 21
-118.5508714538945
 31
0.0
  0
LINE
  5
660
  8
DIMENSIONS
 62
     0
 10
445.4021136296747
 20
27.14712854610544
 30
0.0
 11
445.4021136296747
 21
-40.77687145389453
 31
0.0
  0
LINE
  5
661
  8
DIMENSIONS
 62
     0
 10
445.4021136296747
 20
-115.2488714538945
 30
0.0
 11
445.4021136296747
 21
-47.32487145389454
 31
0.0
  0
SOLID
  5
662
  8
DIMENSIONS
 62
     0
 10
445.952446963008
 20
27.14712854610544
 30
0.0
 11
444.8517802963413
 21
27.14712854610544
 31
0.0
 12
445.4021136296747
 22
30.44912854610544
 32
0.0
 13
445.4021136296747
 23
30.44912854610544
 33
0.0
  0
SOLID
  5
663
  8
DIMENSIONS
 62
     0
 10
444.8517802963413
 20
-115.2488714538945
 30
0.0
 11
445.952446963008
 21
-115.2488714538945
 31
0.0
 12
445.4021136296747
 22
-118.5508714538945
 32
0.0
 13
445.4021136296747
 23
-118.5508714538945
 33
0.0
  0
TEXT
  5
664
  8
DIMENSIONS
  6
CONTINUOUS
 62
     0
 10
437.8187802963413
 20
-45.80087145389453
 30
0.0
 40
3.5
  1
149.00
  0
POINT
  5
665
  8
DEFPOINTS
 62
     0
 10
418.0433114956013
 20
30.44912854610544
 30
0.0
  0
POINT
  5
666
  8
DEFPOINTS
 62
     0
 10
418.0433114956013
 20
-118.5508714538945
 30
0.0
  0
POINT
  5
667
  8
DEFPOINTS
 62
     0
 10
445.4021136296747
 20
-118.5508714538945
 30
0.0
  0
ENDBLK
  5
65D
  8
0
  0
BLOCK
  8
0
  2
*D5
 70
     1
 10
0.0
 20
0.0
 30
0.0
  3
*D5
  1

  0
LINE
  5
670
  8
DIMENSIONS
 62
     0
 10
381.1441241253701
 20
37.05007177337227
 30
0.0
 11
382.7434498522518
 21
39.93890565910097
 31
0.0
  0
LINE
  5
671
  8
DIMENSIONS
 62
     0
 10
374.9424988658325
 20
25.84818531883861
 30
0.0
 11
373.3431731389508
 21
22.95935143310991
 31
0.0
  0
TEXT
  5
672
  8
DIMENSIONS
  6
CONTINUOUS
 62
     0
 10
362.0236245987592
 20
34.77632236475459
 30
0.0
 40
3.5
  1
\U+22056.20
  0
SOLID
  5
673
  8
DIMENSIONS
 62
     0
 10
375.4239711801206
 20
25.58163103102499
 30
0.0
 11
374.4610265515444
 21
26.11473960665222
 31
0.0
 12
376.5418245927142
 22
28.7370192045673
 32
0.0
 13
376.5418245927142
 23
28.7370192045673
 33
0.0
  0
SOLID
  5
674
  8
DIMENSIONS
 62
     0
 10
380.662651811082
 20
37.31662606118589
 30
0.0
 11
381.6255964396582
 21
36.78351748555866
 31
0.0
 12
379.5447983984884
 22
34.16123788764358
 32
0.0
 13
379.5447983984884
 23
34.16123788764358
 33
0.0
  0
POINT
  5
675
  8
DEFPOINTS
 62
     0
 10
379.5447983984884
 20
34.16123788764358
 30
0.0
  0
POINT
  5
676
  8
DEFPOINTS
 62
     0
 10
376.5418245927142
 20
28.7370192045673
 30
0.0
  0
ENDBLK
  5
66F
  8
0
  0
BLOCK
  8
0
  2
*D6
 70
     1
 10
0.0
 20
0.0
 30
0.0
  3
*D6
  1

  0
LINE
  5
67D
  8
DIMENSIONS
 62
     0
 10
299.300600798826
 20
48.3311565658255
 30
0.0
 11
300.0691252859137
 21
45.11983688184097
 31
0.0
  0
LINE
  5
67E
  8
DIMENSIONS
 62
     0
 10
296.7860221923766
 20
58.83845452638541
 30
0.0
 11
296.0174977052889
 21
62.04977421036995
 31
0.0
  0
TEXT
  5
67F
  8
DIMENSIONS
  6
CONTINUOUS
 62
     0
 10
291.5094668039026
 20
45.40940965128058
 30
0.0
 40
3.5
  1
\U+22054.20
  0
LINE
  5
680
  8
DIMENSIONS
 62
     0
 10
297.5545466794644
 20
55.62713484240088
 30
0.0
 11
298.5320763117383
 21
51.54247624981004
 31
0.0
  0
SOLID
  5
681
  8
DIMENSIONS
 62
     0
 10
296.2508022450459
 20
58.7103671118708
 30
0.0
 11
297.3212421397074
 21
58.96654194090003
 31
0.0
 12
297.5545466794644
 22
55.62713484240088
 32
0.0
 13
297.5545466794644
 23
55.62713484240088
 33
0.0
  0
SOLID
  5
682
  8
DIMENSIONS
 62
     0
 10
299.8358207461567
 20
48.45924398034012
 30
0.0
 11
298.7653808514953
 21
48.20306915131088
 31
0.0
 12
298.5320763117383
 22
51.54247624981004
 32
0.0
 13
298.5320763117383
 23
51.54247624981004
 33
0.0
  0
POINT
  5
683
  8
DEFPOINTS
 62
     0
 10
298.5320763117383
 20
51.54247624981004
 30
0.0
  0
POINT
  5
684
  8
DEFPOINTS
 62
     0
 10
297.5545466794644
 20
55.62713484240088
 30
0.0
  0
ENDBLK
  5
67C
  8
0
  0
BLOCK
  8
0
  2
*D7
 70
     1
 10
0.0
 20
0.0
 30
0.0
  3
*D7
  1

  0
LINE
  5
68B
  8
DIMENSIONS
 62
     0
 10
205.9480142431666
 20
50.08939831188857
 30
0.0
 11
199.2553908359471
 21
50.35771888347651
 31
0.0
  0
TEXT
  5
68C
  8
DIMENSIONS
  6
CONTINUOUS
 62
     0
 10
176.2007180106836
 20
54.36358841888141
 30
0.0
 40
3.5
  1
\U+220510.00
  0
LINE
  5
68D
  8
DIMENSIONS
 62
     0
 10
199.2553908359471
 20
50.35771888347651
 30
0.0
 11
209.2473636744355
 21
49.95712083691345
 31
0.0
  0
SOLID
  5
68E
  8
DIMENSIONS
 62
     0
 10
202.5767865130452
 20
50.77533298037952
 30
0.0
 11
202.5326940213868
 21
49.67554983662324
 31
0.0
 12
199.2553908359471
 22
50.35771888347651
 32
0.0
 13
199.2553908359471
 23
50.35771888347651
 33
0.0
  0
SOLID
  5
68F
  8
DIMENSIONS
 62
     0
 10
205.9259679973374
 20
49.53950674001043
 30
0.0
 11
205.9700604889958
 21
50.63928988376671
 31
0.0
 12
209.2473636744355
 22
49.95712083691345
 32
0.0
 13
209.2473636744355
 23
49.95712083691345
 33
0.0
  0
POINT
  5
690
  8
DEFPOINTS
 62
     0
 10
209.2473636744355
 20
49.95712083691345
 30
0.0
  0
POINT
  5
691
  8
DEFPOINTS
 62
     0
 10
199.2553908359471
 20
50.35771888347651
 30
0.0
  0
ENDBLK
  5
68A
  8
0
  0
BLOCK
  8
0
  2
*D8
 70
     1
 10
0.0
 20
0.0
 30
0.0
  3
*D8
  1

  0
LINE
  5
698
  8
DIMENSIONS
 62
     0
 10
205.2513772551913
 20
50.15741986019498
 30
0.0
 11
220.0996077813068
 21
50.15741986019498
 31
0.0
  0
LINE
  5
699
  8
DIMENSIONS
 62
     0
 10
205.2513772551913
 20
0.1574198601949494
 30
0.0
 11
220.0996077813068
 21
0.1574198601949485
 31
0.0
  0
LINE
  5
69A
  8
DIMENSIONS
 62
     0
 10
219.0996077813068
 20
46.85541986019498
 30
0.0
 11
219.0996077813068
 21
28.43141986019496
 31
0.0
  0
LINE
  5
69B
  8
DIMENSIONS
 62
     0
 10
219.0996077813068
 20
3.459419860194949
 30
0.0
 11
219.0996077813068
 21
21.88341986019496
 31
0.0
  0
SOLID
  5
69C
  8
DIMENSIONS
 62
     0
 10
219.6499411146401
 20
46.85541986019498
 30
0.0
 11
218.5492744479735
 21
46.85541986019498
 31
0.0
 12
219.0996077813068
 22
50.15741986019498
 32
0.0
 13
219.0996077813068
 23
50.15741986019498
 33
0.0
  0
SOLID
  5
69D
  8
DIMENSIONS
 62
     0
 10
218.5492744479735
 20
3.459419860194949
 30
0.0
 11
219.6499411146401
 21
3.459419860194949
 31
0.0
 12
219.0996077813068
 22
0.1574198601949485
 32
0.0
 13
219.0996077813068
 23
0.1574198601949485
 33
0.0
  0
TEXT
  5
69E
  8
DIMENSIONS
  6
CONTINUOUS
 62
     0
 10
212.9746077813068
 20
23.40741986019496
 30
0.0
 40
3.5
  1
50.00
  0
POINT
  5
69F
  8
DEFPOINTS
 62
     0
 10
204.2513772551913
 20
50.15741986019498
 30
0.0
  0
POINT
  5
6A0
  8
DEFPOINTS
 62
     0
 10
204.2513772551913
 20
0.1574198601949494
 30
0.0
  0
POINT
  5
6A1
  8
DEFPOINTS
 62
     0
 10
219.0996077813068
 20
0.1574198601949485
 30
0.0
  0
ENDBLK
  5
697
  8
0
  0
BLOCK
  8
0
  2
*D9
 70
     1
 10
0.0
 20
0.0
 30
0.0
  3
*D9
  1

  0
LINE
  5
6AC
  8
DIMENSIONS
 62
     0
 10
202.9389342564632
 20
51.38636142719056
 30
0.0
 11
207.9741021125402
 21
46.67154556004066
 31
0.0
  0
TEXT
  5
6AD
  8
DIMENSIONS
  6
CONTINUOUS
 62
     0
 10
195.4759556138898
 20
57.3715992025093
 30
0.0
 40
3.5
  1
\U+220510.20
  0
LINE
  5
6AE
  8
DIMENSIONS
 62
     0
 10
207.9741021125402
 20
46.67154556004066
 30
0.0
 11
200.5286523978424
 21
53.64329416034929
 31
0.0
  0
SOLID
  5
6AF
  8
DIMENSIONS
 62
     0
 10
205.1876647983929
 20
48.52676465009593
 30
0.0
 11
205.9399757094459
 21
49.33019193630287
 31
0.0
 12
207.9741021125402
 22
46.67154556004066
 32
0.0
 13
207.9741021125402
 23
46.67154556004066
 33
0.0
  0
SOLID
  5
6B0
  8
DIMENSIONS
 62
     0
 10
203.3150897119897
 20
51.78807507029403
 30
0.0
 11
202.5627788009367
 21
50.98464778408709
 31
0.0
 12
200.5286523978424
 22
53.64329416034929
 32
0.0
 13
200.5286523978424
 23
53.64329416034929
 33
0.0
  0
POINT
  5
6B1
  8
DEFPOINTS
 62
     0
 10
200.5286523978424
 20
53.64329416034929
 30
0.0
  0
POINT
  5
6B2
  8
DEFPOINTS
 62
     0
 10
207.9741021125402
 20
46.67154556004066
 30
0.0
  0
ENDBLK
  5
6AB
  8
0
  0
BLOCK
  8
0
  2
CARRIAGE_BASE
 70
     0
 10
0.0
 20
0.0
 30
0.0
  3
CARRIAGE_BASE
  1

  0
CIRCLE
  5
9D7
  8
0
  6
CONTINUOUS
 62
     7
 10
418.0433114956013
 20
-118.5508714538945
 30
0.0
 40
3.09999999999998
  0
CIRCLE
  5
9D8
  8
0
  6
CONTINUOUS
 62
     7
 10
278.0433114956013
 20
31.44912854610544
 30
0.0
 40
3.099999999999987
  0
CIRCLE
  5
9D9
  8
0
  6
CONTINUOUS
 62
     7
 10
418.0433114956013
 20
31.44912854610544
 30
0.0
 40
3.099999999999987
  0
CIRCLE
  5
9DA
  8
0
  6
CONTINUOUS
 62
     7
 10
378.0433114956013
 20
31.44912854610544
 30
0.0
 40
3.099999999999994
  0
CIRCLE
  5
9DB
  8
0
  6
CONTINUOUS
 62
     7
 10
318.0433114956013
 20
31.44912854610544
 30
0.0
 40
3.099999999999994
  0
CIRCLE
  5
9DC
  8
0
  6
CONTINUOUS
 62
     7
 10
278.0433114956013
 20
-118.5508714538945
 30
0.0
 40
3.09999999999998
  0
CIRCLE
  5
9DD
  8
0
  6
CONTINUOUS
 62
     7
 10
318.0433114956013
 20
-118.5508714538945
 30
0.0
 40
3.099999999999994
  0
CIRCLE
  5
9DE
  8
0
  6
CONTINUOUS
 62
     7
 10
378.0433114956013
 20
-118.5508714538945
 30
0.0
 40
3.099999999999994
  0
CIRCLE
  5
9DF
  8
0
  6
CONTINUOUS
 62
     7
 10
298.0433114956013
 20
53.58480554610546
 30
0.0
 40
2.099999999999987
  0
POLYLINE
  5
9E0
  8
0
  6
CONTINUOUS
 62
     7
 66
     1
 10
0.0
 20
0.0
 30
0.0
 70
     1
  0
VERTEX
  5
A80
  8
0
  6
CONTINUOUS
 62
     7
 10
316.5382864956013
 20
-14.55087145389455
 30
0.0
 42
-1.0
  0
VERTEX
  5
A81
  8
0
  6
CONTINUOUS
 62
     7
 10
316.0433114956012
 20
-14.05589645389453
 30
0.0
  0
VERTEX
  5
A82
  8
0
  6
CONTINUOUS
 62
     7
 10
316.0433114956012
 20
-9.045846453894608
 30
0.0
 42
-0.9999999999999999
  0
VERTEX
  5
A83
  8
0
  6
CONTINUOUS
 62
     7
 10
316.5382864956013
 20
-8.55087145389449
 30
0.0
  0
VERTEX
  5
A84
  8
0
  6
CONTINUOUS
 62
     7
 10
379.5483364956013
 20
-8.550871453894505
 30
0.0
 42
-1.0
  0
VERTEX
  5
A85
  8
0
  6
CONTINUOUS
 62
     7
 10
380.0433114956013
 20
-9.04584645389454
 30
0.0
  0
VERTEX
  5
A86
  8
0
  6
CONTINUOUS
 62
     7
 10
380.0433114956012
 20
-14.05589645389454
 30
0.0
 42
-1.000000000000007
  0
VERTEX
  5
A87
  8
0
  6
CONTINUOUS
 62
     7
 10
379.5483364956013
 20
-14.55087145389453
 30
0.0
  0
VERTEX
  5
A88
  8
0
  6
CONTINUOUS
 62
     7
 10
364.0433114956013
 20
-14.55087145389454
 30
0.0
 42
0.414213562373095
  0
VERTEX
  5
A89
  8
0
  6
CONTINUOUS
 62
     7
 10
363.0433114956013
 20
-15.55087145389454
 30
0.0
  0
VERTEX
  5
A8A
  8
0
  6
CONTINUOUS
 62
     7
 10
363.0433114956013
 20
-30.55087145389454
 30
0.0
 42
-0.414213562373095
  0
VERTEX
  5
A8B
  8
0
  6
CONTINUOUS
 62
     7
 10
361.0433114956013
 20
-32.55087145389454
 30
0.0
  0
VERTEX
  5
A8C
  8
0
  6
CONTINUOUS
 62
     7
 10
335.0433114956013
 20
-32.55087145389454
 30
0.0
 42
-0.414213562373095
  0
VERTEX
  5
A8D
  8
0
  6
CONTINUOUS
 62
     7
 10
333.0433114956013
 20
-30.55087145389454
 30
0.0
  0
VERTEX
  5
A8E
  8
0
  6
CONTINUOUS
 62
     7
 10
333.0433114956013
 20
-15.55087145389454
 30
0.0
 42
0.414213562373095
  0
VERTEX
  5
A8F
  8
0
  6
CONTINUOUS
 62
     7
 10
332.0433114956013
 20
-14.55087145389454
 30
0.0
  0
SEQEND
  5
B07
  8
0
  6
CONTINUOUS
 62
     7
  0
POLYLINE
  5
9E1
  8
0
  6
CONTINUOUS
 62
     7
 66
     1
 10
0.0
 20
0.0
 30
0.0
 70
     1
  0
VERTEX
  5
A90
  8
0
  6
CONTINUOUS
 62
     7
 10
395.5382864956013
 20
-53.8008714538945
 30
0.0
 42
0.9999999999999999
  0
VERTEX
  5
A91
  8
0
  6
CONTINUOUS
 62
     7
 10
395.0433114956012
 20
-54.29584645389457
 30
0.0
  0
VERTEX
  5
A92
  8
0
  6
CONTINUOUS
 62
     7
 10
395.0433114956013
 20
-78.30589645389455
 30
0.0
 42
1.000000000000158
  0
VERTEX
  5
A93
  8
0
  6
CONTINUOUS
 62
     7
 10
395.5382864956013
 20
-78.80087145389453
 30
0.0
  0
VERTEX
  5
A94
  8
0
  6
CONTINUOUS
 62
     7
 10
400.5483364956007
 20
-78.80087145389433
 30
0.0
 42
1.000000000000014
  0
VERTEX
  5
A95
  8
0
  6
CONTINUOUS
 62
     7
 10
401.0433114956019
 20
-78.30589645389475
 30
0.0
  0
VERTEX
  5
A96
  8
0
  6
CONTINUOUS
 62
     7
 10
401.0433114956019
 20
-54.29584645389438
 30
0.0
 42
0.9999999999992751
  0
VERTEX
  5
A97
  8
0
  6
CONTINUOUS
 62
     7
 10
400.548336495601
 20
-53.80087145389432
 30
0.0
  0
SEQEND
  5
B08
  8
0
  6
CONTINUOUS
 62
     7
  0
POLYLINE
  5
9E2
  8
0
  6
CONTINUOUS
 62
     7
 66
     1
 10
0.0
 20
0.0
 30
0.0
 70
     1
  0
VERTEX
  5
A98
  8
0
  6
CONTINUOUS
 62
     7
 10
295.0433118690013
 20
-78.30589645389456
 30
0.0
 42
0.9999999999999999
  0
VERTEX
  5
A99
  8
0
  6
CONTINUOUS
 62
     7
 10
295.5382868690012
 20
-78.80087145389452
 30
0.0
  0
VERTEX
  5
A9A
  8
0
  6
CONTINUOUS
 62
     7
 10
300.5483368690013
 20
-78.80087145389454
 30
0.0
 42
0.9999999999999999
  0
VERTEX
  5
A9B
  8
0
  6
CONTINUOUS
 62
     7
 10
301.0433118690013
 20
-78.30589645389456
 30
0.0
  0
VERTEX
  5
A9C
  8
0
  6
CONTINUOUS
 62
     7
 10
301.0433118690164
 20
-54.29584645389448
 30
0.0
 42
1.000000000000007
  0
VERTEX
  5
A9D
  8
0
  6
CONTINUOUS
 62
     7
 10
300.5483361221861
 20
-53.80087145389459
 30
0.0
  0
VERTEX
  5
A9E
  8
0
  6
CONTINUOUS
 62
     7
 10
295.5382868690012
 20
-53.80087145389456
 30
0.0
 42
0.9999999999999999
  0
VERTEX
  5
A9F
  8
0
  6
CONTINUOUS
 62
     7
 10
295.0433118690013
 20
-54.29584645389451
 30
0.0
  0
SEQEND
  5
B09
  8
0
  6
CONTINUOUS
 62
     7
  0
POLYLINE
  5
9E3
  8
0
  6
CONTINUOUS
 62
     7
 66
     1
 10
0.0
 20
0.0
 30
0.0
 70
     1
  0
VERTEX
  5
AA0
  8
0
  6
CONTINUOUS
 62
     7
 10
309.4433114956025
 20
50.44912854614281
 30
0.0
 42
-0.283424313936142
  0
VERTEX
  5
AA1
  8
0
  6
CONTINUOUS
 62
     7
 10
308.043311495602
 20
54.84912854613874
 30
0.0
  0
VERTEX
  5
AA2
  8
0
  6
CONTINUOUS
 62
     7
 10
308.0433114956013
 20
54.97996645680547
 30
0.0
 42
0.414213562373095
  0
VERTEX
  5
AA3
  8
0
  6
CONTINUOUS
 62
     7
 10
303.6433114956013
 20
59.37996645680545
 30
0.0
  0
VERTEX
  5
AA4
  8
0
  6
CONTINUOUS
 62
     7
 10
292.4433114956013
 20
59.37996645680539
 30
0.0
 42
0.414213562373095
  0
VERTEX
  5
AA5
  8
0
  6
CONTINUOUS
 62
     7
 10
288.0433114956014
 20
54.97996645680547
 30
0.0
  0
VERTEX
  5
AA6
  8
0
  6
CONTINUOUS
 62
     7
 10
288.0433114956012
 20
54.84912854610545
 30
0.0
 42
-0.414213562373095
  0
VERTEX
  5
AA7
  8
0
  6
CONTINUOUS
 62
     7
 10
283.6433114956013
 20
50.44912854610544
 30
0.0
  0
VERTEX
  5
AA8
  8
0
  6
CONTINUOUS
 62
     7
 10
272.5433114956013
 20
50.44912854610544
 30
0.0
 42
0.414213562373095
  0
VERTEX
  5
AA9
  8
0
  6
CONTINUOUS
 62
     7
 10
270.5433114956013
 20
48.44912854610544
 30
0.0
  0
VERTEX
  5
AAA
  8
0
  6
CONTINUOUS
 62
     7
 10
270.5433114956013
 20
-132.5508714538946
 30
0.0
 42
0.414213562373095
  0
VERTEX
  5
AAB
  8
0
  6
CONTINUOUS
 62
     7
 10
272.5433114956013
 20
-134.5508714538946
 30
0.0
  0
VERTEX
  5
AAC
  8
0
  6
CONTINUOUS
 62
     7
 10
423.5433114956013
 20
-134.5508714538945
 30
0.0
 42
0.414213562373095
  0
VERTEX
  5
AAD
  8
0
  6
CONTINUOUS
 62
     7
 10
425.5433114956013
 20
-132.5508714538946
 30
0.0
  0
VERTEX
  5
AAE
  8
0
  6
CONTINUOUS
 62
     7
 10
425.5433114956013
 20
48.44912854610544
 30
0.0
 42
0.414213562373095
  0
VERTEX
  5
AAF
  8
0
  6
CONTINUOUS
 62
     7
 10
423.5433114956013
 20
50.44912854610545
 30
0.0
  0
SEQEND
  5
B0A
  8
0
  6
CONTINUOUS
 62
     7
  0
DIMENSION
  5
9E4
  8
DIMENSIONS
  2
*D11
 10
318.0433114956013
 20
19.40529681440929
 30
0.0
 11
298.0433114956013
 21
22.67929681440929
 31
0.0
 70
    32
  3
ISO-25
 13
278.0433114956013
 23
31.44912854610544
 33
0.0
 14
318.0433114956013
 24
31.44912854610544
 34
0.0
1001
ACAD
1000
DSTYLE
1002
{
1070
   287
1070
     5
1070
    41
1040
3.302
1070
   271
1070
     2
1070
    44
1040
1.0
1070
    42
1040
1.0
1070
   147
1040
1.524
1070
   272
1070
     2
1070
    73
1070
     1
1070
   279
1070
     2
1070
    74
1070
     1
1070
   140
1040
3.5
1070
    78
1070
     0
1002
}
  0
DIMENSION
  5
9E5
  8
DIMENSIONS
  2
*D12
 10
378.0433114956013
 20
19.49394318420855
 30
0.0
 11
348.0433114956013
 21
22.76794318420855
 31
0.0
 70
    32
  3
ISO-25
 13
318.0433114956013
 23
31.44912854610544
 33
0.0
 14
378.0433114956013
 24
31.44912854610544
 34
0.0
1001
ACAD
1000
DSTYLE
1002
{
1070
   287
1070
     5
1070
    41
1040
3.302
1070
   271
1070
     2
1070
    44
1040
1.0
1070
    42
1040
1.0
1070
   147
1040
1.524
1070
   272
1070
     2
1070
    73
1070
     1
1070
   279
1070
     2
1070
    74
1070
     1
1070
   140
1040
3.5
1070
    78
1070
     0
1002
}
  0
DIMENSION
  5
9E6
  8
DIMENSIONS
  2
*D13
 10
418.0433114956013
 20
19.49394318420855
 30
0.0
 11
398.0433114956013
 21
22.76794318420855
 31
0.0
 70
    32
  3
ISO-25
 13
378.0433114956013
 23
31.44912854610544
 33
0.0
 14
418.0433114956013
 24
31.44912854610544
 34
0.0
1001
ACAD
1000
DSTYLE
1002
{
1070
   287
1070
     5
1070
    41
1040
3.302
1070
   271
1070
     2
1070
    44
1040
1.0
1070
    42
1040
1.0
1070
   147
1040
1.524
1070
   272
1070
     2
1070
    73
1070
     1
1070
   279
1070
     2
1070
    74
1070
     1
1070
   140
1040
3.5
1070
    78
1070
     0
1002
}
  0
DIMENSION
  5
9E7
  8
DIMENSIONS
  2
*D14
 10
445.4021136296747
 20
-118.5508714538945
 30
0.0
 11
445.4021136296747
 21
-44.05087145389453
 31
0.0
 70
    32
  3
ISO-25
 13
418.0433114956013
 23
30.44912854610544
 33
0.0
 14
418.0433114956013
 24
-118.5508714538945
 34
0.0
 50
90.0
1001
ACAD
1000
DSTYLE
1002
{
1070
   287
1070
     5
1070
    41
1040
3.302
1070
   271
1070
     2
1070
    44
1040
1.0
1070
    42
1040
1.0
1070
   147
1040
1.524
1070
   272
1070
     2
1070
    73
1070
     1
1070
   279
1070
     2
1070
    74
1070
     1
1070
   140
1040
3.5
1070
    78
1070
     0
1002
}
  0
DIMENSION
  5
9E8
  8
DIMENSIONS
  2
*D15
 10
376.5418245927142
 20
28.7370192045673
 30
0.0
 11
368.7319579320925
 21
36.52632236475459
 31
0.0
 70
   163
  3
ISO-25
 15
379.5447983984884
 25
34.16123788764358
 35
0.0
 40
0.0
1001
ACAD
1000
DSTYLE
1002
{
1070
   287
1070
     5
1070
    41
1040
3.302
1070
   271
1070
     2
1070
    44
1040
1.0
1070
    42
1040
1.0
1070
   147
1040
1.524
1070
   272
1070
     2
1070
    73
1070
     1
1070
   279
1070
     2
1070
    74
1070
     1
1070
   140
1040
3.5
1070
    78
1070
     0
1002
}
1001
ACAD_DSTYLE_DIMRADIAL_EXTE
1070
   387
1070
     1
1070
   388
1040
0.0
1070
   390
1040
6.283185307179586
  0
DIMENSION
  5
9E9
  8
DIMENSIONS
  2
*D16
 10
297.5545466794644
 20
55.62713484240088
 30
0.0
 11
298.2178001372359
 21
47.15940965128058
 31
0.0
 70
   163
  3
ISO-25
 15
298.5320763117383
 25
51.54247624981004
 35
0.0
 40
0.0
1001
ACAD
1000
DSTYLE
1002
{
1070
   287
1070
     5
1070
    41
1040
3.302
1070
   271
1070
     2
1070
    44
1040
1.0
1070
    42
1040
1.0
1070
   147
1040
1.524
1070
   272
1070
     2
1070
    73
1070
     1
1070
   279
1070
     2
1070
    74
1070
     1
1070
   140
1040
3.5
1070
    78
1070
     0
1002
}
1001
ACAD_DSTYLE_DIMRADIAL_EXTE
1070
   387
1070
     1
1070
   388
1040
0.0
1070
   390
1040
6.283185307179586
  0
ENDBLK
  5
A31
  8
0
  0
BLOCK
  8
0
  2
*D11
 70
     1
 10
0.0
 20
0.0
 30
0.0
  3
*D11
  1

  0
LINE
  5
9ED
  8
DIMENSIONS
 62
     0
 10
278.0433114956013
 20
30.44912854610544
 30
0.0
 11
278.0433114956013
 21
18.40529681440929
 31
0.0
  0
LINE
  5
9EE
  8
DIMENSIONS
 62
     0
 10
318.0433114956013
 20
30.44912854610544
 30
0.0
 11
318.0433114956013
 21
18.40529681440929
 31
0.0
  0
LINE
  5
9EF
  8
DIMENSIONS
 62
     0
 10
281.3453114956013
 20
19.40529681440929
 30
0.0
 11
314.7413114956013
 21
19.40529681440929
 31
0.0
  0
SOLID
  5
9F0
  8
DIMENSIONS
 62
     0
 10
281.3453114956013
 20
19.95563014774262
 30
0.0
 11
281.3453114956013
 21
18.85496348107596
 31
0.0
 12
278.0433114956013
 22
19.40529681440929
 32
0.0
 13
278.0433114956013
 23
19.40529681440929
 33
0.0
  0
SOLID
  5
9F1
  8
DIMENSIONS
 62
     0
 10
314.7413114956013
 20
18.85496348107596
 30
0.0
 11
314.7413114956013
 21
19.95563014774262
 31
0.0
 12
318.0433114956013
 22
19.40529681440929
 32
0.0
 13
318.0433114956013
 23
19.40529681440929
 33
0.0
  0
TEXT
  5
9F2
  8
DIMENSIONS
  6
CONTINUOUS
 62
     0
 10
291.9183114956013
 20
20.92929681440929
 30
0.0
 40
3.5
  1
40.00
  0
POINT
  5
9F3
  8
DEFPOINTS
 62
     0
 10
278.0433114956013
 20
31.44912854610544
 30
0.0
  0
POINT
  5
9F4
  8
DEFPOINTS
 62
     0
 10
318.0433114956013
 20
31.44912854610544
 30
0.0
  0
POINT
  5
9F5
  8
DEFPOINTS
 62
     0
 10
318.0433114956013
 20
19.40529681440929
 30
0.0
  0
ENDBLK
  5
9EC
  8
0
  0
BLOCK
  8
0
  2
*D12
 70
     1
 10
0.0
 20
0.0
 30
0.0
  3
*D12
  1

  0
LINE
  5
9F9
  8
DIMENSIONS
 62
     0
 10
318.0433114956013
 20
30.44912854610544
 30
0.0
 11
318.0433114956013
 21
18.49394318420855
 31
0.0
  0
LINE
  5
9FA
  8
DIMENSIONS
 62
     0
 10
378.0433114956013
 20
30.44912854610544
 30
0.0
 11
378.0433114956013
 21
18.49394318420855
 31
0.0
  0
LINE
  5
9FB
  8
DIMENSIONS
 62
     0
 10
321.3453114956013
 20
19.49394318420855
 30
0.0
 11
374.7413114956013
 21
19.49394318420855
 31
0.0
  0
SOLID
  5
9FC
  8
DIMENSIONS
 62
     0
 10
321.3453114956013
 20
20.04427651754188
 30
0.0
 11
321.3453114956013
 21
18.94360985087522
 31
0.0
 12
318.0433114956013
 22
19.49394318420855
 32
0.0
 13
318.0433114956013
 23
19.49394318420855
 33
0.0
  0
SOLID
  5
9FD
  8
DIMENSIONS
 62
     0
 10
374.7413114956013
 20
18.94360985087522
 30
0.0
 11
374.7413114956013
 21
20.04427651754188
 31
0.0
 12
378.0433114956013
 22
19.49394318420855
 32
0.0
 13
378.0433114956013
 23
19.49394318420855
 33
0.0
  0
TEXT
  5
9FE
  8
DIMENSIONS
  6
CONTINUOUS
 62
     0
 10
341.9183114956013
 20
21.01794318420855
 30
0.0
 40
3.5
  1
60.00
  0
POINT
  5
9FF
  8
DEFPOINTS
 62
     0
 10
318.0433114956013
 20
31.44912854610544
 30
0.0
  0
POINT
  5
A00
  8
DEFPOINTS
 62
     0
 10
378.0433114956013
 20
31.44912854610544
 30
0.0
  0
POINT
  5
A01
  8
DEFPOINTS
 62
     0
 10
378.0433114956013
 20
19.49394318420855
 30
0.0
  0
ENDBLK
  5
9F8
  8
0
  0
BLOCK
  8
0
  2
*D13
 70
     1
 10
0.0
 20
0.0
 30
0.0
  3
*D13
  1

  0
LINE
  5
A05
  8
DIMENSIONS
 62
     0
 10
378.0433114956013
 20
30.44912854610544
 30
0.0
 11
378.0433114956013
 21
18.49394318420855
 31
0.0
  0
LINE
  5
A06
  8
DIMENSIONS
 62
     0
 10
418.0433114956013
 20
30.44912854610544
 30
0.0
 11
418.0433114956013
 21
18.49394318420855
 31
0.0
  0
LINE
  5
A07
  8
DIMENSIONS
 62
     0
 10
381.3453114956013
 20
19.49394318420855
 30
0.0
 11
414.7413114956013
 21
19.49394318420855
 31
0.0
  0
SOLID
  5
A08
  8
DIMENSIONS
 62
     0
 10
381.3453114956013
 20
20.04427651754188
 30
0.0
 11
381.3453114956013
 21
18.94360985087522
 31
0.0
 12
378.0433114956013
 22
19.49394318420855
 32
0.0
 13
378.0433114956013
 23
19.49394318420855
 33
0.0
  0
SOLID
  5
A09
  8
DIMENSIONS
 62
     0
 10
414.7413114956013
 20
18.94360985087522
 30
0.0
 11
414.7413114956013
 21
20.04427651754188
 31
0.0
 12
418.0433114956013
 22
19.49394318420855
 32
0.0
 13
418.0433114956013
 23
19.49394318420855
 33
0.0
  0
TEXT
  5
A0A
  8
DIMENSIONS
  6
CONTINUOUS
 62
     0
 10
391.9183114956013
 20
21.01794318420855
 30
0.0
 40
3.5
  1
40.00
  0
POINT
  5
A0B
  8
DEFPOINTS
 62
     0
 10
378.0433114956013
 20
31.44912854610544
 30
0.0
  0
POINT
  5
A0C
  8
DEFPOINTS
 62
     0
 10
418.0433114956013
 20
31.44912854610544
 30
0.0
  0
POINT
  5
A0D
  8
DEFPOINTS
 62
     0
 10
418.0433114956013
 20
19.49394318420855
 30
0.0
  0
ENDBLK
  5
A04
  8
0
  0
BLOCK
  8
0
  2
*D14
 70
     1
 10
0.0
 20
0.0
 30
0.0
  3
*D14
  1

  0
LINE
  5
A11
  8
DIMENSIONS
 62
     0
 10
419.0433114956013
 20
30.44912854610544
 30
0.0
 11
446.4021136296747
 21
30.44912854610544
 31
0.0
  0
LINE
  5
A12
  8
DIMENSIONS
 62
     0
 10
419.0433114956013
 20
-118.5508714538945
 30
0.0
 11
446.4021136296747
 21
-118.5508714538945
 31
0.0
  0
LINE
  5
A13
  8
DIMENSIONS
 62
     0
 10
445.4021136296747
 20
27.14712854610544
 30
0.0
 11
445.4021136296747
 21
-40.77687145389453
 31
0.0
  0
LINE
  5
A14
  8
DIMENSIONS
 62
     0
 10
445.4021136296747
 20
-115.2488714538945
 30
0.0
 11
445.4021136296747
 21
-47.32487145389454
 31
0.0
  0
SOLID
  5
A15
  8
DIMENSIONS
 62
     0
 10
445.9524469630081
 20
27.14712854610544
 30
0.0
 11
444.8517802963414
 21
27.14712854610544
 31
0.0
 12
445.4021136296747
 22
30.44912854610544
 32
0.0
 13
445.4021136296747
 23
30.44912854610544
 33
0.0
  0
SOLID
  5
A16
  8
DIMENSIONS
 62
     0
 10
444.8517802963414
 20
-115.2488714538945
 30
0.0
 11
445.9524469630081
 21
-115.2488714538945
 31
0.0
 12
445.4021136296747
 22
-118.5508714538945
 32
0.0
 13
445.4021136296747
 23
-118.5508714538945
 33
0.0
  0
TEXT
  5
A17
  8
DIMENSIONS
  6
CONTINUOUS
 62
     0
 10
437.8187802963414
 20
-45.80087145389453
 30
0.0
 40
3.5
  1
149.00
  0
POINT
  5
A18
  8
DEFPOINTS
 62
     0
 10
418.0433114956013
 20
30.44912854610544
 30
0.0
  0
POINT
  5
A19
  8
DEFPOINTS
 62
     0
 10
418.0433114956013
 20
-118.5508714538945
 30
0.0
  0
POINT
  5
A1A
  8
DEFPOINTS
 62
     0
 10
445.4021136296747
 20
-118.5508714538945
 30
0.0
  0
ENDBLK
  5
A10
  8
0
  0
BLOCK
  8
0
  2
*D15
 70
     1
 10
0.0
 20
0.0
 30
0.0
  3
*D15
  1

  0
LINE
  5
A1E
  8
DIMENSIONS
 62
     0
 10
381.1441241253701
 20
37.05007177337227
 30
0.0
 11
382.7434498522518
 21
39.93890565910097
 31
0.0
  0
LINE
  5
A1F
  8
DIMENSIONS
 62
     0
 10
374.9424988658325
 20
25.84818531883861
 30
0.0
 11
373.3431731389508
 21
22.95935143310991
 31
0.0
  0
TEXT
  5
A20
  8
DIMENSIONS
  6
CONTINUOUS
 62
     0
 10
362.0236245987592
 20
34.77632236475459
 30
0.0
 40
3.5
  1
\U+22056.20
  0
SOLID
  5
A21
  8
DIMENSIONS
 62
     0
 10
375.4239711801206
 20
25.58163103102499
 30
0.0
 11
374.4610265515444
 21
26.11473960665222
 31
0.0
 12
376.5418245927142
 22
28.7370192045673
 32
0.0
 13
376.5418245927142
 23
28.7370192045673
 33
0.0
  0
SOLID
  5
A22
  8
DIMENSIONS
 62
     0
 10
380.662651811082
 20
37.31662606118589
 30
0.0
 11
381.6255964396582
 21
36.78351748555866
 31
0.0
 12
379.5447983984884
 22
34.16123788764358
 32
0.0
 13
379.5447983984884
 23
34.16123788764358
 33
0.0
  0
POINT
  5
A23
  8
DEFPOINTS
 62
     0
 10
379.5447983984884
 20
34.16123788764358
 30
0.0
  0
POINT
  5
A24
  8
DEFPOINTS
 62
     0
 10
376.5418245927142
 20
28.7370192045673
 30
0.0
  0
ENDBLK
  5
A1D
  8
0
  0
BLOCK
  8
0
  2
*D16
 70
     1
 10
0.0
 20
0.0
 30
0.0
  3
*D16
  1

  0
LINE
  5
A28
  8
DIMENSIONS
 62
     0
 10
299.3006007988261
 20
48.33115656582551
 30
0.0
 11
300.0691252859138
 21
45.11983688184097
 31
0.0
  0
LINE
  5
A29
  8
DIMENSIONS
 62
     0
 10
296.7860221923767
 20
58.83845452638541
 30
0.0
 11
296.0174977052889
 21
62.04977421036995
 31
0.0
  0
TEXT
  5
A2A
  8
DIMENSIONS
  6
CONTINUOUS
 62
     0
 10
291.5094668039026
 20
45.40940965128058
 30
0.0
 40
3.5
  1
\U+22054.20
  0
LINE
  5
A2B
  8
DIMENSIONS
 62
     0
 10
297.5545466794644
 20
55.62713484240088
 30
0.0
 11
298.5320763117383
 21
51.54247624981004
 31
0.0
  0
SOLID
  5
A2C
  8
DIMENSIONS
 62
     0
 10
296.2508022450459
 20
58.71036711187079
 30
0.0
 11
297.3212421397074
 21
58.96654194090004
 31
0.0
 12
297.5545466794644
 22
55.62713484240088
 32
0.0
 13
297.5545466794644
 23
55.62713484240088
 33
0.0
  0
SOLID
  5
A2D
  8
DIMENSIONS
 62
     0
 10
299.8358207461568
 20
48.45924398034013
 30
0.0
 11
298.7653808514953
 21
48.20306915131088
 31
0.0
 12
298.5320763117383
 22
51.54247624981004
 32
0.0
 13
298.5320763117383
 23
51.54247624981004
 33
0.0
  0
POINT
  5
A2E
  8
DEFPOINTS
 62
     0
 10
298.5320763117383
 20
51.54247624981004
 30
0.0
  0
POINT
  5
A2F
  8
DEFPOINTS
 62
     0
 10
297.5545466794644
 20
55.62713484240088
 30
0.0
  0
ENDBLK
  5
A27
  8
0
  0
BLOCK
  8
0
  2
CARRIAGE_MUSCLE_BRACKET
 70
     0
 10
0.0
 20
0.0
 30
0.0
  3
CARRIAGE_MUSCLE_BRACKET
  1

  0
POLYLINE
  5
A34
  8
0
 66
     1
 10
0.0
 20
0.0
 30
0.0
 70
     1
  0
VERTEX
  5
AB0
  8
0
 10
236.2513772551914
 20
10.75741986019491
 30
0.0
  0
VERTEX
  5
AB1
  8
0
 10
236.2513771618375
 20
27.66244439342611
 30
0.0
 42
-1.000000565809409
  0
VERTEX
  5
AB2
  8
0
 10
236.7463516286065
 20
28.15741923361026
 30
0.0
  0
VERTEX
  5
AB3
  8
0
 10
256.2513772766075
 20
28.15741986019501
 30
0.0
 42
0.4142135561004322
  0
VERTEX
  5
AB4
  8
0
 10
257.2513772551913
 20
29.15741986019501
 30
0.0
  0
VERTEX
  5
AB5
  8
0
 10
257.2513772551913
 20
39.55741986019495
 30
0.0
 42
0.4142135623734183
  0
VERTEX
  5
AB6
  8
0
 10
256.9013772551914
 20
39.90741986019498
 30
0.0
  0
VERTEX
  5
AB7
  8
0
 10
251.74635172196
 20
39.90741976684114
 30
0.0
 42
-1.000001131619427
  0
VERTEX
  5
AB8
  8
0
 10
251.2513771618375
 20
40.40239432696373
 30
0.0
  0
VERTEX
  5
AB9
  8
0
 10
251.2513771618375
 20
53.41244439342614
 30
0.0
 42
-0.9999996163894443
  0
VERTEX
  5
ABA
  8
0
 10
251.7463512219594
 20
53.90741970354878
 30
0.0
  0
VERTEX
  5
ABB
  8
0
 10
256.9013772551914
 20
53.90741986019498
 30
0.0
 42
0.4142135623734819
  0
VERTEX
  5
ABC
  8
0
 10
257.2513772551913
 20
54.25741986019489
 30
0.0
  0
VERTEX
  5
ABD
  8
0
 10
257.2513772551913
 20
64.657419860195
 30
0.0
 42
0.4142135623730995
  0
VERTEX
  5
ABE
  8
0
 10
256.2513772551913
 20
65.657419860195
 30
0.0
  0
VERTEX
  5
ABF
  8
0
 10
152.2513772551913
 20
65.657419860195
 30
0.0
 42
0.4142135623730995
  0
VERTEX
  5
AC0
  8
0
 10
151.2513772551913
 20
64.657419860195
 30
0.0
  0
VERTEX
  5
AC1
  8
0
 10
151.2513772551913
 20
54.25741986019489
 30
0.0
 42
0.4142135623732318
  0
VERTEX
  5
AC2
  8
0
 10
151.6013772551914
 20
53.90741986019498
 30
0.0
  0
VERTEX
  5
AC3
  8
0
 10
156.756402288423
 20
53.90741970354878
 30
0.0
 42
-0.9999981011618322
  0
VERTEX
  5
AC4
  8
0
 10
157.2513770985451
 20
53.41244489342654
 30
0.0
  0
VERTEX
  5
AC5
  8
0
 10
157.2513770985451
 20
40.4023938269633
 30
0.0
 42
-0.9999996163899467
  0
VERTEX
  5
AC6
  8
0
 10
156.7564017884224
 20
39.9074197668412
 30
0.0
  0
VERTEX
  5
AC7
  8
0
 10
151.6013772551914
 20
39.90741986019498
 30
0.0
 42
0.4142135623730308
  0
VERTEX
  5
AC8
  8
0
 10
151.2513772551913
 20
39.55741986019501
 30
0.0
  0
VERTEX
  5
AC9
  8
0
 10
151.2513772551913
 20
29.15741986019501
 30
0.0
 42
0.4142135623730995
  0
VERTEX
  5
ACA
  8
0
 10
152.2513772551913
 20
28.15741986019501
 30
0.0
  0
VERTEX
  5
ACB
  8
0
 10
171.7564025083608
 20
28.15741960702547
 30
0.0
 42
-1.00000000000076
  0
VERTEX
  5
ACC
  8
0
 10
172.2513772551914
 20
27.6624448601948
 30
0.0
  0
VERTEX
  5
ACD
  8
0
 10
172.2513772551914
 20
10.75741986019491
 30
0.0
 42
0.4142135623731459
  0
VERTEX
  5
ACE
  8
0
 10
172.6013772551914
 20
10.40741986019495
 30
0.0
  0
VERTEX
  5
ACF
  8
0
 10
177.756402288423
 20
10.40741970354873
 30
0.0
 42
-0.9999981011618106
  0
VERTEX
  5
AD0
  8
0
 10
178.2513770985451
 20
9.912444893426596
 30
0.0
  0
VERTEX
  5
AD1
  8
0
 10
178.2513770985451
 20
-3.097606173036723
 30
0.0
 42
-0.9999996163900007
  0
VERTEX
  5
AD2
  8
0
 10
177.7564017884224
 20
-3.592580233158856
 30
0.0
  0
VERTEX
  5
AD3
  8
0
 10
172.6013772551914
 20
-3.592580139805051
 30
0.0
 42
0.4142135623730819
  0
VERTEX
  5
AD4
  8
0
 10
172.2513772551914
 20
-3.942580139805074
 30
0.0
  0
VERTEX
  5
AD5
  8
0
 10
172.2513772551913
 20
-14.34258013980505
 30
0.0
 42
0.4142135623730995
  0
VERTEX
  5
AD6
  8
0
 10
173.2513772551913
 20
-15.34258013980504
 30
0.0
  0
VERTEX
  5
AD7
  8
0
 10
204.2513772551913
 20
-15.34258013980504
 30
0.0
  0
VERTEX
  5
AD8
  8
0
 10
235.2513772551913
 20
-15.34258013980504
 30
0.0
 42
0.4142135623730995
  0
VERTEX
  5
AD9
  8
0
 10
236.2513772551913
 20
-14.34258013980505
 30
0.0
  0
VERTEX
  5
ADA
  8
0
 10
236.2513772551914
 20
-3.942580139805074
 30
0.0
 42
0.4142135623732579
  0
VERTEX
  5
ADB
  8
0
 10
235.9013772551914
 20
-3.592580139805051
 30
0.0
  0
VERTEX
  5
ADC
  8
0
 10
230.7463517219603
 20
-3.592580233158884
 30
0.0
 42
-1.000001131619535
  0
VERTEX
  5
ADD
  8
0
 10
230.2513771618375
 20
-3.097605673036298
 30
0.0
  0
VERTEX
  5
ADE
  8
0
 10
230.2513771618375
 20
9.912444393426142
 30
0.0
 42
-0.9999996163895822
  0
VERTEX
  5
ADF
  8
0
 10
230.7463512219598
 20
10.40741970354875
 30
0.0
  0
VERTEX
  5
AE0
  8
0
 10
235.9013772551914
 20
10.40741986019495
 30
0.0
 42
0.4142135623733246
  0
SEQEND
  5
B0B
  8
0
  0
DIMENSION
  5
A35
  8
DIMENSIONS
  2
*D18
 10
219.0996077813068
 20
0.1574198601949485
 30
0.0
 11
219.0996077813068
 21
25.15741986019496
 31
0.0
 70
    32
  3
ISO-25
 13
204.2513772551913
 23
50.15741986019498
 33
0.0
 14
204.2513772551913
 24
0.1574198601949494
 34
0.0
 50
90.0
1001
ACAD
1000
DSTYLE
1002
{
1070
   287
1070
     5
1070
    41
1040
3.302
1070
   271
1070
     2
1070
    44
1040
1.0
1070
    42
1040
1.0
1070
   147
1040
1.524
1070
   272
1070
     2
1070
    73
1070
     1
1070
   279
1070
     2
1070
    74
1070
     1
1070
   140
1040
3.5
1070
    78
1070
     0
1002
}
  0
CIRCLE
  5
A36
  8
0
 10
204.2513772551913
 20
50.15741986019498
 30
0.0
 40
5.1
  0
CIRCLE
  5
A37
  8
0
 10
204.2513772551913
 20
0.157419860194949
 30
0.0
 40
5.1
  0
DIMENSION
  5
A38
  8
DIMENSIONS
  2
*D19
 10
207.9741021125402
 20
46.67154556004066
 30
0.0
 11
203.0592889472232
 21
59.1215992025093
 31
0.0
 70
   163
  3
ISO-25
 15
200.5286523978424
 25
53.64329416034929
 35
0.0
 40
0.0
1001
ACAD
1000
DSTYLE
1002
{
1070
   287
1070
     5
1070
    41
1040
3.302
1070
   271
1070
     2
1070
    44
1040
1.0
1070
    42
1040
1.0
1070
   147
1040
1.524
1070
   272
1070
     2
1070
    73
1070
     1
1070
   279
1070
     2
1070
    74
1070
     1
1070
   140
1040
3.5
1070
    78
1070
     0
1002
}
1001
ACAD_DSTYLE_DIMRADIAL_EXTE
1070
   387
1070
     1
1070
   388
1040
0.0
1070
   390
1040
6.283185307179586
  0
ENDBLK
  5
A51
  8
0
  0
BLOCK
  8
0
  2
*D18
 70
     1
 10
0.0
 20
0.0
 30
0.0
  3
*D18
  1

  0
LINE
  5
A3C
  8
DIMENSIONS
 62
     0
 10
205.2513772551913
 20
50.15741986019498
 30
0.0
 11
220.0996077813068
 21
50.15741986019498
 31
0.0
  0
LINE
  5
A3D
  8
DIMENSIONS
 62
     0
 10
205.2513772551913
 20
0.1574198601949494
 30
0.0
 11
220.0996077813068
 21
0.1574198601949484
 31
0.0
  0
LINE
  5
A3E
  8
DIMENSIONS
 62
     0
 10
219.0996077813068
 20
46.85541986019498
 30
0.0
 11
219.0996077813068
 21
28.43141986019496
 31
0.0
  0
LINE
  5
A3F
  8
DIMENSIONS
 62
     0
 10
219.0996077813068
 20
3.459419860194949
 30
0.0
 11
219.0996077813068
 21
21.88341986019496
 31
0.0
  0
SOLID
  5
A40
  8
DIMENSIONS
 62
     0
 10
219.6499411146401
 20
46.85541986019498
 30
0.0
 11
218.5492744479735
 21
46.85541986019498
 31
0.0
 12
219.0996077813068
 22
50.15741986019498
 32
0.0
 13
219.0996077813068
 23
50.15741986019498
 33
0.0
  0
SOLID
  5
A41
  8
DIMENSIONS
 62
     0
 10
218.5492744479735
 20
3.459419860194949
 30
0.0
 11
219.6499411146401
 21
3.459419860194949
 31
0.0
 12
219.0996077813068
 22
0.1574198601949485
 32
0.0
 13
219.0996077813068
 23
0.1574198601949485
 33
0.0
  0
TEXT
  5
A42
  8
DIMENSIONS
  6
CONTINUOUS
 62
     0
 10
212.9746077813068
 20
23.40741986019496
 30
0.0
 40
3.5
  1
50.00
  0
POINT
  5
A43
  8
DEFPOINTS
 62
     0
 10
204.2513772551913
 20
50.15741986019498
 30
0.0
  0
POINT
  5
A44
  8
DEFPOINTS
 62
     0
 10
204.2513772551913
 20
0.1574198601949494
 30
0.0
  0
POINT
  5
A45
  8
DEFPOINTS
 62
     0
 10
219.0996077813068
 20
0.1574198601949485
 30
0.0
  0
ENDBLK
  5
A3B
  8
0
  0
BLOCK
  8
0
  2
*D19
 70
     1
 10
0.0
 20
0.0
 30
0.0
  3
*D19
  1

  0
LINE
  5
A49
  8
DIMENSIONS
 62
     0
 10
202.9389342564632
 20
51.38636142719055
 30
0.0
 11
207.9741021125402
 21
46.67154556004066
 31
0.0
  0
TEXT
  5
A4A
  8
DIMENSIONS
  6
CONTINUOUS
 62
     0
 10
195.4759556138899
 20
57.3715992025093
 30
0.0
 40
3.5
  1
\U+220510.20
  0
LINE
  5
A4B
  8
DIMENSIONS
 62
     0
 10
207.9741021125402
 20
46.67154556004066
 30
0.0
 11
200.5286523978424
 21
53.64329416034929
 31
0.0
  0
SOLID
  5
A4C
  8
DIMENSIONS
 62
     0
 10
205.1876647983929
 20
48.52676465009593
 30
0.0
 11
205.9399757094459
 21
49.33019193630287
 31
0.0
 12
207.9741021125402
 22
46.67154556004066
 32
0.0
 13
207.9741021125402
 23
46.67154556004066
 33
0.0
  0
SOLID
  5
A4D
  8
DIMENSIONS
 62
     0
 10
203.3150897119897
 20
51.78807507029402
 30
0.0
 11
202.5627788009367
 21
50.98464778408708
 31
0.0
 12
200.5286523978424
 22
53.64329416034929
 32
0.0
 13
200.5286523978424
 23
53.64329416034929
 33
0.0
  0
POINT
  5
A4E
  8
DEFPOINTS
 62
     0
 10
200.5286523978424
 20
53.64329416034929
 30
0.0
  0
POINT
  5
A4F
  8
DEFPOINTS
 62
     0
 10
207.9741021125402
 20
46.67154556004066
 30
0.0
  0
ENDBLK
  5
A48
  8
0
  0
BLOCK
  8
0
  2
CARRIAGE_UPPER_SIDE_SUPPOR
 70
     0
 10
0.0
 20
0.0
 30
0.0
  3
CARRIAGE_UPPER_SIDE_SUPPOR
  1

  0
POLYLINE
  5
A54
  8
0
 66
     1
 10
0.0
 20
0.0
 30
0.0
 70
     1
  0
VERTEX
  5
AE1
  8
0
 10
147.641097121424
 20
18.7200690143176
 30
0.0
  0
VERTEX
  5
AE2
  8
0
 10
131.303057121424
 20
18.7200690143176
 30
0.0
  0
VERTEX
  5
AE3
  8
0
 10
128.7431450882072
 20
15.06413559158077
 30
0.0
 42
0.4142136222734675
  0
VERTEX
  5
AE4
  8
0
 10
128.9887207941607
 20
13.67140698110077
 30
0.0
  0
VERTEX
  5
AE5
  8
0
 10
132.6790213331367
 20
11.0874308185883
 30
0.0
 42
-0.9999993442309772
  0
VERTEX
  5
AE6
  8
0
 10
132.8005752110877
 20
10.39806526318765
 30
0.0
  0
VERTEX
  5
AE7
  8
0
 10
92.07088357511233
 20
-47.76996262696753
 30
0.0
 42
-1.000001826637237
  0
VERTEX
  5
AE8
  8
0
 10
91.38151826971261
 20
-47.89151625491826
 30
0.0
  0
VERTEX
  5
AE9
  8
0
 10
87.69121744868728
 20
-45.30753995246567
 30
0.0
 42
0.4142136636874121
  0
VERTEX
  5
AEA
  8
0
 10
86.2984890882072
 20
-45.55311565841916
 30
0.0
  0
VERTEX
  5
AEB
  8
0
 10
76.67393808820731
 20
-59.29839940841902
 30
0.0
 42
0.6068148975228806
  0
VERTEX
  5
AEC
  8
0
 10
77.49309012142398
 20
-60.8719759856825
 30
0.0
  0
VERTEX
  5
AED
  8
0
 10
146.641097121424
 20
-60.8719759856825
 30
0.0
 42
0.4142135623731045
  0
VERTEX
  5
AEE
  8
0
 10
147.641097121424
 20
-59.8719759856825
 30
0.0
  0
VERTEX
  5
AEF
  8
0
 10
147.6410972780702
 20
-28.1169499524508
 30
0.0
 42
-0.9999996163898964
  0
VERTEX
  5
AF0
  8
0
 10
148.1360725881928
 20
-27.62197589232869
 30
0.0
  0
VERTEX
  5
AF1
  8
0
 10
152.641097121424
 20
-27.6219759856825
 30
0.0
 42
0.4142135623731022
  0
VERTEX
  5
AF2
  8
0
 10
153.641097121424
 20
-26.6219759856825
 30
0.0
  0
VERTEX
  5
AF3
  8
0
 10
153.641097121424
 20
-3.621975985682496
 30
0.0
 42
0.4142135623730995
  0
VERTEX
  5
AF4
  8
0
 10
152.641097121424
 20
-2.621975985682496
 30
0.0
  0
VERTEX
  5
AF5
  8
0
 10
148.1360720881923
 20
-2.621975829036359
 30
0.0
 42
-0.9999981011617819
  0
VERTEX
  5
AF6
  8
0
 10
147.6410972780701
 20
-2.127001018914228
 30
0.0
  0
SEQEND
  5
B0C
  8
0
  0
ENDBLK
  5
A56
  8
0
  0
BLOCK
  8
0
  2
CARRIAGE_LOWER_SIDE_SUPPOR
 70
     0
 10
0.0
 20
0.0
 30
0.0
  3
CARRIAGE_LOWER_SIDE_SUPPOR
  1

  0
POLYLINE
  5
A59
  8
0
 66
     1
 10
0.0
 20
0.0
 30
0.0
 70
     1
  0
VERTEX
  5
AF7
  8
0
 10
144.1867568092489
 20
-105.2795278834238
 30
0.0
  0
VERTEX
  5
AF8
  8
0
 10
94.81169835100947
 20
-71.04277816389992
 30
0.0
 42
0.1527424543724207
  0
VERTEX
  5
AF9
  8
0
 10
92.00768321765435
 20
-70.16573215409568
 30
0.0
  0
VERTEX
  5
AFA
  8
0
 10
88.62595350081213
 20
-70.16573215414664
 30
0.0
 42
0.4142135623825036
  0
VERTEX
  5
AFB
  8
0
 10
87.64177360416076
 20
-71.1499120507525
 30
0.0
  0
VERTEX
  5
AFC
  8
0
 10
87.64177360412927
 20
-81.24270149524185
 30
0.0
 42
-1.000000000210992
  0
VERTEX
  5
AFD
  8
0
 10
87.1546291598015
 20
-81.72984593956963
 30
0.0
  0
VERTEX
  5
AFE
  8
0
 10
82.08115718811214
 20
-81.72984593954877
 30
0.0
 42
0.4142135624493396
  0
VERTEX
  5
AFF
  8
0
 10
81.73669422430842
 20
-82.07430890335249
 30
0.0
  0
VERTEX
  5
B00
  8
0
 10
81.73669422430842
 20
-95.1639015286525
 30
0.0
 42
0.4142135624494961
  0
VERTEX
  5
B01
  8
0
 10
82.08115718811214
 20
-95.50836449245622
 30
0.0
  0
VERTEX
  5
B02
  8
0
 10
87.15462915985152
 20
-95.50836449246037
 30
0.0
 42
-1.000000000056987
  0
VERTEX
  5
B03
  8
0
 10
87.64177360412927
 20
-95.99550893683809
 30
0.0
  0
VERTEX
  5
B04
  8
0
 10
87.64177360416076
 20
-106.0882983812525
 30
0.0
 42
0.4142135623498042
  0
VERTEX
  5
B05
  8
0
 10
88.62595350081214
 20
-107.0724782779039
 30
0.0
  0
VERTEX
  5
B06
  8
0
 10
143.6259533889193
 20
-107.0724782779039
 30
0.0
 42
0.7349928321369673
  0
SEQEND
  5
B0D
  8
0
  0
ENDBLK
  5
A5B
  8
0
  0
BLOCK
  8
0
  2
CARRIAGE_BALL_JOINT_SUPPOR
 70
     0
 10
0.0
 20
0.0
 30
0.0
  3
CARRIAGE_BALL_JOINT_SUPPOR
  1

  0
LINE
  5
A5E
  8
0
 10
162.211908037908
 20
-126.7841871371937
 30
0.0
 11
166.216934037908
 21
-126.7841871371937
 31
0.0
  0
ARC
  5
A5F
  8
0
 10
166.4644210379079
 20
-127.0316751371937
 30
0.0
 40
0.35
 50
315.0000000000296
 51
134.9999999999786
  0
LINE
  5
A60
  8
0
 10
166.711908037908
 20
-127.2791621371936
 30
0.0
 11
166.711908037908
 21
-131.7841871371937
 31
0.0
  0
ARC
  5
A61
  8
0
 10
167.711908037908
 20
-131.7841871371937
 30
0.0
 40
1.0
 50
180.0
 51
270.0
  0
LINE
  5
A62
  8
0
 10
167.711908037908
 20
-132.7841871371937
 30
0.0
 11
237.711908037908
 21
-132.7841871371937
 31
0.0
  0
ARC
  5
A63
  8
0
 10
237.711908037908
 20
-131.7841871371937
 30
0.0
 40
1.0
 50
270.0
 51
0.0
  0
LINE
  5
A64
  8
0
 10
238.711908037908
 20
-131.7841871371937
 30
0.0
 11
238.711908037908
 21
-127.2791621371936
 31
0.0
  0
ARC
  5
A65
  8
0
 10
238.959396037908
 20
-127.0316751371937
 30
0.0
 40
0.35
 50
45.00000000002138
 51
225.0000000000214
  0
LINE
  5
A66
  8
0
 10
239.2068830379081
 20
-126.7841871371937
 30
0.0
 11
257.711908037908
 21
-126.7841871371937
 31
0.0
  0
ARC
  5
A67
  8
0
 10
257.711908037908
 20
-125.7841871371937
 30
0.0
 40
1.0
 50
270.0
 51
0.0
  0
LINE
  5
A68
  8
0
 10
258.711908037908
 20
-125.7841871371937
 30
0.0
 11
258.711908037908
 21
-33.78418713719358
 31
0.0
  0
ARC
  5
A69
  8
0
 10
257.711908037908
 20
-33.78418713719358
 30
0.0
 40
1.0
 50
0.0
 51
90.0
  0
LINE
  5
A6A
  8
0
 10
257.711908037908
 20
-32.78418713719361
 30
0.0
 11
239.2068830379081
 21
-32.78418713719361
 31
0.0
  0
ARC
  5
A6B
  8
0
 10
238.959396037908
 20
-32.5367001371938
 30
0.0
 40
0.35
 50
134.9999999999778
 51
314.9999999999786
  0
LINE
  5
A6C
  8
0
 10
238.711908037908
 20
-32.28921313719371
 30
0.0
 11
238.711908037908
 21
-27.78418713719361
 31
0.0
  0
ARC
  5
A6D
  8
0
 10
237.711908037908
 20
-27.78418713719361
 30
0.0
 40
1.0
 50
0.0
 51
90.0
  0
LINE
  5
A6E
  8
0
 10
237.711908037908
 20
-26.78418713719361
 30
0.0
 11
167.711908037908
 21
-26.78418713719361
 31
0.0
  0
ARC
  5
A6F
  8
0
 10
167.711908037908
 20
-27.78418713719361
 30
0.0
 40
1.0
 50
90.0
 51
180.0
  0
LINE
  5
A70
  8
0
 10
166.711908037908
 20
-27.78418713719361
 30
0.0
 11
166.711908037908
 21
-32.28921313719371
 31
0.0
  0
ARC
  5
A71
  8
0
 10
166.4644210379079
 20
-32.5367001371938
 30
0.0
 40
0.35
 50
225.0000000000214
 51
44.99999999996957
  0
LINE
  5
A72
  8
0
 10
166.216934037908
 20
-32.78418713719361
 30
0.0
 11
162.211908037908
 21
-32.78418713719361
 31
0.0
  0
ARC
  5
A73
  8
0
 10
162.211908037908
 20
-33.78418713719358
 30
0.0
 40
1.0
 50
90.0
 51
180.0
  0
LINE
  5
A74
  8
0
 10
161.211908037908
 20
-33.78418713719358
 30
0.0
 11
161.211908037908
 21
-125.7841871371937
 31
0.0
  0
ARC
  5
A75
  8
0
 10
162.211908037908
 20
-125.7841871371937
 30
0.0
 40
1.0
 50
180.0
 51
270.0
  0
CIRCLE
  5
A76
  8
DIMENSIONS
 62
     2
 10
209.961908037908
 20
-79.78418713719367
 30
0.0
 40
42.0
  0
LINE
  5
A77
  8
DIMENSIONS
 10
208.711908037908
 20
-79.78418713719367
 30
0.0
 11
211.211908037908
 21
-79.78418713719367
 31
0.0
  0
LINE
  5
A78
  8
DIMENSIONS
 10
209.961908037908
 20
-81.03418713719367
 30
0.0
 11
209.961908037908
 21
-78.53418713719367
 31
0.0
  0
ENDBLK
  5
A7A
  8
0
  0
ENDSEC
  0
SECTION
  2
ENTITIES
  0
INSERT
  5
A32
  8
0
  2
CARRIAGE_BASE
 10
0.0
 20
0.0
 30
0.0
  0
INSERT
  5
A52
  8
0
  2
CARRIAGE_MUSCLE_BRACKET
 10
0.0
 20
0.0
 30
0.0
  0
INSERT
  5
A57
  8
0
  2
CARRIAGE_UPPER_SIDE_SUPPOR
 10
0.0
 20
0.0
 30
0.0
  0
INSERT
  5
A5C
  8
0
  2
CARRIAGE_LOWER_SIDE_SUPPOR
 10
0.0
 20
0.0
 30
0.0
  0
INSERT
  5
A7B
  8
0
  2
CARRIAGE_BALL_JOINT_SUPPOR
 10
0.0
 20
0.0
 30
0.0
  0
ENDSEC
  0
EOF
