  0
SECTION
  2
HEADER
  9
$ACADVER
  1
AC1009
  9
$DWGCODEPAGE
  3
ansi_1252
  9
$INSBASE
 10
0.0
 20
0.0
 30
0.0
  9
$EXTMIN
 10
-129.9712850527362
 20
-163.2089356309715
 30
0.0
  9
$EXTMAX
 10
729.223293557222
 20
-53.90643563097143
 30
0.0
  9
$LIMMIN
 10
0.0
 20
0.0
  9
$LIMMAX
 10
12.0
 20
9.0
  9
$ORTHOMODE
 70
     0
  9
$REGENMODE
 70
     1
  9
$FILLMODE
 70
     1
  9
$QTEXTMODE
 70
     0
  9
$MIRRTEXT
 70
     0
  9
$DRAGMODE
 70
     2
  9
$LTSCALE
 40
1.0
  9
$OSMODE
 70
 31679
  9
$ATTMODE
 70
     1
  9
$TEXTSIZE
 40
0.2
  9
$TRACEWID
 40
0.05
  9
$TEXTSTYLE
  7
STANDARD
  9
$CLAYER
  8
0
  9
$CELTYPE
  6
BYLAYER
  9
$CECOLOR
 62
   256
  9
$DIMSCALE
 40
1.0
  9
$DIMASZ
 40
0.18
  9
$DIMEXO
 40
0.0625
  9
$DIMDLI
 40
0.38
  9
$DIMRND
 40
0.0
  9
$DIMDLE
 40
0.0
  9
$DIMEXE
 40
0.18
  9
$DIMTP
 40
0.0
  9
$DIMTM
 40
0.0
  9
$DIMTXT
 40
0.18
  9
$DIMCEN
 40
0.09
  9
$DIMTSZ
 40
0.0
  9
$DIMTOL
 70
     0
  9
$DIMLIM
 70
     0
  9
$DIMTIH
 70
     1
  9
$DIMTOH
 70
     1
  9
$DIMSE1
 70
     0
  9
$DIMSE2
 70
     0
  9
$DIMTAD
 70
     0
  9
$DIMZIN
 70
     0
  9
$DIMBLK
  1

  9
$DIMASO
 70
     1
  9
$DIMSHO
 70
     1
  9
$DIMPOST
  1

  9
$DIMAPOST
  1

  9
$DIMALT
 70
     0
  9
$DIMALTD
 70
     2
  9
$DIMALTF
 40
25.4
  9
$DIMLFAC
 40
1.0
  9
$DIMTOFL
 70
     0
  9
$DIMTVP
 40
0.0
  9
$DIMTIX
 70
     0
  9
$DIMSOXD
 70
     0
  9
$DIMSAH
 70
     0
  9
$DIMBLK1
  1

  9
$DIMBLK2
  1

  9
$DIMSTYLE
  2
STANDARD
  9
$DIMCLRD
 70
     0
  9
$DIMCLRE
 70
     0
  9
$DIMCLRT
 70
     0
  9
$DIMTFAC
 40
1.0
  9
$DIMGAP
 40
0.09
  9
$LUNITS
 70
     2
  9
$LUPREC
 70
     4
  9
$SKETCHINC
 40
0.1
  9
$FILLETRAD
 40
1.0
  9
$AUNITS
 70
     0
  9
$AUPREC
 70
     0
  9
$MENU
  1
.
  9
$ELEVATION
 40
0.0
  9
$PELEVATION
 40
0.0
  9
$THICKNESS
 40
0.0
  9
$LIMCHECK
 70
     0
  9
$CHAMFERA
 40
0.0
  9
$CHAMFERB
 40
0.0
  9
$SKPOLY
 70
     0
  9
$TDCREATE
 40
2452643.063384271
  9
$TDUPDATE
 40
2458834.650326042
  9
$TDINDWG
 40
0.0
  9
$TDUSRTIMER
 40
0.0
  9
$USRTIMER
 70
     1
  9
$ANGBASE
 50
0.0
  9
$ANGDIR
 70
     0
  9
$PDMODE
 70
     0
  9
$PDSIZE
 40
0.0
  9
$PLINEWID
 40
0.0
  9
$COORDS
 70
     1
  9
$SPLFRAME
 70
     0
  9
$SPLINETYPE
 70
     6
  9
$SPLINESEGS
 70
     8
  9
$ATTDIA
 70
     0
  9
$ATTREQ
 70
     1
  9
$HANDLING
 70
     1
  9
$HANDSEED
  5
771
  9
$SURFTAB1
 70
     6
  9
$SURFTAB2
 70
     6
  9
$SURFTYPE
 70
     6
  9
$SURFU
 70
     6
  9
$SURFV
 70
     6
  9
$UCSNAME
  2

  9
$UCSORG
 10
0.0
 20
0.0
 30
0.0
  9
$UCSXDIR
 10
1.0
 20
0.0
 30
0.0
  9
$UCSYDIR
 10
0.0
 20
1.0
 30
0.0
  9
$PUCSNAME
  2

  9
$PUCSORG
 10
0.0
 20
0.0
 30
0.0
  9
$PUCSXDIR
 10
1.0
 20
0.0
 30
0.0
  9
$PUCSYDIR
 10
0.0
 20
1.0
 30
0.0
  9
$USERI1
 70
     0
  9
$USERI2
 70
     0
  9
$USERI3
 70
     0
  9
$USERI4
 70
     0
  9
$USERI5
 70
     0
  9
$USERR1
 40
0.0
  9
$USERR2
 40
0.0
  9
$USERR3
 40
0.0
  9
$USERR4
 40
0.0
  9
$USERR5
 40
0.0
  9
$WORLDVIEW
 70
     1
  9
$SHADEDGE
 70
     3
  9
$SHADEDIF
 70
    70
  9
$TILEMODE
 70
     1
  9
$MAXACTVP
 70
    64
  9
$PLIMCHECK
 70
     0
  9
$PEXTMIN
 10
0.0
 20
0.0
 30
0.0
  9
$PEXTMAX
 10
0.0
 20
0.0
 30
0.0
  9
$PLIMMIN
 10
0.0
 20
0.0
  9
$PLIMMAX
 10
0.0
 20
0.0
  9
$UNITMODE
 70
     0
  9
$VISRETAIN
 70
     1
  9
$PLINEGEN
 70
     0
  9
$PSLTSCALE
 70
     1
  0
ENDSEC
  0
SECTION
  2
TABLES
  0
TABLE
  2
VPORT
 70
     1
  0
VPORT
  2
*ACTIVE
 70
     0
 10
0.0
 20
0.0
 11
1.0
 21
1.0
 12
227.182961120481
 22
43.89028595876277
 13
0.0
 23
0.0
 14
0.5
 24
0.5
 15
0.5
 25
0.5
 16
0.0
 26
0.0
 36
1.0
 17
-27.66959356597977
 27
-19.53870295786203
 37
0.0
 40
763.6748376528715
 41
2.295798319327731
 42
50.0
 43
0.0
 44
0.0
 50
0.0
 51
0.0
 71
    16
 72
  1000
 73
     1
 74
     3
 75
     0
 76
     0
 77
     0
 78
     0
  0
ENDTAB
  0
TABLE
  2
LTYPE
 70
     2
  0
LTYPE
  2
CONTINUOUS
 70
     0
  3
Solid line
 72
    65
 73
     0
 40
0.0
  0
LTYPE
  2
CENTER
 70
     0
  3
Center ____ _ ____ _ ____ _ ____ _ ____ _ ____
 72
    65
 73
     4
 40
10.16
 49
6.35
 49
-1.27
 49
1.27
 49
-1.27
  0
ENDTAB
  0
TABLE
  2
LAYER
 70
     3
  0
LAYER
  2
0
 70
     0
 62
     7
  6
CONTINUOUS
  0
LAYER
  2
DEFPOINTS
 70
     0
 62
     7
  6
CONTINUOUS
  0
LAYER
  2
DIMENSIONS
 70
     0
 62
     2
  6
CONTINUOUS
  0
ENDTAB
  0
TABLE
  2
STYLE
 70
     2
  0
STYLE
  2
STANDARD
 70
     0
 40
0.0
 41
1.0
 50
0.0
 71
     0
 42
0.2
  3
arial.ttf
  4

  0
STYLE
  2
ANNOTATIVE
 70
     0
 40
0.0
 41
1.0
 50
0.0
 71
     0
 42
0.2
  3
arial.ttf
  4

  0
ENDTAB
  0
TABLE
  2
VIEW
 70
     0
  0
ENDTAB
  0
TABLE
  2
UCS
 70
     0
  0
ENDTAB
  0
TABLE
  2
APPID
 70
     3
  0
APPID
  2
ACAD
 70
     0
  0
APPID
  2
ACADANNOTATIVE
 70
     0
  0
APPID
  2
ACAECLAYERSTANDARD
 70
     0
  0
ENDTAB
  0
TABLE
  2
DIMSTYLE
 70
     3
  0
DIMSTYLE
  2
STANDARD
 70
     0
  3

  4

  5

  6

  7

 40
1.0
 41
0.18
 42
0.0625
 43
0.38
 44
0.18
 45
0.0
 46
0.0
 47
0.0
 48
0.0
140
0.18
141
0.09
142
0.0
143
25.4
144
1.0
145
0.0
146
1.0
147
0.09
 71
     0
 72
     0
 73
     1
 74
     1
 75
     0
 76
     0
 77
     0
 78
     0
170
     0
171
     2
172
     0
173
     0
174
     0
175
     0
176
     0
177
     0
178
     0
  0
DIMSTYLE
  2
ANNOTATIVE
 70
     0
  3

  4

  5

  6

  7

 40
0.0
 41
0.18
 42
0.0625
 43
0.38
 44
0.18
 45
0.0
 46
0.0
 47
0.0
 48
0.0
140
0.18
141
0.09
142
0.0
143
25.4
144
1.0
145
0.0
146
1.0
147
0.09
 71
     0
 72
     0
 73
     1
 74
     1
 75
     0
 76
     0
 77
     0
 78
     0
170
     0
171
     2
172
     0
173
     0
174
     0
175
     0
176
     0
177
     0
178
     0
  0
DIMSTYLE
  2
ISO-25
 70
     0
  3

  4

  5

  6

  7

 40
1.0
 41
2.5
 42
0.625
 43
3.75
 44
1.25
 45
0.0
 46
0.0
 47
0.0
 48
0.0
140
2.5
141
2.5
142
0.0
143
0.0393700787
144
1.0
145
0.0
146
1.0
147
0.625
 71
     0
 72
     0
 73
     0
 74
     0
 75
     0
 76
     0
 77
     1
 78
     8
170
     0
171
     3
172
     1
173
     0
174
     0
175
     0
176
     0
177
     0
178
     0
  0
ENDTAB
  0
ENDSEC
  0
SECTION
  2
BLOCKS
  0
BLOCK
  8
0
  2
$MODEL_SPACE
 70
     0
 10
0.0
 20
0.0
 30
0.0
  3
$MODEL_SPACE
  1

  0
ENDBLK
  5
21
  8
0
  0
BLOCK
 67
     1
  8
0
  2
$PAPER_SPACE
 70
     0
 10
0.0
 20
0.0
 30
0.0
  3
$PAPER_SPACE
  1

  0
ENDBLK
  5
5B
 67
     1
  8
0
  0
BLOCK
  8
0
  2
*D0
 70
     1
 10
0.0
 20
0.0
 30
0.0
  3
*D0
  1

  0
LINE
  5
1C6
  8
0
 62
     0
 10
247.4860603648547
 20
1.20378762541806
 30
0.0
 11
247.4860603648547
 21
-21.47538085597153
 31
0.0
  0
LINE
  5
1C7
  8
0
 62
     0
 10
434.4860603648547
 20
1.14128762541806
 30
0.0
 11
434.4860603648547
 21
-21.47538085597153
 31
0.0
  0
LINE
  5
1C8
  8
0
 62
     0
 10
247.6660603648547
 20
-21.29538085597153
 30
0.0
 11
340.3919703648547
 21
-21.29538085597153
 31
0.0
  0
LINE
  5
1C9
  8
0
 62
     0
 10
434.3060603648547
 20
-21.29538085597153
 30
0.0
 11
341.5801503648547
 21
-21.29538085597153
 31
0.0
  0
SOLID
  5
1CA
  8
0
 62
     0
 10
247.6660603648547
 20
-21.26538085597153
 30
0.0
 11
247.6660603648547
 21
-21.32538085597153
 31
0.0
 12
247.4860603648547
 22
-21.29538085597153
 32
0.0
 13
247.4860603648547
 23
-21.29538085597153
 33
0.0
  0
SOLID
  5
1CB
  8
0
 62
     0
 10
434.3060603648547
 20
-21.32538085597153
 30
0.0
 11
434.3060603648547
 21
-21.26538085597153
 31
0.0
 12
434.4860603648547
 22
-21.29538085597153
 32
0.0
 13
434.4860603648547
 23
-21.29538085597153
 33
0.0
  0
TEXT
  5
1CC
  8
0
  6
CONTINUOUS
 62
     0
 10
340.4546103648547
 20
-21.38385085597153
 30
0.0
 40
0.18
  1
187.0000
  0
POINT
  5
1CD
  8
DEFPOINTS
 62
     0
 10
247.4860603648547
 20
1.26628762541806
 30
0.0
  0
POINT
  5
1CE
  8
DEFPOINTS
 62
     0
 10
434.4860603648547
 20
1.20378762541806
 30
0.0
  0
POINT
  5
1CF
  8
DEFPOINTS
 62
     0
 10
434.4860603648547
 20
-21.29538085597153
 30
0.0
  0
ENDBLK
  5
1C5
  8
0
  0
BLOCK
  8
0
  2
*D1
 70
     1
 10
0.0
 20
0.0
 30
0.0
  3
*D1
  1

  0
LINE
  5
313
  8
0
 62
     0
 10
345.4643501297547
 20
80.56878762541805
 30
0.0
 11
345.4643501297547
 21
84.44504392463517
 31
0.0
  0
LINE
  5
314
  8
0
 62
     0
 10
349.4643501297547
 20
80.56878762541805
 30
0.0
 11
349.4643501297547
 21
84.44504392463517
 31
0.0
  0
LINE
  5
315
  8
0
 62
     0
 10
345.6443501297547
 20
84.26504392463517
 30
0.0
 11
346.9978801297547
 21
84.26504392463517
 31
0.0
  0
LINE
  5
316
  8
0
 62
     0
 10
349.2843501297547
 20
84.26504392463517
 30
0.0
 11
347.9308201297546
 21
84.26504392463517
 31
0.0
  0
SOLID
  5
317
  8
0
 62
     0
 10
345.6443501297547
 20
84.29504392463517
 30
0.0
 11
345.6443501297547
 21
84.23504392463516
 31
0.0
 12
345.4643501297547
 22
84.26504392463517
 32
0.0
 13
345.4643501297547
 23
84.26504392463517
 33
0.0
  0
SOLID
  5
318
  8
0
 62
     0
 10
349.2843501297547
 20
84.23504392463516
 30
0.0
 11
349.2843501297547
 21
84.29504392463517
 31
0.0
 12
349.4643501297547
 22
84.26504392463517
 32
0.0
 13
349.4643501297547
 23
84.26504392463517
 33
0.0
  0
TEXT
  5
319
  8
0
  6
CONTINUOUS
 62
     0
 10
347.0846401297547
 20
84.17657392463518
 30
0.0
 40
0.18
  1
4.0000
  0
POINT
  5
31A
  8
DEFPOINTS
 62
     0
 10
345.4643501297547
 20
80.50628762541805
 30
0.0
  0
POINT
  5
31B
  8
DEFPOINTS
 62
     0
 10
349.4643501297547
 20
80.50628762541805
 30
0.0
  0
POINT
  5
31C
  8
DEFPOINTS
 62
     0
 10
349.4643501297547
 20
84.26504392463517
 30
0.0
  0
ENDBLK
  5
312
  8
0
  0
BLOCK
  8
0
  2
INNER_FIXED_MUSCLE_UPRIGHT
 70
     0
 10
0.0
 20
0.0
 30
0.0
  3
INNER_FIXED_MUSCLE_UPRIGHT
  1

  0
CIRCLE
  5
6D7
  8
0
  6
CONTINUOUS
 62
     7
 10
-84.00263547133642
 20
-76.90643563097146
 30
0.0
 40
5.0
  0
CIRCLE
  5
6D8
  8
0
  6
CONTINUOUS
 62
     7
 10
-84.00263547133642
 20
-126.9064356309715
 30
0.0
 40
5.0
  0
LINE
  5
6D9
  8
0
  6
CONTINUOUS
 62
     7
 10
-45.03398588993602
 20
-163.1464356309715
 30
0.0
 11
-122.9712850527362
 21
-163.1464356309715
 31
0.0
  0
LINE
  5
6DA
  8
0
  6
CONTINUOUS
 62
     7
 10
-45.03398588993602
 20
-53.90643563097144
 30
0.0
 11
-122.9712850527362
 21
-53.90643563097144
 31
0.0
  0
LINE
  5
6DB
  8
0
  6
CONTINUOUS
 62
     7
 10
-39.03398588993602
 20
-113.9064356309715
 30
0.0
 11
-43.53793105460512
 21
-113.9064356309712
 31
0.0
  0
LINE
  5
6DC
  8
0
  6
CONTINUOUS
 62
     7
 10
-38.03398588993602
 20
-84.90643563097149
 30
0.0
 11
-38.03398588993602
 21
-112.9064356309715
 31
0.0
  0
LINE
  5
6DD
  8
0
  6
CONTINUOUS
 62
     7
 10
-39.03398588993602
 20
-83.90643563097149
 30
0.0
 11
-43.53901088993602
 21
-83.90643563097147
 31
0.0
  0
LINE
  5
6DE
  8
0
  6
CONTINUOUS
 62
     7
 10
-128.9712850527362
 20
-83.90643563097149
 30
0.0
 11
-124.4662600527362
 21
-83.90643563097147
 31
0.0
  0
LINE
  5
6DF
  8
0
  6
CONTINUOUS
 62
     7
 10
-128.9712850527362
 20
-113.9064356309715
 30
0.0
 11
-124.4673398880675
 21
-113.9064356309715
 31
0.0
  0
LINE
  5
6E0
  8
0
  6
CONTINUOUS
 62
     7
 10
-123.9712850527362
 20
-114.3882697936587
 30
0.0
 11
-123.9712850527362
 21
-162.1464356309715
 31
0.0
  0
LINE
  5
6E1
  8
0
  6
CONTINUOUS
 62
     7
 10
-123.9712850527362
 20
-54.90643563097144
 30
0.0
 11
-123.9712850527362
 21
-83.41146063097149
 31
0.0
  0
LINE
  5
6E2
  8
0
  6
CONTINUOUS
 62
     7
 10
-44.03398588993636
 20
-114.3882697936585
 30
0.0
 11
-44.03398588993602
 21
-162.1464356309715
 31
0.0
  0
LINE
  5
6E3
  8
0
  6
CONTINUOUS
 62
     7
 10
-44.03398588993602
 20
-54.90643563097144
 30
0.0
 11
-44.03398588993603
 21
-83.41146063097149
 31
0.0
  0
LINE
  5
6E4
  8
0
  6
CONTINUOUS
 62
     7
 10
-129.9712850527362
 20
-112.9064356309715
 30
0.0
 11
-129.9712850527362
 21
-84.90643563097149
 31
0.0
  0
ARC
  5
6E5
  8
0
  6
CONTINUOUS
 62
     7
 10
-122.9712850527362
 20
-54.90643563097144
 30
0.0
 40
1.0
 50
90.0
 51
180.0
  0
ARC
  5
6E6
  8
0
  6
CONTINUOUS
 62
     7
 10
-122.9712850527362
 20
-54.90643563097144
 30
0.0
 40
1.0
 50
90.0
 51
180.0
  0
ARC
  5
6E7
  8
0
  6
CONTINUOUS
 62
     7
 10
-45.03398588993602
 20
-54.90643563097144
 30
0.0
 40
1.0
 50
0.0
 51
90.0
  0
ARC
  5
6E8
  8
0
  6
CONTINUOUS
 62
     7
 10
-45.03398588993602
 20
-162.1464356309715
 30
0.0
 40
1.0
 50
270.0
 51
0.0
  0
ARC
  5
6E9
  8
0
  6
CONTINUOUS
 62
     7
 10
-122.9712850527362
 20
-162.1464356309715
 30
0.0
 40
1.0
 50
180.0
 51
270.0
  0
ARC
  5
6EA
  8
0
  6
CONTINUOUS
 62
     7
 10
-128.9712850527362
 20
-112.9064356309715
 30
0.0
 40
1.0
 50
180.0
 51
270.0
  0
ARC
  5
6EB
  8
0
  6
CONTINUOUS
 62
     7
 10
-128.9712850527362
 20
-84.90643563097149
 30
0.0
 40
1.0
 50
90.0
 51
180.0
  0
ARC
  5
6EC
  8
0
  6
CONTINUOUS
 62
     7
 10
-39.03398588993602
 20
-84.90643563097149
 30
0.0
 40
1.0
 50
0.0
 51
90.0
  0
ARC
  5
6ED
  8
0
  6
CONTINUOUS
 62
     7
 10
-39.03398588993602
 20
-112.9064356309715
 30
0.0
 40
1.0
 50
270.0
 51
0.0
  0
ARC
  5
6EE
  8
0
 10
-124.2187725527362
 20
-83.65894813097148
 30
0.0
 40
0.350000179017809
 50
224.9999999999984
 51
44.99999999999836
  0
ARC
  5
6EF
  8
0
 10
-124.2134435454704
 20
-114.1413105741358
 30
0.0
 40
0.3458751099900529
 50
314.4376557125841
 51
137.2286419908909
  0
ARC
  5
6F0
  8
0
 10
-43.78649838993603
 20
-83.65894813097148
 30
0.0
 40
0.350000179017809
 50
135.0000000000016
 51
315.0000000000016
  0
ARC
  5
6F1
  8
0
 10
-43.79182739720224
 20
-114.1413105741355
 30
0.0
 40
0.3458751099900529
 50
42.77135800910828
 51
225.562344287416
  0
ENDBLK
  5
6F3
  8
0
  0
BLOCK
  8
0
  2
INNER_FIXED_MUSCLE_SIDE
 70
     0
 10
0.0
 20
0.0
 30
0.0
  3
INNER_FIXED_MUSCLE_SIDE
  1

  0
LINE
  5
6F6
  8
0
  6
CONTINUOUS
 62
     7
 10
98.35149205648683
 20
-53.90643563097143
 30
0.0
 11
95.15074470015959
 21
-53.90643563097143
 31
0.0
  0
LINE
  5
6F7
  8
0
  6
CONTINUOUS
 62
     7
 10
92.93732395443952
 20
-54.88140017389519
 30
0.0
 11
-3.148980961836344
 21
-159.9064356309715
 31
0.0
  0
LINE
  5
6F8
  8
0
  6
CONTINUOUS
 62
     7
 10
-3.148980961836344
 20
-159.9064356309715
 30
0.0
 11
-3.148980961836344
 21
-163.1464356309715
 31
0.0
  0
LINE
  5
6F9
  8
0
 10
-3.148980961836344
 20
-163.2089356309715
 30
0.0
 11
177.7609540684391
 21
-163.2089356309715
 31
0.0
  0
LINE
  5
6FA
  8
0
 10
180.1394267606362
 20
-158.3805845562397
 30
0.0
 11
100.7299647486839
 21
-55.0780845562396
 31
0.0
  0
ARC
  5
6FB
  8
0
 10
177.7609540684391
 20
-160.2089356309715
 30
0.0
 40
3.0
 50
270.0
 51
37.54977089047352
  0
ARC
  5
6FC
  8
0
  6
CONTINUOUS
 62
     7
 10
95.15074470015959
 20
-56.90643563097144
 30
0.0
 40
2.999999999999998
 50
90.0
 51
137.5449319737434
  0
ARC
  5
6FD
  8
0
 10
98.35149205648683
 20
-56.90643563097143
 30
0.0
 40
3.000000000000004
 50
37.54977089047342
 51
90.0
  0
LINE
  5
6FE
  8
0
 10
93.8293088030637
 20
-103.4750201822967
 30
0.0
 11
93.82930880306375
 21
-113.4114606309715
 31
0.0
  0
ARC
  5
6FF
  8
0
 10
94.0767963030637
 20
-113.6589481309715
 30
0.0
 40
0.3500001790177587
 50
134.9999999999967
 51
314.9999999999967
  0
LINE
  5
700
  8
0
 10
94.32428380306365
 20
-113.9064356309715
 30
0.0
 11
99.33433380306374
 21
-113.9064356309715
 31
0.0
  0
ARC
  5
701
  8
0
 10
99.58182130306375
 20
-113.6589481309715
 30
0.0
 40
0.350000179017809
 50
224.9999999999984
 51
44.99999999999836
  0
LINE
  5
702
  8
0
 10
99.82930880306375
 20
-113.4114606309715
 30
0.0
 11
99.82930898976909
 21
-103.4750201822968
 31
0.0
  0
LINE
  5
703
  8
0
 10
93.8293088030637
 20
-103.4750201822967
 30
0.0
 11
93.82930880306375
 21
-84.40141063097144
 31
0.0
  0
ARC
  5
704
  8
0
 10
94.0767963030637
 20
-84.15392313097146
 30
0.0
 40
0.3500001790177587
 50
45.00000000000329
 51
225.0000000000033
  0
LINE
  5
705
  8
0
 10
94.32428380306365
 20
-83.90643563097149
 30
0.0
 11
99.33433380306374
 21
-83.90643563097146
 31
0.0
  0
ARC
  5
706
  8
0
 10
99.58182130306375
 20
-84.15392313097145
 30
0.0
 40
0.350000179017809
 50
315.0000000000016
 51
135.0000000000016
  0
LINE
  5
707
  8
0
 10
99.82930880306375
 20
-84.40141063097144
 30
0.0
 11
99.82930898976909
 21
-103.4750201822968
 31
0.0
  0
ENDBLK
  5
709
  8
0
  0
BLOCK
  8
0
  2
OUTER_FIXED_MUSCLE_UPRIGHT
 70
     0
 10
0.0
 20
0.0
 30
0.0
  3
OUTER_FIXED_MUSCLE_UPRIGHT
  1

  0
CIRCLE
  5
70C
  8
0
  6
CONTINUOUS
 62
     7
 10
503.8533628847667
 20
-76.90643563097146
 30
0.0
 40
5.000000000000014
  0
CIRCLE
  5
70D
  8
0
  6
CONTINUOUS
 62
     7
 10
503.8533628847667
 20
-126.9064356309715
 30
0.0
 40
5.000000000000007
  0
LINE
  5
70E
  8
0
  6
CONTINUOUS
 62
     7
 10
542.8533628847667
 20
-163.1464356309715
 30
0.0
 11
464.8533628847667
 21
-163.1464356309715
 31
0.0
  0
LINE
  5
70F
  8
0
  6
CONTINUOUS
 62
     7
 10
542.8533628847667
 20
-53.90643563097144
 30
0.0
 11
464.8533628847667
 21
-53.90643563097144
 31
0.0
  0
LINE
  5
710
  8
0
  6
CONTINUOUS
 62
     7
 10
549.8533628847667
 20
-84.90643563097149
 30
0.0
 11
549.8533628847667
 21
-107.9064356309715
 31
0.0
  0
LINE
  5
711
  8
0
  6
CONTINUOUS
 62
     7
 10
457.8533628847667
 20
-112.9064356309715
 30
0.0
 11
457.8533628847667
 21
-94.90643563097149
 31
0.0
  0
ARC
  5
712
  8
0
  6
CONTINUOUS
 62
     7
 10
464.8533628847667
 20
-162.1464356309715
 30
0.0
 40
1.0
 50
180.0
 51
270.0
  0
ARC
  5
713
  8
0
  6
CONTINUOUS
 62
     7
 10
542.8533628847667
 20
-162.1464356309715
 30
0.0
 40
1.0
 50
270.0
 51
0.0
  0
ARC
  5
714
  8
0
  6
CONTINUOUS
 62
     7
 10
458.8533628847667
 20
-112.9064356309715
 30
0.0
 40
1.0
 50
180.0
 51
270.0
  0
ARC
  5
715
  8
0
  6
CONTINUOUS
 62
     7
 10
458.8533628847667
 20
-94.90643563097149
 30
0.0
 40
1.0
 50
90.0
 51
180.0
  0
ARC
  5
716
  8
0
  6
CONTINUOUS
 62
     7
 10
464.8533628847667
 20
-54.90643563097144
 30
0.0
 40
1.0
 50
90.0
 51
180.0
  0
ARC
  5
717
  8
0
  6
CONTINUOUS
 62
     7
 10
542.8533628847667
 20
-54.90643563097144
 30
0.0
 40
1.0
 50
0.0
 51
90.0
  0
ARC
  5
718
  8
0
  6
CONTINUOUS
 62
     7
 10
548.8533628847667
 20
-84.90643563097149
 30
0.0
 40
1.0
 50
0.0
 51
90.0
  0
ARC
  5
719
  8
0
  6
CONTINUOUS
 62
     7
 10
548.8533628847667
 20
-107.9064356309715
 30
0.0
 40
1.0
 50
270.0
 51
0.0
  0
LINE
  5
71A
  8
0
  6
CONTINUOUS
 62
     7
 10
458.8533628847667
 20
-113.9064356309715
 30
0.0
 11
463.3525857507382
 21
-113.9064356309715
 31
0.0
  0
LINE
  5
71B
  8
0
  6
CONTINUOUS
 62
     7
 10
463.8533628847667
 20
-114.3836574126169
 30
0.0
 11
463.8533628847667
 21
-162.1464356309715
 31
0.0
  0
ARC
  5
71C
  8
0
 10
463.6029743177525
 20
-114.1450465217942
 30
0.0
 40
0.3458751099900529
 50
316.3797166581116
 51
136.3797166581116
  0
LINE
  5
71D
  8
0
  6
CONTINUOUS
 62
     7
 10
463.8479622428659
 20
-93.90643563097149
 30
0.0
 11
463.8533628847667
 21
-93.90643563097149
 31
0.0
  0
LINE
  5
71E
  8
0
  6
CONTINUOUS
 62
     7
 10
458.8533628847667
 20
-93.90643563097149
 30
0.0
 11
463.3635093009455
 21
-93.90643563097149
 31
0.0
  0
LINE
  5
71F
  8
0
  6
CONTINUOUS
 62
     7
 10
463.8533628847667
 20
-93.90114444374538
 30
0.0
 11
463.8533628847667
 21
-93.90643563097149
 31
0.0
  0
LINE
  5
720
  8
0
  6
CONTINUOUS
 62
     7
 10
463.8533628847667
 20
-54.90643563097144
 30
0.0
 11
463.8533628847667
 21
-93.40644882707335
 31
0.0
  0
ARC
  5
721
  8
0
 10
463.6057357719057
 20
-93.65379663540936
 30
0.0
 40
0.350000179017809
 50
226.2053896147988
 51
44.96766913212038
  0
LINE
  5
722
  8
0
  6
CONTINUOUS
 62
     7
 10
548.8533628847667
 20
-108.9064356309715
 30
0.0
 11
544.3481379395066
 21
-108.9064356309715
 31
0.0
  0
LINE
  5
723
  8
0
  6
CONTINUOUS
 62
     7
 10
543.8533628847667
 20
-109.3896457008865
 30
0.0
 11
543.8533628847667
 21
-162.1464356309715
 31
0.0
  0
ARC
  5
724
  8
0
 10
544.0955213775009
 20
-109.1426864813636
 30
0.0
 40
0.3458751099900529
 50
43.0826372777638
 51
225.562344287416
  0
LINE
  5
725
  8
0
  6
CONTINUOUS
 62
     7
 10
543.8533628847667
 20
-83.90379856071068
 30
0.0
 11
543.8533628847667
 21
-83.90643563097149
 31
0.0
  0
LINE
  5
726
  8
0
  6
CONTINUOUS
 62
     7
 10
543.8533628847667
 20
-54.90643563097144
 30
0.0
 11
543.8533628847667
 21
-83.41409770123234
 31
0.0
  0
LINE
  5
727
  8
0
  6
CONTINUOUS
 62
     7
 10
543.8559721507775
 20
-83.90643563097149
 30
0.0
 11
543.8533628847667
 21
-83.90643563097149
 31
0.0
  0
LINE
  5
728
  8
0
  6
CONTINUOUS
 62
     7
 10
548.8533628847667
 20
-83.90643563097149
 30
0.0
 11
544.3509471507775
 21
-83.90643563097149
 31
0.0
  0
ARC
  5
729
  8
0
 10
544.1034596507775
 20
-83.65894813097151
 30
0.0
 40
0.350000179017809
 50
135.6073004794194
 51
315.0000000000065
  0
ENDBLK
  5
72B
  8
0
  0
BLOCK
  8
0
  2
OUTER_FIXED_MUSCLE_SIDE_OU
 70
     0
 10
0.0
 20
0.0
 30
0.0
  3
OUTER_FIXED_MUSCLE_SIDE_OU
  1

  0
LINE
  5
72E
  8
0
  6
CONTINUOUS
 62
     7
 10
351.4513399686201
 20
-53.90643563097143
 30
0.0
 11
349.0614509927249
 21
-53.90643563097143
 31
0.0
  0
LINE
  5
72F
  8
0
  6
CONTINUOUS
 62
     7
 10
346.1679965903901
 20
-56.11402057457114
 30
0.0
 11
317.8942037299409
 21
-159.3540205745712
 31
0.0
  0
LINE
  5
730
  8
0
  6
CONTINUOUS
 62
     7
 10
449.7725762050471
 20
-159.9064356309715
 30
0.0
 11
353.6645349481548
 21
-54.88115343271797
 31
0.0
  0
LINE
  5
731
  8
0
  6
CONTINUOUS
 62
     7
 10
449.7725762050471
 20
-163.1464356309715
 30
0.0
 11
320.7876581322756
 21
-163.1464356309715
 31
0.0
  0
LINE
  5
732
  8
0
  6
CONTINUOUS
 62
     7
 10
449.7725762050471
 20
-159.9064356309715
 30
0.0
 11
449.7725762050471
 21
-163.1464356309715
 31
0.0
  0
ARC
  5
733
  8
0
  6
CONTINUOUS
 62
     7
 10
320.7876581322756
 20
-160.1464356309715
 30
0.0
 40
3.000000000000001
 50
164.6842401640793
 51
270.0
  0
ARC
  5
734
  8
0
  6
CONTINUOUS
 62
     7
 10
349.0614509927249
 20
-56.90643563097144
 30
0.0
 40
3.0
 50
90.0
 51
164.6842401640796
  0
ARC
  5
735
  8
0
  6
CONTINUOUS
 62
     7
 10
351.4513399686201
 20
-56.90643563097143
 30
0.0
 40
3.000000000000004
 50
42.46145540160131
 51
90.0
  0
POLYLINE
  5
736
  8
0
 66
     1
 10
0.0
 20
0.0
 30
0.0
 70
     1
  0
VERTEX
  5
75D
  8
0
 10
352.7725765784576
 20
-108.9064356309716
 30
0.0
  0
VERTEX
  5
75E
  8
0
 10
352.7725765784699
 20
-94.40141063097137
 30
0.0
 42
0.9999999999999143
  0
VERTEX
  5
75F
  8
0
 10
352.2776008316396
 20
-93.9064356309715
 30
0.0
  0
VERTEX
  5
760
  8
0
 10
347.2675515784547
 20
-93.90643563097146
 30
0.0
 42
0.9999999999999138
  0
VERTEX
  5
761
  8
0
 10
346.7725765784548
 20
-94.40141063097141
 30
0.0
  0
VERTEX
  5
762
  8
0
 10
346.7725765784547
 20
-108.9064356309716
 30
0.0
  0
VERTEX
  5
763
  8
0
 10
346.7725765784547
 20
-113.4114606309715
 30
0.0
 42
0.9999999999998564
  0
VERTEX
  5
764
  8
0
 10
347.2675515784547
 20
-113.9064356309715
 30
0.0
  0
VERTEX
  5
765
  8
0
 10
352.2776015784547
 20
-113.9064356309715
 30
0.0
 42
1.000000000000086
  0
VERTEX
  5
766
  8
0
 10
352.7725765784547
 20
-113.4114606309715
 30
0.0
  0
SEQEND
  5
76F
  8
0
  0
ENDBLK
  5
738
  8
0
  0
BLOCK
  8
0
  2
OUTER_FIXED_MUSCLE_SIDE_IN
 70
     0
 10
0.0
 20
0.0
 30
0.0
  3
OUTER_FIXED_MUSCLE_SIDE_IN
  1

  0
LINE
  5
73B
  8
0
  6
CONTINUOUS
 62
     7
 10
556.1518673498775
 20
-158.476431233962
 30
0.0
 11
625.3320753046663
 21
-55.23643123396199
 31
0.0
  0
LINE
  5
73C
  8
0
  6
CONTINUOUS
 62
     7
 10
627.8242802147748
 20
-53.90643563097143
 30
0.0
 11
630.9020573207949
 21
-53.90643563097143
 31
0.0
  0
LINE
  5
73D
  8
0
  6
CONTINUOUS
 62
     7
 10
633.1152523003296
 20
-54.88115343271797
 30
0.0
 11
729.223293557222
 21
-159.9064356309715
 31
0.0
  0
LINE
  5
73E
  8
0
  6
CONTINUOUS
 62
     7
 10
558.644072259986
 20
-163.1464356309715
 30
0.0
 11
729.223293557222
 21
-163.1464356309715
 31
0.0
  0
LINE
  5
73F
  8
0
  6
CONTINUOUS
 62
     7
 10
729.223293557222
 20
-159.9064356309715
 30
0.0
 11
729.223293557222
 21
-163.1464356309715
 31
0.0
  0
ARC
  5
740
  8
0
  6
CONTINUOUS
 62
     7
 10
558.644072259986
 20
-160.1464356309715
 30
0.0
 40
2.999999999999999
 50
146.1743113769408
 51
270.0
  0
ARC
  5
741
  8
0
  6
CONTINUOUS
 62
     7
 10
627.824280214775
 20
-56.90643563097143
 30
0.0
 40
3.000000000000001
 50
90.0
 51
146.1743113769407
  0
ARC
  5
742
  8
0
  6
CONTINUOUS
 62
     7
 10
630.9020573207949
 20
-56.90643563097143
 30
0.0
 40
3.000000000000004
 50
42.46145540160131
 51
90.0
  0
POLYLINE
  5
743
  8
0
  6
CONTINUOUS
 62
     7
 66
     1
 10
0.0
 20
0.0
 30
0.0
 70
     1
  0
VERTEX
  5
767
  8
0
  6
CONTINUOUS
 62
     7
 10
626.2232939306297
 20
-108.4114606309715
 30
0.0
 42
0.9999999999999999
  0
VERTEX
  5
768
  8
0
  6
CONTINUOUS
 62
     7
 10
626.7182689306295
 20
-108.9064356309714
 30
0.0
  0
VERTEX
  5
769
  8
0
  6
CONTINUOUS
 62
     7
 10
631.7283189306296
 20
-108.9064356309715
 30
0.0
 42
0.9999999999999999
  0
VERTEX
  5
76A
  8
0
  6
CONTINUOUS
 62
     7
 10
632.2232939306297
 20
-108.4114606309715
 30
0.0
  0
VERTEX
  5
76B
  8
0
  6
CONTINUOUS
 62
     7
 10
632.2232939306448
 20
-84.40141063097138
 30
0.0
 42
1.000000000000007
  0
VERTEX
  5
76C
  8
0
  6
CONTINUOUS
 62
     7
 10
631.7283181838144
 20
-83.9064356309715
 30
0.0
  0
VERTEX
  5
76D
  8
0
  6
CONTINUOUS
 62
     7
 10
626.7182689306295
 20
-83.90643563097147
 30
0.0
 42
0.9999999999999999
  0
VERTEX
  5
76E
  8
0
  6
CONTINUOUS
 62
     7
 10
626.2232939306297
 20
-84.40141063097143
 30
0.0
  0
SEQEND
  5
770
  8
0
  6
CONTINUOUS
 62
     7
  0
ENDBLK
  5
745
  8
0
  0
ENDSEC
  0
SECTION
  2
ENTITIES
  0
INSERT
  5
6F4
  8
0
  2
INNER_FIXED_MUSCLE_UPRIGHT
 10
0.0
 20
0.0
 30
0.0
  0
INSERT
  5
70A
  8
0
  2
INNER_FIXED_MUSCLE_SIDE
 10
0.0
 20
0.0
 30
0.0
  0
INSERT
  5
72C
  8
0
  2
OUTER_FIXED_MUSCLE_UPRIGHT
 10
0.0
 20
0.0
 30
0.0
  0
INSERT
  5
739
  8
0
  2
OUTER_FIXED_MUSCLE_SIDE_OU
 10
0.0
 20
0.0
 30
0.0
  0
INSERT
  5
746
  8
0
  2
OUTER_FIXED_MUSCLE_SIDE_IN
 10
0.0
 20
0.0
 30
0.0
  0
ENDSEC
  0
EOF
