  0
SECTION
  2
HEADER
  9
$ACADVER
  1
AC1009
  9
$DWGCODEPAGE
  3
ansi_1252
  9
$INSBASE
 10
0.0
 20
0.0
 30
0.0
  9
$EXTMIN
 10
-387.0553423446382
 20
-65.70491924614025
 30
0.0
  9
$EXTMAX
 10
49.69936762578209
 20
36.82907141314711
 30
0.0
  9
$LIMMIN
 10
0.0
 20
0.0
  9
$LIMMAX
 10
420.0
 20
297.0
  9
$ORTHOMODE
 70
     1
  9
$REGENMODE
 70
     1
  9
$FILLMODE
 70
     1
  9
$QTEXTMODE
 70
     0
  9
$MIRRTEXT
 70
     1
  9
$DRAGMODE
 70
     2
  9
$LTSCALE
 40
1.0
  9
$OSMODE
 70
 15295
  9
$ATTMODE
 70
     1
  9
$TEXTSIZE
 40
3.5
  9
$TRACEWID
 40
1.0
  9
$TEXTSTYLE
  7
STANDARD
  9
$CLAYER
  8
DIMENSION
  9
$CELTYPE
  6
BYLAYER
  9
$CECOLOR
 62
     5
  9
$DIMSCALE
 40
1.0
  9
$DIMASZ
 40
3.302
  9
$DIMEXO
 40
1.0
  9
$DIMDLI
 40
3.75
  9
$DIMRND
 40
0.0
  9
$DIMDLE
 40
0.0
  9
$DIMEXE
 40
1.0
  9
$DIMTP
 40
0.0
  9
$DIMTM
 40
0.0
  9
$DIMTXT
 40
3.5
  9
$DIMCEN
 40
2.5
  9
$DIMTSZ
 40
0.0
  9
$DIMTOL
 70
     0
  9
$DIMLIM
 70
     0
  9
$DIMTIH
 70
     1
  9
$DIMTOH
 70
     1
  9
$DIMSE1
 70
     0
  9
$DIMSE2
 70
     0
  9
$DIMTAD
 70
     1
  9
$DIMZIN
 70
     0
  9
$DIMBLK
  1

  9
$DIMASO
 70
     1
  9
$DIMSHO
 70
     1
  9
$DIMPOST
  1

  9
$DIMAPOST
  1

  9
$DIMALT
 70
     0
  9
$DIMALTD
 70
     3
  9
$DIMALTF
 40
0.0393700787
  9
$DIMLFAC
 40
1.0
  9
$DIMTOFL
 70
     1
  9
$DIMTVP
 40
0.0
  9
$DIMTIX
 70
     0
  9
$DIMSOXD
 70
     0
  9
$DIMSAH
 70
     0
  9
$DIMBLK1
  1

  9
$DIMBLK2
  1

  9
$DIMSTYLE
  2
ISO-25
  9
$DIMCLRD
 70
     0
  9
$DIMCLRE
 70
     0
  9
$DIMCLRT
 70
     0
  9
$DIMTFAC
 40
1.0
  9
$DIMGAP
 40
1.524
  9
$LUNITS
 70
     2
  9
$LUPREC
 70
     2
  9
$SKETCHINC
 40
1.0
  9
$FILLETRAD
 40
10.0
  9
$AUNITS
 70
     0
  9
$AUPREC
 70
     2
  9
$MENU
  1
.
  9
$ELEVATION
 40
0.0
  9
$PELEVATION
 40
0.0
  9
$THICKNESS
 40
0.0
  9
$LIMCHECK
 70
     0
  9
$CHAMFERA
 40
0.0
  9
$CHAMFERB
 40
0.0
  9
$SKPOLY
 70
     0
  9
$TDCREATE
 40
2458831.291870255
  9
$TDUPDATE
 40
2458879.682488577
  9
$TDINDWG
 40
0.0165722106
  9
$TDUSRTIMER
 40
2458879.669475625
  9
$USRTIMER
 70
     1
  9
$ANGBASE
 50
0.0
  9
$ANGDIR
 70
     0
  9
$PDMODE
 70
     0
  9
$PDSIZE
 40
-1.0
  9
$PLINEWID
 40
0.0
  9
$COORDS
 70
     1
  9
$SPLFRAME
 70
     0
  9
$SPLINETYPE
 70
     6
  9
$SPLINESEGS
 70
     8
  9
$ATTDIA
 70
     0
  9
$ATTREQ
 70
     1
  9
$HANDLING
 70
     1
  9
$HANDSEED
  5
566
  9
$SURFTAB1
 70
     6
  9
$SURFTAB2
 70
     6
  9
$SURFTYPE
 70
     6
  9
$SURFU
 70
     6
  9
$SURFV
 70
     6
  9
$UCSNAME
  2

  9
$UCSORG
 10
0.0
 20
0.0
 30
0.0
  9
$UCSXDIR
 10
1.0
 20
0.0
 30
0.0
  9
$UCSYDIR
 10
0.0
 20
1.0
 30
0.0
  9
$PUCSNAME
  2

  9
$PUCSORG
 10
0.0
 20
0.0
 30
0.0
  9
$PUCSXDIR
 10
1.0
 20
0.0
 30
0.0
  9
$PUCSYDIR
 10
0.0
 20
1.0
 30
0.0
  9
$USERI1
 70
     0
  9
$USERI2
 70
     0
  9
$USERI3
 70
     0
  9
$USERI4
 70
     0
  9
$USERI5
 70
     0
  9
$USERR1
 40
0.0
  9
$USERR2
 40
0.0
  9
$USERR3
 40
0.0
  9
$USERR4
 40
0.0
  9
$USERR5
 40
0.0
  9
$WORLDVIEW
 70
     1
  9
$SHADEDGE
 70
     3
  9
$SHADEDIF
 70
    70
  9
$TILEMODE
 70
     1
  9
$MAXACTVP
 70
    64
  9
$PLIMCHECK
 70
     0
  9
$PEXTMIN
 10
1.000000000000000E+20
 20
1.000000000000000E+20
 30
1.000000000000000E+20
  9
$PEXTMAX
 10
-1.000000000000000E+20
 20
-1.000000000000000E+20
 30
-1.000000000000000E+20
  9
$PLIMMIN
 10
0.0
 20
0.0
  9
$PLIMMAX
 10
0.0
 20
0.0
  9
$UNITMODE
 70
     0
  9
$VISRETAIN
 70
     1
  9
$PLINEGEN
 70
     0
  9
$PSLTSCALE
 70
     1
  0
ENDSEC
  0
SECTION
  2
TABLES
  0
TABLE
  2
VPORT
 70
     1
  0
VPORT
  2
*ACTIVE
 70
     0
 10
0.0
 20
0.0
 11
1.0
 21
1.0
 12
-326.5484141678336
 22
38.40249793641904
 13
0.0
 23
0.0
 14
10.0
 24
10.0
 15
10.0
 25
10.0
 16
0.0
 26
0.0
 36
1.0
 17
0.0
 27
0.0
 37
0.0
 40
539.834083392429
 41
2.047133757961784
 42
50.0
 43
0.0
 44
0.0
 50
0.0
 51
0.0
 71
    16
 72
   100
 73
     1
 74
     3
 75
     0
 76
     0
 77
     0
 78
     0
  0
ENDTAB
  0
TABLE
  2
LTYPE
 70
     6
  0
LTYPE
  2
CONTINUOUS
 70
     0
  3
Solid line
 72
    65
 73
     0
 40
0.0
  0
LTYPE
  2
HIDDEN
 70
     0
  3
Hidden __ __ __ __ __ __ __ __ __ __ __ __ __ __
 72
    65
 73
     2
 40
1.905
 49
1.27
 49
-0.635
  0
LTYPE
  2
PHANTOM
 70
     0
  3
Phantom ______  __  __  ______  __  __  ______
 72
    65
 73
     6
 40
12.7
 49
6.35
 49
-1.27
 49
1.27
 49
-1.27
 49
1.27
 49
-1.27
  0
LTYPE
  2
CENTER
 70
     0
  3
Center ____ _ ____ _ ____ _ ____ _ ____ _ ____
 72
    65
 73
     4
 40
10.16
 49
6.35
 49
-1.27
 49
1.27
 49
-1.27
  0
LTYPE
  2
CENTERX2
 70
     0
  3
Center (2x) ________  __  ________  __  _____
 72
    65
 73
     4
 40
20.32
 49
12.7
 49
-2.54
 49
2.54
 49
-2.54
  0
LTYPE
  2
DOT2
 70
     0
  3
Dot (.5x) ........................................
 72
    65
 73
     2
 40
0.635
 49
0.0
 49
-0.635
  0
ENDTAB
  0
TABLE
  2
LAYER
 70
     3
  0
LAYER
  2
0
 70
     0
 62
     7
  6
CONTINUOUS
  0
LAYER
  2
DEFPOINTS
 70
     0
 62
     7
  6
CONTINUOUS
  0
LAYER
  2
DIMENSION
 70
     0
 62
     2
  6
CENTER
  0
ENDTAB
  0
TABLE
  2
STYLE
 70
     1
  0
STYLE
  2
STANDARD
 70
     0
 40
0.0
 41
1.0
 50
0.0
 71
     0
 42
3.5
  3
txt
  4

  0
ENDTAB
  0
TABLE
  2
VIEW
 70
     0
  0
ENDTAB
  0
TABLE
  2
UCS
 70
     0
  0
ENDTAB
  0
TABLE
  2
APPID
 70
     4
  0
APPID
  2
ACAD
 70
     0
  0
APPID
  2
ACAD_DSTYLE_DIMRADIAL_EXTE
 70
     0
  0
APPID
  2
ACAECLAYERSTANDARD
 70
     0
  0
APPID
  2
ACAD_DSTYLE_DIMRADIAL_EXT0
 70
     0
  0
ENDTAB
  0
TABLE
  2
DIMSTYLE
 70
     1
  0
DIMSTYLE
  2
ISO-25
 70
     0
  3

  4

  5

  6

  7

 40
1.0
 41
2.5
 42
0.625
 43
3.75
 44
1.25
 45
0.0
 46
0.0
 47
0.0
 48
0.0
140
2.5
141
2.5
142
0.0
143
0.0393700787
144
1.0
145
0.0
146
1.0
147
0.625
 71
     0
 72
     0
 73
     0
 74
     0
 75
     0
 76
     0
 77
     1
 78
     8
170
     0
171
     3
172
     1
173
     0
174
     0
175
     0
176
     0
177
     0
178
     0
  0
ENDTAB
  0
ENDSEC
  0
SECTION
  2
BLOCKS
  0
BLOCK
  8
0
  2
$MODEL_SPACE
 70
     0
 10
0.0
 20
0.0
 30
0.0
  3
$MODEL_SPACE
  1

  0
ENDBLK
  5
21
  8
0
  0
BLOCK
 67
     1
  8
0
  2
$PAPER_SPACE
 70
     0
 10
0.0
 20
0.0
 30
0.0
  3
$PAPER_SPACE
  1

  0
ENDBLK
  5
1D
 67
     1
  8
0
  0
BLOCK
  8
0
  2
*D0
 70
     1
 10
0.0
 20
0.0
 30
0.0
  3
*D0
  1

  0
LINE
  5
1DB
  8
0
 62
     0
 10
-64.10508653894648
 20
5.581458619945279
 30
0.0
 11
-64.10508653894648
 21
26.12537617651977
 31
0.0
  0
LINE
  5
1DC
  8
0
 62
     0
 10
8.89491346105352
 20
5.581458619945264
 30
0.0
 11
8.89491346105352
 21
26.12537617651977
 31
0.0
  0
LINE
  5
1DD
  8
0
 62
     0
 10
-60.80308653894648
 20
25.12537617651977
 30
0.0
 11
5.59291346105352
 21
25.12537617651977
 31
0.0
  0
SOLID
  5
1DE
  8
0
 62
     0
 10
-60.80308653894648
 20
25.6757095098531
 30
0.0
 11
-60.80308653894648
 21
24.57504284318643
 31
0.0
 12
-64.10508653894648
 22
25.12537617651977
 32
0.0
 13
-64.10508653894648
 23
25.12537617651977
 33
0.0
  0
SOLID
  5
1DF
  8
0
 62
     0
 10
5.59291346105352
 20
24.57504284318643
 30
0.0
 11
5.59291346105352
 21
25.6757095098531
 31
0.0
 12
8.89491346105352
 22
25.12537617651977
 32
0.0
 13
8.89491346105352
 23
25.12537617651977
 33
0.0
  0
TEXT
  5
1E0
  8
0
  6
CONTINUOUS
 62
     0
 10
-34.02175320561314
 20
26.64937617651977
 30
0.0
 40
3.5
  1
73.00
  0
POINT
  5
1E1
  8
DEFPOINTS
 62
     0
 10
-64.10508653894648
 20
4.581458619945279
 30
0.0
  0
POINT
  5
1E2
  8
DEFPOINTS
 62
     0
 10
8.89491346105352
 20
4.581458619945264
 30
0.0
  0
POINT
  5
1E3
  8
DEFPOINTS
 62
     0
 10
8.89491346105352
 20
25.12537617651977
 30
0.0
  0
ENDBLK
  5
1DA
  8
0
  0
BLOCK
  8
0
  2
*D1
 70
     1
 10
0.0
 20
0.0
 30
0.0
  3
*D1
  1

  0
LINE
  5
1EB
  8
DIMENSION
 62
     0
 10
-369.4999999999999
 20
5.000000000000068
 30
0.0
 11
-369.4999999999999
 21
22.57482470516345
 31
0.0
  0
LINE
  5
1EC
  8
DIMENSION
 62
     0
 10
-296.9999999999999
 20
5.000000000000053
 30
0.0
 11
-296.9999999999999
 21
22.57482470516345
 31
0.0
  0
LINE
  5
1ED
  8
DIMENSION
 62
     0
 10
-366.1979999999999
 20
21.57482470516345
 30
0.0
 11
-300.3019999999999
 21
21.57482470516345
 31
0.0
  0
SOLID
  5
1EE
  8
DIMENSION
 62
     0
 10
-366.1979999999999
 20
22.12515803849679
 30
0.0
 11
-366.1979999999999
 21
21.02449137183012
 31
0.0
 12
-369.4999999999999
 22
21.57482470516345
 32
0.0
 13
-369.4999999999999
 23
21.57482470516345
 33
0.0
  0
SOLID
  5
1EF
  8
DIMENSION
 62
     0
 10
-300.3019999999999
 20
21.02449137183012
 30
0.0
 11
-300.3019999999999
 21
22.12515803849679
 31
0.0
 12
-296.9999999999999
 22
21.57482470516345
 32
0.0
 13
-296.9999999999999
 23
21.57482470516345
 33
0.0
  0
TEXT
  5
1F0
  8
DIMENSION
  6
CONTINUOUS
 62
     0
 10
-339.9583333333332
 20
23.09882470516345
 30
0.0
 40
3.5
  1
72.50
  0
POINT
  5
1F1
  8
DEFPOINTS
 62
     0
 10
-369.4999999999999
 20
4.000000000000068
 30
0.0
  0
POINT
  5
1F2
  8
DEFPOINTS
 62
     0
 10
-296.9999999999999
 20
4.000000000000053
 30
0.0
  0
POINT
  5
1F3
  8
DEFPOINTS
 62
     0
 10
-296.9999999999999
 20
21.57482470516345
 30
0.0
  0
ENDBLK
  5
1EA
  8
0
  0
BLOCK
  8
0
  2
*D2
 70
     1
 10
0.0
 20
0.0
 30
0.0
  3
*D2
  1

  0
LINE
  5
1FA
  8
DIMENSION
 62
     0
 10
-370.4999999999999
 20
4.000000000000068
 30
0.0
 11
-383.3886756779715
 21
4.000000000000069
 31
0.0
  0
LINE
  5
1FB
  8
DIMENSION
 62
     0
 10
-370.4999999999999
 20
-3.999999999999931
 30
0.0
 11
-383.3886756779715
 21
-3.99999999999993
 31
0.0
  0
LINE
  5
1FC
  8
DIMENSION
 62
     0
 10
-382.3886756779715
 20
4.000000000000069
 30
0.0
 11
-382.3886756779715
 21
3.274000000000069
 31
0.0
  0
LINE
  5
1FD
  8
DIMENSION
 62
     0
 10
-382.3886756779715
 20
-3.99999999999993
 30
0.0
 11
-382.3886756779715
 21
-3.273999999999931
 31
0.0
  0
LINE
  5
1FE
  8
DIMENSION
 62
     0
 10
-382.3886756779715
 20
7.302000000000069
 30
0.0
 11
-382.3886756779715
 21
10.60400000000007
 31
0.0
  0
LINE
  5
1FF
  8
DIMENSION
 62
     0
 10
-382.3886756779715
 20
-7.30199999999993
 30
0.0
 11
-382.3886756779715
 21
-10.60399999999993
 31
0.0
  0
SOLID
  5
200
  8
DIMENSION
 62
     0
 10
-382.9390090113048
 20
7.302000000000069
 30
0.0
 11
-381.8383423446381
 21
7.302000000000069
 31
0.0
 12
-382.3886756779715
 22
4.000000000000069
 32
0.0
 13
-382.3886756779715
 23
4.000000000000069
 33
0.0
  0
SOLID
  5
201
  8
DIMENSION
 62
     0
 10
-381.8383423446381
 20
-7.30199999999993
 30
0.0
 11
-382.9390090113048
 21
-7.30199999999993
 31
0.0
 12
-382.3886756779715
 22
-3.99999999999993
 32
0.0
 13
-382.3886756779715
 23
-3.99999999999993
 33
0.0
  0
TEXT
  5
202
  8
DIMENSION
  6
CONTINUOUS
 62
     0
 10
-387.0553423446382
 20
-1.749999999999931
 30
0.0
 40
3.5
  1
8.00
  0
POINT
  5
203
  8
DEFPOINTS
 62
     0
 10
-369.4999999999999
 20
4.000000000000068
 30
0.0
  0
POINT
  5
204
  8
DEFPOINTS
 62
     0
 10
-369.4999999999999
 20
-3.999999999999931
 30
0.0
  0
POINT
  5
205
  8
DEFPOINTS
 62
     0
 10
-382.3886756779715
 20
-3.99999999999993
 30
0.0
  0
ENDBLK
  5
1F9
  8
0
  0
BLOCK
  8
0
  2
*D3
 70
     1
 10
0.0
 20
0.0
 30
0.0
  3
*D3
  1

  0
LINE
  5
20C
  8
DIMENSION
 62
     0
 10
-296.9999999999999
 20
5.000000000000053
 30
0.0
 11
-296.9999999999999
 21
22.61538262949389
 31
0.0
  0
LINE
  5
20D
  8
DIMENSION
 62
     0
 10
0.0
 20
1.0
 30
0.0
 11
0.0
 21
22.61538262949389
 31
0.0
  0
LINE
  5
20E
  8
DIMENSION
 62
     0
 10
-293.6979999999999
 20
21.61538262949389
 30
0.0
 11
-3.302
 21
21.61538262949389
 31
0.0
  0
SOLID
  5
20F
  8
DIMENSION
 62
     0
 10
-293.6979999999999
 20
22.16571596282722
 30
0.0
 11
-293.6979999999999
 21
21.06504929616056
 31
0.0
 12
-296.9999999999999
 22
21.61538262949389
 32
0.0
 13
-296.9999999999999
 23
21.61538262949389
 33
0.0
  0
SOLID
  5
210
  8
DIMENSION
 62
     0
 10
-3.302
 20
21.06504929616056
 30
0.0
 11
-3.302
 21
22.16571596282722
 31
0.0
 12
0.0
 22
21.61538262949389
 32
0.0
 13
0.0
 23
21.61538262949389
 33
0.0
  0
TEXT
  5
211
  8
DIMENSION
  6
CONTINUOUS
 62
     0
 10
-156.6666666666666
 20
23.13938262949389
 30
0.0
 40
3.5
  1
297.00
  0
POINT
  5
212
  8
DEFPOINTS
 62
     0
 10
-296.9999999999999
 20
4.000000000000053
 30
0.0
  0
POINT
  5
213
  8
DEFPOINTS
 62
     0
 10
0.0
 20
0.0
 30
0.0
  0
POINT
  5
214
  8
DEFPOINTS
 62
     0
 10
0.0
 20
21.61538262949389
 30
0.0
  0
ENDBLK
  5
20B
  8
0
  0
BLOCK
  8
0
  2
*D4
 70
     1
 10
0.0
 20
0.0
 30
0.0
  3
*D4
  1

  0
LINE
  5
23B
  8
DIMENSION
 62
     0
 10
-291.1583390895003
 20
-3.194852363078637
 30
0.0
 11
-287.893221665126
 21
-2.702701771239659
 31
0.0
  0
LINE
  5
23C
  8
DIMENSION
 62
     0
 10
-301.8416609104996
 20
-4.805147636921254
 30
0.0
 11
-305.1067783348739
 21
-5.297298228760232
 31
0.0
  0
TEXT
  5
23D
  8
DIMENSION
  6
CONTINUOUS
 62
     0
 10
-293.1731400600555
 20
-7.374424582160231
 30
0.0
 40
3.5
  1
\U+22054.20
  0
LINE
  5
23E
  8
DIMENSION
 62
     0
 10
-298.5765434861253
 20
-4.312997045082277
 30
0.0
 11
-294.4234565138746
 21
-3.687002954917614
 31
0.0
  0
SOLID
  5
23F
  8
DIMENSION
 62
     0
 10
-301.7596358118598
 20
-5.349333874316968
 30
0.0
 11
-301.9236860091394
 21
-4.260961399525541
 31
0.0
 12
-298.5765434861253
 22
-4.312997045082277
 32
0.0
 13
-298.5765434861253
 23
-4.312997045082277
 33
0.0
  0
SOLID
  5
240
  8
DIMENSION
 62
     0
 10
-291.2403641881401
 20
-2.650666125682923
 30
0.0
 11
-291.0763139908605
 21
-3.73903860047435
 31
0.0
 12
-294.4234565138746
 22
-3.687002954917614
 32
0.0
 13
-294.4234565138746
 23
-3.687002954917614
 33
0.0
  0
POINT
  5
241
  8
DEFPOINTS
 62
     0
 10
-294.4234565138746
 20
-3.687002954917614
 30
0.0
  0
POINT
  5
242
  8
DEFPOINTS
 62
     0
 10
-298.5765434861253
 20
-4.312997045082277
 30
0.0
  0
ENDBLK
  5
23A
  8
0
  0
BLOCK
  8
0
  2
*D5
 70
     1
 10
0.0
 20
0.0
 30
0.0
  3
*D5
  1

  0
LINE
  5
249
  8
DIMENSION
 62
     0
 10
-5.086588368714985
 20
-1.818852046554005
 30
0.0
 11
-8.19579140342376
 21
-2.930634619253245
 31
0.0
  0
LINE
  5
24A
  8
DIMENSION
 62
     0
 10
5.086588368714985
 20
1.818852046554004
 30
0.0
 11
8.19579140342376
 21
2.930634619253245
 31
0.0
  0
TEXT
  5
24B
  8
DIMENSION
  6
CONTINUOUS
 62
     0
 10
-11.95280388636187
 20
-7.714058689277056
 30
0.0
 40
3.5
  1
\U+22054.20
  0
LINE
  5
24C
  8
DIMENSION
 62
     0
 10
1.977385334006209
 20
0.707069473854764
 30
0.0
 11
-1.977385334006209
 21
-0.707069473854764
 31
0.0
  0
SOLID
  5
24D
  8
DIMENSION
 62
     0
 10
4.901291273265111
 20
2.3370525523388
 30
0.0
 11
5.271885464164858
 21
1.300651540769209
 31
0.0
 12
1.977385334006209
 22
0.707069473854764
 32
0.0
 13
1.977385334006209
 23
0.707069473854764
 33
0.0
  0
SOLID
  5
24E
  8
DIMENSION
 62
     0
 10
-4.901291273265111
 20
-2.3370525523388
 30
0.0
 11
-5.271885464164858
 21
-1.300651540769209
 31
0.0
 12
-1.977385334006209
 22
-0.707069473854764
 32
0.0
 13
-1.977385334006209
 23
-0.707069473854764
 33
0.0
  0
POINT
  5
24F
  8
DEFPOINTS
 62
     0
 10
-1.977385334006209
 20
-0.707069473854764
 30
0.0
  0
POINT
  5
250
  8
DEFPOINTS
 62
     0
 10
1.977385334006209
 20
0.707069473854764
 30
0.0
  0
ENDBLK
  5
248
  8
0
  0
BLOCK
  8
0
  2
*D8
 70
     1
 10
0.0
 20
0.0
 30
0.0
  3
*D8
  1

  0
LINE
  5
3AE
  8
DIMENSION
 62
     0
 10
-369.4999999999999
 20
5.000000000000068
 30
0.0
 11
-369.4999999999999
 21
31.04307141314711
 31
0.0
  0
LINE
  5
3AF
  8
DIMENSION
 62
     0
 10
-372.9999999999999
 20
5.000000000000068
 30
0.0
 11
-372.9999999999999
 21
31.04307141314711
 31
0.0
  0
LINE
  5
3B0
  8
DIMENSION
 62
     0
 10
-369.4999999999999
 20
30.04307141314711
 30
0.0
 11
-372.9999999999999
 21
30.04307141314711
 31
0.0
  0
LINE
  5
3B1
  8
DIMENSION
 62
     0
 10
-366.1979999999999
 20
30.04307141314711
 30
0.0
 11
-362.8959999999998
 21
30.04307141314711
 31
0.0
  0
LINE
  5
3B2
  8
DIMENSION
 62
     0
 10
-376.3019999999999
 20
30.04307141314711
 30
0.0
 11
-379.6039999999999
 21
30.04307141314711
 31
0.0
  0
SOLID
  5
3B3
  8
DIMENSION
 62
     0
 10
-366.1979999999999
 20
30.59340474648045
 30
0.0
 11
-366.1979999999999
 21
29.49273807981378
 31
0.0
 12
-369.4999999999999
 22
30.04307141314711
 32
0.0
 13
-369.4999999999999
 23
30.04307141314711
 33
0.0
  0
SOLID
  5
3B4
  8
DIMENSION
 62
     0
 10
-376.3019999999999
 20
29.49273807981378
 30
0.0
 11
-376.3019999999999
 21
30.59340474648045
 31
0.0
 12
-372.9999999999999
 22
30.04307141314711
 32
0.0
 13
-372.9999999999999
 23
30.04307141314711
 33
0.0
  0
TEXT
  5
3B5
  8
DIMENSION
  6
CONTINUOUS
 62
     0
 10
-376.2083333333332
 20
33.32907141314711
 30
0.0
 40
3.5
  1
3.50
  0
POINT
  5
3B6
  8
DEFPOINTS
 62
     0
 10
-369.4999999999999
 20
4.000000000000068
 30
0.0
  0
POINT
  5
3B7
  8
DEFPOINTS
 62
     0
 10
-372.9999999999999
 20
4.000000000000068
 30
0.0
  0
POINT
  5
3B8
  8
DEFPOINTS
 62
     0
 10
-372.9999999999999
 20
30.04307141314711
 30
0.0
  0
ENDBLK
  5
3AD
  8
0
  0
ENDSEC
  0
SECTION
  2
ENTITIES
  0
POLYLINE
  5
73
  8
0
  6
CONTINUOUS
 62
     7
 66
     1
 10
0.0
 20
0.0
 30
0.0
  0
VERTEX
  5
4F4
  8
0
  6
CONTINUOUS
 62
     7
 10
4.495677029000149
 20
-0.0000000000000008
 30
0.0
  0
VERTEX
  5
4F5
  8
0
  6
CONTINUOUS
 62
     7
 10
4.516403971100033
 20
-0.4370652096000008
 30
0.0
  0
VERTEX
  5
4F6
  8
0
  6
CONTINUOUS
 62
     7
 10
4.530874547500048
 20
-0.8668140174000007
 30
0.0
  0
VERTEX
  5
4F7
  8
0
  6
CONTINUOUS
 62
     7
 10
4.539088758300011
 20
-1.289246423500001
 30
0.0
  0
VERTEX
  5
4F8
  8
0
  6
CONTINUOUS
 62
     7
 10
4.541046603400048
 20
-1.7043624279
 30
0.0
  0
VERTEX
  5
4F9
  8
0
  6
CONTINUOUS
 62
     7
 10
4.536748082900033
 20
-2.1121620306
 30
0.0
  0
VERTEX
  5
4FA
  8
0
  6
CONTINUOUS
 62
     7
 10
4.526193196700035
 20
-2.512645231500001
 30
0.0
  0
VERTEX
  5
4FB
  8
0
  6
CONTINUOUS
 62
     7
 10
4.509381944799998
 20
-2.905812030700001
 30
0.0
  0
VERTEX
  5
4FC
  8
0
  6
CONTINUOUS
 62
     7
 10
4.486314327300022
 20
-3.2916624281
 30
0.0
  0
VERTEX
  5
4FD
  8
0
  6
CONTINUOUS
 62
     7
 10
4.456990344200051
 20
-3.6701964239
 30
0.0
  0
VERTEX
  5
4FE
  8
0
  6
CONTINUOUS
 62
     7
 10
4.421409995299996
 20
-4.041414017800001
 30
0.0
  0
VERTEX
  5
4FF
  8
0
  6
CONTINUOUS
 62
     7
 10
4.379573280900047
 20
-4.4053152101
 30
0.0
  0
VERTEX
  5
500
  8
0
  6
CONTINUOUS
 62
     7
 10
4.331480200700014
 20
-4.761900000600001
 30
0.0
  0
VERTEX
  5
501
  8
0
  6
CONTINUOUS
 62
     7
 10
4.277130754900043
 20
-5.1111683894
 30
0.0
  0
VERTEX
  5
502
  8
0
  6
CONTINUOUS
 62
     7
 10
4.216524943500019
 20
-5.4531203765
 30
0.0
  0
VERTEX
  5
503
  8
0
  6
CONTINUOUS
 62
     7
 10
4.149662766400013
 20
-5.7877559618
 30
0.0
  0
VERTEX
  5
504
  8
0
  6
CONTINUOUS
 62
     7
 10
4.076544223600024
 20
-6.1150751454
 30
0.0
  0
VERTEX
  5
505
  8
0
  6
CONTINUOUS
 62
     7
 10
3.997169315200097
 20
-6.4350779273
 30
0.0
  0
VERTEX
  5
506
  8
0
  6
CONTINUOUS
 62
     7
 10
3.911538041100016
 20
-6.747764307399999
 30
0.0
  0
VERTEX
  5
507
  8
0
  6
CONTINUOUS
 62
     7
 10
3.819650401399997
 20
-7.0531342858
 30
0.0
  0
VERTEX
  5
508
  8
0
  6
CONTINUOUS
 62
     7
 10
3.721506395999995
 20
-7.351187862499999
 30
0.0
  0
VERTEX
  5
509
  8
0
  6
CONTINUOUS
 62
     7
 10
3.617106024999998
 20
-7.6419250374
 30
0.0
  0
VERTEX
  5
50A
  8
0
  6
CONTINUOUS
 62
     7
 10
3.506449288200031
 20
-7.9253458106
 30
0.0
  0
VERTEX
  5
50B
  8
0
  6
CONTINUOUS
 62
     7
 10
3.389536185899999
 20
-8.201450182100002
 30
0.0
  0
VERTEX
  5
50C
  8
0
  6
CONTINUOUS
 62
     7
 10
3.266366717900098
 20
-8.470238151900002
 30
0.0
  0
SEQEND
  5
559
  8
0
  6
CONTINUOUS
 62
     7
  0
POLYLINE
  5
74
  8
0
  6
CONTINUOUS
 62
     7
 66
     1
 10
0.0
 20
0.0
 30
0.0
  0
VERTEX
  5
50D
  8
0
  6
CONTINUOUS
 62
     7
 10
4.495677029000149
 20
-0.0000000000000008
 30
0.0
  0
VERTEX
  5
50E
  8
0
  6
CONTINUOUS
 62
     7
 10
4.516403971100033
 20
0.4370652095999995
 30
0.0
  0
VERTEX
  5
50F
  8
0
  6
CONTINUOUS
 62
     7
 10
4.530874547500048
 20
0.8668140173999995
 30
0.0
  0
VERTEX
  5
510
  8
0
  6
CONTINUOUS
 62
     7
 10
4.539088758300011
 20
1.289246423499999
 30
0.0
  0
VERTEX
  5
511
  8
0
  6
CONTINUOUS
 62
     7
 10
4.541046603400048
 20
1.7043624279
 30
0.0
  0
VERTEX
  5
512
  8
0
  6
CONTINUOUS
 62
     7
 10
4.536748082900033
 20
2.1121620306
 30
0.0
  0
VERTEX
  5
513
  8
0
  6
CONTINUOUS
 62
     7
 10
4.526193196700035
 20
2.5126452315
 30
0.0
  0
VERTEX
  5
514
  8
0
  6
CONTINUOUS
 62
     7
 10
4.509381944799998
 20
2.905812030699999
 30
0.0
  0
VERTEX
  5
515
  8
0
  6
CONTINUOUS
 62
     7
 10
4.486314327300022
 20
3.2916624281
 30
0.0
  0
VERTEX
  5
516
  8
0
  6
CONTINUOUS
 62
     7
 10
4.456990344200051
 20
3.670196423899999
 30
0.0
  0
VERTEX
  5
517
  8
0
  6
CONTINUOUS
 62
     7
 10
4.421409995299996
 20
4.041414017799999
 30
0.0
  0
VERTEX
  5
518
  8
0
  6
CONTINUOUS
 62
     7
 10
4.379573280900047
 20
4.4053152101
 30
0.0
  0
VERTEX
  5
519
  8
0
  6
CONTINUOUS
 62
     7
 10
4.331480200700014
 20
4.7619000006
 30
0.0
  0
VERTEX
  5
51A
  8
0
  6
CONTINUOUS
 62
     7
 10
4.277130754900043
 20
5.1111683894
 30
0.0
  0
VERTEX
  5
51B
  8
0
  6
CONTINUOUS
 62
     7
 10
4.216524943500019
 20
5.4531203765
 30
0.0
  0
VERTEX
  5
51C
  8
0
  6
CONTINUOUS
 62
     7
 10
4.149662766400013
 20
5.7877559618
 30
0.0
  0
VERTEX
  5
51D
  8
0
  6
CONTINUOUS
 62
     7
 10
4.076544223600024
 20
6.1150751454
 30
0.0
  0
VERTEX
  5
51E
  8
0
  6
CONTINUOUS
 62
     7
 10
3.997169315200097
 20
6.4350779273
 30
0.0
  0
VERTEX
  5
51F
  8
0
  6
CONTINUOUS
 62
     7
 10
3.911538041100016
 20
6.7477643074
 30
0.0
  0
VERTEX
  5
520
  8
0
  6
CONTINUOUS
 62
     7
 10
3.819650401399997
 20
7.0531342858
 30
0.0
  0
VERTEX
  5
521
  8
0
  6
CONTINUOUS
 62
     7
 10
3.721506395999995
 20
7.3511878625
 30
0.0
  0
VERTEX
  5
522
  8
0
  6
CONTINUOUS
 62
     7
 10
3.617106024999998
 20
7.641925037399999
 30
0.0
  0
VERTEX
  5
523
  8
0
  6
CONTINUOUS
 62
     7
 10
3.506449288200031
 20
7.925345810599999
 30
0.0
  0
VERTEX
  5
524
  8
0
  6
CONTINUOUS
 62
     7
 10
3.389536185899999
 20
8.201450182099999
 30
0.0
  0
VERTEX
  5
525
  8
0
  6
CONTINUOUS
 62
     7
 10
3.266366717900098
 20
8.470238151899999
 30
0.0
  0
SEQEND
  5
55A
  8
0
  6
CONTINUOUS
 62
     7
  0
ARC
  5
75
  8
0
  6
CONTINUOUS
 62
     7
 10
-0.344835395099949
 20
6.75
 30
0.0
 40
4.000000000000114
 50
25.47133862999981
 51
90.0
  0
LINE
  5
76
  8
0
  6
CONTINUOUS
 62
     7
 10
-372.9999999999999
 20
10.75000000000007
 30
0.0
 11
-0.344835395099949
 21
10.75
 31
0.0
  0
LINE
  5
77
  8
0
  6
CONTINUOUS
 62
     7
 10
-372.9999999999999
 20
10.75000000000007
 30
0.0
 11
-372.9999999999999
 21
-10.74999999999993
 31
0.0
  0
LINE
  5
78
  8
0
  6
CONTINUOUS
 62
     7
 10
-372.9999999999999
 20
-10.74999999999993
 30
0.0
 11
-0.344835395099949
 21
-10.75
 31
0.0
  0
ARC
  5
79
  8
0
  6
CONTINUOUS
 62
     7
 10
-0.344835395099949
 20
-6.75
 30
0.0
 40
4.000000000000114
 50
270.0
 51
334.5286613700002
  0
CIRCLE
  5
7B
  8
0
  6
CONTINUOUS
 62
     7
 10
-369.4999999999999
 20
4.000000000000068
 30
0.0
 40
2.099999999999994
  0
CIRCLE
  5
7C
  8
0
  6
CONTINUOUS
 62
     7
 10
0.0
 20
0.0
 30
0.0
 40
2.100000000000023
  0
CIRCLE
  5
7E
  8
0
  6
CONTINUOUS
 62
     7
 10
-369.4999999999999
 20
-3.999999999999931
 30
0.0
 40
2.099999999999994
  0
DIMENSION
  5
1E5
  8
DIMENSION
  2
*D1
 10
-296.9999999999999
 20
21.57482470516345
 30
0.0
 11
-333.2499999999999
 21
24.84882470516345
 31
0.0
 70
    32
  3
ISO-25
 13
-369.4999999999999
 23
4.000000000000068
 33
0.0
 14
-296.9999999999999
 24
4.000000000000053
 34
0.0
1001
ACAD
1000
DSTYLE
1002
{
1070
   287
1070
     5
1070
    41
1040
3.302
1070
   271
1070
     2
1070
    44
1040
1.0
1070
    42
1040
1.0
1070
   147
1040
1.524
1070
   272
1070
     2
1070
    73
1070
     1
1070
   279
1070
     2
1070
    74
1070
     1
1070
   140
1040
3.5
1070
    78
1070
     0
1002
}
  0
DIMENSION
  5
1F4
  8
DIMENSION
  2
*D2
 10
-382.3886756779715
 20
-3.99999999999993
 30
0.0
 11
-382.3886756779715
 21
0.0000000000000695
 31
0.0
 70
    32
  3
ISO-25
 13
-369.4999999999999
 23
4.000000000000068
 33
0.0
 14
-369.4999999999999
 24
-3.999999999999931
 34
0.0
 50
90.0
1001
ACAD
1000
DSTYLE
1002
{
1070
   287
1070
     5
1070
    41
1040
3.302
1070
   271
1070
     2
1070
    44
1040
1.0
1070
    42
1040
1.0
1070
   147
1040
1.524
1070
   272
1070
     2
1070
    73
1070
     1
1070
   279
1070
     2
1070
    74
1070
     1
1070
   140
1040
3.5
1070
    78
1070
     0
1002
}
  0
DIMENSION
  5
206
  8
DIMENSION
  2
*D3
 10
0.0
 20
21.61538262949389
 30
0.0
 11
-148.4999999999999
 21
24.88938262949389
 31
0.0
 70
    32
  3
ISO-25
 13
-296.9999999999999
 23
4.000000000000053
 33
0.0
 14
0.0
 24
0.0
 34
0.0
1001
ACAD
1000
DSTYLE
1002
{
1070
   287
1070
     5
1070
    41
1040
3.302
1070
   271
1070
     2
1070
    44
1040
1.0
1070
    42
1040
1.0
1070
   147
1040
1.524
1070
   272
1070
     2
1070
    73
1070
     1
1070
   279
1070
     2
1070
    74
1070
     1
1070
   140
1040
3.5
1070
    78
1070
     0
1002
}
  0
DIMENSION
  5
235
  8
DIMENSION
  2
*D4
 10
-298.5765434861253
 20
-4.312997045082277
 30
0.0
 11
-286.4648067267221
 21
-5.624424582160231
 31
0.0
 70
   163
  3
ISO-25
 15
-294.4234565138746
 25
-3.687002954917614
 35
0.0
 40
0.0
1001
ACAD
1000
DSTYLE
1002
{
1070
   287
1070
     5
1070
    41
1040
3.302
1070
   271
1070
     2
1070
    44
1040
1.0
1070
    42
1040
1.0
1070
   147
1040
1.524
1070
   272
1070
     2
1070
    73
1070
     1
1070
   279
1070
     2
1070
    74
1070
     1
1070
   140
1040
3.5
1070
    78
1070
     0
1002
}
1001
ACAD_DSTYLE_DIMRADIAL_EXT0
1070
   387
1070
     1
1070
   388
1040
0.0
1070
   390
1040
6.283185307179586
  0
DIMENSION
  5
243
  8
DIMENSION
  2
*D5
 10
1.977385334006209
 20
0.707069473854764
 30
0.0
 11
-5.244470553028535
 21
-5.964058689277056
 31
0.0
 70
   163
  3
ISO-25
 15
-1.977385334006209
 25
-0.707069473854764
 35
0.0
 40
0.0
1001
ACAD
1000
DSTYLE
1002
{
1070
   287
1070
     5
1070
    41
1040
3.302
1070
   271
1070
     2
1070
    44
1040
1.0
1070
    42
1040
1.0
1070
   147
1040
1.524
1070
   272
1070
     2
1070
    73
1070
     1
1070
   279
1070
     2
1070
    74
1070
     1
1070
   140
1040
3.5
1070
    78
1070
     0
1002
}
1001
ACAD_DSTYLE_DIMRADIAL_EXT0
1070
   387
1070
     1
1070
   388
1040
0.0
1070
   390
1040
6.283185307179586
  0
CIRCLE
  5
39F
  8
0
  6
CONTINUOUS
 62
     1
 10
-369.4999999999999
 20
-28.83380276744107
 30
0.0
 40
2.099999999999993
  0
CIRCLE
  5
3A0
  8
0
  6
CONTINUOUS
 62
     1
 10
-369.4999999999999
 20
-20.83380276744107
 30
0.0
 40
2.099999999999993
  0
POLYLINE
  5
3A3
  8
0
  6
CONTINUOUS
 62
     5
 66
     1
 10
0.0
 20
0.0
 30
0.0
  0
VERTEX
  5
526
  8
0
  6
CONTINUOUS
 62
     5
 10
38.94936762578209
 20
-35.58380276744101
 30
0.0
  0
VERTEX
  5
527
  8
0
  6
CONTINUOUS
 62
     5
 10
-372.9999999999999
 20
-35.58380276744107
 30
0.0
  0
VERTEX
  5
528
  8
0
  6
CONTINUOUS
 62
     5
 10
-372.9999999999999
 20
-14.08380276744107
 30
0.0
  0
VERTEX
  5
529
  8
0
  6
CONTINUOUS
 62
     5
 10
38.94936762578209
 20
-14.08380276744101
 30
0.0
  0
SEQEND
  5
55B
  8
0
  6
CONTINUOUS
 62
     5
  0
CIRCLE
  5
3A4
  8
0
 62
     1
 10
38.94936762578209
 20
-24.83380276744101
 30
0.0
 40
1.5
  0
ARC
  5
3A5
  8
0
 62
     5
 10
38.94936762578209
 20
-24.83380276744101
 30
0.0
 40
10.75
 50
270.0
 51
90.0
  0
DIMENSION
  5
3A8
  8
DIMENSION
  2
*D8
 10
-372.9999999999999
 20
30.04307141314711
 30
0.0
 11
-371.2499999999999
 21
35.07907141314711
 31
0.0
 70
    32
  3
ISO-25
 13
-369.4999999999999
 23
4.000000000000068
 33
0.0
 14
-372.9999999999999
 24
4.000000000000068
 34
0.0
1001
ACAD
1000
DSTYLE
1002
{
1070
   287
1070
     5
1070
    41
1040
3.302
1070
   271
1070
     2
1070
    44
1040
1.0
1070
    42
1040
1.0
1070
   147
1040
1.524
1070
   272
1070
     2
1070
    73
1070
     1
1070
   279
1070
     2
1070
    74
1070
     1
1070
   140
1040
3.5
1070
    78
1070
     0
1002
}
  0
LINE
  5
3BA
  8
DIMENSION
 10
-296.9999999999999
 20
4.000000000000053
 30
0.0
 11
-296.9999999999999
 21
-40.56623774604931
 31
0.0
  0
POLYLINE
  5
430
  8
0
  6
CONTINUOUS
 62
     1
 66
     1
 10
0.0
 20
0.0
 30
0.0
  0
VERTEX
  5
52A
  8
0
  6
CONTINUOUS
 62
     1
 10
-297.2499999999999
 20
-22.93380276744105
 30
0.0
  0
VERTEX
  5
52B
  8
0
  6
CONTINUOUS
 62
     1
 10
-296.7499999999999
 20
-22.93380276744105
 30
0.0
 42
0.9999999999999999
  0
VERTEX
  5
52C
  8
0
  6
CONTINUOUS
 62
     1
 10
-296.7499999999999
 20
-18.73380276744112
 30
0.0
  0
VERTEX
  5
52D
  8
0
  6
CONTINUOUS
 62
     1
 10
-297.2499999999999
 20
-18.73380276744112
 30
0.0
  0
VERTEX
  5
52E
  8
0
  6
CONTINUOUS
 62
     1
 10
-296.9999999999999
 20
-18.73380276744112
 30
0.0
  0
SEQEND
  5
55C
  8
0
  6
CONTINUOUS
 62
     1
  0
POLYLINE
  5
431
  8
0
  6
CONTINUOUS
 62
     1
 66
     1
 10
0.0
 20
0.0
 30
0.0
  0
VERTEX
  5
52F
  8
0
  6
CONTINUOUS
 62
     1
 10
-297.2499999999999
 20
-18.73380276744112
 30
0.0
 42
0.9999999999999999
  0
VERTEX
  5
530
  8
0
  6
CONTINUOUS
 62
     1
 10
-297.2499999999999
 20
-22.93380276744105
 30
0.0
  0
VERTEX
  5
531
  8
0
  6
CONTINUOUS
 62
     1
 10
-296.9999999999999
 20
-22.93380276744105
 30
0.0
  0
SEQEND
  5
55D
  8
0
  6
CONTINUOUS
 62
     1
  0
POLYLINE
  5
4AD
  8
0
 62
     1
 66
     1
 10
0.0
 20
0.0
 30
0.0
 70
     1
  0
VERTEX
  5
532
  8
0
 62
     1
 10
-296.7499999999999
 20
-30.93380276744105
 30
0.0
 42
1.0
  0
VERTEX
  5
533
  8
0
 62
     1
 10
-296.7499999999999
 20
-26.73380276744112
 30
0.0
  0
VERTEX
  5
534
  8
0
 62
     1
 10
-296.9999999999999
 20
-26.73380276744112
 30
0.0
  0
VERTEX
  5
535
  8
0
 62
     1
 10
-297.2499999999999
 20
-26.73380276744111
 30
0.0
 42
0.9999999999999726
  0
VERTEX
  5
536
  8
0
 62
     1
 10
-297.2499999999999
 20
-30.93380276744104
 30
0.0
  0
VERTEX
  5
537
  8
0
 62
     1
 10
-296.9999999999999
 20
-30.93380276744105
 30
0.0
  0
SEQEND
  5
55E
  8
0
 62
     1
  0
POLYLINE
  5
4B1
  8
0
 62
     1
 66
     1
 10
0.0
 20
0.0
 30
0.0
 70
     1
  0
VERTEX
  5
538
  8
0
 62
     1
 10
-296.7499999999999
 20
1.900000000000091
 30
0.0
 42
1.0
  0
VERTEX
  5
539
  8
0
 62
     1
 10
-296.7499999999999
 20
6.100000000000023
 30
0.0
  0
VERTEX
  5
53A
  8
0
 62
     1
 10
-296.9999999999999
 20
6.100000000000023
 30
0.0
  0
VERTEX
  5
53B
  8
0
 62
     1
 10
-297.2499999999999
 20
6.100000000000037
 30
0.0
 42
0.9999999999999726
  0
VERTEX
  5
53C
  8
0
 62
     1
 10
-297.2499999999999
 20
1.900000000000105
 30
0.0
  0
VERTEX
  5
53D
  8
0
 62
     1
 10
-296.9999999999999
 20
1.900000000000091
 30
0.0
  0
SEQEND
  5
55F
  8
0
 62
     1
  0
POLYLINE
  5
4B2
  8
DIMENSION
 66
     1
 10
0.0
 20
0.0
 30
0.0
  0
VERTEX
  5
53E
  8
DIMENSION
 10
-297.2499999999999
 20
4.000000000000057
 30
0.0
  0
VERTEX
  5
53F
  8
DIMENSION
 10
-296.9999999999999
 20
4.000000000000057
 30
0.0
  0
VERTEX
  5
540
  8
DIMENSION
 10
-296.7499999999999
 20
4.000000000000057
 30
0.0
  0
SEQEND
  5
560
  8
DIMENSION
  0
POLYLINE
  5
4B3
  8
0
 62
     1
 66
     1
 10
0.0
 20
0.0
 30
0.0
 70
     1
  0
VERTEX
  5
541
  8
0
 62
     1
 10
-296.7499999999999
 20
-6.099999999999909
 30
0.0
 42
1.0
  0
VERTEX
  5
542
  8
0
 62
     1
 10
-296.7499999999999
 20
-1.899999999999977
 30
0.0
  0
VERTEX
  5
543
  8
0
 62
     1
 10
-296.9999999999999
 20
-1.899999999999977
 30
0.0
  0
VERTEX
  5
544
  8
0
 62
     1
 10
-297.2499999999999
 20
-1.899999999999963
 30
0.0
 42
0.9999999999999726
  0
VERTEX
  5
545
  8
0
 62
     1
 10
-297.2499999999999
 20
-6.099999999999895
 30
0.0
  0
VERTEX
  5
546
  8
0
 62
     1
 10
-296.9999999999999
 20
-6.099999999999909
 30
0.0
  0
SEQEND
  5
561
  8
0
 62
     1
  0
CIRCLE
  5
4E5
  8
0
  6
CONTINUOUS
 62
     1
 10
-369.0534329248985
 20
-58.95491924614026
 30
0.0
 40
2.099999999999993
  0
CIRCLE
  5
4E6
  8
0
  6
CONTINUOUS
 62
     1
 10
-369.0534329248985
 20
-50.95491924614026
 30
0.0
 40
2.099999999999993
  0
POLYLINE
  5
4E8
  8
0
  6
CONTINUOUS
 62
     1
 66
     1
 10
0.0
 20
0.0
 30
0.0
  0
VERTEX
  5
547
  8
0
  6
CONTINUOUS
 62
     1
 10
-296.8034329248985
 20
-53.05491924614024
 30
0.0
  0
VERTEX
  5
548
  8
0
  6
CONTINUOUS
 62
     1
 10
-296.3034329248985
 20
-53.05491924614024
 30
0.0
 42
0.9999999999999999
  0
VERTEX
  5
549
  8
0
  6
CONTINUOUS
 62
     1
 10
-296.3034329248985
 20
-48.85491924614031
 30
0.0
  0
VERTEX
  5
54A
  8
0
  6
CONTINUOUS
 62
     1
 10
-296.8034329248985
 20
-48.85491924614031
 30
0.0
  0
VERTEX
  5
54B
  8
0
  6
CONTINUOUS
 62
     1
 10
-296.5534329248985
 20
-48.85491924614031
 30
0.0
  0
SEQEND
  5
562
  8
0
  6
CONTINUOUS
 62
     1
  0
POLYLINE
  5
4E9
  8
0
  6
CONTINUOUS
 62
     1
 66
     1
 10
0.0
 20
0.0
 30
0.0
  0
VERTEX
  5
54C
  8
0
  6
CONTINUOUS
 62
     1
 10
-296.8034329248985
 20
-48.85491924614031
 30
0.0
 42
0.9999999999999999
  0
VERTEX
  5
54D
  8
0
  6
CONTINUOUS
 62
     1
 10
-296.8034329248985
 20
-53.05491924614024
 30
0.0
  0
VERTEX
  5
54E
  8
0
  6
CONTINUOUS
 62
     1
 10
-296.5534329248985
 20
-53.05491924614024
 30
0.0
  0
SEQEND
  5
563
  8
0
  6
CONTINUOUS
 62
     1
  0
POLYLINE
  5
4EA
  8
0
 62
     1
 66
     1
 10
0.0
 20
0.0
 30
0.0
 70
     1
  0
VERTEX
  5
54F
  8
0
 62
     1
 10
-296.3034329248985
 20
-61.05491924614024
 30
0.0
 42
1.0
  0
VERTEX
  5
550
  8
0
 62
     1
 10
-296.3034329248985
 20
-56.85491924614031
 30
0.0
  0
VERTEX
  5
551
  8
0
 62
     1
 10
-296.5534329248985
 20
-56.85491924614031
 30
0.0
  0
VERTEX
  5
552
  8
0
 62
     1
 10
-296.8034329248985
 20
-56.8549192461403
 30
0.0
 42
0.9999999999999726
  0
VERTEX
  5
553
  8
0
 62
     1
 10
-296.8034329248985
 20
-61.05491924614023
 30
0.0
  0
VERTEX
  5
554
  8
0
 62
     1
 10
-296.5534329248985
 20
-61.05491924614024
 30
0.0
  0
SEQEND
  5
564
  8
0
 62
     1
  0
POLYLINE
  5
4ED
  8
0
  6
CONTINUOUS
 62
     5
 66
     1
 10
0.0
 20
0.0
 30
0.0
  0
VERTEX
  5
555
  8
0
  6
CONTINUOUS
 62
     5
 10
-293.4999999999999
 20
-65.70491924614025
 30
0.0
  0
VERTEX
  5
556
  8
0
  6
CONTINUOUS
 62
     5
 10
-372.5534329248985
 20
-65.70491924614026
 30
0.0
  0
VERTEX
  5
557
  8
0
  6
CONTINUOUS
 62
     5
 10
-372.5534329248985
 20
-44.20491924614026
 30
0.0
  0
VERTEX
  5
558
  8
0
  6
CONTINUOUS
 62
     5
 10
-293.5
 20
-44.20491924614025
 30
0.0
  0
SEQEND
  5
565
  8
0
  6
CONTINUOUS
 62
     5
  0
LINE
  5
4F0
  8
0
 62
     5
 10
-293.5
 20
-44.20491924614025
 30
0.0
 11
-293.4999999999999
 21
-65.70491924614025
 31
0.0
  0
ENDSEC
  0
EOF
