  0
SECTION
  2
HEADER
  9
$ACADVER
  1
AC1009
  9
$DWGCODEPAGE
  3
ansi_1252
  9
$INSBASE
 10
0.0
 20
0.0
 30
0.0
  9
$EXTMIN
 10
60.75573234441592
 20
42.92797360061645
 30
0.0
  9
$EXTMAX
 10
139.7862036819955
 20
241.042706994611
 30
0.0
  9
$LIMMIN
 10
0.0
 20
0.0
  9
$LIMMAX
 10
12.0
 20
9.0
  9
$ORTHOMODE
 70
     0
  9
$REGENMODE
 70
     1
  9
$FILLMODE
 70
     1
  9
$QTEXTMODE
 70
     0
  9
$MIRRTEXT
 70
     0
  9
$DRAGMODE
 70
     2
  9
$LTSCALE
 40
1.0
  9
$OSMODE
 70
 15295
  9
$ATTMODE
 70
     1
  9
$TEXTSIZE
 40
0.2
  9
$TRACEWID
 40
0.05
  9
$TEXTSTYLE
  7
STANDARD
  9
$CLAYER
  8
0
  9
$CELTYPE
  6
BYLAYER
  9
$CECOLOR
 62
   256
  9
$DIMSCALE
 40
1.0
  9
$DIMASZ
 40
0.18
  9
$DIMEXO
 40
0.0625
  9
$DIMDLI
 40
0.38
  9
$DIMRND
 40
0.0
  9
$DIMDLE
 40
0.0
  9
$DIMEXE
 40
0.18
  9
$DIMTP
 40
0.0
  9
$DIMTM
 40
0.0
  9
$DIMTXT
 40
0.18
  9
$DIMCEN
 40
0.09
  9
$DIMTSZ
 40
0.0
  9
$DIMTOL
 70
     0
  9
$DIMLIM
 70
     0
  9
$DIMTIH
 70
     1
  9
$DIMTOH
 70
     1
  9
$DIMSE1
 70
     0
  9
$DIMSE2
 70
     0
  9
$DIMTAD
 70
     0
  9
$DIMZIN
 70
     0
  9
$DIMBLK
  1

  9
$DIMASO
 70
     1
  9
$DIMSHO
 70
     1
  9
$DIMPOST
  1

  9
$DIMAPOST
  1

  9
$DIMALT
 70
     0
  9
$DIMALTD
 70
     2
  9
$DIMALTF
 40
25.4
  9
$DIMLFAC
 40
1.0
  9
$DIMTOFL
 70
     0
  9
$DIMTVP
 40
0.0
  9
$DIMTIX
 70
     0
  9
$DIMSOXD
 70
     0
  9
$DIMSAH
 70
     0
  9
$DIMBLK1
  1

  9
$DIMBLK2
  1

  9
$DIMSTYLE
  2
STANDARD
  9
$DIMCLRD
 70
     0
  9
$DIMCLRE
 70
     0
  9
$DIMCLRT
 70
     0
  9
$DIMTFAC
 40
1.0
  9
$DIMGAP
 40
0.09
  9
$LUNITS
 70
     2
  9
$LUPREC
 70
     4
  9
$SKETCHINC
 40
0.1
  9
$FILLETRAD
 40
3.0
  9
$AUNITS
 70
     0
  9
$AUPREC
 70
     0
  9
$MENU
  1
.
  9
$ELEVATION
 40
0.0
  9
$PELEVATION
 40
0.0
  9
$THICKNESS
 40
0.0
  9
$LIMCHECK
 70
     0
  9
$CHAMFERA
 40
0.0
  9
$CHAMFERB
 40
0.0
  9
$SKPOLY
 70
     0
  9
$TDCREATE
 40
2452643.063384271
  9
$TDUPDATE
 40
2458919.840103901
  9
$TDINDWG
 40
0.0071574537
  9
$TDUSRTIMER
 40
2458919.828371308
  9
$USRTIMER
 70
     1
  9
$ANGBASE
 50
0.0
  9
$ANGDIR
 70
     0
  9
$PDMODE
 70
     0
  9
$PDSIZE
 40
0.0
  9
$PLINEWID
 40
0.0
  9
$COORDS
 70
     1
  9
$SPLFRAME
 70
     0
  9
$SPLINETYPE
 70
     6
  9
$SPLINESEGS
 70
     8
  9
$ATTDIA
 70
     0
  9
$ATTREQ
 70
     1
  9
$HANDLING
 70
     1
  9
$HANDSEED
  5
18B
  9
$SURFTAB1
 70
     6
  9
$SURFTAB2
 70
     6
  9
$SURFTYPE
 70
     6
  9
$SURFU
 70
     6
  9
$SURFV
 70
     6
  9
$UCSNAME
  2

  9
$UCSORG
 10
0.0
 20
0.0
 30
0.0
  9
$UCSXDIR
 10
1.0
 20
0.0
 30
0.0
  9
$UCSYDIR
 10
0.0
 20
1.0
 30
0.0
  9
$PUCSNAME
  2

  9
$PUCSORG
 10
0.0
 20
0.0
 30
0.0
  9
$PUCSXDIR
 10
1.0
 20
0.0
 30
0.0
  9
$PUCSYDIR
 10
0.0
 20
1.0
 30
0.0
  9
$USERI1
 70
     0
  9
$USERI2
 70
     0
  9
$USERI3
 70
     0
  9
$USERI4
 70
     0
  9
$USERI5
 70
     0
  9
$USERR1
 40
0.0
  9
$USERR2
 40
0.0
  9
$USERR3
 40
0.0
  9
$USERR4
 40
0.0
  9
$USERR5
 40
0.0
  9
$WORLDVIEW
 70
     1
  9
$SHADEDGE
 70
     3
  9
$SHADEDIF
 70
    70
  9
$TILEMODE
 70
     1
  9
$MAXACTVP
 70
    64
  9
$PLIMCHECK
 70
     0
  9
$PEXTMIN
 10
0.0
 20
0.0
 30
0.0
  9
$PEXTMAX
 10
0.0
 20
0.0
 30
0.0
  9
$PLIMMIN
 10
0.0
 20
0.0
  9
$PLIMMAX
 10
0.0
 20
0.0
  9
$UNITMODE
 70
     0
  9
$VISRETAIN
 70
     1
  9
$PLINEGEN
 70
     0
  9
$PSLTSCALE
 70
     1
  0
ENDSEC
  0
SECTION
  2
TABLES
  0
TABLE
  2
VPORT
 70
     1
  0
VPORT
  2
*ACTIVE
 70
     0
 10
0.0
 20
0.0
 11
1.0
 21
1.0
 12
-29.09827809041531
 22
154.813227479375
 13
0.0
 23
0.0
 14
0.5
 24
0.5
 15
0.5
 25
0.5
 16
0.0
 26
0.0
 36
1.0
 17
-27.66959356597977
 27
-19.53870295786209
 37
0.0
 40
610.9398701223001
 41
2.047133757961784
 42
50.0
 43
0.0
 44
0.0
 50
0.0
 51
0.0
 71
    16
 72
  1000
 73
     1
 74
     3
 75
     0
 76
     0
 77
     0
 78
     0
  0
ENDTAB
  0
TABLE
  2
LTYPE
 70
     1
  0
LTYPE
  2
CONTINUOUS
 70
     0
  3
Solid line
 72
    65
 73
     0
 40
0.0
  0
ENDTAB
  0
TABLE
  2
LAYER
 70
     2
  0
LAYER
  2
0
 70
     0
 62
     7
  6
CONTINUOUS
  0
LAYER
  2
DEFPOINTS
 70
     0
 62
     7
  6
CONTINUOUS
  0
ENDTAB
  0
TABLE
  2
STYLE
 70
     2
  0
STYLE
  2
STANDARD
 70
     0
 40
0.0
 41
1.0
 50
0.0
 71
     0
 42
0.2
  3
arial.ttf
  4

  0
STYLE
  2
ANNOTATIVE
 70
     0
 40
0.0
 41
1.0
 50
0.0
 71
     0
 42
0.2
  3
arial.ttf
  4

  0
ENDTAB
  0
TABLE
  2
VIEW
 70
     0
  0
ENDTAB
  0
TABLE
  2
UCS
 70
     0
  0
ENDTAB
  0
TABLE
  2
APPID
 70
     2
  0
APPID
  2
ACAD
 70
     0
  0
APPID
  2
ACADANNOTATIVE
 70
     0
  0
ENDTAB
  0
TABLE
  2
DIMSTYLE
 70
     2
  0
DIMSTYLE
  2
STANDARD
 70
     0
  3

  4

  5

  6

  7

 40
1.0
 41
0.18
 42
0.0625
 43
0.38
 44
0.18
 45
0.0
 46
0.0
 47
0.0
 48
0.0
140
0.18
141
0.09
142
0.0
143
25.4
144
1.0
145
0.0
146
1.0
147
0.09
 71
     0
 72
     0
 73
     1
 74
     1
 75
     0
 76
     0
 77
     0
 78
     0
170
     0
171
     2
172
     0
173
     0
174
     0
175
     0
176
     0
177
     0
178
     0
  0
DIMSTYLE
  2
ANNOTATIVE
 70
     0
  3

  4

  5

  6

  7

 40
0.0
 41
0.18
 42
0.0625
 43
0.38
 44
0.18
 45
0.0
 46
0.0
 47
0.0
 48
0.0
140
0.18
141
0.09
142
0.0
143
25.4
144
1.0
145
0.0
146
1.0
147
0.09
 71
     0
 72
     0
 73
     1
 74
     1
 75
     0
 76
     0
 77
     0
 78
     0
170
     0
171
     2
172
     0
173
     0
174
     0
175
     0
176
     0
177
     0
178
     0
  0
ENDTAB
  0
ENDSEC
  0
SECTION
  2
BLOCKS
  0
BLOCK
  8
0
  2
$MODEL_SPACE
 70
     0
 10
0.0
 20
0.0
 30
0.0
  3
$MODEL_SPACE
  1

  0
ENDBLK
  5
21
  8
0
  0
BLOCK
 67
     1
  8
0
  2
$PAPER_SPACE
 70
     0
 10
0.0
 20
0.0
 30
0.0
  3
$PAPER_SPACE
  1

  0
ENDBLK
  5
5B
 67
     1
  8
0
  0
BLOCK
  8
0
  2
*D1
 70
     1
 10
0.0
 20
0.0
 30
0.0
  3
*D1
  1

  0
LINE
  5
141
  8
0
 62
     0
 10
70.2709680132057
 20
72.99047360061644
 30
0.0
 11
70.2709680132057
 21
88.24720391265043
 31
0.0
  0
LINE
  5
142
  8
0
 62
     0
 10
130.2709680132057
 20
72.99047360061644
 30
0.0
 11
130.2709680132057
 21
88.24720391265043
 31
0.0
  0
LINE
  5
143
  8
0
 62
     0
 10
70.45096801320571
 20
88.06720391265043
 30
0.0
 11
99.7377180132057
 21
88.06720391265043
 31
0.0
  0
LINE
  5
144
  8
0
 62
     0
 10
130.0909680132057
 20
88.06720391265043
 30
0.0
 11
100.8042180132057
 21
88.06720391265043
 31
0.0
  0
SOLID
  5
145
  8
0
 62
     0
 10
70.45096801320571
 20
88.09720391265043
 30
0.0
 11
70.45096801320571
 21
88.03720391265043
 31
0.0
 12
70.2709680132057
 22
88.06720391265043
 32
0.0
 13
70.2709680132057
 23
88.06720391265043
 33
0.0
  0
SOLID
  5
146
  8
0
 62
     0
 10
130.0909680132057
 20
88.03720391265043
 30
0.0
 11
130.0909680132057
 21
88.09720391265043
 31
0.0
 12
130.2709680132057
 22
88.06720391265043
 32
0.0
 13
130.2709680132057
 23
88.06720391265043
 33
0.0
  0
TEXT
  5
147
  8
0
  6
CONTINUOUS
 62
     0
 10
99.8183580132057
 20
87.97873391265044
 30
0.0
 40
0.18
  1
60.0000
  0
POINT
  5
148
  8
DEFPOINTS
 62
     0
 10
70.2709680132057
 20
72.92797360061644
 30
0.0
  0
POINT
  5
149
  8
DEFPOINTS
 62
     0
 10
130.2709680132057
 20
72.92797360061644
 30
0.0
  0
POINT
  5
14A
  8
DEFPOINTS
 62
     0
 10
130.2709680132057
 20
88.06720391265043
 30
0.0
  0
ENDBLK
  5
140
  8
0
  0
BLOCK
  8
0
  2
*D2
 70
     1
 10
0.0
 20
0.0
 30
0.0
  3
*D2
  1

  0
LINE
  5
157
  8
0
 62
     0
 10
7.408504908514601
 20
143.2100314708042
 30
0.0
 11
18.6832456449137
 21
143.2100314708042
 31
0.0
  0
LINE
  5
158
  8
0
 62
     0
 10
7.408504908514599
 20
129.2100314708042
 30
0.0
 11
18.6832456449137
 21
129.2100314708042
 31
0.0
  0
LINE
  5
159
  8
0
 62
     0
 10
18.5032456449137
 20
143.0300314708042
 30
0.0
 11
18.5032456449137
 21
136.3919214708042
 31
0.0
  0
LINE
  5
15A
  8
0
 62
     0
 10
18.5032456449137
 20
129.3900314708042
 30
0.0
 11
18.5032456449137
 21
136.0281414708042
 31
0.0
  0
SOLID
  5
15B
  8
0
 62
     0
 10
18.53324564491371
 20
143.0300314708042
 30
0.0
 11
18.4732456449137
 21
143.0300314708042
 31
0.0
 12
18.5032456449137
 22
143.2100314708042
 32
0.0
 13
18.5032456449137
 23
143.2100314708042
 33
0.0
  0
SOLID
  5
15C
  8
0
 62
     0
 10
18.4732456449137
 20
129.3900314708042
 30
0.0
 11
18.53324564491371
 21
129.3900314708042
 31
0.0
 12
18.5032456449137
 22
129.2100314708042
 32
0.0
 13
18.5032456449137
 23
129.2100314708042
 33
0.0
  0
TEXT
  5
15D
  8
0
  6
CONTINUOUS
 62
     0
 10
18.0416356449137
 20
136.1215614708042
 30
0.0
 40
0.18
  1
14.0000
  0
POINT
  5
15E
  8
DEFPOINTS
 62
     0
 10
7.346004908514601
 20
143.2100314708042
 30
0.0
  0
POINT
  5
15F
  8
DEFPOINTS
 62
     0
 10
7.346004908514599
 20
129.2100314708042
 30
0.0
  0
POINT
  5
160
  8
DEFPOINTS
 62
     0
 10
18.5032456449137
 20
129.2100314708042
 30
0.0
  0
ENDBLK
  5
156
  8
0
  0
ENDSEC
  0
SECTION
  2
ENTITIES
  0
POLYLINE
  5
129
  8
0
 66
     1
 10
0.0
 20
0.0
 30
0.0
 70
     1
  0
VERTEX
  5
16E
  8
0
 10
60.7557323444159
 20
45.92797360061645
 30
0.0
  0
VERTEX
  5
16F
  8
0
 10
60.7557323444159
 20
238.042706994611
 30
0.0
 42
-0.414213562373095
  0
VERTEX
  5
170
  8
0
 10
63.7557323444159
 20
241.042706994611
 30
0.0
  0
VERTEX
  5
171
  8
0
 10
136.7862036819955
 20
241.042706994611
 30
0.0
 42
-0.4142135623730953
  0
VERTEX
  5
172
  8
0
 10
139.7862036819955
 20
238.042706994611
 30
0.0
  0
VERTEX
  5
173
  8
0
 10
139.7862036819955
 20
45.92797360061647
 30
0.0
 42
-0.414213562373095
  0
VERTEX
  5
174
  8
0
 10
136.7862036819955
 20
42.92797360061647
 30
0.0
  0
VERTEX
  5
175
  8
0
 10
63.7557323444159
 20
42.92797360061645
 30
0.0
 42
-0.414213562373095
  0
SEQEND
  5
186
  8
0
  0
CIRCLE
  5
136
  8
0
 10
70.2709680132057
 20
102.9279736006165
 30
0.0
 40
3.4
  0
CIRCLE
  5
137
  8
0
 10
70.2709680132057
 20
72.92797360061644
 30
0.0
 40
3.4
  0
CIRCLE
  5
138
  8
0
 10
130.2709680132057
 20
102.9279736006165
 30
0.0
 40
3.4
  0
CIRCLE
  5
139
  8
0
 10
130.2709680132057
 20
72.92797360061644
 30
0.0
 40
3.4
  0
POLYLINE
  5
16A
  8
0
 66
     1
 10
0.0
 20
0.0
 30
0.0
 70
     1
  0
VERTEX
  5
176
  8
0
 10
76.7709680132057
 20
136.4279736006164
 30
0.0
 42
0.9999999999999921
  0
VERTEX
  5
177
  8
0
 10
83.7709680132057
 20
136.4279736006164
 30
0.0
  0
VERTEX
  5
178
  8
0
 10
83.7709680132057
 20
139.4279736006164
 30
0.0
 42
1.0
  0
VERTEX
  5
179
  8
0
 10
76.7709680132057
 20
139.4279736006164
 30
0.0
  0
SEQEND
  5
187
  8
0
  0
POLYLINE
  5
16B
  8
0
 66
     1
 10
0.0
 20
0.0
 30
0.0
 70
     1
  0
VERTEX
  5
17A
  8
0
 10
116.7709680132057
 20
136.7100314708042
 30
0.0
 42
0.9999999999999921
  0
VERTEX
  5
17B
  8
0
 10
123.7709680132057
 20
136.7100314708042
 30
0.0
  0
VERTEX
  5
17C
  8
0
 10
123.7709680132057
 20
139.7100314708042
 30
0.0
 42
1.0
  0
VERTEX
  5
17D
  8
0
 10
116.7709680132057
 20
139.7100314708042
 30
0.0
  0
SEQEND
  5
188
  8
0
  0
POLYLINE
  5
16C
  8
0
 66
     1
 10
0.0
 20
0.0
 30
0.0
 70
     1
  0
VERTEX
  5
17E
  8
0
 10
76.7709680132057
 20
229.4279736006164
 30
0.0
 42
0.9999999999999921
  0
VERTEX
  5
17F
  8
0
 10
83.7709680132057
 20
229.4279736006164
 30
0.0
  0
VERTEX
  5
180
  8
0
 10
83.7709680132057
 20
232.4279736006164
 30
0.0
 42
1.0
  0
VERTEX
  5
181
  8
0
 10
76.7709680132057
 20
232.4279736006164
 30
0.0
  0
SEQEND
  5
189
  8
0
  0
POLYLINE
  5
16D
  8
0
 66
     1
 10
0.0
 20
0.0
 30
0.0
 70
     1
  0
VERTEX
  5
182
  8
0
 10
116.7709680132057
 20
229.4279736006164
 30
0.0
 42
0.9999999999999921
  0
VERTEX
  5
183
  8
0
 10
123.7709680132057
 20
229.4279736006164
 30
0.0
  0
VERTEX
  5
184
  8
0
 10
123.7709680132057
 20
232.4279736006164
 30
0.0
 42
1.0
  0
VERTEX
  5
185
  8
0
 10
116.7709680132057
 20
232.4279736006164
 30
0.0
  0
SEQEND
  5
18A
  8
0
  0
ENDSEC
  0
EOF
