  0
SECTION
  2
HEADER
  9
$ACADVER
  1
AC1009
  9
$DWGCODEPAGE
  3
ansi_1252
  9
$INSBASE
 10
0.0
 20
0.0
 30
0.0
  9
$EXTMIN
 10
-60.00000000000057
 20
-513.0000000000006
 30
0.0
  9
$EXTMAX
 10
114.1497373771429
 20
-352.9999999999995
 30
0.0
  9
$LIMMIN
 10
0.0
 20
0.0
  9
$LIMMAX
 10
420.0
 20
297.0
  9
$ORTHOMODE
 70
     1
  9
$REGENMODE
 70
     1
  9
$FILLMODE
 70
     1
  9
$QTEXTMODE
 70
     0
  9
$MIRRTEXT
 70
     1
  9
$DRAGMODE
 70
     2
  9
$LTSCALE
 40
1.0
  9
$OSMODE
 70
 15295
  9
$ATTMODE
 70
     1
  9
$TEXTSIZE
 40
3.5
  9
$TRACEWID
 40
1.0
  9
$TEXTSTYLE
  7
STANDARD
  9
$CLAYER
  8
0
  9
$CELTYPE
  6
BYLAYER
  9
$CECOLOR
 62
   256
  9
$DIMSCALE
 40
1.0
  9
$DIMASZ
 40
3.302
  9
$DIMEXO
 40
1.0
  9
$DIMDLI
 40
3.75
  9
$DIMRND
 40
0.0
  9
$DIMDLE
 40
0.0
  9
$DIMEXE
 40
1.0
  9
$DIMTP
 40
0.0
  9
$DIMTM
 40
0.0
  9
$DIMTXT
 40
3.5
  9
$DIMCEN
 40
2.5
  9
$DIMTSZ
 40
0.0
  9
$DIMTOL
 70
     0
  9
$DIMLIM
 70
     0
  9
$DIMTIH
 70
     1
  9
$DIMTOH
 70
     1
  9
$DIMSE1
 70
     0
  9
$DIMSE2
 70
     0
  9
$DIMTAD
 70
     1
  9
$DIMZIN
 70
     0
  9
$DIMBLK
  1

  9
$DIMASO
 70
     1
  9
$DIMSHO
 70
     1
  9
$DIMPOST
  1

  9
$DIMAPOST
  1

  9
$DIMALT
 70
     0
  9
$DIMALTD
 70
     3
  9
$DIMALTF
 40
0.0393700787
  9
$DIMLFAC
 40
1.0
  9
$DIMTOFL
 70
     1
  9
$DIMTVP
 40
0.0
  9
$DIMTIX
 70
     0
  9
$DIMSOXD
 70
     0
  9
$DIMSAH
 70
     0
  9
$DIMBLK1
  1

  9
$DIMBLK2
  1

  9
$DIMSTYLE
  2
ISO-25
  9
$DIMCLRD
 70
     0
  9
$DIMCLRE
 70
     0
  9
$DIMCLRT
 70
     0
  9
$DIMTFAC
 40
1.0
  9
$DIMGAP
 40
1.524
  9
$LUNITS
 70
     2
  9
$LUPREC
 70
     2
  9
$SKETCHINC
 40
1.0
  9
$FILLETRAD
 40
1.0
  9
$AUNITS
 70
     0
  9
$AUPREC
 70
     2
  9
$MENU
  1
.
  9
$ELEVATION
 40
0.0
  9
$PELEVATION
 40
0.0
  9
$THICKNESS
 40
0.0
  9
$LIMCHECK
 70
     0
  9
$CHAMFERA
 40
0.0
  9
$CHAMFERB
 40
0.0
  9
$SKPOLY
 70
     0
  9
$TDCREATE
 40
2458833.460437512
  9
$TDUPDATE
 40
2458833.547945903
  9
$TDINDWG
 40
0.0171377199
  9
$TDUSRTIMER
 40
2458833.547756146
  9
$USRTIMER
 70
     1
  9
$ANGBASE
 50
0.0
  9
$ANGDIR
 70
     0
  9
$PDMODE
 70
     0
  9
$PDSIZE
 40
-1.0
  9
$PLINEWID
 40
0.0
  9
$COORDS
 70
     1
  9
$SPLFRAME
 70
     0
  9
$SPLINETYPE
 70
     6
  9
$SPLINESEGS
 70
     8
  9
$ATTDIA
 70
     0
  9
$ATTREQ
 70
     1
  9
$HANDLING
 70
     1
  9
$HANDSEED
  5
326
  9
$SURFTAB1
 70
     6
  9
$SURFTAB2
 70
     6
  9
$SURFTYPE
 70
     6
  9
$SURFU
 70
     6
  9
$SURFV
 70
     6
  9
$UCSNAME
  2

  9
$UCSORG
 10
0.0
 20
0.0
 30
0.0
  9
$UCSXDIR
 10
1.0
 20
0.0
 30
0.0
  9
$UCSYDIR
 10
0.0
 20
1.0
 30
0.0
  9
$PUCSNAME
  2

  9
$PUCSORG
 10
0.0
 20
0.0
 30
0.0
  9
$PUCSXDIR
 10
1.0
 20
0.0
 30
0.0
  9
$PUCSYDIR
 10
0.0
 20
1.0
 30
0.0
  9
$USERI1
 70
     0
  9
$USERI2
 70
     0
  9
$USERI3
 70
     0
  9
$USERI4
 70
     0
  9
$USERI5
 70
     0
  9
$USERR1
 40
0.0
  9
$USERR2
 40
0.0
  9
$USERR3
 40
0.0
  9
$USERR4
 40
0.0
  9
$USERR5
 40
0.0
  9
$WORLDVIEW
 70
     1
  9
$SHADEDGE
 70
     3
  9
$SHADEDIF
 70
    70
  9
$TILEMODE
 70
     1
  9
$MAXACTVP
 70
    64
  9
$PLIMCHECK
 70
     0
  9
$PEXTMIN
 10
1.000000000000000E+20
 20
1.000000000000000E+20
 30
1.000000000000000E+20
  9
$PEXTMAX
 10
-1.000000000000000E+20
 20
-1.000000000000000E+20
 30
-1.000000000000000E+20
  9
$PLIMMIN
 10
0.0
 20
0.0
  9
$PLIMMAX
 10
0.0
 20
0.0
  9
$UNITMODE
 70
     0
  9
$VISRETAIN
 70
     1
  9
$PLINEGEN
 70
     0
  9
$PSLTSCALE
 70
     1
  0
ENDSEC
  0
SECTION
  2
TABLES
  0
TABLE
  2
VPORT
 70
     1
  0
VPORT
  2
*ACTIVE
 70
     0
 10
0.0
 20
0.0
 11
1.0
 21
1.0
 12
-116.0537325816917
 22
-399.0661633103642
 13
0.0
 23
0.0
 14
10.0
 24
10.0
 15
10.0
 25
10.0
 16
0.0
 26
0.0
 36
1.0
 17
0.0
 27
0.0
 37
0.0
 40
318.7499999999995
 41
2.295798319327731
 42
50.0
 43
0.0
 44
0.0
 50
0.0
 51
0.0
 71
    16
 72
   100
 73
     1
 74
     3
 75
     0
 76
     0
 77
     0
 78
     0
  0
ENDTAB
  0
TABLE
  2
LTYPE
 70
     6
  0
LTYPE
  2
CONTINUOUS
 70
     0
  3
Solid line
 72
    65
 73
     0
 40
0.0
  0
LTYPE
  2
HIDDEN
 70
     0
  3
Hidden __ __ __ __ __ __ __ __ __ __ __ __ __ __
 72
    65
 73
     2
 40
1.905
 49
1.27
 49
-0.635
  0
LTYPE
  2
PHANTOM
 70
     0
  3
Phantom ______  __  __  ______  __  __  ______
 72
    65
 73
     6
 40
12.7
 49
6.35
 49
-1.27
 49
1.27
 49
-1.27
 49
1.27
 49
-1.27
  0
LTYPE
  2
CENTER
 70
     0
  3
Center ____ _ ____ _ ____ _ ____ _ ____ _ ____
 72
    65
 73
     4
 40
10.16
 49
6.35
 49
-1.27
 49
1.27
 49
-1.27
  0
LTYPE
  2
CENTERX2
 70
     0
  3
Center (2x) ________  __  ________  __  _____
 72
    65
 73
     4
 40
20.32
 49
12.7
 49
-2.54
 49
2.54
 49
-2.54
  0
LTYPE
  2
DOT2
 70
     0
  3
Dot (.5x) ........................................
 72
    65
 73
     2
 40
0.635
 49
0.0
 49
-0.635
  0
ENDTAB
  0
TABLE
  2
LAYER
 70
     3
  0
LAYER
  2
0
 70
     0
 62
     7
  6
CONTINUOUS
  0
LAYER
  2
DIMENSIONS
 70
     0
 62
     2
  6
CENTER
  0
LAYER
  2
DEFPOINTS
 70
     0
 62
     7
  6
CONTINUOUS
  0
ENDTAB
  0
TABLE
  2
STYLE
 70
     1
  0
STYLE
  2
STANDARD
 70
     0
 40
0.0
 41
1.0
 50
0.0
 71
     0
 42
3.5
  3
txt
  4

  0
ENDTAB
  0
TABLE
  2
VIEW
 70
     0
  0
ENDTAB
  0
TABLE
  2
UCS
 70
     0
  0
ENDTAB
  0
TABLE
  2
APPID
 70
     2
  0
APPID
  2
ACAD
 70
     0
  0
APPID
  2
ACAECLAYERSTANDARD
 70
     0
  0
ENDTAB
  0
TABLE
  2
DIMSTYLE
 70
     1
  0
DIMSTYLE
  2
ISO-25
 70
     0
  3

  4

  5

  6

  7

 40
1.0
 41
2.5
 42
0.625
 43
3.75
 44
1.25
 45
0.0
 46
0.0
 47
0.0
 48
0.0
140
2.5
141
2.5
142
0.0
143
0.0393700787
144
1.0
145
0.0
146
1.0
147
0.625
 71
     0
 72
     0
 73
     0
 74
     0
 75
     0
 76
     0
 77
     1
 78
     8
170
     0
171
     3
172
     1
173
     0
174
     0
175
     0
176
     0
177
     0
178
     0
  0
ENDTAB
  0
ENDSEC
  0
SECTION
  2
BLOCKS
  0
BLOCK
  8
0
  2
$MODEL_SPACE
 70
     0
 10
0.0
 20
0.0
 30
0.0
  3
$MODEL_SPACE
  1

  0
ENDBLK
  5
21
  8
0
  0
BLOCK
 67
     1
  8
0
  2
$PAPER_SPACE
 70
     0
 10
0.0
 20
0.0
 30
0.0
  3
$PAPER_SPACE
  1

  0
ENDBLK
  5
1D
 67
     1
  8
0
  0
ENDSEC
  0
SECTION
  2
ENTITIES
  0
CIRCLE
  5
76
  8
0
  6
CONTINUOUS
 62
     7
 10
-42.5982051305
 20
-484.0
 30
0.0
 40
4.100000000000023
  0
CIRCLE
  5
7D
  8
0
  6
CONTINUOUS
 62
     7
 10
44.5933438695
 20
-382.0
 30
0.0
 40
4.099999999999966
  0
LINE
  5
87
  8
0
  6
CONTINUOUS
 62
     7
 10
-58.0
 20
-353.0
 30
0.0
 11
58.0
 21
-353.0
 31
0.0
  0
LINE
  5
88
  8
0
  6
CONTINUOUS
 62
     7
 10
-60.0
 20
-511.0
 30
0.0
 11
-60.0
 21
-355.0
 31
0.0
  0
LINE
  5
89
  8
0
  6
CONTINUOUS
 62
     7
 10
60.0
 20
-355.0
 30
0.0
 11
60.0
 21
-511.0
 31
0.0
  0
LINE
  5
8A
  8
0
  6
CONTINUOUS
 62
     7
 10
58.0
 20
-513.0
 30
0.0
 11
-58.0
 21
-513.0
 31
0.0
  0
LINE
  5
8B
  8
DIMENSIONS
  6
CONTINUOUS
 10
18.5
 20
-383.0
 30
0.0
 11
12.5
 21
-383.0
 31
0.0
  0
LINE
  5
8C
  8
DIMENSIONS
  6
CONTINUOUS
 10
18.5
 20
-420.5
 30
0.0
 11
18.5
 21
-383.0
 31
0.0
  0
LINE
  5
8D
  8
DIMENSIONS
  6
CONTINUOUS
 62
     7
 10
18.5
 20
-420.5
 30
0.0
 11
12.5
 21
-420.5
 31
0.0
  0
LINE
  5
8E
  8
DIMENSIONS
  6
CONTINUOUS
 10
12.5
 20
-420.5
 30
0.0
 11
12.5
 21
-383.0
 31
0.0
  0
LINE
  5
8F
  8
DIMENSIONS
  6
CONTINUOUS
 10
3.0
 20
-483.0
 30
0.0
 11
3.0
 21
-445.5
 31
0.0
  0
LINE
  5
90
  8
DIMENSIONS
  6
CONTINUOUS
 10
3.0
 20
-483.0
 30
0.0
 11
-3.0
 21
-483.0
 31
0.0
  0
LINE
  5
91
  8
DIMENSIONS
  6
CONTINUOUS
 10
3.0
 20
-445.5
 30
0.0
 11
-3.0
 21
-445.5
 31
0.0
  0
LINE
  5
92
  8
DIMENSIONS
  6
CONTINUOUS
 10
-3.0
 20
-483.0
 30
0.0
 11
-3.0
 21
-445.5
 31
0.0
  0
ARC
  5
93
  8
0
  6
CONTINUOUS
 62
     7
 10
58.0
 20
-355.0
 30
0.0
 40
2.000000000000448
 50
0.0
 51
90.0
  0
ARC
  5
94
  8
0
  6
CONTINUOUS
 62
     7
 10
-58.0
 20
-355.0
 30
0.0
 40
1.999999999999773
 50
90.0
 51
180.0
  0
ARC
  5
95
  8
0
  6
CONTINUOUS
 62
     7
 10
-58.0
 20
-511.0
 30
0.0
 40
2.000000000000568
 50
180.0
 51
270.0
  0
ARC
  5
96
  8
0
  6
CONTINUOUS
 62
     7
 10
58.0
 20
-511.0
 30
0.0
 40
1.999999999999837
 50
270.0
 51
0.0
  0
LINE
  5
112
  8
0
 10
-1.25
 20
-433.0
 30
0.0
 11
1.25
 21
-433.0
 31
0.0
  0
LINE
  5
113
  8
0
 10
0.0
 20
-434.25
 30
0.0
 11
0.0
 21
-431.75
 31
0.0
  0
LINE
  5
121
  8
DIMENSIONS
 10
-60.0
 20
-420.5
 30
0.0
 11
60.0
 21
-420.5
 31
0.0
  0
LINE
  5
123
  8
DIMENSIONS
 10
-3.0
 20
-445.5
 30
0.0
 11
60.0
 21
-445.5
 31
0.0
  0
LINE
  5
124
  8
DIMENSIONS
 10
60.0
 20
-445.5
 30
0.0
 11
3.0
 21
-445.5
 31
0.0
  0
LINE
  5
125
  8
DIMENSIONS
 10
3.0
 20
-445.5
 30
0.0
 11
-60.0
 21
-445.5
 31
0.0
  0
LINE
  5
150
  8
0
  6
CONTINUOUS
 62
     7
 10
77.64973737714288
 20
-371.249999546662
 30
0.0
 11
113.1497373771429
 21
-371.249999546662
 31
0.0
  0
LINE
  5
151
  8
0
  6
CONTINUOUS
 62
     7
 10
76.64973737714288
 20
-407.749999546662
 30
0.0
 11
76.64973737714288
 21
-372.249999546662
 31
0.0
  0
LINE
  5
152
  8
0
  6
CONTINUOUS
 62
     7
 10
114.1497373771429
 20
-372.249999546662
 30
0.0
 11
114.1497373771429
 21
-407.749999546662
 31
0.0
  0
LINE
  5
183
  8
0
 10
107.6874896913955
 20
-434.0628430352313
 30
0.0
 11
73.31322583456739
 21
-463.8941889842462
 31
0.0
  0
ARC
  5
184
  8
0
 10
77.35707930757906
 20
-466.6982041070281
 30
0.0
 40
4.920899482815908
 50
145.2624927198178
 51
180.0000001231084
  0
LINE
  5
185
  8
0
 10
72.43617982476314
 20
-466.6982041176014
 30
0.0
 11
72.43617982481408
 21
-470.0799338344436
 31
0.0
  0
ARC
  5
186
  8
0
 10
73.42035972142693
 20
-470.0799338344822
 30
0.0
 40
0.984179896612853
 50
179.999999997753
 51
269.9999999995946
  0
LINE
  5
187
  8
0
 10
73.42035972141997
 20
-471.064113731095
 30
0.0
 11
83.51314916590928
 21
-471.0641137311265
 31
0.0
  0
ARC
  5
188
  8
0
 10
83.75672138812456
 20
-471.307685953239
 30
0.0
 40
0.3444631400015275
 50
314.9999999879123
 51
135.0000000120877
  0
LINE
  5
189
  8
0
 10
84.00029361023707
 20
-471.5512581754543
 30
0.0
 11
84.0002936102162
 21
-476.6247301471436
 31
0.0
  0
ARC
  5
18A
  8
0
 10
84.3447565739751
 20
-476.6247301471884
 30
0.0
 40
0.3444629637588869
 50
179.99999999254
 51
270.0000000074552
  0
LINE
  5
18B
  8
0
 10
84.34475657401993
 20
-476.9691931109473
 30
0.0
 11
97.43434919931997
 21
-476.9691931109473
 31
0.0
  0
ARC
  5
18C
  8
0
 10
97.4343491993649
 20
-476.6247301471885
 30
0.0
 40
0.3444629637587948
 50
269.9999999925259
 51
0.0000000074694286
  0
LINE
  5
18D
  8
0
 10
97.77881216312369
 20
-476.6247301471436
 30
0.0
 11
97.77881216312784
 21
-471.5512581754043
 31
0.0
  0
ARC
  5
18E
  8
0
 10
98.02238438530281
 20
-471.3076859532515
 30
0.0
 40
0.3444631400014873
 50
44.99999999086069
 51
224.9999999973859
  0
LINE
  5
18F
  8
0
 10
98.26595660750553
 20
-471.0641137311265
 30
0.0
 11
108.35874605192
 21
-471.064113731095
 31
0.0
  0
ARC
  5
190
  8
0
 10
108.3587460518808
 20
-470.0799338344045
 30
0.0
 40
0.9841798966905286
 50
270.00000000228
 51
359.9999999977232
  0
LINE
  5
191
  8
0
 10
109.3429259485713
 20
-470.0799338344436
 30
0.0
 11
109.3429259485713
 21
-434.8180935319403
 31
0.0
  0
ARC
  5
196
  8
0
 10
108.3429259485713
 20
-434.8180935319403
 30
0.0
 40
0.9999999999999996
 50
0.0
 51
130.952737565579
  0
ARC
  5
197
  8
0
  6
CONTINUOUS
 62
     7
 10
77.64973737714288
 20
-372.249999546662
 30
0.0
 40
1.0
 50
90.0
 51
180.0
  0
ARC
  5
198
  8
0
 10
77.64973737714288
 20
-407.749999546662
 30
0.0
 40
1.0
 50
180.0
 51
270.0
  0
ARC
  5
199
  8
0
 10
113.1497373771429
 20
-407.749999546662
 30
0.0
 40
1.0
 50
270.0
 51
0.0
  0
ARC
  5
19A
  8
0
  6
CONTINUOUS
 62
     7
 10
113.1497373771429
 20
-372.249999546662
 30
0.0
 40
1.0
 50
0.0
 51
90.0
  0
POLYLINE
  5
273
  8
0
 66
     1
 10
0.0
 20
0.0
 30
0.0
 70
     1
  0
VERTEX
  5
310
  8
0
 10
-2.505025172200241
 20
-471.0641137084222
 30
0.0
  0
VERTEX
  5
311
  8
0
 10
0.0724870944173617
 20
-471.0641137537994
 30
0.0
  0
VERTEX
  5
312
  8
0
 10
2.505024689877316
 20
-471.0641138004763
 30
0.0
 42
0.9999996163899769
  0
VERTEX
  5
313
  8
0
 10
3.000000000000007
 20
-470.5691397403542
 30
0.0
  0
VERTEX
  5
314
  8
0
 10
3.0
 20
-457.5590886738908
 30
0.0
 42
0.9999981011617647
  0
VERTEX
  5
315
  8
0
 10
2.505025189877858
 20
-457.0641138637687
 30
0.0
  0
VERTEX
  5
316
  8
0
 10
0.0724873444157055
 20
-457.0641137854456
 30
0.0
  0
VERTEX
  5
317
  8
0
 10
-2.50502517220017
 20
-457.0641137717146
 30
0.0
 42
0.9999981011618682
  0
VERTEX
  5
318
  8
0
 10
-3.0
 20
-457.559088564159
 30
0.0
  0
VERTEX
  5
319
  8
0
 10
-3.000000464645268
 20
-470.5691396306223
 30
0.0
 42
0.9999996163899887
  0
SEQEND
  5
324
  8
0
  0
LINE
  5
2E5
  8
0
 10
77.64973737714288
 20
-408.749999546662
 30
0.0
 11
88.02333365638222
 21
-408.7499995466918
 31
0.0
  0
ARC
  5
2E6
  8
0
 10
88.2669058785975
 20
-408.9935717688044
 30
0.0
 40
0.3444631400015275
 50
314.999999987924
 51
135.0000000120743
  0
LINE
  5
2E7
  8
0
 10
88.51047810071
 20
-409.2371439910196
 30
0.0
 11
88.51047810068914
 21
-414.3106159627089
 31
0.0
  0
ARC
  5
2E8
  8
0
 10
88.85494106444804
 20
-414.3106159627538
 30
0.0
 40
0.3444629637588869
 50
179.9999999925306
 51
270.0000000074552
  0
LINE
  5
2E9
  8
0
 10
88.85494106449286
 20
-414.6550789265126
 30
0.0
 11
101.9445336897929
 21
-414.6550789265126
 31
0.0
  0
ARC
  5
2EA
  8
0
 10
101.9445336898378
 20
-414.3106159627538
 30
0.0
 40
0.3444629637587948
 50
269.9999999925259
 51
0.0000000074694286
  0
LINE
  5
2EB
  8
0
 10
102.2889966535966
 20
-414.3106159627089
 30
0.0
 11
102.2889966536008
 21
-409.2371439909696
 31
0.0
  0
ARC
  5
2EC
  8
0
 10
102.5325688757758
 20
-408.9935717688169
 30
0.0
 40
0.3444631400014873
 50
44.99999999087239
 51
224.9999999973726
  0
LINE
  5
2F3
  8
0
 10
102.7761410979784
 20
-408.7499995466918
 30
0.0
 11
113.1497373771429
 21
-408.749999546662
 31
0.0
  0
POLYLINE
  5
2F5
  8
0
 66
     1
 10
0.0
 20
0.0
 30
0.0
 70
     1
  0
VERTEX
  5
31A
  8
0
 10
12.99497482779975
 20
-408.7499995012997
 30
0.0
  0
VERTEX
  5
31B
  8
0
 10
15.57248709441736
 20
-408.7499995466769
 30
0.0
  0
VERTEX
  5
31C
  8
0
 10
18.00502468987731
 20
-408.7499995933538
 30
0.0
 42
0.9999996163899769
  0
VERTEX
  5
31D
  8
0
 10
18.5
 20
-408.2550255332317
 30
0.0
  0
VERTEX
  5
31E
  8
0
 10
18.5
 20
-395.2449744667683
 30
0.0
 42
0.9999981011617647
  0
VERTEX
  5
31F
  8
0
 10
18.00502518987786
 20
-394.7499996566462
 30
0.0
  0
VERTEX
  5
320
  8
0
 10
15.5724873444157
 20
-394.7499995783231
 30
0.0
  0
VERTEX
  5
321
  8
0
 10
12.99497482779983
 20
-394.7499995645921
 30
0.0
 42
0.9999981011618682
  0
VERTEX
  5
322
  8
0
 10
12.5
 20
-395.2449743570365
 30
0.0
  0
VERTEX
  5
323
  8
0
 10
12.49999953535473
 20
-408.2550254234998
 30
0.0
 42
0.9999996163899887
  0
SEQEND
  5
325
  8
0
  0
ENDSEC
  0
EOF
