  0
SECTION
  2
HEADER
  9
$ACADVER
  1
AC1009
  9
$DWGCODEPAGE
  3
ansi_1252
  9
$INSBASE
 10
0.0
 20
0.0
 30
0.0
  9
$EXTMIN
 10
-60.00000000000023
 20
-513.0000000000002
 30
0.0
  9
$EXTMAX
 10
101.3811410282748
 20
-352.9999999999998
 30
0.0
  9
$LIMMIN
 10
0.0
 20
0.0
  9
$LIMMAX
 10
420.0
 20
297.0
  9
$ORTHOMODE
 70
     0
  9
$REGENMODE
 70
     1
  9
$FILLMODE
 70
     1
  9
$QTEXTMODE
 70
     0
  9
$MIRRTEXT
 70
     1
  9
$DRAGMODE
 70
     2
  9
$LTSCALE
 40
1.0
  9
$OSMODE
 70
 15295
  9
$ATTMODE
 70
     1
  9
$TEXTSIZE
 40
3.5
  9
$TRACEWID
 40
1.0
  9
$TEXTSTYLE
  7
STANDARD
  9
$CLAYER
  8
0
  9
$CELTYPE
  6
BYLAYER
  9
$CECOLOR
 62
   256
  9
$DIMSCALE
 40
1.0
  9
$DIMASZ
 40
3.302
  9
$DIMEXO
 40
1.0
  9
$DIMDLI
 40
3.75
  9
$DIMRND
 40
0.0
  9
$DIMDLE
 40
0.0
  9
$DIMEXE
 40
1.0
  9
$DIMTP
 40
0.0
  9
$DIMTM
 40
0.0
  9
$DIMTXT
 40
3.5
  9
$DIMCEN
 40
2.5
  9
$DIMTSZ
 40
0.0
  9
$DIMTOL
 70
     0
  9
$DIMLIM
 70
     0
  9
$DIMTIH
 70
     1
  9
$DIMTOH
 70
     1
  9
$DIMSE1
 70
     0
  9
$DIMSE2
 70
     0
  9
$DIMTAD
 70
     1
  9
$DIMZIN
 70
     0
  9
$DIMBLK
  1

  9
$DIMASO
 70
     1
  9
$DIMSHO
 70
     1
  9
$DIMPOST
  1

  9
$DIMAPOST
  1

  9
$DIMALT
 70
     0
  9
$DIMALTD
 70
     3
  9
$DIMALTF
 40
0.0393700787
  9
$DIMLFAC
 40
1.0
  9
$DIMTOFL
 70
     1
  9
$DIMTVP
 40
0.0
  9
$DIMTIX
 70
     0
  9
$DIMSOXD
 70
     0
  9
$DIMSAH
 70
     0
  9
$DIMBLK1
  1

  9
$DIMBLK2
  1

  9
$DIMSTYLE
  2
ISO-25
  9
$DIMCLRD
 70
     0
  9
$DIMCLRE
 70
     0
  9
$DIMCLRT
 70
     0
  9
$DIMTFAC
 40
1.0
  9
$DIMGAP
 40
1.524
  9
$LUNITS
 70
     2
  9
$LUPREC
 70
     2
  9
$SKETCHINC
 40
1.0
  9
$FILLETRAD
 40
10.0
  9
$AUNITS
 70
     0
  9
$AUPREC
 70
     2
  9
$MENU
  1
.
  9
$ELEVATION
 40
0.0
  9
$PELEVATION
 40
0.0
  9
$THICKNESS
 40
0.0
  9
$LIMCHECK
 70
     0
  9
$CHAMFERA
 40
0.0
  9
$CHAMFERB
 40
0.0
  9
$SKPOLY
 70
     0
  9
$TDCREATE
 40
2458855.774932535
  9
$TDUPDATE
 40
2458856.350492546
  9
$TDINDWG
 40
0.0024493519
  9
$TDUSRTIMER
 40
2458856.349651863
  9
$USRTIMER
 70
     1
  9
$ANGBASE
 50
0.0
  9
$ANGDIR
 70
     0
  9
$PDMODE
 70
     0
  9
$PDSIZE
 40
-1.0
  9
$PLINEWID
 40
0.0
  9
$COORDS
 70
     1
  9
$SPLFRAME
 70
     0
  9
$SPLINETYPE
 70
     6
  9
$SPLINESEGS
 70
     8
  9
$ATTDIA
 70
     0
  9
$ATTREQ
 70
     1
  9
$HANDLING
 70
     1
  9
$HANDSEED
  5
1B3
  9
$SURFTAB1
 70
     6
  9
$SURFTAB2
 70
     6
  9
$SURFTYPE
 70
     6
  9
$SURFU
 70
     6
  9
$SURFV
 70
     6
  9
$UCSNAME
  2

  9
$UCSORG
 10
0.0
 20
0.0
 30
0.0
  9
$UCSXDIR
 10
1.0
 20
0.0
 30
0.0
  9
$UCSYDIR
 10
0.0
 20
1.0
 30
0.0
  9
$PUCSNAME
  2

  9
$PUCSORG
 10
0.0
 20
0.0
 30
0.0
  9
$PUCSXDIR
 10
1.0
 20
0.0
 30
0.0
  9
$PUCSYDIR
 10
0.0
 20
1.0
 30
0.0
  9
$USERI1
 70
     0
  9
$USERI2
 70
     0
  9
$USERI3
 70
     0
  9
$USERI4
 70
     0
  9
$USERI5
 70
     0
  9
$USERR1
 40
0.0
  9
$USERR2
 40
0.0
  9
$USERR3
 40
0.0
  9
$USERR4
 40
0.0
  9
$USERR5
 40
0.0
  9
$WORLDVIEW
 70
     1
  9
$SHADEDGE
 70
     3
  9
$SHADEDIF
 70
    70
  9
$TILEMODE
 70
     1
  9
$MAXACTVP
 70
    64
  9
$PLIMCHECK
 70
     0
  9
$PEXTMIN
 10
1.000000000000000E+20
 20
1.000000000000000E+20
 30
1.000000000000000E+20
  9
$PEXTMAX
 10
-1.000000000000000E+20
 20
-1.000000000000000E+20
 30
-1.000000000000000E+20
  9
$PLIMMIN
 10
0.0
 20
0.0
  9
$PLIMMAX
 10
0.0
 20
0.0
  9
$UNITMODE
 70
     0
  9
$VISRETAIN
 70
     1
  9
$PLINEGEN
 70
     0
  9
$PSLTSCALE
 70
     1
  0
ENDSEC
  0
SECTION
  2
TABLES
  0
TABLE
  2
VPORT
 70
     1
  0
VPORT
  2
*ACTIVE
 70
     0
 10
0.0
 20
0.0
 11
1.0
 21
1.0
 12
-33.30226910828023
 22
-466.6541122611464
 13
0.0
 23
0.0
 14
10.0
 24
10.0
 15
10.0
 25
10.0
 16
0.0
 26
0.0
 36
1.0
 17
0.0
 27
0.0
 37
0.0
 40
255.0
 41
2.047133757961784
 42
50.0
 43
0.0
 44
0.0
 50
0.0
 51
0.0
 71
    16
 72
   100
 73
     1
 74
     3
 75
     0
 76
     0
 77
     0
 78
     0
  0
ENDTAB
  0
TABLE
  2
LTYPE
 70
     6
  0
LTYPE
  2
CONTINUOUS
 70
     0
  3
Solid line
 72
    65
 73
     0
 40
0.0
  0
LTYPE
  2
HIDDEN
 70
     0
  3
Hidden __ __ __ __ __ __ __ __ __ __ __ __ __ __
 72
    65
 73
     2
 40
1.905
 49
1.27
 49
-0.635
  0
LTYPE
  2
PHANTOM
 70
     0
  3
Phantom ______  __  __  ______  __  __  ______
 72
    65
 73
     6
 40
12.7
 49
6.35
 49
-1.27
 49
1.27
 49
-1.27
 49
1.27
 49
-1.27
  0
LTYPE
  2
CENTER
 70
     0
  3
Center ____ _ ____ _ ____ _ ____ _ ____ _ ____
 72
    65
 73
     4
 40
10.16
 49
6.35
 49
-1.27
 49
1.27
 49
-1.27
  0
LTYPE
  2
CENTERX2
 70
     0
  3
Center (2x) ________  __  ________  __  _____
 72
    65
 73
     4
 40
20.32
 49
12.7
 49
-2.54
 49
2.54
 49
-2.54
  0
LTYPE
  2
DOT2
 70
     0
  3
Dot (.5x) ........................................
 72
    65
 73
     2
 40
0.635
 49
0.0
 49
-0.635
  0
ENDTAB
  0
TABLE
  2
LAYER
 70
     1
  0
LAYER
  2
0
 70
     0
 62
     7
  6
CONTINUOUS
  0
ENDTAB
  0
TABLE
  2
STYLE
 70
     1
  0
STYLE
  2
STANDARD
 70
     0
 40
0.0
 41
1.0
 50
0.0
 71
     0
 42
3.5
  3
txt
  4

  0
ENDTAB
  0
TABLE
  2
VIEW
 70
     0
  0
ENDTAB
  0
TABLE
  2
UCS
 70
     0
  0
ENDTAB
  0
TABLE
  2
APPID
 70
     1
  0
APPID
  2
ACAD
 70
     0
  0
ENDTAB
  0
TABLE
  2
DIMSTYLE
 70
     1
  0
DIMSTYLE
  2
ISO-25
 70
     0
  3

  4

  5

  6

  7

 40
1.0
 41
2.5
 42
0.625
 43
3.75
 44
1.25
 45
0.0
 46
0.0
 47
0.0
 48
0.0
140
2.5
141
2.5
142
0.0
143
0.0393700787
144
1.0
145
0.0
146
1.0
147
0.625
 71
     0
 72
     0
 73
     0
 74
     0
 75
     0
 76
     0
 77
     1
 78
     8
170
     0
171
     3
172
     1
173
     0
174
     0
175
     0
176
     0
177
     0
178
     0
  0
ENDTAB
  0
ENDSEC
  0
SECTION
  2
BLOCKS
  0
BLOCK
  8
0
  2
$MODEL_SPACE
 70
     0
 10
0.0
 20
0.0
 30
0.0
  3
$MODEL_SPACE
  1

  0
ENDBLK
  5
21
  8
0
  0
BLOCK
 67
     1
  8
0
  2
$PAPER_SPACE
 70
     0
 10
0.0
 20
0.0
 30
0.0
  3
$PAPER_SPACE
  1

  0
ENDBLK
  5
1D
 67
     1
  8
0
  0
ENDSEC
  0
SECTION
  2
ENTITIES
  0
LINE
  5
73
  8
0
  6
CONTINUOUS
 62
     7
 10
12.5
 20
-395.244974357
 30
0.0
 11
12.4999995354
 21
-408.2550254235
 31
0.0
  0
ARC
  5
74
  8
0
  6
CONTINUOUS
 62
     7
 10
12.7474874139
 20
-394.9974869608
 30
0.0
 40
0.350000044753871
 50
44.99999795370001
 51
224.9999979537
  0
LINE
  5
75
  8
0
  6
CONTINUOUS
 62
     7
 10
18.0050251899
 20
-394.7499995646
 30
0.0
 11
12.9949748278
 21
-394.7499995646
 31
0.0
  0
ARC
  5
76
  8
0
  6
CONTINUOUS
 62
     7
 10
18.2525125949
 20
-394.9974869697
 30
0.0
 40
0.3500000447539248
 50
315.0
 51
135.0
  0
LINE
  5
77
  8
0
  6
CONTINUOUS
 62
     7
 10
18.5
 20
-408.2550254412
 30
0.0
 11
18.5
 21
-395.2449743747
 31
0.0
  0
ARC
  5
78
  8
0
  6
CONTINUOUS
 62
     7
 10
18.25251225
 20
-408.5025123763
 30
0.0
 40
0.3499999563660491
 50
224.9999496323
 51
44.9999056739
  0
LINE
  5
79
  8
0
  6
CONTINUOUS
 62
     7
 10
12.9949748278
 20
-408.7499995013
 30
0.0
 11
18.0050246899
 21
-408.7499995013
 31
0.0
  0
ARC
  5
7A
  8
0
  6
CONTINUOUS
 62
     7
 10
12.7474872765
 20
-408.5025123675
 30
0.0
 40
0.3499999563660992
 50
135.0000922798
 51
315.0000483214
  0
ARC
  5
7B
  8
0
  6
CONTINUOUS
 62
     7
 10
-12.7474874139
 20
-394.9974869608
 30
0.0
 40
0.350000044753871
 50
315.0000020463
 51
135.0000020463
  0
LINE
  5
7C
  8
0
  6
CONTINUOUS
 62
     7
 10
-12.5
 20
-395.244974357
 30
0.0
 11
-12.4999995354
 21
-408.2550254235
 31
0.0
  0
ARC
  5
7D
  8
0
  6
CONTINUOUS
 62
     7
 10
-12.7474872765
 20
-408.5025123675
 30
0.0
 40
0.3499999563660979
 50
224.9999516786
 51
44.9999077202
  0
LINE
  5
7E
  8
0
  6
CONTINUOUS
 62
     7
 10
-12.9949748278
 20
-408.7499995013
 30
0.0
 11
-18.0050246899
 21
-408.7499995013
 31
0.0
  0
ARC
  5
7F
  8
0
  6
CONTINUOUS
 62
     7
 10
-18.25251225
 20
-408.5025123763
 30
0.0
 40
0.3499999563660542
 50
135.0000943261
 51
315.0000503677
  0
LINE
  5
80
  8
0
  6
CONTINUOUS
 62
     7
 10
-18.5
 20
-408.2550254412
 30
0.0
 11
-18.5
 21
-395.2449743747
 31
0.0
  0
ARC
  5
81
  8
0
  6
CONTINUOUS
 62
     7
 10
-18.2525125949
 20
-394.9974869697
 30
0.0
 40
0.3500000447539248
 50
45.0
 51
225.0
  0
LINE
  5
82
  8
0
  6
CONTINUOUS
 62
     7
 10
-18.0050251899
 20
-394.7499995646
 30
0.0
 11
-12.9949748278
 21
-394.7499995646
 31
0.0
  0
LINE
  5
83
  8
0
  6
CONTINUOUS
 62
     7
 10
60.0
 20
-355.0
 30
0.0
 11
60.0
 21
-511.0
 31
0.0
  0
ARC
  5
84
  8
0
  6
CONTINUOUS
 62
     7
 10
58.0
 20
-355.0
 30
0.0
 40
2.000000000000227
 50
0.0
 51
90.0
  0
LINE
  5
85
  8
0
  6
CONTINUOUS
 62
     7
 10
-58.0
 20
-353.0
 30
0.0
 11
58.0
 21
-353.0
 31
0.0
  0
ARC
  5
86
  8
0
  6
CONTINUOUS
 62
     7
 10
-58.0
 20
-355.0
 30
0.0
 40
2.000000000000227
 50
90.0
 51
180.0
  0
LINE
  5
87
  8
0
  6
CONTINUOUS
 62
     7
 10
-60.0
 20
-511.0
 30
0.0
 11
-60.0
 21
-355.0
 31
0.0
  0
ARC
  5
88
  8
0
  6
CONTINUOUS
 62
     7
 10
-58.0
 20
-511.0
 30
0.0
 40
2.000000000000227
 50
180.0
 51
270.0
  0
LINE
  5
89
  8
0
  6
CONTINUOUS
 62
     7
 10
58.0
 20
-513.0
 30
0.0
 11
-58.0
 21
-513.0
 31
0.0
  0
ARC
  5
8A
  8
0
  6
CONTINUOUS
 62
     7
 10
58.0
 20
-511.0
 30
0.0
 40
2.000000000000227
 50
270.0
 51
0.0
  0
CIRCLE
  5
8B
  8
0
  6
CONTINUOUS
 62
     7
 10
-42.5982051305
 20
-484.0
 30
0.0
 40
4.099999999999966
  0
CIRCLE
  5
8C
  8
0
  6
CONTINUOUS
 62
     7
 10
44.5933438695
 20
-382.0
 30
0.0
 40
4.100000000000023
  0
LINE
  5
8D
  8
0
  6
CONTINUOUS
 62
     7
 10
-3.0
 20
-457.5590885642
 30
0.0
 11
-3.0000004646
 21
-470.5691396306
 31
0.0
  0
ARC
  5
8E
  8
0
  6
CONTINUOUS
 62
     7
 10
-2.7525121162
 20
-457.3116016379
 30
0.0
 40
0.3500000447545832
 50
45.0001067492
 51
224.9998891582
  0
LINE
  5
8F
  8
0
  6
CONTINUOUS
 62
     7
 10
2.5050251899
 20
-457.0641137717
 30
0.0
 11
-2.5050251722
 21
-457.0641137717
 31
0.0
  0
ARC
  5
90
  8
0
  6
CONTINUOUS
 62
     7
 10
2.7525125949
 20
-457.3116011768
 30
0.0
 40
0.3500000447539289
 50
315.0
 51
135.0
  0
LINE
  5
91
  8
0
  6
CONTINUOUS
 62
     7
 10
3.0
 20
-470.5691396483
 30
0.0
 11
3.0
 21
-457.5590885818
 31
0.0
  0
ARC
  5
92
  8
0
  6
CONTINUOUS
 62
     7
 10
2.75251225
 20
-470.8166265834
 30
0.0
 40
0.349999956366037
 50
224.9999496324
 51
44.9999056739
  0
LINE
  5
93
  8
0
  6
CONTINUOUS
 62
     7
 10
-2.5050251722
 20
-471.0641137084
 30
0.0
 11
2.5050246899
 21
-471.0641137084
 31
0.0
  0
ARC
  5
94
  8
0
  6
CONTINUOUS
 62
     7
 10
-2.7525127235
 20
-470.8166265746
 30
0.0
 40
0.3499999563660664
 50
135.0000922798
 51
315.0000483214
  0
POLYLINE
  5
17D
  8
0
 66
     1
 10
0.0
 20
0.0
 30
0.0
 70
     1
  0
VERTEX
  5
180
  8
0
 10
95.65910828020567
 20
-411.245884583781
 30
0.0
  0
VERTEX
  5
181
  8
0
 10
95.65910828020567
 20
-398.1562919583885
 30
0.0
 42
0.4142135625949814
  0
VERTEX
  5
182
  8
0
 10
95.31464531647168
 20
-397.8118289946786
 30
0.0
  0
VERTEX
  5
183
  8
0
 10
90.24117334471362
 20
-397.8118289946916
 30
0.0
 42
-1.000000000249506
  0
VERTEX
  5
184
  8
0
 10
89.75402890039278
 20
-397.3246845503458
 30
0.0
  0
VERTEX
  5
185
  8
0
 10
89.7540289003959
 20
-386.9510882710885
 30
0.0
 42
0.4142135623730923
  0
VERTEX
  5
186
  8
0
 10
88.7540289003959
 20
-385.9510882710885
 30
0.0
  0
VERTEX
  5
187
  8
0
 10
65.7540289003959
 20
-385.9510882710885
 30
0.0
 42
0.4142135623730923
  0
VERTEX
  5
188
  8
0
 10
64.7540289003959
 20
-386.9510882710885
 30
0.0
  0
VERTEX
  5
189
  8
0
 10
64.7540289003959
 20
-422.4510882710885
 30
0.0
 42
0.4142135623730923
  0
VERTEX
  5
18A
  8
0
 10
65.7540289003959
 20
-423.4510882710885
 30
0.0
  0
VERTEX
  5
18B
  8
0
 10
88.7540289003959
 20
-423.4510882710885
 30
0.0
 42
0.4142135623730923
  0
VERTEX
  5
18C
  8
0
 10
89.7540289003959
 20
-422.4510882710885
 30
0.0
  0
VERTEX
  5
18D
  8
0
 10
89.75402890038622
 20
-412.0774919919995
 30
0.0
 42
-1.000000000042416
  0
VERTEX
  5
18E
  8
0
 10
90.24117334464441
 20
-411.5903475475913
 30
0.0
  0
VERTEX
  5
18F
  8
0
 10
95.31464531649584
 20
-411.5903475475577
 30
0.0
 42
0.4142135624590881
  0
SEQEND
  5
1B0
  8
0
  0
POLYLINE
  5
17E
  8
0
 66
     1
 10
0.0
 20
0.0
 30
0.0
 70
     1
  0
VERTEX
  5
190
  8
0
 10
96.47121019103375
 20
-452.6630820360103
 30
0.0
  0
VERTEX
  5
191
  8
0
 10
96.47121019103375
 20
-439.5734894106178
 30
0.0
 42
0.4142135625949402
  0
VERTEX
  5
192
  8
0
 10
96.12674722729976
 20
-439.2290264469079
 30
0.0
  0
VERTEX
  5
193
  8
0
 10
91.05327525554168
 20
-439.2290264469209
 30
0.0
 42
-1.000000000249506
  0
VERTEX
  5
194
  8
0
 10
90.56613081122084
 20
-438.741882002575
 30
0.0
  0
VERTEX
  5
195
  8
0
 10
90.56613081122396
 20
-428.3682857233178
 30
0.0
 42
0.4142135623730923
  0
VERTEX
  5
196
  8
0
 10
89.56613081122396
 20
-427.3682857233178
 30
0.0
  0
VERTEX
  5
197
  8
0
 10
66.56613081122396
 20
-427.3682857233178
 30
0.0
 42
0.4142135623730923
  0
VERTEX
  5
198
  8
0
 10
65.56613081122396
 20
-428.3682857233178
 30
0.0
  0
VERTEX
  5
199
  8
0
 10
65.56613081122396
 20
-463.8682857233178
 30
0.0
 42
0.4142135623730923
  0
VERTEX
  5
19A
  8
0
 10
66.56613081122396
 20
-464.8682857233178
 30
0.0
  0
VERTEX
  5
19B
  8
0
 10
89.56613081122396
 20
-464.8682857233178
 30
0.0
 42
0.4142135623730923
  0
VERTEX
  5
19C
  8
0
 10
90.56613081122396
 20
-463.8682857233178
 30
0.0
  0
VERTEX
  5
19D
  8
0
 10
90.56613081121426
 20
-453.4946894442288
 30
0.0
 42
-1.000000000042503
  0
VERTEX
  5
19E
  8
0
 10
91.05327525547246
 20
-453.0075449998206
 30
0.0
  0
VERTEX
  5
19F
  8
0
 10
96.1267472273239
 20
-453.0075449997869
 30
0.0
 42
0.4142135624590447
  0
SEQEND
  5
1B1
  8
0
  0
POLYLINE
  5
17F
  8
0
 66
     1
 10
0.0
 20
0.0
 30
0.0
 70
     1
  0
VERTEX
  5
1A0
  8
0
 10
101.3811410282676
 20
-499.0147534623243
 30
0.0
  0
VERTEX
  5
1A1
  8
0
 10
101.3811410282748
 20
-463.7529131597946
 30
0.0
 42
0.6429301106431959
  0
VERTEX
  5
1A2
  8
0
 10
99.72570477109267
 20
-462.997662663088
 30
0.0
  0
VERTEX
  5
1A3
  8
0
 10
65.35144091418591
 20
-492.8290086122486
 30
0.0
 42
0.1527424538207994
  0
VERTEX
  5
1A4
  8
0
 10
64.47439490446274
 20
-495.6330237348946
 30
0.0
  0
VERTEX
  5
1A5
  8
0
 10
64.4743949044726
 20
-499.0147534623716
 30
0.0
 42
0.4142135623951779
  0
VERTEX
  5
1A6
  8
0
 10
65.45857480107477
 20
-499.9989333589968
 30
0.0
  0
VERTEX
  5
1A7
  8
0
 10
75.551364245557
 20
-499.9989333589915
 30
0.0
 42
-1.000000000249739
  0
VERTEX
  5
1A8
  8
0
 10
76.03850868987787
 20
-500.4860778033124
 30
0.0
  0
VERTEX
  5
1A9
  8
0
 10
76.03850868990557
 20
-505.5595497750357
 30
0.0
 42
0.414213562502743
  0
VERTEX
  5
1AA
  8
0
 10
76.38297165367472
 20
-505.9040127388044
 30
0.0
  0
VERTEX
  5
1AB
  8
0
 10
89.47256427905066
 20
-505.9040127388044
 30
0.0
 42
0.4142135625946422
  0
VERTEX
  5
1AC
  8
0
 10
89.81702724278455
 20
-505.5595497750946
 30
0.0
  0
VERTEX
  5
1AD
  8
0
 10
89.8170272427775
 20
-500.4860778032432
 30
0.0
 42
-1.000000000042649
  0
VERTEX
  5
1AE
  8
0
 10
90.30417168718584
 20
-499.9989333589849
 30
0.0
  0
VERTEX
  5
1AF
  8
0
 10
100.3969611315747
 20
-499.9989333589875
 30
0.0
 42
0.4142135623607721
  0
SEQEND
  5
1B2
  8
0
  0
ENDSEC
  0
EOF
