  0
SECTION
  2
HEADER
  9
$ACADVER
  1
AC1009
  9
$DWGCODEPAGE
  3
ansi_1252
  9
$INSBASE
 10
0.0
 20
0.0
 30
0.0
  9
$EXTMIN
 10
-514.6497605381
 20
-513.2001555490999
 30
0.0
  9
$EXTMAX
 10
514.6499401497999
 20
445.6998444555001
 30
0.0
  9
$LIMMIN
 10
0.0
 20
0.0
  9
$LIMMAX
 10
420.0
 20
297.0
  9
$ORTHOMODE
 70
     0
  9
$REGENMODE
 70
     1
  9
$FILLMODE
 70
     1
  9
$QTEXTMODE
 70
     0
  9
$MIRRTEXT
 70
     1
  9
$DRAGMODE
 70
     2
  9
$LTSCALE
 40
1.0
  9
$OSMODE
 70
 15295
  9
$ATTMODE
 70
     1
  9
$TEXTSIZE
 40
3.5
  9
$TRACEWID
 40
1.0
  9
$TEXTSTYLE
  7
STANDARD
  9
$CLAYER
  8
0
  9
$CELTYPE
  6
BYLAYER
  9
$CECOLOR
 62
   256
  9
$DIMSCALE
 40
1.0
  9
$DIMASZ
 40
3.302
  9
$DIMEXO
 40
1.0
  9
$DIMDLI
 40
3.75
  9
$DIMRND
 40
0.0
  9
$DIMDLE
 40
0.0
  9
$DIMEXE
 40
1.0
  9
$DIMTP
 40
0.0
  9
$DIMTM
 40
0.0
  9
$DIMTXT
 40
3.5
  9
$DIMCEN
 40
2.5
  9
$DIMTSZ
 40
0.0
  9
$DIMTOL
 70
     0
  9
$DIMLIM
 70
     0
  9
$DIMTIH
 70
     1
  9
$DIMTOH
 70
     1
  9
$DIMSE1
 70
     0
  9
$DIMSE2
 70
     0
  9
$DIMTAD
 70
     1
  9
$DIMZIN
 70
     0
  9
$DIMBLK
  1

  9
$DIMASO
 70
     1
  9
$DIMSHO
 70
     1
  9
$DIMPOST
  1

  9
$DIMAPOST
  1

  9
$DIMALT
 70
     0
  9
$DIMALTD
 70
     3
  9
$DIMALTF
 40
0.0393700787
  9
$DIMLFAC
 40
1.0
  9
$DIMTOFL
 70
     1
  9
$DIMTVP
 40
0.0
  9
$DIMTIX
 70
     0
  9
$DIMSOXD
 70
     0
  9
$DIMSAH
 70
     0
  9
$DIMBLK1
  1

  9
$DIMBLK2
  1

  9
$DIMSTYLE
  2
ISO-25
  9
$DIMCLRD
 70
     0
  9
$DIMCLRE
 70
     0
  9
$DIMCLRT
 70
     0
  9
$DIMTFAC
 40
1.0
  9
$DIMGAP
 40
1.524
  9
$LUNITS
 70
     2
  9
$LUPREC
 70
     2
  9
$SKETCHINC
 40
1.0
  9
$FILLETRAD
 40
10.0
  9
$AUNITS
 70
     0
  9
$AUPREC
 70
     2
  9
$MENU
  1
.
  9
$ELEVATION
 40
0.0
  9
$PELEVATION
 40
0.0
  9
$THICKNESS
 40
0.0
  9
$LIMCHECK
 70
     0
  9
$CHAMFERA
 40
0.0
  9
$CHAMFERB
 40
0.0
  9
$SKPOLY
 70
     0
  9
$TDCREATE
 40
2458856.355272963
  9
$TDUPDATE
 40
2458856.357451273
  9
$TDINDWG
 40
0.0015154051
  9
$TDUSRTIMER
 40
2458856.355935995
  9
$USRTIMER
 70
     1
  9
$ANGBASE
 50
0.0
  9
$ANGDIR
 70
     0
  9
$PDMODE
 70
     0
  9
$PDSIZE
 40
-1.0
  9
$PLINEWID
 40
0.0
  9
$COORDS
 70
     1
  9
$SPLFRAME
 70
     0
  9
$SPLINETYPE
 70
     6
  9
$SPLINESEGS
 70
     8
  9
$ATTDIA
 70
     0
  9
$ATTREQ
 70
     1
  9
$HANDLING
 70
     1
  9
$HANDSEED
  5
2CF
  9
$SURFTAB1
 70
     6
  9
$SURFTAB2
 70
     6
  9
$SURFTYPE
 70
     6
  9
$SURFU
 70
     6
  9
$SURFV
 70
     6
  9
$UCSNAME
  2

  9
$UCSORG
 10
0.0
 20
0.0
 30
0.0
  9
$UCSXDIR
 10
1.0
 20
0.0
 30
0.0
  9
$UCSYDIR
 10
0.0
 20
1.0
 30
0.0
  9
$PUCSNAME
  2

  9
$PUCSORG
 10
0.0
 20
0.0
 30
0.0
  9
$PUCSXDIR
 10
1.0
 20
0.0
 30
0.0
  9
$PUCSYDIR
 10
0.0
 20
1.0
 30
0.0
  9
$USERI1
 70
     0
  9
$USERI2
 70
     0
  9
$USERI3
 70
     0
  9
$USERI4
 70
     0
  9
$USERI5
 70
     0
  9
$USERR1
 40
0.0
  9
$USERR2
 40
0.0
  9
$USERR3
 40
0.0
  9
$USERR4
 40
0.0
  9
$USERR5
 40
0.0
  9
$WORLDVIEW
 70
     1
  9
$SHADEDGE
 70
     3
  9
$SHADEDIF
 70
    70
  9
$TILEMODE
 70
     1
  9
$MAXACTVP
 70
    64
  9
$PLIMCHECK
 70
     0
  9
$PEXTMIN
 10
1.000000000000000E+20
 20
1.000000000000000E+20
 30
1.000000000000000E+20
  9
$PEXTMAX
 10
-1.000000000000000E+20
 20
-1.000000000000000E+20
 30
-1.000000000000000E+20
  9
$PLIMMIN
 10
0.0
 20
0.0
  9
$PLIMMAX
 10
0.0
 20
0.0
  9
$UNITMODE
 70
     0
  9
$VISRETAIN
 70
     1
  9
$PLINEGEN
 70
     0
  9
$PSLTSCALE
 70
     1
  0
ENDSEC
  0
SECTION
  2
TABLES
  0
TABLE
  2
VPORT
 70
     1
  0
VPORT
  2
*ACTIVE
 70
     0
 10
0.0
 20
0.0
 11
1.0
 21
1.0
 12
-145.4138680282234
 22
-120.5406625767411
 13
0.0
 23
0.0
 14
10.0
 24
10.0
 15
10.0
 25
10.0
 16
0.0
 26
0.0
 36
1.0
 17
0.0
 27
0.0
 37
0.0
 40
1222.59750000575
 41
2.047133757961784
 42
50.0
 43
0.0
 44
0.0
 50
0.0
 51
0.0
 71
    16
 72
   100
 73
     1
 74
     3
 75
     0
 76
     0
 77
     0
 78
     0
  0
ENDTAB
  0
TABLE
  2
LTYPE
 70
     6
  0
LTYPE
  2
CONTINUOUS
 70
     0
  3
Solid line
 72
    65
 73
     0
 40
0.0
  0
LTYPE
  2
HIDDEN
 70
     0
  3
Hidden __ __ __ __ __ __ __ __ __ __ __ __ __ __
 72
    65
 73
     2
 40
1.905
 49
1.27
 49
-0.635
  0
LTYPE
  2
PHANTOM
 70
     0
  3
Phantom ______  __  __  ______  __  __  ______
 72
    65
 73
     6
 40
12.7
 49
6.35
 49
-1.27
 49
1.27
 49
-1.27
 49
1.27
 49
-1.27
  0
LTYPE
  2
CENTER
 70
     0
  3
Center ____ _ ____ _ ____ _ ____ _ ____ _ ____
 72
    65
 73
     4
 40
10.16
 49
6.35
 49
-1.27
 49
1.27
 49
-1.27
  0
LTYPE
  2
CENTERX2
 70
     0
  3
Center (2x) ________  __  ________  __  _____
 72
    65
 73
     4
 40
20.32
 49
12.7
 49
-2.54
 49
2.54
 49
-2.54
  0
LTYPE
  2
DOT2
 70
     0
  3
Dot (.5x) ........................................
 72
    65
 73
     2
 40
0.635
 49
0.0
 49
-0.635
  0
ENDTAB
  0
TABLE
  2
LAYER
 70
     2
  0
LAYER
  2
0
 70
     0
 62
     7
  6
CONTINUOUS
  0
LAYER
  2
DEFPOINTS
 70
     0
 62
     7
  6
CONTINUOUS
  0
ENDTAB
  0
TABLE
  2
STYLE
 70
     1
  0
STYLE
  2
STANDARD
 70
     0
 40
0.0
 41
1.0
 50
0.0
 71
     0
 42
3.5
  3
txt
  4

  0
ENDTAB
  0
TABLE
  2
VIEW
 70
     0
  0
ENDTAB
  0
TABLE
  2
UCS
 70
     0
  0
ENDTAB
  0
TABLE
  2
APPID
 70
     1
  0
APPID
  2
ACAD
 70
     0
  0
ENDTAB
  0
TABLE
  2
DIMSTYLE
 70
     1
  0
DIMSTYLE
  2
ISO-25
 70
     0
  3

  4

  5

  6

  7

 40
1.0
 41
2.5
 42
0.625
 43
3.75
 44
1.25
 45
0.0
 46
0.0
 47
0.0
 48
0.0
140
2.5
141
2.5
142
0.0
143
0.0393700787
144
1.0
145
0.0
146
1.0
147
0.625
 71
     0
 72
     0
 73
     0
 74
     0
 75
     0
 76
     0
 77
     1
 78
     8
170
     0
171
     3
172
     1
173
     0
174
     0
175
     0
176
     0
177
     0
178
     0
  0
ENDTAB
  0
ENDSEC
  0
SECTION
  2
BLOCKS
  0
BLOCK
  8
0
  2
$MODEL_SPACE
 70
     0
 10
0.0
 20
0.0
 30
0.0
  3
$MODEL_SPACE
  1

  0
ENDBLK
  5
21
  8
0
  0
BLOCK
 67
     1
  8
0
  2
$PAPER_SPACE
 70
     0
 10
0.0
 20
0.0
 30
0.0
  3
$PAPER_SPACE
  1

  0
ENDBLK
  5
1D
 67
     1
  8
0
  0
BLOCK
  8
0
  2
*D0
 70
     1
 10
0.0
 20
0.0
 30
0.0
  3
*D0
  1

  0
ARC
  5
295
  8
0
 62
     0
 10
-242.8906296132
 20
-420.7001555447
 30
0.0
 40
56.68932887235615
 50
3.33779606709325
 51
53.92744601564932
  0
ARC
  5
296
  8
0
 62
     0
 10
-242.8906296132
 20
-420.7001555447
 30
0.0
 40
56.68932887235615
 50
67.31580086736203
 51
116.6622039312589
  0
SOLID
  5
297
  8
0
 62
     0
 10
-186.847566914115
 20
-417.4155839127064
 30
0.0
 11
-185.7473671319457
 21
-417.3835284853109
 31
0.0
 12
-186.2013007408438
 22
-420.7001555455168
 32
0.0
 13
-186.2013007408438
 23
-420.7001555455168
 33
0.0
  0
SOLID
  5
298
  8
0
 62
     0
 10
-268.5899775640464
 20
-369.5543250503778
 30
0.0
 11
-268.0676384874432
 21
-370.5231537246874
 31
0.0
 12
-271.2352940486735
 22
-371.6057566173421
 32
0.0
 13
-271.2352940486735
 23
-371.6057566173421
 33
0.0
  0
TEXT
  5
299
  8
0
  6
CONTINUOUS
 62
     0
 10
-219.5042985096493
 20
-373.3557566181565
 30
0.0
 40
3.5
  1
120°
  0
POINT
  5
29A
  8
DEFPOINTS
 62
     0
 10
-199.4640842458629
 20
-384.2609573447289
 30
0.0
  0
POINT
  5
29B
  8
DEFPOINTS
 62
     0
 10
-242.8906296132
 20
-420.7001555447
 30
0.0
  0
POINT
  5
29C
  8
DEFPOINTS
 62
     0
 10
-485.7822470786
 20
0.0004666519000001
 30
0.0
  0
POINT
  5
29D
  8
DEFPOINTS
 62
     0
 10
-242.8906296132
 20
-420.7001555447
 30
0.0
  0
POINT
  5
29E
  8
DEFPOINTS
 62
     0
 10
242.8911684362
 20
-420.7001555517
 30
0.0
  0
ENDBLK
  5
294
  8
0
  0
ENDSEC
  0
SECTION
  2
ENTITIES
  0
CIRCLE
  5
76
  8
0
  6
CONTINUOUS
 62
     4
 10
-42.4982051375
 20
-484.2001555476
 30
0.0
 40
4.100000000000023
  0
POLYLINE
  5
82
  8
0
  6
CONTINUOUS
 62
     4
 66
     1
 10
0.0
 20
0.0
 30
0.0
 70
   128
  0
VERTEX
  5
29F
  8
0
  6
CONTINUOUS
 62
     4
 10
18.6999999943
 20
-395.2395058034
 30
0.0
  0
VERTEX
  5
2A0
  8
0
  6
CONTINUOUS
 62
     4
 10
18.702512634
 20
-395.1976425182
 30
0.0
  0
VERTEX
  5
2A1
  8
0
  6
CONTINUOUS
 62
     4
 10
18.6999999943
 20
-395.1557792329
 30
0.0
  0
SEQEND
  5
2C3
  8
0
  6
CONTINUOUS
 62
     4
  0
POLYLINE
  5
84
  8
0
  6
CONTINUOUS
 62
     4
 66
     1
 10
0.0
 20
0.0
 30
0.0
 70
   128
  0
VERTEX
  5
2A2
  8
0
  6
CONTINUOUS
 62
     4
 10
18.6999999941
 20
-408.7445276077
 30
0.0
  0
VERTEX
  5
2A3
  8
0
  6
CONTINUOUS
 62
     4
 10
18.7025122005
 20
-408.7026684339
 30
0.0
  0
VERTEX
  5
2A4
  8
0
  6
CONTINUOUS
 62
     4
 10
18.6999999941
 20
-408.6608082419
 30
0.0
  0
SEQEND
  5
2C4
  8
0
  6
CONTINUOUS
 62
     4
  0
POLYLINE
  5
85
  8
0
  6
CONTINUOUS
 62
     4
 66
     1
 10
0.0
 20
0.0
 30
0.0
 70
   128
  0
VERTEX
  5
2A5
  8
0
  6
CONTINUOUS
 62
     4
 10
-18.5000000057
 20
-395.2395058029
 30
0.0
  0
VERTEX
  5
2A6
  8
0
  6
CONTINUOUS
 62
     4
 10
-18.5025126454
 20
-395.1976425176
 30
0.0
  0
VERTEX
  5
2A7
  8
0
  6
CONTINUOUS
 62
     4
 10
-18.5000000057
 20
-395.1557792324
 30
0.0
  0
SEQEND
  5
2C5
  8
0
  6
CONTINUOUS
 62
     4
  0
POLYLINE
  5
86
  8
0
  6
CONTINUOUS
 62
     4
 66
     1
 10
0.0
 20
0.0
 30
0.0
 70
   128
  0
VERTEX
  5
2A8
  8
0
  6
CONTINUOUS
 62
     4
 10
-18.5000000059
 20
-408.7445276072
 30
0.0
  0
VERTEX
  5
2A9
  8
0
  6
CONTINUOUS
 62
     4
 10
-18.5025122122
 20
-408.7026684333
 30
0.0
  0
VERTEX
  5
2AA
  8
0
  6
CONTINUOUS
 62
     4
 10
-18.5000000059
 20
-408.6608082413
 30
0.0
  0
SEQEND
  5
2C6
  8
0
  6
CONTINUOUS
 62
     4
  0
CIRCLE
  5
87
  8
0
  6
CONTINUOUS
 62
     4
 10
-398.0805326518
 20
278.9046030382
 30
0.0
 40
4.099999999999989
  0
POLYLINE
  5
92
  8
0
  6
CONTINUOUS
 62
     4
 66
     1
 10
0.0
 20
0.0
 30
0.0
 70
   128
  0
VERTEX
  5
2AB
  8
0
  6
CONTINUOUS
 62
     4
 10
-333.0374526016
 20
213.6412228765
 30
0.0
  0
VERTEX
  5
2AC
  8
0
  6
CONTINUOUS
 62
     4
 10
-332.9999416133
 20
213.6224672436
 30
0.0
  0
VERTEX
  5
2AD
  8
0
  6
CONTINUOUS
 62
     4
 10
-332.9649432646
 20
213.5993595912
 30
0.0
  0
SEQEND
  5
2C7
  8
0
  6
CONTINUOUS
 62
     4
  0
POLYLINE
  5
93
  8
0
  6
CONTINUOUS
 62
     4
 66
     1
 10
0.0
 20
0.0
 30
0.0
 70
   128
  0
VERTEX
  5
2AE
  8
0
  6
CONTINUOUS
 62
     4
 10
-344.7331445627
 20
220.3937337788
 30
0.0
  0
VERTEX
  5
2AF
  8
0
  6
CONTINUOUS
 62
     4
 10
-344.6956373516
 20
220.3749798264
 30
0.0
  0
VERTEX
  5
2B0
  8
0
  6
CONTINUOUS
 62
     4
 10
-344.6606414651
 20
220.3518740959
 30
0.0
  0
SEQEND
  5
2C8
  8
0
  6
CONTINUOUS
 62
     4
  0
POLYLINE
  5
99
  8
0
  6
CONTINUOUS
 62
     4
 66
     1
 10
0.0
 20
0.0
 30
0.0
 70
   128
  0
VERTEX
  5
2B1
  8
0
  6
CONTINUOUS
 62
     4
 10
-351.6374526021
 20
181.425077856
 30
0.0
  0
VERTEX
  5
2B2
  8
0
  6
CONTINUOUS
 62
     4
 10
-351.6024542534
 20
181.4019702035
 30
0.0
  0
VERTEX
  5
2B3
  8
0
  6
CONTINUOUS
 62
     4
 10
-351.5649432651
 20
181.3832145707
 30
0.0
  0
SEQEND
  5
2C9
  8
0
  6
CONTINUOUS
 62
     4
  0
POLYLINE
  5
9A
  8
0
  6
CONTINUOUS
 62
     4
 66
     1
 10
0.0
 20
0.0
 30
0.0
 70
   128
  0
VERTEX
  5
2B4
  8
0
  6
CONTINUOUS
 62
     4
 10
-363.3331445632
 20
188.1775887583
 30
0.0
  0
VERTEX
  5
2B5
  8
0
  6
CONTINUOUS
 62
     4
 10
-363.2981495584
 20
188.1544835368
 30
0.0
  0
VERTEX
  5
2B6
  8
0
  6
CONTINUOUS
 62
     4
 10
-363.2606414656
 20
188.1357290753
 30
0.0
  0
SEQEND
  5
2CA
  8
0
  6
CONTINUOUS
 62
     4
  0
CIRCLE
  5
9E
  8
0
  6
CONTINUOUS
 62
     4
 10
440.5787377895
 20
205.2955525095
 30
0.0
 40
4.099999999999913
  0
POLYLINE
  5
AA
  8
0
  6
CONTINUOUS
 62
     4
 66
     1
 10
0.0
 20
0.0
 30
0.0
 70
   128
  0
VERTEX
  5
2B7
  8
0
  6
CONTINUOUS
 62
     4
 10
351.5374526074
 20
181.5982829265
 30
0.0
  0
VERTEX
  5
2B8
  8
0
  6
CONTINUOUS
 62
     4
 10
351.5024542588
 20
181.5751752741
 30
0.0
  0
VERTEX
  5
2B9
  8
0
  6
CONTINUOUS
 62
     4
 10
351.4649432704
 20
181.5564196413
 30
0.0
  0
SEQEND
  5
2CB
  8
0
  6
CONTINUOUS
 62
     4
  0
POLYLINE
  5
AB
  8
0
  6
CONTINUOUS
 62
     4
 66
     1
 10
0.0
 20
0.0
 30
0.0
 70
   128
  0
VERTEX
  5
2BA
  8
0
  6
CONTINUOUS
 62
     4
 10
363.2331445688
 20
188.3507938285
 30
0.0
  0
VERTEX
  5
2BB
  8
0
  6
CONTINUOUS
 62
     4
 10
363.198149564
 20
188.3276886071
 30
0.0
  0
VERTEX
  5
2BC
  8
0
  6
CONTINUOUS
 62
     4
 10
363.1606414711
 20
188.3089341456
 30
0.0
  0
SEQEND
  5
2CC
  8
0
  6
CONTINUOUS
 62
     4
  0
POLYLINE
  5
AC
  8
0
  6
CONTINUOUS
 62
     4
 66
     1
 10
0.0
 20
0.0
 30
0.0
 70
   128
  0
VERTEX
  5
2BD
  8
0
  6
CONTINUOUS
 62
     4
 10
344.6331445692
 20
220.5669388496
 30
0.0
  0
VERTEX
  5
2BE
  8
0
  6
CONTINUOUS
 62
     4
 10
344.5956373581
 20
220.5481848972
 30
0.0
  0
VERTEX
  5
2BF
  8
0
  6
CONTINUOUS
 62
     4
 10
344.5606414716
 20
220.5250791666
 30
0.0
  0
SEQEND
  5
2CD
  8
0
  6
CONTINUOUS
 62
     4
  0
POLYLINE
  5
AD
  8
0
  6
CONTINUOUS
 62
     4
 66
     1
 10
0.0
 20
0.0
 30
0.0
 70
   128
  0
VERTEX
  5
2C0
  8
0
  6
CONTINUOUS
 62
     4
 10
332.9374526079
 20
213.8144279476
 30
0.0
  0
VERTEX
  5
2C1
  8
0
  6
CONTINUOUS
 62
     4
 10
332.8999416195
 20
213.7956723148
 30
0.0
  0
VERTEX
  5
2C2
  8
0
  6
CONTINUOUS
 62
     4
 10
332.8649432709
 20
213.7725646623
 30
0.0
  0
SEQEND
  5
2CE
  8
0
  6
CONTINUOUS
 62
     4
  0
CIRCLE
  5
B8
  8
0
  6
CONTINUOUS
 62
     4
 10
44.693343864
 20
-382.2001555489
 30
0.0
 40
7.499999999999943
  0
CIRCLE
  5
B9
  8
0
  6
CONTINUOUS
 62
     4
 10
44.693343864
 20
-382.2001555489
 30
0.0
 40
8.000000000000114
  0
CIRCLE
  5
BA
  8
0
  6
CONTINUOUS
 62
     4
 10
-353.3417159676
 20
152.3945066083
 30
0.0
 40
7.500000000000076
  0
CIRCLE
  5
BB
  8
0
  6
CONTINUOUS
 62
     4
 10
-353.3417159676
 20
152.3945066083
 30
0.0
 40
8.000000000000023
  0
CIRCLE
  5
BC
  8
0
  6
CONTINUOUS
 62
     4
 10
308.6483721038
 20
229.8056489407
 30
0.0
 40
7.500000000000068
  0
CIRCLE
  5
BD
  8
0
  6
CONTINUOUS
 62
     4
 10
308.6483721038
 20
229.8056489407
 30
0.0
 40
8.000000000000014
  0
CIRCLE
  5
E9
  8
0
  6
CONTINUOUS
 62
     7
 10
242.4869934316
 20
139.9998961054
 30
0.0
 40
4.099999999999937
  0
CIRCLE
  5
126
  8
0
  6
CONTINUOUS
 62
     7
 10
0.0
 20
0.0
 30
0.0
 40
1.000000000000076
  0
CIRCLE
  5
12C
  8
0
  6
CONTINUOUS
 62
     7
 10
-242.4872019994
 20
139.9998459517
 30
0.0
 40
4.099999999999994
  0
CIRCLE
  5
13E
  8
0
  6
CONTINUOUS
 62
     7
 10
-0.0000898097999986
 20
-280.0001525554
 30
0.0
 40
4.099999999999966
  0
LINE
  5
15E
  8
0
  6
CONTINUOUS
 62
     4
 10
58.09999999259999
 20
-513.2001555491
 30
0.0
 11
-57.9000000074
 21
-513.2001555474
 31
0.0
  0
LINE
  5
15F
  8
0
  6
CONTINUOUS
 62
     4
 10
-59.9000000073
 20
-511.2001555474
 30
0.0
 11
-59.9000000064
 21
-445.7001555474
 31
0.0
  0
LINE
  5
160
  8
0
  6
CONTINUOUS
 62
     4
 10
-59.900000006
 20
-420.7001555474
 30
0.0
 11
-59.9000000051
 21
-355.2001555474
 31
0.0
  0
LINE
  5
161
  8
0
  6
CONTINUOUS
 62
     4
 10
-57.9000000051
 20
-353.2001555474
 30
0.0
 11
-12.7000000051
 21
-353.200155548
 31
0.0
  0
LINE
  5
162
  8
0
  6
CONTINUOUS
 62
     4
 10
12.6999999949
 20
-353.2001555484
 30
0.0
 11
58.0999999949
 21
-353.2001555491
 31
0.0
  0
LINE
  5
163
  8
0
  6
CONTINUOUS
 62
     4
 10
60.0999999949
 20
-355.2001555491
 30
0.0
 11
60.099999994
 21
-420.7001555491
 31
0.0
  0
LINE
  5
164
  8
0
  6
CONTINUOUS
 62
     4
 10
60.09999999359999
 20
-445.7001555491
 30
0.0
 11
60.09999999269999
 21
-511.2001555491
 31
0.0
  0
LINE
  5
165
  8
0
  6
CONTINUOUS
 62
     4
 10
-473.4943719279
 20
206.2840018212
 30
0.0
 11
-415.4943719265
 21
306.7429486593
 31
0.0
  0
LINE
  5
166
  8
0
  6
CONTINUOUS
 62
     4
 10
-412.7623211189
 20
307.4749994668
 30
0.0
 11
-356.0375224627
 21
274.7249216919
 31
0.0
  0
LINE
  5
167
  8
0
  6
CONTINUOUS
 62
     4
 10
-334.3868873683
 20
262.2249216916
 30
0.0
 11
-277.6623581296
 21
229.4749994649
 31
0.0
  0
LINE
  5
168
  8
0
  6
CONTINUOUS
 62
     4
 10
-276.9303073221
 20
226.7429486573
 30
0.0
 11
-299.5303073227
 21
187.5986004066
 31
0.0
  0
LINE
  5
169
  8
0
  6
CONTINUOUS
 62
     4
 10
-312.230307323
 20
165.6015551506
 30
0.0
 11
-334.9303073235
 21
126.2840018192
 31
0.0
  0
LINE
  5
16A
  8
0
  6
CONTINUOUS
 62
     4
 10
-337.6623581310999
 20
125.5519510116
 30
0.0
 11
-394.3868873698
 21
158.3018732383
 31
0.0
  0
LINE
  5
16B
  8
0
  6
CONTINUOUS
 62
     4
 10
-416.0375224642
 20
170.8018732386
 30
0.0
 11
-472.7623211204
 21
203.5519510136
 31
0.0
  0
LINE
  5
16C
  8
0
  6
CONTINUOUS
 62
     4
 10
415.3943719354
 20
306.9161537281
 30
0.0
 11
473.394371934
 21
206.4572068882
 31
0.0
  0
LINE
  5
16D
  8
0
  6
CONTINUOUS
 62
     4
 10
472.6623211264
 20
203.7251560807
 30
0.0
 11
415.9373877605
 21
170.9750005332
 31
0.0
  0
LINE
  5
16E
  8
0
  6
CONTINUOUS
 62
     4
 10
394.2867526657
 20
158.4750005335
 30
0.0
 11
337.5623581349
 21
125.7251560826
 31
0.0
  0
LINE
  5
16F
  8
0
  6
CONTINUOUS
 62
     4
 10
334.8303073273
 20
126.4572068902
 30
0.0
 11
312.2303073279001
 21
165.6015551416
 31
0.0
  0
LINE
  5
170
  8
0
  6
CONTINUOUS
 62
     4
 10
299.5303073282
 20
187.5986003979
 30
0.0
 11
276.8303073288
 21
226.9161537301
 31
0.0
  0
LINE
  5
171
  8
0
  6
CONTINUOUS
 62
     4
 10
277.5623581364
 20
229.6482045376
 30
0.0
 11
334.2867526672
 21
262.3980489885
 31
0.0
  0
LINE
  5
172
  8
0
  6
CONTINUOUS
 62
     4
 10
355.937387762
 20
274.8980489882
 30
0.0
 11
412.6623211279
 21
307.6482045357
 31
0.0
  0
LINE
  5
173
  8
0
  6
CONTINUOUS
 62
     4
 10
3.099999993599997
 20
-447.3555918055
 30
0.0
 11
-2.900000006399999
 21
-447.3555918054
 31
0.0
  0
LINE
  5
174
  8
0
  6
CONTINUOUS
 62
     4
 10
3.099999993599997
 20
-445.7001555483
 30
0.0
 11
3.099999993100003
 21
-482.6069016721
 31
0.0
  0
LINE
  5
175
  8
0
  6
CONTINUOUS
 62
     4
 10
-2.900000006399999
 20
-445.7001555482
 30
0.0
 11
-2.900000006900001
 21
-482.606901672
 31
0.0
  0
LINE
  5
176
  8
0
  6
CONTINUOUS
 62
     4
 10
3.099999993100003
 20
-481.7298556623
 30
0.0
 11
-2.900000006900001
 21
-481.7298556622
 31
0.0
  0
LINE
  5
177
  8
0
  6
CONTINUOUS
 62
     4
 10
3.099999993100003
 20
-482.6069016721
 30
0.0
 11
-2.900000006900001
 21
-482.606901672
 31
0.0
  0
LINE
  5
178
  8
0
  6
CONTINUOUS
 62
     4
 10
-387.5376571723
 20
220.1653990281
 30
0.0
 11
-419.4998368862
 21
238.6187720904
 31
0.0
  0
LINE
  5
179
  8
0
  6
CONTINUOUS
 62
     4
 10
-388.9713070253
 20
220.9931171567
 30
0.0
 11
-385.9713070252
 21
226.1892695793
 31
0.0
  0
LINE
  5
17A
  8
0
  6
CONTINUOUS
 62
     4
 10
-384.5376571722
 20
225.3615514507
 30
0.0
 11
-416.4998368862
 21
243.8149245131
 31
0.0
  0
LINE
  5
17B
  8
0
  6
CONTINUOUS
 62
     4
 10
-387.5376571723
 20
220.1653990281
 30
0.0
 11
-384.5376571722
 21
225.3615514507
 31
0.0
  0
LINE
  5
17C
  8
0
  6
CONTINUOUS
 62
     4
 10
-418.7402927615
 20
238.1802490855
 30
0.0
 11
-415.7402927614
 21
243.3764015082
 31
0.0
  0
LINE
  5
17D
  8
0
  6
CONTINUOUS
 62
     4
 10
-419.4998368862
 20
238.6187720904
 30
0.0
 11
-416.4998368862
 21
243.8149245131
 31
0.0
  0
LINE
  5
17E
  8
0
  6
CONTINUOUS
 62
     4
 10
385.8713070319
 20
226.3624746489
 30
0.0
 11
388.8713070318
 21
221.1663222262
 31
0.0
  0
LINE
  5
17F
  8
0
  6
CONTINUOUS
 62
     4
 10
384.4376571788
 20
225.5347565204
 30
0.0
 11
387.4376571787
 21
220.3386040976
 31
0.0
  0
LINE
  5
180
  8
0
  6
CONTINUOUS
 62
     4
 10
384.4376571788
 20
225.5347565204
 30
0.0
 11
416.3998368933
 21
243.9881295818
 31
0.0
  0
LINE
  5
181
  8
0
  6
CONTINUOUS
 62
     4
 10
387.4376571787
 20
220.3386040976
 30
0.0
 11
419.3998368932
 21
238.791977159
 31
0.0
  0
LINE
  5
182
  8
0
  6
CONTINUOUS
 62
     4
 10
415.6402927685
 20
243.5496065769
 30
0.0
 11
418.6402927684
 21
238.3534541542
 31
0.0
  0
LINE
  5
183
  8
0
  6
CONTINUOUS
 62
     4
 10
416.3998368933
 20
243.9881295818
 30
0.0
 11
419.3998368932
 21
238.791977159
 31
0.0
  0
LINE
  5
184
  8
0
  6
CONTINUOUS
 62
     4
 10
-18.500000006
 20
-420.700155548
 30
0.0
 11
-18.5000000056
 21
-388.700155548
 31
0.0
  0
LINE
  5
185
  8
0
  6
CONTINUOUS
 62
     4
 10
-12.500000006
 20
-420.700155548
 30
0.0
 11
-12.500000006
 21
-420.2999999998
 31
0.0
  0
LINE
  5
186
  8
0
  6
CONTINUOUS
 62
     4
 10
-18.5000000056
 20
-388.700155548
 30
0.0
 11
-13.0000000055
 21
-383.200155548
 31
0.0
  0
LINE
  5
187
  8
0
  6
CONTINUOUS
 62
     4
 10
-12.7000000055
 20
-383.200155548
 30
0.0
 11
-13.0000000055
 21
-383.200155548
 31
0.0
  0
LINE
  5
188
  8
0
  6
CONTINUOUS
 62
     4
 10
-327.3742091567
 20
210.3715477489
 30
0.0
 11
-325.361069436
 21
202.8584080281
 31
0.0
  0
LINE
  5
189
  8
0
  6
CONTINUOUS
 62
     4
 10
-355.0870220776
 20
226.3715477493
 30
0.0
 11
-327.3742091567
 21
210.3715477489
 31
0.0
  0
LINE
  5
18A
  8
0
  6
CONTINUOUS
 62
     4
 10
-358.0870220776
 20
221.1753953267
 30
0.0
 11
-357.8648470336
 21
221.0471225052
 31
0.0
  0
LINE
  5
18B
  8
0
  6
CONTINUOUS
 62
     4
 10
-325.511069436
 20
202.598600407
 30
0.0
 11
-325.361069436
 21
202.8584080281
 31
0.0
  0
LINE
  5
18C
  8
0
  6
CONTINUOUS
 62
     4
 10
345.8742091624
 20
178.3286077992
 30
0.0
 11
338.3610694416
 21
180.3417475201
 31
0.0
  0
LINE
  5
18D
  8
0
  6
CONTINUOUS
 62
     4
 10
373.5867526662
 20
194.3284522505
 30
0.0
 11
345.8742091624
 21
178.3286077992
 31
0.0
  0
LINE
  5
18E
  8
0
  6
CONTINUOUS
 62
     4
 10
338.2110694416
 20
180.6015551412
 30
0.0
 11
338.3610694416
 21
180.3417475201
 31
0.0
  0
LINE
  5
18F
  8
0
  6
CONTINUOUS
 62
     7
 10
357.9867526666
 20
221.3484448488
 30
0.0
 11
0.0000000002999982
 21
14.6646968375
 31
0.0
  0
LINE
  5
190
  8
0
  6
CONTINUOUS
 62
     7
 10
0.0000000000999982
 20
1.0
 30
0.0
 11
0.0000000002999982
 21
14.6646968375
 31
0.0
  0
LINE
  5
191
  8
0
  6
CONTINUOUS
 62
     7
 10
370.6867526663
 20
199.3513995925
 30
0.0
 11
-0.0000000002
 21
-14.6646968374
 31
0.0
  0
LINE
  5
192
  8
0
  6
CONTINUOUS
 62
     7
 10
-0.0000000002
 20
-14.6646968374
 30
0.0
 11
0.0
 21
-1.0
 31
0.0
  0
LINE
  5
193
  8
0
  6
CONTINUOUS
 62
     7
 10
-257.3243863433
 20
-445.7001555445
 30
0.0
 11
257.3249251656
 21
-445.7001555519
 31
0.0
  0
LINE
  5
194
  8
0
  6
CONTINUOUS
 62
     7
 10
-257.3243863433
 20
-445.7001555445
 30
0.0
 11
-242.8906296132
 21
-420.7001555447
 31
0.0
  0
LINE
  5
195
  8
0
  6
CONTINUOUS
 62
     7
 10
-256.1696858049
 20
-443.7001555445
 30
0.0
 11
256.1702246272
 21
-443.7001555519
 31
0.0
  0
LINE
  5
196
  8
0
  6
CONTINUOUS
 62
     7
 10
242.8911684362
 20
-420.7001555517
 30
0.0
 11
257.3249251656
 21
-445.7001555519
 31
0.0
  0
LINE
  5
197
  8
0
  6
CONTINUOUS
 62
     7
 10
-244.0453301516
 20
-422.7001555447
 30
0.0
 11
244.0458689746
 21
-422.7001555518
 31
0.0
  0
LINE
  5
198
  8
0
  6
CONTINUOUS
 62
     7
 10
-242.8906296132
 20
-420.7001555447
 30
0.0
 11
242.8911684362
 21
-420.7001555517
 31
0.0
  0
LINE
  5
199
  8
0
  6
CONTINUOUS
 62
     7
 10
-514.6497605381
 20
0.0004666523000001
 30
0.0
 11
-257.3243863433
 21
-445.7001555445
 31
0.0
  0
LINE
  5
19A
  8
0
  6
CONTINUOUS
 62
     7
 10
-512.3403594613
 20
0.0004666523000001
 30
0.0
 11
-256.1696858049
 21
-443.7001555445
 31
0.0
  0
LINE
  5
19B
  8
0
  6
CONTINUOUS
 62
     7
 10
-514.6497605381
 20
0.0004666523000001
 30
0.0
 11
-485.7822470786
 21
0.0004666519000001
 31
0.0
  0
LINE
  5
19C
  8
0
  6
CONTINUOUS
 62
     7
 10
-488.0916481553
 20
0.0004666519000001
 30
0.0
 11
-244.0453301516
 21
-422.7001555447
 31
0.0
  0
LINE
  5
19D
  8
0
  6
CONTINUOUS
 62
     7
 10
-485.7822470786
 20
0.0004666519000001
 30
0.0
 11
-242.8906296132
 21
-420.7001555447
 31
0.0
  0
LINE
  5
19E
  8
0
  6
CONTINUOUS
 62
     7
 10
-257.3251047772
 20
445.6998444555
 30
0.0
 11
-514.6497605381
 21
0.0004666523000001
 31
0.0
  0
LINE
  5
19F
  8
0
  6
CONTINUOUS
 62
     7
 10
-256.1704042388
 20
443.6998444555
 30
0.0
 11
-512.3403594613
 21
0.0004666523000001
 31
0.0
  0
LINE
  5
1A0
  8
0
  6
CONTINUOUS
 62
     7
 10
-244.0460485861
 20
422.6998444553
 30
0.0
 11
-488.0916481553
 21
0.0004666519000001
 31
0.0
  0
LINE
  5
1A1
  8
0
  6
CONTINUOUS
 62
     7
 10
-257.3251047772
 20
445.6998444555
 30
0.0
 11
-242.8913480478
 21
420.6998444553
 31
0.0
  0
LINE
  5
1A2
  8
0
  6
CONTINUOUS
 62
     7
 10
-242.8913480478
 20
420.6998444553
 30
0.0
 11
-485.7822470786
 21
0.0004666519000001
 31
0.0
  0
LINE
  5
1A3
  8
0
  6
CONTINUOUS
 62
     7
 10
244.0458689868
 20
422.6998444482
 30
0.0
 11
-244.0460485861
 21
422.6998444553
 31
0.0
  0
LINE
  5
1A4
  8
0
  6
CONTINUOUS
 62
     7
 10
242.8911684484
 20
420.6998444483
 30
0.0
 11
-242.8913480478
 21
420.6998444553
 31
0.0
  0
LINE
  5
1A5
  8
0
  6
CONTINUOUS
 62
     7
 10
257.3249251785001
 20
445.6998444481
 30
0.0
 11
-257.3251047772
 21
445.6998444555
 31
0.0
  0
LINE
  5
1A6
  8
0
  6
CONTINUOUS
 62
     7
 10
256.1702246401
 20
443.6998444481
 30
0.0
 11
-256.1704042388
 21
443.6998444555
 31
0.0
  0
LINE
  5
1A7
  8
0
  6
CONTINUOUS
 62
     7
 10
257.3249251785001
 20
445.6998444481
 30
0.0
 11
242.8911684484
 21
420.6998444483
 31
0.0
  0
LINE
  5
1A8
  8
0
  6
CONTINUOUS
 62
     7
 10
488.0918277671
 20
-0.0001555552999992
 30
0.0
 11
244.0458689868
 21
422.6998444482
 31
0.0
  0
LINE
  5
1A9
  8
0
  6
CONTINUOUS
 62
     7
 10
485.7824266904
 20
-0.0001555551999992
 30
0.0
 11
242.8911684484
 21
420.6998444483
 31
0.0
  0
LINE
  5
1AA
  8
0
  6
CONTINUOUS
 62
     7
 10
514.6499401497999
 20
-0.0001555556999993
 30
0.0
 11
257.3249251785001
 21
445.6998444481
 31
0.0
  0
LINE
  5
1AB
  8
0
  6
CONTINUOUS
 62
     7
 10
512.3405390731
 20
-0.0001555555999992
 30
0.0
 11
256.1702246401
 21
443.6998444481
 31
0.0
  0
LINE
  5
1AC
  8
0
  6
CONTINUOUS
 62
     7
 10
514.6499401497999
 20
-0.0001555556999993
 30
0.0
 11
485.7824266904
 21
-0.0001555551999992
 31
0.0
  0
LINE
  5
1AD
  8
0
  6
CONTINUOUS
 62
     7
 10
256.1702246272
 20
-443.7001555519
 30
0.0
 11
512.3405390731
 21
-0.0001555555999992
 31
0.0
  0
LINE
  5
1AE
  8
0
  6
CONTINUOUS
 62
     7
 10
257.3249251656
 20
-445.7001555519
 30
0.0
 11
514.6499401497999
 21
-0.0001555556999993
 31
0.0
  0
LINE
  5
1AF
  8
0
  6
CONTINUOUS
 62
     7
 10
242.8911684362
 20
-420.7001555517
 30
0.0
 11
485.7824266904
 21
-0.0001555551999992
 31
0.0
  0
LINE
  5
1B0
  8
0
  6
CONTINUOUS
 62
     7
 10
244.0458689746
 20
-422.7001555518
 30
0.0
 11
488.0918277671
 21
-0.0001555552999992
 31
0.0
  0
LINE
  5
1B1
  8
0
  6
CONTINUOUS
 62
     7
 10
-0.0000000001000018
 20
-12.3552957606
 30
0.0
 11
-369.4648470338
 21
200.9553331375
 31
0.0
  0
LINE
  5
1B2
  8
0
  6
CONTINUOUS
 62
     4
 10
-357.7648470335999
 20
221.2203275859
 30
0.0
 11
-370.4648470339
 21
199.22328233
 31
0.0
  0
LINE
  5
1B3
  8
0
  6
CONTINUOUS
 62
     7
 10
0.0000000002
 20
12.3552957607
 30
0.0
 11
-358.7648470335999
 21
219.4882767784
 31
0.0
  0
LINE
  5
1B4
  8
0
  6
CONTINUOUS
 62
     7
 10
0.0000000002999982
 20
14.6646968375
 30
0.0
 11
-357.7648470335999
 21
221.2203275859
 31
0.0
  0
LINE
  5
1B5
  8
0
  6
CONTINUOUS
 62
     7
 10
-0.0000000002
 20
-14.6646968374
 30
0.0
 11
-370.6870220779
 21
199.3515551515
 31
0.0
  0
LINE
  5
1B6
  8
0
  6
CONTINUOUS
 62
     7
 10
-10.700000006
 20
-420.2999999998
 30
0.0
 11
-10.7000000001
 21
-8.487048956899999
 31
0.0
  0
LINE
  5
1B7
  8
0
  6
CONTINUOUS
 62
     7
 10
-12.700000006
 20
-420.2999999998
 30
0.0
 11
-12.7000000001
 21
-7.3323484185
 31
0.0
  0
LINE
  5
1B8
  8
0
  6
CONTINUOUS
 62
     7
 10
12.699999994
 20
-420.7001555484
 30
0.0
 11
12.6999999999
 21
-7.3323484188
 31
0.0
  0
LINE
  5
1B9
  8
0
  6
CONTINUOUS
 62
     7
 10
10.699999994
 20
-420.3000000001
 30
0.0
 11
10.6999999999
 21
-8.487048957199999
 31
0.0
  0
LINE
  5
1BA
  8
0
  6
CONTINUOUS
 62
     4
 10
12.699999994
 20
-420.3000000001
 30
0.0
 11
-12.700000006
 21
-420.2999999998
 31
0.0
  0
LINE
  5
1BB
  8
0
  6
CONTINUOUS
 62
     4
 10
12.699999994
 20
-419.7001555484
 30
0.0
 11
18.699999994
 21
-419.7001555485
 31
0.0
  0
LINE
  5
1BC
  8
0
  6
CONTINUOUS
 62
     4
 10
14.1999999945
 20
-384.2001555484
 30
0.0
 11
12.6999999945
 21
-384.2001555484
 31
0.0
  0
LINE
  5
1BD
  8
0
  6
CONTINUOUS
 62
     4
 10
18.6999999944
 20
-388.7001555485
 30
0.0
 11
13.1999999945
 21
-383.2001555484
 31
0.0
  0
LINE
  5
1BE
  8
0
  6
CONTINUOUS
 62
     4
 10
18.699999994
 20
-420.7001555485
 30
0.0
 11
18.6999999944
 21
-388.7001555485
 31
0.0
  0
LINE
  5
1BF
  8
0
  6
CONTINUOUS
 62
     4
 10
12.6999999945
 20
-383.2001555484
 30
0.0
 11
13.1999999945
 21
-383.2001555484
 31
0.0
  0
LINE
  5
1C0
  8
0
  6
CONTINUOUS
 62
     4
 10
-369.8209966742
 20
198.8515551515
 30
0.0
 11
-372.8209966742
 21
193.6554027288
 31
0.0
  0
LINE
  5
1C1
  8
0
  6
CONTINUOUS
 62
     4
 10
-373.687022078
 20
194.1554027288
 30
0.0
 11
-345.9742091570999
 21
178.1554027284
 31
0.0
  0
LINE
  5
1C2
  8
0
  6
CONTINUOUS
 62
     4
 10
-339.8270948401
 20
179.8025170454
 30
0.0
 11
-339.0770948401
 21
181.101555151
 31
0.0
  0
LINE
  5
1C3
  8
0
  6
CONTINUOUS
 62
     4
 10
-345.9742091570999
 20
178.1554027284
 30
0.0
 11
-338.4610694363
 21
180.1685424491
 31
0.0
  0
LINE
  5
1C4
  8
0
  6
CONTINUOUS
 62
     4
 10
-338.2110694363
 20
180.601555151
 30
0.0
 11
-338.4610694363
 21
180.1685424491
 31
0.0
  0
LINE
  5
1C5
  8
0
  6
CONTINUOUS
 62
     4
 10
357.1209966803
 20
220.8486003971
 30
0.0
 11
354.1209966804
 21
226.0447528198
 31
0.0
  0
LINE
  5
1C6
  8
0
  6
CONTINUOUS
 62
     4
 10
325.6270948457
 20
204.3976385032
 30
0.0
 11
326.3770948457
 21
203.0986003975
 31
0.0
  0
LINE
  5
1C7
  8
0
  6
CONTINUOUS
 62
     4
 10
327.2742091629
 20
210.5447528202
 30
0.0
 11
325.2610694419
 21
203.0316130994
 31
0.0
  0
LINE
  5
1C8
  8
0
  6
CONTINUOUS
 62
     4
 10
354.9867526667
 20
226.5445972715
 30
0.0
 11
327.2742091629
 21
210.5447528202
 31
0.0
  0
LINE
  5
1C9
  8
0
  6
CONTINUOUS
 62
     4
 10
325.5110694419
 20
202.5986003975
 30
0.0
 11
325.2610694419
 21
203.0316130994
 31
0.0
  0
LINE
  5
1CA
  8
0
  6
CONTINUOUS
 62
     4
 10
-12.700000006
 20
-419.700155548
 30
0.0
 11
-18.500000006
 21
-419.700155548
 31
0.0
  0
LINE
  5
1CB
  8
0
  6
CONTINUOUS
 62
     4
 10
-14.0000000055
 20
-384.200155548
 30
0.0
 11
-12.7000000055
 21
-384.200155548
 31
0.0
  0
LINE
  5
1CC
  8
0
  6
CONTINUOUS
 62
     4
 10
-325.7270948397
 20
204.2244334319
 30
0.0
 11
-326.3770948398
 21
203.098600407
 31
0.0
  0
LINE
  5
1CD
  8
0
  6
CONTINUOUS
 62
     4
 10
-357.1209966738
 20
220.8486004074
 30
0.0
 11
-354.2209966738
 21
225.8715477493
 31
0.0
  0
LINE
  5
1CE
  8
0
  6
CONTINUOUS
 62
     4
 10
339.7270948454
 20
179.9757221163
 30
0.0
 11
339.0770948454
 21
181.1015551412
 31
0.0
  0
LINE
  5
1CF
  8
0
  6
CONTINUOUS
 62
     4
 10
369.82099668
 20
198.8515551408
 30
0.0
 11
372.7209966799
 21
193.8286077988
 31
0.0
  0
LINE
  5
1D0
  8
0
  6
CONTINUOUS
 62
     8
 10
358.9867526666
 20
219.6163940412
 30
0.0
 11
0.0000000002
 21
12.3552957607
 31
0.0
  0
LINE
  5
1D1
  8
0
  6
CONTINUOUS
 62
     8
 10
369.6867526663
 20
201.0834504001
 30
0.0
 11
-0.0000000001000018
 21
-12.3552957606
 31
0.0
  0
ARC
  5
1D2
  8
0
  6
CONTINUOUS
 62
     4
 10
-2.652512730200002
 20
-471.0167821228
 30
0.0
 40
0.3499999563660895
 50
135.0000922789982
 51
225.0000702998026
  0
ARC
  5
1D3
  8
0
  6
CONTINUOUS
 62
     4
 10
2.8525122432
 20
-471.0167821317
 30
0.0
 40
0.3499999563660247
 50
314.9999276523021
 51
44.99990567299715
  0
ARC
  5
1D4
  8
0
  6
CONTINUOUS
 62
     4
 10
-2.652512122699999
 20
-457.5117571861
 30
0.0
 40
0.3500000447547205
 50
134.9999979529023
 51
224.9998891574021
  0
ARC
  5
1D5
  8
0
  6
CONTINUOUS
 62
     4
 10
58.09999999269999
 20
-511.2001555491
 30
0.0
 40
1.999999999999829
 50
269.9999999992
 51
359.9999999992004
  0
ARC
  5
1D6
  8
0
  6
CONTINUOUS
 62
     4
 10
-57.9000000073
 20
-511.2001555474
 30
0.0
 40
2.000000000000398
 50
179.9999999992004
 51
269.9999999991998
  0
ARC
  5
1D7
  8
0
  6
CONTINUOUS
 62
     4
 10
-57.9000000051
 20
-355.2001555474
 30
0.0
 40
1.999999999999829
 50
89.99999999920003
 51
179.9999999992004
  0
ARC
  5
1D8
  8
0
  6
CONTINUOUS
 62
     4
 10
58.0999999949
 20
-355.2001555491
 30
0.0
 40
2.000000000000412
 50
359.9999999992004
 51
89.99999999920003
  0
ARC
  5
1D9
  8
0
  6
CONTINUOUS
 62
     4
 10
2.8525125884
 20
-457.511756725
 30
0.0
 40
0.3500000447539374
 50
314.9999999992031
 51
44.99999999920055
  0
ARC
  5
1DA
  8
0
  6
CONTINUOUS
 62
     4
 10
-471.7623211203
 20
205.2840018211
 30
0.0
 40
1.999999999999766
 50
149.9999999991995
 51
239.9999999992006
  0
ARC
  5
1DB
  8
0
  6
CONTINUOUS
 62
     4
 10
-413.7623211189
 20
305.7429486593
 30
0.0
 40
2.000000000000507
 50
59.99999999920008
 51
149.9999999992001
  0
ARC
  5
1DC
  8
0
  6
CONTINUOUS
 62
     4
 10
-336.6623581310999
 20
127.2840018192
 30
0.0
 40
2.000000000000441
 50
239.9999999992003
 51
329.9999999991999
  0
ARC
  5
1DD
  8
0
  6
CONTINUOUS
 62
     4
 10
-397.6430601480999
 20
226.2855299965
 30
0.0
 40
0.3500000447539076
 50
194.9999999991989
 51
284.9999999992023
  0
ARC
  5
1DE
  8
0
  6
CONTINUOUS
 62
     4
 10
-394.8905481918
 20
231.0530214753
 30
0.0
 40
0.3500000447545986
 50
14.99999795289735
 51
104.9998891573996
  0
ARC
  5
1DF
  8
0
  6
CONTINUOUS
 62
     4
 10
-406.586242562
 20
237.8055344698
 30
0.0
 40
0.3499999563660223
 50
15.00009227900139
 51
105.0000702997963
  0
ARC
  5
1E0
  8
0
  6
CONTINUOUS
 62
     4
 10
-278.6623581297
 20
227.7429486573
 30
0.0
 40
1.999999999999854
 50
329.9999999992003
 51
59.9999999992004
  0
ARC
  5
1E1
  8
0
  6
CONTINUOUS
 62
     4
 10
-409.3387550564
 20
233.0380429987
 30
0.0
 40
0.349999956365995
 50
194.9999276523002
 51
284.9999056729957
  0
ARC
  5
1E2
  8
0
  6
CONTINUOUS
 62
     4
 10
409.2387552924
 20
233.2112476532
 30
0.0
 40
0.3499999563662052
 50
255.0000922791023
 51
345.0000702997978
  0
ARC
  5
1E3
  8
0
  6
CONTINUOUS
 62
     4
 10
406.4862428133
 20
237.9787391331
 30
0.0
 40
0.3499999563657387
 50
74.9999276522979
 51
164.9999056730973
  0
ARC
  5
1E4
  8
0
  6
CONTINUOUS
 62
     4
 10
394.7905475599
 20
231.2262267287
 30
0.0
 40
0.3500000447539874
 50
74.99999999920094
 51
164.999999999201
  0
ARC
  5
1E5
  8
0
  6
CONTINUOUS
 62
     4
 10
413.6623211278
 20
305.9161537281
 30
0.0
 40
1.999999999999795
 50
29.9999999992005
 51
119.9999999992005
  0
ARC
  5
1E6
  8
0
  6
CONTINUOUS
 62
     4
 10
471.6623211264
 20
205.4572068882
 30
0.0
 40
2.00000000000052
 50
299.9999999992
 51
29.9999999992
  0
ARC
  5
1E7
  8
0
  6
CONTINUOUS
 62
     4
 10
336.5623581349
 20
127.4572068902
 30
0.0
 40
1.999999999999858
 50
209.9999999992004
 51
299.9999999991997
  0
ARC
  5
1E8
  8
0
  6
CONTINUOUS
 62
     4
 10
278.5623581363
 20
227.91615373
 30
0.0
 40
2.000000000000401
 50
119.9999999991998
 51
209.9999999992002
  0
ARC
  5
1E9
  8
0
  6
CONTINUOUS
 62
     4
 10
397.5430603147
 20
226.4587357109
 30
0.0
 40
0.3500000447546391
 50
254.9999979528975
 51
344.9998891573995
  0
ENDSEC
  0
EOF
