  0
SECTION
  2
HEADER
  9
$ACADVER
  1
AC1009
  9
$DWGCODEPAGE
  3
ansi_1252
  9
$INSBASE
 10
0.0
 20
0.0
 30
0.0
  9
$EXTMIN
 10
98.77982209289644
 20
8.549695609300016
 30
0.0
  9
$EXTMAX
 10
556.2986227406412
 20
252.8536719100441
 30
0.0
  9
$LIMMIN
 10
0.0
 20
0.0
  9
$LIMMAX
 10
420.0
 20
297.0
  9
$ORTHOMODE
 70
     0
  9
$REGENMODE
 70
     1
  9
$FILLMODE
 70
     1
  9
$QTEXTMODE
 70
     0
  9
$MIRRTEXT
 70
     1
  9
$DRAGMODE
 70
     2
  9
$LTSCALE
 40
1.0
  9
$OSMODE
 70
 15295
  9
$ATTMODE
 70
     1
  9
$TEXTSIZE
 40
3.5
  9
$TRACEWID
 40
1.0
  9
$TEXTSTYLE
  7
STANDARD
  9
$CLAYER
  8
0
  9
$CELTYPE
  6
BYLAYER
  9
$CECOLOR
 62
   256
  9
$DIMSCALE
 40
1.0
  9
$DIMASZ
 40
3.302
  9
$DIMEXO
 40
1.0
  9
$DIMDLI
 40
3.75
  9
$DIMRND
 40
0.0
  9
$DIMDLE
 40
0.0
  9
$DIMEXE
 40
1.0
  9
$DIMTP
 40
0.0
  9
$DIMTM
 40
0.0
  9
$DIMTXT
 40
3.5
  9
$DIMCEN
 40
2.5
  9
$DIMTSZ
 40
0.0
  9
$DIMTOL
 70
     0
  9
$DIMLIM
 70
     0
  9
$DIMTIH
 70
     1
  9
$DIMTOH
 70
     1
  9
$DIMSE1
 70
     0
  9
$DIMSE2
 70
     0
  9
$DIMTAD
 70
     1
  9
$DIMZIN
 70
     0
  9
$DIMBLK
  1

  9
$DIMASO
 70
     1
  9
$DIMSHO
 70
     1
  9
$DIMPOST
  1

  9
$DIMAPOST
  1

  9
$DIMALT
 70
     0
  9
$DIMALTD
 70
     3
  9
$DIMALTF
 40
0.0393700787
  9
$DIMLFAC
 40
1.0
  9
$DIMTOFL
 70
     1
  9
$DIMTVP
 40
0.0
  9
$DIMTIX
 70
     0
  9
$DIMSOXD
 70
     0
  9
$DIMSAH
 70
     0
  9
$DIMBLK1
  1

  9
$DIMBLK2
  1

  9
$DIMSTYLE
  2
ISO-25
  9
$DIMCLRD
 70
     0
  9
$DIMCLRE
 70
     0
  9
$DIMCLRT
 70
     0
  9
$DIMTFAC
 40
1.0
  9
$DIMGAP
 40
1.524
  9
$LUNITS
 70
     2
  9
$LUPREC
 70
     2
  9
$SKETCHINC
 40
1.0
  9
$FILLETRAD
 40
10.0
  9
$AUNITS
 70
     0
  9
$AUPREC
 70
     2
  9
$MENU
  1
.
  9
$ELEVATION
 40
0.0
  9
$PELEVATION
 40
0.0
  9
$THICKNESS
 40
0.0
  9
$LIMCHECK
 70
     0
  9
$CHAMFERA
 40
0.0
  9
$CHAMFERB
 40
0.0
  9
$SKPOLY
 70
     0
  9
$TDCREATE
 40
2458798.756994734
  9
$TDUPDATE
 40
2458833.779692836
  9
$TDINDWG
 40
0.2073395139
  9
$TDUSRTIMER
 40
2458833.779612257
  9
$USRTIMER
 70
     1
  9
$ANGBASE
 50
0.0
  9
$ANGDIR
 70
     0
  9
$PDMODE
 70
     0
  9
$PDSIZE
 40
-1.0
  9
$PLINEWID
 40
0.0
  9
$COORDS
 70
     1
  9
$SPLFRAME
 70
     0
  9
$SPLINETYPE
 70
     6
  9
$SPLINESEGS
 70
     8
  9
$ATTDIA
 70
     0
  9
$ATTREQ
 70
     1
  9
$HANDLING
 70
     1
  9
$HANDSEED
  5
593
  9
$SURFTAB1
 70
     6
  9
$SURFTAB2
 70
     6
  9
$SURFTYPE
 70
     6
  9
$SURFU
 70
     6
  9
$SURFV
 70
     6
  9
$UCSNAME
  2

  9
$UCSORG
 10
0.0
 20
0.0
 30
0.0
  9
$UCSXDIR
 10
1.0
 20
0.0
 30
0.0
  9
$UCSYDIR
 10
0.0
 20
1.0
 30
0.0
  9
$PUCSNAME
  2

  9
$PUCSORG
 10
0.0
 20
0.0
 30
0.0
  9
$PUCSXDIR
 10
1.0
 20
0.0
 30
0.0
  9
$PUCSYDIR
 10
0.0
 20
1.0
 30
0.0
  9
$USERI1
 70
     0
  9
$USERI2
 70
     0
  9
$USERI3
 70
     0
  9
$USERI4
 70
     0
  9
$USERI5
 70
     0
  9
$USERR1
 40
0.0
  9
$USERR2
 40
0.0
  9
$USERR3
 40
0.0
  9
$USERR4
 40
0.0
  9
$USERR5
 40
0.0
  9
$WORLDVIEW
 70
     1
  9
$SHADEDGE
 70
     3
  9
$SHADEDIF
 70
    70
  9
$TILEMODE
 70
     1
  9
$MAXACTVP
 70
    64
  9
$PLIMCHECK
 70
     0
  9
$PEXTMIN
 10
1.000000000000000E+20
 20
1.000000000000000E+20
 30
1.000000000000000E+20
  9
$PEXTMAX
 10
-1.000000000000000E+20
 20
-1.000000000000000E+20
 30
-1.000000000000000E+20
  9
$PLIMMIN
 10
0.0
 20
0.0
  9
$PLIMMAX
 10
0.0
 20
0.0
  9
$UNITMODE
 70
     0
  9
$VISRETAIN
 70
     1
  9
$PLINEGEN
 70
     0
  9
$PSLTSCALE
 70
     1
  0
ENDSEC
  0
SECTION
  2
TABLES
  0
TABLE
  2
VPORT
 70
     1
  0
VPORT
  2
*ACTIVE
 70
     0
 10
0.0
 20
0.0
 11
1.0
 21
1.0
 12
302.2815338158317
 22
52.47869085841084
 13
0.0
 23
0.0
 14
10.0
 24
10.0
 15
10.0
 25
10.0
 16
0.0
 26
0.0
 36
1.0
 17
0.0
 27
0.0
 37
0.0
 40
486.6993277865232
 41
2.295798319327731
 42
50.0
 43
0.0
 44
0.0
 50
0.0
 51
0.0
 71
    16
 72
   100
 73
     1
 74
     3
 75
     0
 76
     0
 77
     0
 78
     0
  0
ENDTAB
  0
TABLE
  2
LTYPE
 70
     6
  0
LTYPE
  2
CONTINUOUS
 70
     0
  3
Solid line
 72
    65
 73
     0
 40
0.0
  0
LTYPE
  2
HIDDEN
 70
     0
  3
Hidden __ __ __ __ __ __ __ __ __ __ __ __ __ __
 72
    65
 73
     2
 40
1.905
 49
1.27
 49
-0.635
  0
LTYPE
  2
PHANTOM
 70
     0
  3
Phantom ______  __  __  ______  __  __  ______
 72
    65
 73
     6
 40
12.7
 49
6.35
 49
-1.27
 49
1.27
 49
-1.27
 49
1.27
 49
-1.27
  0
LTYPE
  2
CENTER
 70
     0
  3
Center ____ _ ____ _ ____ _ ____ _ ____ _ ____
 72
    65
 73
     4
 40
10.16
 49
6.35
 49
-1.27
 49
1.27
 49
-1.27
  0
LTYPE
  2
CENTERX2
 70
     0
  3
Center (2x) ________  __  ________  __  _____
 72
    65
 73
     4
 40
20.32
 49
12.7
 49
-2.54
 49
2.54
 49
-2.54
  0
LTYPE
  2
DOT2
 70
     0
  3
Dot (.5x) ........................................
 72
    65
 73
     2
 40
0.635
 49
0.0
 49
-0.635
  0
ENDTAB
  0
TABLE
  2
LAYER
 70
     3
  0
LAYER
  2
0
 70
     0
 62
     7
  6
CONTINUOUS
  0
LAYER
  2
DIMENSION
 70
     0
 62
    -2
  6
CENTER
  0
LAYER
  2
DEFPOINTS
 70
     0
 62
     7
  6
CONTINUOUS
  0
ENDTAB
  0
TABLE
  2
STYLE
 70
     1
  0
STYLE
  2
STANDARD
 70
     0
 40
0.0
 41
1.0
 50
0.0
 71
     0
 42
3.5
  3
txt
  4

  0
ENDTAB
  0
TABLE
  2
VIEW
 70
     0
  0
ENDTAB
  0
TABLE
  2
UCS
 70
     0
  0
ENDTAB
  0
TABLE
  2
APPID
 70
     3
  0
APPID
  2
ACAD
 70
     0
  0
APPID
  2
ACAECLAYERSTANDARD
 70
     0
  0
APPID
  2
ACAD_DSTYLE_DIMRADIAL_EXTE
 70
     0
  0
ENDTAB
  0
TABLE
  2
DIMSTYLE
 70
     1
  0
DIMSTYLE
  2
ISO-25
 70
     0
  3

  4

  5

  6

  7

 40
1.0
 41
2.5
 42
0.625
 43
3.75
 44
1.25
 45
0.0
 46
0.0
 47
0.0
 48
0.0
140
2.5
141
2.5
142
0.0
143
0.0393700787
144
1.0
145
0.0
146
1.0
147
0.625
 71
     0
 72
     0
 73
     0
 74
     0
 75
     0
 76
     0
 77
     1
 78
     8
170
     0
171
     3
172
     1
173
     0
174
     0
175
     0
176
     0
177
     0
178
     0
  0
ENDTAB
  0
ENDSEC
  0
SECTION
  2
BLOCKS
  0
BLOCK
  8
0
  2
$MODEL_SPACE
 70
     0
 10
0.0
 20
0.0
 30
0.0
  3
$MODEL_SPACE
  1

  0
ENDBLK
  5
21
  8
0
  0
BLOCK
 67
     1
  8
0
  2
$PAPER_SPACE
 70
     0
 10
0.0
 20
0.0
 30
0.0
  3
$PAPER_SPACE
  1

  0
ENDBLK
  5
1D
 67
     1
  8
0
  0
BLOCK
  8
0
  2
*D0
 70
     1
 10
0.0
 20
0.0
 30
0.0
  3
*D0
  1

  0
LINE
  5
300
  8
DIMENSION
 62
     0
 10
158.72334516374
 20
236.8054614901303
 30
0.0
 11
159.0439680867437
 21
241.8933692075761
 31
0.0
  0
TEXT
  5
301
  8
DIMENSION
  6
CONTINUOUS
 62
     0
 10
161.1834436024623
 20
228.3957874635837
 30
0.0
 40
3.5
  1
\U+22058.40
  0
LINE
  5
302
  8
DIMENSION
 62
     0
 10
159.0439680867437
 20
241.8933692075761
 30
0.0
 11
158.5156760990562
 21
233.5099983118239
 31
0.0
  0
SOLID
  5
303
  8
DIMENSION
 62
     0
 10
159.385542885111
 20
238.5632945184891
 30
0.0
 11
158.2870551590089
 21
238.6325175400504
 31
0.0
 12
159.0439680867437
 22
241.8933692075761
 32
0.0
 13
159.0439680867437
 23
241.8933692075761
 33
0.0
  0
SOLID
  5
304
  8
DIMENSION
 62
     0
 10
158.174101300689
 20
236.8400730009109
 30
0.0
 11
159.2725890267911
 21
236.7708499793496
 31
0.0
 12
158.5156760990562
 22
233.5099983118239
 32
0.0
 13
158.5156760990562
 23
233.5099983118239
 33
0.0
  0
POINT
  5
305
  8
DEFPOINTS
 62
     0
 10
158.5156760990562
 20
233.5099983118239
 30
0.0
  0
POINT
  5
306
  8
DEFPOINTS
 62
     0
 10
159.0439680867437
 20
241.8933692075761
 30
0.0
  0
ENDBLK
  5
2FF
  8
0
  0
BLOCK
  8
0
  2
*D1
 70
     1
 10
0.0
 20
0.0
 30
0.0
  3
*D1
  1

  0
LINE
  5
30D
  8
DIMENSION
 62
     0
 10
201.7741480607753
 20
167.3348943905973
 30
0.0
 11
202.6479424899468
 21
162.5154662818328
 31
0.0
  0
TEXT
  5
30E
  8
DIMENSION
  6
CONTINUOUS
 62
     0
 10
195.2114974443436
 20
175.5214268785066
 30
0.0
 40
3.5
  1
\U+22058.20
  0
LINE
  5
30F
  8
DIMENSION
 62
     0
 10
202.6479424899468
 20
162.5154662818328
 30
0.0
 11
201.1850771736532
 21
170.5839249367672
 31
0.0
  0
SOLID
  5
310
  8
DIMENSION
 62
     0
 10
201.5173665117964
 20
165.6663183468157
 30
0.0
 11
202.600376693853
 21
165.8626753091897
 31
0.0
 12
202.6479424899468
 22
162.5154662818328
 32
0.0
 13
202.6479424899468
 23
162.5154662818328
 33
0.0
  0
SOLID
  5
311
  8
DIMENSION
 62
     0
 10
202.3156531518036
 20
167.4330728717843
 30
0.0
 11
201.232642969747
 21
167.2367159094103
 31
0.0
 12
201.1850771736532
 22
170.5839249367672
 32
0.0
 13
201.1850771736532
 23
170.5839249367672
 33
0.0
  0
POINT
  5
312
  8
DEFPOINTS
 62
     0
 10
201.1850771736532
 20
170.5839249367672
 30
0.0
  0
POINT
  5
313
  8
DEFPOINTS
 62
     0
 10
202.6479424899468
 20
162.5154662818328
 30
0.0
  0
ENDBLK
  5
30C
  8
0
  0
BLOCK
  8
0
  2
*D2
 70
     1
 10
0.0
 20
0.0
 30
0.0
  3
*D2
  1

  0
LINE
  5
31A
  8
DIMENSION
 62
     0
 10
114.4723850258723
 20
65.30666949409388
 30
0.0
 11
116.0226560752884
 21
60.6604814142437
 31
0.0
  0
TEXT
  5
31B
  8
DIMENSION
  6
CONTINUOUS
 62
     0
 10
108.8325915380296
 20
71.34323127028553
 30
0.0
 40
3.5
  1
\U+22058.20
  0
LINE
  5
31C
  8
DIMENSION
 62
     0
 10
116.0226560752884
 20
60.6604814142437
 30
0.0
 11
113.4272655883116
 21
68.4389098043563
 31
0.0
  0
SOLID
  5
31D
  8
DIMENSION
 62
     0
 10
114.4554965860173
 20
63.61853515157934
 30
0.0
 11
115.4995766894382
 21
63.9669082974329
 31
0.0
 12
116.0226560752884
 22
60.6604814142437
 32
0.0
 13
116.0226560752884
 23
60.6604814142437
 33
0.0
  0
SOLID
  5
31E
  8
DIMENSION
 62
     0
 10
114.9944250775827
 20
65.48085606702067
 30
0.0
 11
113.9503449741619
 21
65.1324829211671
 31
0.0
 12
113.4272655883116
 22
68.4389098043563
 32
0.0
 13
113.4272655883116
 23
68.4389098043563
 33
0.0
  0
POINT
  5
31F
  8
DEFPOINTS
 62
     0
 10
113.4272655883116
 20
68.4389098043563
 30
0.0
  0
POINT
  5
320
  8
DEFPOINTS
 62
     0
 10
116.0226560752884
 20
60.6604814142437
 30
0.0
  0
ENDBLK
  5
319
  8
0
  0
BLOCK
  8
0
  2
*D3
 70
     1
 10
0.0
 20
0.0
 30
0.0
  3
*D3
  1

  0
LINE
  5
33C
  8
DIMENSION
 62
     0
 10
169.2269093318
 20
212.5330536093
 30
0.0
 11
171.5093195390173
 21
212.5330536093
 31
0.0
  0
LINE
  5
33D
  8
DIMENSION
 62
     0
 10
169.2995023318
 20
121.5430406093
 30
0.0
 11
171.5093195390173
 21
121.5430406093
 31
0.0
  0
LINE
  5
33E
  8
DIMENSION
 62
     0
 10
170.5093195390173
 20
209.2310536093
 30
0.0
 11
170.5093195390173
 21
170.3120471093
 31
0.0
  0
LINE
  5
33F
  8
DIMENSION
 62
     0
 10
170.5093195390173
 20
124.8450406093
 30
0.0
 11
170.5093195390173
 21
163.7640471093
 31
0.0
  0
SOLID
  5
340
  8
DIMENSION
 62
     0
 10
171.0596528723506
 20
209.2310536093
 30
0.0
 11
169.9589862056839
 21
209.2310536093
 31
0.0
 12
170.5093195390173
 22
212.5330536093
 32
0.0
 13
170.5093195390173
 23
212.5330536093
 33
0.0
  0
SOLID
  5
341
  8
DIMENSION
 62
     0
 10
169.9589862056839
 20
124.8450406093
 30
0.0
 11
171.0596528723506
 21
124.8450406093
 31
0.0
 12
170.5093195390173
 22
121.5430406093
 32
0.0
 13
170.5093195390173
 23
121.5430406093
 33
0.0
  0
TEXT
  5
342
  8
DIMENSION
  6
CONTINUOUS
 62
     0
 10
166.1343195390173
 20
165.2880471093
 30
0.0
 40
3.5
  1
91.0
  0
POINT
  5
343
  8
DEFPOINTS
 62
     0
 10
168.2269093318
 20
212.5330536093
 30
0.0
  0
POINT
  5
344
  8
DEFPOINTS
 62
     0
 10
168.2995023318
 20
121.5430406093
 30
0.0
  0
POINT
  5
345
  8
DEFPOINTS
 62
     0
 10
170.5093195390173
 20
121.5430406093
 30
0.0
  0
ENDBLK
  5
33B
  8
0
  0
BLOCK
  8
0
  2
UPPER_BALL_JOINT_BASE
 70
     0
 10
0.0
 20
0.0
 30
0.0
  3
UPPER_BALL_JOINT_BASE
  1

  0
CIRCLE
  5
415
  8
0
  6
CONTINUOUS
 62
     7
 10
158.7798220929
 20
237.7016837597
 30
0.0
 40
4.200000000000017
  0
ARC
  5
416
  8
0
  6
CONTINUOUS
 62
     7
 10
180.4794223318
 20
212.7805406093
 30
0.0
 40
0.3499998254646079
 50
224.9999421225004
 51
44.9999421225004
  0
LINE
  5
417
  8
0
  6
CONTINUOUS
 62
     7
 10
156.2218838318
 20
212.5330536093
 30
0.0
 11
180.2319348318
 21
212.5330536093
 31
0.0
  0
ARC
  5
418
  8
0
  6
CONTINUOUS
 62
     7
 10
155.9743968318
 20
212.7805406093
 30
0.0
 40
0.3499994719110597
 50
135.0
 51
314.9999999999967
  0
LINE
  5
419
  8
0
  6
CONTINUOUS
 62
     7
 10
155.7269098318
 20
218.0380786093
 30
0.0
 11
155.7269098318
 21
213.0280276093
 31
0.0
  0
ARC
  5
41A
  8
0
  6
CONTINUOUS
 62
     7
 10
155.9743968318
 20
218.2855661093
 30
0.0
 40
0.3499998254646682
 50
45.0000578775029
 51
225.0000578775029
  0
LINE
  5
41B
  8
0
  6
CONTINUOUS
 62
     7
 10
180.2319348318
 20
218.5330536093
 30
0.0
 11
156.2218838318
 21
218.5330536093
 31
0.0
  0
ARC
  5
41C
  8
0
  6
CONTINUOUS
 62
     7
 10
180.4794223318
 20
218.2855661093
 30
0.0
 40
0.3500001790178592
 50
315.0
 51
135.0
  0
LINE
  5
41D
  8
0
  6
CONTINUOUS
 62
     7
 10
180.7269098318
 20
213.0280276093
 30
0.0
 11
180.7269098318
 21
218.0380786093
 31
0.0
  0
ARC
  5
41E
  8
0
  6
CONTINUOUS
 62
     7
 10
160.5852483318
 20
109.7555566093
 30
0.0
 40
0.3499994719109492
 50
224.9999999999984
 51
44.99999999999836
  0
LINE
  5
41F
  8
0
  6
CONTINUOUS
 62
     7
 10
136.3277103318
 20
109.5080696093
 30
0.0
 11
160.3377613318
 21
109.5080696093
 31
0.0
  0
ARC
  5
420
  8
0
  6
CONTINUOUS
 62
     7
 10
136.0802228318
 20
109.7555566093
 30
0.0
 40
0.3499998254646581
 50
135.0000578774996
 51
315.0000578774996
  0
LINE
  5
421
  8
0
  6
CONTINUOUS
 62
     7
 10
135.8327353318
 20
115.0130946093
 30
0.0
 11
135.8327353318
 21
110.0030436093
 31
0.0
  0
ARC
  5
422
  8
0
  6
CONTINUOUS
 62
     7
 10
136.0802228318
 20
115.2605821093
 30
0.0
 40
0.3500001790178994
 50
45.0
 51
225.0
  0
LINE
  5
423
  8
0
  6
CONTINUOUS
 62
     7
 10
155.8403076415
 20
115.5080696093
 30
0.0
 11
136.3277103318
 21
115.5080696093
 31
0.0
  0
ARC
  5
424
  8
0
  6
CONTINUOUS
 62
     7
 10
156.0469893318
 20
115.7905281093
 30
0.0
 40
0.3500001790178894
 50
135.0
 51
233.8061666070021
  0
LINE
  5
425
  8
0
  6
CONTINUOUS
 62
     7
 10
155.7995018318
 20
121.0480656093
 30
0.0
 11
155.7995018318
 21
116.0380156093
 31
0.0
  0
ARC
  5
426
  8
0
  6
CONTINUOUS
 62
     7
 10
156.0469893318
 20
121.2955531093
 30
0.0
 40
0.3500001790178592
 50
45.0
 51
225.0
  0
LINE
  5
427
  8
0
  6
CONTINUOUS
 62
     7
 10
180.3045278318
 20
121.5430406093
 30
0.0
 11
156.2944768318
 21
121.5430406093
 31
0.0
  0
ARC
  5
428
  8
0
  6
CONTINUOUS
 62
     7
 10
180.5520148318
 20
121.2955531093
 30
0.0
 40
0.3499998254644873
 50
314.9999421225004
 51
134.9999421225004
  0
LINE
  5
429
  8
0
  6
CONTINUOUS
 62
     7
 10
180.7995018318
 20
116.0380156093
 30
0.0
 11
180.7995018318
 21
121.0480656093
 31
0.0
  0
ARC
  5
42A
  8
0
  6
CONTINUOUS
 62
     7
 10
180.5520148318
 20
115.7905281093
 30
0.0
 40
0.3499998254645577
 50
225.000057877498
 51
45.0000578774996
  0
LINE
  5
42B
  8
0
  6
CONTINUOUS
 62
     7
 10
160.7919294233
 20
115.5430406093
 30
0.0
 11
180.3045278318
 21
115.5430406093
 31
0.0
  0
ARC
  5
42C
  8
0
  6
CONTINUOUS
 62
     7
 10
160.5852483318
 20
115.2605821093
 30
0.0
 40
0.3499998254645141
 50
314.999942122502
 51
53.80624570450119
  0
LINE
  5
42D
  8
0
  6
CONTINUOUS
 62
     7
 10
160.8327353318
 20
110.0030436093
 30
0.0
 11
160.8327353318
 21
115.0130946093
 31
0.0
  0
ARC
  5
42E
  8
0
  6
CONTINUOUS
 62
     7
 10
160.5852483318
 20
12.8754601093
 30
0.0
 40
0.3499998254645262
 50
225.0000578774994
 51
45.0000578774996
  0
LINE
  5
42F
  8
0
  6
CONTINUOUS
 62
     7
 10
136.3277103318
 20
12.6279726093
 30
0.0
 11
160.3377613318
 21
12.6279726093
 31
0.0
  0
ARC
  5
430
  8
0
  6
CONTINUOUS
 62
     7
 10
136.0802228318
 20
12.8754601093
 30
0.0
 40
0.3500001790178981
 50
135.0000000000002
 51
315.0
  0
LINE
  5
431
  8
0
  6
CONTINUOUS
 62
     7
 10
135.8327353318
 20
18.1329976093
 30
0.0
 11
135.8327353318
 21
13.1229476093
 31
0.0
  0
ARC
  5
432
  8
0
  6
CONTINUOUS
 62
     7
 10
136.0802228318
 20
18.3804851093
 30
0.0
 40
0.3500001790178592
 50
45.0
 51
225.0
  0
LINE
  5
433
  8
0
  6
CONTINUOUS
 62
     7
 10
160.3377613318
 20
18.6279726093
 30
0.0
 11
136.3277103318
 21
18.6279726093
 31
0.0
  0
ARC
  5
434
  8
0
  6
CONTINUOUS
 62
     7
 10
160.5852483318
 20
18.3804851093
 30
0.0
 40
0.3499998254644923
 50
314.9999421224996
 51
134.9999421224996
  0
LINE
  5
435
  8
0
  6
CONTINUOUS
 62
     7
 10
160.8327353318
 20
13.1229476093
 30
0.0
 11
160.8327353318
 21
18.1329976093
 31
0.0
  0
CIRCLE
  5
436
  8
0
  6
CONTINUOUS
 62
     7
 10
114.7249608318
 20
64.5496956093
 30
0.0
 40
4.099999999999987
  0
CIRCLE
  5
437
  8
0
  6
CONTINUOUS
 62
     7
 10
201.9165098318
 20
166.5496956093
 30
0.0
 40
4.099999999999994
  0
LINE
  5
438
  8
0
  6
CONTINUOUS
 62
     7
 10
218.7798220929
 20
220.5496956093
 30
0.0
 11
218.7798220929
 21
10.5496956093
 31
0.0
  0
ARC
  5
439
  8
0
  6
CONTINUOUS
 62
     7
 10
158.7798220929
 20
180.9809890921
 30
0.0
 40
71.87268281794415
 50
33.4039904522
 51
146.5960095478
  0
LINE
  5
43A
  8
0
  6
CONTINUOUS
 62
     7
 10
98.7798220929
 20
10.5496956093
 30
0.0
 11
98.7798220929
 21
220.5496956093
 31
0.0
  0
ARC
  5
43B
  8
0
  6
CONTINUOUS
 62
     7
 10
100.7798220929
 20
10.5496956093
 30
0.0
 40
1.999999999999988
 50
180.0
 51
270.0
  0
LINE
  5
43C
  8
0
  6
CONTINUOUS
 62
     7
 10
216.7798220929
 20
8.5496956093
 30
0.0
 11
100.7798220929
 21
8.5496956093
 31
0.0
  0
ARC
  5
43D
  8
0
  6
CONTINUOUS
 62
     7
 10
216.7798220929
 20
10.5496956093
 30
0.0
 40
2.000000000000002
 50
270.0
 51
0.0
  0
DIMENSION
  5
43E
  8
DIMENSION
  2
*D5
 10
159.0439680867437
 20
241.8933692075761
 30
0.0
 11
167.8917769357956
 21
230.1457874635837
 31
0.0
 70
   163
  3
ISO-25
 15
158.5156760990562
 25
233.5099983118239
 35
0.0
 40
0.0
1001
ACAD
1000
DSTYLE
1002
{
1070
   287
1070
     5
1070
    41
1040
3.302
1070
   271
1070
     2
1070
    44
1040
1.0
1070
    42
1040
1.0
1070
   147
1040
1.524
1070
   272
1070
     2
1070
    73
1070
     1
1070
   279
1070
     2
1070
    74
1070
     1
1070
   140
1040
3.5
1070
    78
1070
     0
1002
}
1001
ACAD_DSTYLE_DIMRADIAL_EXTE
1070
   387
1070
     1
1070
   388
1040
0.0
1070
   390
1040
6.283185307179586
  0
DIMENSION
  5
43F
  8
DIMENSION
  2
*D6
 10
202.6479424899468
 20
162.5154662818328
 30
0.0
 11
201.9198307776769
 21
177.2714268785066
 31
0.0
 70
   163
  3
ISO-25
 15
201.1850771736532
 25
170.5839249367672
 35
0.0
 40
0.0
1001
ACAD
1000
DSTYLE
1002
{
1070
   287
1070
     5
1070
    41
1040
3.302
1070
   271
1070
     2
1070
    44
1040
1.0
1070
    42
1040
1.0
1070
   147
1040
1.524
1070
   272
1070
     2
1070
    73
1070
     1
1070
   279
1070
     2
1070
    74
1070
     1
1070
   140
1040
3.5
1070
    78
1070
     0
1002
}
1001
ACAD_DSTYLE_DIMRADIAL_EXTE
1070
   387
1070
     1
1070
   388
1040
0.0
1070
   390
1040
6.283185307179586
  0
DIMENSION
  5
440
  8
DIMENSION
  2
*D7
 10
116.0226560752884
 20
60.6604814142437
 30
0.0
 11
115.5409248713629
 21
73.09323127028553
 31
0.0
 70
   163
  3
ISO-25
 15
113.4272655883116
 25
68.4389098043563
 35
0.0
 40
0.0
1001
ACAD
1000
DSTYLE
1002
{
1070
   287
1070
     5
1070
    41
1040
3.302
1070
   271
1070
     2
1070
    44
1040
1.0
1070
    42
1040
1.0
1070
   147
1040
1.524
1070
   272
1070
     2
1070
    73
1070
     1
1070
   279
1070
     2
1070
    74
1070
     1
1070
   140
1040
3.5
1070
    78
1070
     0
1002
}
1001
ACAD_DSTYLE_DIMRADIAL_EXTE
1070
   387
1070
     1
1070
   388
1040
0.0
1070
   390
1040
6.283185307179586
  0
DIMENSION
  5
441
  8
DIMENSION
  2
*D8
 10
170.5093195390173
 20
121.5430406093
 30
0.0
 11
170.5093195390173
 21
167.0380471093
 31
0.0
 70
    32
  3
ISO-25
 13
168.2269093318
 23
212.5330536093
 33
0.0
 14
168.2995023318
 24
121.5430406093
 34
0.0
 50
90.0
1001
ACAD
1000
DSTYLE
1002
{
1070
   287
1070
     5
1070
    41
1040
3.302
1070
   271
1070
     1
1070
    44
1040
1.0
1070
    42
1040
1.0
1070
   147
1040
1.524
1070
   272
1070
     2
1070
    73
1070
     1
1070
   279
1070
     2
1070
    74
1070
     1
1070
   140
1040
3.5
1070
    78
1070
     0
1002
}
  0
ENDBLK
  5
46E
  8
0
  0
BLOCK
  8
0
  2
*D5
 70
     1
 10
0.0
 20
0.0
 30
0.0
  3
*D5
  1

  0
LINE
  5
445
  8
DIMENSION
 62
     0
 10
158.72334516374
 20
236.8054614901303
 30
0.0
 11
159.0439680867437
 21
241.8933692075761
 31
0.0
  0
TEXT
  5
446
  8
DIMENSION
  6
CONTINUOUS
 62
     0
 10
161.1834436024623
 20
228.3957874635837
 30
0.0
 40
3.5
  1
\U+22058.40
  0
LINE
  5
447
  8
DIMENSION
 62
     0
 10
159.0439680867437
 20
241.8933692075761
 30
0.0
 11
158.5156760990562
 21
233.5099983118239
 31
0.0
  0
SOLID
  5
448
  8
DIMENSION
 62
     0
 10
159.3855428851109
 20
238.563294518489
 30
0.0
 11
158.2870551590088
 21
238.6325175400503
 31
0.0
 12
159.0439680867437
 22
241.8933692075761
 32
0.0
 13
159.0439680867437
 23
241.8933692075761
 33
0.0
  0
SOLID
  5
449
  8
DIMENSION
 62
     0
 10
158.174101300689
 20
236.8400730009109
 30
0.0
 11
159.2725890267911
 21
236.7708499793496
 31
0.0
 12
158.5156760990562
 22
233.5099983118239
 32
0.0
 13
158.5156760990562
 23
233.5099983118239
 33
0.0
  0
POINT
  5
44A
  8
DEFPOINTS
 62
     0
 10
158.5156760990562
 20
233.5099983118239
 30
0.0
  0
POINT
  5
44B
  8
DEFPOINTS
 62
     0
 10
159.0439680867437
 20
241.8933692075761
 30
0.0
  0
ENDBLK
  5
444
  8
0
  0
BLOCK
  8
0
  2
*D6
 70
     1
 10
0.0
 20
0.0
 30
0.0
  3
*D6
  1

  0
LINE
  5
44F
  8
DIMENSION
 62
     0
 10
201.7741480607753
 20
167.3348943905973
 30
0.0
 11
202.6479424899468
 21
162.5154662818328
 31
0.0
  0
TEXT
  5
450
  8
DIMENSION
  6
CONTINUOUS
 62
     0
 10
195.2114974443436
 20
175.5214268785066
 30
0.0
 40
3.5
  1
\U+22058.20
  0
LINE
  5
451
  8
DIMENSION
 62
     0
 10
202.6479424899468
 20
162.5154662818328
 30
0.0
 11
201.1850771736532
 21
170.5839249367672
 31
0.0
  0
SOLID
  5
452
  8
DIMENSION
 62
     0
 10
201.5173665117964
 20
165.6663183468157
 30
0.0
 11
202.600376693853
 21
165.8626753091897
 31
0.0
 12
202.6479424899468
 22
162.5154662818328
 32
0.0
 13
202.6479424899468
 23
162.5154662818328
 33
0.0
  0
SOLID
  5
453
  8
DIMENSION
 62
     0
 10
202.3156531518036
 20
167.4330728717843
 30
0.0
 11
201.232642969747
 21
167.2367159094103
 31
0.0
 12
201.1850771736532
 22
170.5839249367672
 32
0.0
 13
201.1850771736532
 23
170.5839249367672
 33
0.0
  0
POINT
  5
454
  8
DEFPOINTS
 62
     0
 10
201.1850771736532
 20
170.5839249367672
 30
0.0
  0
POINT
  5
455
  8
DEFPOINTS
 62
     0
 10
202.6479424899468
 20
162.5154662818328
 30
0.0
  0
ENDBLK
  5
44E
  8
0
  0
BLOCK
  8
0
  2
*D7
 70
     1
 10
0.0
 20
0.0
 30
0.0
  3
*D7
  1

  0
LINE
  5
459
  8
DIMENSION
 62
     0
 10
114.4723850258723
 20
65.30666949409387
 30
0.0
 11
116.0226560752884
 21
60.6604814142437
 31
0.0
  0
TEXT
  5
45A
  8
DIMENSION
  6
CONTINUOUS
 62
     0
 10
108.8325915380296
 20
71.34323127028553
 30
0.0
 40
3.5
  1
\U+22058.20
  0
LINE
  5
45B
  8
DIMENSION
 62
     0
 10
116.0226560752884
 20
60.6604814142437
 30
0.0
 11
113.4272655883116
 21
68.4389098043563
 31
0.0
  0
SOLID
  5
45C
  8
DIMENSION
 62
     0
 10
114.4554965860173
 20
63.61853515157935
 30
0.0
 11
115.4995766894381
 21
63.96690829743291
 31
0.0
 12
116.0226560752884
 22
60.6604814142437
 32
0.0
 13
116.0226560752884
 23
60.6604814142437
 33
0.0
  0
SOLID
  5
45D
  8
DIMENSION
 62
     0
 10
114.9944250775827
 20
65.48085606702064
 30
0.0
 11
113.9503449741619
 21
65.1324829211671
 31
0.0
 12
113.4272655883116
 22
68.4389098043563
 32
0.0
 13
113.4272655883116
 23
68.4389098043563
 33
0.0
  0
POINT
  5
45E
  8
DEFPOINTS
 62
     0
 10
113.4272655883116
 20
68.4389098043563
 30
0.0
  0
POINT
  5
45F
  8
DEFPOINTS
 62
     0
 10
116.0226560752884
 20
60.6604814142437
 30
0.0
  0
ENDBLK
  5
458
  8
0
  0
BLOCK
  8
0
  2
*D8
 70
     1
 10
0.0
 20
0.0
 30
0.0
  3
*D8
  1

  0
LINE
  5
463
  8
DIMENSION
 62
     0
 10
169.2269093318
 20
212.5330536093
 30
0.0
 11
171.5093195390173
 21
212.5330536093
 31
0.0
  0
LINE
  5
464
  8
DIMENSION
 62
     0
 10
169.2995023318
 20
121.5430406093
 30
0.0
 11
171.5093195390173
 21
121.5430406093
 31
0.0
  0
LINE
  5
465
  8
DIMENSION
 62
     0
 10
170.5093195390173
 20
209.2310536093
 30
0.0
 11
170.5093195390173
 21
170.3120471093
 31
0.0
  0
LINE
  5
466
  8
DIMENSION
 62
     0
 10
170.5093195390173
 20
124.8450406093
 30
0.0
 11
170.5093195390173
 21
163.7640471093
 31
0.0
  0
SOLID
  5
467
  8
DIMENSION
 62
     0
 10
171.0596528723506
 20
209.2310536093
 30
0.0
 11
169.958986205684
 21
209.2310536093
 31
0.0
 12
170.5093195390173
 22
212.5330536093
 32
0.0
 13
170.5093195390173
 23
212.5330536093
 33
0.0
  0
SOLID
  5
468
  8
DIMENSION
 62
     0
 10
169.958986205684
 20
124.8450406093
 30
0.0
 11
171.0596528723506
 21
124.8450406093
 31
0.0
 12
170.5093195390173
 22
121.5430406093
 32
0.0
 13
170.5093195390173
 23
121.5430406093
 33
0.0
  0
TEXT
  5
469
  8
DIMENSION
  6
CONTINUOUS
 62
     0
 10
166.1343195390173
 20
165.2880471093
 30
0.0
 40
3.5
  1
91.0
  0
POINT
  5
46A
  8
DEFPOINTS
 62
     0
 10
168.2269093318
 20
212.5330536093
 30
0.0
  0
POINT
  5
46B
  8
DEFPOINTS
 62
     0
 10
168.2995023318
 20
121.5430406093
 30
0.0
  0
POINT
  5
46C
  8
DEFPOINTS
 62
     0
 10
170.5093195390173
 20
121.5430406093
 30
0.0
  0
ENDBLK
  5
462
  8
0
  0
BLOCK
  8
0
  2
UPPER_BALL_JOINT_FACE
 70
     0
 10
0.0
 20
0.0
 30
0.0
  3
UPPER_BALL_JOINT_FACE
  1

  0
ARC
  5
471
  8
0
  6
CONTINUOUS
 62
     7
 10
237.3691376242922
 20
107.000528372836
 30
0.0
 40
0.9999999999997891
 50
89.99999999998046
 51
179.9999999999772
  0
LINE
  5
472
  8
0
  6
CONTINUOUS
 62
     7
 10
236.3691376243621
 20
107.0005283728822
 30
0.0
 11
236.3691375853807
 21
88.49550322193929
 31
0.0
  0
ARC
  5
473
  8
0
  6
CONTINUOUS
 62
     7
 10
236.1216495926901
 20
88.24801640456391
 30
0.0
 40
0.3500000447547457
 50
225.0001360455753
 51
44.99986395448883
  0
LINE
  5
474
  8
0
  6
CONTINUOUS
 62
     7
 10
235.874162775279
 20
88.00052841180494
 30
0.0
 11
231.3691376243407
 21
88.00052837284417
 31
0.0
  0
ARC
  5
475
  8
0
  6
CONTINUOUS
 62
     7
 10
231.3691376242945
 20
87.00052837291412
 30
0.0
 40
1.000000000000635
 50
90.00000000007816
 51
180.0000000087757
  0
LINE
  5
476
  8
0
  6
CONTINUOUS
 62
     7
 10
230.3691376243152
 20
87.00052837268183
 30
0.0
 11
230.3665816243255
 21
28.99946937269667
 31
0.0
  0
ARC
  5
477
  8
0
  6
CONTINUOUS
 62
     7
 10
231.3665816243048
 20
28.99946937292898
 30
0.0
 40
1.000000000000207
 50
180.000000008875
 51
269.9999999999772
  0
LINE
  5
478
  8
0
  6
CONTINUOUS
 62
     7
 10
231.3665816243159
 20
27.99946937291699
 30
0.0
 11
235.8716060992147
 21
27.99946940796016
 31
0.0
  0
ARC
  5
479
  8
0
  6
CONTINUOUS
 62
     7
 10
236.1190937177178
 20
27.7519824662821
 30
0.0
 40
0.3499998679779144
 50
314.9999486767816
 51
135.0000783369628
  0
LINE
  5
47A
  8
0
  6
CONTINUOUS
 62
     7
 10
236.3665807760434
 20
27.50449496444904
 30
0.0
 11
236.3691376243401
 21
11.50052837293063
 31
0.0
  0
ARC
  5
47B
  8
0
  6
CONTINUOUS
 62
     7
 10
327.4967215309543
 20
27.75198234123721
 30
0.0
 40
0.3499999563663425
 50
44.99995238247956
 51
224.9999084238758
  0
LINE
  5
47C
  8
0
  6
CONTINUOUS
 62
     7
 10
327.7442090792132
 20
27.99946947817003
 30
0.0
 11
332.2492346242964
 21
27.99946937291284
 31
0.0
  0
ARC
  5
47D
  8
0
  6
CONTINUOUS
 62
     7
 10
332.2492346242852
 20
28.99946937292489
 30
0.0
 40
0.999999999999888
 50
269.999999999974
 51
359.9999999999741
  0
LINE
  5
47E
  8
0
  6
CONTINUOUS
 62
     7
 10
333.2492346242973
 20
28.99946937293592
 30
0.0
 11
333.2492346243384
 21
87.0005283728739
 31
0.0
  0
ARC
  5
47F
  8
0
  6
CONTINUOUS
 62
     7
 10
332.2492346243264
 20
87.00052837286282
 30
0.0
 40
0.9999999999998206
 50
359.9999999999772
 51
89.99999999997394
  0
LINE
  5
480
  8
0
  6
CONTINUOUS
 62
     7
 10
332.2492346243152
 20
88.00052837287487
 30
0.0
 11
327.7442084895334
 21
88.00052842807284
 31
0.0
  0
ARC
  5
481
  8
0
  6
CONTINUOUS
 62
     7
 10
327.4967216559586
 20
88.24801627958217
 30
0.0
 40
0.3499999563658213
 50
134.9999371324727
 51
314.9998821738782
  0
ARC
  5
482
  8
0
  6
CONTINUOUS
 62
     7
 10
326.2492346243683
 20
107.0005283729055
 30
0.0
 40
0.9999999999997989
 50
359.9999999999804
 51
89.99999999998046
  0
LINE
  5
483
  8
0
  6
CONTINUOUS
 62
     7
 10
326.2492346243572
 20
108.0005283729176
 30
0.0
 11
237.369137624363
 21
108.0005283729054
 31
0.0
  0
LINE
  5
484
  8
0
  6
CONTINUOUS
 62
     7
 10
327.2492346243706
 20
11.50052838603179
 30
0.0
 11
327.2492337928159
 21
27.50449539426992
 31
0.0
  0
LINE
  5
485
  8
0
  6
CONTINUOUS
 62
     7
 10
327.2492345849619
 20
88.49550389373587
 30
0.0
 11
327.2492346242984
 21
107.0005283728593
 31
0.0
  0
CIRCLE
  5
486
  8
DIMENSION
 10
281.8091861243602
 20
59.25052837292365
 30
0.0
 40
42.24999997742865
  0
LINE
  5
4F6
  8
0
  6
CONTINUOUS
 62
     7
 10
237.3691376243877
 20
10.50052837291796
 30
0.0
 11
326.2492346243819
 21
10.50052837293023
 31
0.0
  0
ARC
  5
4F7
  8
0
  6
CONTINUOUS
 62
     7
 10
237.3691376243765
 20
11.50052837293001
 30
0.0
 40
0.9999999999998974
 50
179.9999999975769
 51
269.9999999999772
  0
ARC
  5
4F8
  8
0
  6
CONTINUOUS
 62
     7
 10
326.2492346243708
 20
11.50052837294223
 30
0.0
 40
0.9999999999997808
 50
269.9999999999804
 51
0.0000007499766259
  0
ENDBLK
  5
488
  8
0
  0
BLOCK
  8
0
  2
UPPER_BALL_JOINT_BRACKET
 70
     0
 10
0.0
 20
0.0
 30
0.0
  3
UPPER_BALL_JOINT_BRACKET
  1

  0
POLYLINE
  5
48B
  8
0
 66
     1
 10
0.0
 20
0.0
 30
0.0
 70
     1
  0
VERTEX
  5
57B
  8
0
 10
306.8814893140584
 20
163.4601521967278
 30
0.0
  0
VERTEX
  5
57C
  8
0
 10
306.8887085956304
 20
222.2701143623713
 30
0.0
 42
0.4142492932374958
  0
VERTEX
  5
57D
  8
0
 10
305.8887086236321
 20
223.2702371451678
 30
0.0
  0
VERTEX
  5
57E
  8
0
 10
274.1336828060854
 20
223.2702391080877
 30
0.0
 42
-1.000001327449887
  0
VERTEX
  5
57F
  8
0
 10
273.6387092200713
 20
223.7652148250059
 30
0.0
  0
VERTEX
  5
580
  8
0
 10
273.6387089479601
 20
228.2702391509681
 30
0.0
 42
0.4142134849400835
  0
VERTEX
  5
581
  8
0
 10
272.6387088478176
 20
229.2702392710046
 30
0.0
  0
VERTEX
  5
582
  8
0
 10
249.6387094684729
 20
229.2702401892048
 30
0.0
 42
0.4142135123205953
  0
VERTEX
  5
583
  8
0
 10
248.6387092815555
 20
228.2702400624644
 30
0.0
  0
VERTEX
  5
584
  8
0
 10
248.6387092815659
 20
223.7652150506705
 30
0.0
 42
-0.9999998450400434
  0
VERTEX
  5
585
  8
0
 10
248.1437344776265
 20
223.2702403098079
 30
0.0
  0
VERTEX
  5
586
  8
0
 10
227.2966643677579
 20
223.2702411900025
 30
0.0
  0
VERTEX
  5
587
  8
0
 10
227.2894475283579
 20
217.2702463204024
 30
0.0
  0
VERTEX
  5
588
  8
0
 10
240.7780423733533
 20
207.8315424479213
 30
0.0
 42
0.4142437572159147
  0
VERTEX
  5
589
  8
0
 10
242.1708302870104
 20
208.0772029457415
 30
0.0
  0
VERTEX
  5
58A
  8
0
 10
244.7502093014124
 20
211.764483280644
 30
0.0
 42
-1.000000796078224
  0
VERTEX
  5
58B
  8
0
 10
245.4395744822291
 20
211.8860375673662
 30
0.0
  0
VERTEX
  5
58C
  8
0
 10
293.7794776877141
 20
178.0380693805559
 30
0.0
 42
-1.000000795716325
  0
VERTEX
  5
58D
  8
0
 10
293.9010305946522
 20
177.3487037473586
 30
0.0
  0
VERTEX
  5
58E
  8
0
 10
291.3170540510512
 20
173.658402792177
 30
0.0
 42
0.4142134896157991
  0
VERTEX
  5
58F
  8
0
 10
291.5626297820684
 20
172.2656741822355
 30
0.0
  0
VERTEX
  5
590
  8
0
 10
305.3079634306926
 20
162.6410876094224
 30
0.0
 42
0.6068145992667272
  0
SEQEND
  5
592
  8
0
  0
ENDBLK
  5
48D
  8
0
  0
ENDSEC
  0
SECTION
  2
ENTITIES
  0
POLYLINE
  5
2E7
  8
0
 66
     1
 10
0.0
 20
0.0
 30
0.0
 70
     1
  0
VERTEX
  5
571
  8
0
 10
331.7758681886381
 20
116.8830112042335
 30
0.0
  0
VERTEX
  5
572
  8
0
 10
331.7758675633433
 20
189.2400051688377
 30
0.0
 42
0.4142135450156546
  0
VERTEX
  5
573
  8
0
 10
329.7758674811143
 20
191.2400052525062
 30
0.0
  0
VERTEX
  5
574
  8
0
 10
314.9212025168719
 20
191.2400056901167
 30
0.0
 42
0.6081884210168262
  0
VERTEX
  5
575
  8
0
 10
313.2875151793252
 20
188.0862875586335
 30
0.0
 42
-1.930429168060535
  0
VERTEX
  5
576
  8
0
 10
244.2642187367283
 20
188.0862865100476
 30
0.0
 42
0.6081884030219453
  0
VERTEX
  5
577
  8
0
 10
242.6305313056624
 20
191.2400044308936
 30
0.0
  0
VERTEX
  5
578
  8
0
 10
231.7758679033178
 20
191.2400048529548
 30
0.0
  0
VERTEX
  5
579
  8
0
 10
231.7758682540905
 20
114.8830113384772
 30
0.0
  0
VERTEX
  5
57A
  8
0
 10
329.775868062566
 20
114.8830113384931
 30
0.0
 42
0.414213627765408
  0
SEQEND
  5
591
  8
0
  0
INSERT
  5
46F
  8
0
  2
UPPER_BALL_JOINT_BASE
 10
0.0
 20
0.0
 30
0.0
  0
INSERT
  5
489
  8
0
  2
UPPER_BALL_JOINT_FACE
 10
0.0
 20
0.0
 30
0.0
  0
INSERT
  5
48E
  8
0
  2
UPPER_BALL_JOINT_BRACKET
 10
0.0
 20
0.0
 30
0.0
  0
CIRCLE
  5
56C
  8
DIMENSION
 10
514.0486227632125
 20
86.91400474704821
 30
0.0
 40
42.24999997742865
  0
ENDSEC
  0
EOF
