  0
SECTION
  2
HEADER
  9
$ACADVER
  1
AC1027
  9
$ACADMAINTVER
 70
   125
  9
$DWGCODEPAGE
  3
ANSI_1252
  9
$LASTSAVEDBY
  1
Michael
  9
$REQUIREDVERSIONS
160
                 0
  9
$INSBASE
 10
0.0
 20
0.0
 30
0.0
  9
$EXTMIN
 10
34.29605099249997
 20
49.37501720190006
 30
0.0
  9
$EXTMAX
 10
254.2960509925
 20
243.8758772019
 30
0.0
  9
$LIMMIN
 10
0.0
 20
0.0
  9
$LIMMAX
 10
420.0
 20
297.0
  9
$ORTHOMODE
 70
     0
  9
$REGENMODE
 70
     1
  9
$FILLMODE
 70
     1
  9
$QTEXTMODE
 70
     0
  9
$MIRRTEXT
 70
     1
  9
$LTSCALE
 40
1.0
  9
$ATTMODE
 70
     1
  9
$TEXTSIZE
 40
3.5
  9
$TRACEWID
 40
1.0
  9
$TEXTSTYLE
  7
STANDARD
  9
$CLAYER
  8
0
  9
$CELTYPE
  6
ByLayer
  9
$CECOLOR
 62
   256
  9
$CELTSCALE
 40
1.0
  9
$DISPSILH
 70
     0
  9
$DIMSCALE
 40
1.0
  9
$DIMASZ
 40
3.302
  9
$DIMEXO
 40
1.0
  9
$DIMDLI
 40
3.75
  9
$DIMRND
 40
0.0
  9
$DIMDLE
 40
0.0
  9
$DIMEXE
 40
1.0
  9
$DIMTP
 40
0.0
  9
$DIMTM
 40
0.0
  9
$DIMTXT
 40
3.5
  9
$DIMCEN
 40
2.5
  9
$DIMTSZ
 40
0.0
  9
$DIMTOL
 70
     0
  9
$DIMLIM
 70
     0
  9
$DIMTIH
 70
     1
  9
$DIMTOH
 70
     1
  9
$DIMSE1
 70
     0
  9
$DIMSE2
 70
     0
  9
$DIMTAD
 70
     1
  9
$DIMZIN
 70
     0
  9
$DIMBLK
  1

  9
$DIMASO
 70
     1
  9
$DIMSHO
 70
     1
  9
$DIMPOST
  1

  9
$DIMAPOST
  1

  9
$DIMALT
 70
     0
  9
$DIMALTD
 70
     3
  9
$DIMALTF
 40
0.0393700787
  9
$DIMLFAC
 40
1.0
  9
$DIMTOFL
 70
     1
  9
$DIMTVP
 40
0.0
  9
$DIMTIX
 70
     0
  9
$DIMSOXD
 70
     0
  9
$DIMSAH
 70
     0
  9
$DIMBLK1
  1

  9
$DIMBLK2
  1

  9
$DIMSTYLE
  2
ISO-25
  9
$DIMCLRD
 70
     0
  9
$DIMCLRE
 70
     0
  9
$DIMCLRT
 70
     0
  9
$DIMTFAC
 40
1.0
  9
$DIMGAP
 40
1.524
  9
$DIMJUST
 70
     0
  9
$DIMSD1
 70
     0
  9
$DIMSD2
 70
     0
  9
$DIMTOLJ
 70
     1
  9
$DIMTZIN
 70
     0
  9
$DIMALTZ
 70
     0
  9
$DIMALTTZ
 70
     0
  9
$DIMUPT
 70
     0
  9
$DIMDEC
 70
     4
  9
$DIMTDEC
 70
     4
  9
$DIMALTU
 70
     2
  9
$DIMALTTD
 70
     2
  9
$DIMTXSTY
  7
STANDARD
  9
$DIMAUNIT
 70
     0
  9
$DIMADEC
 70
     0
  9
$DIMALTRND
 40
0.0
  9
$DIMAZIN
 70
     0
  9
$DIMDSEP
 70
    46
  9
$DIMATFIT
 70
     3
  9
$DIMFRAC
 70
     0
  9
$DIMLDRBLK
  1

  9
$DIMLUNIT
 70
     2
  9
$DIMLWD
 70
    -2
  9
$DIMLWE
 70
    -2
  9
$DIMTMOVE
 70
     0
  9
$DIMFXL
 40
1.0
  9
$DIMFXLON
 70
     0
  9
$DIMJOGANG
 40
0.7853981633974483
  9
$DIMTFILL
 70
     0
  9
$DIMTFILLCLR
 70
     0
  9
$DIMARCSYM
 70
     0
  9
$DIMLTYPE
  6

  9
$DIMLTEX1
  6

  9
$DIMLTEX2
  6

  9
$DIMTXTDIRECTION
 70
     0
  9
$LUNITS
 70
     2
  9
$LUPREC
 70
     2
  9
$SKETCHINC
 40
1.0
  9
$FILLETRAD
 40
10.0
  9
$AUNITS
 70
     0
  9
$AUPREC
 70
     2
  9
$MENU
  1
.
  9
$ELEVATION
 40
0.0
  9
$PELEVATION
 40
0.0
  9
$THICKNESS
 40
0.0
  9
$LIMCHECK
 70
     0
  9
$CHAMFERA
 40
0.0
  9
$CHAMFERB
 40
0.0
  9
$CHAMFERC
 40
0.0
  9
$CHAMFERD
 40
0.0
  9
$SKPOLY
 70
     0
  9
$TDCREATE
 40
2459084.368391204
  9
$TDUCREATE
 40
2459084.326724537
  9
$TDUPDATE
 40
2459087.568506944
  9
$TDUUPDATE
 40
2459087.526840278
  9
$TDINDWG
 40
0.0004051042
  9
$TDUSRTIMER
 40
0.0004051042
  9
$USRTIMER
 70
     1
  9
$ANGBASE
 50
0.0
  9
$ANGDIR
 70
     0
  9
$PDMODE
 70
     0
  9
$PDSIZE
 40
-1.0
  9
$PLINEWID
 40
0.0
  9
$SPLFRAME
 70
     0
  9
$SPLINETYPE
 70
     6
  9
$SPLINESEGS
 70
     8
  9
$HANDSEED
  5
4CF
  9
$SURFTAB1
 70
     6
  9
$SURFTAB2
 70
     6
  9
$SURFTYPE
 70
     6
  9
$SURFU
 70
     6
  9
$SURFV
 70
     6
  9
$UCSBASE
  2

  9
$UCSNAME
  2

  9
$UCSORG
 10
0.0
 20
0.0
 30
0.0
  9
$UCSXDIR
 10
1.0
 20
0.0
 30
0.0
  9
$UCSYDIR
 10
0.0
 20
1.0
 30
0.0
  9
$UCSORTHOREF
  2

  9
$UCSORTHOVIEW
 70
     0
  9
$UCSORGTOP
 10
0.0
 20
0.0
 30
0.0
  9
$UCSORGBOTTOM
 10
0.0
 20
0.0
 30
0.0
  9
$UCSORGLEFT
 10
0.0
 20
0.0
 30
0.0
  9
$UCSORGRIGHT
 10
0.0
 20
0.0
 30
0.0
  9
$UCSORGFRONT
 10
0.0
 20
0.0
 30
0.0
  9
$UCSORGBACK
 10
0.0
 20
0.0
 30
0.0
  9
$PUCSBASE
  2

  9
$PUCSNAME
  2

  9
$PUCSORG
 10
0.0
 20
0.0
 30
0.0
  9
$PUCSXDIR
 10
1.0
 20
0.0
 30
0.0
  9
$PUCSYDIR
 10
0.0
 20
1.0
 30
0.0
  9
$PUCSORTHOREF
  2

  9
$PUCSORTHOVIEW
 70
     0
  9
$PUCSORGTOP
 10
0.0
 20
0.0
 30
0.0
  9
$PUCSORGBOTTOM
 10
0.0
 20
0.0
 30
0.0
  9
$PUCSORGLEFT
 10
0.0
 20
0.0
 30
0.0
  9
$PUCSORGRIGHT
 10
0.0
 20
0.0
 30
0.0
  9
$PUCSORGFRONT
 10
0.0
 20
0.0
 30
0.0
  9
$PUCSORGBACK
 10
0.0
 20
0.0
 30
0.0
  9
$USERI1
 70
     0
  9
$USERI2
 70
     0
  9
$USERI3
 70
     0
  9
$USERI4
 70
     0
  9
$USERI5
 70
     0
  9
$USERR1
 40
0.0
  9
$USERR2
 40
0.0
  9
$USERR3
 40
0.0
  9
$USERR4
 40
0.0
  9
$USERR5
 40
0.0
  9
$WORLDVIEW
 70
     1
  9
$SHADEDGE
 70
     3
  9
$SHADEDIF
 70
    70
  9
$TILEMODE
 70
     1
  9
$MAXACTVP
 70
    64
  9
$PINSBASE
 10
0.0
 20
0.0
 30
0.0
  9
$PLIMCHECK
 70
     0
  9
$PEXTMIN
 10
1.000000000000000E+20
 20
1.000000000000000E+20
 30
1.000000000000000E+20
  9
$PEXTMAX
 10
-1.000000000000000E+20
 20
-1.000000000000000E+20
 30
-1.000000000000000E+20
  9
$PLIMMIN
 10
0.0
 20
0.0
  9
$PLIMMAX
 10
420.0
 20
297.0
  9
$UNITMODE
 70
     0
  9
$VISRETAIN
 70
     1
  9
$PLINEGEN
 70
     0
  9
$PSLTSCALE
 70
     1
  9
$TREEDEPTH
 70
  3020
  9
$CMLSTYLE
  2
Standard
  9
$CMLJUST
 70
     0
  9
$CMLSCALE
 40
1.0
  9
$PROXYGRAPHICS
 70
     1
  9
$MEASUREMENT
 70
     0
  9
$CELWEIGHT
370
    -1
  9
$ENDCAPS
280
     0
  9
$JOINSTYLE
280
     0
  9
$LWDISPLAY
290
     0
  9
$INSUNITS
 70
     0
  9
$HYPERLINKBASE
  1

  9
$STYLESHEET
  1

  9
$XEDIT
290
     1
  9
$CEPSNTYPE
380
     0
  9
$PSTYLEMODE
290
     1
  9
$FINGERPRINTGUID
  2
{976ABEFE-DE6F-CC47-B689-0139F79315D4}
  9
$VERSIONGUID
  2
{3E3E8732-FC19-3A4F-B61A-B4504630DE11}
  9
$EXTNAMES
290
     1
  9
$PSVPSCALE
 40
0.0
  9
$OLESTARTUP
290
     0
  9
$SORTENTS
280
   127
  9
$INDEXCTL
280
     0
  9
$HIDETEXT
280
     0
  9
$XCLIPFRAME
280
     2
  9
$HALOGAP
280
     0
  9
$OBSCOLOR
 70
   257
  9
$OBSLTYPE
280
     0
  9
$INTERSECTIONDISPLAY
280
     0
  9
$INTERSECTIONCOLOR
 70
   257
  9
$DIMASSOC
280
     1
  9
$PROJECTNAME
  1

  9
$CAMERADISPLAY
290
     0
  9
$LENSLENGTH
 40
50.0
  9
$CAMERAHEIGHT
 40
0.0
  9
$STEPSPERSEC
 40
2.0
  9
$STEPSIZE
 40
6.0
  9
$3DDWFPREC
 40
2.0
  9
$PSOLWIDTH
 40
0.25
  9
$PSOLHEIGHT
 40
4.0
  9
$LOFTANG1
 40
1.570796326794896
  9
$LOFTANG2
 40
1.570796326794896
  9
$LOFTMAG1
 40
0.0
  9
$LOFTMAG2
 40
0.0
  9
$LOFTPARAM
 70
     7
  9
$LOFTNORMALS
280
     1
  9
$LATITUDE
 40
37.795
  9
$LONGITUDE
 40
-122.394
  9
$NORTHDIRECTION
 40
0.0
  9
$TIMEZONE
 70
 -8000
  9
$LIGHTGLYPHDISPLAY
280
     1
  9
$TILEMODELIGHTSYNCH
280
     1
  9
$CMATERIAL
347
44B
  9
$SOLIDHIST
280
     0
  9
$SHOWHIST
280
     1
  9
$DWFFRAME
280
     2
  9
$DGNFRAME
280
     0
  9
$REALWORLDSCALE
290
     1
  9
$INTERFERECOLOR
 62
     1
  9
$INTERFEREOBJVS
345
46D
  9
$INTERFEREVPVS
346
46A
  9
$CSHADOW
280
     0
  9
$SHADOWPLANELOCATION
 40
0.0
  0
ENDSEC
  0
SECTION
  2
CLASSES
  0
CLASS
  1
ACDBDICTIONARYWDFLT
  2
AcDbDictionaryWithDefault
  3
ObjectDBX Classes
 90
        0
 91
        1
280
     0
281
     0
  0
CLASS
  1
MATERIAL
  2
AcDbMaterial
  3
ObjectDBX Classes
 90
     1153
 91
        3
280
     0
281
     0
  0
CLASS
  1
VISUALSTYLE
  2
AcDbVisualStyle
  3
ObjectDBX Classes
 90
     4095
 91
       24
280
     0
281
     0
  0
CLASS
  1
SCALE
  2
AcDbScale
  3
ObjectDBX Classes
 90
     1153
 91
       17
280
     0
281
     0
  0
CLASS
  1
TABLESTYLE
  2
AcDbTableStyle
  3
ObjectDBX Classes
 90
     4095
 91
        1
280
     0
281
     0
  0
CLASS
  1
MLEADERSTYLE
  2
AcDbMLeaderStyle
  3
ACDB_MLEADERSTYLE_CLASS
 90
     4095
 91
        1
280
     0
281
     0
  0
CLASS
  1
ACDBSECTIONVIEWSTYLE
  2
AcDbSectionViewStyle
  3
ObjectDBX Classes
 90
     1025
 91
        1
280
     0
281
     0
  0
CLASS
  1
ACDBDETAILVIEWSTYLE
  2
AcDbDetailViewStyle
  3
ObjectDBX Classes
 90
     1025
 91
        1
280
     0
281
     0
  0
CLASS
  1
DICTIONARYVAR
  2
AcDbDictionaryVar
  3
ObjectDBX Classes
 90
        0
 91
        9
280
     0
281
     0
  0
CLASS
  1
CELLSTYLEMAP
  2
AcDbCellStyleMap
  3
ObjectDBX Classes
 90
     1152
 91
        1
280
     0
281
     0
  0
ENDSEC
  0
SECTION
  2
TABLES
  0
TABLE
  2
VPORT
  5
442
330
0
100
AcDbSymbolTable
 70
     1
1001
ACAD
1000
DbSaveVer
1071
      209
  0
VPORT
  5
4AD
330
442
100
AcDbSymbolTableRecord
100
AcDbViewportTableRecord
  2
*ACTIVE
 70
     0
 10
0.0
 20
0.0
 11
1.0
 21
1.0
 12
330.7933706031012
 22
138.95971894446
 13
0.0
 23
0.0
 14
10.0
 24
10.0
 15
10.0
 25
10.0
 16
0.0
 26
0.0
 36
1.0
 17
0.0
 27
0.0
 37
0.0
 40
299.002106447707
 41
2.832786885245901
 42
50.0
 43
0.0
 44
0.0
 50
0.0
 51
0.0
 71
     0
 72
   100
 73
     1
 74
     3
 75
     0
 76
     0
 77
     0
 78
     0
281
     0
 65
     1
110
0.0
120
0.0
130
0.0
111
1.0
121
0.0
131
0.0
112
0.0
122
1.0
132
0.0
 79
     0
146
0.0
348
469
 60
     3
 61
     5
292
     1
282
     0
141
0.0
142
0.0
 63
   250
421
  3355443
1001
ACAD_NAV_VCDISPLAY
1070
     3
  0
ENDTAB
  0
TABLE
  2
LTYPE
  5
43F
330
0
100
AcDbSymbolTable
 70
     6
  0
LTYPE
  5
494
330
43F
100
AcDbSymbolTableRecord
100
AcDbLinetypeTableRecord
  2
ByBlock
 70
     0
  3

 72
    65
 73
     0
 40
0.0
  0
LTYPE
  5
495
330
43F
100
AcDbSymbolTableRecord
100
AcDbLinetypeTableRecord
  2
ByLayer
 70
     0
  3

 72
    65
 73
     0
 40
0.0
  0
LTYPE
  5
496
330
43F
100
AcDbSymbolTableRecord
100
AcDbLinetypeTableRecord
  2
CONTINUOUS
 70
     0
  3
Solid line
 72
    65
 73
     0
 40
0.0
  0
LTYPE
  5
4AE
330
43F
100
AcDbSymbolTableRecord
100
AcDbLinetypeTableRecord
  2
HIDDEN
 70
     0
  3
Hidden __ __ __ __ __ __ __ __ __ __ __ __ __ __
 72
    65
 73
     2
 40
1.905
 49
1.27
 74
     0
 49
-0.635
 74
     0
  0
LTYPE
  5
4AF
330
43F
100
AcDbSymbolTableRecord
100
AcDbLinetypeTableRecord
  2
PHANTOM
 70
     0
  3
Phantom ______  __  __  ______  __  __  ______
 72
    65
 73
     6
 40
12.7
 49
6.349999999999999
 74
     0
 49
-1.27
 74
     0
 49
1.27
 74
     0
 49
-1.27
 74
     0
 49
1.27
 74
     0
 49
-1.27
 74
     0
  0
LTYPE
  5
4B0
330
43F
100
AcDbSymbolTableRecord
100
AcDbLinetypeTableRecord
  2
CENTER
 70
     0
  3
Center ____ _ ____ _ ____ _ ____ _ ____ _ ____
 72
    65
 73
     4
 40
10.16
 49
6.349999999999999
 74
     0
 49
-1.27
 74
     0
 49
1.27
 74
     0
 49
-1.27
 74
     0
  0
LTYPE
  5
4B1
330
43F
100
AcDbSymbolTableRecord
100
AcDbLinetypeTableRecord
  2
CENTERX2
 70
     0
  3
Center (2x) ________  __  ________  __  _____
 72
    65
 73
     4
 40
20.32
 49
12.7
 74
     0
 49
-2.54
 74
     0
 49
2.54
 74
     0
 49
-2.54
 74
     0
  0
LTYPE
  5
4B2
330
43F
100
AcDbSymbolTableRecord
100
AcDbLinetypeTableRecord
  2
DOT2
 70
     0
  3
Dot (.5x) ........................................
 72
    65
 73
     2
 40
0.635
 49
0.0
 74
     0
 49
-0.635
 74
     0
  0
ENDTAB
  0
TABLE
  2
LAYER
  5
43C
330
0
100
AcDbSymbolTable
 70
     1
  0
LAYER
  5
48E
102
{ACAD_XDICTIONARY
360
4BB
102
}
330
43C
100
AcDbSymbolTableRecord
100
AcDbLayerTableRecord
  2
0
 70
     0
 62
     7
  6
CONTINUOUS
370
    -3
390
449
347
45B
348
0
  0
ENDTAB
  0
TABLE
  2
STYLE
  5
43D
330
0
100
AcDbSymbolTable
 70
     2
  0
STYLE
  5
48F
330
43D
100
AcDbSymbolTableRecord
100
AcDbTextStyleTableRecord
  2
STANDARD
 70
     0
 40
0.0
 41
1.0
 50
0.0
 71
     0
 42
3.5
  3
txt
  4

  0
STYLE
  5
493
330
43D
100
AcDbSymbolTableRecord
100
AcDbTextStyleTableRecord
  2
Annotative
 70
     0
 40
0.0
 41
1.0
 50
0.0
 71
     0
 42
0.2
  3
txt
  4

1001
AcadAnnotative
1000
AnnotativeData
1002
{
1070
     1
1070
     1
1002
}
  0
ENDTAB
  0
TABLE
  2
VIEW
  5
440
330
0
100
AcDbSymbolTable
 70
     0
  0
ENDTAB
  0
TABLE
  2
UCS
  5
441
330
0
100
AcDbSymbolTable
 70
     0
  0
ENDTAB
  0
TABLE
  2
APPID
  5
443
330
0
100
AcDbSymbolTable
 70
     3
  0
APPID
  5
490
330
443
100
AcDbSymbolTableRecord
100
AcDbRegAppTableRecord
  2
ACAD
 70
     0
  0
APPID
  5
497
330
443
100
AcDbSymbolTableRecord
100
AcDbRegAppTableRecord
  2
AcadAnnotative
 70
     0
  0
APPID
  5
4C7
330
443
100
AcDbSymbolTableRecord
100
AcDbRegAppTableRecord
  2
ACAD_NAV_VCDISPLAY
 70
     0
  0
ENDTAB
  0
TABLE
  2
DIMSTYLE
  5
444
330
0
100
AcDbSymbolTable
 70
     3
100
AcDbDimStyleTable
 71
     0
  0
DIMSTYLE
105
491
330
444
100
AcDbSymbolTableRecord
100
AcDbDimStyleTableRecord
  2
Standard
 70
     0
340
48F
  0
DIMSTYLE
105
492
330
444
100
AcDbSymbolTableRecord
100
AcDbDimStyleTableRecord
  2
Annotative
 70
     0
340
48F
1001
AcadAnnotative
1000
AnnotativeData
1002
{
1070
     1
1070
     1
1002
}
  0
DIMSTYLE
105
4B3
330
444
100
AcDbSymbolTableRecord
100
AcDbDimStyleTableRecord
  2
ISO-25
 70
     0
 41
2.5
 42
0.625
 43
3.75
 44
1.25
 73
     0
 74
     0
 77
     1
 78
     8
140
2.5
141
2.5
143
0.0393700787
147
0.625
171
     3
172
     1
271
     2
272
     2
274
     3
279
     2
340
48F
  0
ENDTAB
  0
TABLE
  2
BLOCK_RECORD
  5
43B
330
0
100
AcDbSymbolTable
 70
     2
  0
BLOCK_RECORD
  5
4A9
330
43B
100
AcDbSymbolTableRecord
100
AcDbBlockTableRecord
  2
*Model_Space
340
4AC
 70
     0
280
     1
281
     0
  0
BLOCK_RECORD
  5
4A5
330
43B
100
AcDbSymbolTableRecord
100
AcDbBlockTableRecord
  2
*Paper_Space
340
4A8
 70
     0
280
     1
281
     0
  0
BLOCK_RECORD
  5
4B5
330
43B
100
AcDbSymbolTableRecord
100
AcDbBlockTableRecord
  2
$MODEL_SPACE
340
0
 70
     0
280
     1
281
     0
  0
BLOCK_RECORD
  5
4B7
330
43B
100
AcDbSymbolTableRecord
100
AcDbBlockTableRecord
  2
$PAPER_SPACE
340
0
 70
     0
280
     1
281
     0
  0
ENDTAB
  0
ENDSEC
  0
SECTION
  2
BLOCKS
  0
BLOCK
  5
4AA
330
4A9
100
AcDbEntity
  8
0
100
AcDbBlockBegin
  2
*Model_Space
 70
     0
 10
0.0
 20
0.0
 30
0.0
  3
*Model_Space
  1

  0
ENDBLK
  5
4AB
330
4A9
100
AcDbEntity
  8
0
100
AcDbBlockEnd
  0
BLOCK
  5
4A6
330
4A5
100
AcDbEntity
 67
     1
  8
0
100
AcDbBlockBegin
  2
*Paper_Space
 70
     0
 10
0.0
 20
0.0
 30
0.0
  3
*Paper_Space
  1

  0
ENDBLK
  5
4A7
330
4A5
100
AcDbEntity
 67
     1
  8
0
100
AcDbBlockEnd
  0
BLOCK
  5
4B6
330
4B5
100
AcDbEntity
  8
0
100
AcDbBlockBegin
  2
$MODEL_SPACE
 70
     0
 10
0.0
 20
0.0
 30
0.0
  3
$MODEL_SPACE
  1

  0
ENDBLK
  5
21
330
4B5
100
AcDbEntity
  8
0
100
AcDbBlockEnd
  0
BLOCK
  5
4B8
330
4B7
100
AcDbEntity
  8
0
100
AcDbBlockBegin
  2
$PAPER_SPACE
 70
     0
 10
0.0
 20
0.0
 30
0.0
  3
$PAPER_SPACE
  1

  0
ENDBLK
  5
1D
330
4B7
100
AcDbEntity
  8
0
100
AcDbBlockEnd
  0
ENDSEC
  0
SECTION
  2
ENTITIES
  0
CIRCLE
  5
B1
330
4A9
100
AcDbEntity
  8
0
  6
Continuous
 62
     7
100
AcDbCircle
 10
110.2989021915
 20
105.6758772019
 30
0.0
 40
6.000000000000027
  0
CIRCLE
  5
B2
330
4A9
100
AcDbEntity
  8
0
  6
Continuous
 62
     7
100
AcDbCircle
 10
144.2952669378
 20
91.67587720190001
 30
0.0
 40
6.349999999999994
  0
CIRCLE
  5
B3
330
4A9
100
AcDbEntity
  8
0
  6
Continuous
 62
     7
100
AcDbCircle
 10
180.8217445828
 20
105.6758772019
 30
0.0
 40
3.400000000000006
  0
CIRCLE
  5
B4
330
4A9
100
AcDbEntity
  8
0
  6
Continuous
 62
     7
100
AcDbCircle
 10
216.3162625197
 20
105.6758772019
 30
0.0
 40
3.599999999999965
  0
CIRCLE
  5
B5
330
4A9
100
AcDbEntity
  8
0
  6
Continuous
 62
     7
100
AcDbCircle
 10
79.2960509925
 20
235.8758772019
 30
0.0
 40
2.099999999999895
  0
CIRCLE
  5
B6
330
4A9
100
AcDbEntity
  8
0
  6
Continuous
 62
     7
100
AcDbCircle
 10
209.2960509925
 20
235.8758772019
 30
0.0
 40
2.099999999999993
  0
CIRCLE
  5
B7
330
4A9
100
AcDbEntity
  8
0
  6
Continuous
 62
     7
100
AcDbCircle
 10
246.7960509925
 20
214.8758772019
 30
0.0
 40
2.100000002854955
  0
CIRCLE
  5
B8
330
4A9
100
AcDbEntity
  8
0
  6
Continuous
 62
     7
100
AcDbCircle
 10
246.7960509925
 20
94.87587720190001
 30
0.0
 40
2.099999999999965
  0
CIRCLE
  5
B9
330
4A9
100
AcDbEntity
  8
0
  6
Continuous
 62
     7
100
AcDbCircle
 10
41.79605099249999
 20
94.87587720190001
 30
0.0
 40
2.403400956954384
  0
CIRCLE
  5
BA
330
4A9
100
AcDbEntity
  8
0
  6
Continuous
 62
     7
100
AcDbCircle
 10
41.79605099249999
 20
214.8758772019
 30
0.0
 40
2.099999999999986
  0
CIRCLE
  5
BB
330
4A9
100
AcDbEntity
  8
0
  6
Continuous
 62
     7
100
AcDbCircle
 10
180.8217445828
 20
81.67587720189999
 30
0.0
 40
3.399999999999948
  0
CIRCLE
  5
125
330
4A9
100
AcDbEntity
  8
0
  6
Continuous
 62
     7
100
AcDbCircle
 10
74.14616549049999
 20
105.2891051745
 30
0.0
 40
6.000000000000027
  0
LWPOLYLINE
  5
12B
330
4A9
100
AcDbEntity
  8
0
  6
Continuous
 62
     7
100
AcDbPolyline
 90
        3
 70
   128
 43
0.0
 10
221.6848522633
 20
89.0268753534
 10
221.3702112434
 20
89.3129480051
 10
221.0538426479
 20
89.411490738
  0
LWPOLYLINE
  5
12D
330
4A9
100
AcDbEntity
  8
0
  6
Continuous
 62
     7
100
AcDbPolyline
 90
        3
 70
   128
 43
0.0
 10
60.89296036229999
 20
91.2891051745
 10
61.7896568062
 20
91.24916420119999
 10
62.4794988239
 20
91.1088167129
  0
LWPOLYLINE
  5
12E
330
4A9
100
AcDbEntity
  8
0
  6
Continuous
 62
     7
100
AcDbPolyline
 90
        3
 70
   128
 43
0.0
 10
115.7187641998
 20
87.8455955591
 10
115.8573643221
 20
87.54174841440001
 10
115.8890366357
 20
87.2806917129
  0
LWPOLYLINE
  5
130
330
4A9
100
AcDbEntity
  8
0
  6
Continuous
 62
     7
100
AcDbPolyline
 90
        4
 70
   128
 43
0.0
 10
88.03638984950001
 20
88.83918530269999
 10
87.89779689440001
 20
89.17360272439999
 10
87.64041553110001
 20
89.4260150736
 10
87.0918786316
 20
89.55833594370002
  0
LWPOLYLINE
  5
131
330
4A9
100
AcDbEntity
  8
0
  6
Continuous
 62
     7
100
AcDbPolyline
 90
        3
 70
   128
 43
0.0
 10
213.2613746992
 20
89.86020868670001
 10
214.1767532406
 20
89.63527134530002
 10
214.7327288659
 20
89.14105804569999
  0
LWPOLYLINE
  5
132
330
4A9
100
AcDbEntity
  8
0
  6
Continuous
 62
     7
100
AcDbPolyline
 90
        3
 70
   128
 43
0.0
 10
183.482000993
 20
95.58835627120002
 10
183.2324142556
 20
95.67328338899999
 10
183.0272734289
 20
95.70053575840001
  0
LWPOLYLINE
  5
134
330
4A9
100
AcDbEntity
  8
0
  6
Continuous
 62
     7
100
AcDbPolyline
 90
        3
 70
   128
 43
0.0
 10
82.76195074689999
 20
90.0070538924
 10
83.81983116289999
 20
89.74380962069998
 10
84.43462702899999
 20
89.15068370010001
  0
LWPOLYLINE
  5
135
330
4A9
100
AcDbEntity
  8
0
  6
Continuous
 62
     7
100
AcDbPolyline
 90
        3
 70
   128
 43
0.0
 10
67.982303311
 20
87.8455955591
 10
68.1209034334
 20
87.54174841440001
 10
68.1525757469
 20
87.2806917129
  0
LWPOLYLINE
  5
136
330
4A9
100
AcDbEntity
  8
0
  6
Continuous
 62
     7
100
AcDbPolyline
 90
        3
 70
   128
 43
0.0
 10
221.4815269428
 20
87.46337375080001
 10
221.1855673263
 20
87.69446572540001
 10
220.9276407249
 20
87.83997631490001
  0
LWPOLYLINE
  5
137
330
4A9
100
AcDbEntity
  8
0
  6
Continuous
 62
     7
100
AcDbPolyline
 90
        3
 70
   128
 43
0.0
 10
115.0607113152
 20
88.35841607190001
 10
115.4574811384
 20
88.1056677069
 10
115.7187641998
 20
87.8455955591
  0
LWPOLYLINE
  5
139
330
4A9
100
AcDbEntity
  8
0
  6
Continuous
 62
     7
100
AcDbPolyline
 90
        3
 70
   128
 43
0.0
 10
82.73190267
 20
86.6737205591
 10
83.55356642149999
 20
86.87739065409999
 10
84.0590260675
 20
87.31474620010001
  0
LWPOLYLINE
  5
13A
330
4A9
100
AcDbEntity
  8
0
  6
Continuous
 62
     7
100
AcDbPolyline
 90
        3
 70
   128
 43
0.0
 10
115.5204468921
 20
89.1737205591
 10
115.2058058722
 20
89.4597932109
 10
114.8894372767
 20
89.55833594370002
  0
LWPOLYLINE
  5
13C
330
4A9
100
AcDbEntity
  8
0
  6
Continuous
 62
     7
100
AcDbPolyline
 90
        3
 70
   128
 43
0.0
 10
220.297632712
 20
88.3387743918
 10
220.1615673394
 20
88.64198186979999
 10
220.1303650838
 20
88.9016750328
  0
LWPOLYLINE
  5
13D
330
4A9
100
AcDbEntity
  8
0
  6
Continuous
 62
     7
100
AcDbPolyline
 90
        3
 70
   128
 43
0.0
 10
205.5199884813
 20
88.44394266100001
 10
205.4590942964
 20
87.89660326809999
 10
205.4508779043
 20
87.46337375080001
  0
LWPOLYLINE
  5
13E
330
4A9
100
AcDbEntity
  8
0
  6
Continuous
 62
     7
100
AcDbPolyline
 90
        3
 70
   128
 43
0.0
 10
177.3672173391999
 20
95.95694601479999
 10
178.0034714402
 20
95.94335168110001
 10
178.5000298392
 20
95.8888370404
  0
LWPOLYLINE
  5
13F
330
4A9
100
AcDbEntity
  8
0
  6
Continuous
 62
     7
100
AcDbPolyline
 90
        3
 70
   128
 43
0.0
 10
221.2251166864
 20
88.21157086620001
 10
221.6218865097
 20
87.9588225012
 10
221.883169571
 20
87.6987503534
  0
LWPOLYLINE
  5
140
330
4A9
100
AcDbEntity
  8
0
  6
Continuous
 62
     7
100
AcDbPolyline
 90
        3
 70
   128
 43
0.0
 10
67.7839860033
 20
89.1737205591
 10
67.4693449834
 20
89.4597932109
 10
67.152976388
 20
89.55833594370002
  0
LWPOLYLINE
  5
141
330
4A9
100
AcDbEntity
  8
0
  6
Continuous
 62
     7
100
AcDbPolyline
 90
        3
 70
   128
 43
0.0
 10
214.7327288659
 20
89.14105804569999
 10
215.0579271433
 20
88.46247962120001
 10
215.1303650838
 20
87.87302919950001
  0
LWPOLYLINE
  5
142
330
4A9
100
AcDbEntity
  8
0
  6
Continuous
 62
     7
100
AcDbPolyline
 90
        3
 70
   128
 43
0.0
 10
67.3242504264
 20
88.35841607190001
 10
67.7210202497
 20
88.1056677069
 10
67.982303311
 20
87.8455955591
  0
LWPOLYLINE
  5
143
330
4A9
100
AcDbEntity
  8
0
  6
Continuous
 62
     7
100
AcDbPolyline
 90
        3
 70
   128
 43
0.0
 10
221.6047240582
 20
87.1148160585
 10
221.5658247033
 20
87.32120366450001
 10
221.4815269428
 20
87.46337375080001
  0
LWPOLYLINE
  5
145
330
4A9
100
AcDbEntity
  8
0
  6
Continuous
 62
     7
100
AcDbPolyline
 90
        3
 70
   128
 43
0.0
 10
102.1260158023
 20
91.2891051745
 10
102.7660484043
 20
91.27396820100001
 10
103.2648379177
 20
91.21398498219999
  0
LWPOLYLINE
  5
146
330
4A9
100
AcDbEntity
  8
0
  6
Continuous
 62
     7
100
AcDbPolyline
 90
        3
 70
   128
 43
0.0
 10
216.5456295069
 20
88.44394266100001
 10
216.484735322
 20
87.89660326809999
 10
216.47651893
 20
87.46337375080001
  0
LWPOLYLINE
  5
149
330
4A9
100
AcDbEntity
  8
0
  6
Continuous
 62
     7
100
AcDbPolyline
 90
        3
 70
   128
 43
0.0
 10
116.6582674049
 20
88.1060122258
 10
116.7904288464
 20
88.82645263870001
 10
117.0789404818
 20
89.3259641488
  0
LWPOLYLINE
  5
14B
330
4A9
100
AcDbEntity
  8
0
  6
Continuous
 62
     7
100
AcDbPolyline
 90
        3
 70
   128
 43
0.0
 10
114.4146776613
 20
89.06654908470001
 10
114.4566933982
 20
88.87030522959999
 10
114.5388763793
 20
88.73501863600001
  0
LWPOLYLINE
  5
14C
330
4A9
100
AcDbEntity
  8
0
  6
Continuous
 62
     7
100
AcDbPolyline
 90
        3
 70
   128
 43
0.0
 10
221.883169571
 20
87.6987503534
 10
222.0217696934
 20
87.39490320870002
 10
222.0534420069
 20
87.1338465072
  0
LWPOLYLINE
  5
152
330
4A9
100
AcDbEntity
  8
0
  6
Continuous
 62
     7
100
AcDbPolyline
 90
        3
 70
   128
 43
0.0
 10
66.6782167726
 20
89.06654908470001
 10
66.72023250949999
 20
88.87030522959999
 10
66.80241549049999
 20
88.73501863600001
  0
LWPOLYLINE
  5
153
330
4A9
100
AcDbEntity
  8
0
  6
Continuous
 62
     7
100
AcDbPolyline
 90
        3
 70
   128
 43
0.0
 10
220.2355333531
 20
86.911490738
 10
220.6017105435
 20
86.61538126709999
 10
220.9596920069
 20
86.5268753534
  0
LWPOLYLINE
  5
156
330
4A9
100
AcDbEntity
  8
0
  6
Continuous
 62
     7
100
AcDbPolyline
 90
        3
 70
   128
 43
0.0
 10
75.5844667726
 20
90.0070538924
 10
76.510588739
 20
89.77796543110001
 10
77.0628321572
 20
89.26686959760001
  0
LWPOLYLINE
  5
159
330
4A9
100
AcDbEntity
  8
0
  6
Continuous
 62
     7
100
AcDbPolyline
 90
        3
 70
   128
 43
0.0
 10
67.0267744649
 20
87.98682152059999
 10
66.64536740289999
 20
88.2318589988
 10
66.39676645209999
 20
88.48561959760001
  0
LWPOLYLINE
  5
15A
330
4A9
100
AcDbEntity
  8
0
  6
Continuous
 62
     7
100
AcDbPolyline
 90
        3
 70
   128
 43
0.0
 10
67.0818626059
 20
86.2250026104
 10
66.4387793412
 20
86.38578390299999
 10
66.0371911316
 20
86.719794277
  0
LWPOLYLINE
  5
15B
330
4A9
100
AcDbEntity
  8
0
  6
Continuous
 62
     7
100
AcDbPolyline
 90
        3
 70
   128
 43
0.0
 10
85.8498914521
 20
88.59078786679999
 10
85.78891605569999
 20
88.04346613940001
 10
85.7807808751
 20
87.61021895649999
  0
LWPOLYLINE
  5
15C
330
4A9
100
AcDbEntity
  8
0
  6
Continuous
 62
     7
100
AcDbPolyline
 90
        3
 70
   128
 43
0.0
 10
108.3890366357
 20
86.9211163924
 10
107.6308809489
 20
86.35735971249999
 10
106.8966488152
 20
86.2250026104
  0
LWPOLYLINE
  5
15E
330
4A9
100
AcDbEntity
  8
0
  6
Continuous
 62
     7
100
AcDbPolyline
 90
        3
 70
   128
 43
0.0
 10
220.9276407249
 20
87.83997631490001
 10
220.5462336629
 20
88.08501379309999
 10
220.297632712
 20
88.3387743918
  0
LWPOLYLINE
  5
15F
330
4A9
100
AcDbEntity
  8
0
  6
Continuous
 62
     7
100
AcDbPolyline
 90
        3
 70
   128
 43
0.0
 10
69.49872959310001
 20
89.26686959760001
 10
70.236061634
 20
89.86758603510001
 10
70.9750917726
 20
90.0070538924
  0
LWPOLYLINE
  5
160
330
4A9
100
AcDbEntity
  8
0
  6
Continuous
 62
     7
100
AcDbPolyline
 90
        3
 70
   128
 43
0.0
 10
220.5790830326
 20
88.919703879
 10
220.6210987695
 20
88.72346002389999
 10
220.7032817505
 20
88.58817343030001
  0
LWPOLYLINE
  5
162
330
4A9
100
AcDbEntity
  8
0
  6
Continuous
 62
     7
100
AcDbPolyline
 90
        5
 70
   128
 43
0.0
 10
183.0272734289
 20
95.70053575840001
 10
182.8274741138
 20
95.66175493819999
 10
182.7418021029
 20
95.6059792335
 10
182.680482671
 20
95.52507464799999
 10
182.6516724674
 20
95.1176030661
  0
LWPOLYLINE
  5
167
330
4A9
100
AcDbEntity
  8
0
  6
Continuous
 62
     7
100
AcDbPolyline
 90
        3
 70
   128
 43
0.0
 10
77.0628321572
 20
86.9211163924
 10
76.3046764705
 20
86.35735971249999
 10
75.5704443367
 20
86.2250026104
  0
LWPOLYLINE
  5
168
330
4A9
100
AcDbEntity
  8
0
  6
Continuous
 62
     7
100
AcDbPolyline
 90
        3
 70
   128
 43
0.0
 10
66.33466709310001
 20
87.05833594370002
 10
66.7008442835
 20
86.76222647280001
 10
67.0588257469
 20
86.6737205591
  0
LWPOLYLINE
  5
16C
330
4A9
100
AcDbEntity
  8
0
  6
Continuous
 62
     7
100
AcDbPolyline
 90
        3
 70
   128
 43
0.0
 10
211.4124163659
 20
87.95916701999999
 10
211.5445778074
 20
88.67960743290002
 10
211.8330894428
 20
89.1791189431
  0
LWPOLYLINE
  5
16E
330
4A9
100
AcDbEntity
  8
0
  6
Continuous
 62
     7
100
AcDbPolyline
 90
        3
 70
   128
 43
0.0
 10
106.910671251
 20
90.0070538924
 10
107.8367932175
 20
89.77796543110001
 10
108.3890366357
 20
89.26686959760001
  0
LWPOLYLINE
  5
172
330
4A9
100
AcDbEntity
  8
0
  6
Continuous
 62
     7
100
AcDbPolyline
 90
        3
 70
   128
 43
0.0
 10
114.7632353536
 20
87.98682152059999
 10
114.3818282917
 20
88.2318589988
 10
114.1332273408
 20
88.48561959760001
  0
LWPOLYLINE
  5
173
330
4A9
100
AcDbEntity
  8
0
  6
Continuous
 62
     7
100
AcDbPolyline
 90
        3
 70
   128
 43
0.0
 10
85.7807808751
 20
89.25284716170001
 10
86.4725325757
 20
89.8468919109
 10
87.1710052341
 20
90.0070538924
  0
LWPOLYLINE
  5
174
330
4A9
100
AcDbEntity
  8
0
  6
Continuous
 62
     7
100
AcDbPolyline
 90
        3
 70
   128
 43
0.0
 10
115.4403186869
 20
87.2616612642
 10
115.4014193321
 20
87.4680488703
 10
115.3171215716
 20
87.61021895649999
  0
LWPOLYLINE
  5
175
330
4A9
100
AcDbEntity
  8
0
  6
Continuous
 62
     7
100
AcDbPolyline
 90
        3
 70
   128
 43
0.0
 10
220.7032817505
 20
88.58817343030001
 10
220.9800628862
 20
88.35652764089999
 10
221.2251166864
 20
88.21157086620001
  0
LWPOLYLINE
  5
176
330
4A9
100
AcDbEntity
  8
0
  6
Continuous
 62
     7
100
AcDbPolyline
 90
        4
 70
   128
 43
0.0
 10
218.7311263018
 20
88.69234009690002
 10
218.5957687573
 20
89.02800476979999
 10
218.3376637832
 20
89.27978686780001
 10
217.788618289
 20
89.411490738
  0
LWPOLYLINE
  5
178
330
4A9
100
AcDbEntity
  8
0
  6
Continuous
 62
     7
100
AcDbPolyline
 90
        3
 70
   128
 43
0.0
 10
110.2480109946
 20
88.2482397899
 10
110.2626711797
 20
87.76719206870001
 10
110.3191247767
 20
87.39387280269999
  0
LWPOLYLINE
  5
179
330
4A9
100
AcDbEntity
  8
0
  6
Continuous
 62
     7
100
AcDbPolyline
 90
        3
 70
   128
 43
0.0
 10
220.9827288659
 20
86.07815740459999
 10
220.3396456012
 20
86.23893869719999
 10
219.9380573915
 20
86.57294907129999
  0
LWPOLYLINE
  5
17A
330
4A9
100
AcDbEntity
  8
0
  6
Continuous
 62
     7
100
AcDbPolyline
 90
        3
 70
   128
 43
0.0
 10
67.70385779819999
 20
87.2616612642
 10
67.66495844339999
 20
87.4680488703
 10
67.5806606828
 20
87.61021895649999
  0
LWPOLYLINE
  5
17B
330
4A9
100
AcDbEntity
  8
0
  6
Continuous
 62
     7
100
AcDbPolyline
 90
        3
 70
   128
 43
0.0
 10
67.5806606828
 20
87.61021895649999
 10
67.2847010663
 20
87.84131093110001
 10
67.0267744649
 20
87.98682152059999
  0
LWPOLYLINE
  5
17D
330
4A9
100
AcDbEntity
  8
0
  6
Continuous
 62
     7
100
AcDbPolyline
 90
        3
 70
   128
 43
0.0
 10
115.3171215716
 20
87.61021895649999
 10
115.021161955
 20
87.84131093110001
 10
114.7632353536
 20
87.98682152059999
  0
LWPOLYLINE
  5
17E
330
4A9
100
AcDbEntity
  8
0
  6
Continuous
 62
     7
100
AcDbPolyline
 90
        4
 70
   128
 43
0.0
 10
207.7054852761
 20
88.69234009690002
 10
207.5701277316
 20
89.02800476979999
 10
207.3120227575
 20
89.27978686780001
 10
206.7629772633
 20
89.411490738
  0
LWPOLYLINE
  5
182
330
4A9
100
AcDbEntity
  8
0
  6
Continuous
 62
     7
100
AcDbPolyline
 90
        3
 70
   128
 43
0.0
 10
207.758570212
 20
87.86100996870001
 10
207.7487698046
 20
88.3281573222
 10
207.7054852761
 20
88.69234009690002
  0
LWPOLYLINE
  5
183
330
4A9
100
AcDbEntity
  8
0
  6
Continuous
 62
     7
100
AcDbPolyline
 90
        3
 70
   128
 43
0.0
 10
114.0711279818
 20
87.05833594370002
 10
114.4373051722
 20
86.76222647280001
 10
114.7952866357
 20
86.6737205591
  0
LWPOLYLINE
  5
184
330
4A9
100
AcDbEntity
  8
0
  6
Continuous
 62
     7
100
AcDbPolyline
 90
        3
 70
   128
 43
0.0
 10
218.7842112377
 20
87.86100996870001
 10
218.7744108302
 20
88.3281573222
 10
218.7311263018
 20
88.69234009690002
  0
LWPOLYLINE
  5
185
330
4A9
100
AcDbEntity
  8
0
  6
Continuous
 62
     7
100
AcDbPolyline
 90
        3
 70
   128
 43
0.0
 10
114.8183234946
 20
86.2250026104
 10
114.1752402299
 20
86.38578390299999
 10
113.7736520203
 20
86.719794277
  0
LWPOLYLINE
  5
18A
330
4A9
100
AcDbEntity
  8
0
  6
Continuous
 62
     7
100
AcDbPolyline
 90
        3
 70
   128
 43
0.0
 10
119.9785799049
 20
89.28790325139999
 10
120.3037781823
 20
88.60932482690001
 10
120.3762161228
 20
88.01987440519999
  0
LWPOLYLINE
  5
18E
330
4A9
100
AcDbEntity
  8
0
  6
Continuous
 62
     7
100
AcDbPolyline
 90
        3
 70
   128
 43
0.0
 10
103.2247738152
 20
88.6789288924
 10
102.513837659
 20
88.6064672626
 10
101.9517369562
 20
88.59679748219999
  0
LWPOLYLINE
  5
18F
330
4A9
100
AcDbEntity
  8
0
  6
Continuous
 62
     7
100
AcDbPolyline
 90
        3
 70
   128
 43
0.0
 10
182.935125993
 20
96.14925370709999
 10
183.24459438
 20
96.11521136170001
 10
183.482000993
 20
96.0551030661
  0
LWPOLYLINE
  5
191
330
4A9
100
AcDbEntity
  8
0
  6
Continuous
 62
     7
100
AcDbPolyline
 90
        3
 70
   128
 43
0.0
 10
84.0590260675
 20
88.91731030269999
 10
83.3894861063
 20
89.43925876020001
 10
82.72889786230001
 20
89.55833594370002
  0
LWPOLYLINE
  5
194
330
4A9
100
AcDbEntity
  8
0
  6
Continuous
 62
     7
100
AcDbPolyline
 90
        3
 70
   128
 43
0.0
 10
211.8330894428
 20
89.1791189431
 10
212.5544861584
 20
89.73223570729999
 10
213.2613746992
 20
89.86020868670001
  0
LWPOLYLINE
  5
197
330
4A9
100
AcDbEntity
  8
0
  6
Continuous
 62
     7
100
AcDbPolyline
 90
        3
 70
   128
 43
0.0
 10
216.47651893
 20
89.13705163540001
 10
217.1695957367
 20
89.7158197139
 10
217.866743289
 20
89.86020868670001
  0
LWPOLYLINE
  5
198
330
4A9
100
AcDbEntity
  8
0
  6
Continuous
 62
     7
100
AcDbPolyline
 90
        3
 70
   128
 43
0.0
 10
112.5456872767
 20
87.3578151104
 10
112.6119487691
 20
87.85399536019999
 10
112.6198058664
 20
88.2482397899
  0
LWPOLYLINE
  5
19A
330
4A9
100
AcDbEntity
  8
0
  6
Continuous
 62
     7
100
AcDbPolyline
 90
        3
 70
   128
 43
0.0
 10
205.4508779043
 20
89.13705163540001
 10
206.143954711
 20
89.7158197139
 10
206.8411022633
 20
89.86020868670001
  0
LWPOLYLINE
  5
19E
330
4A9
100
AcDbEntity
  8
0
  6
Continuous
 62
     7
100
AcDbPolyline
 90
        3
 70
   128
 43
0.0
 10
117.0789404818
 20
89.3259641488
 10
117.8003371974
 20
89.87908091299999
 10
118.5072257382
 20
90.0070538924
  0
LWPOLYLINE
  5
1A1
330
4A9
100
AcDbEntity
  8
0
  6
Continuous
 62
     7
100
AcDbPolyline
 90
        3
 70
   128
 43
0.0
 10
66.80241549049999
 20
88.73501863600001
 10
67.0791966262
 20
88.50337284670001
 10
67.3242504264
 20
88.35841607190001
  0
LWPOLYLINE
  5
1A3
330
4A9
100
AcDbEntity
  8
0
  6
Continuous
 62
     7
100
AcDbPolyline
 90
        3
 70
   128
 43
0.0
 10
114.5388763793
 20
88.73501863600001
 10
114.8156575149
 20
88.50337284670001
 10
115.0607113152
 20
88.35841607190001
  0
LWPOLYLINE
  5
1A6
330
4A9
100
AcDbEntity
  8
0
  6
Continuous
 62
     7
100
AcDbPolyline
 90
        3
 70
   128
 43
0.0
 10
70.9891142085
 20
86.2250026104
 10
70.0688946122
 20
86.4619537935
 10
69.49872959310001
 20
86.9511644694
  0
LWPOLYLINE
  5
1A8
330
4A9
100
AcDbEntity
  8
0
  6
Continuous
 62
     7
100
AcDbPolyline
 90
        3
 70
   128
 43
0.0
 10
118.5072257382
 20
90.0070538924
 10
119.4226042796
 20
89.782116551
 10
119.9785799049
 20
89.28790325139999
  0
LWPOLYLINE
  5
1A9
330
4A9
100
AcDbEntity
  8
0
  6
Continuous
 62
     7
100
AcDbPolyline
 90
        3
 70
   128
 43
0.0
 10
88.08847318279999
 20
88.0078551745
 10
88.0785457492
 20
88.47494934870001
 10
88.03638984950001
 20
88.83918530269999
  0
LWPOLYLINE
  5
1AA
330
4A9
100
AcDbEntity
  8
0
  6
Continuous
 62
     7
100
AcDbPolyline
 90
        5
 70
   128
 43
0.0
 10
182.199949711
 20
95.19472646350001
 10
182.2241229043
 20
95.58354256580001
 10
182.3796049619
 20
95.93434362089999
 10
182.6340023032
 20
96.1005226646
 10
182.935125993
 20
96.14925370709999
  0
LWPOLYLINE
  5
1AD
330
4A9
100
AcDbEntity
  8
0
  6
Continuous
 62
     7
100
AcDbPolyline
 90
        3
 70
   128
 43
0.0
 10
66.39676645209999
 20
88.48561959760001
 10
66.26070107939999
 20
88.7888270756
 10
66.2294988239
 20
89.0485202386
  0
LWPOLYLINE
  5
1AF
330
4A9
100
AcDbEntity
  8
0
  6
Continuous
 62
     7
100
AcDbPolyline
 90
        3
 70
   128
 43
0.0
 10
114.1332273408
 20
88.48561959760001
 10
113.9971619682
 20
88.7888270756
 10
113.9659597126
 20
89.0485202386
  0
LWPOLYLINE
  5
1B5
330
4A9
100
AcDbEntity
  8
0
  6
Continuous
 62
     7
100
AcDbPolyline
 90
        6
 70
   128
 43
0.0
 10
103.7736520203
 20
89.94595613600001
 10
103.6598137544
 20
90.35555174129999
 10
103.5262195703
 20
90.5236736169
 10
103.3522175348
 20
90.64920431469998
 10
102.93814657
 20
90.75655560639999
 10
102.5086279818
 20
90.77628466170001
  0
LWPOLYLINE
  5
1B6
330
4A9
100
AcDbEntity
  8
0
  6
Continuous
 62
     7
100
AcDbPolyline
 90
        6
 70
   128
 43
0.0
 10
102.4695654818
 20
89.09860036679999
 10
102.910737906
 20
89.11946507469998
 10
103.3363013453
 20
89.2292794773
 10
103.5177911199
 20
89.3542578341
 10
103.6571765772
 20
89.52516683379998
 10
103.7736520203
 20
89.94595613600001
  0
LWPOLYLINE
  5
1BC
330
4A9
100
AcDbEntity
  8
0
  6
Continuous
 62
     7
100
AcDbPolyline
 90
        3
 70
   128
 43
0.0
 10
117.5887561869
 20
89.21578786679999
 10
117.2942637038
 20
88.82715420969999
 10
117.1540606741
 20
88.468592354
  0
LWPOLYLINE
  5
1BD
330
4A9
100
AcDbEntity
  8
0
  6
Continuous
 62
     7
100
AcDbPolyline
 90
        3
 70
   128
 43
0.0
 10
118.5302625972
 20
89.55833594370002
 10
117.9699354707
 20
89.4529888065
 10
117.5887561869
 20
89.21578786679999
  0
LWPOLYLINE
  5
1C6
330
4A9
100
AcDbEntity
  8
0
  6
Continuous
 62
     7
100
AcDbPolyline
 90
        3
 70
   128
 43
0.0
 10
60.9059811957
 20
86.80192568729999
 10
61.7113359429
 20
86.8283171066
 10
62.3352680546
 20
86.9291292129
  0
LWPOLYLINE
  5
1C9
330
4A9
100
AcDbEntity
  8
0
  6
Continuous
 62
     7
100
AcDbPolyline
 90
        3
 70
   128
 43
0.0
 10
62.22008375979999
 20
90.63606030269999
 10
61.36407565319999
 20
90.75846966190001
 10
60.6836254264
 20
90.77628466170001
  0
LWPOLYLINE
  5
1CD
330
4A9
100
AcDbEntity
  8
0
  6
Continuous
 62
     7
100
AcDbPolyline
 90
        6
 70
   128
 43
0.0
 10
177.7307990699
 20
93.7704476174
 10
178.1773192973
 20
93.79164047200001
 10
178.6083052311
 20
93.90235855350001
 10
178.7945774803
 20
94.02515997340001
 10
178.9382906341999
 20
94.195909139
 10
179.0589240699
 20
94.62080819429999
  0
LWPOLYLINE
  5
1CE
330
4A9
100
AcDbEntity
  8
0
  6
Continuous
 62
     7
100
AcDbPolyline
 90
        7
 70
   128
 43
0.0
 10
179.0589240699
 20
94.62080819429999
 10
179.028836566
 20
94.8371578781
 10
178.9364041539
 20
95.03507294850001
 10
178.7950282738
 20
95.20165043790001
 10
178.6137964045
 20
95.32364181129999
 10
178.1901237951
 20
95.42549954709999
 10
177.7528343264
 20
95.444125502
  0
LWPOLYLINE
  5
1D4
330
4A9
100
AcDbEntity
  8
0
  6
Continuous
 62
     7
100
AcDbPolyline
 90
        3
 70
   128
 43
0.0
 10
212.3429051479
 20
89.06894266100001
 10
212.0484126648
 20
88.68030900389999
 10
211.9082096351
 20
88.3217471482
  0
LWPOLYLINE
  5
1D5
330
4A9
100
AcDbEntity
  8
0
  6
Continuous
 62
     7
100
AcDbPolyline
 90
        3
 70
   128
 43
0.0
 10
213.2844115582
 20
89.411490738
 10
212.7240844317
 20
89.30614360079999
 10
212.3429051479
 20
89.06894266100001
  0
LINE
  5
1D7
330
4A9
100
AcDbEntity
  8
0
  6
Continuous
 62
     7
100
AcDbLine
 10
59.88334497770001
 20
91.2891051745
 30
0.0
 11
60.89296036229999
 21
91.2891051745
 31
0.0
  0
LINE
  5
1D8
330
4A9
100
AcDbEntity
  8
0
  6
Continuous
 62
     7
100
AcDbLine
 10
59.88334497770001
 20
86.2891051745
 30
0.0
 11
59.88334497770001
 21
91.2891051745
 31
0.0
  0
LINE
  5
1D9
330
4A9
100
AcDbEntity
  8
0
  6
Continuous
 62
     7
100
AcDbLine
 10
61.43282414439999
 20
86.2891051745
 30
0.0
 11
59.88334497770001
 21
86.2891051745
 31
0.0
  0
LINE
  5
1DA
330
4A9
100
AcDbEntity
  8
0
  6
Continuous
 62
     7
100
AcDbLine
 10
180.8537958648
 20
94.6107921687
 30
0.0
 11
180.8537958648
 21
90.95694601479999
 31
0.0
  0
LINE
  5
1DB
330
4A9
100
AcDbEntity
  8
0
  6
Continuous
 62
     7
100
AcDbLine
 10
180.4050779161
 20
94.6107921687
 30
0.0
 11
180.8537958648
 21
94.6107921687
 31
0.0
  0
LINE
  5
1DC
330
4A9
100
AcDbEntity
  8
0
  6
Continuous
 62
     7
100
AcDbLine
 10
180.4050779161
 20
90.95694601479999
 30
0.0
 11
180.4050779161
 21
94.6107921687
 31
0.0
  0
LINE
  5
1DD
330
4A9
100
AcDbEntity
  8
0
  6
Continuous
 62
     7
100
AcDbLine
 10
180.8537958648
 20
90.95694601479999
 30
0.0
 11
180.4050779161
 21
90.95694601479999
 31
0.0
  0
LINE
  5
1DE
330
4A9
100
AcDbEntity
  8
0
  6
Continuous
 62
     7
100
AcDbLine
 10
215.1303650838
 20
87.87302919950001
 30
0.0
 11
211.8611343146
 21
87.87302919950001
 31
0.0
  0
LINE
  5
1DF
330
4A9
100
AcDbEntity
  8
0
  6
Continuous
 62
     7
100
AcDbLine
 10
214.539419571
 20
87.29610612260001
 30
0.0
 11
214.9380573915
 21
87.08677118670001
 31
0.0
  0
LINE
  5
1E0
330
4A9
100
AcDbEntity
  8
0
  6
Continuous
 62
     7
100
AcDbLine
 10
115.8249340716
 20
89.48722216170001
 30
0.0
 11
115.5204468921
 21
89.1737205591
 31
0.0
  0
LINE
  5
1E1
330
4A9
100
AcDbEntity
  8
0
  6
Continuous
 62
     7
100
AcDbLine
 10
113.0685238152
 20
89.9429513283
 30
0.0
 11
113.0685238152
 21
88.1641051745
 31
0.0
  0
LINE
  5
1E2
330
4A9
100
AcDbEntity
  8
0
  6
Continuous
 62
     7
100
AcDbLine
 10
112.6198058664
 20
89.9429513283
 30
0.0
 11
113.0685238152
 21
89.9429513283
 31
0.0
  0
LINE
  5
1E3
330
4A9
100
AcDbEntity
  8
0
  6
Continuous
 62
     7
100
AcDbLine
 10
112.6198058664
 20
88.2482397899
 30
0.0
 11
112.6198058664
 21
89.9429513283
 31
0.0
  0
LINE
  5
1E4
330
4A9
100
AcDbEntity
  8
0
  6
Continuous
 62
     7
100
AcDbLine
 10
110.2480109946
 20
89.9429513283
 30
0.0
 11
110.2480109946
 21
88.2482397899
 31
0.0
  0
LINE
  5
1E5
330
4A9
100
AcDbEntity
  8
0
  6
Continuous
 62
     7
100
AcDbLine
 10
109.7992930459
 20
89.9429513283
 30
0.0
 11
110.2480109946
 21
89.9429513283
 31
0.0
  0
LINE
  5
1E6
330
4A9
100
AcDbEntity
  8
0
  6
Continuous
 62
     7
100
AcDbLine
 10
109.7992930459
 20
88.1971580591
 30
0.0
 11
109.7992930459
 21
89.9429513283
 31
0.0
  0
LINE
  5
1E7
330
4A9
100
AcDbEntity
  8
0
  6
Continuous
 62
     7
100
AcDbLine
 10
108.3890366357
 20
86.2891051745
 30
0.0
 11
108.3890366357
 21
86.9211163924
 31
0.0
  0
LINE
  5
1E8
330
4A9
100
AcDbEntity
  8
0
  6
Continuous
 62
     7
100
AcDbLine
 10
108.8377545844
 20
86.2891051745
 30
0.0
 11
108.3890366357
 21
86.2891051745
 31
0.0
  0
LINE
  5
1E9
330
4A9
100
AcDbEntity
  8
0
  6
Continuous
 62
     7
100
AcDbLine
 10
108.8377545844
 20
89.9429513283
 30
0.0
 11
108.8377545844
 21
86.2891051745
 31
0.0
  0
LINE
  5
1EA
330
4A9
100
AcDbEntity
  8
0
  6
Continuous
 62
     7
100
AcDbLine
 10
108.3890366357
 20
89.9429513283
 30
0.0
 11
108.8377545844
 21
89.9429513283
 31
0.0
  0
LINE
  5
1EB
330
4A9
100
AcDbEntity
  8
0
  6
Continuous
 62
     7
100
AcDbLine
 10
108.3890366357
 20
89.26686959760001
 30
0.0
 11
108.3890366357
 21
89.9429513283
 31
0.0
  0
LINE
  5
1EC
330
4A9
100
AcDbEntity
  8
0
  6
Continuous
 62
     7
100
AcDbLine
 10
85.7807808751
 20
87.61021895649999
 30
0.0
 11
85.7807808751
 21
86.2891051745
 31
0.0
  0
LINE
  5
1ED
330
4A9
100
AcDbEntity
  8
0
  6
Continuous
 62
     7
100
AcDbLine
 10
85.7807808751
 20
91.41731030269999
 30
0.0
 11
85.7807808751
 21
89.25284716170001
 31
0.0
  0
LINE
  5
1EE
330
4A9
100
AcDbEntity
  8
0
  6
Continuous
 62
     7
100
AcDbLine
 10
85.3320629264
 20
86.2891051745
 30
0.0
 11
85.3320629264
 21
91.41731030269999
 31
0.0
  0
LINE
  5
1EF
330
4A9
100
AcDbEntity
  8
0
  6
Continuous
 62
     7
100
AcDbLine
 10
85.7807808751
 20
86.2891051745
 30
0.0
 11
85.3320629264
 21
86.2891051745
 31
0.0
  0
LINE
  5
1F0
330
4A9
100
AcDbEntity
  8
0
  6
Continuous
 62
     7
100
AcDbLine
 10
84.0590260675
 20
87.31474620010001
 30
0.0
 11
84.43462702899999
 21
87.0683519694
 31
0.0
  0
LINE
  5
1F1
330
4A9
100
AcDbEntity
  8
0
  6
Continuous
 62
     7
100
AcDbLine
 10
84.43462702899999
 20
89.15068370010001
 30
0.0
 11
84.0590260675
 21
88.91731030269999
 31
0.0
  0
LINE
  5
1F2
330
4A9
100
AcDbEntity
  8
0
  6
Continuous
 62
     7
100
AcDbLine
 10
78.3448834392
 20
89.49423337959999
 30
0.0
 11
78.3448834392
 21
89.9429513283
 31
0.0
  0
LINE
  5
1F3
330
4A9
100
AcDbEntity
  8
0
  6
Continuous
 62
     7
100
AcDbLine
 10
78.9859090803
 20
89.49423337959999
 30
0.0
 11
78.3448834392
 21
89.49423337959999
 31
0.0
  0
LINE
  5
1F4
330
4A9
100
AcDbEntity
  8
0
  6
Continuous
 62
     7
100
AcDbLine
 10
78.9859090803
 20
86.2891051745
 30
0.0
 11
78.9859090803
 21
89.49423337959999
 31
0.0
  0
LINE
  5
1F5
330
4A9
100
AcDbEntity
  8
0
  6
Continuous
 62
     7
100
AcDbLine
 10
79.43462702899999
 20
89.49423337959999
 30
0.0
 11
79.43462702899999
 21
86.2891051745
 31
0.0
  0
LINE
  5
1F6
330
4A9
100
AcDbEntity
  8
0
  6
Continuous
 62
     7
100
AcDbLine
 10
80.07565267
 20
89.49423337959999
 30
0.0
 11
79.43462702899999
 21
89.49423337959999
 31
0.0
  0
LINE
  5
1F7
330
4A9
100
AcDbEntity
  8
0
  6
Continuous
 62
     7
100
AcDbLine
 10
79.43462702899999
 20
89.9429513283
 30
0.0
 11
80.07565267
 21
89.9429513283
 31
0.0
  0
LINE
  5
1F8
330
4A9
100
AcDbEntity
  8
0
  6
Continuous
 62
     7
100
AcDbLine
 10
79.43462702899999
 20
91.41731030269999
 30
0.0
 11
79.43462702899999
 21
89.9429513283
 31
0.0
  0
LINE
  5
1F9
330
4A9
100
AcDbEntity
  8
0
  6
Continuous
 62
     7
100
AcDbLine
 10
78.9859090803
 20
91.41731030269999
 30
0.0
 11
79.43462702899999
 21
91.41731030269999
 31
0.0
  0
LINE
  5
1FA
330
4A9
100
AcDbEntity
  8
0
  6
Continuous
 62
     7
100
AcDbLine
 10
78.9859090803
 20
89.9429513283
 30
0.0
 11
78.9859090803
 21
91.41731030269999
 31
0.0
  0
LINE
  5
1FB
330
4A9
100
AcDbEntity
  8
0
  6
Continuous
 62
     7
100
AcDbLine
 10
78.3448834392
 20
89.9429513283
 30
0.0
 11
78.9859090803
 21
89.9429513283
 31
0.0
  0
LINE
  5
1FC
330
4A9
100
AcDbEntity
  8
0
  6
Continuous
 62
     7
100
AcDbLine
 10
77.0628321572
 20
86.2891051745
 30
0.0
 11
77.0628321572
 21
86.9211163924
 31
0.0
  0
LINE
  5
1FD
330
4A9
100
AcDbEntity
  8
0
  6
Continuous
 62
     7
100
AcDbLine
 10
77.5115501059
 20
86.2891051745
 30
0.0
 11
77.0628321572
 21
86.2891051745
 31
0.0
  0
LINE
  5
1FE
330
4A9
100
AcDbEntity
  8
0
  6
Continuous
 62
     7
100
AcDbLine
 10
77.5115501059
 20
89.9429513283
 30
0.0
 11
77.5115501059
 21
86.2891051745
 31
0.0
  0
LINE
  5
1FF
330
4A9
100
AcDbEntity
  8
0
  6
Continuous
 62
     7
100
AcDbLine
 10
77.0628321572
 20
89.9429513283
 30
0.0
 11
77.5115501059
 21
89.9429513283
 31
0.0
  0
LINE
  5
200
330
4A9
100
AcDbEntity
  8
0
  6
Continuous
 62
     7
100
AcDbLine
 10
77.0628321572
 20
89.26686959760001
 30
0.0
 11
77.0628321572
 21
89.9429513283
 31
0.0
  0
LINE
  5
201
330
4A9
100
AcDbEntity
  8
0
  6
Continuous
 62
     7
100
AcDbLine
 10
68.0884731828
 20
89.48722216170001
 30
0.0
 11
67.7839860033
 21
89.1737205591
 31
0.0
  0
LINE
  5
202
330
4A9
100
AcDbEntity
  8
0
  6
Continuous
 62
     7
100
AcDbLine
 10
65.2679603623
 20
89.9429513283
 30
0.0
 11
65.2679603623
 21
86.2891051745
 31
0.0
  0
LINE
  5
203
330
4A9
100
AcDbEntity
  8
0
  6
Continuous
 62
     7
100
AcDbLine
 10
64.81924241359999
 20
89.9429513283
 30
0.0
 11
65.2679603623
 21
89.9429513283
 31
0.0
  0
LINE
  5
204
330
4A9
100
AcDbEntity
  8
0
  6
Continuous
 62
     7
100
AcDbLine
 10
64.81924241359999
 20
86.2891051745
 30
0.0
 11
64.81924241359999
 21
89.9429513283
 31
0.0
  0
LINE
  5
205
330
4A9
100
AcDbEntity
  8
0
  6
Continuous
 62
     7
100
AcDbLine
 10
65.2679603623
 20
86.2891051745
 30
0.0
 11
64.81924241359999
 21
86.2891051745
 31
0.0
  0
LINE
  5
206
330
4A9
100
AcDbEntity
  8
0
  6
Continuous
 62
     7
100
AcDbLine
 10
61.29526693779999
 20
121.971397668
 30
0.0
 11
61.29526693779999
 21
223.471397668
 31
0.0
  0
LINE
  5
207
330
4A9
100
AcDbEntity
  8
0
  6
Continuous
 62
     7
100
AcDbLine
 10
117.7952669378
 20
121.971397668
 30
0.0
 11
61.29526693779999
 21
121.971397668
 31
0.0
  0
LINE
  5
208
330
4A9
100
AcDbEntity
  8
0
  6
Continuous
 62
     7
100
AcDbLine
 10
117.7952669378
 20
120.971397668
 30
0.0
 11
117.7952669378
 21
121.971397668
 31
0.0
  0
LINE
  5
209
330
4A9
100
AcDbEntity
  8
0
  6
Continuous
 62
     7
100
AcDbLine
 10
117.7952669378
 20
120.971397668
 30
0.0
 11
171.7952669378
 21
120.971397668
 31
0.0
  0
LINE
  5
20A
330
4A9
100
AcDbEntity
  8
0
  6
Continuous
 62
     7
100
AcDbLine
 10
171.7952669378
 20
121.971397668
 30
0.0
 11
171.7952669378
 21
120.971397668
 31
0.0
  0
LINE
  5
20B
330
4A9
100
AcDbEntity
  8
0
  6
Continuous
 62
     7
100
AcDbLine
 10
171.7952669378
 20
121.971397668
 30
0.0
 11
228.794861149
 21
121.971397668
 31
0.0
  0
LINE
  5
20C
330
4A9
100
AcDbEntity
  8
0
  6
Continuous
 62
     7
100
AcDbLine
 10
228.794861149
 20
223.471397668
 30
0.0
 11
228.794861149
 21
121.971397668
 31
0.0
  0
LINE
  5
20D
330
4A9
100
AcDbEntity
  8
0
  6
Continuous
 62
     7
100
AcDbLine
 10
34.2960509925
 20
241.8758772019
 30
0.0
 11
34.2960509925
 21
65.8758772019
 31
0.0
  0
LINE
  5
20E
330
4A9
100
AcDbEntity
  8
0
  6
Continuous
 62
     7
100
AcDbLine
 10
36.2960509925
 20
243.8758772019
 30
0.0
 11
252.2960509925
 21
243.8758772019
 31
0.0
  0
LINE
  5
20F
330
4A9
100
AcDbEntity
  8
0
  6
Continuous
 62
     7
100
AcDbLine
 10
254.2960509925
 20
241.8758772019
 30
0.0
 11
254.2960509925
 21
65.8758772019
 31
0.0
  0
LINE
  5
210
330
4A9
100
AcDbEntity
  8
0
  6
Continuous
 62
     7
100
AcDbLine
 10
36.2960509925
 20
63.87587720189999
 30
0.0
 11
252.2960509925
 21
63.87587720189999
 31
0.0
  0
LINE
  5
211
330
4A9
100
AcDbEntity
  8
0
  6
Continuous
 62
     7
100
AcDbLine
 10
69.49872959310001
 20
86.9511644694
 30
0.0
 11
69.49872959310001
 21
84.9429513283
 31
0.0
  0
LINE
  5
212
330
4A9
100
AcDbEntity
  8
0
  6
Continuous
 62
     7
100
AcDbLine
 10
69.49872959310001
 20
89.9429513283
 30
0.0
 11
69.49872959310001
 21
89.26686959760001
 31
0.0
  0
LINE
  5
213
330
4A9
100
AcDbEntity
  8
0
  6
Continuous
 62
     7
100
AcDbLine
 10
69.0500116444
 20
89.9429513283
 30
0.0
 11
69.49872959310001
 21
89.9429513283
 31
0.0
  0
LINE
  5
214
330
4A9
100
AcDbEntity
  8
0
  6
Continuous
 62
     7
100
AcDbLine
 10
69.0500116444
 20
84.9429513283
 30
0.0
 11
69.0500116444
 21
89.9429513283
 31
0.0
  0
LINE
  5
215
330
4A9
100
AcDbEntity
  8
0
  6
Continuous
 62
     7
100
AcDbLine
 10
69.49872959310001
 20
84.9429513283
 30
0.0
 11
69.0500116444
 21
84.9429513283
 31
0.0
  0
LINE
  5
216
330
4A9
100
AcDbEntity
  8
0
  6
Continuous
 62
     7
100
AcDbLine
 10
101.5941648408
 20
88.59679748219999
 30
0.0
 11
101.5941648408
 21
86.2891051745
 31
0.0
  0
LINE
  5
217
330
4A9
100
AcDbEntity
  8
0
  6
Continuous
 62
     7
100
AcDbLine
 10
101.9517369562
 20
88.59679748219999
 30
0.0
 11
101.5941648408
 21
88.59679748219999
 31
0.0
  0
LINE
  5
218
330
4A9
100
AcDbEntity
  8
0
  6
Continuous
 62
     7
100
AcDbLine
 10
101.1454468921
 20
91.2891051745
 30
0.0
 11
102.1260158023
 21
91.2891051745
 31
0.0
  0
LINE
  5
219
330
4A9
100
AcDbEntity
  8
0
  6
Continuous
 62
     7
100
AcDbLine
 10
101.1454468921
 20
86.2891051745
 30
0.0
 11
101.1454468921
 21
91.2891051745
 31
0.0
  0
LINE
  5
21A
330
4A9
100
AcDbEntity
  8
0
  6
Continuous
 62
     7
100
AcDbLine
 10
101.5941648408
 20
86.2891051745
 30
0.0
 11
101.1454468921
 21
86.2891051745
 31
0.0
  0
LINE
  5
21B
330
4A9
100
AcDbEntity
  8
0
  6
Continuous
 62
     7
100
AcDbLine
 10
183.9307189417
 20
94.1620742199
 30
0.0
 11
183.9307189417
 21
94.6107921687
 31
0.0
  0
LINE
  5
21C
330
4A9
100
AcDbEntity
  8
0
  6
Continuous
 62
     7
100
AcDbLine
 10
184.5717445828
 20
94.1620742199
 30
0.0
 11
183.9307189417
 21
94.1620742199
 31
0.0
  0
LINE
  5
21D
330
4A9
100
AcDbEntity
  8
0
  6
Continuous
 62
     7
100
AcDbLine
 10
184.5717445828
 20
90.95694601479999
 30
0.0
 11
184.5717445828
 21
94.1620742199
 31
0.0
  0
LINE
  5
21E
330
4A9
100
AcDbEntity
  8
0
  6
Continuous
 62
     7
100
AcDbLine
 10
185.0204625315
 20
90.95694601479999
 30
0.0
 11
184.5717445828
 21
90.95694601479999
 31
0.0
  0
LINE
  5
21F
330
4A9
100
AcDbEntity
  8
0
  6
Continuous
 62
     7
100
AcDbLine
 10
185.0204625315
 20
94.1620742199
 30
0.0
 11
185.0204625315
 21
90.95694601479999
 31
0.0
  0
LINE
  5
220
330
4A9
100
AcDbEntity
  8
0
  6
Continuous
 62
     7
100
AcDbLine
 10
185.6614881725
 20
94.1620742199
 30
0.0
 11
185.0204625315
 21
94.1620742199
 31
0.0
  0
LINE
  5
221
330
4A9
100
AcDbEntity
  8
0
  6
Continuous
 62
     7
100
AcDbLine
 10
185.6614881725
 20
94.6107921687
 30
0.0
 11
185.6614881725
 21
94.1620742199
 31
0.0
  0
LINE
  5
222
330
4A9
100
AcDbEntity
  8
0
  6
Continuous
 62
     7
100
AcDbLine
 10
185.0204625315
 20
94.6107921687
 30
0.0
 11
185.6614881725
 21
94.6107921687
 31
0.0
  0
LINE
  5
223
330
4A9
100
AcDbEntity
  8
0
  6
Continuous
 62
     7
100
AcDbLine
 10
185.0204625315
 20
96.08515114299999
 30
0.0
 11
185.0204625315
 21
94.6107921687
 31
0.0
  0
LINE
  5
224
330
4A9
100
AcDbEntity
  8
0
  6
Continuous
 62
     7
100
AcDbLine
 10
184.5717445828
 20
96.08515114299999
 30
0.0
 11
185.0204625315
 21
96.08515114299999
 31
0.0
  0
LINE
  5
225
330
4A9
100
AcDbEntity
  8
0
  6
Continuous
 62
     7
100
AcDbLine
 10
184.5717445828
 20
94.6107921687
 30
0.0
 11
184.5717445828
 21
96.08515114299999
 31
0.0
  0
LINE
  5
226
330
4A9
100
AcDbEntity
  8
0
  6
Continuous
 62
     7
100
AcDbLine
 10
183.9307189417
 20
94.6107921687
 30
0.0
 11
184.5717445828
 21
94.6107921687
 31
0.0
  0
LINE
  5
227
330
4A9
100
AcDbEntity
  8
0
  6
Continuous
 62
     7
100
AcDbLine
 10
182.199949711
 20
94.6107921687
 30
0.0
 11
182.199949711
 21
95.19472646350001
 31
0.0
  0
LINE
  5
228
330
4A9
100
AcDbEntity
  8
0
  6
Continuous
 62
     7
100
AcDbLine
 10
181.6871291981
 20
94.6107921687
 30
0.0
 11
182.199949711
 21
94.6107921687
 31
0.0
  0
LINE
  5
229
330
4A9
100
AcDbEntity
  8
0
  6
Continuous
 62
     7
100
AcDbLine
 10
181.6871291981
 20
94.1620742199
 30
0.0
 11
181.6871291981
 21
94.6107921687
 31
0.0
  0
LINE
  5
22A
330
4A9
100
AcDbEntity
  8
0
  6
Continuous
 62
     7
100
AcDbLine
 10
182.199949711
 20
94.1620742199
 30
0.0
 11
181.6871291981
 21
94.1620742199
 31
0.0
  0
LINE
  5
22B
330
4A9
100
AcDbEntity
  8
0
  6
Continuous
 62
     7
100
AcDbLine
 10
182.199949711
 20
90.95694601479999
 30
0.0
 11
182.199949711
 21
94.1620742199
 31
0.0
  0
LINE
  5
22C
330
4A9
100
AcDbEntity
  8
0
  6
Continuous
 62
     7
100
AcDbLine
 10
182.6486676597
 20
90.95694601479999
 30
0.0
 11
182.199949711
 21
90.95694601479999
 31
0.0
  0
LINE
  5
22D
330
4A9
100
AcDbEntity
  8
0
  6
Continuous
 62
     7
100
AcDbLine
 10
182.6506708648
 20
94.1620742199
 30
0.0
 11
182.6486676597
 21
90.95694601479999
 31
0.0
  0
LINE
  5
22E
330
4A9
100
AcDbEntity
  8
0
  6
Continuous
 62
     7
100
AcDbLine
 10
183.4178984289
 20
94.1620742199
 30
0.0
 11
182.6506708648
 21
94.1620742199
 31
0.0
  0
LINE
  5
22F
330
4A9
100
AcDbEntity
  8
0
  6
Continuous
 62
     7
100
AcDbLine
 10
183.4178984289
 20
94.6107921687
 30
0.0
 11
183.4178984289
 21
94.1620742199
 31
0.0
  0
LINE
  5
230
330
4A9
100
AcDbEntity
  8
0
  6
Continuous
 62
     7
100
AcDbLine
 10
182.6516724674
 20
94.6107921687
 30
0.0
 11
183.4178984289
 21
94.6107921687
 31
0.0
  0
LINE
  5
231
330
4A9
100
AcDbEntity
  8
0
  6
Continuous
 62
     7
100
AcDbLine
 10
182.6516724674
 20
95.1176030661
 30
0.0
 11
182.6516724674
 21
94.6107921687
 31
0.0
  0
LINE
  5
232
330
4A9
100
AcDbEntity
  8
0
  6
Continuous
 62
     7
100
AcDbLine
 10
183.482000993
 20
96.0551030661
 30
0.0
 11
183.482000993
 21
95.58835627120002
 31
0.0
  0
LINE
  5
233
330
4A9
100
AcDbEntity
  8
0
  6
Continuous
 62
     7
100
AcDbLine
 10
120.3762161228
 20
88.01987440519999
 30
0.0
 11
117.1069853536
 21
88.01987440519999
 31
0.0
  0
LINE
  5
234
330
4A9
100
AcDbEntity
  8
0
  6
Continuous
 62
     7
100
AcDbLine
 10
119.78527061
 20
87.4429513283
 30
0.0
 11
120.1839084305
 21
87.2336163924
 31
0.0
  0
LINE
  5
235
330
4A9
100
AcDbEntity
  8
0
  6
Continuous
 62
     7
100
AcDbLine
 10
203.8483138018
 20
91.14225996870001
 30
0.0
 11
203.8483138018
 21
86.14225996870001
 31
0.0
  0
LINE
  5
236
330
4A9
100
AcDbEntity
  8
0
  6
Continuous
 62
     7
100
AcDbLine
 10
203.3995958531
 20
91.14225996870001
 30
0.0
 11
203.8483138018
 21
91.14225996870001
 31
0.0
  0
LINE
  5
237
330
4A9
100
AcDbEntity
  8
0
  6
Continuous
 62
     7
100
AcDbLine
 10
203.3995958531
 20
86.14225996870001
 30
0.0
 11
203.3995958531
 21
91.14225996870001
 31
0.0
  0
LINE
  5
238
330
4A9
100
AcDbEntity
  8
0
  6
Continuous
 62
     7
100
AcDbLine
 10
203.8483138018
 20
86.14225996870001
 30
0.0
 11
203.3995958531
 21
86.14225996870001
 31
0.0
  0
LINE
  5
239
330
4A9
100
AcDbEntity
  8
0
  6
Continuous
 62
     7
100
AcDbLine
 10
205.4508779043
 20
87.46337375080001
 30
0.0
 11
205.4508779043
 21
86.14225996870001
 31
0.0
  0
LINE
  5
23A
330
4A9
100
AcDbEntity
  8
0
  6
Continuous
 62
     7
100
AcDbLine
 10
207.758570212
 20
86.14225996870001
 30
0.0
 11
207.758570212
 21
87.86100996870001
 31
0.0
  0
LINE
  5
23B
330
4A9
100
AcDbEntity
  8
0
  6
Continuous
 62
     7
100
AcDbLine
 10
208.2072881608
 20
86.14225996870001
 30
0.0
 11
207.758570212
 21
86.14225996870001
 31
0.0
  0
LINE
  5
23C
330
4A9
100
AcDbEntity
  8
0
  6
Continuous
 62
     7
100
AcDbLine
 10
208.2072881608
 20
88.00824554569999
 30
0.0
 11
208.2072881608
 21
86.14225996870001
 31
0.0
  0
LINE
  5
23D
330
4A9
100
AcDbEntity
  8
0
  6
Continuous
 62
     7
100
AcDbLine
 10
205.4508779043
 20
89.79610612260001
 30
0.0
 11
205.4508779043
 21
89.13705163540001
 31
0.0
  0
LINE
  5
23E
330
4A9
100
AcDbEntity
  8
0
  6
Continuous
 62
     7
100
AcDbLine
 10
205.0021599556
 20
86.14225996870001
 30
0.0
 11
205.0021599556
 21
89.79610612260001
 31
0.0
  0
LINE
  5
23F
330
4A9
100
AcDbEntity
  8
0
  6
Continuous
 62
     7
100
AcDbLine
 10
209.0406214941
 20
89.3473881739
 30
0.0
 11
209.0406214941
 21
89.79610612260001
 31
0.0
  0
LINE
  5
240
330
4A9
100
AcDbEntity
  8
0
  6
Continuous
 62
     7
100
AcDbLine
 10
209.6816471351
 20
89.3473881739
 30
0.0
 11
209.0406214941
 21
89.3473881739
 31
0.0
  0
LINE
  5
241
330
4A9
100
AcDbEntity
  8
0
  6
Continuous
 62
     7
100
AcDbLine
 10
209.6816471351
 20
86.14225996870001
 30
0.0
 11
209.6816471351
 21
89.3473881739
 31
0.0
  0
LINE
  5
242
330
4A9
100
AcDbEntity
  8
0
  6
Continuous
 62
     7
100
AcDbLine
 10
210.1303650838
 20
86.14225996870001
 30
0.0
 11
209.6816471351
 21
86.14225996870001
 31
0.0
  0
LINE
  5
243
330
4A9
100
AcDbEntity
  8
0
  6
Continuous
 62
     7
100
AcDbLine
 10
210.1303650838
 20
89.3473881739
 30
0.0
 11
210.1303650838
 21
86.14225996870001
 31
0.0
  0
LINE
  5
244
330
4A9
100
AcDbEntity
  8
0
  6
Continuous
 62
     7
100
AcDbLine
 10
210.7713907249
 20
89.79610612260001
 30
0.0
 11
210.7713907249
 21
89.3473881739
 31
0.0
  0
LINE
  5
245
330
4A9
100
AcDbEntity
  8
0
  6
Continuous
 62
     7
100
AcDbLine
 10
210.1303650838
 20
89.79610612260001
 30
0.0
 11
210.7713907249
 21
89.79610612260001
 31
0.0
  0
LINE
  5
246
330
4A9
100
AcDbEntity
  8
0
  6
Continuous
 62
     7
100
AcDbLine
 10
210.1303650838
 20
91.27046509690002
 30
0.0
 11
210.1303650838
 21
89.79610612260001
 31
0.0
  0
LINE
  5
247
330
4A9
100
AcDbEntity
  8
0
  6
Continuous
 62
     7
100
AcDbLine
 10
209.6816471351
 20
91.27046509690002
 30
0.0
 11
210.1303650838
 21
91.27046509690002
 31
0.0
  0
LINE
  5
248
330
4A9
100
AcDbEntity
  8
0
  6
Continuous
 62
     7
100
AcDbLine
 10
209.6816471351
 20
89.79610612260001
 30
0.0
 11
209.6816471351
 21
91.27046509690002
 31
0.0
  0
LINE
  5
249
330
4A9
100
AcDbEntity
  8
0
  6
Continuous
 62
     7
100
AcDbLine
 10
209.0406214941
 20
89.79610612260001
 30
0.0
 11
209.6816471351
 21
89.79610612260001
 31
0.0
  0
LINE
  5
24A
330
4A9
100
AcDbEntity
  8
0
  6
Continuous
 62
     7
100
AcDbLine
 10
176.8153343264
 20
93.2646383225
 30
0.0
 11
176.8153343264
 21
90.95694601479999
 31
0.0
  0
LINE
  5
24B
330
4A9
100
AcDbEntity
  8
0
  6
Continuous
 62
     7
100
AcDbLine
 10
177.1799176597
 20
93.2646383225
 30
0.0
 11
176.8153343264
 21
93.2646383225
 31
0.0
  0
LINE
  5
24C
330
4A9
100
AcDbEntity
  8
0
  6
Continuous
 62
     7
100
AcDbLine
 10
179.0168567623
 20
90.95694601479999
 30
0.0
 11
177.1799176597
 21
93.2646383225
 31
0.0
  0
LINE
  5
24D
330
4A9
100
AcDbEntity
  8
0
  6
Continuous
 62
     7
100
AcDbLine
 10
179.5717445828
 20
90.95694601479999
 30
0.0
 11
179.0168567623
 21
90.95694601479999
 31
0.0
  0
LINE
  5
24E
330
4A9
100
AcDbEntity
  8
0
  6
Continuous
 62
     7
100
AcDbLine
 10
177.7348054802
 20
93.2646383225
 30
0.0
 11
179.5717445828
 21
90.95694601479999
 31
0.0
  0
LINE
  5
24F
330
4A9
100
AcDbEntity
  8
0
  6
Continuous
 62
     7
100
AcDbLine
 10
176.3666163776
 20
95.95694601479999
 30
0.0
 11
177.3672173391999
 21
95.95694601479999
 31
0.0
  0
LINE
  5
250
330
4A9
100
AcDbEntity
  8
0
  6
Continuous
 62
     7
100
AcDbLine
 10
176.3666163776
 20
90.95694601479999
 30
0.0
 11
176.3666163776
 21
95.95694601479999
 31
0.0
  0
LINE
  5
251
330
4A9
100
AcDbEntity
  8
0
  6
Continuous
 62
     7
100
AcDbLine
 10
176.8153343264
 20
90.95694601479999
 30
0.0
 11
176.3666163776
 21
90.95694601479999
 31
0.0
  0
LINE
  5
252
330
4A9
100
AcDbEntity
  8
0
  6
Continuous
 62
     7
100
AcDbLine
 10
227.5662625197
 20
84.79610612260001
 30
0.0
 11
227.0814868787
 21
84.79610612260001
 31
0.0
  0
LINE
  5
253
330
4A9
100
AcDbEntity
  8
0
  6
Continuous
 62
     7
100
AcDbLine
 10
229.8098522633
 20
89.79610612260001
 30
0.0
 11
227.5662625197
 21
84.79610612260001
 31
0.0
  0
LINE
  5
254
330
4A9
100
AcDbEntity
  8
0
  6
Continuous
 62
     7
100
AcDbLine
 10
229.3250766223
 20
89.79610612260001
 30
0.0
 11
229.8098522633
 21
89.79610612260001
 31
0.0
  0
LINE
  5
255
330
4A9
100
AcDbEntity
  8
0
  6
Continuous
 62
     7
100
AcDbLine
 10
228.0690670069
 20
86.9976285585
 30
0.0
 11
229.3250766223
 21
89.79610612260001
 31
0.0
  0
LINE
  5
256
330
4A9
100
AcDbEntity
  8
0
  6
Continuous
 62
     7
100
AcDbLine
 10
226.8320878402
 20
89.79610612260001
 30
0.0
 11
228.0690670069
 21
86.9976285585
 31
0.0
  0
LINE
  5
257
330
4A9
100
AcDbEntity
  8
0
  6
Continuous
 62
     7
100
AcDbLine
 10
226.3483138018
 20
89.79610612260001
 30
0.0
 11
226.8320878402
 21
89.79610612260001
 31
0.0
  0
LINE
  5
258
330
4A9
100
AcDbEntity
  8
0
  6
Continuous
 62
     7
100
AcDbLine
 10
227.8256775838
 20
86.45375836620001
 30
0.0
 11
226.3483138018
 21
89.79610612260001
 31
0.0
  0
LINE
  5
259
330
4A9
100
AcDbEntity
  8
0
  6
Continuous
 62
     7
100
AcDbLine
 10
224.2329291864
 20
89.3473881739
 30
0.0
 11
224.2329291864
 21
89.79610612260001
 31
0.0
  0
LINE
  5
25A
330
4A9
100
AcDbEntity
  8
0
  6
Continuous
 62
     7
100
AcDbLine
 10
224.8739548274
 20
89.3473881739
 30
0.0
 11
224.2329291864
 21
89.3473881739
 31
0.0
  0
LINE
  5
25B
330
4A9
100
AcDbEntity
  8
0
  6
Continuous
 62
     7
100
AcDbLine
 10
224.8739548274
 20
86.14225996870001
 30
0.0
 11
224.8739548274
 21
89.3473881739
 31
0.0
  0
LINE
  5
25C
330
4A9
100
AcDbEntity
  8
0
  6
Continuous
 62
     7
100
AcDbLine
 10
225.3226727761
 20
89.3473881739
 30
0.0
 11
225.3226727761
 21
86.14225996870001
 31
0.0
  0
LINE
  5
25D
330
4A9
100
AcDbEntity
  8
0
  6
Continuous
 62
     7
100
AcDbLine
 10
225.9636984172
 20
89.3473881739
 30
0.0
 11
225.3226727761
 21
89.3473881739
 31
0.0
  0
LINE
  5
25E
330
4A9
100
AcDbEntity
  8
0
  6
Continuous
 62
     7
100
AcDbLine
 10
225.9636984172
 20
89.79610612260001
 30
0.0
 11
225.9636984172
 21
89.3473881739
 31
0.0
  0
LINE
  5
25F
330
4A9
100
AcDbEntity
  8
0
  6
Continuous
 62
     7
100
AcDbLine
 10
225.3226727761
 20
89.79610612260001
 30
0.0
 11
225.9636984172
 21
89.79610612260001
 31
0.0
  0
LINE
  5
260
330
4A9
100
AcDbEntity
  8
0
  6
Continuous
 62
     7
100
AcDbLine
 10
225.3226727761
 20
91.27046509690002
 30
0.0
 11
225.3226727761
 21
89.79610612260001
 31
0.0
  0
LINE
  5
261
330
4A9
100
AcDbEntity
  8
0
  6
Continuous
 62
     7
100
AcDbLine
 10
224.8739548274
 20
91.27046509690002
 30
0.0
 11
225.3226727761
 21
91.27046509690002
 31
0.0
  0
LINE
  5
262
330
4A9
100
AcDbEntity
  8
0
  6
Continuous
 62
     7
100
AcDbLine
 10
224.8739548274
 20
89.79610612260001
 30
0.0
 11
224.8739548274
 21
91.27046509690002
 31
0.0
  0
LINE
  5
263
330
4A9
100
AcDbEntity
  8
0
  6
Continuous
 62
     7
100
AcDbLine
 10
224.2329291864
 20
89.79610612260001
 30
0.0
 11
224.8739548274
 21
89.79610612260001
 31
0.0
  0
LINE
  5
264
330
4A9
100
AcDbEntity
  8
0
  6
Continuous
 62
     7
100
AcDbLine
 10
223.335493289
 20
89.79610612260001
 30
0.0
 11
223.335493289
 21
86.14225996870001
 31
0.0
  0
LINE
  5
265
330
4A9
100
AcDbEntity
  8
0
  6
Continuous
 62
     7
100
AcDbLine
 10
222.8867753402
 20
89.79610612260001
 30
0.0
 11
223.335493289
 21
89.79610612260001
 31
0.0
  0
LINE
  5
266
330
4A9
100
AcDbEntity
  8
0
  6
Continuous
 62
     7
100
AcDbLine
 10
222.8867753402
 20
86.14225996870001
 30
0.0
 11
222.8867753402
 21
89.79610612260001
 31
0.0
  0
LINE
  5
267
330
4A9
100
AcDbEntity
  8
0
  6
Continuous
 62
     7
100
AcDbLine
 10
223.335493289
 20
86.14225996870001
 30
0.0
 11
222.8867753402
 21
86.14225996870001
 31
0.0
  0
LINE
  5
268
330
4A9
100
AcDbEntity
  8
0
  6
Continuous
 62
     7
100
AcDbLine
 10
219.9380573915
 20
86.57294907129999
 30
0.0
 11
220.2355333531
 21
86.911490738
 31
0.0
  0
LINE
  5
269
330
4A9
100
AcDbEntity
  8
0
  6
Continuous
 62
     7
100
AcDbLine
 10
221.9893394428
 20
89.34037695589999
 30
0.0
 11
221.6848522633
 21
89.0268753534
 31
0.0
  0
LINE
  5
26A
330
4A9
100
AcDbEntity
  8
0
  6
Continuous
 62
     7
100
AcDbLine
 10
216.47651893
 20
87.46337375080001
 30
0.0
 11
216.47651893
 21
86.14225996870001
 31
0.0
  0
LINE
  5
26B
330
4A9
100
AcDbEntity
  8
0
  6
Continuous
 62
     7
100
AcDbLine
 10
218.7842112377
 20
86.14225996870001
 30
0.0
 11
218.7842112377
 21
87.86100996870001
 31
0.0
  0
LINE
  5
26C
330
4A9
100
AcDbEntity
  8
0
  6
Continuous
 62
     7
100
AcDbLine
 10
219.2329291864
 20
86.14225996870001
 30
0.0
 11
218.7842112377
 21
86.14225996870001
 31
0.0
  0
LINE
  5
26D
330
4A9
100
AcDbEntity
  8
0
  6
Continuous
 62
     7
100
AcDbLine
 10
219.2329291864
 20
88.00824554569999
 30
0.0
 11
219.2329291864
 21
86.14225996870001
 31
0.0
  0
LINE
  5
26E
330
4A9
100
AcDbEntity
  8
0
  6
Continuous
 62
     7
100
AcDbLine
 10
216.47651893
 20
89.79610612260001
 30
0.0
 11
216.47651893
 21
89.13705163540001
 31
0.0
  0
LINE
  5
26F
330
4A9
100
AcDbEntity
  8
0
  6
Continuous
 62
     7
100
AcDbLine
 10
216.0278009813
 20
89.79610612260001
 30
0.0
 11
216.47651893
 21
89.79610612260001
 31
0.0
  0
LINE
  5
270
330
4A9
100
AcDbEntity
  8
0
  6
Continuous
 62
     7
100
AcDbLine
 10
216.0278009813
 20
86.14225996870001
 30
0.0
 11
216.0278009813
 21
89.79610612260001
 31
0.0
  0
LINE
  5
271
330
4A9
100
AcDbEntity
  8
0
  6
Continuous
 62
     7
100
AcDbLine
 10
216.47651893
 20
86.14225996870001
 30
0.0
 11
216.0278009813
 21
86.14225996870001
 31
0.0
  0
LINE
  5
272
330
4A9
100
AcDbEntity
  8
0
  6
Continuous
 62
     7
100
AcDbLine
 10
85.3320629264
 20
91.41731030269999
 30
0.0
 11
85.7807808751
 21
91.41731030269999
 31
0.0
  0
LINE
  5
273
330
4A9
100
AcDbEntity
  8
0
  6
Continuous
 62
     7
100
AcDbLine
 10
80.07565267
 20
89.9429513283
 30
0.0
 11
80.07565267
 21
89.49423337959999
 31
0.0
  0
LINE
  5
274
330
4A9
100
AcDbEntity
  8
0
  6
Continuous
 62
     7
100
AcDbLine
 10
227.0814868787
 20
84.79610612260001
 30
0.0
 11
227.8256775838
 21
86.45375836620001
 31
0.0
  0
LINE
  5
275
330
4A9
100
AcDbEntity
  8
0
  6
Continuous
 62
     7
100
AcDbLine
 10
210.7713907249
 20
89.3473881739
 30
0.0
 11
210.1303650838
 21
89.3473881739
 31
0.0
  0
LINE
  5
276
330
4A9
100
AcDbEntity
  8
0
  6
Continuous
 62
     7
100
AcDbLine
 10
88.08847318279999
 20
86.2891051745
 30
0.0
 11
88.08847318279999
 21
88.0078551745
 31
0.0
  0
LINE
  5
277
330
4A9
100
AcDbEntity
  8
0
  6
Continuous
 62
     7
100
AcDbLine
 10
225.3226727761
 20
86.14225996870001
 30
0.0
 11
224.8739548274
 21
86.14225996870001
 31
0.0
  0
LINE
  5
278
330
4A9
100
AcDbEntity
  8
0
  6
Continuous
 62
     7
100
AcDbLine
 10
79.43462702899999
 20
86.2891051745
 30
0.0
 11
78.9859090803
 21
86.2891051745
 31
0.0
  0
LINE
  5
279
330
4A9
100
AcDbEntity
  8
0
  6
Continuous
 62
     7
100
AcDbLine
 10
205.4508779043
 20
86.14225996870001
 30
0.0
 11
205.0021599556
 21
86.14225996870001
 31
0.0
  0
LINE
  5
27A
330
4A9
100
AcDbEntity
  8
0
  6
Continuous
 62
     7
100
AcDbLine
 10
61.29526693779999
 20
223.471397668
 30
0.0
 11
228.794861149
 21
223.471397668
 31
0.0
  0
LINE
  5
27B
330
4A9
100
AcDbEntity
  8
0
  6
Continuous
 62
     7
100
AcDbLine
 10
88.5371911316
 20
88.15509075139999
 30
0.0
 11
88.5371911316
 21
86.2891051745
 31
0.0
  0
LINE
  5
27C
330
4A9
100
AcDbEntity
  8
0
  6
Continuous
 62
     7
100
AcDbLine
 10
205.0021599556
 20
89.79610612260001
 30
0.0
 11
205.4508779043
 21
89.79610612260001
 31
0.0
  0
LINE
  5
27D
330
4A9
100
AcDbEntity
  8
0
  6
Continuous
 62
     7
100
AcDbLine
 10
88.5371911316
 20
86.2891051745
 30
0.0
 11
88.08847318279999
 21
86.2891051745
 31
0.0
  0
LINE
  5
27E
330
4A9
100
AcDbEntity
  8
0
  6
Continuous
 62
     7
100
AcDbLine
 10
113.7736520203
 20
86.719794277
 30
0.0
 11
114.0711279818
 21
87.05833594370002
 31
0.0
  0
LINE
  5
27F
330
4A9
100
AcDbEntity
  8
0
  6
Continuous
 62
     7
100
AcDbLine
 10
66.0371911316
 20
86.719794277
 30
0.0
 11
66.33466709310001
 21
87.05833594370002
 31
0.0
  0
LINE
  5
280
330
4A9
100
AcDbEntity
  8
0
  6
Continuous
 62
     7
100
AcDbLine
 10
101.5941648408
 20
89.10961799499999
 30
0.0
 11
102.4695654818
 21
89.09860036679999
 31
0.0
  0
LINE
  5
281
330
4A9
100
AcDbEntity
  8
0
  6
Continuous
 62
     7
100
AcDbLine
 10
101.5941648408
 20
90.77628466170001
 30
0.0
 11
101.5941648408
 21
89.10961799499999
 31
0.0
  0
LINE
  5
282
330
4A9
100
AcDbEntity
  8
0
  6
Continuous
 62
     7
100
AcDbLine
 10
102.5086279818
 20
90.77628466170001
 30
0.0
 11
101.5941648408
 21
90.77628466170001
 31
0.0
  0
LINE
  5
283
330
4A9
100
AcDbEntity
  8
0
  6
Continuous
 62
     7
100
AcDbLine
 10
117.1540606741
 20
88.468592354
 30
0.0
 11
119.9274981741
 21
88.468592354
 31
0.0
  0
LINE
  5
284
330
4A9
100
AcDbEntity
  8
0
  6
Continuous
 62
     7
100
AcDbLine
 10
60.3320629264
 20
86.80192568729999
 30
0.0
 11
60.9059811957
 21
86.80192568729999
 31
0.0
  0
LINE
  5
285
330
4A9
100
AcDbEntity
  8
0
  6
Continuous
 62
     7
100
AcDbLine
 10
60.6836254264
 20
90.77628466170001
 30
0.0
 11
60.3320629264
 21
90.77628466170001
 31
0.0
  0
LINE
  5
286
330
4A9
100
AcDbEntity
  8
0
  6
Continuous
 62
     7
100
AcDbLine
 10
60.3320629264
 20
90.77628466170001
 30
0.0
 11
60.3320629264
 21
86.80192568729999
 31
0.0
  0
LINE
  5
287
330
4A9
100
AcDbEntity
  8
0
  6
Continuous
 62
     7
100
AcDbLine
 10
176.8153343264
 20
93.77745883530002
 30
0.0
 11
177.7307990699
 21
93.7704476174
 31
0.0
  0
LINE
  5
288
330
4A9
100
AcDbEntity
  8
0
  6
Continuous
 62
     7
100
AcDbLine
 10
177.7528343264
 20
95.444125502
 30
0.0
 11
176.8153343264
 21
95.444125502
 31
0.0
  0
LINE
  5
289
330
4A9
100
AcDbEntity
  8
0
  6
Continuous
 62
     7
100
AcDbLine
 10
176.8153343264
 20
95.444125502
 30
0.0
 11
176.8153343264
 21
93.77745883530002
 31
0.0
  0
LINE
  5
28A
330
4A9
100
AcDbEntity
  8
0
  6
Continuous
 62
     7
100
AcDbLine
 10
211.9082096351
 20
88.3217471482
 30
0.0
 11
214.6816471351
 21
88.3217471482
 31
0.0
  0
ARC
  5
28B
330
4A9
100
AcDbEntity
  8
0
  6
Continuous
 62
     7
100
AcDbCircle
 10
36.2960509925
 20
65.8758772019
 30
0.0
 40
2.000000000000014
100
AcDbArc
 50
180.0
 51
270.0
  0
ARC
  5
28C
330
4A9
100
AcDbEntity
  8
0
  6
Continuous
 62
     7
100
AcDbCircle
 10
36.2960509925
 20
241.8758772019
 30
0.0
 40
2.000000000000027
100
AcDbArc
 50
90.0
 51
180.0
  0
ARC
  5
28D
330
4A9
100
AcDbEntity
  8
0
  6
Continuous
 62
     7
100
AcDbCircle
 10
252.2960509925
 20
241.8758772019
 30
0.0
 40
2.0
100
AcDbArc
 50
0.0
 51
90.0
  0
ARC
  5
28E
330
4A9
100
AcDbEntity
  8
0
  6
Continuous
 62
     7
100
AcDbCircle
 10
252.2960509925
 20
65.8758772019
 30
0.0
 40
2.000000000000014
100
AcDbArc
 50
270.0
 51
0.0
  0
ARC
  5
28F
330
4A9
100
AcDbEntity
  8
0
  6
Continuous
 62
     7
100
AcDbCircle
 10
180.6115787459
 20
95.77884575959998
 30
0.0
 40
0.3991378486861414
100
AcDbArc
 50
182.3276592839
 51
272.276557301
  0
ARC
  5
290
330
4A9
100
AcDbEntity
  8
0
  6
Continuous
 62
     7
100
AcDbCircle
 10
118.421963298
 20
87.9889370833
 30
0.0
 40
1.315341823300689
100
AcDbArc
 50
178.6522579768
 51
270.7908528495
  0
ARC
  5
291
330
4A9
100
AcDbEntity
  8
0
  6
Continuous
 62
     7
100
AcDbCircle
 10
223.0932761701
 20
90.9641597136
 30
0.0
 40
0.3991378486861372
100
AcDbArc
 50
182.3276592839
 51
272.276557301
  0
ARC
  5
292
330
4A9
100
AcDbEntity
  8
0
  6
Continuous
 62
     7
100
AcDbCircle
 10
223.1277051724
 20
90.93468312030001
 30
0.0
 40
0.4003156775729729
100
AcDbArc
 50
1.8990567449
 51
92.65939529799998
  0
ARC
  5
293
330
4A9
100
AcDbEntity
  8
0
  6
Continuous
 62
     7
100
AcDbCircle
 10
82.61240148289999
 20
88.11765031909999
 30
0.0
 40
1.895987695767914
100
AcDbArc
 50
180.9571001016
 51
273.4013869347
  0
ARC
  5
294
330
4A9
100
AcDbEntity
  8
0
  6
Continuous
 62
     7
100
AcDbCircle
 10
180.6460077483
 20
95.74936916639998
 30
0.0
 40
0.4003156775730388
100
AcDbArc
 50
1.8990567449
 51
92.65939529799998
  0
ARC
  5
295
330
4A9
100
AcDbEntity
  8
0
  6
Continuous
 62
     7
100
AcDbCircle
 10
65.05777350869999
 20
91.1148513208
 30
0.0
 40
0.4029939757816742
100
AcDbArc
 50
267.699650646
 51
357.1472056933999
  0
ARC
  5
296
330
4A9
100
AcDbEntity
  8
0
  6
Continuous
 62
     7
100
AcDbCircle
 10
114.9016620677
 20
89.07148003000001
 30
0.0
 40
0.4870093697739956
100
AcDbArc
 50
91.43837582709998
 51
180.5801267828
  0
ARC
  5
297
330
4A9
100
AcDbEntity
  8
0
  6
Continuous
 62
     7
100
AcDbCircle
 10
65.0257432434
 20
91.11100491930001
 30
0.0
 40
0.3991378486861963
100
AcDbArc
 50
182.3276592839
 51
272.276557301
  0
ARC
  5
298
330
4A9
100
AcDbEntity
  8
0
  6
Continuous
 62
     7
100
AcDbCircle
 10
213.3193534267
 20
87.8790170869
 30
0.0
 40
1.802180926615671
100
AcDbArc
 50
267.8058993503
 51
333.9213840399001
  0
ARC
  5
299
330
4A9
100
AcDbEntity
  8
0
  6
Continuous
 62
     7
100
AcDbCircle
 10
67.1652011789
 20
89.07148003000001
 30
0.0
 40
0.4870093697739664
100
AcDbArc
 50
91.43837582709998
 51
180.5801267828
  0
ARC
  5
29A
330
4A9
100
AcDbEntity
  8
0
  6
Continuous
 62
     7
100
AcDbCircle
 10
213.2253561039
 20
88.0332583224
 30
0.0
 40
1.50670374041635
100
AcDbArc
 50
268.8176958415001
 51
330.7088154271
  0
ARC
  5
29B
330
4A9
100
AcDbEntity
  8
0
  6
Continuous
 62
     7
100
AcDbCircle
 10
111.5248057075
 20
87.77236084180001
 30
0.0
 40
1.10183816493936
100
AcDbArc
 50
265.6336851296
 51
337.8995802093
  0
ARC
  5
29C
330
4A9
100
AcDbEntity
  8
0
  6
Continuous
 62
     7
100
AcDbCircle
 10
106.883178554
 20
88.11564730429999
 30
0.0
 40
1.891606388780566
100
AcDbArc
 50
89.16723109950002
 51
179.6850794849
  0
ARC
  5
29D
330
4A9
100
AcDbEntity
  8
0
  6
Continuous
 62
     7
100
AcDbCircle
 10
180.6436090112
 20
95.78269216109999
 30
0.0
 40
0.4029939757817287
100
AcDbArc
 50
267.699650646
 51
357.1472056933999
  0
ARC
  5
29E
330
4A9
100
AcDbEntity
  8
0
  6
Continuous
 62
     7
100
AcDbCircle
 10
111.4156424192
 20
87.87333361969999
 30
0.0
 40
1.648468247835469
100
AcDbArc
 50
168.671166838
 51
270.7393299682
  0
ARC
  5
29F
330
4A9
100
AcDbEntity
  8
0
  6
Continuous
 62
     7
100
AcDbCircle
 10
75.55697407550001
 20
88.11564730429999
 30
0.0
 40
1.891606388780581
100
AcDbArc
 50
89.16723109950002
 51
179.6850794849
  0
ARC
  5
2A0
330
4A9
100
AcDbEntity
  8
0
  6
Continuous
 62
     7
100
AcDbCircle
 10
106.8765558445
 20
88.1099195928
 30
0.0
 40
1.885024073634651
100
AcDbArc
 50
179.5098802014
 51
270.6107424477
  0
ARC
  5
2A1
330
4A9
100
AcDbEntity
  8
0
  6
Continuous
 62
     7
100
AcDbCircle
 10
213.2299889686
 20
87.8966894376
 30
0.0
 40
1.818646093757921
100
AcDbArc
 50
178.031279259
 51
270.6417030276
  0
ARC
  5
2A2
330
4A9
100
AcDbEntity
  8
0
  6
Continuous
 62
     7
100
AcDbCircle
 10
65.0281833862
 20
91.08012012440001
 30
0.0
 40
0.4015169010495016
100
AcDbArc
 50
88.08537500059999
 51
177.9055569352
  0
ARC
  5
2A3
330
4A9
100
AcDbEntity
  8
0
  6
Continuous
 62
     7
100
AcDbCircle
 10
221.009492783
 20
87.1218326452
 30
0.0
 40
1.044018349961471
100
AcDbArc
 50
268.5310339603
 51
0.6593359014
  0
ARC
  5
2A4
330
4A9
100
AcDbEntity
  8
0
  6
Continuous
 62
     7
100
AcDbCircle
 10
82.63462369859999
 20
88.0917348438
 30
0.0
 40
1.469627981610335
100
AcDbArc
 50
86.3220466783
 51
178.6622707524
  0
ARC
  5
2A5
330
4A9
100
AcDbEntity
  8
0
  6
Continuous
 62
     7
100
AcDbCircle
 10
223.1253064353
 20
90.96800611509999
 30
0.0
 40
0.4029939757816849
100
AcDbArc
 50
267.6996506461
 51
357.1472056933999
  0
ARC
  5
2A6
330
4A9
100
AcDbEntity
  8
0
  6
Continuous
 62
     7
100
AcDbCircle
 10
221.0420951429
 20
88.94740794389999
 30
0.0
 40
0.9128763332690155
100
AcDbArc
 50
89.26265912469999
 51
182.8715829231
  0
ARC
  5
2A7
330
4A9
100
AcDbEntity
  8
0
  6
Continuous
 62
     7
100
AcDbCircle
 10
114.7821396752
 20
88.7122768266
 30
0.0
 40
1.299215311421833
100
AcDbArc
 50
36.6176268306
 51
85.2627485038
  0
ARC
  5
2A8
330
4A9
100
AcDbEntity
  8
0
  6
Continuous
 62
     7
100
AcDbCircle
 10
118.4758400076
 20
88.0435346433
 30
0.0
 40
1.81864609375784
100
AcDbArc
 50
178.031279259
 51
270.6417030276
  0
ARC
  5
2A9
330
4A9
100
AcDbEntity
  8
0
  6
Continuous
 62
     7
100
AcDbCircle
 10
220.9888379701
 20
87.142703151
 30
0.0
 40
0.6165171234170429
100
AcDbArc
 50
267.2903212593
 51
357.40743929
  0
ARC
  5
2AA
330
4A9
100
AcDbEntity
  8
0
  6
Continuous
 62
     7
100
AcDbCircle
 10
65.0601722458
 20
91.0815283261
 30
0.0
 40
0.4003156775729586
100
AcDbArc
 50
1.8990567449
 51
92.65939529799998
  0
ARC
  5
2AB
330
4A9
100
AcDbEntity
  8
0
  6
Continuous
 62
     7
100
AcDbCircle
 10
75.5503513661
 20
88.1099195928
 30
0.0
 40
1.885024073634651
100
AcDbArc
 50
179.5098802014
 51
270.6107424477
  0
ARC
  5
2AC
330
4A9
100
AcDbEntity
  8
0
  6
Continuous
 62
     7
100
AcDbCircle
 10
87.04746329009999
 20
88.48602094620002
 30
0.0
 40
1.52604188520791
100
AcDbArc
 50
347.4756064481
 51
85.3564926585
  0
ARC
  5
2AD
330
4A9
100
AcDbEntity
  8
0
  6
Continuous
 62
     7
100
AcDbCircle
 10
82.67274501520001
 20
88.05273963370002
 30
0.0
 40
1.956349121347621
100
AcDbArc
 50
87.38651721309999
 51
179.0264343269
  0
ARC
  5
2AE
330
4A9
100
AcDbEntity
  8
0
  6
Continuous
 62
     7
100
AcDbCircle
 10
82.6564083795
 20
88.16328582670001
 30
0.0
 40
1.491477145079619
100
AcDbArc
 50
181.4307999384999
 51
272.9013876798
  0
ARC
  5
2AF
330
4A9
100
AcDbEntity
  8
0
  6
Continuous
 62
     7
100
AcDbCircle
 10
111.4935078849
 20
87.8333731773
 30
0.0
 40
1.609365972841227
100
AcDbArc
 50
267.9847324046
 51
11.859035319
  0
ARC
  5
2B0
330
4A9
100
AcDbEntity
  8
0
  6
Continuous
 62
     7
100
AcDbCircle
 10
111.3460350801
 20
87.75971380420001
 30
0.0
 40
1.090130455337804
100
AcDbArc
 50
199.6086495081
 51
274.9933227418
  0
ARC
  5
2B1
330
4A9
100
AcDbEntity
  8
0
  6
Continuous
 62
     7
100
AcDbCircle
 10
67.0456787864
 20
88.7122768266
 30
0.0
 40
1.299215311421803
100
AcDbArc
 50
36.6176268306
 51
85.2627485038
  0
ARC
  5
2B2
330
4A9
100
AcDbEntity
  8
0
  6
Continuous
 62
     7
100
AcDbCircle
 10
206.7781670684
 20
88.10978182639999
 30
0.0
 40
1.301797534426073
100
AcDbArc
 50
90.6685613179
 51
165.1261408497
  0
ARC
  5
2B3
330
4A9
100
AcDbEntity
  8
0
  6
Continuous
 62
     7
100
AcDbCircle
 10
180.6140188887
 20
95.7479609648
 30
0.0
 40
0.401516901049522
100
AcDbArc
 50
88.08537500059999
 51
177.9055569352
  0
ARC
  5
2B4
330
4A9
100
AcDbEntity
  8
0
  6
Continuous
 62
     7
100
AcDbCircle
 10
221.0660674389
 20
88.9246348242
 30
0.0
 40
0.4870093697741186
100
AcDbArc
 50
91.43837582709998
 51
180.5801267828
  0
ARC
  5
2B5
330
4A9
100
AcDbEntity
  8
0
  6
Continuous
 62
     7
100
AcDbCircle
 10
217.8038080941
 20
88.10978182639999
 30
0.0
 40
1.301797534425916
100
AcDbArc
 50
90.6685613179
 51
165.1261408497
  0
ARC
  5
2B6
330
4A9
100
AcDbEntity
  8
0
  6
Continuous
 62
     7
100
AcDbCircle
 10
217.7423712335
 20
88.33856337049999
 30
0.0
 40
1.526719645655913
100
AcDbArc
 50
347.5047967064
 51
85.32730240020001
  0
ARC
  5
2B7
330
4A9
100
AcDbEntity
  8
0
  6
Continuous
 62
     7
100
AcDbCircle
 10
67.141228883
 20
89.09425314969999
 30
0.0
 40
0.9128763332690153
100
AcDbArc
 50
89.26265912469999
 51
182.8715829231
  0
ARC
  5
2B8
330
4A9
100
AcDbEntity
  8
0
  6
Continuous
 62
     7
100
AcDbCircle
 10
114.8776897717
 20
89.09425314969999
 30
0.0
 40
0.9128763332690295
100
AcDbArc
 50
89.26265912469999
 51
182.8715829231
  0
ARC
  5
2B9
330
4A9
100
AcDbEntity
  8
0
  6
Continuous
 62
     7
100
AcDbCircle
 10
213.176112259
 20
87.8420918776
 30
0.0
 40
1.315341823300717
100
AcDbArc
 50
178.6522579768
 51
270.7908528495
  0
ARC
  5
2BA
330
4A9
100
AcDbEntity
  8
0
  6
Continuous
 62
     7
100
AcDbCircle
 10
223.0957163128
 20
90.93327491870001
 30
0.0
 40
0.4015169010496091
100
AcDbArc
 50
88.08537500059999
 51
177.9055569350999
  0
ARC
  5
2BB
330
4A9
100
AcDbEntity
  8
0
  6
Continuous
 62
     7
100
AcDbCircle
 10
67.108626523
 20
87.26867785100001
 30
0.0
 40
1.04401834996154
100
AcDbArc
 50
268.5310339603
 51
0.6593359014
  0
ARC
  5
2BC
330
4A9
100
AcDbEntity
  8
0
  6
Continuous
 62
     7
100
AcDbCircle
 10
118.5652044657
 20
88.02586229259999
 30
0.0
 40
1.802180926615676
100
AcDbArc
 50
267.8058993503
 51
333.9213840399001
  0
ARC
  5
2BD
330
4A9
100
AcDbEntity
  8
0
  6
Continuous
 62
     7
100
AcDbCircle
 10
87.10758968170001
 20
88.25725988299998
 30
0.0
 40
1.301170916032975
100
AcDbArc
 50
90.69183742749999
 51
165.1476445215
  0
ARC
  5
2BE
330
4A9
100
AcDbEntity
  8
0
  6
Continuous
 62
     7
100
AcDbCircle
 10
206.7167302078
 20
88.33856337049999
 30
0.0
 40
1.526719645655885
100
AcDbArc
 50
347.5047967064
 51
85.32730240020001
  0
ARC
  5
2BF
330
4A9
100
AcDbEntity
  8
0
  6
Continuous
 62
     7
100
AcDbCircle
 10
71.00922180489999
 20
88.1118922303
 30
0.0
 40
1.886996754956306
100
AcDbArc
 50
269.3894519367
 51
0.4297093512
  0
ARC
  5
2C0
330
4A9
100
AcDbEntity
  8
0
  6
Continuous
 62
     7
100
AcDbCircle
 10
178.2492040627
 20
94.6551429231
 30
0.0
 40
1.258933971798528
100
AcDbArc
 50
358.3915847566
 51
78.50767653279999
  0
ARC
  5
2C1
330
4A9
100
AcDbEntity
  8
0
  6
Continuous
 62
     7
100
AcDbCircle
 10
118.4712071429
 20
88.18010352809999
 30
0.0
 40
1.506703740416314
100
AcDbArc
 50
268.8176958415001
 51
330.7088154271
  0
ARC
  5
2C2
330
4A9
100
AcDbEntity
  8
0
  6
Continuous
 62
     7
100
AcDbCircle
 10
220.9465450464
 20
88.5654316209
 30
0.0
 40
1.29921531142163
100
AcDbArc
 50
36.6176268306
 51
85.2627485038
  0
ARC
  5
2C3
330
4A9
100
AcDbEntity
  8
0
  6
Continuous
 62
     7
100
AcDbCircle
 10
114.8450874117
 20
87.26867785100001
 30
0.0
 40
1.044018349961535
100
AcDbArc
 50
268.5310339603
 51
0.6593359014
  0
ARC
  5
2C4
330
4A9
100
AcDbEntity
  8
0
  6
Continuous
 62
     7
100
AcDbCircle
 10
102.9755035743
 20
90.00003549010001
 30
0.0
 40
1.2479534171829
100
AcDbArc
 50
357.6083961662
 51
76.59415908959999
  0
ARC
  5
2C5
330
4A9
100
AcDbEntity
  8
0
  6
Continuous
 62
     7
100
AcDbCircle
 10
102.9864273877
 20
89.89291998610001
 30
0.0
 40
1.237167488628805
100
AcDbArc
 50
281.1077641283
 51
2.5498276925
  0
ARC
  5
2C6
330
4A9
100
AcDbEntity
  8
0
  6
Continuous
 62
     7
100
AcDbCircle
 10
61.690401707
 20
88.5751015674
 30
0.0
 40
2.30046206427042
100
AcDbArc
 50
263.5712397705
 51
3.7611128007
  0
ARC
  5
2C7
330
4A9
100
AcDbEntity
  8
0
  6
Continuous
 62
     7
100
AcDbCircle
 10
178.0170055108
 20
94.7326631684
 30
0.0
 40
1.49490260731354
100
AcDbArc
 50
259.1187049276
 51
355.6703777637
  0
ARC
  5
2C8
330
4A9
100
AcDbEntity
  8
0
  6
Continuous
 62
     7
100
AcDbCircle
 10
71.0071098878
 20
88.11825358390001
 30
0.0
 40
1.889071667560556
100
AcDbArc
 50
0.2362933653
 51
90.97115993299999
  0
ARC
  5
2C9
330
4A9
100
AcDbEntity
  8
0
  6
Continuous
 62
     7
100
AcDbCircle
 10
61.6406977456
 20
88.9109466821
 30
0.0
 40
2.352492278657706
100
AcDbArc
 50
355.4910081818
 51
69.1110095251
  0
ARC
  5
2CA
330
4A9
100
AcDbEntity
  8
0
  6
Continuous
 62
     7
100
AcDbCircle
 10
82.82833909439998
 20
88.17004331059999
 30
0.0
 40
1.947789706344939
100
AcDbArc
 50
266.9555731476
 51
325.5552669414
  0
ARC
  5
2CB
330
4A9
100
AcDbEntity
  8
0
  6
Continuous
 62
     7
100
AcDbCircle
 10
67.08797171010001
 20
87.2895483567
 30
0.0
 40
0.6165171234170707
100
AcDbArc
 50
267.2903212593
 51
357.40743929
  0
ARC
  5
2CC
330
4A9
100
AcDbEntity
  8
0
  6
Continuous
 62
     7
100
AcDbCircle
 10
114.8244325988
 20
87.2895483567
 30
0.0
 40
0.6165171234170565
100
AcDbArc
 50
267.2903212593
 51
357.40743929
  0
ARC
  5
2CD
330
4A9
100
AcDbEntity
  8
0
  6
Continuous
 62
     7
100
AcDbCircle
 10
75.56584239680001
 20
88.10674643620002
 30
0.0
 40
1.451798516272128
100
AcDbArc
 50
89.0277635302
 51
179.4360374063
  0
ARC
  5
2CE
330
4A9
100
AcDbEntity
  8
0
  6
Continuous
 62
     7
100
AcDbCircle
 10
75.62947005479999
 20
88.12539889159999
 30
0.0
 40
1.433467509668397
100
AcDbArc
 50
359.3051650346
 51
91.55877140580001
  0
ARC
  5
2CF
330
4A9
100
AcDbEntity
  8
0
  6
Continuous
 62
     7
100
AcDbCircle
 10
75.63490912479998
 20
88.1008397991
 30
0.0
 40
1.42794106185013
100
AcDbArc
 50
268.0560183315
 51
0.2879216511
  0
ARC
  5
2D0
330
4A9
100
AcDbEntity
  8
0
  6
Continuous
 62
     7
100
AcDbCircle
 10
75.58073348319999
 20
88.1404571961
 30
0.0
 40
1.466747854841299
100
AcDbArc
 50
180.7586647857
 51
270.2240860687
  0
ARC
  5
2D1
330
4A9
100
AcDbEntity
  8
0
  6
Continuous
 62
     7
100
AcDbCircle
 10
118.575486311
 20
88.17570244459998
 30
0.0
 40
1.383372898791193
100
AcDbArc
 50
12.2232609065
 51
91.87338473830001
  0
ARC
  5
2D2
330
4A9
100
AcDbEntity
  8
0
  6
Continuous
 62
     7
100
AcDbCircle
 10
106.8920468752
 20
88.10674643620002
 30
0.0
 40
1.451798516272128
100
AcDbArc
 50
89.0277635302
 51
179.4360374063
  0
ARC
  5
2D3
330
4A9
100
AcDbEntity
  8
0
  6
Continuous
 62
     7
100
AcDbCircle
 10
106.9556745333
 20
88.12539889159999
 30
0.0
 40
1.433467509668354
100
AcDbArc
 50
359.3051650346
 51
91.55877140580001
  0
ARC
  5
2D4
330
4A9
100
AcDbEntity
  8
0
  6
Continuous
 62
     7
100
AcDbCircle
 10
106.9611136033
 20
88.1008397991
 30
0.0
 40
1.427941061850146
100
AcDbArc
 50
268.0560183315
 51
0.2879216511
  0
ARC
  5
2D5
330
4A9
100
AcDbEntity
  8
0
  6
Continuous
 62
     7
100
AcDbCircle
 10
106.9069379617
 20
88.1404571961
 30
0.0
 40
1.466747854841284
100
AcDbArc
 50
180.7586647857
 51
270.2240860687
  0
ARC
  5
2D6
330
4A9
100
AcDbEntity
  8
0
  6
Continuous
 62
     7
100
AcDbCircle
 10
61.7884671677
 20
88.59537387100001
 30
0.0
 40
1.753671140946616
100
AcDbArc
 50
288.1679544395
 51
4.304715266399999
  0
ARC
  5
2D7
330
4A9
100
AcDbEntity
  8
0
  6
Continuous
 62
     7
100
AcDbCircle
 10
61.6728144551
 20
88.849603766
 30
0.0
 40
1.868403235190656
100
AcDbArc
 50
356.2377524448
 51
72.9678962687
  0
ARC
  5
2D8
330
4A9
100
AcDbEntity
  8
0
  6
Continuous
 62
     7
100
AcDbCircle
 10
70.9337758571
 20
88.10808224909999
 30
0.0
 40
1.435046265518259
100
AcDbArc
 50
180.0026677884
 51
271.7698344095
  0
ARC
  5
2D9
330
4A9
100
AcDbEntity
  8
0
  6
Continuous
 62
     7
100
AcDbCircle
 10
70.99404619239999
 20
88.1050278024
 30
0.0
 40
1.453489509179016
100
AcDbArc
 50
0.6310577664000001
 51
90.90514129709999
  0
ARC
  5
2DA
330
4A9
100
AcDbEntity
  8
0
  6
Continuous
 62
     7
100
AcDbCircle
 10
70.9298135751
 20
88.12771162430001
 30
0.0
 40
1.4312195162606
100
AcDbArc
 50
88.3475441426
 51
180.7885194169
  0
ARC
  5
2DB
330
4A9
100
AcDbEntity
  8
0
  6
Continuous
 62
     7
100
AcDbCircle
 10
70.98099173529999
 20
88.14030002950001
 30
0.0
 40
1.466582328081538
100
AcDbArc
 50
269.8868933098
 51
359.2473902287001
  0
ARC
  5
2DC
330
4A9
100
AcDbEntity
  8
0
  6
Continuous
 62
     7
100
AcDbCircle
 10
213.329635272
 20
88.02885723889998
 30
0.0
 40
1.38337289879115
100
AcDbArc
 50
12.2232609065
 51
91.87338473830001
  0
ENDSEC
  0
SECTION
  2
OBJECTS
  0
DICTIONARY
  5
446
330
0
100
AcDbDictionary
281
     1
  3
ACAD_CIP_PREVIOUS_PRODUCT_INFO
350
4BA
  3
ACAD_COLOR
350
49C
  3
ACAD_DETAILVIEWSTYLE
350
4A3
  3
ACAD_GROUP
350
447
  3
ACAD_LAYOUT
350
49B
  3
ACAD_MATERIAL
350
44A
  3
ACAD_MLEADERSTYLE
350
49F
  3
ACAD_MLINESTYLE
350
498
  3
ACAD_PLOTSETTINGS
350
49A
  3
ACAD_PLOTSTYLENAME
350
448
  3
ACAD_SCALELIST
350
47C
  3
ACAD_SECTIONVIEWSTYLE
350
4A1
  3
ACAD_TABLESTYLE
350
49D
  3
ACAD_VISUALSTYLE
350
463
  3
ACDB_RECOMPOSE_DATA
350
4CA
  3
AcDbVariableDictionary
350
4BD
  0
DICTIONARY
  5
4BB
330
48E
100
AcDbDictionary
280
     1
281
     1
  3
ADSK_XREC_LAYER_RECONCILED
360
4BC
  0
XRECORD
  5
4BA
102
{ACAD_REACTORS
330
446
102
}
330
446
100
AcDbXrecord
280
     1
300
ACD
300
2020
300
ACD_F_S
  0
DICTIONARY
  5
49C
102
{ACAD_REACTORS
330
446
102
}
330
446
100
AcDbDictionary
281
     1
  0
DICTIONARY
  5
4A3
102
{ACAD_REACTORS
330
446
102
}
330
446
100
AcDbDictionary
281
     1
  3
Imperial24
350
4A4
  0
DICTIONARY
  5
447
102
{ACAD_REACTORS
330
446
102
}
330
446
100
AcDbDictionary
281
     1
  0
DICTIONARY
  5
49B
102
{ACAD_REACTORS
330
446
102
}
330
446
100
AcDbDictionary
281
     1
  3
Layout1
350
4A8
  3
Model
350
4AC
  0
DICTIONARY
  5
44A
102
{ACAD_REACTORS
330
446
102
}
330
446
100
AcDbDictionary
281
     1
  3
ByBlock
350
453
  3
ByLayer
350
44B
  3
Global
350
45B
  0
DICTIONARY
  5
49F
102
{ACAD_REACTORS
330
446
102
}
330
446
100
AcDbDictionary
281
     1
  3
Standard
350
4A0
  0
DICTIONARY
  5
498
102
{ACAD_REACTORS
330
446
102
}
330
446
100
AcDbDictionary
281
     1
  3
Standard
350
499
  0
DICTIONARY
  5
49A
102
{ACAD_REACTORS
330
446
102
}
330
446
100
AcDbDictionary
281
     1
  0
ACDBDICTIONARYWDFLT
  5
448
102
{ACAD_REACTORS
330
446
102
}
330
446
100
AcDbDictionary
281
     1
  3
Normal
350
449
100
AcDbDictionaryWithDefault
340
449
  0
DICTIONARY
  5
47C
102
{ACAD_REACTORS
330
446
102
}
330
446
100
AcDbDictionary
281
     1
  3
A0
350
47D
  3
A1
350
47E
  3
A2
350
47F
  3
A3
350
480
  3
A4
350
481
  3
A5
350
482
  3
A6
350
483
  3
A7
350
484
  3
A8
350
485
  3
A9
350
486
  3
B0
350
487
  3
B1
350
488
  3
B2
350
489
  3
B3
350
48A
  3
B4
350
48B
  3
B5
350
48C
  3
B6
350
48D
  0
DICTIONARY
  5
4A1
102
{ACAD_REACTORS
330
446
102
}
330
446
100
AcDbDictionary
281
     1
  3
Imperial24
350
4A2
  0
DICTIONARY
  5
49D
102
{ACAD_REACTORS
330
446
102
}
330
446
100
AcDbDictionary
281
     1
  3
Standard
350
49E
  0
DICTIONARY
  5
463
102
{ACAD_REACTORS
330
446
102
}
330
446
100
AcDbDictionary
281
     1
  3
2dWireframe
350
469
  3
Basic
350
468
  3
Brighten
350
46F
  3
ColorChange
350
473
  3
Conceptual
350
46C
  3
Dim
350
46E
  3
EdgeColorOff
350
47B
  3
Facepattern
350
472
  3
Flat
350
464
  3
FlatWithEdges
350
465
  3
Gouraud
350
466
  3
GouraudWithEdges
350
467
  3
Hidden
350
46B
  3
JitterOff
350
479
  3
Linepattern
350
471
  3
OverhangOff
350
47A
  3
Realistic
350
46D
  3
Shaded
350
478
  3
Shaded with edges
350
477
  3
Shades of Gray
350
474
  3
Sketchy
350
475
  3
Thicken
350
470
  3
Wireframe
350
46A
  3
X-Ray
350
476
  0
XRECORD
  5
4CA
102
{ACAD_REACTORS
330
446
102
}
330
446
100
AcDbXrecord
280
     1
 90
        1
330
49E
  0
DICTIONARY
  5
4BD
102
{ACAD_REACTORS
330
446
102
}
330
446
100
AcDbDictionary
281
     1
  3
CANNOSCALE
350
4C3
  3
CMLEADERSTYLE
350
4BF
  3
CTABLESTYLE
350
4BE
  3
CVIEWDETAILSTYLE
350
4C0
  3
CVIEWSECTIONSTYLE
350
4C1
  3
LAYEREVAL
350
4C5
  3
LAYERNOTIFY
350
4C6
  3
LIGHTINGUNITS
350
4C4
  3
MSLTSCALE
350
4C2
  0
XRECORD
  5
4BC
102
{ACAD_REACTORS
330
4BB
102
}
330
4BB
100
AcDbXrecord
280
     1
290
     1
  0
ACDBDETAILVIEWSTYLE
  5
4A4
102
{ACAD_XDICTIONARY
360
4CD
102
}
102
{ACAD_REACTORS
330
4A3
102
}
330
4A3
100
AcDbModelDocViewStyle
 70
     0
  3
Imperial24
290
     0
100
AcDbDetailViewStyle
 70
     0
 71
     0
 90
        3
 71
     1
340
48F
 62
   256
 40
0.24
340
0
 62
   256
 40
0.24
300

 40
0.36
280
     3
 71
     2
340
496
 90
       25
 62
   256
 71
     3
340
48F
 62
   256
 40
0.24
 90
        1
 40
0.75
 90
        1
300
%<\AcVar ViewType \f "%tc1">% %<\AcVar ViewDetailId>%\PSCALE %<\AcVar ViewScale \f "%sn">%
 71
     4
340
496
 90
       25
 62
   256
340
496
 90
       25
 62
   256
280
     0
  0
LAYOUT
  5
4A8
102
{ACAD_REACTORS
330
49B
102
}
330
49B
100
AcDbPlotSettings
  1

  2
HP LaserJet 6P
  4

  6

 40
0.0
 41
0.0
 42
0.0
 43
0.0
 44
0.0
 45
0.0
 46
0.0
 47
0.0
 48
0.0
 49
0.0
140
0.0
141
0.0
142
1.0
143
1.0
 70
   688
 72
     0
 73
     0
 74
     5
  7

 75
    16
147
1.0
 76
     0
 77
     2
 78
   300
148
0.0
149
0.0
100
AcDbLayout
  1
Layout1
 70
     1
 71
     1
 10
0.0
 20
0.0
 11
420.0
 21
297.0
 12
0.0
 22
0.0
 32
0.0
 14
1.000000000000000E+20
 24
1.000000000000000E+20
 34
1.000000000000000E+20
 15
-1.000000000000000E+20
 25
-1.000000000000000E+20
 35
-1.000000000000000E+20
146
0.0
 13
0.0
 23
0.0
 33
0.0
 16
1.0
 26
0.0
 36
0.0
 17
0.0
 27
1.0
 37
0.0
 76
     0
330
4A5
  0
LAYOUT
  5
4AC
102
{ACAD_REACTORS
330
49B
102
}
330
49B
100
AcDbPlotSettings
  1

  2
HP LaserJet 6P
  4

  6

 40
0.0
 41
0.0
 42
0.0
 43
0.0
 44
0.0
 45
0.0
 46
0.0
 47
0.0
 48
0.0
 49
0.0
140
0.0
141
0.0
142
1.0
143
1.0
 70
  1712
 72
     0
 73
     0
 74
     0
  7

 75
     0
147
1.0
 76
     0
 77
     2
 78
   300
148
0.0
149
0.0
100
AcDbLayout
  1
Model
 70
     1
 71
     0
 10
0.0
 20
0.0
 11
12.0
 21
9.0
 12
0.0
 22
0.0
 32
0.0
 14
0.0
 24
0.0
 34
0.0
 15
0.0
 25
0.0
 35
0.0
146
0.0
 13
0.0
 23
0.0
 33
0.0
 16
1.0
 26
0.0
 36
0.0
 17
0.0
 27
1.0
 37
0.0
 76
     0
330
4A9
331
4AD
  0
MATERIAL
  5
453
102
{ACAD_XDICTIONARY
360
454
102
}
102
{ACAD_REACTORS
330
44A
102
}
330
44A
100
AcDbMaterial
  1
ByBlock
 72
     0
 43
0.0208333333333333
 43
0.0
 43
0.0
 43
0.0
 43
0.0
 43
0.0208333333333333
 43
0.0
 43
0.0
 43
0.0
 43
0.0
 43
1.0
 43
0.0
 43
0.0
 43
0.0
 43
0.0
 43
1.0
 77
     0
 47
0.0208333333333333
 47
0.0
 47
0.0
 47
0.0
 47
0.0
 47
0.0208333333333333
 47
0.0
 47
0.0
 47
0.0
 47
0.0
 47
1.0
 47
0.0
 47
0.0
 47
0.0
 47
0.0
 47
1.0
171
     0
 49
0.0208333333333333
 49
0.0
 49
0.0
 49
0.0
 49
0.0
 49
0.0208333333333333
 49
0.0
 49
0.0
 49
0.0
 49
0.0
 49
1.0
 49
0.0
 49
0.0
 49
0.0
 49
0.0
 49
1.0
175
     0
142
0.0208333333333333
142
0.0
142
0.0
142
0.0
142
0.0
142
0.0208333333333333
142
0.0
142
0.0
142
0.0
142
0.0
142
1.0
142
0.0
142
0.0
142
0.0
142
0.0
142
1.0
179
     0
144
0.0208333333333333
144
0.0
144
0.0
144
0.0
144
0.0
144
0.0208333333333333
144
0.0
144
0.0
144
0.0
144
0.0
144
1.0
144
0.0
144
0.0
144
0.0
144
0.0
144
1.0
147
0.0208333333333333
147
0.0
147
0.0
147
0.0
147
0.0
147
0.0208333333333333
147
0.0
147
0.0
147
0.0
147
0.0
147
1.0
147
0.0
147
0.0
147
0.0
147
0.0
147
1.0
  0
MATERIAL
  5
44B
102
{ACAD_XDICTIONARY
360
44C
102
}
102
{ACAD_REACTORS
330
44A
102
}
330
44A
100
AcDbMaterial
  1
ByLayer
 72
     0
 43
0.0208333333333333
 43
0.0
 43
0.0
 43
0.0
 43
0.0
 43
0.0208333333333333
 43
0.0
 43
0.0
 43
0.0
 43
0.0
 43
1.0
 43
0.0
 43
0.0
 43
0.0
 43
0.0
 43
1.0
 77
     0
 47
0.0208333333333333
 47
0.0
 47
0.0
 47
0.0
 47
0.0
 47
0.0208333333333333
 47
0.0
 47
0.0
 47
0.0
 47
0.0
 47
1.0
 47
0.0
 47
0.0
 47
0.0
 47
0.0
 47
1.0
171
     0
 49
0.0208333333333333
 49
0.0
 49
0.0
 49
0.0
 49
0.0
 49
0.0208333333333333
 49
0.0
 49
0.0
 49
0.0
 49
0.0
 49
1.0
 49
0.0
 49
0.0
 49
0.0
 49
0.0
 49
1.0
175
     0
142
0.0208333333333333
142
0.0
142
0.0
142
0.0
142
0.0
142
0.0208333333333333
142
0.0
142
0.0
142
0.0
142
0.0
142
1.0
142
0.0
142
0.0
142
0.0
142
0.0
142
1.0
179
     0
144
0.0208333333333333
144
0.0
144
0.0
144
0.0
144
0.0
144
0.0208333333333333
144
0.0
144
0.0
144
0.0
144
0.0
144
1.0
144
0.0
144
0.0
144
0.0
144
0.0
144
1.0
147
0.0208333333333333
147
0.0
147
0.0
147
0.0
147
0.0
147
0.0208333333333333
147
0.0
147
0.0
147
0.0
147
0.0
147
1.0
147
0.0
147
0.0
147
0.0
147
0.0
147
1.0
  0
MATERIAL
  5
45B
102
{ACAD_XDICTIONARY
360
45C
102
}
102
{ACAD_REACTORS
330
44A
102
}
330
44A
100
AcDbMaterial
  1
Global
 72
     0
 43
0.0208333333333333
 43
0.0
 43
0.0
 43
0.0
 43
0.0
 43
0.0208333333333333
 43
0.0
 43
0.0
 43
0.0
 43
0.0
 43
1.0
 43
0.0
 43
0.0
 43
0.0
 43
0.0
 43
1.0
 77
     0
 47
0.0208333333333333
 47
0.0
 47
0.0
 47
0.0
 47
0.0
 47
0.0208333333333333
 47
0.0
 47
0.0
 47
0.0
 47
0.0
 47
1.0
 47
0.0
 47
0.0
 47
0.0
 47
0.0
 47
1.0
171
     0
 49
0.0208333333333333
 49
0.0
 49
0.0
 49
0.0
 49
0.0
 49
0.0208333333333333
 49
0.0
 49
0.0
 49
0.0
 49
0.0
 49
1.0
 49
0.0
 49
0.0
 49
0.0
 49
0.0
 49
1.0
175
     0
142
0.0208333333333333
142
0.0
142
0.0
142
0.0
142
0.0
142
0.0208333333333333
142
0.0
142
0.0
142
0.0
142
0.0
142
1.0
142
0.0
142
0.0
142
0.0
142
0.0
142
1.0
179
     0
144
0.0208333333333333
144
0.0
144
0.0
144
0.0
144
0.0
144
0.0208333333333333
144
0.0
144
0.0
144
0.0
144
0.0
144
1.0
144
0.0
144
0.0
144
0.0
144
0.0
144
1.0
147
0.0208333333333333
147
0.0
147
0.0
147
0.0
147
0.0
147
0.0208333333333333
147
0.0
147
0.0
147
0.0
147
0.0
147
1.0
147
0.0
147
0.0
147
0.0
147
0.0
147
1.0
  0
MLEADERSTYLE
  5
4A0
102
{ACAD_REACTORS
330
49F
102
}
330
49F
100
AcDbMLeaderStyle
179
     2
170
     2
171
     1
172
     0
 90
        2
 40
0.0
 41
0.0
173
     1
 91
-1056964608
340
494
 92
       -2
290
     1
 42
0.09
291
     1
 43
0.36
  3
Standard
 44
0.18
300

342
48F
174
     1
178
     6
175
     1
176
     0
 93
-1056964608
 45
0.18
292
     0
297
     0
 46
0.18
 94
-1056964608
 47
1.0
 49
1.0
140
1.0
293
     1
141
0.0
294
     1
177
     0
142
1.0
295
     0
296
     0
143
0.125
271
     0
272
     9
273
     9
298
     0
  0
MLINESTYLE
  5
499
102
{ACAD_REACTORS
330
498
102
}
330
498
100
AcDbMlineStyle
  2
STANDARD
 70
     0
  3

 62
   256
 51
90.0
 52
90.0
 71
     2
 49
0.5
 62
   256
  6
BYLAYER
 49
-0.5
 62
   256
  6
BYLAYER
  0
ACDBPLACEHOLDER
  5
449
102
{ACAD_REACTORS
330
448
102
}
330
448
  0
SCALE
  5
47D
102
{ACAD_REACTORS
330
47C
102
}
330
47C
100
AcDbScale
 70
     0
300
1:1
140
1.0
141
1.0
290
     1
  0
SCALE
  5
47E
102
{ACAD_REACTORS
330
47C
102
}
330
47C
100
AcDbScale
 70
     0
300
1/128" = 1'-0"
140
0.0078125
141
12.0
290
     0
  0
SCALE
  5
47F
102
{ACAD_REACTORS
330
47C
102
}
330
47C
100
AcDbScale
 70
     0
300
1/64" = 1'-0"
140
0.015625
141
12.0
290
     0
  0
SCALE
  5
480
102
{ACAD_REACTORS
330
47C
102
}
330
47C
100
AcDbScale
 70
     0
300
1/32" = 1'-0"
140
0.03125
141
12.0
290
     0
  0
SCALE
  5
481
102
{ACAD_REACTORS
330
47C
102
}
330
47C
100
AcDbScale
 70
     0
300
1/16" = 1'-0"
140
0.0625
141
12.0
290
     0
  0
SCALE
  5
482
102
{ACAD_REACTORS
330
47C
102
}
330
47C
100
AcDbScale
 70
     0
300
3/32" = 1'-0"
140
0.09375
141
12.0
290
     0
  0
SCALE
  5
483
102
{ACAD_REACTORS
330
47C
102
}
330
47C
100
AcDbScale
 70
     0
300
1/8" = 1'-0"
140
0.125
141
12.0
290
     0
  0
SCALE
  5
484
102
{ACAD_REACTORS
330
47C
102
}
330
47C
100
AcDbScale
 70
     0
300
3/16" = 1'-0"
140
0.1875
141
12.0
290
     0
  0
SCALE
  5
485
102
{ACAD_REACTORS
330
47C
102
}
330
47C
100
AcDbScale
 70
     0
300
1/4" = 1'-0"
140
0.25
141
12.0
290
     0
  0
SCALE
  5
486
102
{ACAD_REACTORS
330
47C
102
}
330
47C
100
AcDbScale
 70
     0
300
3/8" = 1'-0"
140
0.375
141
12.0
290
     0
  0
SCALE
  5
487
102
{ACAD_REACTORS
330
47C
102
}
330
47C
100
AcDbScale
 70
     0
300
1/2" = 1'-0"
140
0.5
141
12.0
290
     0
  0
SCALE
  5
488
102
{ACAD_REACTORS
330
47C
102
}
330
47C
100
AcDbScale
 70
     0
300
3/4" = 1'-0"
140
0.75
141
12.0
290
     0
  0
SCALE
  5
489
102
{ACAD_REACTORS
330
47C
102
}
330
47C
100
AcDbScale
 70
     0
300
1" = 1'-0"
140
1.0
141
12.0
290
     0
  0
SCALE
  5
48A
102
{ACAD_REACTORS
330
47C
102
}
330
47C
100
AcDbScale
 70
     0
300
1-1/2" = 1'-0"
140
1.5
141
12.0
290
     0
  0
SCALE
  5
48B
102
{ACAD_REACTORS
330
47C
102
}
330
47C
100
AcDbScale
 70
     0
300
3" = 1'-0"
140
3.0
141
12.0
290
     0
  0
SCALE
  5
48C
102
{ACAD_REACTORS
330
47C
102
}
330
47C
100
AcDbScale
 70
     0
300
6" = 1'-0"
140
6.0
141
12.0
290
     0
  0
SCALE
  5
48D
102
{ACAD_REACTORS
330
47C
102
}
330
47C
100
AcDbScale
 70
     0
300
1'-0" = 1'-0"
140
12.0
141
12.0
290
     0
  0
ACDBSECTIONVIEWSTYLE
  5
4A2
102
{ACAD_XDICTIONARY
360
4CB
102
}
102
{ACAD_REACTORS
330
4A1
102
}
330
4A1
100
AcDbModelDocViewStyle
 70
     0
  3
Imperial24
290
     0
100
AcDbSectionViewStyle
 70
     0
 71
     0
 90
       78
 71
     1
340
48F
 62
   256
 40
0.24
340
0
340
0
 62
   256
 40
0.24
300
I, O, Q, S, X, Z
 40
0.48
 90
        3
 40
0.18
 90
        1
 71
     2
340
496
 90
       25
 62
   256
340
496
 90
       50
 62
   256
 40
0.24
 40
0.0
 40
0.24
 71
     3
340
48F
 62
   256
 40
0.24
 90
        1
 40
0.75
 90
        1
300
%<\AcVar ViewType \f "%tc1">% %<\AcVar ViewSectionStartId>%-%<\AcVar ViewSectionEndId>%\PSCALE %<\AcVar ViewScale \f "%sn">%
 71
     4
 62
   256
 62
   257
300
ANSI31
 40
1.0
 90
        0
290
     0
290
     0
 90
        6
 40
0.0
 40
1.570796326794896
 40
0.2617993877991494
 40
1.308996938995747
 40
-0.2617993877991494
 40
1.832595714594046
  0
TABLESTYLE
  5
49E
102
{ACAD_XDICTIONARY
360
4C8
102
}
102
{ACAD_REACTORS
330
49D
102
}
330
49D
100
AcDbTableStyle
280
     0
  3
Standard
 70
     0
 71
     0
 40
0.06
 41
0.06
280
     0
281
     0
  7
STANDARD
140
0.18
170
     2
 62
     0
 63
     7
283
     0
 90
      512
 91
        0
  1

274
    -2
284
     1
 64
     0
275
    -2
285
     1
 65
     0
276
    -2
286
     1
 66
     0
277
    -2
287
     1
 67
     0
278
    -2
288
     1
 68
     0
279
    -2
289
     1
 69
     0
  7
STANDARD
140
0.25
170
     5
 62
     0
 63
     7
283
     0
 90
      512
 91
        0
  1

274
    -2
284
     1
 64
     0
275
    -2
285
     1
 65
     0
276
    -2
286
     1
 66
     0
277
    -2
287
     1
 67
     0
278
    -2
288
     1
 68
     0
279
    -2
289
     1
 69
     0
  7
STANDARD
140
0.18
170
     5
 62
     0
 63
     7
283
     0
 90
      512
 91
        0
  1

274
    -2
284
     1
 64
     0
275
    -2
285
     1
 65
     0
276
    -2
286
     1
 66
     0
277
    -2
287
     1
 67
     0
278
    -2
288
     1
 68
     0
279
    -2
289
     1
 69
     0
  0
VISUALSTYLE
  5
469
102
{ACAD_REACTORS
330
463
102
}
330
463
100
AcDbVisualStyle
  2
2dWireframe
 70
     4
177
     3
291
     0
 70
    58
 90
        0
176
     1
 90
        2
176
     1
 90
        0
176
     1
 90
        0
176
     1
 40
0.6
176
     1
 40
30.0
176
     1
 62
     7
420
 16777215
176
     1
 90
        1
176
     1
 90
        4
176
     1
 62
     7
176
     1
 62
   257
176
     1
 90
        1
176
     1
 90
        1
176
     1
 40
1.0
176
     1
 90
        0
176
     1
 62
   257
176
     1
 40
1.0
176
     1
 90
        1
176
     1
 90
        6
176
     1
 90
        2
176
     1
 62
     7
176
     1
 90
        5
176
     1
 90
        0
176
     1
 90
        0
176
     1
290
     0
176
     1
 90
        1
176
     1
 40
0.0
176
     1
 90
        0
176
     1
290
     1
176
     1
290
     1
176
     1
290
     0
176
     1
290
     0
176
     1
290
     0
176
     1
290
     0
176
     1
290
     0
176
     1
290
     0
176
     1
290
     0
176
     1
 90
       50
176
     1
 40
0.0
176
     1
 40
1.0
176
     1
 90
        0
176
     1
 62
    18
420
        0
176
     1
 90
       50
176
     1
 90
        3
176
     1
 62
     5
420
      255
176
     1
290
     0
176
     1
 90
       50
176
     1
 90
       50
176
     1
 90
       50
176
     1
290
     0
176
     1
 90
       50
176
     1
 62
   256
176
     0
 40
1.0
176
     0
 90
        2
176
     1
  1
strokes_ogs.tif
176
     1
290
     0
176
     1
 40
1.0
176
     1
 40
1.0
176
     1
1001
ACAD
1000
AcDbSavedByObjectVersion
1070
     0
  0
VISUALSTYLE
  5
468
102
{ACAD_REACTORS
330
463
102
}
330
463
100
AcDbVisualStyle
  2
Basic
 70
     7
177
     3
291
     1
 70
    58
 90
        1
176
     1
 90
        0
176
     1
 90
        1
176
     1
 90
        0
176
     1
 40
0.6
176
     1
 40
30.0
176
     1
 62
     7
420
 16777215
176
     1
 90
        0
176
     1
 90
        4
176
     1
 62
     7
176
     1
 62
   257
176
     1
 90
        1
176
     1
 90
        1
176
     1
 40
1.0
176
     1
 90
        8
176
     1
 62
     7
176
     1
 40
1.0
176
     1
 90
        1
176
     1
 90
        6
176
     1
 90
        2
176
     1
 62
     7
176
     1
 90
        5
176
     1
 90
        0
176
     1
 90
        0
176
     1
290
     0
176
     1
 90
        1
176
     1
 40
0.0
176
     1
 90
        0
176
     1
290
     0
176
     1
290
     1
176
     1
290
     1
176
     1
290
     0
176
     1
290
     0
176
     1
290
     0
176
     1
290
     0
176
     1
290
     0
176
     1
290
     0
176
     1
 90
       50
176
     1
 40
0.0
176
     1
 40
1.0
176
     1
 90
        0
176
     1
 62
    18
420
        0
176
     1
 90
       50
176
     1
 90
        3
176
     1
 62
     5
420
      255
176
     1
290
     0
176
     1
 90
       50
176
     1
 90
       50
176
     1
 90
       50
176
     1
290
     0
176
     1
 90
       50
176
     1
 62
   256
176
     0
 40
1.0
176
     0
 90
        2
176
     1
  1
strokes_ogs.tif
176
     1
290
     0
176
     1
 40
1.0
176
     1
 40
1.0
176
     1
1001
ACAD
1000
AcDbSavedByObjectVersion
1070
     0
  0
VISUALSTYLE
  5
46F
102
{ACAD_REACTORS
330
463
102
}
330
463
100
AcDbVisualStyle
  2
Brighten
 70
    12
177
     3
291
     1
 70
    58
 90
        2
176
     1
 90
        2
176
     1
 90
        0
176
     1
 90
        0
176
     1
 40
0.6
176
     1
 40
30.0
176
     1
 62
     7
420
 16777215
176
     1
 90
        1
176
     1
 90
        4
176
     1
 62
     7
176
     1
 62
   257
176
     1
 90
        1
176
     1
 90
        1
176
     1
 40
1.0
176
     1
 90
        8
176
     1
 62
     7
176
     1
 40
1.0
176
     1
 90
        1
176
     1
 90
        6
176
     1
 90
        2
176
     1
 62
     7
176
     1
 90
        5
176
     1
 90
        0
176
     1
 90
        0
176
     1
290
     0
176
     1
 90
        1
176
     1
 40
50.0
176
     1
 90
        0
176
     1
290
     0
176
     1
290
     1
176
     1
290
     1
176
     1
290
     0
176
     1
290
     0
176
     1
290
     0
176
     1
290
     0
176
     1
290
     0
176
     1
290
     0
176
     1
 90
       50
176
     1
 40
0.0
176
     1
 40
1.0
176
     1
 90
        0
176
     1
 62
    18
420
        0
176
     1
 90
       50
176
     1
 90
        3
176
     1
 62
     5
420
      255
176
     1
290
     0
176
     1
 90
       50
176
     1
 90
       50
176
     1
 90
       50
176
     1
290
     0
176
     1
 90
       50
176
     1
 62
   256
176
     0
 40
1.0
176
     0
 90
        2
176
     1
  1
strokes_ogs.tif
176
     1
290
     0
176
     1
 40
1.0
176
     1
 40
1.0
176
     1
1001
ACAD
1000
AcDbSavedByObjectVersion
1070
     0
  0
VISUALSTYLE
  5
473
102
{ACAD_REACTORS
330
463
102
}
330
463
100
AcDbVisualStyle
  2
ColorChange
 70
    16
177
     3
291
     1
 70
    58
 90
        2
176
     1
 90
        2
176
     1
 90
        3
176
     1
 90
        0
176
     1
 40
0.6
176
     1
 40
30.0
176
     1
 62
     8
420
  8421504
176
     1
 90
        1
176
     1
 90
        4
176
     1
 62
     7
176
     1
 62
   257
176
     1
 90
        1
176
     1
 90
        1
176
     1
 40
1.0
176
     1
 90
        8
176
     1
 62
     8
420
  8421504
176
     1
 40
1.0
176
     1
 90
        1
176
     1
 90
        6
176
     1
 90
        2
176
     1
 62
     7
176
     1
 90
        5
176
     1
 90
        0
176
     1
 90
        0
176
     1
290
     0
176
     1
 90
        1
176
     1
 40
0.0
176
     1
 90
        0
176
     1
290
     0
176
     1
290
     1
176
     1
290
     1
176
     1
290
     0
176
     1
290
     0
176
     1
290
     0
176
     1
290
     0
176
     1
290
     0
176
     1
290
     0
176
     1
 90
       50
176
     1
 40
0.0
176
     1
 40
1.0
176
     1
 90
        0
176
     1
 62
    18
420
        0
176
     1
 90
       50
176
     1
 90
        3
176
     1
 62
     5
420
      255
176
     1
290
     0
176
     1
 90
       50
176
     1
 90
       50
176
     1
 90
       50
176
     1
290
     0
176
     1
 90
       50
176
     1
 62
   256
176
     0
 40
1.0
176
     0
 90
        2
176
     1
  1
strokes_ogs.tif
176
     1
290
     0
176
     1
 40
1.0
176
     1
 40
1.0
176
     1
1001
ACAD
1000
AcDbSavedByObjectVersion
1070
     0
  0
VISUALSTYLE
  5
46C
102
{ACAD_REACTORS
330
463
102
}
330
463
100
AcDbVisualStyle
  2
Conceptual
 70
     9
177
     3
291
     0
 70
    58
 90
        3
176
     1
 90
        2
176
     1
 90
        0
176
     1
 90
        0
176
     1
 40
0.6
176
     1
 40
30.0
176
     1
 62
     7
420
 16777215
176
     1
 90
        2
176
     1
 90
        2
176
     1
 62
     7
176
     1
 62
   257
176
     1
 90
        1
176
     1
 90
        1
176
     1
 40
179.0
176
     1
 90
        8
176
     1
 62
     7
176
     1
 40
1.0
176
     1
 90
        1
176
     1
 90
        6
176
     1
 90
        2
176
     1
 62
     7
176
     1
 90
        3
176
     1
 90
        0
176
     1
 90
        0
176
     1
290
     0
176
     1
 90
        1
176
     1
 40
0.0
176
     1
 90
        0
176
     1
290
     0
176
     1
290
     1
176
     1
290
     1
176
     1
290
     0
176
     1
290
     0
176
     1
290
     0
176
     1
290
     0
176
     1
290
     0
176
     1
290
     0
176
     1
 90
       50
176
     1
 40
0.0
176
     1
 40
1.0
176
     1
 90
        0
176
     1
 62
    18
420
        0
176
     1
 90
       50
176
     1
 90
        3
176
     1
 62
     5
420
      255
176
     1
290
     0
176
     1
 90
       50
176
     1
 90
       50
176
     1
 90
       50
176
     1
290
     0
176
     1
 90
       50
176
     1
 62
   256
176
     0
 40
1.0
176
     0
 90
        2
176
     1
  1
strokes_ogs.tif
176
     1
290
     0
176
     1
 40
1.0
176
     1
 40
1.0
176
     1
1001
ACAD
1000
AcDbSavedByObjectVersion
1070
     0
  0
VISUALSTYLE
  5
46E
102
{ACAD_REACTORS
330
463
102
}
330
463
100
AcDbVisualStyle
  2
Dim
 70
    11
177
     3
291
     1
 70
    58
 90
        2
176
     1
 90
        2
176
     1
 90
        0
176
     1
 90
        0
176
     1
 40
0.6
176
     1
 40
30.0
176
     1
 62
     7
420
 16777215
176
     1
 90
        1
176
     1
 90
        4
176
     1
 62
     7
176
     1
 62
   257
176
     1
 90
        1
176
     1
 90
        1
176
     1
 40
1.0
176
     1
 90
        8
176
     1
 62
     7
176
     1
 40
1.0
176
     1
 90
        1
176
     1
 90
        6
176
     1
 90
        2
176
     1
 62
     7
176
     1
 90
        5
176
     1
 90
        0
176
     1
 90
        0
176
     1
290
     0
176
     1
 90
        1
176
     1
 40
-50.0
176
     1
 90
        0
176
     1
290
     0
176
     1
290
     1
176
     1
290
     1
176
     1
290
     0
176
     1
290
     0
176
     1
290
     0
176
     1
290
     0
176
     1
290
     0
176
     1
290
     0
176
     1
 90
       50
176
     1
 40
0.0
176
     1
 40
1.0
176
     1
 90
        0
176
     1
 62
    18
420
        0
176
     1
 90
       50
176
     1
 90
        3
176
     1
 62
     5
420
      255
176
     1
290
     0
176
     1
 90
       50
176
     1
 90
       50
176
     1
 90
       50
176
     1
290
     0
176
     1
 90
       50
176
     1
 62
   256
176
     0
 40
1.0
176
     0
 90
        2
176
     1
  1
strokes_ogs.tif
176
     1
290
     0
176
     1
 40
1.0
176
     1
 40
1.0
176
     1
1001
ACAD
1000
AcDbSavedByObjectVersion
1070
     0
  0
VISUALSTYLE
  5
47B
102
{ACAD_REACTORS
330
463
102
}
330
463
100
AcDbVisualStyle
  2
EdgeColorOff
 70
    22
177
     3
291
     1
 70
    58
 90
        2
176
     0
 90
        2
176
     0
 90
        0
176
     0
 90
        0
176
     0
 40
0.6
176
     0
 40
30.0
176
     0
 62
     7
420
 16777215
176
     0
 90
        1
176
     0
 90
        4
176
     0
 62
     7
176
     0
 62
   257
176
     0
 90
        1
176
     0
 90
        1
176
     0
 40
1.0
176
     0
 90
        8
176
     2
 62
     7
176
     0
 40
1.0
176
     0
 90
        1
176
     0
 90
        6
176
     0
 90
        2
176
     0
 62
     7
176
     0
 90
        5
176
     0
 90
        0
176
     0
 90
        0
176
     0
290
     0
176
     0
 90
        1
176
     0
 40
0.0
176
     0
 90
        0
176
     0
290
     0
176
     1
290
     1
176
     1
290
     1
176
     1
290
     0
176
     1
290
     0
176
     1
290
     0
176
     1
290
     0
176
     1
290
     0
176
     1
290
     0
176
     1
 90
       50
176
     0
 40
0.0
176
     0
 40
1.0
176
     0
 90
        0
176
     0
 62
    18
420
        0
176
     0
 90
       50
176
     0
 90
        3
176
     0
 62
     5
420
      255
176
     0
290
     0
176
     1
 90
       50
176
     0
 90
       50
176
     0
 90
       50
176
     0
290
     0
176
     1
 90
       50
176
     0
 62
   256
176
     0
 40
1.0
176
     0
 90
        2
176
     0
  1
strokes_ogs.tif
176
     0
290
     0
176
     1
 40
1.0
176
     0
 40
1.0
176
     0
1001
ACAD
1000
AcDbSavedByObjectVersion
1070
     0
  0
VISUALSTYLE
  5
472
102
{ACAD_REACTORS
330
463
102
}
330
463
100
AcDbVisualStyle
  2
Facepattern
 70
    15
177
     3
291
     1
 70
    58
 90
        2
176
     1
 90
        2
176
     1
 90
        0
176
     1
 90
        0
176
     1
 40
0.6
176
     1
 40
30.0
176
     1
 62
     7
420
 16777215
176
     1
 90
        1
176
     1
 90
        4
176
     1
 62
     7
176
     1
 62
   257
176
     1
 90
        1
176
     1
 90
        1
176
     1
 40
1.0
176
     1
 90
        8
176
     1
 62
     7
176
     1
 40
1.0
176
     1
 90
        1
176
     1
 90
        6
176
     1
 90
        2
176
     1
 62
     7
176
     1
 90
        5
176
     1
 90
        0
176
     1
 90
        0
176
     1
290
     0
176
     1
 90
        1
176
     1
 40
0.0
176
     1
 90
        0
176
     1
290
     0
176
     1
290
     1
176
     1
290
     1
176
     1
290
     0
176
     1
290
     0
176
     1
290
     0
176
     1
290
     0
176
     1
290
     0
176
     1
290
     0
176
     1
 90
       50
176
     1
 40
0.0
176
     1
 40
1.0
176
     1
 90
        0
176
     1
 62
    18
420
        0
176
     1
 90
       50
176
     1
 90
        3
176
     1
 62
     5
420
      255
176
     1
290
     0
176
     1
 90
       50
176
     1
 90
       50
176
     1
 90
       50
176
     1
290
     0
176
     1
 90
       50
176
     1
 62
   256
176
     0
 40
1.0
176
     0
 90
        2
176
     1
  1
strokes_ogs.tif
176
     1
290
     0
176
     1
 40
1.0
176
     1
 40
1.0
176
     1
1001
ACAD
1000
AcDbSavedByObjectVersion
1070
     0
  0
VISUALSTYLE
  5
464
102
{ACAD_REACTORS
330
463
102
}
330
463
100
AcDbVisualStyle
  2
Flat
 70
     0
177
     3
291
     1
 70
    58
 90
        2
176
     1
 90
        1
176
     1
 90
        1
176
     1
 90
        2
176
     1
 40
0.6
176
     1
 40
30.0
176
     1
 62
     7
420
 16777215
176
     1
 90
        0
176
     1
 90
        0
176
     1
 62
     7
176
     1
 62
   257
176
     1
 90
        1
176
     1
 90
        1
176
     1
 40
1.0
176
     1
 90
        8
176
     1
 62
     7
176
     1
 40
1.0
176
     1
 90
        1
176
     1
 90
        6
176
     1
 90
        2
176
     1
 62
     7
176
     1
 90
        5
176
     1
 90
        0
176
     1
 90
        0
176
     1
290
     0
176
     1
 90
       13
176
     1
 40
0.0
176
     1
 90
        0
176
     1
290
     0
176
     1
290
     1
176
     1
290
     1
176
     1
290
     0
176
     1
290
     0
176
     1
290
     0
176
     1
290
     0
176
     1
290
     0
176
     1
290
     0
176
     1
 90
       50
176
     1
 40
0.0
176
     1
 40
1.0
176
     1
 90
        0
176
     1
 62
    18
420
        0
176
     1
 90
       50
176
     1
 90
        3
176
     1
 62
     5
420
      255
176
     1
290
     0
176
     1
 90
       50
176
     1
 90
       50
176
     1
 90
       50
176
     1
290
     0
176
     1
 90
       50
176
     1
 62
   256
176
     0
 40
1.0
176
     0
 90
        2
176
     1
  1
strokes_ogs.tif
176
     1
290
     0
176
     1
 40
1.0
176
     1
 40
1.0
176
     1
1001
ACAD
1000
AcDbSavedByObjectVersion
1070
     0
  0
VISUALSTYLE
  5
465
102
{ACAD_REACTORS
330
463
102
}
330
463
100
AcDbVisualStyle
  2
FlatWithEdges
 70
     1
177
     3
291
     1
 70
    58
 90
        2
176
     1
 90
        1
176
     1
 90
        1
176
     1
 90
        2
176
     1
 40
0.6
176
     1
 40
30.0
176
     1
 62
     7
420
 16777215
176
     1
 90
        1
176
     1
 90
        0
176
     1
 62
     7
176
     1
 62
   257
176
     1
 90
        1
176
     1
 90
        1
176
     1
 40
1.0
176
     1
 90
        0
176
     1
 62
   257
176
     1
 40
1.0
176
     1
 90
        1
176
     1
 90
        6
176
     1
 90
        2
176
     1
 62
     7
176
     1
 90
        5
176
     1
 90
        0
176
     1
 90
        0
176
     1
290
     0
176
     1
 90
       13
176
     1
 40
0.0
176
     1
 90
        0
176
     1
290
     0
176
     1
290
     1
176
     1
290
     1
176
     1
290
     0
176
     1
290
     0
176
     1
290
     0
176
     1
290
     0
176
     1
290
     0
176
     1
290
     0
176
     1
 90
       50
176
     1
 40
0.0
176
     1
 40
1.0
176
     1
 90
        0
176
     1
 62
    18
420
        0
176
     1
 90
       50
176
     1
 90
        3
176
     1
 62
     5
420
      255
176
     1
290
     0
176
     1
 90
       50
176
     1
 90
       50
176
     1
 90
       50
176
     1
290
     0
176
     1
 90
       50
176
     1
 62
   256
176
     0
 40
1.0
176
     0
 90
        2
176
     1
  1
strokes_ogs.tif
176
     1
290
     0
176
     1
 40
1.0
176
     1
 40
1.0
176
     1
1001
ACAD
1000
AcDbSavedByObjectVersion
1070
     0
  0
VISUALSTYLE
  5
466
102
{ACAD_REACTORS
330
463
102
}
330
463
100
AcDbVisualStyle
  2
Gouraud
 70
     2
177
     3
291
     1
 70
    58
 90
        2
176
     1
 90
        2
176
     1
 90
        1
176
     1
 90
        2
176
     1
 40
0.6
176
     1
 40
30.0
176
     1
 62
     7
420
 16777215
176
     1
 90
        0
176
     1
 90
        0
176
     1
 62
     7
176
     1
 62
   257
176
     1
 90
        1
176
     1
 90
        1
176
     1
 40
1.0
176
     1
 90
        0
176
     1
 62
     7
176
     1
 40
1.0
176
     1
 90
        1
176
     1
 90
        6
176
     1
 90
        2
176
     1
 62
     7
176
     1
 90
        5
176
     1
 90
        0
176
     1
 90
        0
176
     1
290
     0
176
     1
 90
       13
176
     1
 40
0.0
176
     1
 90
        0
176
     1
290
     0
176
     1
290
     1
176
     1
290
     1
176
     1
290
     0
176
     1
290
     0
176
     1
290
     0
176
     1
290
     0
176
     1
290
     0
176
     1
290
     0
176
     1
 90
       50
176
     1
 40
0.0
176
     1
 40
1.0
176
     1
 90
        0
176
     1
 62
    18
420
        0
176
     1
 90
       50
176
     1
 90
        3
176
     1
 62
     5
420
      255
176
     1
290
     0
176
     1
 90
       50
176
     1
 90
       50
176
     1
 90
       50
176
     1
290
     0
176
     1
 90
       50
176
     1
 62
   256
176
     0
 40
1.0
176
     0
 90
        2
176
     1
  1
strokes_ogs.tif
176
     1
290
     0
176
     1
 40
1.0
176
     1
 40
1.0
176
     1
1001
ACAD
1000
AcDbSavedByObjectVersion
1070
     0
  0
VISUALSTYLE
  5
467
102
{ACAD_REACTORS
330
463
102
}
330
463
100
AcDbVisualStyle
  2
GouraudWithEdges
 70
     3
177
     3
291
     1
 70
    58
 90
        2
176
     1
 90
        2
176
     1
 90
        1
176
     1
 90
        2
176
     1
 40
0.6
176
     1
 40
30.0
176
     1
 62
     7
420
 16777215
176
     1
 90
        1
176
     1
 90
        0
176
     1
 62
     7
176
     1
 62
   257
176
     1
 90
        1
176
     1
 90
        1
176
     1
 40
1.0
176
     1
 90
        0
176
     1
 62
   257
176
     1
 40
1.0
176
     1
 90
        1
176
     1
 90
        6
176
     1
 90
        2
176
     1
 62
     7
176
     1
 90
        5
176
     1
 90
        0
176
     1
 90
        0
176
     1
290
     0
176
     1
 90
       13
176
     1
 40
0.0
176
     1
 90
        0
176
     1
290
     0
176
     1
290
     1
176
     1
290
     1
176
     1
290
     0
176
     1
290
     0
176
     1
290
     0
176
     1
290
     0
176
     1
290
     0
176
     1
290
     0
176
     1
 90
       50
176
     1
 40
0.0
176
     1
 40
1.0
176
     1
 90
        0
176
     1
 62
    18
420
        0
176
     1
 90
       50
176
     1
 90
        3
176
     1
 62
     5
420
      255
176
     1
290
     0
176
     1
 90
       50
176
     1
 90
       50
176
     1
 90
       50
176
     1
290
     0
176
     1
 90
       50
176
     1
 62
   256
176
     0
 40
1.0
176
     0
 90
        2
176
     1
  1
strokes_ogs.tif
176
     1
290
     0
176
     1
 40
1.0
176
     1
 40
1.0
176
     1
1001
ACAD
1000
AcDbSavedByObjectVersion
1070
     0
  0
VISUALSTYLE
  5
46B
102
{ACAD_REACTORS
330
463
102
}
330
463
100
AcDbVisualStyle
  2
Hidden
 70
     6
177
     3
291
     0
 70
    58
 90
        1
176
     1
 90
        2
176
     1
 90
        2
176
     1
 90
        0
176
     1
 40
0.6
176
     1
 40
30.0
176
     1
 62
     7
420
 16777215
176
     1
 90
        2
176
     1
 90
        2
176
     1
 62
     7
176
     1
 62
   257
176
     1
 90
        2
176
     1
 90
        1
176
     1
 40
40.0
176
     1
 90
        0
176
     1
 62
   257
176
     1
 40
1.0
176
     1
 90
        1
176
     1
 90
        6
176
     1
 90
        2
176
     1
 62
     7
176
     1
 90
        3
176
     1
 90
        0
176
     1
 90
        0
176
     1
290
     0
176
     1
 90
        1
176
     1
 40
0.0
176
     1
 90
        0
176
     1
290
     0
176
     1
290
     1
176
     1
290
     1
176
     1
290
     0
176
     1
290
     0
176
     1
290
     0
176
     1
290
     0
176
     1
290
     0
176
     1
290
     0
176
     1
 90
       50
176
     1
 40
0.0
176
     1
 40
1.0
176
     1
 90
        0
176
     1
 62
    18
420
        0
176
     1
 90
       50
176
     1
 90
        3
176
     1
 62
     5
420
      255
176
     1
290
     0
176
     1
 90
       50
176
     1
 90
       50
176
     1
 90
       50
176
     1
290
     0
176
     1
 90
       50
176
     1
 62
   256
176
     0
 40
1.0
176
     0
 90
        2
176
     1
  1
strokes_ogs.tif
176
     1
290
     0
176
     1
 40
1.0
176
     1
 40
1.0
176
     1
1001
ACAD
1000
AcDbSavedByObjectVersion
1070
     0
  0
VISUALSTYLE
  5
479
102
{ACAD_REACTORS
330
463
102
}
330
463
100
AcDbVisualStyle
  2
JitterOff
 70
    20
177
     3
291
     1
 70
    58
 90
        2
176
     0
 90
        2
176
     0
 90
        0
176
     0
 90
        0
176
     0
 40
0.6
176
     0
 40
30.0
176
     0
 62
     7
420
 16777215
176
     0
 90
        1
176
     0
 90
        4
176
     0
 62
     7
176
     0
 62
   257
176
     0
 90
        1
176
     0
 90
        1
176
     0
 40
1.0
176
     0
 90
       10
176
     2
 62
     7
176
     0
 40
1.0
176
     0
 90
        1
176
     0
 90
        6
176
     0
 90
        2
176
     0
 62
     7
176
     0
 90
        5
176
     0
 90
        0
176
     0
 90
        0
176
     0
290
     0
176
     0
 90
        1
176
     0
 40
0.0
176
     0
 90
        0
176
     0
290
     0
176
     1
290
     1
176
     1
290
     1
176
     1
290
     0
176
     1
290
     0
176
     1
290
     0
176
     1
290
     0
176
     1
290
     0
176
     1
290
     0
176
     1
 90
       50
176
     0
 40
0.0
176
     0
 40
1.0
176
     0
 90
        0
176
     0
 62
    18
420
        0
176
     0
 90
       50
176
     0
 90
        3
176
     0
 62
     5
420
      255
176
     0
290
     0
176
     1
 90
       50
176
     0
 90
       50
176
     0
 90
       50
176
     0
290
     0
176
     1
 90
       50
176
     0
 62
   256
176
     0
 40
1.0
176
     0
 90
        2
176
     0
  1
strokes_ogs.tif
176
     0
290
     0
176
     1
 40
1.0
176
     0
 40
1.0
176
     0
1001
ACAD
1000
AcDbSavedByObjectVersion
1070
     0
  0
VISUALSTYLE
  5
471
102
{ACAD_REACTORS
330
463
102
}
330
463
100
AcDbVisualStyle
  2
Linepattern
 70
    14
177
     3
291
     1
 70
    58
 90
        2
176
     1
 90
        2
176
     1
 90
        0
176
     1
 90
        0
176
     1
 40
0.6
176
     1
 40
30.0
176
     1
 62
     7
420
 16777215
176
     1
 90
        1
176
     1
 90
        4
176
     1
 62
     7
176
     1
 62
   257
176
     1
 90
        7
176
     1
 90
        7
176
     1
 40
1.0
176
     1
 90
        8
176
     1
 62
     7
176
     1
 40
1.0
176
     1
 90
        1
176
     1
 90
        6
176
     1
 90
        2
176
     1
 62
     7
176
     1
 90
        5
176
     1
 90
        0
176
     1
 90
        0
176
     1
290
     0
176
     1
 90
        1
176
     1
 40
0.0
176
     1
 90
        0
176
     1
290
     0
176
     1
290
     1
176
     1
290
     1
176
     1
290
     0
176
     1
290
     0
176
     1
290
     0
176
     1
290
     0
176
     1
290
     0
176
     1
290
     0
176
     1
 90
       50
176
     1
 40
0.0
176
     1
 40
1.0
176
     1
 90
        0
176
     1
 62
    18
420
        0
176
     1
 90
       50
176
     1
 90
        3
176
     1
 62
     5
420
      255
176
     1
290
     0
176
     1
 90
       50
176
     1
 90
       50
176
     1
 90
       50
176
     1
290
     0
176
     1
 90
       50
176
     1
 62
   256
176
     0
 40
1.0
176
     0
 90
        2
176
     1
  1
strokes_ogs.tif
176
     1
290
     0
176
     1
 40
1.0
176
     1
 40
1.0
176
     1
1001
ACAD
1000
AcDbSavedByObjectVersion
1070
     0
  0
VISUALSTYLE
  5
47A
102
{ACAD_REACTORS
330
463
102
}
330
463
100
AcDbVisualStyle
  2
OverhangOff
 70
    21
177
     3
291
     1
 70
    58
 90
        2
176
     0
 90
        2
176
     0
 90
        0
176
     0
 90
        0
176
     0
 40
0.6
176
     0
 40
30.0
176
     0
 62
     7
420
 16777215
176
     0
 90
        1
176
     0
 90
        4
176
     0
 62
     7
176
     0
 62
   257
176
     0
 90
        1
176
     0
 90
        1
176
     0
 40
1.0
176
     0
 90
        9
176
     2
 62
     7
176
     0
 40
1.0
176
     0
 90
        1
176
     0
 90
        6
176
     0
 90
        2
176
     0
 62
     7
176
     0
 90
        5
176
     0
 90
        0
176
     0
 90
        0
176
     0
290
     0
176
     0
 90
        1
176
     0
 40
0.0
176
     0
 90
        0
176
     0
290
     0
176
     1
290
     1
176
     1
290
     1
176
     1
290
     0
176
     1
290
     0
176
     1
290
     0
176
     1
290
     0
176
     1
290
     0
176
     1
290
     0
176
     1
 90
       50
176
     0
 40
0.0
176
     0
 40
1.0
176
     0
 90
        0
176
     0
 62
    18
420
        0
176
     0
 90
       50
176
     0
 90
        3
176
     0
 62
     5
420
      255
176
     0
290
     0
176
     1
 90
       50
176
     0
 90
       50
176
     0
 90
       50
176
     0
290
     0
176
     1
 90
       50
176
     0
 62
   256
176
     0
 40
1.0
176
     0
 90
        2
176
     0
  1
strokes_ogs.tif
176
     0
290
     0
176
     1
 40
1.0
176
     0
 40
1.0
176
     0
1001
ACAD
1000
AcDbSavedByObjectVersion
1070
     0
  0
VISUALSTYLE
  5
46D
102
{ACAD_REACTORS
330
463
102
}
330
463
100
AcDbVisualStyle
  2
Realistic
 70
     8
177
     3
291
     0
 70
    58
 90
        2
176
     1
 90
        3
176
     1
 90
        0
176
     1
 90
        2
176
     1
 40
0.6
176
     1
 40
30.0
176
     1
 62
     7
420
 16777215
176
     1
 90
        0
176
     1
 90
        0
176
     1
 62
     7
176
     1
 62
   257
176
     1
 90
        1
176
     1
 90
        1
176
     1
 40
1.0
176
     1
 90
        8
176
     1
 62
   257
176
     1
 40
1.0
176
     1
 90
        1
176
     1
 90
        6
176
     1
 90
        2
176
     1
 62
     7
176
     1
 90
        3
176
     1
 90
        0
176
     1
 90
        0
176
     1
290
     0
176
     1
 90
       13
176
     1
 40
0.0
176
     1
 90
        0
176
     1
290
     0
176
     1
290
     1
176
     1
290
     1
176
     1
290
     0
176
     1
290
     0
176
     1
290
     0
176
     1
290
     0
176
     1
290
     0
176
     1
290
     0
176
     1
 90
       50
176
     1
 40
0.0
176
     1
 40
1.0
176
     1
 90
        0
176
     1
 62
    18
420
        0
176
     1
 90
       50
176
     1
 90
        3
176
     1
 62
     5
420
      255
176
     1
290
     0
176
     1
 90
       50
176
     1
 90
       50
176
     1
 90
       50
176
     1
290
     0
176
     1
 90
       50
176
     1
 62
   256
176
     0
 40
1.0
176
     0
 90
        2
176
     1
  1
strokes_ogs.tif
176
     1
290
     0
176
     1
 40
1.0
176
     1
 40
1.0
176
     1
1001
ACAD
1000
AcDbSavedByObjectVersion
1070
     0
  0
VISUALSTYLE
  5
478
102
{ACAD_REACTORS
330
463
102
}
330
463
100
AcDbVisualStyle
  2
Shaded
 70
    27
177
     3
291
     0
 70
    58
 90
        2
176
     1
 90
        2
176
     1
 90
        1
176
     1
 90
        2
176
     1
 40
0.6
176
     1
 40
30.0
176
     1
 62
     7
420
 16777215
176
     1
 90
        0
176
     1
 90
        4
176
     1
 62
     7
176
     1
 62
   257
176
     1
 90
        1
176
     1
 90
        1
176
     1
 40
1.0
176
     1
 90
        8
176
     1
 62
   257
176
     1
 40
1.0
176
     1
 90
        1
176
     1
 90
        6
176
     1
 90
        2
176
     1
 62
     8
420
  7895160
176
     1
 90
        3
176
     1
 90
        0
176
     1
 90
        0
176
     1
290
     0
176
     1
 90
        5
176
     1
 40
0.0
176
     1
 90
        0
176
     1
290
     0
176
     1
290
     1
176
     1
290
     1
176
     1
290
     0
176
     1
290
     0
176
     1
290
     0
176
     1
290
     0
176
     1
290
     0
176
     1
290
     0
176
     1
 90
       50
176
     1
 40
0.0
176
     1
 40
1.0
176
     1
 90
        0
176
     1
 62
    18
420
        0
176
     1
 90
       50
176
     1
 90
        3
176
     1
 62
     5
420
      255
176
     1
290
     0
176
     1
 90
       50
176
     1
 90
       50
176
     1
 90
       50
176
     1
290
     0
176
     1
 90
       50
176
     1
 62
   256
176
     0
 40
1.0
176
     0
 90
        2
176
     1
  1
strokes_ogs.tif
176
     1
290
     0
176
     1
 40
1.0
176
     1
 40
1.0
176
     1
1001
ACAD
1000
AcDbSavedByObjectVersion
1070
     0
  0
VISUALSTYLE
  5
477
102
{ACAD_REACTORS
330
463
102
}
330
463
100
AcDbVisualStyle
  2
Shaded with edges
 70
    26
177
     3
291
     0
 70
    58
 90
        2
176
     1
 90
        2
176
     1
 90
        1
176
     1
 90
        2
176
     1
 40
0.6
176
     1
 40
30.0
176
     1
 62
     7
420
 16777215
176
     1
 90
        1
176
     1
 90
        2
176
     1
 62
     7
176
     1
 62
   257
176
     1
 90
        2
176
     1
 90
        1
176
     1
 40
1.0
176
     1
 90
        8
176
     1
 62
   257
176
     1
 40
1.0
176
     1
 90
        1
176
     1
 90
        6
176
     1
 90
        2
176
     1
 62
     7
176
     1
 90
        3
176
     1
 90
        0
176
     1
 90
        0
176
     1
290
     0
176
     1
 90
        5
176
     1
 40
0.0
176
     1
 90
        0
176
     1
290
     0
176
     1
290
     1
176
     1
290
     1
176
     1
290
     0
176
     1
290
     0
176
     1
290
     0
176
     1
290
     0
176
     1
290
     0
176
     1
290
     0
176
     1
 90
       50
176
     1
 40
0.0
176
     1
 40
1.0
176
     1
 90
        0
176
     1
 62
    18
420
        0
176
     1
 90
       50
176
     1
 90
        3
176
     1
 62
     5
420
      255
176
     1
290
     0
176
     1
 90
       50
176
     1
 90
       50
176
     1
 90
       50
176
     1
290
     0
176
     1
 90
       50
176
     1
 62
   256
176
     0
 40
1.0
176
     0
 90
        2
176
     1
  1
strokes_ogs.tif
176
     1
290
     0
176
     1
 40
1.0
176
     1
 40
1.0
176
     1
1001
ACAD
1000
AcDbSavedByObjectVersion
1070
     0
  0
VISUALSTYLE
  5
474
102
{ACAD_REACTORS
330
463
102
}
330
463
100
AcDbVisualStyle
  2
Shades of Gray
 70
    23
177
     3
291
     0
 70
    58
 90
        2
176
     1
 90
        2
176
     1
 90
        3
176
     1
 90
        0
176
     1
 40
0.6
176
     1
 40
30.0
176
     1
 62
     7
420
 16777215
176
     1
 90
        2
176
     1
 90
        2
176
     1
 62
     7
176
     1
 62
     7
176
     1
 90
        1
176
     1
 90
        1
176
     1
 40
40.0
176
     1
 90
        8
176
     1
 62
     7
176
     1
 40
1.0
176
     1
 90
        1
176
     1
 90
        6
176
     1
 90
        2
176
     1
 62
     7
176
     1
 90
        3
176
     1
 90
        0
176
     1
 90
        0
176
     1
290
     0
176
     1
 90
        1
176
     1
 40
0.0
176
     1
 90
        0
176
     1
290
     0
176
     1
290
     1
176
     1
290
     1
176
     1
290
     0
176
     1
290
     0
176
     1
290
     0
176
     1
290
     0
176
     1
290
     0
176
     1
290
     0
176
     1
 90
       50
176
     1
 40
0.0
176
     1
 40
1.0
176
     1
 90
        0
176
     1
 62
    18
420
        0
176
     1
 90
       50
176
     1
 90
        3
176
     1
 62
     5
420
      255
176
     1
290
     0
176
     1
 90
       50
176
     1
 90
       50
176
     1
 90
       50
176
     1
290
     0
176
     1
 90
       50
176
     1
 62
   256
176
     0
 40
1.0
176
     0
 90
        2
176
     1
  1
strokes_ogs.tif
176
     1
290
     0
176
     1
 40
1.0
176
     1
 40
1.0
176
     1
1001
ACAD
1000
AcDbSavedByObjectVersion
1070
     0
  0
VISUALSTYLE
  5
475
102
{ACAD_REACTORS
330
463
102
}
330
463
100
AcDbVisualStyle
  2
Sketchy
 70
    24
177
     3
291
     0
 70
    58
 90
        1
176
     1
 90
        2
176
     1
 90
        2
176
     1
 90
        0
176
     1
 40
0.6
176
     1
 40
30.0
176
     1
 62
     7
420
 16777215
176
     1
 90
        2
176
     1
 90
        2
176
     1
 62
     7
176
     1
 62
     7
176
     1
 90
        1
176
     1
 90
        1
176
     1
 40
40.0
176
     1
 90
       11
176
     1
 62
     7
176
     1
 40
1.0
176
     1
 90
        1
176
     1
 90
        6
176
     1
 90
        2
176
     1
 62
     7
176
     1
 90
        6
176
     1
 90
        0
176
     1
 90
        0
176
     1
290
     0
176
     1
 90
        1
176
     1
 40
0.0
176
     1
 90
        0
176
     1
290
     0
176
     1
290
     1
176
     1
290
     1
176
     1
290
     0
176
     1
290
     0
176
     1
290
     0
176
     1
290
     0
176
     1
290
     0
176
     1
290
     0
176
     1
 90
       50
176
     1
 40
0.0
176
     1
 40
1.0
176
     1
 90
        0
176
     1
 62
    18
420
        0
176
     1
 90
       50
176
     1
 90
        3
176
     1
 62
     5
420
      255
176
     1
290
     0
176
     1
 90
       50
176
     1
 90
       50
176
     1
 90
       50
176
     1
290
     0
176
     1
 90
       50
176
     1
 62
   256
176
     0
 40
1.0
176
     0
 90
        2
176
     1
  1
strokes_ogs.tif
176
     1
290
     0
176
     1
 40
1.0
176
     1
 40
1.0
176
     1
1001
ACAD
1000
AcDbSavedByObjectVersion
1070
     0
  0
VISUALSTYLE
  5
470
102
{ACAD_REACTORS
330
463
102
}
330
463
100
AcDbVisualStyle
  2
Thicken
 70
    13
177
     3
291
     1
 70
    58
 90
        2
176
     1
 90
        2
176
     1
 90
        0
176
     1
 90
        0
176
     1
 40
0.6
176
     1
 40
30.0
176
     1
 62
     7
420
 16777215
176
     1
 90
        1
176
     1
 90
        4
176
     1
 62
     7
176
     1
 62
   257
176
     1
 90
        1
176
     1
 90
        1
176
     1
 40
1.0
176
     1
 90
       12
176
     1
 62
     7
176
     1
 40
1.0
176
     1
 90
        1
176
     1
 90
        6
176
     1
 90
        2
176
     1
 62
     7
176
     1
 90
        5
176
     1
 90
        0
176
     1
 90
        0
176
     1
290
     0
176
     1
 90
        1
176
     1
 40
0.0
176
     1
 90
        0
176
     1
290
     0
176
     1
290
     1
176
     1
290
     1
176
     1
290
     0
176
     1
290
     0
176
     1
290
     0
176
     1
290
     0
176
     1
290
     0
176
     1
290
     0
176
     1
 90
       50
176
     1
 40
0.0
176
     1
 40
1.0
176
     1
 90
        0
176
     1
 62
    18
420
        0
176
     1
 90
       50
176
     1
 90
        3
176
     1
 62
     5
420
      255
176
     1
290
     0
176
     1
 90
       50
176
     1
 90
       50
176
     1
 90
       50
176
     1
290
     0
176
     1
 90
       50
176
     1
 62
   256
176
     0
 40
1.0
176
     0
 90
        2
176
     1
  1
strokes_ogs.tif
176
     1
290
     0
176
     1
 40
1.0
176
     1
 40
1.0
176
     1
1001
ACAD
1000
AcDbSavedByObjectVersion
1070
     0
  0
VISUALSTYLE
  5
46A
102
{ACAD_REACTORS
330
463
102
}
330
463
100
AcDbVisualStyle
  2
Wireframe
 70
     5
177
     3
291
     0
 70
    58
 90
        0
176
     1
 90
        2
176
     1
 90
        0
176
     1
 90
        0
176
     1
 40
0.6
176
     1
 40
30.0
176
     1
 62
     7
420
 16777215
176
     1
 90
        1
176
     1
 90
        4
176
     1
 62
     7
176
     1
 62
   257
176
     1
 90
        1
176
     1
 90
        1
176
     1
 40
1.0
176
     1
 90
        0
176
     1
 62
   257
176
     1
 40
1.0
176
     1
 90
        1
176
     1
 90
        6
176
     1
 90
        2
176
     1
 62
     7
176
     1
 90
        3
176
     1
 90
        0
176
     1
 90
        0
176
     1
290
     0
176
     1
 90
        1
176
     1
 40
0.0
176
     1
 90
        0
176
     1
290
     0
176
     1
290
     1
176
     1
290
     1
176
     1
290
     0
176
     1
290
     0
176
     1
290
     0
176
     1
290
     0
176
     1
290
     0
176
     1
290
     0
176
     1
 90
       50
176
     1
 40
0.0
176
     1
 40
1.0
176
     1
 90
        0
176
     1
 62
    18
420
        0
176
     1
 90
       50
176
     1
 90
        3
176
     1
 62
     5
420
      255
176
     1
290
     0
176
     1
 90
       50
176
     1
 90
       50
176
     1
 90
       50
176
     1
290
     0
176
     1
 90
       50
176
     1
 62
   256
176
     0
 40
1.0
176
     0
 90
        2
176
     1
  1
strokes_ogs.tif
176
     1
290
     0
176
     1
 40
1.0
176
     1
 40
1.0
176
     1
1001
ACAD
1000
AcDbSavedByObjectVersion
1070
     0
  0
VISUALSTYLE
  5
476
102
{ACAD_REACTORS
330
463
102
}
330
463
100
AcDbVisualStyle
  2
X-Ray
 70
    25
177
     3
291
     0
 70
    58
 90
        2
176
     1
 90
        2
176
     1
 90
        1
176
     1
 90
        1
176
     1
 40
0.5
176
     1
 40
30.0
176
     1
 62
     7
420
 16777215
176
     1
 90
        1
176
     1
 90
        0
176
     1
 62
     7
176
     1
 62
   257
176
     1
 90
        1
176
     1
 90
        1
176
     1
 40
1.0
176
     1
 90
        8
176
     1
 62
     7
176
     1
 40
1.0
176
     1
 90
        1
176
     1
 90
        6
176
     1
 90
        2
176
     1
 62
     7
176
     1
 90
        3
176
     1
 90
        0
176
     1
 90
        0
176
     1
290
     0
176
     1
 90
       13
176
     1
 40
0.0
176
     1
 90
        0
176
     1
290
     0
176
     1
290
     1
176
     1
290
     1
176
     1
290
     0
176
     1
290
     0
176
     1
290
     0
176
     1
290
     0
176
     1
290
     0
176
     1
290
     0
176
     1
 90
       50
176
     1
 40
0.0
176
     1
 40
1.0
176
     1
 90
        0
176
     1
 62
    18
420
        0
176
     1
 90
       50
176
     1
 90
        3
176
     1
 62
     5
420
      255
176
     1
290
     0
176
     1
 90
       50
176
     1
 90
       50
176
     1
 90
       50
176
     1
290
     0
176
     1
 90
       50
176
     1
 62
   256
176
     0
 40
1.0
176
     0
 90
        2
176
     1
  1
strokes_ogs.tif
176
     1
290
     0
176
     1
 40
1.0
176
     1
 40
1.0
176
     1
1001
ACAD
1000
AcDbSavedByObjectVersion
1070
     0
  0
DICTIONARYVAR
  5
4C3
102
{ACAD_REACTORS
330
4BD
102
}
330
4BD
100
DictionaryVariables
280
     0
  1
1:1
  0
DICTIONARYVAR
  5
4BF
102
{ACAD_REACTORS
330
4BD
102
}
330
4BD
100
DictionaryVariables
280
     0
  1
STANDARD
  0
DICTIONARYVAR
  5
4BE
102
{ACAD_REACTORS
330
4BD
102
}
330
4BD
100
DictionaryVariables
280
     0
  1
STANDARD
  0
DICTIONARYVAR
  5
4C0
102
{ACAD_REACTORS
330
4BD
102
}
330
4BD
100
DictionaryVariables
280
     0
  1
Imperial24
  0
DICTIONARYVAR
  5
4C1
102
{ACAD_REACTORS
330
4BD
102
}
330
4BD
100
DictionaryVariables
280
     0
  1
Imperial24
  0
DICTIONARYVAR
  5
4C5
102
{ACAD_REACTORS
330
4BD
102
}
330
4BD
100
DictionaryVariables
280
     0
  1
1
  0
DICTIONARYVAR
  5
4C6
102
{ACAD_REACTORS
330
4BD
102
}
330
4BD
100
DictionaryVariables
280
     0
  1
15
  0
DICTIONARYVAR
  5
4C4
102
{ACAD_REACTORS
330
4BD
102
}
330
4BD
100
DictionaryVariables
280
     0
  1
0
  0
DICTIONARYVAR
  5
4C2
102
{ACAD_REACTORS
330
4BD
102
}
330
4BD
100
DictionaryVariables
280
     0
  1
0
  0
DICTIONARY
  5
4CD
330
4A4
100
AcDbDictionary
280
     1
281
     1
  3
ACAD_XREC_ROUNDTRIP
360
4CE
  0
DICTIONARY
  5
454
330
453
100
AcDbDictionary
280
     1
281
     1
  3
BUMPTILE
360
456
  3
DIFFUSETILE
360
455
  3
OPACITYTILE
360
459
  3
REFLECTIONTILE
360
458
  3
REFRACTIONTILE
360
45A
  3
SPECULARTILE
360
457
  0
DICTIONARY
  5
44C
330
44B
100
AcDbDictionary
280
     1
281
     1
  3
BUMPTILE
360
44E
  3
DIFFUSETILE
360
44D
  3
OPACITYTILE
360
451
  3
REFLECTIONTILE
360
450
  3
REFRACTIONTILE
360
452
  3
SPECULARTILE
360
44F
  0
DICTIONARY
  5
45C
330
45B
100
AcDbDictionary
280
     1
281
     1
  3
BUMPTILE
360
45E
  3
DIFFUSETILE
360
45D
  3
OPACITYTILE
360
461
  3
REFLECTIONTILE
360
460
  3
REFRACTIONTILE
360
462
  3
SPECULARTILE
360
45F
  0
DICTIONARY
  5
4CB
330
4A2
100
AcDbDictionary
280
     1
281
     1
  3
ACAD_XREC_ROUNDTRIP
360
4CC
  0
DICTIONARY
  5
4C8
330
49E
100
AcDbDictionary
280
     1
281
     1
  3
ACAD_ROUNDTRIP_2008_TABLESTYLE_CELLSTYLEMAP
360
4C9
  0
XRECORD
  5
4CE
102
{ACAD_REACTORS
330
4CD
102
}
330
4CD
100
AcDbXrecord
280
     1
102
DISPLAYNAME
  1
Imperial24
102
FLAGS
 90
        0
  0
XRECORD
  5
456
102
{ACAD_REACTORS
330
454
102
}
330
454
100
AcDbXrecord
280
     1
270
     1
271
     1
  0
XRECORD
  5
455
102
{ACAD_REACTORS
330
454
102
}
330
454
100
AcDbXrecord
280
     1
270
     1
271
     1
  0
XRECORD
  5
459
102
{ACAD_REACTORS
330
454
102
}
330
454
100
AcDbXrecord
280
     1
270
     1
271
     1
  0
XRECORD
  5
458
102
{ACAD_REACTORS
330
454
102
}
330
454
100
AcDbXrecord
280
     1
270
     1
271
     1
  0
XRECORD
  5
45A
102
{ACAD_REACTORS
330
454
102
}
330
454
100
AcDbXrecord
280
     1
270
     1
271
     1
  0
XRECORD
  5
457
102
{ACAD_REACTORS
330
454
102
}
330
454
100
AcDbXrecord
280
     1
270
     1
271
     1
  0
XRECORD
  5
44E
102
{ACAD_REACTORS
330
44C
102
}
330
44C
100
AcDbXrecord
280
     1
270
     1
271
     1
  0
XRECORD
  5
44D
102
{ACAD_REACTORS
330
44C
102
}
330
44C
100
AcDbXrecord
280
     1
270
     1
271
     1
  0
XRECORD
  5
451
102
{ACAD_REACTORS
330
44C
102
}
330
44C
100
AcDbXrecord
280
     1
270
     1
271
     1
  0
XRECORD
  5
450
102
{ACAD_REACTORS
330
44C
102
}
330
44C
100
AcDbXrecord
280
     1
270
     1
271
     1
  0
XRECORD
  5
452
102
{ACAD_REACTORS
330
44C
102
}
330
44C
100
AcDbXrecord
280
     1
270
     1
271
     1
  0
XRECORD
  5
44F
102
{ACAD_REACTORS
330
44C
102
}
330
44C
100
AcDbXrecord
280
     1
270
     1
271
     1
  0
XRECORD
  5
45E
102
{ACAD_REACTORS
330
45C
102
}
330
45C
100
AcDbXrecord
280
     1
270
     1
271
     1
  0
XRECORD
  5
45D
102
{ACAD_REACTORS
330
45C
102
}
330
45C
100
AcDbXrecord
280
     1
270
     1
271
     1
  0
XRECORD
  5
461
102
{ACAD_REACTORS
330
45C
102
}
330
45C
100
AcDbXrecord
280
     1
270
     1
271
     1
  0
XRECORD
  5
460
102
{ACAD_REACTORS
330
45C
102
}
330
45C
100
AcDbXrecord
280
     1
270
     1
271
     1
  0
XRECORD
  5
462
102
{ACAD_REACTORS
330
45C
102
}
330
45C
100
AcDbXrecord
280
     1
270
     1
271
     1
  0
XRECORD
  5
45F
102
{ACAD_REACTORS
330
45C
102
}
330
45C
100
AcDbXrecord
280
     1
270
     1
271
     1
  0
XRECORD
  5
4CC
102
{ACAD_REACTORS
330
4CB
102
}
330
4CB
100
AcDbXrecord
280
     1
102
DISPLAYNAME
  1
Imperial24
102
FLAGS
 90
        0
  0
CELLSTYLEMAP
  5
4C9
102
{ACAD_REACTORS
330
4C8
102
}
330
4C8
100
AcDbCellStyleMap
 90
        3
300
CELLSTYLE
  1
TABLEFORMAT_BEGIN
 90
        5
170
     1
 91
        0
 92
    32768
 62
   257
 93
        1
300
CONTENTFORMAT
  1
CONTENTFORMAT_BEGIN
 90
        0
 91
        0
 92
      512
 93
        0
300

 40
0.0
140
1.0
 94
        5
 62
     0
340
48F
144
0.25
309
CONTENTFORMAT_END
171
     0
 94
        0
309
TABLEFORMAT_END
  1
CELLSTYLE_BEGIN
 90
        1
 91
        1
300
_TITLE
309
CELLSTYLE_END
300
CELLSTYLE
  1
TABLEFORMAT_BEGIN
 90
        5
170
     1
 91
        0
 92
        0
 62
   257
 93
        1
300
CONTENTFORMAT
  1
CONTENTFORMAT_BEGIN
 90
        0
 91
        0
 92
      512
 93
        0
300

 40
0.0
140
1.0
 94
        5
 62
     0
340
48F
144
0.18
309
CONTENTFORMAT_END
171
     0
 94
        0
309
TABLEFORMAT_END
  1
CELLSTYLE_BEGIN
 90
        2
 91
        1
300
_HEADER
309
CELLSTYLE_END
300
CELLSTYLE
  1
TABLEFORMAT_BEGIN
 90
        5
170
     1
 91
        0
 92
        0
 62
   257
 93
        1
300
CONTENTFORMAT
  1
CONTENTFORMAT_BEGIN
 90
        0
 91
        0
 92
      512
 93
        0
300

 40
0.0
140
1.0
 94
        2
 62
     0
340
48F
144
0.18
309
CONTENTFORMAT_END
171
     0
 94
        0
309
TABLEFORMAT_END
  1
CELLSTYLE_BEGIN
 90
        3
 91
        2
300
_DATA
309
CELLSTYLE_END
  0
ENDSEC
  0
EOF
