  0
SECTION
  2
HEADER
  9
$ACADVER
  1
AC1009
  9
$FILLMODE
 70
0
  9
$EXTMIN
 10
-0.5673
 20
0.0000
 30
0.0000
  9
$EXTMAX
 10
18.5673
 20
44.7900
 30
0.0000
  0
ENDSEC
  0
SECTION
  2
TABLES
  0
TABLE
  2
LTYPE
 70
1
  0
LTYPE
  2
CONTINUOUS
 70
64
  3
Solid line
 72
65
 73
0
 40
0
  0
ENDTAB
  0
TABLE
  2
LAYER
 70
255
  0
LAYER
  2
1
 70
64
 62
12
  6
CONTINUOUS
  0
LAYER
  2
16
 70
64
 62
132
  6
CONTINUOUS
  0
LAYER
  2
17
 70
64
 62
110
  6
CONTINUOUS
  0
LAYER
  2
18
 70
64
 62
110
  6
CONTINUOUS
  0
LAYER
  2
19
 70
64
 62
53
  6
CONTINUOUS
  0
LAYER
  2
20
 70
64
 62
31
  6
CONTINUOUS
  0
LAYER
  2
21
 70
64
 62
253
  6
CONTINUOUS
  0
LAYER
  2
22
 70
64
 62
253
  6
CONTINUOUS
  0
LAYER
  2
23
 70
64
 62
53
  6
CONTINUOUS
  0
LAYER
  2
24
 70
64
 62
53
  6
CONTINUOUS
  0
LAYER
  2
25
 70
64
 62
253
  6
CONTINUOUS
  0
LAYER
  2
26
 70
64
 62
253
  6
CONTINUOUS
  0
LAYER
  2
27
 70
64
 62
253
  6
CONTINUOUS
  0
LAYER
  2
28
 70
64
 62
253
  6
CONTINUOUS
  0
LAYER
  2
39
 70
64
 62
12
  6
CONTINUOUS
  0
LAYER
  2
40
 70
64
 62
132
  6
CONTINUOUS
  0
LAYER
  2
41
 70
64
 62
12
  6
CONTINUOUS
  0
LAYER
  2
42
 70
64
 62
132
  6
CONTINUOUS
  0
LAYER
  2
43
 70
64
 62
110
  6
CONTINUOUS
  0
LAYER
  2
45
 70
64
 62
253
  6
CONTINUOUS
  0
LAYER
  2
48
 70
64
 62
253
  6
CONTINUOUS
  0
LAYER
  2
49
 70
64
 62
253
  6
CONTINUOUS
  0
LAYER
  2
51
 70
64
 62
253
  6
CONTINUOUS
  0
LAYER
  2
52
 70
64
 62
253
  6
CONTINUOUS
  0
ENDTAB
  0
ENDSEC
  0
SECTION
  2
BLOCKS
  0
BLOCK
  8
0
  2
RECT
 70
64
 10
0.0000
 20
0.0000
 30
0.0000
  3
RECT
  0
SOLID
  8
0
 10
-0.5000
 20
-0.5000
 30
0.0000
 11
0.5000
 21
-0.5000
 31
0.0000
 12
-0.5000
 22
0.5000
 32
0.0000
 13
0.5000
 23
0.5000
 33
0.0000
  0
ENDBLK
  8
0
  0
BLOCK
  8
0
  2
PIE
 70
64
 10
0.0000
 20
0.0000
 30
0.0000
  3
PIE
  0
CIRCLE
  8
0
 10
0.0000
 20
0.0000
 30
0.0000
 40
0.5000
  0
ENDBLK
  8
0
  0
BLOCK
  8
0
  2
OCTAGONP
 70
64
 10
0.0000
 20
0.0000
 30
0.0000
  3
OCTAGONP
  0
POLYLINE
  8
0
 66
1
 10
0.0000
 20
0.0000
 30
0.0000
 40
0.0000
 41
0.0000
 70
1
  0
VERTEX
  8
0
 10
-0.5000
 20
-0.2071
 30
0.0000
  0
VERTEX
  8
0
 10
-0.5000
 20
0.2071
 30
0.0000
  0
VERTEX
  8
0
 10
-0.2071
 20
0.5000
 30
0.0000
  0
VERTEX
  8
0
 10
0.2071
 20
0.5000
 30
0.0000
  0
VERTEX
  8
0
 10
0.5000
 20
0.2071
 30
0.0000
  0
VERTEX
  8
0
 10
0.5000
 20
-0.2071
 30
0.0000
  0
VERTEX
  8
0
 10
0.2071
 20
-0.5000
 30
0.0000
  0
VERTEX
  8
0
 10
-0.2071
 20
-0.5000
 30
0.0000
  0
SEQEND
  8
0
  0
ENDBLK
  8
0
  0
BLOCK
  8
0
  2
SQUAREP
 70
64
 10
0.0000
 20
0.0000
 30
0.0000
  3
SQUAREP
  0
SOLID
  8
0
 10
-0.5000
 20
-0.5000
 30
0.0000
 11
0.5000
 21
-0.5000
 31
0.0000
 12
-0.5000
 22
0.5000
 32
0.0000
 13
0.5000
 23
0.5000
 33
0.0000
  0
ENDBLK
  8
0
  0
BLOCK
  8
0
  2
ROUNDP
 70
64
 10
0.0000
 20
0.0000
 30
0.0000
  3
ROUNDP
  0
CIRCLE
  8
0
 10
0.0000
 20
0.0000
 30
0.0000
 40
0.5000
  0
ENDBLK
  8
0
  0
BLOCK
  8
0
  2
ANNULUSP
 70
64
 10
0.0000
 20
0.0000
 30
0.0000
  3
ANNULUSP
  0
CIRCLE
  8
0
 10
0.0000
 20
0.0000
 30
0.0000
 40
0.5000
  0
ENDBLK
  8
0
  0
BLOCK
  8
0
  2
THERMALP
 70
64
 10
0.0000
 20
0.0000
 30
0.0000
  3
THERMALP
  0
LINE
  8
0
 10
-0.2379
 20
0.4500
 30
0.0000
 11
0.2379
 21
0.4500
 31
0.0000
  0
LINE
  8
0
 10
0.4500
 20
0.2379
 30
0.0000
 11
0.4500
 21
-0.2379
 31
0.0000
  0
LINE
  8
0
 10
0.2379
 20
-0.4500
 30
0.0000
 11
-0.2379
 21
-0.4500
 31
0.0000
  0
LINE
  8
0
 10
-0.4500
 20
-0.2379
 30
0.0000
 11
-0.4500
 21
0.2379
 31
0.0000
  0
ENDBLK
  8
0
  0
BLOCK
  8
0
  2
OCTAGONV
 70
64
 10
0.0000
 20
0.0000
 30
0.0000
  3
OCTAGONV
  0
POLYLINE
  8
0
 66
1
 10
0.0000
 20
0.0000
 30
0.0000
 40
0.0000
 41
0.0000
 70
1
  0
VERTEX
  8
0
 10
-0.5000
 20
-0.2071
 30
0.0000
  0
VERTEX
  8
0
 10
-0.5000
 20
0.2071
 30
0.0000
  0
VERTEX
  8
0
 10
-0.2071
 20
0.5000
 30
0.0000
  0
VERTEX
  8
0
 10
0.2071
 20
0.5000
 30
0.0000
  0
VERTEX
  8
0
 10
0.5000
 20
0.2071
 30
0.0000
  0
VERTEX
  8
0
 10
0.5000
 20
-0.2071
 30
0.0000
  0
VERTEX
  8
0
 10
0.2071
 20
-0.5000
 30
0.0000
  0
VERTEX
  8
0
 10
-0.2071
 20
-0.5000
 30
0.0000
  0
SEQEND
  8
0
  0
ENDBLK
  8
0
  0
BLOCK
  8
0
  2
SQUAREV
 70
64
 10
0.0000
 20
0.0000
 30
0.0000
  3
SQUAREV
  0
SOLID
  8
0
 10
-0.5000
 20
-0.5000
 30
0.0000
 11
0.5000
 21
-0.5000
 31
0.0000
 12
-0.5000
 22
0.5000
 32
0.0000
 13
0.5000
 23
0.5000
 33
0.0000
  0
ENDBLK
  8
0
  0
BLOCK
  8
0
  2
ROUNDV
 70
64
 10
0.0000
 20
0.0000
 30
0.0000
  3
ROUNDV
  0
CIRCLE
  8
0
 10
0.0000
 20
0.0000
 30
0.0000
 40
0.5000
  0
ENDBLK
  8
0
  0
BLOCK
  8
0
  2
ANNULUSV
 70
64
 10
0.0000
 20
0.0000
 30
0.0000
  3
ANNULUSV
  0
CIRCLE
  8
0
 10
0.0000
 20
0.0000
 30
0.0000
 40
0.5000
  0
ENDBLK
  8
0
  0
BLOCK
  8
0
  2
THERMALV
 70
64
 10
0.0000
 20
0.0000
 30
0.0000
  3
THERMALV
  0
LINE
  8
0
 10
-0.2379
 20
0.4500
 30
0.0000
 11
0.2379
 21
0.4500
 31
0.0000
  0
LINE
  8
0
 10
0.4500
 20
0.2379
 30
0.0000
 11
0.4500
 21
-0.2379
 31
0.0000
  0
LINE
  8
0
 10
0.2379
 20
-0.4500
 30
0.0000
 11
-0.2379
 21
-0.4500
 31
0.0000
  0
LINE
  8
0
 10
-0.4500
 20
-0.2379
 30
0.0000
 11
-0.4500
 21
0.2379
 31
0.0000
  0
ENDBLK
  8
0
  0
ENDSEC
  0
SECTION
  2
ENTITIES
  0
LINE
  8
20
 10
0.0000
 20
0.0000
 30
0.0000
 11
18.4200
 21
0.0000
 31
0.0000
  0
LINE
  8
20
 10
18.4200
 20
0.0000
 30
0.0000
 11
18.4200
 21
44.7900
 31
0.0000
  0
LINE
  8
20
 10
18.4200
 20
44.7900
 30
0.0000
 11
0.0000
 21
44.7900
 31
0.0000
  0
LINE
  8
20
 10
0.0000
 20
44.7900
 30
0.0000
 11
0.0000
 21
0.0000
 31
0.0000
  0
CIRCLE
  8
20
 10
9.0000
 20
41.0000
 30
0.0000
 40
0.5000
  0
CIRCLE
  8
20
 10
9.0000
 20
32.3200
 30
0.0000
 40
0.5000
  0
CIRCLE
  8
20
 10
9.0000
 20
3.0000
 30
0.0000
 40
0.5000
  0
CIRCLE
  8
20
 10
9.0000
 20
12.0000
 30
0.0000
 40
0.5000
  0
POINT
  8
23
 10
9.0000
 20
12.0000
 30
0.0000
  0
LINE
  8
51
 10
12.0480
 20
13.0160
 30
0.0000
 11
12.0480
 21
14.5400
 31
0.0000
  0
LINE
  8
51
 10
12.0480
 20
14.5400
 30
0.0000
 11
11.5400
 21
15.0480
 31
0.0000
  0
LINE
  8
51
 10
11.5400
 20
8.9520
 30
0.0000
 11
12.0480
 21
9.4600
 31
0.0000
  0
LINE
  8
51
 10
12.0480
 20
9.4600
 30
0.0000
 11
12.0480
 21
10.9840
 31
0.0000
  0
LINE
  8
51
 10
6.4600
 20
15.0480
 30
0.0000
 11
5.9520
 21
14.5400
 31
0.0000
  0
LINE
  8
51
 10
5.9520
 20
14.5400
 30
0.0000
 11
5.9520
 21
13.0160
 31
0.0000
  0
LINE
  8
51
 10
6.4600
 20
8.9520
 30
0.0000
 11
5.9520
 21
9.4600
 31
0.0000
  0
LINE
  8
51
 10
5.9520
 20
9.4600
 30
0.0000
 11
5.9520
 21
10.9840
 31
0.0000
  0
LINE
  8
51
 10
11.5400
 20
8.9520
 30
0.0000
 11
11.1590
 21
8.9520
 31
0.0000
  0
LINE
  8
51
 10
6.4600
 20
8.9520
 30
0.0000
 11
6.8410
 21
8.9520
 31
0.0000
  0
LINE
  8
51
 10
6.4600
 20
15.0480
 30
0.0000
 11
6.8410
 21
15.0480
 31
0.0000
  0
LINE
  8
51
 10
11.5400
 20
15.0480
 30
0.0000
 11
11.1590
 21
15.0480
 31
0.0000
  0
LINE
  8
21
 10
11.1590
 20
15.0480
 30
0.0000
 11
6.8410
 21
15.0480
 31
0.0000
  0
LINE
  8
21
 10
6.8410
 20
8.9520
 30
0.0000
 11
11.1590
 21
8.9520
 31
0.0000
  0
LINE
  8
21
 10
12.0480
 20
12.9980
 30
0.0000
 11
12.0480
 21
10.9840
 31
0.0000
  0
LINE
  8
21
 10
5.9520
 20
13.0280
 30
0.0000
 11
5.9520
 21
10.9840
 31
0.0000
  0
LINE
  8
51
 10
6.4600
 20
13.2700
 30
0.0000
 11
6.4600
 21
12.5080
 31
0.0000
  0
LINE
  8
51
 10
6.4600
 20
11.4920
 30
0.0000
 11
6.4600
 21
10.7300
 31
0.0000
  0
LINE
  8
51
 10
6.4600
 20
12.5080
 30
0.0000
 11
6.8410
 21
11.6190
 31
0.0000
  0
CIRCLE
  8
21
 10
9.0000
 20
12.0000
 30
0.0000
 40
1.7780
  0
INSERT
  8
17
  2
ROUNDP
 10
5.7488
 20
14.2606
 30
0.0000
 41
1.8796
 42
1.8796
 43
1.0000
 50
0.0000
  0
INSERT
  8
17
  2
ROUNDP
 10
5.7488
 20
14.2606
 30
0.0000
 41
1.8796
 42
1.8796
 43
1.0000
 50
0.0000
  0
INSERT
  8
17
  2
ROUNDP
 10
12.2512
 20
14.2606
 30
0.0000
 41
1.8796
 42
1.8796
 43
1.0000
 50
0.0000
  0
INSERT
  8
17
  2
ROUNDP
 10
12.2512
 20
14.2606
 30
0.0000
 41
1.8796
 42
1.8796
 43
1.0000
 50
0.0000
  0
INSERT
  8
17
  2
ROUNDP
 10
5.7488
 20
9.7394
 30
0.0000
 41
1.8796
 42
1.8796
 43
1.0000
 50
0.0000
  0
INSERT
  8
17
  2
ROUNDP
 10
5.7488
 20
9.7394
 30
0.0000
 41
1.8796
 42
1.8796
 43
1.0000
 50
0.0000
  0
INSERT
  8
17
  2
ROUNDP
 10
12.2512
 20
9.7394
 30
0.0000
 41
1.8796
 42
1.8796
 43
1.0000
 50
0.0000
  0
INSERT
  8
17
  2
ROUNDP
 10
12.2512
 20
9.7394
 30
0.0000
 41
1.8796
 42
1.8796
 43
1.0000
 50
0.0000
  0
ARC
  8
25
 10
10.7616
 20
14.3457
 30
0.0000
 40
0.1072
 50
270.0000
 51
0.0000
  0
ARC
  8
25
 10
10.7616
 20
14.4651
 30
0.0000
 40
0.2266
 50
224.7621
 51
269.9996
  0
ARC
  8
25
 10
10.7214
 20
14.6139
 30
0.0000
 40
0.1072
 50
89.9983
 51
180.0000
  0
ARC
  8
25
 10
10.7214
 20
14.5200
 30
0.0000
 40
0.2011
 50
53.1301
 51
89.9982
  0
ARC
  8
25
 10
10.7231
 20
14.6139
 30
0.0000
 40
0.1089
 50
179.9994
 51
239.4907
  0
ARC
  8
25
 10
10.7600
 20
14.3457
 30
0.0000
 40
0.1089
 50
0.0002
 51
59.4900
  0
LINE
  8
25
 10
10.8153
 20
14.4396
 30
0.0000
 11
10.6678
 21
14.5200
 31
0.0000
  0
LINE
  8
25
 10
11.1311
 20
14.6139
 30
0.0000
 11
11.2652
 21
14.7211
 31
0.0000
  0
LINE
  8
25
 10
11.2652
 20
14.7211
 30
0.0000
 11
11.2652
 21
14.2385
 31
0.0000
  0
LINE
  8
25
 10
11.1311
 20
14.2385
 30
0.0000
 11
11.3992
 21
14.2385
 31
0.0000
  0
LINE
  8
27
 10
-0.3006
 20
8.2789
 30
0.0000
 11
-0.3006
 21
8.7615
 31
0.0000
  0
LINE
  8
27
 10
-0.3006
 20
8.7615
 30
0.0000
 11
-0.1397
 21
8.4934
 31
0.0000
  0
LINE
  8
27
 10
-0.1397
 20
8.4934
 30
0.0000
 11
0.0212
 21
8.7615
 31
0.0000
  0
LINE
  8
27
 10
0.0212
 20
8.7615
 30
0.0000
 11
0.0212
 21
8.2789
 31
0.0000
  0
LINE
  8
27
 10
0.3298
 20
8.4130
 30
0.0000
 11
0.3298
 21
8.6274
 31
0.0000
  0
ARC
  8
27
 10
0.4638
 20
8.6274
 30
0.0000
 40
0.1341
 50
0.0000
 51
180.0000
  0
LINE
  8
27
 10
0.5979
 20
8.6274
 30
0.0000
 11
0.5979
 21
8.4130
 31
0.0000
  0
ARC
  8
27
 10
0.4638
 20
8.4130
 30
0.0000
 40
0.1341
 50
180.0000
 51
0.0000
  0
LINE
  8
27
 10
0.9065
 20
8.2789
 30
0.0000
 11
0.9065
 21
8.7615
 31
0.0000
  0
LINE
  8
27
 10
0.9065
 20
8.7615
 30
0.0000
 11
1.0673
 21
8.4934
 31
0.0000
  0
LINE
  8
27
 10
1.0673
 20
8.4934
 30
0.0000
 11
1.2282
 21
8.7615
 31
0.0000
  0
LINE
  8
27
 10
1.2282
 20
8.7615
 30
0.0000
 11
1.2282
 21
8.2789
 31
0.0000
  0
LINE
  8
27
 10
1.7715
 20
8.2789
 30
0.0000
 11
1.5570
 21
8.2789
 31
0.0000
  0
LINE
  8
27
 10
1.5570
 20
8.2789
 30
0.0000
 11
1.5570
 21
8.7615
 31
0.0000
  0
LINE
  8
27
 10
1.5570
 20
8.7615
 30
0.0000
 11
1.7715
 21
8.7615
 31
0.0000
  0
LINE
  8
27
 10
1.5570
 20
8.5470
 30
0.0000
 11
1.7179
 21
8.5470
 31
0.0000
  0
LINE
  8
27
 10
2.0305
 20
8.2789
 30
0.0000
 11
2.0305
 21
8.7615
 31
0.0000
  0
LINE
  8
27
 10
2.0305
 20
8.7615
 30
0.0000
 11
2.2986
 21
8.2789
 31
0.0000
  0
LINE
  8
27
 10
2.2986
 20
8.2789
 30
0.0000
 11
2.2986
 21
8.7615
 31
0.0000
  0
LINE
  8
27
 10
2.6949
 20
8.2789
 30
0.0000
 11
2.6949
 21
8.7615
 31
0.0000
  0
LINE
  8
27
 10
2.5609
 20
8.7615
 30
0.0000
 11
2.8290
 21
8.7615
 31
0.0000
  0
LINE
  8
27
 10
3.0461
 20
8.2789
 30
0.0000
 11
3.2070
 21
8.7615
 31
0.0000
  0
LINE
  8
27
 10
3.2070
 20
8.7615
 30
0.0000
 11
3.3679
 21
8.2789
 31
0.0000
  0
LINE
  8
27
 10
3.3277
 20
8.3995
 30
0.0000
 11
3.0863
 21
8.3995
 31
0.0000
  0
LINE
  8
27
 10
3.6462
 20
8.2789
 30
0.0000
 11
3.6462
 21
8.7615
 31
0.0000
  0
LINE
  8
27
 10
3.6462
 20
8.7615
 30
0.0000
 11
3.7803
 21
8.7615
 31
0.0000
  0
ARC
  8
27
 10
3.7803
 20
8.6274
 30
0.0000
 40
0.1341
 50
270.0000
 51
90.0000
  0
LINE
  8
27
 10
3.7803
 20
8.4934
 30
0.0000
 11
3.6462
 21
8.4934
 31
0.0000
  0
LINE
  8
27
 10
3.9144
 20
8.2789
 30
0.0000
 11
3.8071
 21
8.4934
 31
0.0000
  0
LINE
  8
27
 10
4.1617
 20
8.7615
 30
0.0000
 11
4.3226
 21
8.5336
 31
0.0000
  0
LINE
  8
27
 10
4.3226
 20
8.5336
 30
0.0000
 11
4.4834
 21
8.7615
 31
0.0000
  0
LINE
  8
27
 10
4.3226
 20
8.2789
 30
0.0000
 11
4.3226
 21
8.5336
 31
0.0000
  0
LINE
  8
27
 10
4.7469
 20
8.4666
 30
0.0000
 11
5.0686
 21
8.4666
 31
0.0000
  0
ARC
  8
27
 10
5.5015
 20
8.3861
 30
0.0000
 40
0.1072
 50
270.0000
 51
0.0000
  0
ARC
  8
27
 10
5.5015
 20
8.5055
 30
0.0000
 40
0.2266
 50
224.7621
 51
269.9996
  0
ARC
  8
27
 10
5.4613
 20
8.6543
 30
0.0000
 40
0.1072
 50
89.9983
 51
180.0000
  0
ARC
  8
27
 10
5.4613
 20
8.5604
 30
0.0000
 40
0.2011
 50
53.1301
 51
89.9982
  0
ARC
  8
27
 10
5.4630
 20
8.6543
 30
0.0000
 40
0.1089
 50
179.9994
 51
239.4907
  0
ARC
  8
27
 10
5.4998
 20
8.3861
 30
0.0000
 40
0.1089
 50
0.0002
 51
59.4900
  0
LINE
  8
27
 10
5.5551
 20
8.4800
 30
0.0000
 11
5.4077
 21
8.5604
 31
0.0000
  0
LINE
  8
27
 10
5.8637
 20
8.7615
 30
0.0000
 11
5.9710
 21
8.2789
 31
0.0000
  0
LINE
  8
27
 10
5.9710
 20
8.2789
 30
0.0000
 11
6.0782
 21
8.6006
 31
0.0000
  0
LINE
  8
27
 10
6.0782
 20
8.6006
 30
0.0000
 11
6.1854
 21
8.2789
 31
0.0000
  0
LINE
  8
27
 10
6.1854
 20
8.2789
 30
0.0000
 11
6.2927
 21
8.7615
 31
0.0000
  0
LINE
  8
27
 10
6.5903
 20
8.7615
 30
0.0000
 11
6.5903
 21
8.2789
 31
0.0000
  0
LINE
  8
27
 10
6.5366
 20
8.2789
 30
0.0000
 11
6.6439
 21
8.2789
 31
0.0000
  0
LINE
  8
27
 10
6.5366
 20
8.7615
 30
0.0000
 11
6.6439
 21
8.7615
 31
0.0000
  0
LINE
  8
27
 10
6.9926
 20
8.2789
 30
0.0000
 11
6.9926
 21
8.7615
 31
0.0000
  0
LINE
  8
27
 10
6.8585
 20
8.7615
 30
0.0000
 11
7.1267
 21
8.7615
 31
0.0000
  0
LINE
  8
27
 10
7.5822
 20
8.2789
 30
0.0000
 11
7.4750
 21
8.2789
 31
0.0000
  0
ARC
  8
27
 10
7.4750
 20
8.3861
 30
0.0000
 40
0.1072
 50
180.0000
 51
270.0000
  0
LINE
  8
27
 10
7.3677
 20
8.3861
 30
0.0000
 11
7.3677
 21
8.6543
 31
0.0000
  0
ARC
  8
27
 10
7.4750
 20
8.6543
 30
0.0000
 40
0.1072
 50
90.0017
 51
180.0000
  0
LINE
  8
27
 10
7.4750
 20
8.7615
 30
0.0000
 11
7.5822
 21
8.7615
 31
0.0000
  0
LINE
  8
27
 10
7.8461
 20
8.2789
 30
0.0000
 11
7.8461
 21
8.7615
 31
0.0000
  0
LINE
  8
27
 10
7.8461
 20
8.5470
 30
0.0000
 11
8.1142
 21
8.5470
 31
0.0000
  0
LINE
  8
27
 10
8.1142
 20
8.7615
 30
0.0000
 11
8.1142
 21
8.2789
 31
0.0000
  0
LINE
  8
27
 10
8.4228
 20
8.4666
 30
0.0000
 11
8.7445
 21
8.4666
 31
0.0000
  0
ARC
  8
27
 10
9.1774
 20
8.3861
 30
0.0000
 40
0.1072
 50
270.0000
 51
0.0000
  0
ARC
  8
27
 10
9.1774
 20
8.5055
 30
0.0000
 40
0.2266
 50
224.7621
 51
269.9996
  0
ARC
  8
27
 10
9.1372
 20
8.6543
 30
0.0000
 40
0.1072
 50
89.9983
 51
180.0000
  0
ARC
  8
27
 10
9.1372
 20
8.5604
 30
0.0000
 40
0.2011
 50
53.1301
 51
89.9982
  0
ARC
  8
27
 10
9.1388
 20
8.6543
 30
0.0000
 40
0.1089
 50
179.9994
 51
239.4907
  0
ARC
  8
27
 10
9.1757
 20
8.3861
 30
0.0000
 40
0.1089
 50
0.0002
 51
59.4900
  0
LINE
  8
27
 10
9.2310
 20
8.4800
 30
0.0000
 11
9.0835
 21
8.5604
 31
0.0000
  0
LINE
  8
27
 10
9.5798
 20
8.2789
 30
0.0000
 11
9.5798
 21
8.7615
 31
0.0000
  0
LINE
  8
27
 10
9.5798
 20
8.7615
 30
0.0000
 11
9.7139
 21
8.7615
 31
0.0000
  0
ARC
  8
27
 10
9.7139
 20
8.6274
 30
0.0000
 40
0.1341
 50
270.0000
 51
90.0000
  0
LINE
  8
27
 10
9.7139
 20
8.4934
 30
0.0000
 11
9.5798
 21
8.4934
 31
0.0000
  0
ARC
  8
27
 10
10.2381
 20
8.3861
 30
0.0000
 40
0.1072
 50
270.0000
 51
0.0000
  0
ARC
  8
27
 10
10.2381
 20
8.5055
 30
0.0000
 40
0.2266
 50
224.7621
 51
269.9996
  0
ARC
  8
27
 10
10.1979
 20
8.6543
 30
0.0000
 40
0.1072
 50
89.9983
 51
180.0000
  0
ARC
  8
27
 10
10.1979
 20
8.5604
 30
0.0000
 40
0.2011
 50
53.1301
 51
89.9982
  0
ARC
  8
27
 10
10.1995
 20
8.6543
 30
0.0000
 40
0.1089
 50
179.9994
 51
239.4907
  0
ARC
  8
27
 10
10.2364
 20
8.3861
 30
0.0000
 40
0.1089
 50
0.0002
 51
59.4900
  0
LINE
  8
27
 10
10.2917
 20
8.4800
 30
0.0000
 11
10.1442
 21
8.5604
 31
0.0000
  0
LINE
  8
27
 10
10.7050
 20
8.2789
 30
0.0000
 11
10.7050
 21
8.7615
 31
0.0000
  0
LINE
  8
27
 10
10.5710
 20
8.7615
 30
0.0000
 11
10.8391
 21
8.7615
 31
0.0000
  0
LINE
  8
27
 10
11.0928
 20
8.4666
 30
0.0000
 11
11.4145
 21
8.4666
 31
0.0000
  0
LINE
  8
27
 10
11.7378
 20
8.2789
 30
0.0000
 11
11.7378
 21
8.7615
 31
0.0000
  0
LINE
  8
27
 10
11.7378
 20
8.7615
 30
0.0000
 11
11.8718
 21
8.7615
 31
0.0000
  0
ARC
  8
27
 10
11.8718
 20
8.6274
 30
0.0000
 40
0.1341
 50
270.0000
 51
90.0000
  0
LINE
  8
27
 10
11.8718
 20
8.4934
 30
0.0000
 11
11.7378
 21
8.4934
 31
0.0000
  0
LINE
  8
27
 10
12.3509
 20
8.2789
 30
0.0000
 11
12.3509
 21
8.7615
 31
0.0000
  0
LINE
  8
27
 10
12.2169
 20
8.7615
 30
0.0000
 11
12.4850
 21
8.7615
 31
0.0000
  0
LINE
  8
27
 10
12.7472
 20
8.2789
 30
0.0000
 11
12.7472
 21
8.7615
 31
0.0000
  0
LINE
  8
27
 10
12.7472
 20
8.5470
 30
0.0000
 11
13.0153
 21
8.5470
 31
0.0000
  0
LINE
  8
27
 10
13.0153
 20
8.7615
 30
0.0000
 11
13.0153
 21
8.2789
 31
0.0000
  0
LINE
  8
27
 10
13.3239
 20
8.4666
 30
0.0000
 11
13.6457
 21
8.4666
 31
0.0000
  0
LINE
  8
27
 10
13.9360
 20
8.5470
 30
0.0000
 11
14.0968
 21
8.5470
 31
0.0000
  0
ARC
  8
27
 10
14.0968
 20
8.4398
 30
0.0000
 40
0.1072
 50
0.0000
 51
90.0000
  0
LINE
  8
27
 10
14.2041
 20
8.4398
 30
0.0000
 11
14.2041
 21
8.4130
 31
0.0000
  0
ARC
  8
27
 10
14.0700
 20
8.4130
 30
0.0000
 40
0.1341
 50
180.0000
 51
0.0000
  0
LINE
  8
27
 10
13.9360
 20
8.4130
 30
0.0000
 11
13.9360
 21
8.5470
 31
0.0000
  0
ARC
  8
27
 10
14.1504
 20
8.5470
 30
0.0000
 40
0.2145
 50
90.0008
 51
180.0000
  0
LINE
  8
27
 10
14.4406
 20
8.2789
 30
0.0000
 11
14.4406
 21
8.3057
 31
0.0000
  0
LINE
  8
27
 10
14.4406
 20
8.3057
 30
0.0000
 11
14.4675
 21
8.3057
 31
0.0000
  0
LINE
  8
27
 10
14.4675
 20
8.3057
 30
0.0000
 11
14.4675
 21
8.2789
 31
0.0000
  0
LINE
  8
27
 10
14.4675
 20
8.2789
 30
0.0000
 11
14.4406
 21
8.2789
 31
0.0000
  0
ARC
  8
27
 10
15.1017
 20
8.5202
 30
0.0000
 40
0.3977
 50
154.0111
 51
180.0003
  0
ARC
  8
27
 10
14.8381
 20
8.6623
 30
0.0000
 40
0.0992
 50
90.0003
 51
161.0762
  0
ARC
  8
27
 10
14.8381
 20
8.6623
 30
0.0000
 40
0.0992
 50
18.9253
 51
90.0001
  0
ARC
  8
27
 10
14.5745
 20
8.5202
 30
0.0000
 40
0.3977
 50
359.9998
 51
25.9888
  0
ARC
  8
27
 10
15.1018
 20
8.5202
 30
0.0000
 40
0.3977
 50
180.0000
 51
205.9882
  0
ARC
  8
27
 10
14.8381
 20
8.3781
 30
0.0000
 40
0.0992
 50
198.9260
 51
270.0001
  0
ARC
  8
27
 10
14.5744
 20
8.5202
 30
0.0000
 40
0.3977
 50
334.0119
 51
359.9999
  0
ARC
  8
27
 10
14.8381
 20
8.3781
 30
0.0000
 40
0.0992
 50
269.9995
 51
341.0726
  0
LINE
  8
27
 10
14.7309
 20
8.3861
 30
0.0000
 11
14.9453
 21
8.6543
 31
0.0000
  0
LINE
  8
27
 10
15.2807
 20
8.2789
 30
0.0000
 11
15.2807
 21
8.7615
 31
0.0000
  0
LINE
  8
27
 10
15.2807
 20
8.7615
 30
0.0000
 11
15.4416
 21
8.4934
 31
0.0000
  0
LINE
  8
27
 10
15.4416
 20
8.4934
 30
0.0000
 11
15.6025
 21
8.7615
 31
0.0000
  0
LINE
  8
27
 10
15.6025
 20
8.7615
 30
0.0000
 11
15.6025
 21
8.2789
 31
0.0000
  0
LINE
  8
27
 10
15.9391
 20
8.2789
 30
0.0000
 11
15.9391
 21
8.7615
 31
0.0000
  0
LINE
  8
27
 10
15.9391
 20
8.7615
 30
0.0000
 11
16.1000
 21
8.4934
 31
0.0000
  0
LINE
  8
27
 10
16.1000
 20
8.4934
 30
0.0000
 11
16.2608
 21
8.7615
 31
0.0000
  0
LINE
  8
27
 10
16.2608
 20
8.7615
 30
0.0000
 11
16.2608
 21
8.2789
 31
0.0000
  0
LINE
  8
27
 10
16.5792
 20
8.4666
 30
0.0000
 11
16.9009
 21
8.4666
 31
0.0000
  0
LINE
  8
27
 10
17.2241
 20
8.2789
 30
0.0000
 11
17.2241
 21
8.7615
 31
0.0000
  0
LINE
  8
27
 10
17.4922
 20
8.7615
 30
0.0000
 11
17.2241
 21
8.4666
 31
0.0000
  0
LINE
  8
27
 10
17.4922
 20
8.2789
 30
0.0000
 11
17.3314
 21
8.5738
 31
0.0000
  0
LINE
  8
27
 10
17.7642
 20
8.7615
 30
0.0000
 11
17.7642
 21
8.2789
 31
0.0000
  0
LINE
  8
27
 10
17.7105
 20
8.2789
 30
0.0000
 11
17.8178
 21
8.2789
 31
0.0000
  0
LINE
  8
27
 10
17.7105
 20
8.7615
 30
0.0000
 11
17.8178
 21
8.7615
 31
0.0000
  0
LINE
  8
27
 10
18.1665
 20
8.2789
 30
0.0000
 11
18.1665
 21
8.7615
 31
0.0000
  0
LINE
  8
27
 10
18.0324
 20
8.7615
 30
0.0000
 11
18.3006
 21
8.7615
 31
0.0000
  0
POINT
  8
23
 10
9.0000
 20
32.3200
 30
0.0000
  0
LINE
  8
51
 10
12.0480
 20
33.3360
 30
0.0000
 11
12.0480
 21
34.8600
 31
0.0000
  0
LINE
  8
51
 10
12.0480
 20
34.8600
 30
0.0000
 11
11.5400
 21
35.3680
 31
0.0000
  0
LINE
  8
51
 10
11.5400
 20
29.2720
 30
0.0000
 11
12.0480
 21
29.7800
 31
0.0000
  0
LINE
  8
51
 10
12.0480
 20
29.7800
 30
0.0000
 11
12.0480
 21
31.3040
 31
0.0000
  0
LINE
  8
51
 10
6.4600
 20
35.3680
 30
0.0000
 11
5.9520
 21
34.8600
 31
0.0000
  0
LINE
  8
51
 10
5.9520
 20
34.8600
 30
0.0000
 11
5.9520
 21
33.3360
 31
0.0000
  0
LINE
  8
51
 10
6.4600
 20
29.2720
 30
0.0000
 11
5.9520
 21
29.7800
 31
0.0000
  0
LINE
  8
51
 10
5.9520
 20
29.7800
 30
0.0000
 11
5.9520
 21
31.3040
 31
0.0000
  0
LINE
  8
51
 10
11.5400
 20
29.2720
 30
0.0000
 11
11.1590
 21
29.2720
 31
0.0000
  0
LINE
  8
51
 10
6.4600
 20
29.2720
 30
0.0000
 11
6.8410
 21
29.2720
 31
0.0000
  0
LINE
  8
51
 10
6.4600
 20
35.3680
 30
0.0000
 11
6.8410
 21
35.3680
 31
0.0000
  0
LINE
  8
51
 10
11.5400
 20
35.3680
 30
0.0000
 11
11.1590
 21
35.3680
 31
0.0000
  0
LINE
  8
21
 10
11.1590
 20
35.3680
 30
0.0000
 11
6.8410
 21
35.3680
 31
0.0000
  0
LINE
  8
21
 10
6.8410
 20
29.2720
 30
0.0000
 11
11.1590
 21
29.2720
 31
0.0000
  0
LINE
  8
21
 10
12.0480
 20
33.3180
 30
0.0000
 11
12.0480
 21
31.3040
 31
0.0000
  0
LINE
  8
21
 10
5.9520
 20
33.3480
 30
0.0000
 11
5.9520
 21
31.3040
 31
0.0000
  0
LINE
  8
51
 10
6.4600
 20
33.5900
 30
0.0000
 11
6.4600
 21
32.8280
 31
0.0000
  0
LINE
  8
51
 10
6.4600
 20
31.8120
 30
0.0000
 11
6.4600
 21
31.0500
 31
0.0000
  0
LINE
  8
51
 10
6.4600
 20
32.8280
 30
0.0000
 11
6.8410
 21
31.9390
 31
0.0000
  0
CIRCLE
  8
21
 10
9.0000
 20
32.3200
 30
0.0000
 40
1.7780
  0
INSERT
  8
17
  2
ROUNDP
 10
5.7488
 20
34.5806
 30
0.0000
 41
1.8796
 42
1.8796
 43
1.0000
 50
0.0000
  0
INSERT
  8
17
  2
ROUNDP
 10
5.7488
 20
34.5806
 30
0.0000
 41
1.8796
 42
1.8796
 43
1.0000
 50
0.0000
  0
INSERT
  8
17
  2
ROUNDP
 10
12.2512
 20
34.5806
 30
0.0000
 41
1.8796
 42
1.8796
 43
1.0000
 50
0.0000
  0
INSERT
  8
17
  2
ROUNDP
 10
12.2512
 20
34.5806
 30
0.0000
 41
1.8796
 42
1.8796
 43
1.0000
 50
0.0000
  0
INSERT
  8
17
  2
ROUNDP
 10
5.7488
 20
30.0594
 30
0.0000
 41
1.8796
 42
1.8796
 43
1.0000
 50
0.0000
  0
INSERT
  8
17
  2
ROUNDP
 10
5.7488
 20
30.0594
 30
0.0000
 41
1.8796
 42
1.8796
 43
1.0000
 50
0.0000
  0
INSERT
  8
17
  2
ROUNDP
 10
12.2512
 20
30.0594
 30
0.0000
 41
1.8796
 42
1.8796
 43
1.0000
 50
0.0000
  0
INSERT
  8
17
  2
ROUNDP
 10
12.2512
 20
30.0594
 30
0.0000
 41
1.8796
 42
1.8796
 43
1.0000
 50
0.0000
  0
ARC
  8
25
 10
8.7616
 20
35.6657
 30
0.0000
 40
0.1072
 50
270.0000
 51
0.0000
  0
ARC
  8
25
 10
8.7616
 20
35.7851
 30
0.0000
 40
0.2266
 50
224.7621
 51
269.9996
  0
ARC
  8
25
 10
8.7214
 20
35.9339
 30
0.0000
 40
0.1072
 50
89.9983
 51
180.0000
  0
ARC
  8
25
 10
8.7214
 20
35.8400
 30
0.0000
 40
0.2011
 50
53.1301
 51
89.9982
  0
ARC
  8
25
 10
8.7231
 20
35.9339
 30
0.0000
 40
0.1089
 50
179.9994
 51
239.4907
  0
ARC
  8
25
 10
8.7600
 20
35.6657
 30
0.0000
 40
0.1089
 50
0.0002
 51
59.4900
  0
LINE
  8
25
 10
8.8153
 20
35.7596
 30
0.0000
 11
8.6678
 21
35.8400
 31
0.0000
  0
ARC
  8
25
 10
9.2786
 20
35.9204
 30
0.0000
 40
0.1207
 50
0.0000
 51
90.0000
  0
ARC
  8
25
 10
9.2786
 20
35.8861
 30
0.0000
 40
0.1550
 50
90.0003
 51
162.0552
  0
ARC
  8
25
 10
9.2696
 20
35.9204
 30
0.0000
 40
0.1296
 50
313.6035
 51
359.9998
  0
LINE
  8
25
 10
9.3590
 20
35.8266
 30
0.0000
 11
9.1311
 21
35.5585
 31
0.0000
  0
LINE
  8
25
 10
9.1311
 20
35.5585
 30
0.0000
 11
9.3992
 21
35.5585
 31
0.0000
  0
LINE
  8
27
 10
-0.3006
 20
28.5989
 30
0.0000
 11
-0.3006
 21
29.0815
 31
0.0000
  0
LINE
  8
27
 10
-0.3006
 20
29.0815
 30
0.0000
 11
-0.1397
 21
28.8134
 31
0.0000
  0
LINE
  8
27
 10
-0.1397
 20
28.8134
 30
0.0000
 11
0.0212
 21
29.0815
 31
0.0000
  0
LINE
  8
27
 10
0.0212
 20
29.0815
 30
0.0000
 11
0.0212
 21
28.5989
 31
0.0000
  0
LINE
  8
27
 10
0.3298
 20
28.7330
 30
0.0000
 11
0.3298
 21
28.9474
 31
0.0000
  0
ARC
  8
27
 10
0.4638
 20
28.9474
 30
0.0000
 40
0.1341
 50
0.0000
 51
180.0000
  0
LINE
  8
27
 10
0.5979
 20
28.9474
 30
0.0000
 11
0.5979
 21
28.7330
 31
0.0000
  0
ARC
  8
27
 10
0.4638
 20
28.7330
 30
0.0000
 40
0.1341
 50
180.0000
 51
0.0000
  0
LINE
  8
27
 10
0.9065
 20
28.5989
 30
0.0000
 11
0.9065
 21
29.0815
 31
0.0000
  0
LINE
  8
27
 10
0.9065
 20
29.0815
 30
0.0000
 11
1.0673
 21
28.8134
 31
0.0000
  0
LINE
  8
27
 10
1.0673
 20
28.8134
 30
0.0000
 11
1.2282
 21
29.0815
 31
0.0000
  0
LINE
  8
27
 10
1.2282
 20
29.0815
 30
0.0000
 11
1.2282
 21
28.5989
 31
0.0000
  0
LINE
  8
27
 10
1.7715
 20
28.5989
 30
0.0000
 11
1.5570
 21
28.5989
 31
0.0000
  0
LINE
  8
27
 10
1.5570
 20
28.5989
 30
0.0000
 11
1.5570
 21
29.0815
 31
0.0000
  0
LINE
  8
27
 10
1.5570
 20
29.0815
 30
0.0000
 11
1.7715
 21
29.0815
 31
0.0000
  0
LINE
  8
27
 10
1.5570
 20
28.8670
 30
0.0000
 11
1.7179
 21
28.8670
 31
0.0000
  0
LINE
  8
27
 10
2.0305
 20
28.5989
 30
0.0000
 11
2.0305
 21
29.0815
 31
0.0000
  0
LINE
  8
27
 10
2.0305
 20
29.0815
 30
0.0000
 11
2.2986
 21
28.5989
 31
0.0000
  0
LINE
  8
27
 10
2.2986
 20
28.5989
 30
0.0000
 11
2.2986
 21
29.0815
 31
0.0000
  0
LINE
  8
27
 10
2.6949
 20
28.5989
 30
0.0000
 11
2.6949
 21
29.0815
 31
0.0000
  0
LINE
  8
27
 10
2.5609
 20
29.0815
 30
0.0000
 11
2.8290
 21
29.0815
 31
0.0000
  0
LINE
  8
27
 10
3.0461
 20
28.5989
 30
0.0000
 11
3.2070
 21
29.0815
 31
0.0000
  0
LINE
  8
27
 10
3.2070
 20
29.0815
 30
0.0000
 11
3.3679
 21
28.5989
 31
0.0000
  0
LINE
  8
27
 10
3.3277
 20
28.7196
 30
0.0000
 11
3.0863
 21
28.7196
 31
0.0000
  0
LINE
  8
27
 10
3.6462
 20
28.5989
 30
0.0000
 11
3.6462
 21
29.0815
 31
0.0000
  0
LINE
  8
27
 10
3.6462
 20
29.0815
 30
0.0000
 11
3.7803
 21
29.0815
 31
0.0000
  0
ARC
  8
27
 10
3.7803
 20
28.9474
 30
0.0000
 40
0.1341
 50
270.0000
 51
90.0000
  0
LINE
  8
27
 10
3.7803
 20
28.8134
 30
0.0000
 11
3.6462
 21
28.8134
 31
0.0000
  0
LINE
  8
27
 10
3.9144
 20
28.5989
 30
0.0000
 11
3.8071
 21
28.8134
 31
0.0000
  0
LINE
  8
27
 10
4.1617
 20
29.0815
 30
0.0000
 11
4.3226
 21
28.8536
 31
0.0000
  0
LINE
  8
27
 10
4.3226
 20
28.8536
 30
0.0000
 11
4.4834
 21
29.0815
 31
0.0000
  0
LINE
  8
27
 10
4.3226
 20
28.5989
 30
0.0000
 11
4.3226
 21
28.8536
 31
0.0000
  0
LINE
  8
27
 10
4.7469
 20
28.7866
 30
0.0000
 11
5.0686
 21
28.7866
 31
0.0000
  0
ARC
  8
27
 10
5.5015
 20
28.7061
 30
0.0000
 40
0.1072
 50
270.0000
 51
0.0000
  0
ARC
  8
27
 10
5.5015
 20
28.8255
 30
0.0000
 40
0.2266
 50
224.7621
 51
269.9996
  0
ARC
  8
27
 10
5.4613
 20
28.9743
 30
0.0000
 40
0.1072
 50
89.9983
 51
180.0000
  0
ARC
  8
27
 10
5.4613
 20
28.8804
 30
0.0000
 40
0.2011
 50
53.1301
 51
89.9982
  0
ARC
  8
27
 10
5.4630
 20
28.9743
 30
0.0000
 40
0.1089
 50
179.9994
 51
239.4907
  0
ARC
  8
27
 10
5.4998
 20
28.7061
 30
0.0000
 40
0.1089
 50
0.0002
 51
59.4900
  0
LINE
  8
27
 10
5.5551
 20
28.8000
 30
0.0000
 11
5.4077
 21
28.8804
 31
0.0000
  0
LINE
  8
27
 10
5.8637
 20
29.0815
 30
0.0000
 11
5.9710
 21
28.5989
 31
0.0000
  0
LINE
  8
27
 10
5.9710
 20
28.5989
 30
0.0000
 11
6.0782
 21
28.9206
 31
0.0000
  0
LINE
  8
27
 10
6.0782
 20
28.9206
 30
0.0000
 11
6.1854
 21
28.5989
 31
0.0000
  0
LINE
  8
27
 10
6.1854
 20
28.5989
 30
0.0000
 11
6.2927
 21
29.0815
 31
0.0000
  0
LINE
  8
27
 10
6.5903
 20
29.0815
 30
0.0000
 11
6.5903
 21
28.5989
 31
0.0000
  0
LINE
  8
27
 10
6.5366
 20
28.5989
 30
0.0000
 11
6.6439
 21
28.5989
 31
0.0000
  0
LINE
  8
27
 10
6.5366
 20
29.0815
 30
0.0000
 11
6.6439
 21
29.0815
 31
0.0000
  0
LINE
  8
27
 10
6.9926
 20
28.5989
 30
0.0000
 11
6.9926
 21
29.0815
 31
0.0000
  0
LINE
  8
27
 10
6.8585
 20
29.0815
 30
0.0000
 11
7.1267
 21
29.0815
 31
0.0000
  0
LINE
  8
27
 10
7.5822
 20
28.5989
 30
0.0000
 11
7.4750
 21
28.5989
 31
0.0000
  0
ARC
  8
27
 10
7.4750
 20
28.7061
 30
0.0000
 40
0.1072
 50
180.0000
 51
270.0000
  0
LINE
  8
27
 10
7.3677
 20
28.7061
 30
0.0000
 11
7.3677
 21
28.9743
 31
0.0000
  0
ARC
  8
27
 10
7.4750
 20
28.9743
 30
0.0000
 40
0.1072
 50
90.0017
 51
180.0000
  0
LINE
  8
27
 10
7.4750
 20
29.0815
 30
0.0000
 11
7.5822
 21
29.0815
 31
0.0000
  0
LINE
  8
27
 10
7.8461
 20
28.5989
 30
0.0000
 11
7.8461
 21
29.0815
 31
0.0000
  0
LINE
  8
27
 10
7.8461
 20
28.8670
 30
0.0000
 11
8.1142
 21
28.8670
 31
0.0000
  0
LINE
  8
27
 10
8.1142
 20
29.0815
 30
0.0000
 11
8.1142
 21
28.5989
 31
0.0000
  0
LINE
  8
27
 10
8.4228
 20
28.7866
 30
0.0000
 11
8.7445
 21
28.7866
 31
0.0000
  0
ARC
  8
27
 10
9.1774
 20
28.7061
 30
0.0000
 40
0.1072
 50
270.0000
 51
0.0000
  0
ARC
  8
27
 10
9.1774
 20
28.8255
 30
0.0000
 40
0.2266
 50
224.7621
 51
269.9996
  0
ARC
  8
27
 10
9.1372
 20
28.9743
 30
0.0000
 40
0.1072
 50
89.9983
 51
180.0000
  0
ARC
  8
27
 10
9.1372
 20
28.8804
 30
0.0000
 40
0.2011
 50
53.1301
 51
89.9982
  0
ARC
  8
27
 10
9.1388
 20
28.9743
 30
0.0000
 40
0.1089
 50
179.9994
 51
239.4907
  0
ARC
  8
27
 10
9.1757
 20
28.7061
 30
0.0000
 40
0.1089
 50
0.0002
 51
59.4900
  0
LINE
  8
27
 10
9.2310
 20
28.8000
 30
0.0000
 11
9.0835
 21
28.8804
 31
0.0000
  0
LINE
  8
27
 10
9.5798
 20
28.5989
 30
0.0000
 11
9.5798
 21
29.0815
 31
0.0000
  0
LINE
  8
27
 10
9.5798
 20
29.0815
 30
0.0000
 11
9.7139
 21
29.0815
 31
0.0000
  0
ARC
  8
27
 10
9.7139
 20
28.9474
 30
0.0000
 40
0.1341
 50
270.0000
 51
90.0000
  0
LINE
  8
27
 10
9.7139
 20
28.8134
 30
0.0000
 11
9.5798
 21
28.8134
 31
0.0000
  0
ARC
  8
27
 10
10.2381
 20
28.7061
 30
0.0000
 40
0.1072
 50
270.0000
 51
0.0000
  0
ARC
  8
27
 10
10.2381
 20
28.8255
 30
0.0000
 40
0.2266
 50
224.7621
 51
269.9996
  0
ARC
  8
27
 10
10.1979
 20
28.9743
 30
0.0000
 40
0.1072
 50
89.9983
 51
180.0000
  0
ARC
  8
27
 10
10.1979
 20
28.8804
 30
0.0000
 40
0.2011
 50
53.1301
 51
89.9982
  0
ARC
  8
27
 10
10.1995
 20
28.9743
 30
0.0000
 40
0.1089
 50
179.9994
 51
239.4907
  0
ARC
  8
27
 10
10.2364
 20
28.7061
 30
0.0000
 40
0.1089
 50
0.0002
 51
59.4900
  0
LINE
  8
27
 10
10.2917
 20
28.8000
 30
0.0000
 11
10.1442
 21
28.8804
 31
0.0000
  0
LINE
  8
27
 10
10.7050
 20
28.5989
 30
0.0000
 11
10.7050
 21
29.0815
 31
0.0000
  0
LINE
  8
27
 10
10.5710
 20
29.0815
 30
0.0000
 11
10.8391
 21
29.0815
 31
0.0000
  0
LINE
  8
27
 10
11.0928
 20
28.7866
 30
0.0000
 11
11.4145
 21
28.7866
 31
0.0000
  0
LINE
  8
27
 10
11.7378
 20
28.5989
 30
0.0000
 11
11.7378
 21
29.0815
 31
0.0000
  0
LINE
  8
27
 10
11.7378
 20
29.0815
 30
0.0000
 11
11.8718
 21
29.0815
 31
0.0000
  0
ARC
  8
27
 10
11.8718
 20
28.9474
 30
0.0000
 40
0.1341
 50
270.0000
 51
90.0000
  0
LINE
  8
27
 10
11.8718
 20
28.8134
 30
0.0000
 11
11.7378
 21
28.8134
 31
0.0000
  0
LINE
  8
27
 10
12.3509
 20
28.5989
 30
0.0000
 11
12.3509
 21
29.0815
 31
0.0000
  0
LINE
  8
27
 10
12.2169
 20
29.0815
 30
0.0000
 11
12.4850
 21
29.0815
 31
0.0000
  0
LINE
  8
27
 10
12.7472
 20
28.5989
 30
0.0000
 11
12.7472
 21
29.0815
 31
0.0000
  0
LINE
  8
27
 10
12.7472
 20
28.8670
 30
0.0000
 11
13.0153
 21
28.8670
 31
0.0000
  0
LINE
  8
27
 10
13.0153
 20
29.0815
 30
0.0000
 11
13.0153
 21
28.5989
 31
0.0000
  0
LINE
  8
27
 10
13.3239
 20
28.7866
 30
0.0000
 11
13.6457
 21
28.7866
 31
0.0000
  0
LINE
  8
27
 10
13.9360
 20
28.8670
 30
0.0000
 11
14.0968
 21
28.8670
 31
0.0000
  0
ARC
  8
27
 10
14.0968
 20
28.7598
 30
0.0000
 40
0.1072
 50
0.0000
 51
90.0000
  0
LINE
  8
27
 10
14.2041
 20
28.7598
 30
0.0000
 11
14.2041
 21
28.7330
 31
0.0000
  0
ARC
  8
27
 10
14.0700
 20
28.7330
 30
0.0000
 40
0.1341
 50
180.0000
 51
0.0000
  0
LINE
  8
27
 10
13.9360
 20
28.7330
 30
0.0000
 11
13.9360
 21
28.8670
 31
0.0000
  0
ARC
  8
27
 10
14.1504
 20
28.8670
 30
0.0000
 40
0.2145
 50
90.0008
 51
180.0000
  0
LINE
  8
27
 10
14.4406
 20
28.5989
 30
0.0000
 11
14.4406
 21
28.6257
 31
0.0000
  0
LINE
  8
27
 10
14.4406
 20
28.6257
 30
0.0000
 11
14.4675
 21
28.6257
 31
0.0000
  0
LINE
  8
27
 10
14.4675
 20
28.6257
 30
0.0000
 11
14.4675
 21
28.5989
 31
0.0000
  0
LINE
  8
27
 10
14.4675
 20
28.5989
 30
0.0000
 11
14.4406
 21
28.5989
 31
0.0000
  0
ARC
  8
27
 10
15.1017
 20
28.8402
 30
0.0000
 40
0.3977
 50
154.0111
 51
180.0003
  0
ARC
  8
27
 10
14.8381
 20
28.9823
 30
0.0000
 40
0.0992
 50
90.0003
 51
161.0762
  0
ARC
  8
27
 10
14.8381
 20
28.9823
 30
0.0000
 40
0.0992
 50
18.9253
 51
90.0001
  0
ARC
  8
27
 10
14.5745
 20
28.8402
 30
0.0000
 40
0.3977
 50
359.9998
 51
25.9888
  0
ARC
  8
27
 10
15.1018
 20
28.8402
 30
0.0000
 40
0.3977
 50
180.0000
 51
205.9882
  0
ARC
  8
27
 10
14.8381
 20
28.6981
 30
0.0000
 40
0.0992
 50
198.9260
 51
270.0001
  0
ARC
  8
27
 10
14.5744
 20
28.8402
 30
0.0000
 40
0.3977
 50
334.0119
 51
359.9999
  0
ARC
  8
27
 10
14.8381
 20
28.6981
 30
0.0000
 40
0.0992
 50
269.9995
 51
341.0726
  0
LINE
  8
27
 10
14.7309
 20
28.7061
 30
0.0000
 11
14.9453
 21
28.9743
 31
0.0000
  0
LINE
  8
27
 10
15.2807
 20
28.5989
 30
0.0000
 11
15.2807
 21
29.0815
 31
0.0000
  0
LINE
  8
27
 10
15.2807
 20
29.0815
 30
0.0000
 11
15.4416
 21
28.8134
 31
0.0000
  0
LINE
  8
27
 10
15.4416
 20
28.8134
 30
0.0000
 11
15.6025
 21
29.0815
 31
0.0000
  0
LINE
  8
27
 10
15.6025
 20
29.0815
 30
0.0000
 11
15.6025
 21
28.5989
 31
0.0000
  0
LINE
  8
27
 10
15.9391
 20
28.5989
 30
0.0000
 11
15.9391
 21
29.0815
 31
0.0000
  0
LINE
  8
27
 10
15.9391
 20
29.0815
 30
0.0000
 11
16.1000
 21
28.8134
 31
0.0000
  0
LINE
  8
27
 10
16.1000
 20
28.8134
 30
0.0000
 11
16.2608
 21
29.0815
 31
0.0000
  0
LINE
  8
27
 10
16.2608
 20
29.0815
 30
0.0000
 11
16.2608
 21
28.5989
 31
0.0000
  0
LINE
  8
27
 10
16.5792
 20
28.7866
 30
0.0000
 11
16.9009
 21
28.7866
 31
0.0000
  0
LINE
  8
27
 10
17.2241
 20
28.5989
 30
0.0000
 11
17.2241
 21
29.0815
 31
0.0000
  0
LINE
  8
27
 10
17.4922
 20
29.0815
 30
0.0000
 11
17.2241
 21
28.7866
 31
0.0000
  0
LINE
  8
27
 10
17.4922
 20
28.5989
 30
0.0000
 11
17.3314
 21
28.8938
 31
0.0000
  0
LINE
  8
27
 10
17.7642
 20
29.0815
 30
0.0000
 11
17.7642
 21
28.5989
 31
0.0000
  0
LINE
  8
27
 10
17.7105
 20
28.5989
 30
0.0000
 11
17.8178
 21
28.5989
 31
0.0000
  0
LINE
  8
27
 10
17.7105
 20
29.0815
 30
0.0000
 11
17.8178
 21
29.0815
 31
0.0000
  0
LINE
  8
27
 10
18.1665
 20
28.5989
 30
0.0000
 11
18.1665
 21
29.0815
 31
0.0000
  0
LINE
  8
27
 10
18.0324
 20
29.0815
 30
0.0000
 11
18.3006
 21
29.0815
 31
0.0000
  0
ENDSEC
  0
EOF
