  0
SECTION
  2
HEADER
  9
$ACADVER
  1
AC1027
  9
$ACADMAINTVER
 70
   125
  9
$DWGCODEPAGE
  3
ANSI_1252
  9
$LASTSAVEDBY
  1
MEM
  9
$REQUIREDVERSIONS
160
                 0
  9
$INSBASE
 10
0.0
 20
0.0
 30
0.0
  9
$EXTMIN
 10
-168.3372440844
 20
-113.342583167719
 30
0.0
  9
$EXTMAX
 10
70.6627559156
 20
-27.590228650418
 30
0.0
  9
$LIMMIN
 10
0.0
 20
0.0
  9
$LIMMAX
 10
420.0
 20
297.0
  9
$ORTHOMODE
 70
     0
  9
$REGENMODE
 70
     1
  9
$FILLMODE
 70
     1
  9
$QTEXTMODE
 70
     0
  9
$MIRRTEXT
 70
     1
  9
$LTSCALE
 40
1.0
  9
$ATTMODE
 70
     1
  9
$TEXTSIZE
 40
3.5
  9
$TRACEWID
 40
1.0
  9
$TEXTSTYLE
  7
Standard
  9
$CLAYER
  8
0
  9
$CELTYPE
  6
ByLayer
  9
$CECOLOR
 62
   256
  9
$CELTSCALE
 40
1.0
  9
$DISPSILH
 70
     0
  9
$DIMSCALE
 40
1.0
  9
$DIMASZ
 40
3.302
  9
$DIMEXO
 40
1.0
  9
$DIMDLI
 40
3.75
  9
$DIMRND
 40
0.0
  9
$DIMDLE
 40
0.0
  9
$DIMEXE
 40
1.0
  9
$DIMTP
 40
0.0
  9
$DIMTM
 40
0.0
  9
$DIMTXT
 40
3.5
  9
$DIMCEN
 40
2.5
  9
$DIMTSZ
 40
0.0
  9
$DIMTOL
 70
     0
  9
$DIMLIM
 70
     0
  9
$DIMTIH
 70
     1
  9
$DIMTOH
 70
     1
  9
$DIMSE1
 70
     0
  9
$DIMSE2
 70
     0
  9
$DIMTAD
 70
     1
  9
$DIMZIN
 70
     1
  9
$DIMBLK
  1

  9
$DIMASO
 70
     1
  9
$DIMSHO
 70
     1
  9
$DIMPOST
  1

  9
$DIMAPOST
  1

  9
$DIMALT
 70
     0
  9
$DIMALTD
 70
     3
  9
$DIMALTF
 40
0.0393700787
  9
$DIMLFAC
 40
1.0
  9
$DIMTOFL
 70
     1
  9
$DIMTVP
 40
0.0
  9
$DIMTIX
 70
     0
  9
$DIMSOXD
 70
     0
  9
$DIMSAH
 70
     0
  9
$DIMBLK1
  1

  9
$DIMBLK2
  1

  9
$DIMSTYLE
  2
ISO-25
  9
$DIMCLRD
 70
     0
  9
$DIMCLRE
 70
     0
  9
$DIMCLRT
 70
     0
  9
$DIMTFAC
 40
1.0
  9
$DIMGAP
 40
1.524
  9
$DIMJUST
 70
     0
  9
$DIMSD1
 70
     0
  9
$DIMSD2
 70
     0
  9
$DIMTOLJ
 70
     0
  9
$DIMTZIN
 70
     1
  9
$DIMALTZ
 70
     0
  9
$DIMALTTZ
 70
     0
  9
$DIMUPT
 70
     0
  9
$DIMDEC
 70
     2
  9
$DIMTDEC
 70
     2
  9
$DIMALTU
 70
     2
  9
$DIMALTTD
 70
     3
  9
$DIMTXSTY
  7
Standard
  9
$DIMAUNIT
 70
     0
  9
$DIMADEC
 70
     2
  9
$DIMALTRND
 40
0.0
  9
$DIMAZIN
 70
     0
  9
$DIMDSEP
 70
    44
  9
$DIMATFIT
 70
     3
  9
$DIMFRAC
 70
     0
  9
$DIMLDRBLK
  1

  9
$DIMLUNIT
 70
     2
  9
$DIMLWD
 70
    -2
  9
$DIMLWE
 70
    -2
  9
$DIMTMOVE
 70
     0
  9
$DIMFXL
 40
1.0
  9
$DIMFXLON
 70
     0
  9
$DIMJOGANG
 40
0.7853981634000001
  9
$DIMTFILL
 70
     0
  9
$DIMTFILLCLR
 70
     0
  9
$DIMARCSYM
 70
     0
  9
$DIMLTYPE
  6

  9
$DIMLTEX1
  6

  9
$DIMLTEX2
  6

  9
$DIMTXTDIRECTION
 70
     0
  9
$LUNITS
 70
     2
  9
$LUPREC
 70
     2
  9
$SKETCHINC
 40
1.0
  9
$FILLETRAD
 40
10.0
  9
$AUNITS
 70
     0
  9
$AUPREC
 70
     2
  9
$MENU
  1
.
  9
$ELEVATION
 40
0.0
  9
$PELEVATION
 40
0.0
  9
$THICKNESS
 40
0.0
  9
$LIMCHECK
 70
     0
  9
$CHAMFERA
 40
0.0
  9
$CHAMFERB
 40
0.0
  9
$CHAMFERC
 40
0.0
  9
$CHAMFERD
 40
0.0
  9
$SKPOLY
 70
     0
  9
$TDCREATE
 40
2459645.889328704
  9
$TDUCREATE
 40
2459645.889331042
  9
$TDUPDATE
 40
2459646.383506945
  9
$TDUUPDATE
 40
2459646.383506945
  9
$TDINDWG
 40
0.0007870486
  9
$TDUSRTIMER
 40
0.0007870486
  9
$USRTIMER
 70
     1
  9
$ANGBASE
 50
0.0
  9
$ANGDIR
 70
     0
  9
$PDMODE
 70
     0
  9
$PDSIZE
 40
-1.0
  9
$PLINEWID
 40
0.0
  9
$SPLFRAME
 70
     0
  9
$SPLINETYPE
 70
     6
  9
$SPLINESEGS
 70
     8
  9
$HANDSEED
  5
2DA
  9
$SURFTAB1
 70
     6
  9
$SURFTAB2
 70
     6
  9
$SURFTYPE
 70
     6
  9
$SURFU
 70
     6
  9
$SURFV
 70
     6
  9
$UCSBASE
  2

  9
$UCSNAME
  2

  9
$UCSORG
 10
0.0
 20
0.0
 30
0.0
  9
$UCSXDIR
 10
1.0
 20
0.0
 30
0.0
  9
$UCSYDIR
 10
0.0
 20
1.0
 30
0.0
  9
$UCSORTHOREF
  2

  9
$UCSORTHOVIEW
 70
     0
  9
$UCSORGTOP
 10
0.0
 20
0.0
 30
0.0
  9
$UCSORGBOTTOM
 10
0.0
 20
0.0
 30
0.0
  9
$UCSORGLEFT
 10
0.0
 20
0.0
 30
0.0
  9
$UCSORGRIGHT
 10
0.0
 20
0.0
 30
0.0
  9
$UCSORGFRONT
 10
0.0
 20
0.0
 30
0.0
  9
$UCSORGBACK
 10
0.0
 20
0.0
 30
0.0
  9
$PUCSBASE
  2

  9
$PUCSNAME
  2

  9
$PUCSORG
 10
0.0
 20
0.0
 30
0.0
  9
$PUCSXDIR
 10
1.0
 20
0.0
 30
0.0
  9
$PUCSYDIR
 10
0.0
 20
1.0
 30
0.0
  9
$PUCSORTHOREF
  2

  9
$PUCSORTHOVIEW
 70
     0
  9
$PUCSORGTOP
 10
0.0
 20
0.0
 30
0.0
  9
$PUCSORGBOTTOM
 10
0.0
 20
0.0
 30
0.0
  9
$PUCSORGLEFT
 10
0.0
 20
0.0
 30
0.0
  9
$PUCSORGRIGHT
 10
0.0
 20
0.0
 30
0.0
  9
$PUCSORGFRONT
 10
0.0
 20
0.0
 30
0.0
  9
$PUCSORGBACK
 10
0.0
 20
0.0
 30
0.0
  9
$USERI1
 70
     0
  9
$USERI2
 70
     0
  9
$USERI3
 70
     0
  9
$USERI4
 70
     0
  9
$USERI5
 70
     0
  9
$USERR1
 40
0.0
  9
$USERR2
 40
0.0
  9
$USERR3
 40
0.0
  9
$USERR4
 40
0.0
  9
$USERR5
 40
0.0
  9
$WORLDVIEW
 70
     1
  9
$SHADEDGE
 70
     3
  9
$SHADEDIF
 70
    70
  9
$TILEMODE
 70
     1
  9
$MAXACTVP
 70
    64
  9
$PINSBASE
 10
0.0
 20
0.0
 30
0.0
  9
$PLIMCHECK
 70
     0
  9
$PEXTMIN
 10
1.000000000000000E+20
 20
1.000000000000000E+20
 30
1.000000000000000E+20
  9
$PEXTMAX
 10
-1.000000000000000E+20
 20
-1.000000000000000E+20
 30
-1.000000000000000E+20
  9
$PLIMMIN
 10
0.0
 20
0.0
  9
$PLIMMAX
 10
420.0
 20
297.0
  9
$UNITMODE
 70
     0
  9
$VISRETAIN
 70
     1
  9
$PLINEGEN
 70
     0
  9
$PSLTSCALE
 70
     1
  9
$TREEDEPTH
 70
  3020
  9
$CMLSTYLE
  2
Standard
  9
$CMLJUST
 70
     0
  9
$CMLSCALE
 40
20.0
  9
$PROXYGRAPHICS
 70
     1
  9
$MEASUREMENT
 70
     1
  9
$CELWEIGHT
370
    -1
  9
$ENDCAPS
280
     0
  9
$JOINSTYLE
280
     0
  9
$LWDISPLAY
290
     1
  9
$INSUNITS
 70
     4
  9
$HYPERLINKBASE
  1

  9
$STYLESHEET
  1

  9
$XEDIT
290
     1
  9
$CEPSNTYPE
380
     0
  9
$PSTYLEMODE
290
     1
  9
$FINGERPRINTGUID
  2
{8DDAE220-4B66-4EAC-B589-A9283CB72FE7}
  9
$VERSIONGUID
  2
{CCB98A8A-8C8F-D646-9FDF-6BF1F5A3AF4C}
  9
$EXTNAMES
290
     1
  9
$PSVPSCALE
 40
0.0
  9
$OLESTARTUP
290
     0
  9
$SORTENTS
280
   127
  9
$INDEXCTL
280
     0
  9
$HIDETEXT
280
     1
  9
$XCLIPFRAME
280
     2
  9
$HALOGAP
280
     0
  9
$OBSCOLOR
 70
   257
  9
$OBSLTYPE
280
     0
  9
$INTERSECTIONDISPLAY
280
     0
  9
$INTERSECTIONCOLOR
 70
   257
  9
$DIMASSOC
280
     2
  9
$PROJECTNAME
  1

  9
$CAMERADISPLAY
290
     0
  9
$LENSLENGTH
 40
50.0
  9
$CAMERAHEIGHT
 40
0.0
  9
$STEPSPERSEC
 40
2.0
  9
$STEPSIZE
 40
6.0
  9
$3DDWFPREC
 40
2.0
  9
$PSOLWIDTH
 40
5.0
  9
$PSOLHEIGHT
 40
80.0
  9
$LOFTANG1
 40
1.5707963268
  9
$LOFTANG2
 40
1.5707963268
  9
$LOFTMAG1
 40
0.0
  9
$LOFTMAG2
 40
0.0
  9
$LOFTPARAM
 70
     7
  9
$LOFTNORMALS
280
     1
  9
$LATITUDE
 40
37.795
  9
$LONGITUDE
 40
-122.394
  9
$NORTHDIRECTION
 40
0.0
  9
$TIMEZONE
 70
 -8000
  9
$LIGHTGLYPHDISPLAY
280
     1
  9
$TILEMODELIGHTSYNCH
280
     1
  9
$CMATERIAL
347
44
  9
$SOLIDHIST
280
     0
  9
$SHOWHIST
280
     1
  9
$DWFFRAME
280
     2
  9
$DGNFRAME
280
     2
  9
$REALWORLDSCALE
290
     1
  9
$INTERFERECOLOR
 62
   256
  9
$INTERFEREOBJVS
345
33
  9
$INTERFEREVPVS
346
30
  9
$CSHADOW
280
     0
  9
$SHADOWPLANELOCATION
 40
0.0
  0
ENDSEC
  0
SECTION
  2
CLASSES
  0
CLASS
  1
ACDBDICTIONARYWDFLT
  2
AcDbDictionaryWithDefault
  3
ObjectDBX Classes
 90
        0
 91
        1
280
     0
281
     0
  0
CLASS
  1
VISUALSTYLE
  2
AcDbVisualStyle
  3
ObjectDBX Classes
 90
     4095
 91
       24
280
     0
281
     0
  0
CLASS
  1
MATERIAL
  2
AcDbMaterial
  3
ObjectDBX Classes
 90
     1153
 91
        3
280
     0
281
     0
  0
CLASS
  1
SCALE
  2
AcDbScale
  3
ObjectDBX Classes
 90
     1153
 91
       33
280
     0
281
     0
  0
CLASS
  1
TABLESTYLE
  2
AcDbTableStyle
  3
ObjectDBX Classes
 90
     4095
 91
        1
280
     0
281
     0
  0
CLASS
  1
MLEADERSTYLE
  2
AcDbMLeaderStyle
  3
ACDB_MLEADERSTYLE_CLASS
 90
     4095
 91
        1
280
     0
281
     0
  0
CLASS
  1
SUN
  2
AcDbSun
  3
SCENEOE
 90
     1153
 91
        1
280
     0
281
     0
  0
CLASS
  1
DICTIONARYVAR
  2
AcDbDictionaryVar
  3
ObjectDBX Classes
 90
        0
 91
        7
280
     0
281
     0
  0
CLASS
  1
CELLSTYLEMAP
  2
AcDbCellStyleMap
  3
ObjectDBX Classes
 90
     1152
 91
        2
280
     0
281
     0
  0
CLASS
  1
ACDBSECTIONVIEWSTYLE
  2
AcDbSectionViewStyle
  3
ObjectDBX Classes
 90
     1025
 91
        1
280
     0
281
     0
  0
CLASS
  1
ACDBDETAILVIEWSTYLE
  2
AcDbDetailViewStyle
  3
ObjectDBX Classes
 90
     1025
 91
        1
280
     0
281
     0
  0
ENDSEC
  0
SECTION
  2
TABLES
  0
TABLE
  2
VPORT
  5
8
330
0
100
AcDbSymbolTable
 70
     1
1001
ACAD
1000
DbSaveVer
1071
      247
  0
VPORT
  5
29
330
8
100
AcDbSymbolTableRecord
100
AcDbViewportTableRecord
  2
*Active
 70
     0
 10
0.0
 20
0.0
 11
1.0
 21
1.0
 12
-88.19652458647022
 22
-89.43353676826177
 13
0.0
 23
0.0
 14
10.0
 24
10.0
 15
10.0
 25
10.0
 16
0.0
 26
0.0
 36
1.0
 17
0.0
 27
0.0
 37
0.0
 40
271.6157636226037
 41
2.306811332127787
 42
50.0
 43
0.0
 44
0.0
 50
0.0
 51
0.0
 71
     0
 72
   100
 73
     1
 74
     3
 75
     0
 76
     0
 77
     0
 78
     0
281
     0
 65
     1
110
0.0
120
0.0
130
0.0
111
1.0
121
0.0
131
0.0
112
0.0
122
1.0
132
0.0
 79
     0
146
0.0
348
2F
 60
     3
 61
     5
292
     1
282
     1
141
0.0
142
0.0
361
6D
1001
ACAD_NAV_VCDISPLAY
1070
     3
  0
ENDTAB
  0
TABLE
  2
LTYPE
  5
5
330
0
100
AcDbSymbolTable
 70
     7
  0
LTYPE
  5
14
330
5
100
AcDbSymbolTableRecord
100
AcDbLinetypeTableRecord
  2
ByBlock
 70
     0
  3

 72
    65
 73
     0
 40
0.0
  0
LTYPE
  5
15
330
5
100
AcDbSymbolTableRecord
100
AcDbLinetypeTableRecord
  2
ByLayer
 70
     0
  3

 72
    65
 73
     0
 40
0.0
  0
LTYPE
  5
16
330
5
100
AcDbSymbolTableRecord
100
AcDbLinetypeTableRecord
  2
Continuous
 70
     0
  3
Solid line
 72
    65
 73
     0
 40
0.0
  0
LTYPE
  5
6E
330
5
100
AcDbSymbolTableRecord
100
AcDbLinetypeTableRecord
  2
HIDDEN
 70
     0
  3
Hidden __ __ __ __ __ __ __ __ __ __ __ __ __ __
 72
    65
 73
     2
 40
1.905
 49
1.27
 74
     0
 49
-0.635
 74
     0
  0
LTYPE
  5
6F
330
5
100
AcDbSymbolTableRecord
100
AcDbLinetypeTableRecord
  2
PHANTOM
 70
     0
  3
Phantom ______  __  __  ______  __  __  ______
 72
    65
 73
     6
 40
12.7
 49
6.349999999999999
 74
     0
 49
-1.27
 74
     0
 49
1.27
 74
     0
 49
-1.27
 74
     0
 49
1.27
 74
     0
 49
-1.27
 74
     0
  0
LTYPE
  5
70
330
5
100
AcDbSymbolTableRecord
100
AcDbLinetypeTableRecord
  2
CENTER
 70
     0
  3
Center ____ _ ____ _ ____ _ ____ _ ____ _ ____
 72
    65
 73
     4
 40
10.16
 49
6.349999999999999
 74
     0
 49
-1.27
 74
     0
 49
1.27
 74
     0
 49
-1.27
 74
     0
  0
LTYPE
  5
71
330
5
100
AcDbSymbolTableRecord
100
AcDbLinetypeTableRecord
  2
CENTERX2
 70
     0
  3
Center (2x) ________  __  ________  __  _____
 72
    65
 73
     4
 40
20.32
 49
12.7
 74
     0
 49
-2.54
 74
     0
 49
2.54
 74
     0
 49
-2.54
 74
     0
  0
LTYPE
  5
72
330
5
100
AcDbSymbolTableRecord
100
AcDbLinetypeTableRecord
  2
DOT2
 70
     0
  3
Dot (.5x) ........................................
 72
    65
 73
     2
 40
0.635
 49
0.0
 74
     0
 49
-0.635
 74
     0
  0
ENDTAB
  0
TABLE
  2
LAYER
  5
2
330
0
100
AcDbSymbolTable
 70
     1
  0
LAYER
  5
10
330
2
100
AcDbSymbolTableRecord
100
AcDbLayerTableRecord
  2
0
 70
     0
 62
     7
  6
Continuous
370
    -3
390
F
347
46
348
0
  0
ENDTAB
  0
TABLE
  2
STYLE
  5
3
330
0
100
AcDbSymbolTable
 70
     2
  0
STYLE
  5
11
330
3
100
AcDbSymbolTableRecord
100
AcDbTextStyleTableRecord
  2
Standard
 70
     0
 40
0.0
 41
1.0
 50
0.0
 71
     0
 42
3.5
  3
txt
  4

  0
STYLE
  5
2B2
330
3
100
AcDbSymbolTableRecord
100
AcDbTextStyleTableRecord
  2
SLDTEXTSTYLE0
 70
     0
 40
0.0
 41
0.7
 50
0.0
 71
     0
 42
3.5
  3
TXT
  4

  0
ENDTAB
  0
TABLE
  2
VIEW
  5
6
330
0
100
AcDbSymbolTable
 70
     0
  0
ENDTAB
  0
TABLE
  2
UCS
  5
7
330
0
100
AcDbSymbolTable
 70
     0
  0
ENDTAB
  0
TABLE
  2
APPID
  5
9
330
0
100
AcDbSymbolTable
 70
     4
  0
APPID
  5
12
330
9
100
AcDbSymbolTableRecord
100
AcDbRegAppTableRecord
  2
ACAD
 70
     0
  0
APPID
  5
2C8
330
9
100
AcDbSymbolTableRecord
100
AcDbRegAppTableRecord
  2
ACAD_EXEMPT_FROM_CAD_STANDARDS
 70
     0
  0
APPID
  5
2CF
330
9
100
AcDbSymbolTableRecord
100
AcDbRegAppTableRecord
  2
Acad_TC
 70
     0
  0
APPID
  5
2D3
330
9
100
AcDbSymbolTableRecord
100
AcDbRegAppTableRecord
  2
ACAD_NAV_VCDISPLAY
 70
     0
  0
ENDTAB
  0
TABLE
  2
DIMSTYLE
  5
A
330
0
100
AcDbSymbolTable
 70
     2
100
AcDbDimStyleTable
 71
     1
340
27
  0
DIMSTYLE
105
27
330
A
100
AcDbSymbolTableRecord
100
AcDbDimStyleTableRecord
  2
ISO-25
 70
     0
 41
2.5
 42
0.625
 43
3.75
 44
1.25
 73
     0
 74
     0
 77
     1
 78
     8
140
2.5
141
2.5
143
0.0393700787
147
0.625
171
     3
172
     1
271
     2
272
     2
274
     3
278
    44
283
     0
284
     8
340
11
  0
ENDTAB
  0
TABLE
  2
BLOCK_RECORD
  5
1
330
0
100
AcDbSymbolTable
 70
     2
  0
BLOCK_RECORD
  5
1F
330
1
100
AcDbSymbolTableRecord
100
AcDbBlockTableRecord
  2
*Model_Space
340
22
 70
     0
280
     1
281
     0
  0
BLOCK_RECORD
  5
1B
330
1
100
AcDbSymbolTableRecord
100
AcDbBlockTableRecord
  2
*Paper_Space
340
1E
 70
     0
280
     1
281
     0
  0
BLOCK_RECORD
  5
23
330
1
100
AcDbSymbolTableRecord
100
AcDbBlockTableRecord
  2
*Paper_Space0
340
26
 70
     0
280
     1
281
     0
  0
ENDTAB
  0
ENDSEC
  0
SECTION
  2
BLOCKS
  0
BLOCK
  5
20
330
1F
100
AcDbEntity
  8
0
100
AcDbBlockBegin
  2
*Model_Space
 70
     0
 10
0.0
 20
0.0
 30
0.0
  3
*Model_Space
  1

  0
ENDBLK
  5
21
330
1F
100
AcDbEntity
  8
0
100
AcDbBlockEnd
  0
BLOCK
  5
1C
330
1B
100
AcDbEntity
 67
     1
  8
0
100
AcDbBlockBegin
  2
*Paper_Space
 70
     0
 10
0.0
 20
0.0
 30
0.0
  3
*Paper_Space
  1

  0
ENDBLK
  5
1D
330
1B
100
AcDbEntity
 67
     1
  8
0
100
AcDbBlockEnd
  0
BLOCK
  5
24
330
23
100
AcDbEntity
 67
     1
  8
0
100
AcDbBlockBegin
  2
*Paper_Space0
 70
     0
 10
0.0
 20
0.0
 30
0.0
  3
*Paper_Space0
  1

  0
ENDBLK
  5
25
330
23
100
AcDbEntity
 67
     1
  8
0
100
AcDbBlockEnd
  0
ENDSEC
  0
SECTION
  2
ENTITIES
  0
SPLINE
  5
7A
330
1F
100
AcDbEntity
  8
0
  6
Continuous
 62
     7
370
    25
100
AcDbSpline
210
0.0
220
0.0
230
1.0
 70
     8
 71
     3
 72
    15
 73
    11
 74
     0
 42
0.000000001
 43
0.0000000001
 40
0.0
 40
0.0
 40
0.0
 40
0.0
 40
0.1185218400132607
 40
0.2362547631617447
 40
0.3561744339909323
 40
0.4772496548985539
 40
0.6015398708216983
 40
0.7296183821680368
 40
0.8621582661414366
 40
1.0
 40
1.0
 40
1.0
 40
1.0
 10
-6.580333026686354
 20
-61.53651290148488
 30
0.0
 10
-6.558206088373867
 20
-61.56671648287115
 30
0.0
 10
-6.514099495277383
 20
-61.62692260155999
 30
0.0
 10
-6.458852395242241
 20
-61.72509375866066
 30
0.0
 10
-6.41089500025857
 20
-61.82780435301082
 30
0.0
 10
-6.3725620392438
 20
-61.93671465009779
 30
0.0
 10
-6.341522538047261
 20
-62.05053423027075
 30
0.0
 10
-6.31906571930707
 20
-62.17007677498506
 30
0.0
 10
-6.305896100725232
 20
-62.2953066863459
 30
0.0
 10
-6.303307403376797
 20
-62.3806332418226
 30
0.0
 10
-6.301987674122252
 20
-62.42413309379259
 30
0.0
  0
SPLINE
  5
7B
330
1F
100
AcDbEntity
  8
0
  6
Continuous
 62
     7
370
    25
100
AcDbSpline
210
0.0
220
0.0
230
1.0
 70
     8
 71
     3
 72
    15
 73
    11
 74
     0
 42
0.000000001
 43
0.0000000001
 40
0.0
 40
0.0
 40
0.0
 40
0.0
 40
0.1320402344259818
 40
0.2590328407793702
 40
0.3818798239250157
 40
0.5022584437149861
 40
0.6227521895274802
 40
0.7447426318590035
 40
0.8701089273418192
 40
1.0
 40
1.0
 40
1.0
 40
1.0
 10
-7.610280943353026
 20
-61.03310745276694
 30
0.0
 10
-7.557833338049337
 20
-61.03446150165944
 30
0.0
 10
-7.454943092110664
 20
-61.03711783692499
 30
0.0
 10
-7.304910971073885
 20
-61.06174417033408
 30
0.0
 10
-7.162950254533277
 20
-61.10079672489744
 30
0.0
 10
-7.029117750224467
 20
-61.15595051539798
 30
0.0
 10
-6.903399889471639
 20
-61.22711006718838
 30
0.0
 10
-6.786613839896947
 20
-61.31525190866931
 30
0.0
 10
-6.676762327348193
 20
-61.41766999589436
 30
0.0
 10
-6.612853748495989
 20
-61.49643320532167
 30
0.0
 10
-6.580333026686354
 20
-61.53651290148488
 30
0.0
  0
SPLINE
  5
7C
330
1F
100
AcDbEntity
  8
0
  6
Continuous
 62
     7
370
    25
100
AcDbSpline
210
0.0
220
0.0
230
1.0
 70
     8
 71
     3
 72
    15
 73
    11
 74
     0
 42
0.000000001
 43
0.0000000001
 40
0.0
 40
0.0
 40
0.0
 40
0.0
 40
0.1288352544875554
 40
0.2535893349864761
 40
0.3746432573141705
 40
0.4953400422377929
 40
0.6163247746357917
 40
0.7397593354405135
 40
0.8668423203805456
 40
1.0
 40
1.0
 40
1.0
 40
1.0
 10
-8.610080622840202
 20
-61.50987027327975
 30
0.0
 10
-8.578372940064374
 20
-61.47200140319171
 30
0.0
 10
-8.515961993456098
 20
-61.39746325274122
 30
0.0
 10
-8.41040563810224
 20
-61.29952492695959
 30
0.0
 10
-8.296105441759863
 20
-61.21748115178255
 30
0.0
 10
-8.174493815659696
 20
-61.14947401564429
 30
0.0
 10
-8.044157341599111
 20
-61.09780036865156
 30
0.0
 10
-7.906848050561521
 20
-61.05929278641926
 30
0.0
 10
-7.761002464334907
 20
-61.03771477538602
 30
0.0
 10
-7.661297243496713
 20
-61.03466694176402
 30
0.0
 10
-7.610280943353026
 20
-61.03310745276694
 30
0.0
  0
SPLINE
  5
7D
330
1F
100
AcDbEntity
  8
0
  6
Continuous
 62
     7
370
    25
100
AcDbSpline
210
0.0
220
0.0
230
1.0
 70
     8
 71
     3
 72
    15
 73
    11
 74
     0
 42
0.000000001
 43
0.0000000001
 40
0.0
 40
0.0
 40
0.0
 40
0.0
 40
0.1280448079611193
 40
0.253767900024489
 40
0.3774284265813017
 40
0.5005508414825349
 40
0.6232958832424752
 40
0.7465783319335097
 40
0.8723475406047175
 40
1.0
 40
1.0
 40
1.0
 40
1.0
 10
-8.904551776686357
 20
-62.3638366194336
 30
0.0
 10
-8.903492635355759
 20
-62.32454178901602
 30
0.0
 10
-8.901393557106715
 20
-62.24666462432915
 30
0.0
 10
-8.888162769713026
 20
-62.13139907979888
 30
0.0
 10
-8.864714476645009
 20
-62.01937062727029
 30
0.0
 10
-8.832538152695882
 20
-61.91048617930146
 30
0.0
 10
-8.790986906512637
 20
-61.80492804531736
 30
0.0
 10
-8.740154687296421
 20
-61.7026319816942
 30
0.0
 10
-8.679962309507631
 20
-61.60370684183371
 30
0.0
 10
-8.633489635751168
 20
-61.54130370812592
 30
0.0
 10
-8.610080622840202
 20
-61.50987027327975
 30
0.0
  0
SPLINE
  5
7E
330
1F
100
AcDbEntity
  8
0
  6
Continuous
 62
     7
370
    25
100
AcDbSpline
210
0.0
220
0.0
230
1.0
 70
     8
 71
     3
 72
    23
 73
    19
 74
     0
 42
0.000000001
 43
0.0000000001
 40
0.0
 40
0.0
 40
0.0
 40
0.0
 40
0.0715786576891418
 40
0.1396292246928484
 40
0.2047966973966655
 40
0.2681349633966813
 40
0.3298137469867294
 40
0.3913013977745606
 40
0.4534335150970556
 40
0.5165516903197679
 40
0.5796312707049234
 40
0.6411189214927513
 40
0.7012940466987765
 40
0.7608103356761334
 40
0.8199317217781466
 40
0.8789195754993814
 40
0.938982822250448
 40
1.0
 40
1.0
 40
1.0
 40
1.0
 10
-7.617993283096613
 20
-63.68054335020282
 30
0.0
 10
-7.667135260632057
 20
-63.67939617487327
 30
0.0
 10
-7.762997022289371
 20
-63.6771583681439
 30
0.0
 10
-7.902536769402224
 20
-63.6578659037094
 30
0.0
 10
-8.033916187799757
 20
-63.62639354501578
 30
0.0
 10
-8.157127891153352
 20
-63.58242800352446
 30
0.0
 10
-8.271870143730909
 20
-63.52500067943421
 30
0.0
 10
-8.378370998542827
 20
-63.45504119763049
 30
0.0
 10
-8.477190524411801
 20
-63.37290894294194
 30
0.0
 10
-8.565214733596951
 20
-63.27789249945496
 30
0.0
 10
-8.644458616307387
 20
-63.17621054215955
 30
0.0
 10
-8.714384436283085
 20
-63.0702546576736
 30
0.0
 10
-8.772841867332514
 20
-62.96029143319965
 30
0.0
 10
-8.820394477528255
 20
-62.84702090915614
 30
0.0
 10
-8.858799342498041
 20
-62.73115701561296
 30
0.0
 10
-8.885566046267181
 20
-62.61164554804378
 30
0.0
 10
-8.900995794249229
 20
-62.48880996380357
 30
0.0
 10
-8.903360239786586
 20
-62.40571262808584
 30
0.0
 10
-8.904551776686357
 20
-62.36383661943361
 30
0.0
  0
SPLINE
  5
7F
330
1F
100
AcDbEntity
  8
0
  6
Continuous
 62
     7
370
    25
100
AcDbSpline
210
0.0
220
0.0
230
1.0
 70
     8
 71
     3
 72
    19
 73
    15
 74
     0
 42
0.000000001
 43
0.0000000001
 40
0.0
 40
0.0
 40
0.0
 40
0.0
 40
0.0933698567361911
 40
0.1816607660709983
 40
0.2658742270426196
 40
0.3463547840343044
 40
0.4245998617178929
 40
0.5019031838373742
 40
0.5799920909873452
 40
0.6584434305294291
 40
0.7386722364878326
 40
0.8218941484362439
 40
0.9088007920466147
 40
1.0
 40
1.0
 40
1.0
 40
1.0
 10
-6.436603058737639
 20
-62.97451370276693
 30
0.0
 10
-6.458839653977615
 20
-63.01395703404225
 30
0.0
 10
-6.50210326246229
 20
-63.09069813685997
 30
0.0
 10
-6.576504010353062
 20
-63.19612999733203
 30
0.0
 10
-6.65449608293124
 20
-63.29097771317081
 30
0.0
 10
-6.739600050934823
 20
-63.37270736745467
 30
0.0
 10
-6.829269729888829
 20
-63.44395875242891
 30
0.0
 10
-6.924002384674519
 20
-63.50629657714786
 30
0.0
 10
-7.024291202409862
 20
-63.55941509749363
 30
0.0
 10
-7.130140927188117
 20
-63.60416762536643
 30
0.0
 10
-7.242440478329613
 20
-63.63857711947432
 30
0.0
 10
-7.361461994739658
 20
-63.66288134039536
 30
0.0
 10
-7.487433490118447
 20
-63.6779046090458
 30
0.0
 10
-7.573779669986207
 20
-63.67964974982285
 30
0.0
 10
-7.617993283096613
 20
-63.68054335020286
 30
0.0
  0
SPLINE
  5
81
330
1F
100
AcDbEntity
  8
0
  6
Continuous
 62
     7
370
    25
100
AcDbSpline
210
0.0
220
0.0
230
1.0
 70
     8
 71
     3
 72
    19
 73
    15
 74
     0
 42
0.000000001
 43
0.0000000001
 40
0.0
 40
0.0
 40
0.0
 40
0.0
 40
0.0825922633314365
 40
0.1638788940984973
 40
0.2456587396295059
 40
0.3277256953541228
 40
0.4086099609103215
 40
0.4857490859539351
 40
0.5591690561972835
 40
0.6302684758575518
 40
0.7053060284320749
 40
0.792064966096608
 40
0.889796437410091
 40
1.0
 40
1.0
 40
1.0
 40
1.0
 10
-7.657256103609434
 20
-63.36644078610025
 30
0.0
 10
-7.625904956005415
 20
-63.36583272944036
 30
0.0
 10
-7.563698265077869
 20
-63.3646262283838
 30
0.0
 10
-7.471057407734777
 20
-63.35289431747279
 30
0.0
 10
-7.379917880335263
 20
-63.3339240418517
 30
0.0
 10
-7.29065689706803
 20
-63.30803405176805
 30
0.0
 10
-7.205086051151331
 20
-63.27645719966131
 30
0.0
 10
-7.125840501090107
 20
-63.23835434201225
 30
0.0
 10
-7.052960285463982
 20
-63.1962045952693
 30
0.0
 10
-6.984843318877679
 20
-63.14799492022088
 30
0.0
 10
-6.91877232552565
 20
-63.08898673321786
 30
0.0
 10
-6.853229839110907
 20
-63.01535101222931
 30
0.0
 10
-6.78295318574764
 20
-62.9282634844457
 30
0.0
 10
-6.738963593003875
 20
-62.86271781846778
 30
0.0
 10
-6.715649533096613
 20
-62.82797924763873
 30
0.0
  0
SPLINE
  5
82
330
1F
100
AcDbEntity
  8
0
  6
Continuous
 62
     7
370
    25
100
AcDbSpline
210
0.0
220
0.0
230
1.0
 70
     8
 71
     3
 72
    23
 73
    19
 74
     0
 42
0.000000001
 43
0.0000000001
 40
0.0
 40
0.0
 40
0.0
 40
0.0
 40
0.0683846151037665
 40
0.1344755875434487
 40
0.1983910577839541
 40
0.2607534774484856
 40
0.3218292228076499
 40
0.3830372384795201
 40
0.4446531231064255
 40
0.5073980112040011
 40
0.5698252379730253
 40
0.6307776406313123
 40
0.6909286865237159
 40
0.7509451326917358
 40
0.8110494767293261
 40
0.872330852546993
 40
0.9350040935894048
 40
1.0
 40
1.0
 40
1.0
 40
1.0
 10
-8.59044921258379
 20
-62.42413309379259
 30
0.0
 10
-8.588909606154638
 20
-62.45783355803968
 30
0.0
 10
-8.585882032206434
 20
-62.52410416178938
 30
0.0
 10
-8.571766889040002
 20
-62.62107494487189
 30
0.0
 10
-8.549518115265776
 20
-62.71344828703551
 30
0.0
 10
-8.518249052627268
 20
-62.80053132900896
 30
0.0
 10
-8.480382207372384
 20
-62.88346145652425
 30
0.0
 10
-8.433996490586441
 20
-62.96162349349287
 30
0.0
 10
-8.378656936633948
 20
-63.03466142354278
 30
0.0
 10
-8.316931237249571
 20
-63.1032285611359
 30
0.0
 10
-8.248224141913965
 20
-63.16428932230358
 30
0.0
 10
-8.175941394692769
 20
-63.21894109853788
 30
0.0
 10
-8.099047829703588
 20
-63.26474669526728
 30
0.0
 10
-8.018149746209637
 20
-63.30192658502072
 30
0.0
 10
-7.933377961065454
 20
-63.33103290107978
 30
0.0
 10
-7.844705765949721
 20
-63.35090072176271
 30
0.0
 10
-7.752307649594967
 20
-63.36420782863758
 30
0.0
 10
-7.689321915562195
 20
-63.3656874938381
 30
0.0
 10
-7.657256103609434
 20
-63.36644078610025
 30
0.0
  0
SPLINE
  5
84
330
1F
100
AcDbEntity
  8
0
  6
Continuous
 62
     7
370
    25
100
AcDbSpline
210
0.0
220
0.0
230
1.0
 70
     8
 71
     3
 72
    15
 73
    11
 74
     0
 42
0.000000001
 43
0.0000000001
 40
0.0
 40
0.0
 40
0.0
 40
0.0
 40
0.1185218400132614
 40
0.2362547631617456
 40
0.3561744339909282
 40
0.477249654898562
 40
0.601539870821707
 40
0.7296183821680414
 40
0.8621582661414358
 40
1.0
 40
1.0
 40
1.0
 40
1.0
 10
30.5789754104904
 20
-77.88687347840793
 30
0.0
 10
30.61058532236538
 20
-77.93002145181694
 30
0.0
 10
30.67359474107466
 20
-78.01603019280094
 30
0.0
 10
30.75251916969626
 20
-78.15627470294477
 30
0.0
 10
30.82102973395868
 20
-78.30300412344499
 30
0.0
 10
30.8757911068369
 20
-78.45859026214069
 30
0.0
 10
30.9201332514034
 20
-78.62118966238772
 30
0.0
 10
30.95221442103224
 20
-78.79196472626535
 30
0.0
 10
30.97102816186344
 20
-78.97086459963799
 30
0.0
 10
30.97472630093263
 20
-79.0927596788904
 30
0.0
 10
30.97661162843912
 20
-79.15490232456177
 30
0.0
  0
SPLINE
  5
85
330
1F
100
AcDbEntity
  8
0
  6
Continuous
 62
     7
370
    25
100
AcDbSpline
210
0.0
220
0.0
230
1.0
 70
     8
 71
     3
 72
    15
 73
    11
 74
     0
 42
0.000000001
 43
0.0000000001
 40
0.0
 40
0.0
 40
0.0
 40
0.0
 40
0.1320402344259828
 40
0.2590328407793692
 40
0.3818798239250157
 40
0.5022584437149852
 40
0.6227521895274797
 40
0.7447426318590031
 40
0.870108927341816
 40
1.0
 40
1.0
 40
1.0
 40
1.0
 10
29.10762124382373
 20
-77.16772283738229
 30
0.0
 10
29.18254639425756
 20
-77.16965719294297
 30
0.0
 10
29.32953245988423
 20
-77.17345195760808
 30
0.0
 10
29.54386406136537
 20
-77.20863243390677
 30
0.0
 10
29.74666508499479
 20
-77.26442179756872
 30
0.0
 10
29.93785437686454
 20
-77.34321292685523
 30
0.0
 10
30.11745132079715
 20
-77.44486942941292
 30
0.0
 10
30.28428853447528
 20
-77.57078634581427
 30
0.0
 10
30.44121926668779
 20
-77.71709789899294
 30
0.0
 10
30.53251723647664
 20
-77.82961676960335
 30
0.0
 10
30.5789754104904
 20
-77.88687347840793
 30
0.0
  0
SPLINE
  5
86
330
1F
100
AcDbEntity
  8
0
  6
Continuous
 62
     7
370
    25
100
AcDbSpline
210
0.0
220
0.0
230
1.0
 70
     8
 71
     3
 72
    15
 73
    11
 74
     0
 42
0.000000001
 43
0.0000000001
 40
0.0
 40
0.0
 40
0.0
 40
0.0
 40
0.1288352544875567
 40
0.2535893349864748
 40
0.3746432573141721
 40
0.4953400422377941
 40
0.6163247746357908
 40
0.7397593354405156
 40
0.8668423203805472
 40
1.0
 40
1.0
 40
1.0
 40
1.0
 10
27.67933598741347
 20
-77.84881258097205
 30
0.0
 10
27.72463267709324
 20
-77.79471419513197
 30
0.0
 10
27.8137911722479
 20
-77.68823112305985
 30
0.0
 10
27.96458596561056
 20
-77.54831922908612
 30
0.0
 10
28.1278719603854
 20
-77.43111383597602
 30
0.0
 10
28.30160285481419
 20
-77.33396078434999
 30
0.0
 10
28.4877978177579
 20
-77.26014128864601
 30
0.0
 10
28.68395394781159
 20
-77.20513045688567
 30
0.0
 10
28.89230478527818
 20
-77.17430472683808
 30
0.0
 10
29.03474081504703
 20
-77.16995067880667
 30
0.0
 10
29.10762124382373
 20
-77.16772283738229
 30
0.0
  0
SPLINE
  5
87
330
1F
100
AcDbEntity
  8
0
  6
Continuous
 62
     7
370
    25
100
AcDbSpline
210
0.0
220
0.0
230
1.0
 70
     8
 71
     3
 72
    15
 73
    11
 74
     0
 42
0.000000001
 43
0.0000000001
 40
0.0
 40
0.0
 40
0.0
 40
0.0
 40
0.1280448079611138
 40
0.2537679000244856
 40
0.3774284265813023
 40
0.5005508414825366
 40
0.623295883242475
 40
0.7465783319335047
 40
0.8723475406047191
 40
1.0
 40
1.0
 40
1.0
 40
1.0
 10
27.25866291049041
 20
-79.06876450404896
 30
0.0
 10
27.2601759695341
 20
-79.01262903202384
 30
0.0
 10
27.26317465274704
 20
-78.90137593961407
 30
0.0
 10
27.28207577759514
 20
-78.73671087599935
 30
0.0
 10
27.3155733391209
 20
-78.57667022952998
 30
0.0
 10
27.36153951619109
 20
-78.42112101814588
 30
0.0
 10
27.42089843930999
 20
-78.27032368388285
 30
0.0
 10
27.49351589533318
 20
-78.12418645013557
 30
0.0
 10
27.57950500645999
 20
-77.98286482176341
 30
0.0
 10
27.64589454039782
 20
-77.89371748789516
 30
0.0
 10
27.67933598741347
 20
-77.84881258097205
 30
0.0
  0
SPLINE
  5
88
330
1F
100
AcDbEntity
  8
0
  6
Continuous
 62
     7
370
    25
100
AcDbSpline
210
0.0
220
0.0
230
1.0
 70
     8
 71
     3
 72
    23
 73
    19
 74
     0
 42
0.000000001
 43
0.0000000001
 40
0.0
 40
0.0
 40
0.0
 40
0.0
 40
0.0715786576891416
 40
0.1396292246928467
 40
0.2047966973966654
 40
0.2681349633966805
 40
0.3298137469867282
 40
0.3913013977745589
 40
0.4534335150970537
 40
0.5165516903197675
 40
0.5796312707049209
 40
0.641118921492751
 40
0.701294046698771
 40
0.7608103356761328
 40
0.8199317217781416
 40
0.8789195754993794
 40
0.9389828222504448
 40
1.0
 40
1.0
 40
1.0
 40
1.0
 10
29.0966036156186
 20
-80.94977411943357
 30
0.0
 10
29.02640079056797
 20
-80.9481352975342
 30
0.0
 10
28.88945541677181
 20
-80.94493843077795
 30
0.0
 10
28.69011292089631
 20
-80.91737776730019
 30
0.0
 10
28.50242803747126
 20
-80.87241725488055
 30
0.0
 10
28.32641131839469
 20
-80.80960933846451
 30
0.0
 10
28.16249381471248
 20
-80.72757030404982
 30
0.0
 10
28.01034973640973
 20
-80.62762818718736
 30
0.0
 10
27.86917898516834
 20
-80.51029639477514
 30
0.0
 10
27.74343011490384
 20
-80.37455861836519
 30
0.0
 10
27.63022456817463
 20
-80.22929867937174
 30
0.0
 10
27.53033053963795
 20
-80.07793313010608
 30
0.0
 10
27.44681992385302
 20
-79.92084280942904
 30
0.0
 10
27.37888762357342
 20
-79.75902777508114
 30
0.0
 10
27.32402353075943
 20
-79.59350792716238
 30
0.0
 10
27.2857853825178
 20
-79.42277725920636
 30
0.0
 10
27.26374288540058
 20
-79.24729785314894
 30
0.0
 10
27.2603651060615
 20
-79.12858737355216
 30
0.0
 10
27.25866291049041
 20
-79.06876450404896
 30
0.0
  0
SPLINE
  5
89
330
1F
100
AcDbEntity
  8
0
  6
Continuous
 62
     7
370
    25
100
AcDbSpline
210
0.0
220
0.0
230
1.0
 70
     8
 71
     3
 72
    19
 73
    15
 74
     0
 42
0.000000001
 43
0.0000000001
 40
0.0
 40
0.0
 40
0.0
 40
0.0
 40
0.0933698567361992
 40
0.1816607660710052
 40
0.2658742270426177
 40
0.3463547840343101
 40
0.4245998617178942
 40
0.5019031838373781
 40
0.5799920909873486
 40
0.6584434305294308
 40
0.738672236487833
 40
0.8218941484362435
 40
0.9088007920466143
 40
1.0
 40
1.0
 40
1.0
 40
1.0
 10
30.78430393613142
 20
-79.94116033738229
 30
0.0
 10
30.75253737150289
 20
-79.9975079534899
 30
0.0
 10
30.6907322165248
 20
-80.10713810037234
 30
0.0
 10
30.5844454338237
 20
-80.25775504390386
 30
0.0
 10
30.47302818728341
 20
-80.39325178081638
 30
0.0
 10
30.35145109013547
 20
-80.51000842979336
 30
0.0
 10
30.22335154877257
 20
-80.61179612261364
 30
0.0
 10
30.08801918479302
 20
-80.70085015792646
 30
0.0
 10
29.94474944517112
 20
-80.77673375842046
 30
0.0
 10
29.79353555263073
 20
-80.84066594109584
 30
0.0
 10
29.63310762242859
 20
-80.88982236125
 30
0.0
 10
29.46307688469997
 20
-80.92454267685146
 30
0.0
 10
29.28311760558741
 20
-80.94600448920923
 30
0.0
 10
29.15976592006205
 20
-80.94849754746215
 30
0.0
 10
29.0966036156186
 20
-80.94977411943357
 30
0.0
  0
SPLINE
  5
8B
330
1F
100
AcDbEntity
  8
0
  6
Continuous
 62
     7
370
    25
100
AcDbSpline
210
0.0
220
0.0
230
1.0
 70
     8
 71
     3
 72
    19
 73
    15
 74
     0
 42
0.000000001
 43
0.0000000001
 40
0.0
 40
0.0
 40
0.0
 40
0.0
 40
0.0825922633314355
 40
0.1638788940984958
 40
0.2456587396295032
 40
0.3277256953541215
 40
0.408609960910318
 40
0.4857490859539292
 40
0.5591690561972756
 40
0.6302684758575419
 40
0.7053060284320697
 40
0.7920649660966081
 40
0.8897964374100848
 40
1.0
 40
1.0
 40
1.0
 40
1.0
 10
29.04051387202887
 20
-80.50105617071563
 30
0.0
 10
29.08530122574889
 20
-80.50018751834434
 30
0.0
 10
29.17416792707396
 20
-80.49846394540644
 30
0.0
 10
29.30651200899265
 20
-80.4817040726764
 30
0.0
 10
29.4367113338491
 20
-80.45460367893195
 30
0.0
 10
29.56422702423085
 20
-80.41761797881243
 30
0.0
 10
29.68647108982614
 20
-80.37250819008855
 30
0.0
 10
29.79967901848505
 20
-80.31807553630416
 30
0.0
 10
29.90379361223665
 20
-80.25786161238569
 30
0.0
 10
30.00110356450279
 20
-80.18899064803079
 30
0.0
 10
30.09549069786284
 20
-80.1046932380265
 30
0.0
 10
30.18912282131246
 20
-79.99949935089997
 30
0.0
 10
30.28951804040286
 20
-79.87508859692337
 30
0.0
 10
30.3523603157511
 20
-79.78145193124065
 30
0.0
 10
30.3856661156186
 20
-79.73182540148484
 30
0.0
  0
SPLINE
  5
8C
330
1F
100
AcDbEntity
  8
0
  6
Continuous
 62
     7
370
    25
100
AcDbSpline
210
0.0
220
0.0
230
1.0
 70
     8
 71
     3
 72
    23
 73
    19
 74
     0
 42
0.000000001
 43
0.0000000001
 40
0.0
 40
0.0
 40
0.0
 40
0.0
 40
0.0683846151037693
 40
0.1344755875434512
 40
0.1983910577839565
 40
0.2607534774484881
 40
0.3218292228076463
 40
0.3830372384795223
 40
0.4446531231064245
 40
0.5073980112040023
 40
0.5698252379730244
 40
0.6307776406313132
 40
0.6909286865237171
 40
0.7509451326917363
 40
0.8110494767293268
 40
0.8723308525469926
 40
0.9350040935894048
 40
1.0
 40
1.0
 40
1.0
 40
1.0
 10
27.70738085920835
 20
-79.15490232456177
 30
0.0
 10
27.70958029696429
 20
-79.20304584491479
 30
0.0
 10
27.71390540260456
 20
-79.29771813598579
 30
0.0
 10
27.73406989284233
 20
-79.43624782610362
 30
0.0
 10
27.76585385537696
 20
-79.56820974348024
 30
0.0
 10
27.81052394486053
 20
-79.69261408915662
 30
0.0
 10
27.8646194380818
 20
-79.81108569989273
 30
0.0
 10
27.93088474777598
 20
-79.92274575270505
 30
0.0
 10
28.0099412534224
 20
-80.02708565277631
 30
0.0
 10
28.09812082397152
 20
-80.12503870648085
 30
0.0
 10
28.19627381730809
 20
-80.21226836529178
 30
0.0
 10
28.29953488476696
 20
-80.29034233134082
 30
0.0
 10
28.40938283475149
 20
-80.35577889809699
 30
0.0
 10
28.52495152545716
 20
-80.40889302631626
 30
0.0
 10
28.64605407566311
 20
-80.45047347782924
 30
0.0
 10
28.77272864011418
 20
-80.47885607880479
 30
0.0
 10
28.9047259491924
 20
-80.49786623148323
 30
0.0
 10
28.99470556923921
 20
-80.49998003891253
 30
0.0
 10
29.04051387202887
 20
-80.50105617071563
 30
0.0
  0
CIRCLE
  5
FD
330
1F
100
AcDbEntity
  8
0
  6
Continuous
 62
     7
370
    25
100
AcDbCircle
 10
-47.8382749904
 20
-62.8218440281
 30
0.0
 40
6.34999999999998
  0
CIRCLE
  5
FE
330
1F
100
AcDbEntity
  8
0
  6
Continuous
 62
     7
370
    25
100
AcDbCircle
 10
-8.837244084399999
 20
-71.88567155529999
 30
0.0
 40
1.749999999999985
  0
CIRCLE
  5
FF
330
1F
100
AcDbEntity
  8
0
  6
Continuous
 62
     7
370
    25
100
AcDbCircle
 10
31.1627559156
 20
-61.8856715553
 30
0.0
 40
3.599999999999984
  0
CIRCLE
  5
100
330
1F
100
AcDbEntity
  8
0
  6
Continuous
 62
     7
370
    25
100
AcDbCircle
 10
63.1627559156
 20
-58.8856715553
 30
0.0
 40
1.600000000000015
  0
CIRCLE
  5
102
330
1F
100
AcDbEntity
  8
0
  6
Continuous
 62
     7
370
    25
100
AcDbCircle
 10
-8.837244084399999
 20
-51.5656715553
 30
0.0
 40
1.750000000000011
  0
CIRCLE
  5
10F
330
1F
100
AcDbEntity
  8
0
  6
Continuous
 62
     7
370
    25
100
AcDbCircle
 10
-8.837244084399999
 20
-80.88567155529998
 30
0.0
 40
1.600000000000004
  0
CIRCLE
  5
110
330
1F
100
AcDbEntity
  8
0
  6
Continuous
 62
     7
370
    25
100
AcDbCircle
 10
-8.837244084399999
 20
-42.8856715553
 30
0.0
 40
1.600000000000002
  0
SPLINE
  5
132
330
1F
100
AcDbEntity
  8
0
  6
Continuous
 62
     7
370
    25
100
AcDbSpline
210
0.0
220
0.0
230
1.0
 70
     8
 71
     3
 72
    15
 73
    11
 74
     0
 42
0.000000001
 43
0.0000000001
 40
0.0
 40
0.0
 40
0.0
 40
0.0
 40
0.0769954547170669
 40
0.1676150771831736
 40
0.2710523936342413
 40
0.3894595025720776
 40
0.5208428024655786
 40
0.66639875860807
 40
0.8260936125153158
 40
1.0
 40
1.0
 40
1.0
 40
1.0
 10
21.36623502587501
 20
-78.58398886302335
 30
0.0
 10
21.36060695648116
 20
-78.60863915310033
 30
0.0
 10
21.34835494382266
 20
-78.66230154510808
 30
0.0
 10
21.33512182973858
 20
-78.75036500137179
 30
0.0
 10
21.32311100773618
 20
-78.85223639421774
 30
0.0
 10
21.31305820970965
 20
-78.96779684715467
 30
0.0
 10
21.30690761475167
 20
-79.09745095446542
 30
0.0
 10
21.30020133364645
 20
-79.24064500847109
 30
0.0
 10
21.29775981783734
 20
-79.39794999183693
 30
0.0
 10
21.29734216924084
 20
-79.50746669572946
 30
0.0
 10
21.29712444895193
 20
-79.56455777327976
 30
0.0
  0
SPLINE
  5
133
330
1F
100
AcDbEntity
  8
0
  6
Continuous
 62
     7
370
    25
100
AcDbSpline
210
0.0
220
0.0
230
1.0
 70
     8
 71
     3
 72
    23
 73
    19
 74
     0
 42
0.000000001
 43
0.0000000001
 40
0.0
 40
0.0
 40
0.0
 40
0.0
 40
0.063986109816466
 40
0.1266268580894763
 40
0.1889843719814874
 40
0.2502301939603969
 40
0.3123511629623213
 40
0.3745736184579412
 40
0.4381475308782039
 40
0.5029204126073747
 40
0.5679740951402734
 40
0.6307713337491931
 40
0.6929346089254614
 40
0.7543975343123332
 40
0.8152183520172957
 40
0.8761169254810958
 40
0.9380146047939527
 40
1.0
 40
1.0
 40
1.0
 40
1.0
 10
22.60922380792629
 20
-77.61644078610027
 30
0.0
 10
22.57312711706221
 20
-77.61712079276247
 30
0.0
 10
22.50169269848826
 20
-77.61846650837736
 30
0.0
 10
22.39576416719374
 20
-77.63196836269585
 30
0.0
 10
22.2930153483681
 20
-77.65405187069356
 30
0.0
 10
22.19241504980413
 20
-77.68386420997801
 30
0.0
 10
22.09597534446835
 20
-77.7248103088676
 30
0.0
 10
22.00059778563952
 20
-77.77128083776031
 30
0.0
 10
21.90987383688261
 20
-77.8292068548822
 30
0.0
 10
21.82186898384195
 20
-77.89376488551045
 30
0.0
 10
21.73999354433741
 20
-77.96530661007844
 30
0.0
 10
21.66381020375077
 20
-78.04079876743969
 30
0.0
 10
21.59589874624919
 20
-78.12119248714842
 30
0.0
 10
21.53437206727247
 20
-78.20519241218992
 30
0.0
 10
21.48126026244737
 20
-78.29395218075723
 30
0.0
 10
21.43489870807265
 20
-78.38661547572694
 30
0.0
 10
21.3955620012273
 20
-78.48330425976103
 30
0.0
 10
21.37601529769895
 20
-78.55041149009068
 30
0.0
 10
21.36623502587501
 20
-78.58398886302335
 30
0.0
  0
SPLINE
  5
134
330
1F
100
AcDbEntity
  8
0
  6
Continuous
 62
     7
370
    25
100
AcDbSpline
210
0.0
220
0.0
230
1.0
 70
     8
 71
     3
 72
    15
 73
    11
 74
     0
 42
0.000000001
 43
0.0000000001
 40
0.0
 40
0.0
 40
0.0
 40
0.0
 40
0.1355195283706085
 40
0.2608331631936842
 40
0.3784760291245046
 40
0.4931776464746805
 40
0.6092809649289399
 40
0.7299810378566433
 40
0.8592613089300662
 40
1.0
 40
1.0
 40
1.0
 40
1.0
 10
23.55173182074681
 20
-78.33559142712592
 30
0.0
 10
23.5365524900235
 20
-78.27886116291498
 30
0.0
 10
23.50733697477392
 20
-78.16967295630845
 30
0.0
 10
23.43514557030943
 20
-78.02156673827781
 30
0.0
 10
23.34398245489889
 20
-77.89556932709309
 30
0.0
 10
23.23269981294866
 20
-77.79245972477255
 30
0.0
 10
23.10237256203383
 20
-77.71221567233681
 30
0.0
 10
22.95336235807979
 20
-77.65653859415529
 30
0.0
 10
22.78710715711933
 20
-77.62171535244258
 30
0.0
 10
22.67017232472865
 20
-77.61824802099211
 30
0.0
 10
22.60922380792629
 20
-77.61644078610027
 30
0.0
  0
SPLINE
  5
135
330
1F
100
AcDbEntity
  8
0
  6
Continuous
 62
     7
370
    25
100
AcDbSpline
210
0.0
220
0.0
230
1.0
 70
     8
 71
     3
 72
    15
 73
    11
 74
     0
 42
0.000000001
 43
0.0000000001
 40
0.0
 40
0.0
 40
0.0
 40
0.0
 40
0.1788500194111605
 40
0.3421096489422981
 40
0.4898256633683861
 40
0.6232544282245601
 40
0.7400796760857949
 40
0.8414826730699923
 40
0.9289076721840658
 40
1.0
 40
1.0
 40
1.0
 40
1.0
 10
23.60481675664423
 20
-79.16692155533103
 30
0.0
 10
23.60454074518861
 20
-79.11717520543281
 30
0.0
 10
23.60401278224791
 20
-79.02201890432715
 30
0.0
 10
23.60234757269857
 20
-78.88577744262666
 30
0.0
 10
23.59833356326576
 20
-78.76222518776555
 30
0.0
 10
23.59269311624285
 20
-78.65165752004351
 30
0.0
 10
23.58443735834391
 20
-78.5541806106673
 30
0.0
 10
23.57583359927248
 20
-78.46959592961231
 30
0.0
 10
23.56531220384828
 20
-78.39801086899399
 30
0.0
 10
23.55593661365234
 20
-78.35491789416096
 30
0.0
 10
23.55173182074681
 20
-78.33559142712592
 30
0.0
  0
SPLINE
  5
139
330
1F
100
AcDbEntity
  8
0
  6
Continuous
 62
     7
370
    25
100
AcDbSpline
210
0.0
220
0.0
230
1.0
 70
     8
 71
     3
 72
    23
 73
    19
 74
     0
 42
0.000000001
 43
0.0000000001
 40
0.0
 40
0.0
 40
0.0
 40
0.0
 40
0.0772404236164788
 40
0.1511781404663838
 40
0.2234879838003992
 40
0.2955426441988683
 40
0.3669762546197898
 40
0.4371305254863855
 40
0.5070436156432696
 40
0.5785597335236799
 40
0.616613544696556
 40
0.6587562369775277
 40
0.7044912261144049
 40
0.754803114905153
 40
0.809331625318569
 40
0.8682744554728225
 40
0.9320728834092946
 40
1.0
 40
1.0
 40
1.0
 40
1.0
 10
22.68734880792629
 20
-77.16772283738233
 30
0.0
 10
22.75496399952136
 20
-77.17021597372689
 30
0.0
 10
22.88730323918396
 20
-77.17509564293184
 30
0.0
 10
23.07998618401545
 20
-77.21369091594765
 30
0.0
 10
23.25994817499658
 20
-77.27961270898288
 30
0.0
 10
23.42654754040813
 20
-77.36991566670147
 30
0.0
 10
23.57672927378333
 20
-77.48221062870694
 30
0.0
 10
23.70862191874928
 20
-77.61303603121999
 30
0.0
 10
23.81771227214584
 20
-77.76351615012806
 30
0.0
 10
23.89085136214542
 20
-77.90312065903744
 30
0.0
 10
23.93903085884684
 20
-78.0269617937129
 30
0.0
 10
23.96936276958087
 20
-78.13302857956838
 30
0.0
 10
23.99512131452282
 20
-78.25119736695278
 30
0.0
 10
24.01745238311954
 20
-78.3811110656019
 30
0.0
 10
24.03256254293018
 20
-78.52367990881956
 30
0.0
 10
24.04448010226055
 20
-78.67831946889514
 30
0.0
 10
24.053021094101
 20
-78.84497965531742
 30
0.0
 10
24.05335996122492
 20
-78.96024626590295
 30
0.0
 10
24.0535347053622
 20
-79.01968597840795
 30
0.0
  0
SPLINE
  5
13A
330
1F
100
AcDbEntity
  8
0
  6
Continuous
 62
     7
370
    25
100
AcDbSpline
210
0.0
220
0.0
230
1.0
 70
     8
 71
     3
 72
    15
 73
    11
 74
     0
 42
0.000000001
 43
0.0000000001
 40
0.0
 40
0.0
 40
0.0
 40
0.0
 40
0.1409759662687694
 40
0.2735687809631734
 40
0.3989883138042534
 40
0.5199297813924328
 40
0.6381100215247468
 40
0.7565889007405954
 40
0.8768597544106079
 40
1.0
 40
1.0
 40
1.0
 40
1.0
 10
21.29712444895193
 20
-77.89087988866437
 30
0.0
 10
21.34503535628353
 20
-77.83110457032491
 30
0.0
 10
21.43800814349291
 20
-77.71510847962506
 30
0.0
 10
21.59284290531491
 20
-77.56265051596777
 30
0.0
 10
21.75647704863294
 20
-77.43701448018952
 30
0.0
 10
21.92790848218602
 20
-77.33686620312623
 30
0.0
 10
22.10736992518593
 20
-77.26137102291385
 30
0.0
 10
22.29376745370462
 20
-77.20684826421998
 30
0.0
 10
22.48821703383007
 20
-77.1741556520206
 30
0.0
 10
22.62045194364941
 20
-77.16988389444984
 30
0.0
 10
22.68734880792629
 20
-77.16772283738233
 30
0.0
  0
SPLINE
  5
16F
330
1F
100
AcDbEntity
  8
0
  6
Continuous
 62
     7
370
    25
100
AcDbSpline
210
0.0
220
0.0
230
1.0
 70
     8
 71
     3
 72
    15
 73
    11
 74
     0
 42
0.000000001
 43
0.0000000001
 40
0.0
 40
0.0
 40
0.0
 40
0.0
 40
0.1201621349925749
 40
0.2375463202768725
 40
0.3574970509273458
 40
0.4849171224652656
 40
0.6133292680851282
 40
0.7401503701286906
 40
0.8673012545632573
 40
1.0
 40
1.0
 40
1.0
 40
1.0
 10
39.37404752587503
 20
-76.07998245276689
 30
0.0
 10
39.3725015832681
 20
-76.10521481442862
 30
0.0
 10
39.369445437689
 20
-76.15509620730674
 30
0.0
 10
39.34499616875846
 20
-76.22677259595302
 30
0.0
 10
39.30639297184061
 20
-76.29335014378646
 30
0.0
 10
39.2521085066604
 20
-76.35116544408965
 30
0.0
 10
39.18838170522914
 20
-76.40039490121897
 30
0.0
 10
39.11659772544329
 20
-76.43711595679754
 30
0.0
 10
39.03774708470825
 20
-76.45877329589146
 30
0.0
 10
38.98322217158225
 20
-76.46130285123267
 30
0.0
 10
38.95537765408015
 20
-76.46259463225409
 30
0.0
  0
SPLINE
  5
170
330
1F
100
AcDbEntity
  8
0
  6
Continuous
 62
     7
370
    25
100
AcDbSpline
210
0.0
220
0.0
230
1.0
 70
     8
 71
     3
 72
    15
 73
    11
 74
     0
 42
0.000000001
 43
0.0000000001
 40
0.0
 40
0.0
 40
0.0
 40
0.0
 40
0.1318992643310804
 40
0.258284092316974
 40
0.384341124779101
 40
0.5119796151257168
 40
0.6386320084211384
 40
0.7592297631645807
 40
0.8774121680351983
 40
1.0
 40
1.0
 40
1.0
 40
1.0
 10
38.95537765408015
 20
-75.69336386302331
 30
0.0
 10
38.98322239092035
 20
-75.69465550930295
 30
0.0
 10
39.03774773355246
 20
-75.69718480079384
 30
0.0
 10
39.11659525880426
 20
-75.71884405376327
 30
0.0
 10
39.18839099034047
 20
-75.75555789011255
 30
0.0
 10
39.2520734658974
 20
-75.8048145771134
 30
0.0
 10
39.3067190182988
 20
-75.86274235348374
 30
0.0
 10
39.34497717597795
 20
-75.93025802247694
 30
0.0
 10
39.3695663132855
 20
-76.00319893503247
 30
0.0
 10
39.37253567796771
 20
-76.05407763386259
 30
0.0
 10
39.37404752587503
 20
-76.07998245276689
 30
0.0
  0
SPLINE
  5
171
330
1F
100
AcDbEntity
  8
0
  6
Continuous
 62
     7
370
    25
100
AcDbSpline
210
0.0
220
0.0
230
1.0
 70
     8
 71
     3
 72
    15
 73
    11
 74
     0
 42
0.000000001
 43
0.0000000001
 40
0.0
 40
0.0
 40
0.0
 40
0.0
 40
0.1232898687278029
 40
0.2421490813339751
 40
0.3634374760537432
 40
0.4897453933413737
 40
0.6181148445930085
 40
0.7448937812572482
 40
0.8689322665891936
 40
1.0
 40
1.0
 40
1.0
 40
1.0
 10
38.54071419254169
 20
-76.07998245276689
 30
0.0
 10
38.54223003056575
 20
-76.05408123904874
 30
0.0
 10
38.545207232089
 20
-76.00320962103168
 30
0.0
 10
38.56973882657251
 20
-75.93021671686641
 30
0.0
 10
38.60810998051804
 20
-75.86310028571903
 30
0.0
 10
38.66165364270879
 20
-75.80449242939629
 30
0.0
 10
38.72541572880935
 20
-75.75557037972612
 30
0.0
 10
38.79661107904727
 20
-75.7192689775802
 30
0.0
 10
38.8742749353024
 20
-75.69702420705124
 30
0.0
 10
38.92785132957179
 20
-75.69460618657354
 30
0.0
 10
38.95537765408015
 20
-75.69336386302331
 30
0.0
  0
SPLINE
  5
172
330
1F
100
AcDbEntity
  8
0
  6
Continuous
 62
     7
370
    25
100
AcDbSpline
210
0.0
220
0.0
230
1.0
 70
     8
 71
     3
 72
    15
 73
    11
 74
     0
 42
0.000000001
 43
0.0000000001
 40
0.0
 40
0.0
 40
0.0
 40
0.0
 40
0.1318667517023263
 40
0.2566614034533631
 40
0.384213212942499
 40
0.5133652331525878
 40
0.640443151825397
 40
0.7610850047778897
 40
0.8791455246531759
 40
1.0
 40
1.0
 40
1.0
 40
1.0
 10
38.95537765408015
 20
-76.46259463225409
 30
0.0
 10
38.9278515466991
 20
-76.46135217479453
 30
0.0
 10
38.87427557503965
 20
-76.45893389367983
 30
0.0
 10
38.7966086574079
 20
-76.43669101119939
 30
0.0
 10
38.72542510113171
 20
-76.40038233534148
 30
0.0
 10
38.66161842590556
 20
-76.35148778520549
 30
0.0
 10
38.60843243571678
 20
-76.29299507487735
 30
0.0
 10
38.56972054229311
 20
-76.22681322651006
 30
0.0
 10
38.54532773959939
 20
-76.15508586277012
 30
0.0
 10
38.54226398443554
 20
-76.10521133947134
 30
0.0
 10
38.54071419254169
 20
-76.07998245276689
 30
0.0
  0
SPLINE
  5
173
330
1F
100
AcDbEntity
  8
0
  6
Continuous
 62
     7
370
    25
100
AcDbSpline
210
0.0
220
0.0
230
1.0
 70
     8
 71
     3
 72
    11
 73
     7
 74
     0
 42
0.000000001
 43
0.0000000001
 40
0.0
 40
0.0
 40
0.0
 40
0.0
 40
0.2462523706930018
 40
0.4925907964763758
 40
0.7405699911180966
 40
1.0
 40
1.0
 40
1.0
 40
1.0
 10
36.14387925664425
 20
-78.68915713225411
 30
0.0
 10
36.11797839999239
 20
-78.64752053934598
 30
0.0
 10
36.06616763540295
 20
-78.56423280325049
 30
0.0
 10
36.01586021943422
 20
-78.42521783649033
 30
0.0
 10
35.98128017818118
 20
-78.27886775459129
 30
0.0
 10
35.97819104936785
 20
-78.17788653409694
 30
0.0
 10
35.97661162843912
 20
-78.12625649122846
 30
0.0
  0
SPLINE
  5
174
330
1F
100
AcDbEntity
  8
0
  6
Continuous
 62
     7
370
    25
100
AcDbSpline
210
0.0
220
0.0
230
1.0
 70
     8
 71
     3
 72
    15
 73
    11
 74
     0
 42
0.000000001
 43
0.0000000001
 40
0.0
 40
0.0
 40
0.0
 40
0.0
 40
0.1577616635135548
 40
0.305950213208544
 40
0.4437754990007268
 40
0.5728243624015431
 40
0.6921541564432445
 40
0.8022957069908514
 40
0.9055643918329971
 40
1.0
 40
1.0
 40
1.0
 40
1.0
 10
36.77388726946477
 20
-79.18795520917718
 30
0.0
 10
36.73667778369419
 20
-79.16718502108534
 30
0.0
 10
36.66451671584443
 20
-79.12690499783034
 30
0.0
 10
36.56230630022176
 20
-79.06416774031844
 30
0.0
 10
36.47009579419498
 20
-79.00035734791813
 30
0.0
 10
36.38566640196251
 20
-78.93905329184708
 30
0.0
 10
36.31115067956615
 20
-78.87702337192205
 30
0.0
 10
36.24684218198761
 20
-78.8141987269685
 30
0.0
 10
36.19020901651398
 20
-78.7531130325695
 30
0.0
 10
36.15885557118367
 20
-78.70983118026273
 30
0.0
 10
36.14387925664425
 20
-78.68915713225411
 30
0.0
  0
SPLINE
  5
175
330
1F
100
AcDbEntity
  8
0
  6
Continuous
 62
     7
370
    25
100
AcDbSpline
210
0.0
220
0.0
230
1.0
 70
     8
 71
     3
 72
    15
 73
    11
 74
     0
 42
0.000000001
 43
0.0000000001
 40
0.0
 40
0.0
 40
0.0
 40
0.0
 40
0.0768750740350501
 40
0.167461675725719
 40
0.2722700232466398
 40
0.3895508405125285
 40
0.5208013683480612
 40
0.6662632933752297
 40
0.8255449152058698
 40
1.0
 40
1.0
 40
1.0
 40
1.0
 10
37.3277734874135
 20
-79.56455777327973
 30
0.0
 10
37.31631292394579
 20
-79.55165011306291
 30
0.0
 10
37.29134767757494
 20
-79.52353256733388
 30
0.0
 10
37.24555447576701
 20
-79.48292531181731
 30
0.0
 10
37.19072324405163
 20
-79.43915659874114
 30
0.0
 10
37.12623729700557
 20
-79.39296861454294
 30
0.0
 10
37.05196663709477
 20
-79.34497060698269
 30
0.0
 10
36.96761024368072
 20
-79.2954143894834
 30
0.0
 10
36.87432374004014
 20
-79.2419462097856
 30
0.0
 10
36.80836569530029
 20
-79.20648955929521
 30
0.0
 10
36.77388726946477
 20
-79.18795520917718
 30
0.0
  0
SPLINE
  5
176
330
1F
100
AcDbEntity
  8
0
  6
Continuous
 62
     7
370
    25
100
AcDbSpline
210
0.0
220
0.0
230
1.0
 70
     8
 71
     3
 72
    11
 73
     7
 74
     0
 42
0.000000001
 43
0.0000000001
 40
0.0
 40
0.0
 40
0.0
 40
0.0
 40
0.2534754346498719
 40
0.5004533151028927
 40
0.7455781350009764
 40
1.0
 40
1.0
 40
1.0
 40
1.0
 10
37.4509706027981
 20
-79.91311546558744
 30
0.0
 10
37.44941875374266
 20
-79.88124458178444
 30
0.0
 10
37.44635483551564
 20
-79.81831978800122
 30
0.0
 10
37.42229301836629
 20
-79.72724787222387
 30
0.0
 10
37.38427465799517
 20
-79.6408631855348
 30
0.0
 10
37.34683944606122
 20
-79.59030654661798
 30
0.0
 10
37.3277734874135
 20
-79.56455777327973
 30
0.0
  0
SPLINE
  5
177
330
1F
100
AcDbEntity
  8
0
  6
Continuous
 62
     7
370
    25
100
AcDbSpline
210
0.0
220
0.0
230
1.0
 70
     8
 71
     3
 72
    15
 73
    11
 74
     0
 42
0.000000001
 43
0.0000000001
 40
0.0
 40
0.0
 40
0.0
 40
0.0
 40
0.1340420464623775
 40
0.2618956736507377
 40
0.3878360446911224
 40
0.5176862058208315
 40
0.64450865367822
 40
0.7647182630567327
 40
0.8802907821584977
 40
1.0
 40
1.0
 40
1.0
 40
1.0
 10
36.80593855151605
 20
-80.50105617071563
 30
0.0
 10
36.84924987431324
 20
-80.49909784948676
 30
0.0
 10
36.93387293371918
 20
-80.49527161830791
 30
0.0
 10
37.05507830316775
 20
-80.46053291540813
 30
0.0
 10
37.16699062666841
 20
-80.40606155565807
 30
0.0
 10
37.26416683455251
 20
-80.32879770114362
 30
0.0
 10
37.34688420750618
 20
-80.23886116885835
 30
0.0
 10
37.4067815995172
 20
-80.13755528414359
 30
0.0
 10
37.44431899303276
 20
-80.02785320315895
 30
0.0
 10
37.44872756254127
 20
-79.95180705656029
 30
0.0
 10
37.4509706027981
 20
-79.91311546558744
 30
0.0
  0
SPLINE
  5
178
330
1F
100
AcDbEntity
  8
0
  6
Continuous
 62
     7
370
    25
100
AcDbSpline
210
0.0
220
0.0
230
1.0
 70
     8
 71
     3
 72
    15
 73
    11
 74
     0
 42
0.000000001
 43
0.0000000001
 40
0.0
 40
0.0
 40
0.0
 40
0.0
 40
0.1474758177483677
 40
0.2859041715443819
 40
0.4171716482444442
 40
0.5405007435864984
 40
0.6592377183802409
 40
0.775006098315957
 40
0.8872285734286393
 40
1.0
 40
1.0
 40
1.0
 40
1.0
 10
36.08177989766989
 20
-80.11644078610027
 30
0.0
 10
36.11002620192195
 20
-80.14694759256856
 30
0.0
 10
36.16478593365072
 20
-80.206089649639
 30
0.0
 10
36.25235910050397
 20
-80.28483870774103
 30
0.0
 10
36.34147253065118
 20
-80.35084052364396
 30
0.0
 10
36.43123636861446
 20
-80.40604540191814
 30
0.0
 10
36.52297936050522
 20
-80.44858169214327
 30
0.0
 10
36.61618738083904
 20
-80.47846539772843
 30
0.0
 10
36.71067084378393
 20
-80.49767138662181
 30
0.0
 10
36.77413103781232
 20
-80.4999260756497
 30
0.0
 10
36.80593855151605
 20
-80.50105617071563
 30
0.0
  0
SPLINE
  5
17A
330
1F
100
AcDbEntity
  8
0
  6
Continuous
 62
     7
370
    25
100
AcDbSpline
210
0.0
220
0.0
230
1.0
 70
     8
 71
     3
 72
    15
 73
    11
 74
     0
 42
0.000000001
 43
0.0000000001
 40
0.0
 40
0.0
 40
0.0
 40
0.0
 40
0.1267425189618462
 40
0.251723961249604
 40
0.3772186880262439
 40
0.5046935492516268
 40
0.6314582385934885
 40
0.7554010672029522
 40
0.8777005336014779
 40
1.0
 40
1.0
 40
1.0
 40
1.0
 10
36.82897541049041
 20
-80.94977411943357
 30
0.0
 10
36.77845087415045
 20
-80.94835597611137
 30
0.0
 10
36.67810383566668
 20
-80.94553939444947
 30
0.0
 10
36.52968995116849
 20
-80.91910216421558
 30
0.0
 10
36.38466029593325
 20
-80.87796588711901
 30
0.0
 10
36.24411238120987
 20
-80.82122883832175
 30
0.0
 10
36.11118936136838
 20
-80.74958496281132
 30
0.0
 10
35.98957375479566
 20
-80.66378154340242
 30
0.0
 10
35.87884309413746
 20
-80.56665297568256
 30
0.0
 10
35.81581698880011
 20
-80.49220596040546
 30
0.0
 10
35.78430393613142
 20
-80.45498245276689
 30
0.0
  0
SPLINE
  5
17B
330
1F
100
AcDbEntity
  8
0
  6
Continuous
 62
     7
370
    25
100
AcDbSpline
210
0.0
220
0.0
230
1.0
 70
     8
 71
     3
 72
    23
 73
    19
 74
     0
 42
0.000000001
 43
0.0000000001
 40
0.0
 40
0.0
 40
0.0
 40
0.0
 40
0.0645481255642536
 40
0.1271991327555159
 40
0.1885973380874287
 40
0.2486395150940115
 40
0.3095246994640591
 40
0.3700369910533497
 40
0.4318892436070725
 40
0.495704285725295
 40
0.5595193278435117
 40
0.6213715803972378
 40
0.6823971072916415
 40
0.7435684819321658
 40
0.8054984835712131
 40
0.8686397008205243
 40
0.9330662250811641
 40
1.0
 40
1.0
 40
1.0
 40
1.0
 10
37.89968855151606
 20
-79.89408501686948
 30
0.0
 10
37.89866064606544
 20
-79.93018379721924
 30
0.0
 10
37.89663504608511
 20
-80.00132038738168
 30
0.0
 10
37.8825520933168
 20
-80.10608442981169
 30
0.0
 10
37.85833069856938
 20
-80.20627665486371
 30
0.0
 10
37.82533962148791
 20
-80.30298420443733
 30
0.0
 10
37.78079051733964
 20
-80.39435411817652
 30
0.0
 10
37.72857937855202
 20
-80.48269161673035
 30
0.0
 10
37.66590093321513
 20
-80.56608580357229
 30
0.0
 10
37.59434182519115
 20
-80.644427175255
 30
0.0
 10
37.51599111950686
 20
-80.71597824299834
 30
0.0
 10
37.43241092185897
 20
-80.77886960566427
 30
0.0
 10
37.34349830670204
 20
-80.83111865880589
 30
0.0
 10
37.24988859038433
 20
-80.87435486629575
 30
0.0
 10
37.15136908456643
 20
-80.90873809193345
 30
0.0
 10
37.04792438558565
 20
-80.93254170801023
 30
0.0
 10
36.93988330762621
 20
-80.94678850957341
 30
0.0
 10
36.86641215315339
 20
-80.9487663326942
 30
0.0
 10
36.82897541049042
 20
-80.94977411943359
 30
0.0
  0
SPLINE
  5
17C
330
1F
100
AcDbEntity
  8
0
  6
Continuous
 62
     7
370
    25
100
AcDbSpline
210
0.0
220
0.0
230
1.0
 70
     8
 71
     3
 72
    11
 73
     7
 74
     0
 42
0.000000001
 43
0.0000000001
 40
0.0
 40
0.0
 40
0.0
 40
0.0
 40
0.2488386141270663
 40
0.4952350254576728
 40
0.7433356038750035
 40
1.0
 40
1.0
 40
1.0
 40
1.0
 10
37.72941611561861
 20
-79.32918117071563
 30
0.0
 10
37.75543115477868
 20
-79.37156129650206
 30
0.0
 10
37.80720591098327
 20
-79.45590561238076
 30
0.0
 10
37.86157486306322
 20
-79.59478908015625
 30
0.0
 10
37.89308954141009
 20
-79.74208979792364
 30
0.0
 10
37.89746414172949
 20
-79.84285011237606
 30
0.0
 10
37.89968855151606
 20
-79.89408501686948
 30
0.0
  0
SPLINE
  5
17D
330
1F
100
AcDbEntity
  8
0
  6
Continuous
 62
     7
370
    25
100
AcDbSpline
210
0.0
220
0.0
230
1.0
 70
     8
 71
     3
 72
    15
 73
    11
 74
     0
 42
0.000000001
 43
0.0000000001
 40
0.0
 40
0.0
 40
0.0
 40
0.0
 40
0.1589891012268022
 40
0.3071145916055746
 40
0.4462131585962127
 40
0.5748760724117329
 40
0.6941521095829613
 40
0.8045811801532378
 40
0.9065933190457579
 40
1.0
 40
1.0
 40
1.0
 40
1.0
 10
37.07136323100323
 20
-78.81636065789513
 30
0.0
 10
37.11023976971335
 20
-78.83813909048676
 30
0.0
 10
37.18533644122651
 20
-78.88020785104687
 30
0.0
 10
37.29204039444864
 20
-78.94550742748909
 30
0.0
 10
37.3888790244071
 20
-79.01040946216557
 30
0.0
 10
37.47667283533375
 20
-79.0742198534193
 30
0.0
 10
37.55373256225071
 20
-79.13872395001476
 30
0.0
 10
37.62239620889614
 20
-79.20144931711999
 30
0.0
 10
37.68095112879083
 20
-79.26429118609711
 30
0.0
 10
37.71374245263
 20
-79.30819563421149
 30
0.0
 10
37.72941611561861
 20
-79.32918117071563
 30
0.0
  0
SPLINE
  5
17E
330
1F
100
AcDbEntity
  8
0
  6
Continuous
 62
     7
370
    25
100
AcDbSpline
210
0.0
220
0.0
230
1.0
 70
     8
 71
     3
 72
    15
 73
    11
 74
     0
 42
0.000000001
 43
0.0000000001
 40
0.0
 40
0.0
 40
0.0
 40
0.0
 40
0.0834251049856391
 40
0.1775598214659784
 40
0.2839823599504502
 40
0.4022167468072225
 40
0.5335684803800559
 40
0.6761209941988264
 40
0.8316493725539833
 40
1.0
 40
1.0
 40
1.0
 40
1.0
 10
36.54952829510579
 20
-78.43975809379256
 30
0.0
 10
36.56090471477962
 20
-78.45373607141119
 30
0.0
 10
36.58511799022657
 20
-78.48348643505588
 30
0.0
 10
36.63055872590766
 20
-78.52477765422384
 30
0.0
 10
36.68201944427953
 20
-78.57040944133121
 30
0.0
 10
36.74390506961132
 20
-78.61603349415769
 30
0.0
 10
36.81354939516
 20
-78.66407881588094
 30
0.0
 10
36.89246265832251
 20
-78.71265329155905
 30
0.0
 10
36.97814052256686
 20
-78.76545961282804
 30
0.0
 10
37.03947953201918
 20
-78.79895166360483
 30
0.0
 10
37.07136323100323
 20
-78.81636065789513
 30
0.0
  0
SPLINE
  5
17F
330
1F
100
AcDbEntity
  8
0
  6
Continuous
 62
     7
370
    25
100
AcDbSpline
210
0.0
220
0.0
230
1.0
 70
     8
 71
     3
 72
    11
 73
     7
 74
     0
 42
0.000000001
 43
0.0000000001
 40
0.0
 40
0.0
 40
0.0
 40
0.0
 40
0.2400399314959908
 40
0.4794031936061258
 40
0.7317567388575607
 40
1.0
 40
1.0
 40
1.0
 40
1.0
 10
36.42532957715707
 20
-78.10822764507459
 30
0.0
 10
36.42691645182186
 20
-78.13710199386266
 30
0.0
 10
36.43008572777275
 20
-78.19476929503219
 30
0.0
 10
36.45472384093172
 20
-78.27983791480436
 30
0.0
 10
36.49396108690271
 20
-78.36277654079404
 30
0.0
 10
36.53063279302066
 20
-78.41358069272743
 30
0.0
 10
36.54952829510579
 20
-78.43975809379256
 30
0.0
  0
SPLINE
  5
180
330
1F
100
AcDbEntity
  8
0
  6
Continuous
 62
     7
370
    25
100
AcDbSpline
210
0.0
220
0.0
230
1.0
 70
     8
 71
     3
 72
    15
 73
    11
 74
     0
 42
0.000000001
 43
0.0000000001
 40
0.0
 40
0.0
 40
0.0
 40
0.0
 40
0.1249584925460658
 40
0.2459006286062702
 40
0.3691660295860795
 40
0.4985108411773618
 40
0.6285038663666187
 40
0.7510283288510036
 40
0.8737241742784471
 40
1.0
 40
1.0
 40
1.0
 40
1.0
 10
36.90008919254169
 20
-77.61644078610027
 30
0.0
 10
36.86846149276775
 20
-77.61797631892554
 30
0.0
 10
36.80622265571618
 20
-77.62099803020973
 30
0.0
 10
36.71704291523957
 20
-77.6511600735452
 30
0.0
 10
36.63425630807103
 20
-77.69745827134504
 30
0.0
 10
36.56260347949082
 20
-77.76312767642393
 30
0.0
 10
36.50190679374608
 20
-77.83850520332112
 30
0.0
 10
36.45760153514851
 20
-77.92278566744393
 30
0.0
 10
36.43050727282072
 20
-78.01342572988159
 30
0.0
 10
36.42707194133195
 20
-78.07632552655066
 30
0.0
 10
36.42532957715707
 20
-78.10822764507459
 30
0.0
  0
SPLINE
  5
181
330
1F
100
AcDbEntity
  8
0
  6
Continuous
 62
     7
370
    25
100
AcDbSpline
210
0.0
220
0.0
230
1.0
 70
     8
 71
     3
 72
    15
 73
    11
 74
     0
 42
0.000000001
 43
0.0000000001
 40
0.0
 40
0.0
 40
0.0
 40
0.0
 40
0.1582230975563145
 40
0.3050355053581626
 40
0.4413089638879031
 40
0.5659632271047172
 40
0.6835251144150535
 40
0.7933341296295957
 40
0.8985175121610035
 40
1.0
 40
1.0
 40
1.0
 40
1.0
 10
37.53109880792631
 20
-78.00105617071563
 30
0.0
 10
37.50482666002916
 20
-77.97060881880881
 30
0.0
 10
37.45417705175819
 20
-77.91190990873083
 30
0.0
 10
37.3738463646119
 20
-77.83342838515449
 30
0.0
 10
37.29381264521999
 20
-77.76751847237959
 30
0.0
 10
37.21517148297254
 20
-77.71187238822354
 30
0.0
 10
37.13594538429504
 20
-77.66980217878661
 30
0.0
 10
37.05706407267752
 20
-77.63909523315756
 30
0.0
 10
36.97844587479902
 20
-77.62009265364226
 30
0.0
 10
36.92589439591999
 20
-77.61764345550786
 30
0.0
 10
36.90008919254169
 20
-77.61644078610027
 30
0.0
  0
SPLINE
  5
183
330
1F
100
AcDbEntity
  8
0
  6
Continuous
 62
     7
370
    25
100
AcDbSpline
210
0.0
220
0.0
230
1.0
 70
     8
 71
     3
 72
    15
 73
    11
 74
     0
 42
0.000000001
 43
0.0000000001
 40
0.0
 40
0.0
 40
0.0
 40
0.0
 40
0.1057142614175201
 40
0.2134116126389982
 40
0.3261267300734733
 40
0.444451671556872
 40
0.5690610798550871
 40
0.7027122044812206
 40
0.8463179465861973
 40
1.0
 40
1.0
 40
1.0
 40
1.0
 10
36.90008919254169
 20
-77.16772283738231
 30
0.0
 10
36.93893499749261
 20
-77.16930046694999
 30
0.0
 10
37.0173553143701
 20
-77.17248532077836
 30
0.0
 10
37.13500478015311
 20
-77.19777916449941
 30
0.0
 10
37.25248098313517
 20
-77.23939788464154
 30
0.0
 10
37.37008576880321
 20
-77.29687821798204
 30
0.0
 10
37.48695761077958
 20
-77.3712594692395
 30
0.0
 10
37.60412454888775
 20
-77.46115846833705
 30
0.0
 10
37.72299316358797
 20
-77.56598377477877
 30
0.0
 10
37.79721646801852
 20
-77.64612552537873
 30
0.0
 10
37.83558598741347
 20
-77.68755456815153
 30
0.0
  0
SPLINE
  5
184
330
1F
100
AcDbEntity
  8
0
  6
Continuous
 62
     7
370
    25
100
AcDbSpline
210
0.0
220
0.0
230
1.0
 70
     8
 71
     3
 72
    23
 73
    19
 74
     0
 42
0.000000001
 43
0.0000000001
 40
0.0
 40
0.0
 40
0.0
 40
0.0
 40
0.0679784896192595
 40
0.1330435352439104
 40
0.1965074380534026
 40
0.2586134167685762
 40
0.3197283376065559
 40
0.3808728540495693
 40
0.442635602316209
 40
0.5050793035048785
 40
0.5678805200585766
 40
0.6288138541554901
 40
0.6889100905404395
 40
0.7487650058898479
 40
0.8093857829631186
 40
0.8708843357532272
 40
0.9340374630737043
 40
1.0
 40
1.0
 40
1.0
 40
1.0
 10
35.97661162843912
 20
-78.12625649122846
 30
0.0
 10
35.97737476461401
 20
-78.09250592273071
 30
0.0
 10
35.97886833022786
 20
-78.02645127846621
 30
0.0
 10
35.99078840390756
 20
-77.92939582089028
 30
0.0
 10
36.01249084847328
 20
-77.83718417253503
 30
0.0
 10
36.03971216647167
 20
-77.74843151109441
 30
0.0
 10
36.07754502996316
 20
-77.6648570910405
 30
0.0
 10
36.12275346588452
 20
-77.58534641814026
 30
0.0
 10
36.17587835863297
 20
-77.51000939242253
 30
0.0
 10
36.23708305984465
 20
-77.44000491801104
 30
0.0
 10
36.30437826733543
 20
-77.37642016614367
 30
0.0
 10
36.37708508124306
 20
-77.32099355475596
 30
0.0
 10
36.45356830492996
 20
-77.27369876218967
 30
0.0
 10
36.53415176144287
 20
-77.23403424705935
 30
0.0
 10
36.61960957996278
 20
-77.20403227192395
 30
0.0
 10
36.70934441758665
 20
-77.18337886468325
 30
0.0
 10
36.80317463884273
 20
-77.16958571782484
 30
0.0
 10
36.86731910450202
 20
-77.16835274025841
 30
0.0
 10
36.90008919254169
 20
-77.16772283738231
 30
0.0
  0
SPLINE
  5
186
330
1F
100
AcDbEntity
  8
0
  6
Continuous
 62
     7
370
    25
100
AcDbSpline
210
0.0
220
0.0
230
1.0
 70
     8
 71
     3
 72
    15
 73
    11
 74
     0
 42
0.000000001
 43
0.0000000001
 40
0.0
 40
0.0
 40
0.0
 40
0.0
 40
0.0769954547170676
 40
0.1676150771831738
 40
0.2710523936342418
 40
0.3894595025720779
 40
0.5208428024655787
 40
0.6663987586080701
 40
0.8260936125153158
 40
1.0
 40
1.0
 40
1.0
 40
1.0
 10
32.39187605151604
 20
-78.58398886302331
 30
0.0
 10
32.38624798212221
 20
-78.60863915310031
 30
0.0
 10
32.37399596946368
 20
-78.66230154510808
 30
0.0
 10
32.36076285537962
 20
-78.75036500137179
 30
0.0
 10
32.34875203337721
 20
-78.8522363942177
 30
0.0
 10
32.3386992353507
 20
-78.96779684715463
 30
0.0
 10
32.33254864039272
 20
-79.09745095446538
 30
0.0
 10
32.3258423592875
 20
-79.24064500847109
 30
0.0
 10
32.32340084347836
 20
-79.39794999183691
 30
0.0
 10
32.32298319488187
 20
-79.50746669572946
 30
0.0
 10
32.32276547459296
 20
-79.56455777327973
 30
0.0
  0
SPLINE
  5
187
330
1F
100
AcDbEntity
  8
0
  6
Continuous
 62
     7
370
    25
100
AcDbSpline
210
0.0
220
0.0
230
1.0
 70
     8
 71
     3
 72
    23
 73
    19
 74
     0
 42
0.000000001
 43
0.0000000001
 40
0.0
 40
0.0
 40
0.0
 40
0.0
 40
0.063986109816466
 40
0.1266268580894785
 40
0.1889843719814856
 40
0.250230193960399
 40
0.3123511629623216
 40
0.3745736184579434
 40
0.4381475308782062
 40
0.5029204126073754
 40
0.5679740951402725
 40
0.6307713337491939
 40
0.6929346089254622
 40
0.7543975343123341
 40
0.8152183520172966
 40
0.8761169254810958
 40
0.9380146047939527
 40
1.0
 40
1.0
 40
1.0
 40
1.0
 10
33.63486483356733
 20
-77.61644078610027
 30
0.0
 10
33.59876814270324
 20
-77.61712079276245
 30
0.0
 10
33.5273337241293
 20
-77.61846650837728
 30
0.0
 10
33.42140519283478
 20
-77.6319683626959
 30
0.0
 10
33.31865637400913
 20
-77.65405187069351
 30
0.0
 10
33.21805607544516
 20
-77.68386420997803
 30
0.0
 10
33.12161637010936
 20
-77.72481030886756
 30
0.0
 10
33.02623881128056
 20
-77.7712808377603
 30
0.0
 10
32.93551486252365
 20
-77.82920685488218
 30
0.0
 10
32.84751000948298
 20
-77.89376488551045
 30
0.0
 10
32.76563456997845
 20
-77.96530661007844
 30
0.0
 10
32.68945122939179
 20
-78.04079876743966
 30
0.0
 10
32.62153977189023
 20
-78.1211924871484
 30
0.0
 10
32.56001309291352
 20
-78.20519241218994
 30
0.0
 10
32.50690128808841
 20
-78.29395218075719
 30
0.0
 10
32.4605397337137
 20
-78.38661547572695
 30
0.0
 10
32.42120302686833
 20
-78.48330425976098
 30
0.0
 10
32.40165632333999
 20
-78.55041149009065
 30
0.0
 10
32.39187605151604
 20
-78.58398886302331
 30
0.0
  0
SPLINE
  5
188
330
1F
100
AcDbEntity
  8
0
  6
Continuous
 62
     7
370
    25
100
AcDbSpline
210
0.0
220
0.0
230
1.0
 70
     8
 71
     3
 72
    15
 73
    11
 74
     0
 42
0.000000001
 43
0.0000000001
 40
0.0
 40
0.0
 40
0.0
 40
0.0
 40
0.1355195283706083
 40
0.2608331631936837
 40
0.3784760291245039
 40
0.4931776464746836
 40
0.6092809649289404
 40
0.7299810378566436
 40
0.8592613089300664
 40
1.0
 40
1.0
 40
1.0
 40
1.0
 10
34.57737284638785
 20
-78.33559142712591
 30
0.0
 10
34.56219351566453
 20
-78.27886116291495
 30
0.0
 10
34.53297800041494
 20
-78.16967295630842
 30
0.0
 10
34.46078659595049
 20
-78.02156673827782
 30
0.0
 10
34.36962348053993
 20
-77.89556932709309
 30
0.0
 10
34.25834083858971
 20
-77.79245972477252
 30
0.0
 10
34.12801358767488
 20
-77.71221567233684
 30
0.0
 10
33.97900338372083
 20
-77.65653859415529
 30
0.0
 10
33.81274818276038
 20
-77.62171535244255
 30
0.0
 10
33.69581335036968
 20
-77.61824802099209
 30
0.0
 10
33.63486483356733
 20
-77.61644078610027
 30
0.0
  0
SPLINE
  5
189
330
1F
100
AcDbEntity
  8
0
  6
Continuous
 62
     7
370
    25
100
AcDbSpline
210
0.0
220
0.0
230
1.0
 70
     8
 71
     3
 72
    15
 73
    11
 74
     0
 42
0.000000001
 43
0.0000000001
 40
0.0
 40
0.0
 40
0.0
 40
0.0
 40
0.1788500194111607
 40
0.3421096489422984
 40
0.4898256633683867
 40
0.6232544282245606
 40
0.7400796760857962
 40
0.8414826730699934
 40
0.9289076721840672
 40
1.0
 40
1.0
 40
1.0
 40
1.0
 10
34.63045778228528
 20
-79.16692155533102
 30
0.0
 10
34.63018177082964
 20
-79.1171752054328
 30
0.0
 10
34.62965380788895
 20
-79.02201890432713
 30
0.0
 10
34.6279885983396
 20
-78.88577744262663
 30
0.0
 10
34.62397458890681
 20
-78.76222518776555
 30
0.0
 10
34.61833414188388
 20
-78.65165752004351
 30
0.0
 10
34.61007838398493
 20
-78.55418061066727
 30
0.0
 10
34.60147462491353
 20
-78.4695959296123
 30
0.0
 10
34.59095322948931
 20
-78.39801086899399
 30
0.0
 10
34.58157763929337
 20
-78.35491789416092
 30
0.0
 10
34.57737284638785
 20
-78.33559142712591
 30
0.0
  0
SPLINE
  5
18D
330
1F
100
AcDbEntity
  8
0
  6
Continuous
 62
     7
370
    25
100
AcDbSpline
210
0.0
220
0.0
230
1.0
 70
     8
 71
     3
 72
    23
 73
    19
 74
     0
 42
0.000000001
 43
0.0000000001
 40
0.0
 40
0.0
 40
0.0
 40
0.0
 40
0.0772404236164791
 40
0.151178140466383
 40
0.2234879838004009
 40
0.2955426441988687
 40
0.3669762546197903
 40
0.437130525486385
 40
0.5070436156432706
 40
0.5785597335236801
 40
0.6166135446965557
 40
0.6587562369775278
 40
0.7044912261144053
 40
0.7548031149051529
 40
0.8093316253185637
 40
0.8682744554728227
 40
0.9320728834092946
 40
1.0
 40
1.0
 40
1.0
 40
1.0
 10
33.71298983356733
 20
-77.16772283738231
 30
0.0
 10
33.78060502516241
 20
-77.17021597372687
 30
0.0
 10
33.91294426482498
 20
-77.17509564293184
 30
0.0
 10
34.1056272096565
 20
-77.21369091594763
 30
0.0
 10
34.28558920063761
 20
-77.27961270898281
 30
0.0
 10
34.45218856604916
 20
-77.36991566670148
 30
0.0
 10
34.60237029942435
 20
-77.4822106287069
 30
0.0
 10
34.73426294439033
 20
-77.61303603121999
 30
0.0
 10
34.84335329778686
 20
-77.76351615012799
 30
0.0
 10
34.91649238778648
 20
-77.90312065903745
 30
0.0
 10
34.96467188448786
 20
-78.02696179371285
 30
0.0
 10
34.9950037952219
 20
-78.13302857956836
 30
0.0
 10
35.02076234016386
 20
-78.2511973669527
 30
0.0
 10
35.04309340876055
 20
-78.3811110656019
 30
0.0
 10
35.05820356857122
 20
-78.52367990881956
 30
0.0
 10
35.07012112790159
 20
-78.67831946889513
 30
0.0
 10
35.07866211974202
 20
-78.84497965531739
 30
0.0
 10
35.07900098686595
 20
-78.96024626590295
 30
0.0
 10
35.07917573100324
 20
-79.01968597840795
 30
0.0
  0
SPLINE
  5
18E
330
1F
100
AcDbEntity
  8
0
  6
Continuous
 62
     7
370
    25
100
AcDbSpline
210
0.0
220
0.0
230
1.0
 70
     8
 71
     3
 72
    15
 73
    11
 74
     0
 42
0.000000001
 43
0.0000000001
 40
0.0
 40
0.0
 40
0.0
 40
0.0
 40
0.1409759662687775
 40
0.2735687809631712
 40
0.3989883138042532
 40
0.5199297813924363
 40
0.6381100215247486
 40
0.7565889007405952
 40
0.8768597544106079
 40
1.0
 40
1.0
 40
1.0
 40
1.0
 10
32.32276547459296
 20
-77.89087988866436
 30
0.0
 10
32.37067638192455
 20
-77.83110457032488
 30
0.0
 10
32.46364916913393
 20
-77.71510847962502
 30
0.0
 10
32.61848393095597
 20
-77.56265051596777
 30
0.0
 10
32.78211807427397
 20
-77.43701448018952
 30
0.0
 10
32.95354950782707
 20
-77.33686620312622
 30
0.0
 10
33.13301095082695
 20
-77.26137102291378
 30
0.0
 10
33.31940847934568
 20
-77.20684826422001
 30
0.0
 10
33.51385805947109
 20
-77.17415565202056
 30
0.0
 10
33.64609296929045
 20
-77.16988389444981
 30
0.0
 10
33.71298983356733
 20
-77.16772283738231
 30
0.0
  0
SPLINE
  5
194
330
1F
100
AcDbEntity
  8
0
  6
Continuous
 62
     7
370
    25
100
AcDbSpline
210
0.0
220
0.0
230
1.0
 70
     8
 71
     3
 72
    15
 73
    11
 74
     0
 42
0.000000001
 43
0.0000000001
 40
0.0
 40
0.0
 40
0.0
 40
0.0
 40
0.1185218400132605
 40
0.2362547631617445
 40
0.3561744339909323
 40
0.4772496548985539
 40
0.6015398708216983
 40
0.729618382168037
 40
0.8621582661414366
 40
1.0
 40
1.0
 40
1.0
 40
1.0
 10
-1.554692001045333
 20
-61.53651290148488
 30
0.0
 10
-1.532565062732838
 20
-61.56671648287118
 30
0.0
 10
-1.488458469636355
 20
-61.62692260155999
 30
0.0
 10
-1.43321136960122
 20
-61.72509375866063
 30
0.0
 10
-1.385253974617549
 20
-61.82780435301082
 30
0.0
 10
-1.34692101360278
 20
-61.93671465009781
 30
0.0
 10
-1.315881512406225
 20
-62.05053423027077
 30
0.0
 10
-1.293424693666042
 20
-62.17007677498505
 30
0.0
 10
-1.280255075084204
 20
-62.29530668634591
 30
0.0
 10
-1.277666377735769
 20
-62.38063324182261
 30
0.0
 10
-1.276346648481225
 20
-62.42413309379259
 30
0.0
  0
SPLINE
  5
195
330
1F
100
AcDbEntity
  8
0
  6
Continuous
 62
     7
370
    25
100
AcDbSpline
210
0.0
220
0.0
230
1.0
 70
     8
 71
     3
 72
    15
 73
    11
 74
     0
 42
0.000000001
 43
0.0000000001
 40
0.0
 40
0.0
 40
0.0
 40
0.0
 40
0.1320402344259818
 40
0.2590328407793702
 40
0.381879823925016
 40
0.5022584437149864
 40
0.6227521895274802
 40
0.7447426318590035
 40
0.8701089273418192
 40
1.0
 40
1.0
 40
1.0
 40
1.0
 10
-2.584639917711996
 20
-61.03310745276694
 30
0.0
 10
-2.53219231240831
 20
-61.03446150165944
 30
0.0
 10
-2.429302066469642
 20
-61.03711783692499
 30
0.0
 10
-2.279269945432857
 20
-61.06174417033407
 30
0.0
 10
-2.137309228892255
 20
-61.10079672489744
 30
0.0
 10
-2.003476724583446
 20
-61.15595051539803
 30
0.0
 10
-1.877758863830611
 20
-61.22711006718835
 30
0.0
 10
-1.760972814255918
 20
-61.31525190866934
 30
0.0
 10
-1.651121301707164
 20
-61.41766999589436
 30
0.0
 10
-1.58721272285496
 20
-61.49643320532166
 30
0.0
 10
-1.554692001045333
 20
-61.53651290148488
 30
0.0
  0
SPLINE
  5
196
330
1F
100
AcDbEntity
  8
0
  6
Continuous
 62
     7
370
    25
100
AcDbSpline
210
0.0
220
0.0
230
1.0
 70
     8
 71
     3
 72
    15
 73
    11
 74
     0
 42
0.000000001
 43
0.0000000001
 40
0.0
 40
0.0
 40
0.0
 40
0.0
 40
0.1288352544875554
 40
0.2535893349864762
 40
0.3746432573141712
 40
0.4953400422377939
 40
0.6163247746357913
 40
0.7397593354405143
 40
0.8668423203805458
 40
1.0
 40
1.0
 40
1.0
 40
1.0
 10
-3.584439597199173
 20
-61.50987027327975
 30
0.0
 10
-3.552731914423346
 20
-61.47200140319171
 30
0.0
 10
-3.490320967815076
 20
-61.39746325274125
 30
0.0
 10
-3.384764612461211
 20
-61.29952492695958
 30
0.0
 10
-3.270464416118835
 20
-61.21748115178256
 30
0.0
 10
-3.148852790018676
 20
-61.14947401564432
 30
0.0
 10
-3.018516315958085
 20
-61.09780036865153
 30
0.0
 10
-2.881207024920493
 20
-61.05929278641928
 30
0.0
 10
-2.735361438693878
 20
-61.03771477538598
 30
0.0
 10
-2.635656217855685
 20
-61.03466694176399
 30
0.0
 10
-2.584639917711996
 20
-61.03310745276694
 30
0.0
  0
SPLINE
  5
197
330
1F
100
AcDbEntity
  8
0
  6
Continuous
 62
     7
370
    25
100
AcDbSpline
210
0.0
220
0.0
230
1.0
 70
     8
 71
     3
 72
    15
 73
    11
 74
     0
 42
0.000000001
 43
0.0000000001
 40
0.0
 40
0.0
 40
0.0
 40
0.0
 40
0.1280448079611193
 40
0.2537679000244891
 40
0.3774284265813019
 40
0.5005508414825356
 40
0.623295883242475
 40
0.7465783319335105
 40
0.8723475406047176
 40
1.0
 40
1.0
 40
1.0
 40
1.0
 10
-3.878910751045328
 20
-62.3638366194336
 30
0.0
 10
-3.877851609714732
 20
-62.32454178901602
 30
0.0
 10
-3.875752531465687
 20
-62.24666462432914
 30
0.0
 10
-3.862521744072006
 20
-62.13139907979888
 30
0.0
 10
-3.839073451003983
 20
-62.01937062727029
 30
0.0
 10
-3.806897127054856
 20
-61.91048617930147
 30
0.0
 10
-3.765345880871615
 20
-61.80492804531735
 30
0.0
 10
-3.714513661655399
 20
-61.7026319816942
 30
0.0
 10
-3.654321283866613
 20
-61.60370684183371
 30
0.0
 10
-3.607848610110147
 20
-61.54130370812591
 30
0.0
 10
-3.584439597199173
 20
-61.50987027327975
 30
0.0
  0
SPLINE
  5
198
330
1F
100
AcDbEntity
  8
0
  6
Continuous
 62
     7
370
    25
100
AcDbSpline
210
0.0
220
0.0
230
1.0
 70
     8
 71
     3
 72
    23
 73
    19
 74
     0
 42
0.000000001
 43
0.0000000001
 40
0.0
 40
0.0
 40
0.0
 40
0.0
 40
0.0715786576891418
 40
0.1396292246928484
 40
0.2047966973966651
 40
0.2681349633966813
 40
0.329813746986729
 40
0.3913013977745605
 40
0.4534335150970555
 40
0.5165516903197681
 40
0.5796312707049235
 40
0.6411189214927515
 40
0.7012940466987767
 40
0.7608103356761333
 40
0.8199317217781468
 40
0.8789195754993814
 40
0.938982822250448
 40
1.0
 40
1.0
 40
1.0
 40
1.0
 10
-2.592352257455591
 20
-63.68054335020282
 30
0.0
 10
-2.641494234991028
 20
-63.67939617487327
 30
0.0
 10
-2.737355996648344
 20
-63.6771583681439
 30
0.0
 10
-2.876895743761195
 20
-63.65786590370942
 30
0.0
 10
-3.008275162158728
 20
-63.62639354501578
 30
0.0
 10
-3.131486865512323
 20
-63.5824280035245
 30
0.0
 10
-3.246229118089881
 20
-63.52500067943418
 30
0.0
 10
-3.352729972901799
 20
-63.45504119763047
 30
0.0
 10
-3.451549498770772
 20
-63.37290894294194
 30
0.0
 10
-3.539573707955926
 20
-63.27789249945496
 30
0.0
 10
-3.618817590666366
 20
-63.17621054215956
 30
0.0
 10
-3.688743410642056
 20
-63.0702546576736
 30
0.0
 10
-3.747200841691487
 20
-62.96029143319965
 30
0.0
 10
-3.794753451887227
 20
-62.8470209091561
 30
0.0
 10
-3.833158316857016
 20
-62.73115701561302
 30
0.0
 10
-3.859925020626153
 20
-62.61164554804378
 30
0.0
 10
-3.875354768608202
 20
-62.48880996380357
 30
0.0
 10
-3.877719214145563
 20
-62.40571262808584
 30
0.0
 10
-3.878910751045328
 20
-62.36383661943361
 30
0.0
  0
SPLINE
  5
199
330
1F
100
AcDbEntity
  8
0
  6
Continuous
 62
     7
370
    25
100
AcDbSpline
210
0.0
220
0.0
230
1.0
 70
     8
 71
     3
 72
    19
 73
    15
 74
     0
 42
0.000000001
 43
0.0000000001
 40
0.0
 40
0.0
 40
0.0
 40
0.0
 40
0.0933698567361911
 40
0.1816607660709985
 40
0.2658742270426198
 40
0.3463547840343043
 40
0.424599861717893
 40
0.5019031838373747
 40
0.579992090987345
 40
0.6584434305294291
 40
0.7386722364878328
 40
0.8218941484362435
 40
0.9088007920466147
 40
1.0
 40
1.0
 40
1.0
 40
1.0
 10
-1.410962033096609
 20
-62.97451370276693
 30
0.0
 10
-1.433198628336588
 20
-63.01395703404225
 30
0.0
 10
-1.476462236821261
 20
-63.09069813685997
 30
0.0
 10
-1.550862984712034
 20
-63.19612999733202
 30
0.0
 10
-1.628855057290213
 20
-63.29097771317081
 30
0.0
 10
-1.713959025293803
 20
-63.37270736745471
 30
0.0
 10
-1.803628704247806
 20
-63.44395875242889
 30
0.0
 10
-1.898361359033492
 20
-63.50629657714784
 30
0.0
 10
-1.998650176768833
 20
-63.55941509749365
 30
0.0
 10
-2.104499901547097
 20
-63.6041676253664
 30
0.0
 10
-2.216799452688593
 20
-63.63857711947435
 30
0.0
 10
-2.335820969098629
 20
-63.66288134039535
 30
0.0
 10
-2.461792464477419
 20
-63.6779046090458
 30
0.0
 10
-2.54813864434518
 20
-63.67964974982285
 30
0.0
 10
-2.592352257455591
 20
-63.68054335020286
 30
0.0
  0
SPLINE
  5
19B
330
1F
100
AcDbEntity
  8
0
  6
Continuous
 62
     7
370
    25
100
AcDbSpline
210
0.0
220
0.0
230
1.0
 70
     8
 71
     3
 72
    19
 73
    15
 74
     0
 42
0.000000001
 43
0.0000000001
 40
0.0
 40
0.0
 40
0.0
 40
0.0
 40
0.0825922633314368
 40
0.1638788940984976
 40
0.2456587396295059
 40
0.3277256953541235
 40
0.4086099609103223
 40
0.4857490859539352
 40
0.5591690561972836
 40
0.6302684758575517
 40
0.7053060284320752
 40
0.792064966096608
 40
0.8897964374100912
 40
1.0
 40
1.0
 40
1.0
 40
1.0
 10
-2.631615077968405
 20
-63.36644078610025
 30
0.0
 10
-2.600263930364388
 20
-63.36583272944036
 30
0.0
 10
-2.538057239436841
 20
-63.3646262283838
 30
0.0
 10
-2.44541638209375
 20
-63.35289431747279
 30
0.0
 10
-2.354276854694234
 20
-63.33392404185172
 30
0.0
 10
-2.265015871427009
 20
-63.30803405176806
 30
0.0
 10
-2.179445025510311
 20
-63.27645719966131
 30
0.0
 10
-2.10019947544908
 20
-63.23835434201225
 30
0.0
 10
-2.027319259822955
 20
-63.1962045952693
 30
0.0
 10
-1.959202293236657
 20
-63.14799492022087
 30
0.0
 10
-1.893131299884623
 20
-63.0889867332179
 30
0.0
 10
-1.827588813469879
 20
-63.01535101222928
 30
0.0
 10
-1.757312160106611
 20
-62.92826348444571
 30
0.0
 10
-1.713322567362846
 20
-62.86271781846781
 30
0.0
 10
-1.690008507455584
 20
-62.82797924763875
 30
0.0
  0
SPLINE
  5
19C
330
1F
100
AcDbEntity
  8
0
  6
Continuous
 62
     7
370
    25
100
AcDbSpline
210
0.0
220
0.0
230
1.0
 70
     8
 71
     3
 72
    23
 73
    19
 74
     0
 42
0.000000001
 43
0.0000000001
 40
0.0
 40
0.0
 40
0.0
 40
0.0
 40
0.0683846151037665
 40
0.1344755875434486
 40
0.1983910577839543
 40
0.2607534774484856
 40
0.3218292228076501
 40
0.3830372384795205
 40
0.4446531231064255
 40
0.507398011204001
 40
0.569825237973025
 40
0.6307776406313123
 40
0.6909286865237167
 40
0.7509451326917363
 40
0.8110494767293262
 40
0.8723308525469931
 40
0.935004093589405
 40
1.0
 40
1.0
 40
1.0
 40
1.0
 10
-3.564808186942768
 20
-62.42413309379259
 30
0.0
 10
-3.563268580513617
 20
-62.45783355803968
 30
0.0
 10
-3.560241006565413
 20
-62.52410416178938
 30
0.0
 10
-3.546125863398981
 20
-62.6210749448719
 30
0.0
 10
-3.523877089624746
 20
-62.71344828703546
 30
0.0
 10
-3.492608026986248
 20
-62.80053132900898
 30
0.0
 10
-3.454741181731363
 20
-62.88346145652428
 30
0.0
 10
-3.408355464945409
 20
-62.96162349349285
 30
0.0
 10
-3.353015910992928
 20
-63.03466142354278
 30
0.0
 10
-3.291290211608545
 20
-63.1032285611359
 30
0.0
 10
-3.222583116272943
 20
-63.16428932230358
 30
0.0
 10
-3.150300369051748
 20
-63.21894109853789
 30
0.0
 10
-3.07340680406256
 20
-63.26474669526723
 30
0.0
 10
-2.992508720568609
 20
-63.30192658502069
 30
0.0
 10
-2.907736935424426
 20
-63.33103290107977
 30
0.0
 10
-2.819064740308693
 20
-63.35090072176273
 30
0.0
 10
-2.726666623953939
 20
-63.36420782863757
 30
0.0
 10
-2.663680889921165
 20
-63.36568749383811
 30
0.0
 10
-2.631615077968405
 20
-63.36644078610025
 30
0.0
  0
SPLINE
  5
19D
330
1F
100
AcDbEntity
  8
0
  6
Continuous
 62
     7
370
    25
100
AcDbSpline
210
0.0
220
0.0
230
1.0
 70
     8
 71
     3
 72
    11
 73
     7
 74
     0
 42
0.000000001
 43
0.0000000001
 40
0.0
 40
0.0
 40
0.0
 40
0.0
 40
0.2462523706929707
 40
0.4925907964763745
 40
0.7405699911180843
 40
1.0
 40
1.0
 40
1.0
 40
1.0
 10
-5.646438795917128
 20
-62.09811145917718
 30
0.0
 10
-5.664569395573436
 20
-62.0689658441415
 30
0.0
 10
-5.700836930786053
 20
-62.01066442887463
 30
0.0
 10
-5.736052121964144
 20
-61.91335395214254
 30
0.0
 10
-5.760258150841287
 20
-61.81090889481325
 30
0.0
 10
-5.762420541010607
 20
-61.74022204046718
 30
0.0
 10
-5.763526135660717
 20
-61.70408101045924
 30
0.0
  0
SPLINE
  5
19E
330
1F
100
AcDbEntity
  8
0
  6
Continuous
 62
     7
370
    25
100
AcDbSpline
210
0.0
220
0.0
230
1.0
 70
     8
 71
     3
 72
    15
 73
    11
 74
     0
 42
0.000000001
 43
0.0000000001
 40
0.0
 40
0.0
 40
0.0
 40
0.0
 40
0.1577616635135485
 40
0.3059502132085397
 40
0.4437754990007253
 40
0.5728243624015376
 40
0.6921541564432422
 40
0.8022957069908455
 40
0.9055643918329931
 40
1.0
 40
1.0
 40
1.0
 40
1.0
 10
-5.205433186942769
 20
-62.44727011302335
 30
0.0
 10
-5.231479826982174
 20
-62.43273098135906
 30
0.0
 10
-5.281992574477007
 20
-62.40453496508053
 30
0.0
 10
-5.353539865412856
 20
-62.36061888482227
 30
0.0
 10
-5.418087219631613
 20
-62.31595161014205
 30
0.0
 10
-5.477187794194351
 20
-62.27303877089227
 30
0.0
 10
-5.529348799871796
 20
-62.22961782694472
 30
0.0
 10
-5.574364748176761
 20
-62.18564057547729
 30
0.0
 10
-5.614007964008308
 20
-62.14288058939797
 30
0.0
 10
-5.635955375739526
 20
-62.11258329278322
 30
0.0
 10
-5.646438795917128
 20
-62.09811145917718
 30
0.0
  0
SPLINE
  5
19F
330
1F
100
AcDbEntity
  8
0
  6
Continuous
 62
     7
370
    25
100
AcDbSpline
210
0.0
220
0.0
230
1.0
 70
     8
 71
     3
 72
    15
 73
    11
 74
     0
 42
0.000000001
 43
0.0000000001
 40
0.0
 40
0.0
 40
0.0
 40
0.0
 40
0.076875074035058
 40
0.1674616757257235
 40
0.272270023246645
 40
0.3895508405125312
 40
0.5208013683480532
 40
0.6662632933752282
 40
0.8255449152058663
 40
1.0
 40
1.0
 40
1.0
 40
1.0
 10
-4.817712834378665
 20
-62.71089190789513
 30
0.0
 10
-4.825735228806054
 20
-62.70185654574337
 30
0.0
 10
-4.843210901265638
 20
-62.68217426373304
 30
0.0
 10
-4.875266142531211
 20
-62.6537491848714
 30
0.0
 10
-4.913648004731943
 20
-62.62311108571815
 30
0.0
 10
-4.958788167664186
 20
-62.59077949677935
 30
0.0
 10
-5.010777629601766
 20
-62.55718089148724
 30
0.0
 10
-5.069827104991583
 20
-62.5224915392377
 30
0.0
 10
-5.135127657539991
 20
-62.48506381344927
 30
0.0
 10
-5.18129828885791
 20
-62.46024415810596
 30
0.0
 10
-5.205433186942769
 20
-62.44727011302335
 30
0.0
  0
SPLINE
  5
1A0
330
1F
100
AcDbEntity
  8
0
  6
Continuous
 62
     7
370
    25
100
AcDbSpline
210
0.0
220
0.0
230
1.0
 70
     8
 71
     3
 72
    11
 73
     7
 74
     0
 42
0.000000001
 43
0.0000000001
 40
0.0
 40
0.0
 40
0.0
 40
0.0
 40
0.2534754346498446
 40
0.5004533151029187
 40
0.7455781350009883
 40
1.0
 40
1.0
 40
1.0
 40
1.0
 10
-4.731474853609431
 20
-62.95488229251052
 30
0.0
 10
-4.732561147948239
 20
-62.93257267384842
 30
0.0
 10
-4.734705890707173
 20
-62.88852531820016
 30
0.0
 10
-4.751549162711684
 20
-62.82477497715604
 30
0.0
 10
-4.778162014971492
 20
-62.76430569647368
 30
0.0
 10
-4.804366663325246
 20
-62.72891604923192
 30
0.0
 10
-4.817712834378665
 20
-62.71089190789513
 30
0.0
  0
SPLINE
  5
1A1
330
1F
100
AcDbEntity
  8
0
  6
Continuous
 62
     7
370
    25
100
AcDbSpline
210
0.0
220
0.0
230
1.0
 70
     8
 71
     3
 72
    15
 73
    11
 74
     0
 42
0.000000001
 43
0.0000000001
 40
0.0
 40
0.0
 40
0.0
 40
0.0
 40
0.1340420464623704
 40
0.2618956736507271
 40
0.3878360446911143
 40
0.5176862058208177
 40
0.6445086536782131
 40
0.7647182630567164
 40
0.8802907821584964
 40
1.0
 40
1.0
 40
1.0
 40
1.0
 10
-5.182997289506871
 20
-63.36644078610025
 30
0.0
 10
-5.152679363548823
 20
-63.36506996124008
 30
0.0
 10
-5.093443221964671
 20
-63.36239159941483
 30
0.0
 10
-5.008599463350679
 20
-63.33807450738504
 30
0.0
 10
-4.930260836900214
 20
-63.29994455555998
 30
0.0
 10
-4.862237491381343
 20
-63.24585985739986
 30
0.0
 10
-4.804335330313783
 20
-63.18290428480017
 30
0.0
 10
-4.762407155906061
 20
-63.11199016549981
 30
0.0
 10
-4.736130980445174
 20
-63.03519870881061
 30
0.0
 10
-4.733044981789217
 20
-62.9819664061915
 30
0.0
 10
-4.731474853609431
 20
-62.95488229251052
 30
0.0
  0
SPLINE
  5
1A2
330
1F
100
AcDbEntity
  8
0
  6
Continuous
 62
     7
370
    25
100
AcDbSpline
210
0.0
220
0.0
230
1.0
 70
     8
 71
     3
 72
    15
 73
    11
 74
     0
 42
0.000000001
 43
0.0000000001
 40
0.0
 40
0.0
 40
0.0
 40
0.0
 40
0.1474758177483692
 40
0.2859041715443832
 40
0.4171716482444425
 40
0.5405007435865026
 40
0.6592377183802373
 40
0.7750060983159579
 40
0.8872285734286359
 40
1.0
 40
1.0
 40
1.0
 40
1.0
 10
-5.68990834719918
 20
-63.09721001686948
 30
0.0
 10
-5.670135934222733
 20
-63.1185647813973
 30
0.0
 10
-5.631804122012618
 20
-63.1599642213466
 30
0.0
 10
-5.570502905215315
 20
-63.21508856201803
 30
0.0
 10
-5.508123504112283
 20
-63.26128983315007
 30
0.0
 10
-5.445288817537973
 20
-63.29993324794206
 30
0.0
 10
-5.381068723214436
 20
-63.3297086510996
 30
0.0
 10
-5.315823108980779
 20
-63.35062724500922
 30
0.0
 10
-5.249684684919348
 20
-63.36407143723457
 30
0.0
 10
-5.205262549099491
 20
-63.36564971955411
 30
0.0
 10
-5.182997289506871
 20
-63.36644078610025
 30
0.0
  0
SPLINE
  5
1A4
330
1F
100
AcDbEntity
  8
0
  6
Continuous
 62
     7
370
    25
100
AcDbSpline
210
0.0
220
0.0
230
1.0
 70
     8
 71
     3
 72
    15
 73
    11
 74
     0
 42
0.000000001
 43
0.0000000001
 40
0.0
 40
0.0
 40
0.0
 40
0.0
 40
0.1267425189618454
 40
0.2517239612496063
 40
0.3772186880262392
 40
0.5046935492516257
 40
0.6314582385934815
 40
0.7554010672029431
 40
0.8777005336014727
 40
1.0
 40
1.0
 40
1.0
 40
1.0
 10
-5.166871488224818
 20
-63.68054335020282
 30
0.0
 10
-5.202238663662789
 20
-63.67955064987729
 30
0.0
 10
-5.272481590601424
 20
-63.67757904271396
 30
0.0
 10
-5.37637130975016
 20
-63.65907298155021
 30
0.0
 10
-5.477892068414827
 20
-63.63027758758268
 30
0.0
 10
-5.57627560872119
 20
-63.59056165342452
 30
0.0
 10
-5.66932172261024
 20
-63.54041094056728
 30
0.0
 10
-5.754452647211146
 20
-63.48034854698101
 30
0.0
 10
-5.831964109671877
 20
-63.41235854957714
 30
0.0
 10
-5.876082383408026
 20
-63.36024563888315
 30
0.0
 10
-5.898141520276102
 20
-63.33418918353617
 30
0.0
  0
SPLINE
  5
1A5
330
1F
100
AcDbEntity
  8
0
  6
Continuous
 62
     7
370
    25
100
AcDbSpline
210
0.0
220
0.0
230
1.0
 70
     8
 71
     3
 72
    23
 73
    19
 74
     0
 42
0.000000001
 43
0.0000000001
 40
0.0
 40
0.0
 40
0.0
 40
0.0
 40
0.0645481255642549
 40
0.1271991327555095
 40
0.1885973380874278
 40
0.2486395150940115
 40
0.3095246994640625
 40
0.3700369910533506
 40
0.4318892436070731
 40
0.4957042857252912
 40
0.55951932784351
 40
0.6213715803972353
 40
0.6823971072916394
 40
0.7435684819321652
 40
0.8054984835712126
 40
0.8686397008205245
 40
0.9330662250811647
 40
1.0
 40
1.0
 40
1.0
 40
1.0
 10
-4.417372289506866
 20
-62.94156097840796
 30
0.0
 10
-4.418091823322297
 20
-62.96683012465277
 30
0.0
 10
-4.419509743308521
 20
-63.0166257377665
 30
0.0
 10
-4.429367810246346
 20
-63.0899605674675
 30
0.0
 10
-4.446322786569534
 20
-63.16009512500393
 30
0.0
 10
-4.469416540526558
 20
-63.22779040970544
 30
0.0
 10
-4.500600913430351
 20
-63.29174934932291
 30
0.0
 10
-4.537148710581694
 20
-63.35358559831053
 30
0.0
 10
-4.581023622317512
 20
-63.41196152909992
 30
0.0
 10
-4.631114997934296
 20
-63.4668004892778
 30
0.0
 10
-4.685960491913311
 20
-63.51688623669814
 30
0.0
 10
-4.744466630266813
 20
-63.56091019056436
 30
0.0
 10
-4.806705460876671
 20
-63.5974845277634
 30
0.0
 10
-4.872232262299068
 20
-63.62774987300636
 30
0.0
 10
-4.941195916371612
 20
-63.65181813095271
 30
0.0
 10
-5.013607205658139
 20
-63.66848066220651
 30
0.0
 10
-5.089235960229761
 20
-63.6784534233007
 30
0.0
 10
-5.140665768360745
 20
-63.67983789948525
 30
0.0
 10
-5.166871488224818
 20
-63.68054335020282
 30
0.0
  0
SPLINE
  5
1A6
330
1F
100
AcDbEntity
  8
0
  6
Continuous
 62
     7
370
    25
100
AcDbSpline
210
0.0
220
0.0
230
1.0
 70
     8
 71
     3
 72
    11
 73
     7
 74
     0
 42
0.000000001
 43
0.0000000001
 40
0.0
 40
0.0
 40
0.0
 40
0.0
 40
0.2488386141270692
 40
0.4952350254576618
 40
0.7433356038750208
 40
1.0
 40
1.0
 40
1.0
 40
1.0
 10
-4.536562994635077
 20
-62.54612828610025
 30
0.0
 10
-4.518352467223028
 20
-62.57579437415078
 30
0.0
 10
-4.482110137879808
 20
-62.63483539526585
 30
0.0
 10
-4.44405187142384
 20
-62.73205382270867
 30
0.0
 10
-4.421991596581048
 20
-62.83516432514588
 30
0.0
 10
-4.418929376357447
 20
-62.90569654526256
 30
0.0
 10
-4.417372289506866
 20
-62.94156097840796
 30
0.0
  0
SPLINE
  5
1A7
330
1F
100
AcDbEntity
  8
0
  6
Continuous
 62
     7
370
    25
100
AcDbSpline
210
0.0
220
0.0
230
1.0
 70
     8
 71
     3
 72
    15
 73
    11
 74
     0
 42
0.000000001
 43
0.0000000001
 40
0.0
 40
0.0
 40
0.0
 40
0.0
 40
0.1589891012267959
 40
0.3071145916055745
 40
0.4462131585962171
 40
0.5748760724117327
 40
0.6941521095829609
 40
0.8045811801532444
 40
0.9065933190457625
 40
1.0
 40
1.0
 40
1.0
 40
1.0
 10
-4.997200013865846
 20
-62.1871539271259
 30
0.0
 10
-4.969986436768755
 20
-62.20239882994004
 30
0.0
 10
-4.917418766709549
 20
-62.23184696233214
 30
0.0
 10
-4.842725999454052
 20
-62.27755666584167
 30
0.0
 10
-4.774938958483146
 20
-62.32298809011525
 30
0.0
 10
-4.713483290834471
 20
-62.36765536399282
 30
0.0
 10
-4.659541481992616
 20
-62.41280823160963
 30
0.0
 10
-4.611476929340802
 20
-62.45671598858333
 30
0.0
 10
-4.570488485414526
 20
-62.50070529686729
 30
0.0
 10
-4.547534558727112
 20
-62.53143841054735
 30
0.0
 10
-4.536562994635077
 20
-62.54612828610025
 30
0.0
  0
SPLINE
  5
1A8
330
1F
100
AcDbEntity
  8
0
  6
Continuous
 62
     7
370
    25
100
AcDbSpline
210
0.0
220
0.0
230
1.0
 70
     8
 71
     3
 72
    15
 73
    11
 74
     0
 42
0.000000001
 43
0.0000000001
 40
0.0
 40
0.0
 40
0.0
 40
0.0
 40
0.0834251049856327
 40
0.1775598214659651
 40
0.2839823599504473
 40
0.4022167468072135
 40
0.5335684803800609
 40
0.6761209941988206
 40
0.8316493725539919
 40
1.0
 40
1.0
 40
1.0
 40
1.0
 10
-5.362484468994052
 20
-61.92353213225412
 30
0.0
 10
-5.354520975222369
 20
-61.93331671658715
 30
0.0
 10
-5.337571682409516
 20
-61.95414197113841
 30
0.0
 10
-5.305763167432746
 20
-61.98304582455601
 30
0.0
 10
-5.26974066457244
 20
-62.01498807553115
 30
0.0
 10
-5.226420726840166
 20
-62.0469249125097
 30
0.0
 10
-5.177669698956111
 20
-62.08055663771599
 30
0.0
 10
-5.122430414742348
 20
-62.11455877069061
 30
0.0
 10
-5.062455909771299
 20
-62.15152319557894
 30
0.0
 10
-5.019518603154672
 20
-62.17496763112272
 30
0.0
 10
-4.997200013865846
 20
-62.1871539271259
 30
0.0
  0
SPLINE
  5
1A9
330
1F
100
AcDbEntity
  8
0
  6
Continuous
 62
     7
370
    25
100
AcDbSpline
210
0.0
220
0.0
230
1.0
 70
     8
 71
     3
 72
    11
 73
     7
 74
     0
 42
0.000000001
 43
0.0000000001
 40
0.0
 40
0.0
 40
0.0
 40
0.0
 40
0.2400399314959659
 40
0.4794031936060913
 40
0.7317567388575488
 40
1.0
 40
1.0
 40
1.0
 40
1.0
 10
-5.44942357155815
 20
-61.69146081815155
 30
0.0
 10
-5.448312759292806
 20
-61.7116728623032
 30
0.0
 10
-5.446094266127174
 20
-61.75203997312186
 30
0.0
 10
-5.428847586915891
 20
-61.81158800696242
 30
0.0
 10
-5.401381514736201
 20
-61.8696450451551
 30
0.0
 10
-5.375711320453648
 20
-61.90520795150852
 30
0.0
 10
-5.362484468994052
 20
-61.92353213225412
 30
0.0
  0
SPLINE
  5
1AA
330
1F
100
AcDbEntity
  8
0
  6
Continuous
 62
     7
370
    25
100
AcDbSpline
210
0.0
220
0.0
230
1.0
 70
     8
 71
     3
 72
    15
 73
    11
 74
     0
 42
0.000000001
 43
0.0000000001
 40
0.0
 40
0.0
 40
0.0
 40
0.0
 40
0.1249584925460613
 40
0.2459006286062657
 40
0.369166029586067
 40
0.49851084117735
 40
0.6285038663666074
 40
0.7510283288509867
 40
0.8737241742784327
 40
1.0
 40
1.0
 40
1.0
 40
1.0
 10
-5.117091840788921
 20
-61.3472100168695
 30
0.0
 10
-5.139231230630675
 20
-61.34828488984719
 30
0.0
 10
-5.182798416566755
 20
-61.35040008774615
 30
0.0
 10
-5.245224234900419
 20
-61.37151351808095
 30
0.0
 10
-5.303174859918366
 20
-61.40392225654085
 30
0.0
 10
-5.353331839924541
 20
-61.44989084009607
 30
0.0
 10
-5.395819519945839
 20
-61.50265510892412
 30
0.0
 10
-5.426833200964139
 20
-61.56165143381008
 30
0.0
 10
-5.44579918459362
 20
-61.6250994775164
 30
0.0
 10
-5.448203916635738
 20
-61.66912933518478
 30
0.0
 10
-5.44942357155815
 20
-61.69146081815155
 30
0.0
  0
SPLINE
  5
1AB
330
1F
100
AcDbEntity
  8
0
  6
Continuous
 62
     7
370
    25
100
AcDbSpline
210
0.0
220
0.0
230
1.0
 70
     8
 71
     3
 72
    15
 73
    11
 74
     0
 42
0.000000001
 43
0.0000000001
 40
0.0
 40
0.0
 40
0.0
 40
0.0
 40
0.1582230975563221
 40
0.3050355053581755
 40
0.4413089638879121
 40
0.5659632271047249
 40
0.6835251144150644
 40
0.7933341296296001
 40
0.8985175121610017
 40
1.0
 40
1.0
 40
1.0
 40
1.0
 10
-4.675385110019691
 20
-61.61644078610027
 30
0.0
 10
-4.693775613547681
 20
-61.59512763976549
 30
0.0
 10
-4.729230339337364
 20
-61.55403840271092
 30
0.0
 10
-4.785461820339786
 20
-61.49910133620741
 30
0.0
 10
-4.841485423914097
 20
-61.45296439726506
 30
0.0
 10
-4.896534237487335
 20
-61.41401213835577
 30
0.0
 10
-4.951992506561558
 20
-61.38456299174993
 30
0.0
 10
-5.007209424693834
 20
-61.36306812980965
 30
0.0
 10
-5.062242163208781
 20
-61.3497663241489
 30
0.0
 10
-5.099028198424108
 20
-61.34805188545481
 30
0.0
 10
-5.117091840788921
 20
-61.3472100168695
 30
0.0
  0
SPLINE
  5
1AD
330
1F
100
AcDbEntity
  8
0
  6
Continuous
 62
     7
370
    25
100
AcDbSpline
210
0.0
220
0.0
230
1.0
 70
     8
 71
     3
 72
    15
 73
    11
 74
     0
 42
0.000000001
 43
0.0000000001
 40
0.0
 40
0.0
 40
0.0
 40
0.0
 40
0.1057142614175182
 40
0.2134116126389968
 40
0.3261267300734732
 40
0.4444516715568684
 40
0.5690610798550844
 40
0.7027122044812161
 40
0.846317946586195
 40
1.0
 40
1.0
 40
1.0
 40
1.0
 10
-5.117091840788921
 20
-61.03310745276694
 30
0.0
 10
-5.089899777323283
 20
-61.03421179346431
 30
0.0
 10
-5.035005555509036
 20
-61.03644119114417
 30
0.0
 10
-4.952650929460927
 20
-61.0541468817489
 30
0.0
 10
-4.870417587373485
 20
-61.08327998584838
 30
0.0
 10
-4.788094237405858
 20
-61.12351621918675
 30
0.0
 10
-4.706283948022402
 20
-61.17558309506695
 30
0.0
 10
-4.624267091346674
 20
-61.23851239443525
 30
0.0
 10
-4.541059061056528
 20
-61.31189010894443
 30
0.0
 10
-4.489102747955143
 20
-61.36798933436443
 30
0.0
 10
-4.46224408437866
 20
-61.3969896643054
 30
0.0
  0
SPLINE
  5
1AE
330
1F
100
AcDbEntity
  8
0
  6
Continuous
 62
     7
370
    25
100
AcDbSpline
210
0.0
220
0.0
230
1.0
 70
     8
 71
     3
 72
    23
 73
    19
 74
     0
 42
0.000000001
 43
0.0000000001
 40
0.0
 40
0.0
 40
0.0
 40
0.0
 40
0.0679784896192547
 40
0.1330435352439086
 40
0.1965074380533908
 40
0.2586134167685727
 40
0.3197283376065492
 40
0.3808728540495665
 40
0.4426356023162026
 40
0.5050793035048756
 40
0.5678805200585737
 40
0.6288138541554872
 40
0.6889100905404378
 40
0.7487650058898478
 40
0.8093857829631183
 40
0.8708843357532259
 40
0.9340374630737031
 40
1.0
 40
1.0
 40
1.0
 40
1.0
 10
-5.763526135660717
 20
-61.70408101045924
 30
0.0
 10
-5.762991940338308
 20
-61.68045561251077
 30
0.0
 10
-5.761946444408604
 20
-61.63421736152564
 30
0.0
 10
-5.753602392832812
 20
-61.56627854122254
 30
0.0
 10
-5.738410681636787
 20
-61.50173038737382
 30
0.0
 10
-5.719355759037932
 20
-61.43960352436542
 30
0.0
 10
-5.692872754593897
 20
-61.38110143032765
 30
0.0
 10
-5.66122684944894
 20
-61.3254439592975
 30
0.0
 10
-5.624039424525023
 20
-61.27270804129508
 30
0.0
 10
-5.581196133676858
 20
-61.22370490920705
 30
0.0
 10
-5.534089488433313
 20
-61.17919558289986
 30
0.0
 10
-5.483194718697966
 20
-61.1403969549285
 30
0.0
 10
-5.429656462117134
 20
-61.10729060013206
 30
0.0
 10
-5.373248042558093
 20
-61.07952543954085
 30
0.0
 10
-5.313427569594159
 20
-61.05852405694607
 30
0.0
 10
-5.250613183257445
 20
-61.04406667187761
 30
0.0
 10
-5.184932028378199
 20
-61.03441146907667
 30
0.0
 10
-5.140030902416701
 20
-61.0335483847802
 30
0.0
 10
-5.117091840788921
 20
-61.03310745276694
 30
0.0
  0
SPLINE
  5
1B4
330
1F
100
AcDbEntity
  8
0
  6
Continuous
 62
     7
370
    25
100
AcDbSpline
210
0.0
220
0.0
230
1.0
 70
     8
 71
     3
 72
    23
 73
    19
 74
     0
 42
0.000000001
 43
0.0000000001
 40
0.0
 40
0.0
 40
0.0
 40
0.0
 40
0.0787802355821393
 40
0.1537206442085856
 40
0.2267135303087814
 40
0.299191166065937
 40
0.3711899968376676
 40
0.4430064143534092
 40
0.5166891732948801
 40
0.5932172166234126
 40
0.6338729178078452
 40
0.6769891422899791
 40
0.7228995063258276
 40
0.7719586105061442
 40
0.8242113233348355
 40
0.8793786506272024
 40
0.9379481193304181
 40
1.0
 40
1.0
 40
1.0
 40
1.0
 10
-9.487885110019689
 20
-61.07166915148488
 30
0.0
 10
-9.489354108128193
 20
-61.11830425609582
 30
0.0
 10
-9.492220503917831
 20
-61.20930142398389
 30
0.0
 10
-9.518945607597848
 20
-61.34136230539265
 30
0.0
 10
-9.562722127326608
 20
-61.46455162003311
 30
0.0
 10
-9.623045416335914
 20
-61.57871425794856
 30
0.0
 10
-9.699864892049408
 20
-61.68162490330871
 30
0.0
 10
-9.792189683152756
 20
-61.77201535861257
 30
0.0
 10
-9.900071294642438
 20
-61.8476552712034
 30
0.0
 10
-10.00050061058161
 20
-61.90010807590489
 30
0.0
 10
-10.08921481027825
 20
-61.93370098452965
 30
0.0
 10
-10.16224812306627
 20
-61.95733734338868
 30
0.0
 10
-10.2419151005621
 20
-61.97559930866578
 30
0.0
 10
-10.32745243516797
 20
-61.99195944043635
 30
0.0
 10
-10.41921609066008
 20
-62.00431113484788
 30
0.0
 10
-10.51698613004928
 20
-62.01335772931723
 30
0.0
 10
-10.62083228167937
 20
-62.01901177801552
 30
0.0
 10
-10.69217135103251
 20
-62.01985378290443
 30
0.0
 10
-10.72887068694277
 20
-62.02028693994642
 30
0.0
  0
SPLINE
  5
1B5
330
1F
100
AcDbEntity
  8
0
  6
Continuous
 62
     7
370
    25
100
AcDbSpline
210
0.0
220
0.0
230
1.0
 70
     8
 71
     3
 72
    23
 73
    19
 74
     0
 42
0.000000001
 43
0.0000000001
 40
0.0
 40
0.0
 40
0.0
 40
0.0
 40
0.0642168426314316
 40
0.1270637656931288
 40
0.1887445383478309
 40
0.2491321028350414
 40
0.3094525327106276
 40
0.3698266762476813
 40
0.4306501418384677
 40
0.49235193187947
 40
0.5540721062625157
 40
0.6156897837449744
 40
0.6767977025065381
 40
0.7384390482469407
 40
0.8013169100648907
 40
0.8651845117115424
 40
0.9316413244190735
 40
1.0
 40
1.0
 40
1.0
 40
1.0
 10
-10.19321363566072
 20
-60.18334783738231
 30
0.0
 10
-10.16760701152388
 20
-60.18967460274788
 30
0.0
 10
-10.11694002205214
 20
-60.2021931663998
 30
0.0
 10
-10.04398995601225
 20
-60.22865276722344
 30
0.0
 10
-9.974475632060512
 20
-60.25927239184816
 30
0.0
 10
-9.908685807738786
 20
-60.29523611216618
 30
0.0
 10
-9.84695001654838
 20
-60.33681089183875
 30
0.0
 10
-9.788631705753703
 20
-60.38327901427386
 30
0.0
 10
-9.733466242373735
 20
-60.43438622004437
 30
0.0
 10
-9.683684612193383
 20
-60.49142106154704
 30
0.0
 10
-9.636745560498823
 20
-60.55125757122699
 30
0.0
 10
-9.597156933998256
 20
-60.61596132806822
 30
0.0
 10
-9.563030454275756
 20
-60.68362285559221
 30
0.0
 10
-9.535859937275619
 20
-60.75493027334771
 30
0.0
 10
-9.513981963802461
 20
-60.82919204521028
 30
0.0
 10
-9.498555724431513
 20
-60.90708084193753
 30
0.0
 10
-9.489304536800707
 20
-60.98824181702142
 30
0.0
 10
-9.488362681247183
 20
-61.04359972581304
 30
0.0
 10
-9.487885110019689
 20
-61.07166915148488
 30
0.0
  0
SPLINE
  5
1B6
330
1F
100
AcDbEntity
  8
0
  6
Continuous
 62
     7
370
    25
100
AcDbSpline
210
0.0
220
0.0
230
1.0
 70
     8
 71
     3
 72
    15
 73
    11
 74
     0
 42
0.000000001
 43
0.0000000001
 40
0.0
 40
0.0
 40
0.0
 40
0.0
 40
0.1762577548177998
 40
0.3384344138804766
 40
0.4848220507878377
 40
0.6171575782663332
 40
0.7346983606124771
 40
0.8373851838323616
 40
0.9263724209295846
 40
1.0
 40
1.0
 40
1.0
 40
1.0
 10
-10.98618238566072
 20
-60.13567155533103
 30
0.0
 10
-10.93944125714714
 20
-60.13582714131906
 30
0.0
 10
-10.84969311273808
 20
-60.13612588365085
 30
0.0
 10
-10.72111984237844
 20
-60.13779164655899
 30
0.0
 10
-10.60429274537825
 20
-60.14256600226724
 30
0.0
 10
-10.4992729060611
 20
-60.14667458574432
 30
0.0
 10
-10.40606225108481
 20
-60.1541665270675
 30
0.0
 10
-10.32437496033685
 20
-60.16132717418728
 30
0.0
 10
-10.25458726283564
 20
-60.17070083496625
 30
0.0
 10
-10.21234141153307
 20
-60.17940625793189
 30
0.0
 10
-10.19321363566072
 20
-60.18334783738231
 30
0.0
  0
SPLINE
  5
1BB
330
1F
100
AcDbEntity
  8
0
  6
Continuous
 62
     7
370
    25
100
AcDbSpline
210
0.0
220
0.0
230
1.0
 70
     8
 71
     3
 72
    15
 73
    11
 74
     0
 42
0.000000001
 43
0.0000000001
 40
0.0
 40
0.0
 40
0.0
 40
0.0
 40
0.070854868501527
 40
0.1569381495573559
 40
0.2586003949600809
 40
0.3758909295892041
 40
0.5081661676989054
 40
0.6562378085782302
 40
0.8201767703979156
 40
1.0
 40
1.0
 40
1.0
 40
1.0
 10
-14.27794921258379
 20
-61.89829174763873
 30
0.0
 10
-14.28268160594887
 20
-61.91856892121753
 30
0.0
 10
-14.29316349764382
 20
-61.96348131985736
 30
0.0
 10
-14.30335503548745
 20
-62.03882984457916
 30
0.0
 10
-14.31342455346399
 20
-62.12785350334315
 30
0.0
 10
-14.32052117181473
 20
-62.2308000962267
 30
0.0
 10
-14.32709921394201
 20
-62.34741254015485
 30
0.0
 10
-14.33080929616916
 20
-62.47786848577849
 30
0.0
 10
-14.33391243672591
 20
-62.6223018369205
 30
0.0
 10
-14.3339955035968
 20
-62.72327619015274
 30
0.0
 10
-14.33403895617354
 20
-62.77609623481821
 30
0.0
  0
SPLINE
  5
1BC
330
1F
100
AcDbEntity
  8
0
  6
Continuous
 62
     7
370
    25
100
AcDbSpline
210
0.0
220
0.0
230
1.0
 70
     8
 71
     3
 72
    19
 73
    15
 74
     0
 42
0.000000001
 43
0.0000000001
 40
0.0
 40
0.0
 40
0.0
 40
0.0
 40
0.0938065293523319
 40
0.1913381281363379
 40
0.2951906166251708
 40
0.4103123367232998
 40
0.4719302510512762
 40
0.5364251593464326
 40
0.6031187283036312
 40
0.6741176724905954
 40
0.7493320232258825
 40
0.8282833841715609
 40
0.9120398092627615
 40
1.0
 40
1.0
 40
1.0
 40
1.0
 10
-13.76963591130174
 20
-61.3472100168695
 30
0.0
 10
-13.79484164481276
 20
-61.34889005423807
 30
0.0
 10
-13.8462540347775
 20
-61.35231684347671
 30
0.0
 10
-13.92173853418725
 20
-61.37925565124373
 30
0.0
 10
-13.99498573968858
 20
-61.42278089135683
 30
0.0
 10
-14.05315740202459
 20
-61.47105200320775
 30
0.0
 10
-14.09819965489942
 20
-61.5175998006721
 30
0.0
 10
-14.13033988043018
 20
-61.55824820323911
 30
0.0
 10
-14.15982262738387
 20
-61.60382683476755
 30
0.0
 10
-14.18799284778436
 20
-61.65355651857087
 30
0.0
 10
-14.21365914199352
 20
-61.70828636460313
 30
0.0
 10
-14.23761381119724
 20
-61.76746957802503
 30
0.0
 10
-14.25927267411963
 20
-61.83117470679481
 30
0.0
 10
-14.27162291834386
 20
-61.87555722701509
 30
0.0
 10
-14.2779492125838
 20
-61.89829174763874
 30
0.0
  0
SPLINE
  5
1BD
330
1F
100
AcDbEntity
  8
0
  6
Continuous
 62
     7
370
    25
100
AcDbSpline
210
0.0
220
0.0
230
1.0
 70
     8
 71
     3
 72
    11
 73
     7
 74
     0
 42
0.000000001
 43
0.0000000001
 40
0.0
 40
0.0
 40
0.0
 40
0.0
 40
0.2951388013693788
 40
0.5602299448882399
 40
0.7949833567409032
 40
1.0
 40
1.0
 40
1.0
 40
1.0
 10
-13.6090790202761
 20
-61.39278293353616
 30
0.0
 10
-13.62418804141997
 20
-61.38604266742103
 30
0.0
 10
-13.65286785594612
 20
-61.37324835201181
 30
0.0
 10
-13.69482242221486
 20
-61.35810634187977
 30
0.0
 10
-13.73350375894574
 20
-61.34919042603168
 30
0.0
 10
-13.75814731730861
 20
-61.34783970857954
 30
0.0
 10
-13.76963591130174
 20
-61.3472100168695
 30
0.0
  0
SPLINE
  5
1BF
330
1F
100
AcDbEntity
  8
0
  6
Continuous
 62
     7
370
    25
100
AcDbSpline
210
0.0
220
0.0
230
1.0
 70
     8
 71
     3
 72
    11
 73
     7
 74
     0
 42
0.000000001
 43
0.0000000001
 40
0.0
 40
0.0
 40
0.0
 40
0.0
 40
0.2252775478670088
 40
0.4635231951764793
 40
0.7203235553269172
 40
1.0
 40
1.0
 40
1.0
 40
1.0
 10
-13.71004055873764
 20
-61.03310745276694
 30
0.0
 10
-13.68821423225094
 20
-61.03429797936186
 30
0.0
 10
-13.64330514704531
 20
-61.03674756520138
 30
0.0
 10
-13.57532255724107
 20
-61.05395838984325
 30
0.0
 10
-13.50527910533146
 20
-61.08143641239622
 30
0.0
 10
-13.46013671808092
 20
-61.10727663506122
 30
0.0
 10
-13.43660305873764
 20
-61.12074767712591
 30
0.0
  0
SPLINE
  5
1C0
330
1F
100
AcDbEntity
  8
0
  6
Continuous
 62
     7
370
    25
100
AcDbSpline
210
0.0
220
0.0
230
1.0
 70
     8
 71
     3
 72
    15
 73
    11
 74
     0
 42
0.000000001
 43
0.0000000001
 40
0.0
 40
0.0
 40
0.0
 40
0.0
 40
0.1600594124854965
 40
0.3061123827401305
 40
0.4383665141302079
 40
0.5605414552552189
 40
0.6753172249527021
 40
0.7861136344281782
 40
0.8928417881050892
 40
1.0
 40
1.0
 40
1.0
 40
1.0
 10
-14.33403895617354
 20
-61.45448165148488
 30
0.0
 10
-14.31085019742223
 20
-61.41942582315899
 30
0.0
 10
-14.26650187648365
 20
-61.35238182386441
 30
0.0
 10
-14.19278894712991
 20
-61.26371252287259
 30
0.0
 10
-14.1172856158515
 20
-61.19029747626115
 30
0.0
 10
-14.03963042854896
 20
-61.13179395749128
 30
0.0
 10
-13.9592523286388
 20
-61.08798083866743
 30
0.0
 10
-13.87791537692081
 20
-61.05588780363588
 30
0.0
 10
-13.79433990706335
 20
-61.03691048839858
 30
0.0
 10
-13.73817798283546
 20
-61.03437682944125
 30
0.0
 10
-13.71004055873764
 20
-61.03310745276694
 30
0.0
  0
SPLINE
  5
1D4
330
1F
100
AcDbEntity
  8
0
  6
Continuous
 62
     7
370
    25
100
AcDbSpline
210
0.0
220
0.0
230
1.0
 70
     8
 71
     3
 72
    15
 73
    11
 74
     0
 42
0.000000001
 43
0.0000000001
 40
0.0
 40
0.0
 40
0.0
 40
0.0
 40
0.1310919762569313
 40
0.2591412763281449
 40
0.3841617634834064
 40
0.5059919524977792
 40
0.6290980893898606
 40
0.7506691234237123
 40
0.8740389376151265
 40
1.0
 40
1.0
 40
1.0
 40
1.0
 10
29.13065810279809
 20
-77.61644078610024
 30
0.0
 10
29.08587319063156
 20
-77.61731460259323
 30
0.0
 10
28.99734283484283
 20
-77.61904195408899
 30
0.0
 10
28.86691273742398
 20
-77.63542785313567
 30
0.0
 10
28.74165602468375
 20
-77.66251334580978
 30
0.0
 10
28.62064847095326
 20
-77.69960614095571
 30
0.0
 10
28.50547580185019
 20
-77.74904700167396
 30
0.0
 10
28.39376899010916
 20
-77.80702303968748
 30
0.0
 10
28.28836842404515
 20
-77.87779673083388
 30
0.0
 10
28.2224522876494
 20
-77.9317379520227
 30
0.0
 10
28.18915169254169
 20
-77.95898886302331
 30
0.0
  0
SPLINE
  5
1D6
330
1F
100
AcDbEntity
  8
0
  6
Continuous
 62
     7
370
    25
100
AcDbSpline
210
0.0
220
0.0
230
1.0
 70
     8
 71
     3
 72
    15
 73
    11
 74
     0
 42
0.000000001
 43
0.0000000001
 40
0.0
 40
0.0
 40
0.0
 40
0.0
 40
0.1099838451118755
 40
0.2225804973638868
 40
0.3384998709624513
 40
0.4587085654776383
 40
0.5855353464579998
 40
0.7175177429458907
 40
0.85466681975103
 40
1.0
 40
1.0
 40
1.0
 40
1.0
 10
28.18915169254169
 20
-77.95898886302331
 30
0.0
 10
28.1653041468783
 20
-77.98055217105823
 30
0.0
 10
28.11704252655338
 20
-78.02419105113509
 30
0.0
 10
28.05255606728297
 20
-78.0993756319223
 30
0.0
 10
27.99081253487412
 20
-78.18044929215372
 30
0.0
 10
27.93462160237034
 20
-78.27051375586541
 30
0.0
 10
27.88308219314212
 20
-78.3685434401605
 30
0.0
 10
27.83485365431219
 20
-78.47371149049594
 30
0.0
 10
27.79144449419558
 20
-78.58681596229825
 30
0.0
 10
27.76702147986206
 20
-78.66563373262437
 30
0.0
 10
27.75445617972117
 20
-78.70618437584383
 30
0.0
  0
SPLINE
  5
1D7
330
1F
100
AcDbEntity
  8
0
  6
Continuous
 62
     7
370
    25
100
AcDbSpline
210
0.0
220
0.0
230
1.0
 70
     8
 71
     3
 72
    19
 73
    15
 74
     0
 42
0.000000001
 43
0.0000000001
 40
0.0
 40
0.0
 40
0.0
 40
0.0
 40
0.0962401251801459
 40
0.1852312611287022
 40
0.2675005230774378
 40
0.3444003817777744
 40
0.4195948685557302
 40
0.4968906265927783
 40
0.5766379188385185
 40
0.6602678524196371
 40
0.745386615087628
 40
0.8300403273864528
 40
0.9144742116388025
 40
1.0
 40
1.0
 40
1.0
 40
1.0
 10
30.52789367972117
 20
-78.70618437584383
 30
0.0
 10
30.51146993035897
 20
-78.64666598480879
 30
0.0
 10
30.47985949966669
 20
-78.53211224112723
 30
0.0
 10
30.41380755045753
 20
-78.37348239763584
 30
0.0
 10
30.33941963517729
 20
-78.23249968190784
 30
0.0
 10
30.25138859035613
 20
-78.11024306325629
 30
0.0
 10
30.15164755374663
 20
-78.00166661613895
 30
0.0
 10
30.0364401499639
 20
-77.90678292304213
 30
0.0
 10
29.90724601640229
 20
-77.82190085008863
 30
0.0
 10
29.76473295829112
 20
-77.75025442227885
 30
0.0
 10
29.61381612246839
 20
-77.68926890981834
 30
0.0
 10
29.45580727679481
 20
-77.64837588731889
 30
0.0
 10
29.29458186555078
 20
-77.62036225546221
 30
0.0
 10
29.18553288505407
 20
-77.6177535291324
 30
0.0
 10
29.13065810279809
 20
-77.61644078610024
 30
0.0
  0
SPLINE
  5
1D8
330
1F
100
AcDbEntity
  8
0
  6
Continuous
 62
     7
370
    25
100
AcDbSpline
210
0.0
220
0.0
230
1.0
 70
     8
 71
     3
 72
    15
 73
    11
 74
     0
 42
0.000000001
 43
0.0000000001
 40
0.0
 40
0.0
 40
0.0
 40
0.0
 40
0.1310919762569278
 40
0.2591412763281433
 40
0.3841617634834033
 40
0.5059919524977784
 40
0.6290980893898577
 40
0.7506691234237117
 40
0.8740389376151293
 40
1.0
 40
1.0
 40
1.0
 40
1.0
 10
-2.568514116429943
 20
-61.3472100168695
 30
0.0
 10
-2.599863554946513
 20
-61.34782168841457
 30
0.0
 10
-2.66183480399864
 20
-61.3490308344616
 30
0.0
 10
-2.753135872191823
 20
-61.36050096379431
 30
0.0
 10
-2.840815571109995
 20
-61.37946080866617
 30
0.0
 10
-2.925520858721323
 20
-61.40542576526835
 30
0.0
 10
-3.006141727093486
 20
-61.44003436777108
 30
0.0
 10
-3.084336495312187
 20
-61.48061759438057
 30
0.0
 10
-3.158116891556997
 20
-61.53015917818304
 30
0.0
 10
-3.204258187034036
 20
-61.56791803301524
 30
0.0
 10
-3.227568603609433
 20
-61.58699367071565
 30
0.0
  0
SPLINE
  5
1D9
330
1F
100
AcDbEntity
  8
0
  6
Continuous
 62
     7
370
    25
100
AcDbSpline
210
0.0
220
0.0
230
1.0
 70
     8
 71
     3
 72
    19
 73
    15
 74
     0
 42
0.000000001
 43
0.0000000001
 40
0.0
 40
0.0
 40
0.0
 40
0.0
 40
0.0962401251801488
 40
0.1852312611287001
 40
0.2675005230774373
 40
0.3444003817777765
 40
0.4195948685557291
 40
0.4968906265927768
 40
0.5766379188385166
 40
0.6602678524196384
 40
0.7453866150876289
 40
0.8300403273864526
 40
0.9144742116388023
 40
1.0
 40
1.0
 40
1.0
 40
1.0
 10
-1.590449212583791
 20
-62.11003052969001
 30
0.0
 10
-1.601945837137331
 20
-62.0683676559655
 30
0.0
 10
-1.624073138621922
 20
-61.9881800353884
 30
0.0
 10
-1.670309503068346
 20
-61.87713914494443
 30
0.0
 10
-1.722381043764514
 20
-61.77845124393481
 30
0.0
 10
-1.78400277513932
 20
-61.69287161087876
 30
0.0
 10
-1.853821500765961
 20
-61.6168680978966
 30
0.0
 10
-1.93446668341389
 20
-61.55044951272884
 30
0.0
 10
-2.024902576907003
 20
-61.49103206166135
 30
0.0
 10
-2.124661717584825
 20
-61.44087956219454
 30
0.0
 10
-2.230303502660734
 20
-61.39818970347215
 30
0.0
 10
-2.340909694632249
 20
-61.36956458772253
 30
0.0
 10
-2.453767482503061
 20
-61.34995504542291
 30
0.0
 10
-2.53010176885076
 20
-61.34812893699203
 30
0.0
 10
-2.568514116429943
 20
-61.3472100168695
 30
0.0
  0
SPLINE
  5
1DB
330
1F
100
AcDbEntity
  8
0
  6
Continuous
 62
     7
370
    25
100
AcDbSpline
210
0.0
220
0.0
230
1.0
 70
     8
 71
     3
 72
    15
 73
    11
 74
     0
 42
0.000000001
 43
0.0000000001
 40
0.0
 40
0.0
 40
0.0
 40
0.0
 40
0.1099838451118724
 40
0.2225804973638941
 40
0.338499870962447
 40
0.4587085654776372
 40
0.5855353464580002
 40
0.7175177429458936
 40
0.8546668197510191
 40
1.0
 40
1.0
 40
1.0
 40
1.0
 10
-3.227568603609433
 20
-61.58699367071565
 30
0.0
 10
-3.244261885573799
 20
-61.60208798634011
 30
0.0
 10
-3.278045019801243
 20
-61.63263520239389
 30
0.0
 10
-3.32318554129054
 20
-61.68526440894495
 30
0.0
 10
-3.366406013976731
 20
-61.74201597110692
 30
0.0
 10
-3.405739666729378
 20
-61.80506109570513
 30
0.0
 10
-3.441817253189122
 20
-61.87368187471168
 30
0.0
 10
-3.475577230370078
 20
-61.94729950994648
 30
0.0
 10
-3.505963642451697
 20
-62.02647264020811
 30
0.0
 10
-3.523059752485173
 20
-62.0816450794364
 30
0.0
 10
-3.531855462583791
 20
-62.11003052969001
 30
0.0
  0
SPLINE
  5
1EA
330
1F
100
AcDbEntity
  8
0
  6
Continuous
 62
     7
370
    25
100
AcDbSpline
210
0.0
220
0.0
230
1.0
 70
     8
 71
     3
 72
    23
 73
    19
 74
     0
 42
0.000000001
 43
0.0000000001
 40
0.0
 40
0.0
 40
0.0
 40
0.0
 40
0.0688142958243113
 40
0.136364824552214
 40
0.2040193535112497
 40
0.2730637386246137
 40
0.3429133195614922
 40
0.4109654441389591
 40
0.4791687665134476
 40
0.5493080065097829
 40
0.5876515764176502
 40
0.6306466687627913
 40
0.678878785696649
 40
0.7319342992295825
 40
0.7911114229480476
 40
0.855283189513077
 40
0.9250859386773843
 40
1.0
 40
1.0
 40
1.0
 40
1.0
 10
-9.801987674122255
 20
-61.07096802969
 30
0.0
 10
-9.803189795210741
 20
-61.04282145596032
 30
0.0
 10
-9.805571960564016
 20
-60.98704521728175
 30
0.0
 10
-9.825020729090736
 20
-60.90538930699413
 30
0.0
 10
-9.857910110447184
 20
-60.82832235686336
 30
0.0
 10
-9.902232348371967
 20
-60.75615787187165
 30
0.0
 10
-9.95623150333448
 20
-60.69065213601725
 30
0.0
 10
-10.01954931602912
 20
-60.63460498295976
 30
0.0
 10
-10.09045451117918
 20
-60.58835551828163
 30
0.0
 10
-10.15672570953107
 20
-60.55880113776981
 30
0.0
 10
-10.21595992202346
 20
-60.54068128452387
 30
0.0
 10
-10.26738958206437
 20
-60.5279301207128
 30
0.0
 10
-10.32550105978376
 20
-60.51768565178289
 30
0.0
 10
-10.39057651839569
 20
-60.50947759090766
 30
0.0
 10
-10.46233814918057
 20
-60.50242264665887
 30
0.0
 10
-10.54114880027208
 20
-60.49767086800074
 30
0.0
 10
-10.62648558053337
 20
-60.49485700389478
 30
0.0
 10
-10.68563251172479
 20
-60.49471791501417
 30
0.0
 10
-10.71625049463508
 20
-60.49464591430539
 30
0.0
  0
SPLINE
  5
1EB
330
1F
100
AcDbEntity
  8
0
  6
Continuous
 62
     7
370
    25
100
AcDbSpline
210
0.0
220
0.0
230
1.0
 70
     8
 71
     3
 72
    23
 73
    19
 74
     0
 42
0.000000001
 43
0.0000000001
 40
0.0
 40
0.0
 40
0.0
 40
0.0
 40
0.0716681496796058
 40
0.1389132862742047
 40
0.2011845700265598
 40
0.2591244282905449
 40
0.3122550414262356
 40
0.3606815096231105
 40
0.4050861433286438
 40
0.4451016585907119
 40
0.5187777804882608
 40
0.5894615790331979
 40
0.6584622419857165
 40
0.7272832183683664
 40
0.7963224869047174
 40
0.8631748932078828
 40
0.9309493809878546
 40
1.0
 40
1.0
 40
1.0
 40
1.0
 10
-10.73167517412225
 20
-61.66622043353616
 30
0.0
 10
-10.7017551352004
 20
-61.66623367019032
 30
0.0
 10
-10.64376157808099
 20
-61.66625932659609
 30
0.0
 10
-10.5598609132696
 20
-61.66226555035252
 30
0.0
 10
-10.48174080157801
 20
-61.65772223210955
 30
0.0
 10
-10.4097000494156
 20
-61.65077288657282
 30
0.0
 10
-10.34370647408962
 20
-61.64181681484705
 30
0.0
 10
-10.28379306086803
 20
-61.63061383060846
 30
0.0
 10
-10.22986200897129
 20
-61.61756176796153
 30
0.0
 10
-10.16696347054859
 20
-61.59736014215159
 30
0.0
 10
-10.09672693919167
 20
-61.56535412388628
 30
0.0
 10
-10.0203954793146
 20
-61.51878862519177
 30
0.0
 10
-9.955393141564071
 20
-61.46021950602428
 30
0.0
 10
-9.900475279259119
 20
-61.39324604998986
 30
0.0
 10
-9.856345847783796
 20
-61.3196098011522
 30
0.0
 10
-9.825233793449267
 20
-61.24019343193603
 30
0.0
 10
-9.805491351157186
 20
-61.15700183392839
 30
0.0
 10
-9.803162805707756
 20
-61.09982372608366
 30
0.0
 10
-9.801987674122255
 20
-61.07096802969
 30
0.0
  0
SPLINE
  5
1EC
330
1F
100
AcDbEntity
  8
0
  6
Continuous
 62
     7
370
    25
100
AcDbSpline
210
0.0
220
0.0
230
1.0
 70
     8
 71
     3
 72
    15
 73
    11
 74
     0
 42
0.000000001
 43
0.0000000001
 40
0.0
 40
0.0
 40
0.0
 40
0.0
 40
0.1310919762569279
 40
0.2591412763281435
 40
0.3841617634834049
 40
0.5059919524977789
 40
0.6290980893898582
 40
0.7506691234237135
 40
0.8740389376151297
 40
1.0
 40
1.0
 40
1.0
 40
1.0
 10
-7.594155142070972
 20
-61.3472100168695
 30
0.0
 10
-7.625504580587534
 20
-61.34782168841457
 30
0.0
 10
-7.687475829639662
 20
-61.34903083446159
 30
0.0
 10
-7.778776897832848
 20
-61.36050096379431
 30
0.0
 10
-7.866456596751017
 20
-61.37946080866617
 30
0.0
 10
-7.951161884362346
 20
-61.40542576526832
 30
0.0
 10
-8.031782752734507
 20
-61.4400343677711
 30
0.0
 10
-8.109977520953215
 20
-61.48061759438057
 30
0.0
 10
-8.183757917198025
 20
-61.53015917818304
 30
0.0
 10
-8.229899212675066
 20
-61.56791803301523
 30
0.0
 10
-8.253209629250454
 20
-61.58699367071565
 30
0.0
  0
SPLINE
  5
1EE
330
1F
100
AcDbEntity
  8
0
  6
Continuous
 62
     7
370
    25
100
AcDbSpline
210
0.0
220
0.0
230
1.0
 70
     8
 71
     3
 72
    15
 73
    11
 74
     0
 42
0.000000001
 43
0.0000000001
 40
0.0
 40
0.0
 40
0.0
 40
0.0
 40
0.1099838451118734
 40
0.222580497363895
 40
0.3384998709624474
 40
0.4587085654776379
 40
0.5855353464580002
 40
0.7175177429458938
 40
0.8546668197510189
 40
1.0
 40
1.0
 40
1.0
 40
1.0
 10
-8.253209629250454
 20
-61.58699367071565
 30
0.0
 10
-8.269902911214828
 20
-61.60208798634011
 30
0.0
 10
-8.303686045442272
 20
-61.63263520239389
 30
0.0
 10
-8.34882656693156
 20
-61.68526440894492
 30
0.0
 10
-8.392047039617759
 20
-61.74201597110698
 30
0.0
 10
-8.431380692370407
 20
-61.80506109570509
 30
0.0
 10
-8.46745827883015
 20
-61.87368187471168
 30
0.0
 10
-8.501218256011105
 20
-61.94729950994649
 30
0.0
 10
-8.531604668092718
 20
-62.02647264020812
 30
0.0
 10
-8.548700778126196
 20
-62.08164507943639
 30
0.0
 10
-8.557496488224819
 20
-62.11003052969001
 30
0.0
  0
SPLINE
  5
1EF
330
1F
100
AcDbEntity
  8
0
  6
Continuous
 62
     7
370
    25
100
AcDbSpline
210
0.0
220
0.0
230
1.0
 70
     8
 71
     3
 72
    19
 73
    15
 74
     0
 42
0.000000001
 43
0.0000000001
 40
0.0
 40
0.0
 40
0.0
 40
0.0
 40
0.0962401251801487
 40
0.1852312611287
 40
0.2675005230774373
 40
0.3444003817777768
 40
0.4195948685557294
 40
0.4968906265927768
 40
0.5766379188385166
 40
0.6602678524196384
 40
0.7453866150876289
 40
0.8300403273864526
 40
0.9144742116388023
 40
1.0
 40
1.0
 40
1.0
 40
1.0
 10
-6.61609023822482
 20
-62.11003052969001
 30
0.0
 10
-6.62758686277836
 20
-62.0683676559655
 30
0.0
 10
-6.649714164262945
 20
-61.9881800353884
 30
0.0
 10
-6.695950528709367
 20
-61.87713914494443
 30
0.0
 10
-6.748022069405542
 20
-61.77845124393483
 30
0.0
 10
-6.809643800780349
 20
-61.69287161087872
 30
0.0
 10
-6.87946252640699
 20
-61.61686809789661
 30
0.0
 10
-6.960107709054912
 20
-61.55044951272882
 30
0.0
 10
-7.050543602548032
 20
-61.49103206166138
 30
0.0
 10
-7.150302743225846
 20
-61.44087956219453
 30
0.0
 10
-7.255944528301763
 20
-61.39818970347215
 30
0.0
 10
-7.366550720273277
 20
-61.36956458772253
 30
0.0
 10
-7.479408508144088
 20
-61.34995504542291
 30
0.0
 10
-7.555742794491782
 20
-61.34812893699203
 30
0.0
 10
-7.594155142070972
 20
-61.3472100168695
 30
0.0
  0
LINE
  5
1FC
330
1F
100
AcDbEntity
  8
0
  6
Continuous
 62
     7
370
    25
100
AcDbLine
 10
-6.301987674099999
 20
-62.4241330938
 30
0.0
 11
-8.590449212599999
 21
-62.4241330938
 31
0.0
  0
LINE
  5
1FD
330
1F
100
AcDbEntity
  8
0
  6
Continuous
 62
     7
370
    25
100
AcDbLine
 10
-6.715649533099999
 20
-62.8279792476
 30
0.0
 11
-6.4366030587
 21
-62.9745137028
 31
0.0
  0
LINE
  5
1FE
330
1F
100
AcDbEntity
  8
0
  6
Continuous
 62
     7
370
    25
100
AcDbLine
 10
30.9766116284
 20
-79.1549023246
 30
0.0
 11
27.7073808592
 21
-79.1549023246
 31
0.0
  0
LINE
  5
1FF
330
1F
100
AcDbEntity
  8
0
  6
Continuous
 62
     7
370
    25
100
AcDbLine
 10
30.3856661156
 20
-79.73182540149998
 30
0.0
 11
30.78430393610001
 21
-79.94116033739999
 31
0.0
  0
LINE
  5
22F
330
1F
100
AcDbEntity
  8
0
  6
Continuous
 62
     7
370
    25
100
AcDbLine
 10
-63.7415028849116
 20
-36.8856715553
 30
0.0
 11
60.4127559156
 21
-36.8856715553
 31
0.0
  0
LINE
  5
230
330
1F
100
AcDbEntity
  8
0
  6
Continuous
 62
     7
370
    25
100
AcDbLine
 10
60.4127559156
 20
-43.78567155529999
 30
0.0
 11
60.4127559156
 21
-36.8856715553
 31
0.0
  0
LINE
  5
231
330
1F
100
AcDbEntity
  8
0
  6
Continuous
 62
     7
370
    25
100
AcDbLine
 10
70.6627559156
 20
-45.7856715553
 30
0.0
 11
62.4127559156
 21
-45.7856715553
 31
0.0
  0
LINE
  5
232
330
1F
100
AcDbEntity
  8
0
  6
Continuous
 62
     7
370
    25
100
AcDbLine
 10
70.6627559156
 20
-45.7856715553
 30
0.0
 11
70.6627559156
 21
-84.88567155529999
 31
0.0
  0
LINE
  5
233
330
1F
100
AcDbEntity
  8
0
  6
Continuous
 62
     7
370
    25
100
AcDbLine
 10
-63.7415028849116
 20
-86.8856715553
 30
0.0
 11
68.6627559156
 21
-86.8856715553
 31
0.0
  0
LINE
  5
242
330
1F
100
AcDbEntity
  8
0
  6
Continuous
 62
     7
370
    25
100
AcDbLine
 10
19.6945603464
 20
-75.88567155529999
 30
0.0
 11
19.6945603464
 21
-80.88567155529998
 31
0.0
  0
LINE
  5
243
330
1F
100
AcDbEntity
  8
0
  6
Continuous
 62
     7
370
    25
100
AcDbLine
 10
19.2458423977
 20
-75.88567155529999
 30
0.0
 11
19.6945603464
 21
-75.88567155529999
 31
0.0
  0
LINE
  5
244
330
1F
100
AcDbEntity
  8
0
  6
Continuous
 62
     7
370
    25
100
AcDbLine
 10
19.2458423977
 20
-80.88567155529998
 30
0.0
 11
19.2458423977
 21
-75.88567155529999
 31
0.0
  0
LINE
  5
245
330
1F
100
AcDbEntity
  8
0
  6
Continuous
 62
     7
370
    25
100
AcDbLine
 10
19.6945603464
 20
-80.88567155529998
 30
0.0
 11
19.2458423977
 21
-80.88567155529998
 31
0.0
  0
LINE
  5
246
330
1F
100
AcDbEntity
  8
0
  6
Continuous
 62
     7
370
    25
100
AcDbLine
 10
21.297124449
 20
-79.56455777329999
 30
0.0
 11
21.297124449
 21
-80.88567155529998
 31
0.0
  0
LINE
  5
247
330
1F
100
AcDbEntity
  8
0
  6
Continuous
 62
     7
370
    25
100
AcDbLine
 10
23.6048167566
 20
-80.88567155529998
 30
0.0
 11
23.6048167566
 21
-79.16692155529999
 31
0.0
  0
LINE
  5
248
330
1F
100
AcDbEntity
  8
0
  6
Continuous
 62
     7
370
    25
100
AcDbLine
 10
24.0535347054
 20
-80.88567155529998
 30
0.0
 11
23.6048167566
 21
-80.88567155529998
 31
0.0
  0
LINE
  5
249
330
1F
100
AcDbEntity
  8
0
  6
Continuous
 62
     7
370
    25
100
AcDbLine
 10
24.0535347054
 20
-79.0196859784
 30
0.0
 11
24.0535347054
 21
-80.88567155529998
 31
0.0
  0
LINE
  5
24A
330
1F
100
AcDbEntity
  8
0
  6
Continuous
 62
     7
370
    25
100
AcDbLine
 10
21.297124449
 20
-77.23182540149998
 30
0.0
 11
21.297124449
 21
-77.8908798887
 31
0.0
  0
LINE
  5
24B
330
1F
100
AcDbEntity
  8
0
  6
Continuous
 62
     7
370
    25
100
AcDbLine
 10
20.8484065002
 20
-77.23182540149998
 30
0.0
 11
21.297124449
 21
-77.23182540149998
 31
0.0
  0
LINE
  5
24C
330
1F
100
AcDbEntity
  8
0
  6
Continuous
 62
     7
370
    25
100
AcDbLine
 10
20.8484065002
 20
-80.88567155529998
 30
0.0
 11
20.8484065002
 21
-77.23182540149998
 31
0.0
  0
LINE
  5
24D
330
1F
100
AcDbEntity
  8
0
  6
Continuous
 62
     7
370
    25
100
AcDbLine
 10
21.297124449
 20
-80.88567155529998
 30
0.0
 11
20.8484065002
 21
-80.88567155529998
 31
0.0
  0
LINE
  5
24E
330
1F
100
AcDbEntity
  8
0
  6
Continuous
 62
     7
370
    25
100
AcDbLine
 10
24.8868680387
 20
-77.68054335020001
 30
0.0
 11
24.8868680387
 21
-77.23182540149998
 31
0.0
  0
LINE
  5
24F
330
1F
100
AcDbEntity
  8
0
  6
Continuous
 62
     7
370
    25
100
AcDbLine
 10
25.5278936797
 20
-77.68054335020001
 30
0.0
 11
24.8868680387
 21
-77.68054335020001
 31
0.0
  0
LINE
  5
250
330
1F
100
AcDbEntity
  8
0
  6
Continuous
 62
     7
370
    25
100
AcDbLine
 10
25.5278936797
 20
-80.88567155529998
 30
0.0
 11
25.5278936797
 21
-77.68054335020001
 31
0.0
  0
LINE
  5
251
330
1F
100
AcDbEntity
  8
0
  6
Continuous
 62
     7
370
    25
100
AcDbLine
 10
25.9766116284
 20
-80.88567155529998
 30
0.0
 11
25.5278936797
 21
-80.88567155529998
 31
0.0
  0
LINE
  5
252
330
1F
100
AcDbEntity
  8
0
  6
Continuous
 62
     7
370
    25
100
AcDbLine
 10
25.9766116284
 20
-77.68054335020001
 30
0.0
 11
25.9766116284
 21
-80.88567155529998
 31
0.0
  0
LINE
  5
253
330
1F
100
AcDbEntity
  8
0
  6
Continuous
 62
     7
370
    25
100
AcDbLine
 10
26.6176372695
 20
-77.68054335020001
 30
0.0
 11
25.9766116284
 21
-77.68054335020001
 31
0.0
  0
LINE
  5
254
330
1F
100
AcDbEntity
  8
0
  6
Continuous
 62
     7
370
    25
100
AcDbLine
 10
26.6176372695
 20
-77.23182540149998
 30
0.0
 11
26.6176372695
 21
-77.68054335020001
 31
0.0
  0
LINE
  5
255
330
1F
100
AcDbEntity
  8
0
  6
Continuous
 62
     7
370
    25
100
AcDbLine
 10
25.9766116284
 20
-77.23182540149998
 30
0.0
 11
26.6176372695
 21
-77.23182540149998
 31
0.0
  0
LINE
  5
256
330
1F
100
AcDbEntity
  8
0
  6
Continuous
 62
     7
370
    25
100
AcDbLine
 10
25.9766116284
 20
-75.7574664271
 30
0.0
 11
25.9766116284
 21
-77.23182540149998
 31
0.0
  0
LINE
  5
257
330
1F
100
AcDbEntity
  8
0
  6
Continuous
 62
     7
370
    25
100
AcDbLine
 10
25.5278936797
 20
-75.7574664271
 30
0.0
 11
25.9766116284
 21
-75.7574664271
 31
0.0
  0
LINE
  5
258
330
1F
100
AcDbEntity
  8
0
  6
Continuous
 62
     7
370
    25
100
AcDbLine
 10
25.5278936797
 20
-77.23182540149998
 30
0.0
 11
25.5278936797
 21
-75.7574664271
 31
0.0
  0
LINE
  5
259
330
1F
100
AcDbEntity
  8
0
  6
Continuous
 62
     7
370
    25
100
AcDbLine
 10
24.8868680387
 20
-77.23182540149998
 30
0.0
 11
25.5278936797
 21
-77.23182540149998
 31
0.0
  0
LINE
  5
25A
330
1F
100
AcDbEntity
  8
0
  6
Continuous
 62
     7
370
    25
100
AcDbLine
 10
39.1817398336
 20
-77.23182540149998
 30
0.0
 11
39.1817398336
 21
-80.88567155529998
 31
0.0
  0
LINE
  5
25B
330
1F
100
AcDbEntity
  8
0
  6
Continuous
 62
     7
370
    25
100
AcDbLine
 10
38.7330218848
 20
-77.23182540149998
 30
0.0
 11
39.1817398336
 21
-77.23182540149998
 31
0.0
  0
LINE
  5
25C
330
1F
100
AcDbEntity
  8
0
  6
Continuous
 62
     7
370
    25
100
AcDbLine
 10
38.7330218848
 20
-80.88567155529998
 30
0.0
 11
38.7330218848
 21
-77.23182540149998
 31
0.0
  0
LINE
  5
25D
330
1F
100
AcDbEntity
  8
0
  6
Continuous
 62
     7
370
    25
100
AcDbLine
 10
39.1817398336
 20
-80.88567155529998
 30
0.0
 11
38.7330218848
 21
-80.88567155529998
 31
0.0
  0
LINE
  5
25E
330
1F
100
AcDbEntity
  8
0
  6
Continuous
 62
     7
370
    25
100
AcDbLine
 10
40.079175731
 20
-77.68054335020001
 30
0.0
 11
40.079175731
 21
-77.23182540149998
 31
0.0
  0
LINE
  5
25F
330
1F
100
AcDbEntity
  8
0
  6
Continuous
 62
     7
370
    25
100
AcDbLine
 10
40.720201372
 20
-77.68054335020001
 30
0.0
 11
40.079175731
 21
-77.68054335020001
 31
0.0
  0
LINE
  5
260
330
1F
100
AcDbEntity
  8
0
  6
Continuous
 62
     7
370
    25
100
AcDbLine
 10
40.720201372
 20
-80.88567155529998
 30
0.0
 11
40.720201372
 21
-77.68054335020001
 31
0.0
  0
LINE
  5
261
330
1F
100
AcDbEntity
  8
0
  6
Continuous
 62
     7
370
    25
100
AcDbLine
 10
41.16891932069999
 20
-80.88567155529998
 30
0.0
 11
40.720201372
 21
-80.88567155529998
 31
0.0
  0
LINE
  5
262
330
1F
100
AcDbEntity
  8
0
  6
Continuous
 62
     7
370
    25
100
AcDbLine
 10
41.16891932069999
 20
-77.68054335020001
 30
0.0
 11
41.16891932069999
 21
-80.88567155529998
 31
0.0
  0
LINE
  5
263
330
1F
100
AcDbEntity
  8
0
  6
Continuous
 62
     7
370
    25
100
AcDbLine
 10
41.8099449618
 20
-77.68054335020001
 30
0.0
 11
41.16891932069999
 21
-77.68054335020001
 31
0.0
  0
LINE
  5
264
330
1F
100
AcDbEntity
  8
0
  6
Continuous
 62
     7
370
    25
100
AcDbLine
 10
41.8099449618
 20
-77.23182540149998
 30
0.0
 11
41.8099449618
 21
-77.68054335020001
 31
0.0
  0
LINE
  5
265
330
1F
100
AcDbEntity
  8
0
  6
Continuous
 62
     7
370
    25
100
AcDbLine
 10
41.16891932069999
 20
-77.23182540149998
 30
0.0
 11
41.8099449618
 21
-77.23182540149998
 31
0.0
  0
LINE
  5
266
330
1F
100
AcDbEntity
  8
0
  6
Continuous
 62
     7
370
    25
100
AcDbLine
 10
41.16891932069999
 20
-75.7574664271
 30
0.0
 11
41.16891932069999
 21
-77.23182540149998
 31
0.0
  0
LINE
  5
267
330
1F
100
AcDbEntity
  8
0
  6
Continuous
 62
     7
370
    25
100
AcDbLine
 10
40.720201372
 20
-75.7574664271
 30
0.0
 11
41.16891932069999
 21
-75.7574664271
 31
0.0
  0
LINE
  5
268
330
1F
100
AcDbEntity
  8
0
  6
Continuous
 62
     7
370
    25
100
AcDbLine
 10
40.720201372
 20
-77.23182540149998
 30
0.0
 11
40.720201372
 21
-75.7574664271
 31
0.0
  0
LINE
  5
269
330
1F
100
AcDbEntity
  8
0
  6
Continuous
 62
     7
370
    25
100
AcDbLine
 10
40.079175731
 20
-77.23182540149998
 30
0.0
 11
40.720201372
 21
-77.23182540149998
 31
0.0
  0
LINE
  5
26A
330
1F
100
AcDbEntity
  8
0
  6
Continuous
 62
     7
370
    25
100
AcDbLine
 10
43.4125090643
 20
-82.23182540149998
 30
0.0
 11
42.9277334233
 21
-82.23182540149998
 31
0.0
  0
LINE
  5
26B
330
1F
100
AcDbEntity
  8
0
  6
Continuous
 62
     7
370
    25
100
AcDbLine
 10
45.6560988079
 20
-77.23182540149998
 30
0.0
 11
43.4125090643
 21
-82.23182540149998
 31
0.0
  0
LINE
  5
26C
330
1F
100
AcDbEntity
  8
0
  6
Continuous
 62
     7
370
    25
100
AcDbLine
 10
45.17132316689999
 20
-77.23182540149998
 30
0.0
 11
45.6560988079
 21
-77.23182540149998
 31
0.0
  0
LINE
  5
26D
330
1F
100
AcDbEntity
  8
0
  6
Continuous
 62
     7
370
    25
100
AcDbLine
 10
43.91531355149999
 20
-80.0303029656
 30
0.0
 11
45.17132316689999
 21
-77.23182540149998
 31
0.0
  0
LINE
  5
26E
330
1F
100
AcDbEntity
  8
0
  6
Continuous
 62
     7
370
    25
100
AcDbLine
 10
42.6783343848
 20
-77.23182540149998
 30
0.0
 11
43.91531355149999
 21
-80.0303029656
 31
0.0
  0
LINE
  5
26F
330
1F
100
AcDbEntity
  8
0
  6
Continuous
 62
     7
370
    25
100
AcDbLine
 10
42.19456034639999
 20
-77.23182540149998
 30
0.0
 11
42.6783343848
 21
-77.23182540149998
 31
0.0
  0
LINE
  5
270
330
1F
100
AcDbEntity
  8
0
  6
Continuous
 62
     7
370
    25
100
AcDbLine
 10
43.6719241284
 20
-80.57417315790001
 30
0.0
 11
42.19456034639999
 21
-77.23182540149998
 31
0.0
  0
LINE
  5
271
330
1F
100
AcDbEntity
  8
0
  6
Continuous
 62
     7
370
    25
100
AcDbLine
 10
42.9277334233
 20
-82.23182540149998
 30
0.0
 11
43.6719241284
 21
-80.57417315790001
 31
0.0
  0
LINE
  5
272
330
1F
100
AcDbEntity
  8
0
  6
Continuous
 62
     7
370
    25
100
AcDbLine
 10
-0.7827569049
 20
-61.3920818117
 30
0.0
 11
-0.7827569049
 21
-61.0779792476
 31
0.0
  0
LINE
  5
273
330
1F
100
AcDbEntity
  8
0
  6
Continuous
 62
     7
370
    25
100
AcDbLine
 10
-0.3340389562
 20
-61.3920818117
 30
0.0
 11
-0.7827569049
 21
-61.3920818117
 31
0.0
  0
LINE
  5
274
330
1F
100
AcDbEntity
  8
0
  6
Continuous
 62
     7
370
    25
100
AcDbLine
 10
-0.3340389562
 20
-63.6356715553
 30
0.0
 11
-0.3340389562
 21
-61.3920818117
 31
0.0
  0
LINE
  5
275
330
1F
100
AcDbEntity
  8
0
  6
Continuous
 62
     7
370
    25
100
AcDbLine
 10
-0.0199363921
 20
-63.6356715553
 30
0.0
 11
-0.3340389562
 21
-63.6356715553
 31
0.0
  0
LINE
  5
276
330
1F
100
AcDbEntity
  8
0
  6
Continuous
 62
     7
370
    25
100
AcDbLine
 10
-0.0199363921
 20
-61.3920818117
 30
0.0
 11
-0.0199363921
 21
-63.6356715553
 31
0.0
  0
LINE
  5
277
330
1F
100
AcDbEntity
  8
0
  6
Continuous
 62
     7
370
    25
100
AcDbLine
 10
0.4287815565999999
 20
-61.3920818117
 30
0.0
 11
-0.0199363921
 21
-61.3920818117
 31
0.0
  0
LINE
  5
278
330
1F
100
AcDbEntity
  8
0
  6
Continuous
 62
     7
370
    25
100
AcDbLine
 10
0.4287815565999999
 20
-61.0779792476
 30
0.0
 11
0.4287815565999999
 21
-61.3920818117
 31
0.0
  0
LINE
  5
279
330
1F
100
AcDbEntity
  8
0
  6
Continuous
 62
     7
370
    25
100
AcDbLine
 10
-0.0199363921
 20
-61.0779792476
 30
0.0
 11
0.4287815565999999
 21
-61.0779792476
 31
0.0
  0
LINE
  5
27A
330
1F
100
AcDbEntity
  8
0
  6
Continuous
 62
     7
370
    25
100
AcDbLine
 10
-0.0199363921
 20
-60.0459279656
 30
0.0
 11
-0.0199363921
 21
-61.0779792476
 31
0.0
  0
LINE
  5
27B
330
1F
100
AcDbEntity
  8
0
  6
Continuous
 62
     7
370
    25
100
AcDbLine
 10
-0.3340389562
 20
-60.0459279656
 30
0.0
 11
-0.0199363921
 21
-60.0459279656
 31
0.0
  0
LINE
  5
27C
330
1F
100
AcDbEntity
  8
0
  6
Continuous
 62
     7
370
    25
100
AcDbLine
 10
-0.3340389562
 20
-61.0779792476
 30
0.0
 11
-0.3340389562
 21
-60.0459279656
 31
0.0
  0
LINE
  5
27D
330
1F
100
AcDbEntity
  8
0
  6
Continuous
 62
     7
370
    25
100
AcDbLine
 10
-0.7827569049
 20
-61.0779792476
 30
0.0
 11
-0.3340389562
 21
-61.0779792476
 31
0.0
  0
LINE
  5
27E
330
1F
100
AcDbEntity
  8
0
  6
Continuous
 62
     7
370
    25
100
AcDbLine
 10
35.78430393610001
 20
-80.45498245279999
 30
0.0
 11
36.08177989770001
 21
-80.1164407861
 31
0.0
  0
LINE
  5
27F
330
1F
100
AcDbEntity
  8
0
  6
Continuous
 62
     7
370
    25
100
AcDbLine
 10
37.8355859874
 20
-77.6875545682
 30
0.0
 11
37.5310988079
 21
-78.00105617069999
 31
0.0
  0
LINE
  5
280
330
1F
100
AcDbEntity
  8
0
  6
Continuous
 62
     7
370
    25
100
AcDbLine
 10
32.3227654746
 20
-79.56455777329999
 30
0.0
 11
32.3227654746
 21
-80.88567155529998
 31
0.0
  0
LINE
  5
281
330
1F
100
AcDbEntity
  8
0
  6
Continuous
 62
     7
370
    25
100
AcDbLine
 10
34.6304577823
 20
-80.88567155529998
 30
0.0
 11
34.6304577823
 21
-79.16692155529999
 31
0.0
  0
LINE
  5
282
330
1F
100
AcDbEntity
  8
0
  6
Continuous
 62
     7
370
    25
100
AcDbLine
 10
35.079175731
 20
-80.88567155529998
 30
0.0
 11
34.6304577823
 21
-80.88567155529998
 31
0.0
  0
LINE
  5
283
330
1F
100
AcDbEntity
  8
0
  6
Continuous
 62
     7
370
    25
100
AcDbLine
 10
35.079175731
 20
-79.0196859784
 30
0.0
 11
35.079175731
 21
-80.88567155529998
 31
0.0
  0
LINE
  5
284
330
1F
100
AcDbEntity
  8
0
  6
Continuous
 62
     7
370
    25
100
AcDbLine
 10
32.3227654746
 20
-77.23182540149998
 30
0.0
 11
32.3227654746
 21
-77.8908798887
 31
0.0
  0
LINE
  5
285
330
1F
100
AcDbEntity
  8
0
  6
Continuous
 62
     7
370
    25
100
AcDbLine
 10
31.8740475259
 20
-77.23182540149998
 30
0.0
 11
32.3227654746
 21
-77.23182540149998
 31
0.0
  0
LINE
  5
286
330
1F
100
AcDbEntity
  8
0
  6
Continuous
 62
     7
370
    25
100
AcDbLine
 10
31.8740475259
 20
-80.88567155529998
 30
0.0
 11
31.8740475259
 21
-77.23182540149998
 31
0.0
  0
LINE
  5
287
330
1F
100
AcDbEntity
  8
0
  6
Continuous
 62
     7
370
    25
100
AcDbLine
 10
32.3227654746
 20
-80.88567155529998
 30
0.0
 11
31.8740475259
 21
-80.88567155529998
 31
0.0
  0
LINE
  5
288
330
1F
100
AcDbEntity
  8
0
  6
Continuous
 62
     7
370
    25
100
AcDbLine
 10
-1.276346648499999
 20
-62.4241330938
 30
0.0
 11
-3.5648081869
 21
-62.4241330938
 31
0.0
  0
LINE
  5
289
330
1F
100
AcDbEntity
  8
0
  6
Continuous
 62
     7
370
    25
100
AcDbLine
 10
-1.690008507499999
 20
-62.8279792476
 30
0.0
 11
-1.4109620331
 21
-62.9745137028
 31
0.0
  0
LINE
  5
28A
330
1F
100
AcDbEntity
  8
0
  6
Continuous
 62
     7
370
    25
100
AcDbLine
 10
-5.898141520299999
 20
-63.3341891835
 30
0.0
 11
-5.6899083472
 21
-63.09721001689999
 31
0.0
  0
LINE
  5
28B
330
1F
100
AcDbEntity
  8
0
  6
Continuous
 62
     7
370
    25
100
AcDbLine
 10
-4.462244084399999
 20
-61.3969896643
 30
0.0
 11
-4.675385109999999
 21
-61.6164407861
 31
0.0
  0
LINE
  5
28C
330
1F
100
AcDbEntity
  8
0
  6
Continuous
 62
     7
370
    25
100
AcDbLine
 10
-11.3725004946
 20
-62.0202869399
 30
0.0
 11
-11.3725004946
 21
-63.6356715553
 31
0.0
  0
LINE
  5
28D
330
1F
100
AcDbEntity
  8
0
  6
Continuous
 62
     7
370
    25
100
AcDbLine
 10
-11.1172921613
 20
-62.0202869399
 30
0.0
 11
-11.3725004946
 21
-62.0202869399
 31
0.0
  0
LINE
  5
28E
330
1F
100
AcDbEntity
  8
0
  6
Continuous
 62
     7
370
    25
100
AcDbLine
 10
-9.831434789500001
 20
-63.6356715553
 30
0.0
 11
-11.1172921613
 21
-62.0202869399
 31
0.0
  0
LINE
  5
28F
330
1F
100
AcDbEntity
  8
0
  6
Continuous
 62
     7
370
    25
100
AcDbLine
 10
-9.443013315099999
 20
-63.6356715553
 30
0.0
 11
-9.831434789500001
 21
-63.6356715553
 31
0.0
  0
LINE
  5
290
330
1F
100
AcDbEntity
  8
0
  6
Continuous
 62
     7
370
    25
100
AcDbLine
 10
-10.7288706869
 20
-62.0202869399
 30
0.0
 11
-9.443013315099999
 21
-63.6356715553
 31
0.0
  0
LINE
  5
291
330
1F
100
AcDbEntity
  8
0
  6
Continuous
 62
     7
370
    25
100
AcDbLine
 10
-11.6866030587
 20
-60.1356715553
 30
0.0
 11
-10.9861823857
 21
-60.1356715553
 31
0.0
  0
LINE
  5
292
330
1F
100
AcDbEntity
  8
0
  6
Continuous
 62
     7
370
    25
100
AcDbLine
 10
-11.6866030587
 20
-63.6356715553
 30
0.0
 11
-11.6866030587
 21
-60.1356715553
 31
0.0
  0
LINE
  5
293
330
1F
100
AcDbEntity
  8
0
  6
Continuous
 62
     7
370
    25
100
AcDbLine
 10
-11.3725004946
 20
-63.6356715553
 30
0.0
 11
-11.6866030587
 21
-63.6356715553
 31
0.0
  0
LINE
  5
294
330
1F
100
AcDbEntity
  8
0
  6
Continuous
 62
     7
370
    25
100
AcDbLine
 10
-14.3340389562
 20
-62.7760962348
 30
0.0
 11
-14.3340389562
 21
-63.6356715553
 31
0.0
  0
LINE
  5
295
330
1F
100
AcDbEntity
  8
0
  6
Continuous
 62
     7
370
    25
100
AcDbLine
 10
-13.4366030587
 20
-61.1207476771
 30
0.0
 11
-13.6090790203
 21
-61.3927829335
 31
0.0
  0
LINE
  5
296
330
1F
100
AcDbEntity
  8
0
  6
Continuous
 62
     7
370
    25
100
AcDbLine
 10
-14.3340389562
 20
-61.0779792476
 30
0.0
 11
-14.3340389562
 21
-61.4544816515
 31
0.0
  0
LINE
  5
297
330
1F
100
AcDbEntity
  8
0
  6
Continuous
 62
     7
370
    25
100
AcDbLine
 10
-14.6481415203
 20
-61.0779792476
 30
0.0
 11
-14.3340389562
 21
-61.0779792476
 31
0.0
  0
LINE
  5
298
330
1F
100
AcDbEntity
  8
0
  6
Continuous
 62
     7
370
    25
100
AcDbLine
 10
-14.6481415203
 20
-63.6356715553
 30
0.0
 11
-14.6481415203
 21
-61.0779792476
 31
0.0
  0
LINE
  5
299
330
1F
100
AcDbEntity
  8
0
  6
Continuous
 62
     7
370
    25
100
AcDbLine
 10
-14.3340389562
 20
-63.6356715553
 30
0.0
 11
-14.6481415203
 21
-63.6356715553
 31
0.0
  0
LINE
  5
29A
330
1F
100
AcDbEntity
  8
0
  6
Continuous
 62
     7
370
    25
100
AcDbLine
 10
-15.096859469
 20
-60.1356715553
 30
0.0
 11
-16.5776286998
 21
-63.6356715553
 31
0.0
  0
LINE
  5
29B
330
1F
100
AcDbEntity
  8
0
  6
Continuous
 62
     7
370
    25
100
AcDbLine
 10
-15.4333979305
 20
-60.1356715553
 30
0.0
 11
-15.096859469
 21
-60.1356715553
 31
0.0
  0
LINE
  5
29C
330
1F
100
AcDbEntity
  8
0
  6
Continuous
 62
     7
370
    25
100
AcDbLine
 10
-16.6000645972
 20
-62.8938846964
 30
0.0
 11
-15.4333979305
 21
-60.1356715553
 31
0.0
  0
LINE
  5
29D
330
1F
100
AcDbEntity
  8
0
  6
Continuous
 62
     7
370
    25
100
AcDbLine
 10
-17.7667312639
 20
-60.1356715553
 30
0.0
 11
-16.6000645972
 21
-62.8938846964
 31
0.0
  0
LINE
  5
29E
330
1F
100
AcDbEntity
  8
0
  6
Continuous
 62
     7
370
    25
100
AcDbLine
 10
-18.1032697254
 20
-60.1356715553
 30
0.0
 11
-17.7667312639
 21
-60.1356715553
 31
0.0
  0
LINE
  5
29F
330
1F
100
AcDbEntity
  8
0
  6
Continuous
 62
     7
370
    25
100
AcDbLine
 10
-16.6225004946
 20
-63.6356715553
 30
0.0
 11
-18.1032697254
 21
-60.1356715553
 31
0.0
  0
LINE
  5
2A0
330
1F
100
AcDbEntity
  8
0
  6
Continuous
 62
     7
370
    25
100
AcDbLine
 10
-16.5776286998
 20
-63.6356715553
 30
0.0
 11
-16.6225004946
 21
-63.6356715553
 31
0.0
  0
LINE
  5
2A1
330
1F
100
AcDbEntity
  8
0
  6
Continuous
 62
     7
370
    25
100
AcDbLine
 10
27.7544561797
 20
-78.70618437579999
 30
0.0
 11
30.5278936797
 21
-78.70618437579999
 31
0.0
  0
LINE
  5
2A2
330
1F
100
AcDbEntity
  8
0
  6
Continuous
 62
     7
370
    25
100
AcDbLine
 10
-3.531855462599999
 20
-62.1100305297
 30
0.0
 11
-1.590449212599999
 21
-62.1100305297
 31
0.0
  0
LINE
  5
2A6
330
1F
100
AcDbEntity
  8
0
  6
Continuous
 62
     7
370
    25
100
AcDbLine
 10
-11.3725004946
 20
-61.661312581
 30
0.0
 11
-10.7316751741
 21
-61.6662204335
 31
0.0
  0
LINE
  5
2A7
330
1F
100
AcDbEntity
  8
0
  6
Continuous
 62
     7
370
    25
100
AcDbLine
 10
-11.3725004946
 20
-60.4946459143
 30
0.0
 11
-11.3725004946
 21
-61.661312581
 31
0.0
  0
LINE
  5
2A8
330
1F
100
AcDbEntity
  8
0
  6
Continuous
 62
     7
370
    25
100
AcDbLine
 10
-10.7162504946
 20
-60.4946459143
 30
0.0
 11
-11.3725004946
 21
-60.4946459143
 31
0.0
  0
LINE
  5
2A9
330
1F
100
AcDbEntity
  8
0
  6
Continuous
 62
     7
370
    25
100
AcDbLine
 10
-8.557496488199999
 20
-62.1100305297
 30
0.0
 11
-6.6160902382
 21
-62.1100305297
 31
0.0
  0
ARC
  5
2AE
330
1F
100
AcDbEntity
  8
0
  6
Continuous
 62
     7
370
    25
100
AcDbCircle
 10
62.4127559156
 20
-43.78567155529999
 30
0.0
 40
2.000000000000035
100
AcDbArc
 50
180.0
 51
270.0
  0
ARC
  5
2AF
330
1F
100
AcDbEntity
  8
0
  6
Continuous
 62
     7
370
    25
100
AcDbCircle
 10
68.6627559156
 20
-84.88567155529999
 30
0.0
 40
1.999999999999985
100
AcDbArc
 50
270.0
 51
0.0
  0
LINE
  5
2D0
330
1F
100
AcDbEntity
  8
0
100
AcDbLine
 10
-63.7415028849116
 20
-36.8856715553
 30
0.0
 11
-63.7415028849116
 21
-86.8856715553
 31
0.0
  0
ENDSEC
  0
SECTION
  2
OBJECTS
  0
DICTIONARY
  5
C
330
0
100
AcDbDictionary
281
     1
  3
ACAD_CIP_PREVIOUS_PRODUCT_INFO
350
2C7
  3
ACAD_COLOR
350
2C2
  3
ACAD_DETAILVIEWSTYLE
350
2BC
  3
ACAD_GROUP
350
D
  3
ACAD_LAYOUT
350
1A
  3
ACAD_MATERIAL
350
43
  3
ACAD_MLEADERSTYLE
350
6B
  3
ACAD_MLINESTYLE
350
17
  3
ACAD_PLOTSETTINGS
350
19
  3
ACAD_PLOTSTYLENAME
350
E
  3
ACAD_SCALELIST
350
47
  3
ACAD_SECTIONVIEWSTYLE
350
2BD
  3
ACAD_TABLESTYLE
350
69
  3
ACAD_VISUALSTYLE
350
2A
  3
ACDB_RECOMPOSE_DATA
350
2D5
  3
AcDbVariableDictionary
350
2B5
  0
SUN
  5
6D
330
29
100
AcDbSun
 90
        1
290
     1
 63
     7
421
 16777215
 40
1.0
291
     1
 91
  2455826
 92
 54000000
292
     0
 70
     0
 71
   256
280
     1
1001
ACAD
1000
AcDbSavedByObjectVersion
1070
     0
  0
XRECORD
  5
2C7
102
{ACAD_REACTORS
330
C
102
}
330
C
100
AcDbXrecord
280
     1
300
ACDLT
300
2022
300

  0
DICTIONARY
  5
2C2
102
{ACAD_REACTORS
330
C
102
}
330
C
100
AcDbDictionary
281
     1
  0
DICTIONARY
  5
2BC
102
{ACAD_REACTORS
330
C
102
}
330
C
100
AcDbDictionary
281
     1
  3
Metric50
350
2C4
  0
DICTIONARY
  5
D
102
{ACAD_REACTORS
330
C
102
}
330
C
100
AcDbDictionary
281
     1
  0
DICTIONARY
  5
1A
102
{ACAD_REACTORS
330
C
102
}
330
C
100
AcDbDictionary
281
     1
  3
Layout1
350
1E
  3
Layout2
350
26
  3
Model
350
22
  0
DICTIONARY
  5
43
102
{ACAD_REACTORS
330
C
102
}
330
C
100
AcDbDictionary
281
     1
  3
ByBlock
350
45
  3
ByLayer
350
44
  3
Global
350
46
  0
DICTIONARY
  5
6B
102
{ACAD_REACTORS
330
C
102
}
330
C
100
AcDbDictionary
281
     1
  3
Standard
350
6C
  0
DICTIONARY
  5
17
102
{ACAD_REACTORS
330
C
102
}
330
C
100
AcDbDictionary
281
     1
  3
Standard
350
18
  0
DICTIONARY
  5
19
102
{ACAD_REACTORS
330
C
102
}
330
C
100
AcDbDictionary
281
     1
  0
ACDBDICTIONARYWDFLT
  5
E
102
{ACAD_REACTORS
330
C
102
}
330
C
100
AcDbDictionary
281
     1
  3
Normal
350
F
100
AcDbDictionaryWithDefault
340
F
  0
DICTIONARY
  5
47
102
{ACAD_REACTORS
330
C
102
}
330
C
100
AcDbDictionary
281
     1
  3
A0
350
48
  3
A1
350
49
  3
A2
350
4A
  3
A3
350
4B
  3
A4
350
4C
  3
A5
350
4D
  3
A6
350
4E
  3
A7
350
4F
  3
A8
350
50
  3
A9
350
51
  3
B0
350
52
  3
B1
350
53
  3
B2
350
54
  3
B3
350
55
  3
B4
350
56
  3
B5
350
57
  3
B6
350
58
  3
B7
350
59
  3
B8
350
5A
  3
B9
350
5B
  3
C0
350
5C
  3
C1
350
5D
  3
C2
350
5E
  3
C3
350
5F
  3
C4
350
60
  3
C5
350
61
  3
C6
350
62
  3
C7
350
63
  3
C8
350
64
  3
C9
350
65
  3
D0
350
66
  3
D1
350
67
  3
D2
350
68
  0
DICTIONARY
  5
2BD
102
{ACAD_REACTORS
330
C
102
}
330
C
100
AcDbDictionary
281
     1
  3
Metric50
350
2C3
  0
DICTIONARY
  5
69
102
{ACAD_REACTORS
330
C
102
}
330
C
100
AcDbDictionary
281
     1
  3
Standard
350
6A
  0
DICTIONARY
  5
2A
102
{ACAD_REACTORS
330
C
102
}
330
C
100
AcDbDictionary
281
     1
  3
2dWireframe
350
2F
  3
Basic
350
32
  3
Brighten
350
36
  3
ColorChange
350
3A
  3
Conceptual
350
34
  3
Dim
350
35
  3
EdgeColorOff
350
3D
  3
Facepattern
350
39
  3
Flat
350
2B
  3
FlatWithEdges
350
2C
  3
Gouraud
350
2D
  3
GouraudWithEdges
350
2E
  3
Hidden
350
31
  3
JitterOff
350
3B
  3
Linepattern
350
38
  3
OverhangOff
350
3C
  3
Realistic
350
33
  3
Shaded
350
42
  3
Shaded with edges
350
41
  3
Shades of Gray
350
3E
  3
Sketchy
350
3F
  3
Thicken
350
37
  3
Wireframe
350
30
  3
X-Ray
350
40
  0
XRECORD
  5
2D5
102
{ACAD_REACTORS
330
C
102
}
330
C
100
AcDbXrecord
280
     1
 90
        1
330
6A
  0
DICTIONARY
  5
2B5
102
{ACAD_REACTORS
330
C
102
}
330
C
100
AcDbDictionary
281
     1
  3
CANNOSCALE
350
2B6
  3
CENTEREXE
350
2BE
  3
CENTERLTYPEFILE
350
2BF
  3
CMLEADERSTYLE
350
2BB
  3
CTABLESTYLE
350
2BA
  3
CVIEWDETAILSTYLE
350
2D1
  3
CVIEWSECTIONSTYLE
350
2D2
  0
ACDBDETAILVIEWSTYLE
  5
2C4
102
{ACAD_XDICTIONARY
360
2D8
102
}
102
{ACAD_REACTORS
330
2BC
102
}
330
2BC
100
AcDbModelDocViewStyle
 70
     0
  3
Metric50
290
     0
100
AcDbDetailViewStyle
 70
     0
 71
     0
 90
        3
 71
     1
340
11
 62
   256
 40
5.0
340
0
 62
   256
 40
5.0
300

 40
0.0
280
     1
 71
     2
340
16
 90
       25
 62
   256
 71
     3
340
11
 62
   256
 40
5.0
 90
        0
 40
15.0
 90
        1
300
%<\AcVar ViewDetailId>% (%<\AcVar ViewScale \f "%sn">%)
 71
     4
340
16
 90
       25
 62
   256
340
16
 90
       25
 62
   256
280
     0
  0
LAYOUT
  5
1E
102
{ACAD_REACTORS
330
1A
102
}
330
1A
100
AcDbPlotSettings
  1

  2
none_device
  4

  6

 40
0.0
 41
0.0
 42
0.0
 43
0.0
 44
0.0
 45
0.0
 46
0.0
 47
0.0
 48
0.0
 49
0.0
140
0.0
141
0.0
142
1.0
143
1.0
 70
   688
 72
     1
 73
     0
 74
     5
  7

 75
    16
147
1.0
 76
     0
 77
     2
 78
   300
148
0.0
149
0.0
100
AcDbLayout
  1
Layout1
 70
     1
 71
     1
 10
0.0
 20
0.0
 11
420.0
 21
297.0
 12
0.0
 22
0.0
 32
0.0
 14
1.000000000000000E+20
 24
1.000000000000000E+20
 34
1.000000000000000E+20
 15
-1.000000000000000E+20
 25
-1.000000000000000E+20
 35
-1.000000000000000E+20
146
0.0
 13
0.0
 23
0.0
 33
0.0
 16
1.0
 26
0.0
 36
0.0
 17
0.0
 27
1.0
 37
0.0
 76
     0
330
1B
  0
LAYOUT
  5
26
102
{ACAD_REACTORS
330
1A
102
}
330
1A
100
AcDbPlotSettings
  1

  2
none_device
  4

  6

 40
0.0
 41
0.0
 42
0.0
 43
0.0
 44
0.0
 45
0.0
 46
0.0
 47
0.0
 48
0.0
 49
0.0
140
0.0
141
0.0
142
1.0
143
1.0
 70
   688
 72
     1
 73
     0
 74
     5
  7

 75
    16
147
1.0
 76
     0
 77
     2
 78
   300
148
0.0
149
0.0
100
AcDbLayout
  1
Layout2
 70
     1
 71
     2
 10
0.0
 20
0.0
 11
0.0
 21
0.0
 12
0.0
 22
0.0
 32
0.0
 14
0.0
 24
0.0
 34
0.0
 15
0.0
 25
0.0
 35
0.0
146
0.0
 13
0.0
 23
0.0
 33
0.0
 16
1.0
 26
0.0
 36
0.0
 17
0.0
 27
1.0
 37
0.0
 76
     0
330
23
  0
LAYOUT
  5
22
102
{ACAD_REACTORS
330
1A
102
}
330
1A
100
AcDbPlotSettings
  1

  2
none_device
  4
ANSI_A_(11.00_x_8.50_Inches)
  6

 40
6.349999999999999
 41
19.05
 42
6.350005079999999
 43
19.05000254
 44
279.4
 45
215.9
 46
189.8716490801
 47
160.5232123963
 48
0.0
 49
0.0
140
0.0
141
0.0
142
0.0455648536
143
1.0
 70
  1696
 72
     0
 73
     0
 74
     0
  7

 75
     0
147
0.0179189148
 76
     0
 77
     2
 78
   300
148
-1300.4909072572
149
0.0
100
AcDbLayout
  1
Model
 70
     1
 71
     0
 10
0.0
 20
0.0
 11
420.0
 21
297.0
 12
0.0
 22
0.0
 32
0.0
 14
-168.3372440844
 24
-86.8856715553
 34
0.0
 15
70.6627559156
 25
-36.8856715553
 35
0.0
146
0.0
 13
0.0
 23
0.0
 33
0.0
 16
1.0
 26
0.0
 36
0.0
 17
0.0
 27
1.0
 37
0.0
 76
     0
330
1F
331
29
  0
MATERIAL
  5
45
102
{ACAD_REACTORS
330
43
102
}
330
43
100
AcDbMaterial
  1
ByBlock
  0
MATERIAL
  5
44
102
{ACAD_REACTORS
330
43
102
}
330
43
100
AcDbMaterial
  1
ByLayer
  0
MATERIAL
  5
46
102
{ACAD_REACTORS
330
43
102
}
330
43
100
AcDbMaterial
  1
Global
  0
MLEADERSTYLE
  5
6C
102
{ACAD_REACTORS
330
6B
102
}
330
6B
100
AcDbMLeaderStyle
179
     2
170
     2
171
     1
172
     0
 90
        2
 40
0.0
 41
0.0
173
     1
 91
-1056964608
340
14
 92
       -2
290
     1
 42
2.0
291
     1
 43
8.0
  3
Standard
 44
4.0
300

342
11
174
     1
178
     6
175
     1
176
     0
 93
-1056964608
 45
4.0
292
     0
297
     0
 46
4.0
 94
-1056964608
 47
1.0
 49
1.0
140
1.0
293
     1
141
0.0
294
     1
177
     0
142
1.0
295
     0
296
     0
143
3.75
271
     0
272
     9
273
     9
298
     0
  0
MLINESTYLE
  5
18
102
{ACAD_REACTORS
330
17
102
}
330
17
100
AcDbMlineStyle
  2
STANDARD
 70
     0
  3

 62
   256
 51
90.0
 52
90.0
 71
     2
 49
0.5
 62
   256
  6
BYLAYER
 49
-0.5
 62
   256
  6
BYLAYER
  0
ACDBPLACEHOLDER
  5
F
102
{ACAD_REACTORS
330
E
102
}
330
E
  0
SCALE
  5
48
102
{ACAD_REACTORS
330
47
102
}
330
47
100
AcDbScale
 70
     0
300
1:1
140
1.0
141
1.0
290
     1
  0
SCALE
  5
49
102
{ACAD_REACTORS
330
47
102
}
330
47
100
AcDbScale
 70
     0
300
1:2
140
1.0
141
2.0
290
     0
  0
SCALE
  5
4A
102
{ACAD_REACTORS
330
47
102
}
330
47
100
AcDbScale
 70
     0
300
1:4
140
1.0
141
4.0
290
     0
  0
SCALE
  5
4B
102
{ACAD_REACTORS
330
47
102
}
330
47
100
AcDbScale
 70
     0
300
1:5
140
1.0
141
5.0
290
     0
  0
SCALE
  5
4C
102
{ACAD_REACTORS
330
47
102
}
330
47
100
AcDbScale
 70
     0
300
1:8
140
1.0
141
8.0
290
     0
  0
SCALE
  5
4D
102
{ACAD_REACTORS
330
47
102
}
330
47
100
AcDbScale
 70
     0
300
1:10
140
1.0
141
10.0
290
     0
  0
SCALE
  5
4E
102
{ACAD_REACTORS
330
47
102
}
330
47
100
AcDbScale
 70
     0
300
1:16
140
1.0
141
16.0
290
     0
  0
SCALE
  5
4F
102
{ACAD_REACTORS
330
47
102
}
330
47
100
AcDbScale
 70
     0
300
1:20
140
1.0
141
20.0
290
     0
  0
SCALE
  5
50
102
{ACAD_REACTORS
330
47
102
}
330
47
100
AcDbScale
 70
     0
300
1:30
140
1.0
141
30.0
290
     0
  0
SCALE
  5
51
102
{ACAD_REACTORS
330
47
102
}
330
47
100
AcDbScale
 70
     0
300
1:40
140
1.0
141
40.0
290
     0
  0
SCALE
  5
52
102
{ACAD_REACTORS
330
47
102
}
330
47
100
AcDbScale
 70
     0
300
1:50
140
1.0
141
50.0
290
     0
  0
SCALE
  5
53
102
{ACAD_REACTORS
330
47
102
}
330
47
100
AcDbScale
 70
     0
300
1:100
140
1.0
141
100.0
290
     0
  0
SCALE
  5
54
102
{ACAD_REACTORS
330
47
102
}
330
47
100
AcDbScale
 70
     0
300
2:1
140
2.0
141
1.0
290
     0
  0
SCALE
  5
55
102
{ACAD_REACTORS
330
47
102
}
330
47
100
AcDbScale
 70
     0
300
4:1
140
4.0
141
1.0
290
     0
  0
SCALE
  5
56
102
{ACAD_REACTORS
330
47
102
}
330
47
100
AcDbScale
 70
     0
300
8:1
140
8.0
141
1.0
290
     0
  0
SCALE
  5
57
102
{ACAD_REACTORS
330
47
102
}
330
47
100
AcDbScale
 70
     0
300
10:1
140
10.0
141
1.0
290
     0
  0
SCALE
  5
58
102
{ACAD_REACTORS
330
47
102
}
330
47
100
AcDbScale
 70
     0
300
100:1
140
100.0
141
1.0
290
     0
  0
SCALE
  5
59
102
{ACAD_REACTORS
330
47
102
}
330
47
100
AcDbScale
 70
     0
300
1/128" = 1'-0"
140
0.0078125
141
12.0
290
     0
  0
SCALE
  5
5A
102
{ACAD_REACTORS
330
47
102
}
330
47
100
AcDbScale
 70
     0
300
1/64" = 1'-0"
140
0.015625
141
12.0
290
     0
  0
SCALE
  5
5B
102
{ACAD_REACTORS
330
47
102
}
330
47
100
AcDbScale
 70
     0
300
1/32" = 1'-0"
140
0.03125
141
12.0
290
     0
  0
SCALE
  5
5C
102
{ACAD_REACTORS
330
47
102
}
330
47
100
AcDbScale
 70
     0
300
1/16" = 1'-0"
140
0.0625
141
12.0
290
     0
  0
SCALE
  5
5D
102
{ACAD_REACTORS
330
47
102
}
330
47
100
AcDbScale
 70
     0
300
3/32" = 1'-0"
140
0.09375
141
12.0
290
     0
  0
SCALE
  5
5E
102
{ACAD_REACTORS
330
47
102
}
330
47
100
AcDbScale
 70
     0
300
1/8" = 1'-0"
140
0.125
141
12.0
290
     0
  0
SCALE
  5
5F
102
{ACAD_REACTORS
330
47
102
}
330
47
100
AcDbScale
 70
     0
300
3/16" = 1'-0"
140
0.1875
141
12.0
290
     0
  0
SCALE
  5
60
102
{ACAD_REACTORS
330
47
102
}
330
47
100
AcDbScale
 70
     0
300
1/4" = 1'-0"
140
0.25
141
12.0
290
     0
  0
SCALE
  5
61
102
{ACAD_REACTORS
330
47
102
}
330
47
100
AcDbScale
 70
     0
300
3/8" = 1'-0"
140
0.375
141
12.0
290
     0
  0
SCALE
  5
62
102
{ACAD_REACTORS
330
47
102
}
330
47
100
AcDbScale
 70
     0
300
1/2" = 1'-0"
140
0.5
141
12.0
290
     0
  0
SCALE
  5
63
102
{ACAD_REACTORS
330
47
102
}
330
47
100
AcDbScale
 70
     0
300
3/4" = 1'-0"
140
0.75
141
12.0
290
     0
  0
SCALE
  5
64
102
{ACAD_REACTORS
330
47
102
}
330
47
100
AcDbScale
 70
     0
300
1" = 1'-0"
140
1.0
141
12.0
290
     0
  0
SCALE
  5
65
102
{ACAD_REACTORS
330
47
102
}
330
47
100
AcDbScale
 70
     0
300
1-1/2" = 1'-0"
140
1.5
141
12.0
290
     0
  0
SCALE
  5
66
102
{ACAD_REACTORS
330
47
102
}
330
47
100
AcDbScale
 70
     0
300
3" = 1'-0"
140
3.0
141
12.0
290
     0
  0
SCALE
  5
67
102
{ACAD_REACTORS
330
47
102
}
330
47
100
AcDbScale
 70
     0
300
6" = 1'-0"
140
6.0
141
12.0
290
     0
  0
SCALE
  5
68
102
{ACAD_REACTORS
330
47
102
}
330
47
100
AcDbScale
 70
     0
300
1'-0" = 1'-0"
140
12.0
141
12.0
290
     0
  0
ACDBSECTIONVIEWSTYLE
  5
2C3
102
{ACAD_XDICTIONARY
360
2D6
102
}
102
{ACAD_REACTORS
330
2BD
102
}
330
2BD
100
AcDbModelDocViewStyle
 70
     0
  3
Metric50
290
     0
100
AcDbSectionViewStyle
 70
     0
 71
     0
 90
      102
 71
     1
340
11
 62
   256
 40
5.0
340
0
340
0
 62
   256
 40
5.0
300
I, O, Q, S, X, Z
 40
10.0
 90
        0
 40
2.5
 90
        0
 71
     2
340
16
 90
       25
 62
   256
340
16
 90
       50
 62
   256
 40
5.0
 40
2.5
 40
5.0
 71
     3
340
11
 62
   256
 40
5.0
 90
        0
 40
15.0
 90
        1
300
%<\AcVar ViewSectionStartId>%-%<\AcVar ViewSectionEndId>% (%<\AcVar ViewScale \f "%sn">%)
 71
     4
 62
   256
 62
   257
300
ANSI31
 40
1.0
 90
        0
290
     0
290
     0
 90
        6
 40
0.0
 40
1.570796326794896
 40
0.2617993877991494
 40
1.308996938995747
 40
-0.2617993877991494
 40
1.832595714594046
  0
TABLESTYLE
  5
6A
102
{ACAD_XDICTIONARY
360
2B7
102
}
102
{ACAD_REACTORS
330
69
102
}
330
69
100
AcDbTableStyle
280
     0
  3
Standard
 70
     0
 71
     0
 40
1.5
 41
1.5
280
     0
281
     0
  7
Standard
140
4.5
170
     2
 62
     0
 63
     7
283
     0
 90
        4
 91
        0
  1

274
    -2
284
     1
 64
     0
275
    -2
285
     1
 65
     0
276
    -2
286
     1
 66
     0
277
    -2
287
     1
 67
     0
278
    -2
288
     1
 68
     0
279
    -2
289
     1
 69
     0
  7
Standard
140
6.0
170
     5
 62
     0
 63
     7
283
     0
 90
        4
 91
        0
  1

274
    -2
284
     1
 64
     0
275
    -2
285
     1
 65
     0
276
    -2
286
     1
 66
     0
277
    -2
287
     1
 67
     0
278
    -2
288
     1
 68
     0
279
    -2
289
     1
 69
     0
  7
Standard
140
4.5
170
     5
 62
     0
 63
     7
283
     0
 90
        4
 91
        0
  1

274
    -2
284
     1
 64
     0
275
    -2
285
     1
 65
     0
276
    -2
286
     1
 66
     0
277
    -2
287
     1
 67
     0
278
    -2
288
     1
 68
     0
279
    -2
289
     1
 69
     0
  0
VISUALSTYLE
  5
2F
102
{ACAD_REACTORS
330
2A
102
}
330
2A
100
AcDbVisualStyle
  2
2dWireframe
 70
     4
177
     3
291
     0
 70
    58
 90
        0
176
     1
 90
        2
176
     1
 90
        0
176
     1
 90
        0
176
     1
 40
0.6
176
     1
 40
30.0
176
     1
 62
     7
420
 16777215
176
     1
 90
        1
176
     1
 90
        4
176
     1
 62
     7
176
     1
 62
   257
176
     1
 90
        1
176
     1
 90
        1
176
     1
 40
1.0
176
     1
 90
        0
176
     1
 62
   257
176
     1
 40
1.0
176
     1
 90
        1
176
     1
 90
        6
176
     1
 90
        2
176
     1
 62
     7
176
     1
 90
        5
176
     1
 90
        0
176
     1
 90
        0
176
     1
290
     0
176
     1
 90
        1
176
     1
 40
0.0
176
     1
 90
        0
176
     1
290
     1
176
     1
290
     1
176
     1
290
     0
176
     1
290
     0
176
     1
290
     0
176
     1
290
     0
176
     1
290
     0
176
     1
290
     0
176
     1
290
     0
176
     1
 90
       50
176
     1
 40
0.0
176
     1
 40
1.0
176
     1
 90
        0
176
     1
 62
    18
420
        0
176
     1
 90
       50
176
     1
 90
        3
176
     1
 62
     5
420
      255
176
     1
290
     0
176
     1
 90
       50
176
     1
 90
       50
176
     1
 90
       50
176
     1
290
     0
176
     1
 90
       50
176
     1
 62
   256
176
     0
 40
1.0
176
     0
 90
        2
176
     1
  1
strokes_ogs.tif
176
     1
290
     0
176
     1
 40
1.0
176
     1
 40
1.0
176
     1
1001
ACAD
1000
AcDbSavedByObjectVersion
1070
     0
  0
VISUALSTYLE
  5
32
102
{ACAD_REACTORS
330
2A
102
}
330
2A
100
AcDbVisualStyle
  2
Basic
 70
     7
177
     3
291
     1
 70
    58
 90
        1
176
     1
 90
        0
176
     1
 90
        1
176
     1
 90
        0
176
     1
 40
0.6
176
     1
 40
30.0
176
     1
 62
     7
420
 16777215
176
     1
 90
        0
176
     1
 90
        4
176
     1
 62
     7
176
     1
 62
   257
176
     1
 90
        1
176
     1
 90
        1
176
     1
 40
1.0
176
     1
 90
        8
176
     1
 62
     7
176
     1
 40
1.0
176
     1
 90
        1
176
     1
 90
        6
176
     1
 90
        2
176
     1
 62
     7
176
     1
 90
        5
176
     1
 90
        0
176
     1
 90
        0
176
     1
290
     0
176
     1
 90
        1
176
     1
 40
0.0
176
     1
 90
        0
176
     1
290
     0
176
     1
290
     1
176
     1
290
     1
176
     1
290
     0
176
     1
290
     0
176
     1
290
     0
176
     1
290
     0
176
     1
290
     0
176
     1
290
     0
176
     1
 90
       50
176
     1
 40
0.0
176
     1
 40
1.0
176
     1
 90
        0
176
     1
 62
    18
420
        0
176
     1
 90
       50
176
     1
 90
        3
176
     1
 62
     5
420
      255
176
     1
290
     0
176
     1
 90
       50
176
     1
 90
       50
176
     1
 90
       50
176
     1
290
     0
176
     1
 90
       50
176
     1
 62
   256
176
     0
 40
1.0
176
     0
 90
        2
176
     1
  1
strokes_ogs.tif
176
     1
290
     0
176
     1
 40
1.0
176
     1
 40
1.0
176
     1
1001
ACAD
1000
AcDbSavedByObjectVersion
1070
     0
  0
VISUALSTYLE
  5
36
102
{ACAD_REACTORS
330
2A
102
}
330
2A
100
AcDbVisualStyle
  2
Brighten
 70
    12
177
     3
291
     1
 70
    58
 90
        2
176
     1
 90
        2
176
     1
 90
        0
176
     1
 90
        0
176
     1
 40
0.6
176
     1
 40
30.0
176
     1
 62
     7
420
 16777215
176
     1
 90
        1
176
     1
 90
        4
176
     1
 62
     7
176
     1
 62
   257
176
     1
 90
        1
176
     1
 90
        1
176
     1
 40
1.0
176
     1
 90
        8
176
     1
 62
     7
176
     1
 40
1.0
176
     1
 90
        1
176
     1
 90
        6
176
     1
 90
        2
176
     1
 62
     7
176
     1
 90
        5
176
     1
 90
        0
176
     1
 90
        0
176
     1
290
     0
176
     1
 90
        1
176
     1
 40
50.0
176
     1
 90
        0
176
     1
290
     0
176
     1
290
     1
176
     1
290
     1
176
     1
290
     0
176
     1
290
     0
176
     1
290
     0
176
     1
290
     0
176
     1
290
     0
176
     1
290
     0
176
     1
 90
       50
176
     1
 40
0.0
176
     1
 40
1.0
176
     1
 90
        0
176
     1
 62
    18
420
        0
176
     1
 90
       50
176
     1
 90
        3
176
     1
 62
     5
420
      255
176
     1
290
     0
176
     1
 90
       50
176
     1
 90
       50
176
     1
 90
       50
176
     1
290
     0
176
     1
 90
       50
176
     1
 62
   256
176
     0
 40
1.0
176
     0
 90
        2
176
     1
  1
strokes_ogs.tif
176
     1
290
     0
176
     1
 40
1.0
176
     1
 40
1.0
176
     1
1001
ACAD
1000
AcDbSavedByObjectVersion
1070
     0
  0
VISUALSTYLE
  5
3A
102
{ACAD_REACTORS
330
2A
102
}
330
2A
100
AcDbVisualStyle
  2
ColorChange
 70
    16
177
     3
291
     1
 70
    58
 90
        2
176
     1
 90
        2
176
     1
 90
        3
176
     1
 90
        0
176
     1
 40
0.6
176
     1
 40
30.0
176
     1
 62
     8
420
  8421504
176
     1
 90
        1
176
     1
 90
        4
176
     1
 62
     7
176
     1
 62
   257
176
     1
 90
        1
176
     1
 90
        1
176
     1
 40
1.0
176
     1
 90
        8
176
     1
 62
     8
420
  8421504
176
     1
 40
1.0
176
     1
 90
        1
176
     1
 90
        6
176
     1
 90
        2
176
     1
 62
     7
176
     1
 90
        5
176
     1
 90
        0
176
     1
 90
        0
176
     1
290
     0
176
     1
 90
        1
176
     1
 40
0.0
176
     1
 90
        0
176
     1
290
     0
176
     1
290
     1
176
     1
290
     1
176
     1
290
     0
176
     1
290
     0
176
     1
290
     0
176
     1
290
     0
176
     1
290
     0
176
     1
290
     0
176
     1
 90
       50
176
     1
 40
0.0
176
     1
 40
1.0
176
     1
 90
        0
176
     1
 62
    18
420
        0
176
     1
 90
       50
176
     1
 90
        3
176
     1
 62
     5
420
      255
176
     1
290
     0
176
     1
 90
       50
176
     1
 90
       50
176
     1
 90
       50
176
     1
290
     0
176
     1
 90
       50
176
     1
 62
   256
176
     0
 40
1.0
176
     0
 90
        2
176
     1
  1
strokes_ogs.tif
176
     1
290
     0
176
     1
 40
1.0
176
     1
 40
1.0
176
     1
1001
ACAD
1000
AcDbSavedByObjectVersion
1070
     0
  0
VISUALSTYLE
  5
34
102
{ACAD_REACTORS
330
2A
102
}
330
2A
100
AcDbVisualStyle
  2
Conceptual
 70
     9
177
     3
291
     0
 70
    58
 90
        3
176
     1
 90
        2
176
     1
 90
        0
176
     1
 90
        0
176
     1
 40
0.6
176
     1
 40
30.0
176
     1
 62
     7
420
 16777215
176
     1
 90
        2
176
     1
 90
        2
176
     1
 62
     7
176
     1
 62
   257
176
     1
 90
        1
176
     1
 90
        1
176
     1
 40
179.0
176
     1
 90
        8
176
     1
 62
     7
176
     1
 40
1.0
176
     1
 90
        1
176
     1
 90
        6
176
     1
 90
        2
176
     1
 62
     7
176
     1
 90
        3
176
     1
 90
        0
176
     1
 90
        0
176
     1
290
     0
176
     1
 90
        1
176
     1
 40
0.0
176
     1
 90
        0
176
     1
290
     0
176
     1
290
     1
176
     1
290
     1
176
     1
290
     0
176
     1
290
     0
176
     1
290
     0
176
     1
290
     0
176
     1
290
     0
176
     1
290
     0
176
     1
 90
       50
176
     1
 40
0.0
176
     1
 40
1.0
176
     1
 90
        0
176
     1
 62
    18
420
        0
176
     1
 90
       50
176
     1
 90
        3
176
     1
 62
     5
420
      255
176
     1
290
     0
176
     1
 90
       50
176
     1
 90
       50
176
     1
 90
       50
176
     1
290
     0
176
     1
 90
       50
176
     1
 62
   256
176
     0
 40
1.0
176
     0
 90
        2
176
     1
  1
strokes_ogs.tif
176
     1
290
     0
176
     1
 40
1.0
176
     1
 40
1.0
176
     1
1001
ACAD
1000
AcDbSavedByObjectVersion
1070
     0
  0
VISUALSTYLE
  5
35
102
{ACAD_REACTORS
330
2A
102
}
330
2A
100
AcDbVisualStyle
  2
Dim
 70
    11
177
     3
291
     1
 70
    58
 90
        2
176
     1
 90
        2
176
     1
 90
        0
176
     1
 90
        0
176
     1
 40
0.6
176
     1
 40
30.0
176
     1
 62
     7
420
 16777215
176
     1
 90
        1
176
     1
 90
        4
176
     1
 62
     7
176
     1
 62
   257
176
     1
 90
        1
176
     1
 90
        1
176
     1
 40
1.0
176
     1
 90
        8
176
     1
 62
     7
176
     1
 40
1.0
176
     1
 90
        1
176
     1
 90
        6
176
     1
 90
        2
176
     1
 62
     7
176
     1
 90
        5
176
     1
 90
        0
176
     1
 90
        0
176
     1
290
     0
176
     1
 90
        1
176
     1
 40
-50.0
176
     1
 90
        0
176
     1
290
     0
176
     1
290
     1
176
     1
290
     1
176
     1
290
     0
176
     1
290
     0
176
     1
290
     0
176
     1
290
     0
176
     1
290
     0
176
     1
290
     0
176
     1
 90
       50
176
     1
 40
0.0
176
     1
 40
1.0
176
     1
 90
        0
176
     1
 62
    18
420
        0
176
     1
 90
       50
176
     1
 90
        3
176
     1
 62
     5
420
      255
176
     1
290
     0
176
     1
 90
       50
176
     1
 90
       50
176
     1
 90
       50
176
     1
290
     0
176
     1
 90
       50
176
     1
 62
   256
176
     0
 40
1.0
176
     0
 90
        2
176
     1
  1
strokes_ogs.tif
176
     1
290
     0
176
     1
 40
1.0
176
     1
 40
1.0
176
     1
1001
ACAD
1000
AcDbSavedByObjectVersion
1070
     0
  0
VISUALSTYLE
  5
3D
102
{ACAD_REACTORS
330
2A
102
}
330
2A
100
AcDbVisualStyle
  2
EdgeColorOff
 70
    22
177
     3
291
     1
 70
    58
 90
        2
176
     0
 90
        2
176
     0
 90
        0
176
     0
 90
        0
176
     0
 40
0.6
176
     0
 40
30.0
176
     0
 62
     7
420
 16777215
176
     0
 90
        1
176
     0
 90
        4
176
     0
 62
     7
176
     0
 62
   257
176
     0
 90
        1
176
     0
 90
        1
176
     0
 40
1.0
176
     0
 90
        8
176
     2
 62
     7
176
     0
 40
1.0
176
     0
 90
        1
176
     0
 90
        6
176
     0
 90
        2
176
     0
 62
     7
176
     0
 90
        5
176
     0
 90
        0
176
     0
 90
        0
176
     0
290
     0
176
     0
 90
        1
176
     0
 40
0.0
176
     0
 90
        0
176
     0
290
     0
176
     1
290
     1
176
     1
290
     1
176
     1
290
     0
176
     1
290
     0
176
     1
290
     0
176
     1
290
     0
176
     1
290
     0
176
     1
290
     0
176
     1
 90
       50
176
     1
 40
0.0
176
     1
 40
1.0
176
     1
 90
        0
176
     1
 62
    18
420
        0
176
     1
 90
       50
176
     1
 90
        3
176
     1
 62
     5
420
      255
176
     1
290
     0
176
     1
 90
       50
176
     1
 90
       50
176
     1
 90
       50
176
     1
290
     0
176
     1
 90
       50
176
     1
 62
   256
176
     0
 40
1.0
176
     0
 90
        2
176
     1
  1
strokes_ogs.tif
176
     1
290
     0
176
     1
 40
1.0
176
     1
 40
1.0
176
     1
1001
ACAD
1000
AcDbSavedByObjectVersion
1070
     0
  0
VISUALSTYLE
  5
39
102
{ACAD_REACTORS
330
2A
102
}
330
2A
100
AcDbVisualStyle
  2
Facepattern
 70
    15
177
     3
291
     1
 70
    58
 90
        2
176
     1
 90
        2
176
     1
 90
        0
176
     1
 90
        0
176
     1
 40
0.6
176
     1
 40
30.0
176
     1
 62
     7
420
 16777215
176
     1
 90
        1
176
     1
 90
        4
176
     1
 62
     7
176
     1
 62
   257
176
     1
 90
        1
176
     1
 90
        1
176
     1
 40
1.0
176
     1
 90
        8
176
     1
 62
     7
176
     1
 40
1.0
176
     1
 90
        1
176
     1
 90
        6
176
     1
 90
        2
176
     1
 62
     7
176
     1
 90
        5
176
     1
 90
        0
176
     1
 90
        0
176
     1
290
     0
176
     1
 90
        1
176
     1
 40
0.0
176
     1
 90
        0
176
     1
290
     0
176
     1
290
     1
176
     1
290
     1
176
     1
290
     0
176
     1
290
     0
176
     1
290
     0
176
     1
290
     0
176
     1
290
     0
176
     1
290
     0
176
     1
 90
       50
176
     1
 40
0.0
176
     1
 40
1.0
176
     1
 90
        0
176
     1
 62
    18
420
        0
176
     1
 90
       50
176
     1
 90
        3
176
     1
 62
     5
420
      255
176
     1
290
     0
176
     1
 90
       50
176
     1
 90
       50
176
     1
 90
       50
176
     1
290
     0
176
     1
 90
       50
176
     1
 62
   256
176
     0
 40
1.0
176
     0
 90
        2
176
     1
  1
strokes_ogs.tif
176
     1
290
     0
176
     1
 40
1.0
176
     1
 40
1.0
176
     1
1001
ACAD
1000
AcDbSavedByObjectVersion
1070
     0
  0
VISUALSTYLE
  5
2B
102
{ACAD_REACTORS
330
2A
102
}
330
2A
100
AcDbVisualStyle
  2
Flat
 70
     0
177
     3
291
     1
 70
    58
 90
        2
176
     1
 90
        1
176
     1
 90
        1
176
     1
 90
        2
176
     1
 40
0.6
176
     1
 40
30.0
176
     1
 62
     7
420
 16777215
176
     1
 90
        0
176
     1
 90
        0
176
     1
 62
     7
176
     1
 62
   257
176
     1
 90
        1
176
     1
 90
        1
176
     1
 40
1.0
176
     1
 90
        8
176
     1
 62
     7
176
     1
 40
1.0
176
     1
 90
        1
176
     1
 90
        6
176
     1
 90
        2
176
     1
 62
     7
176
     1
 90
        5
176
     1
 90
        0
176
     1
 90
        0
176
     1
290
     0
176
     1
 90
       13
176
     1
 40
0.0
176
     1
 90
        0
176
     1
290
     0
176
     1
290
     1
176
     1
290
     1
176
     1
290
     0
176
     1
290
     0
176
     1
290
     0
176
     1
290
     0
176
     1
290
     0
176
     1
290
     0
176
     1
 90
       50
176
     1
 40
0.0
176
     1
 40
1.0
176
     1
 90
        0
176
     1
 62
    18
420
        0
176
     1
 90
       50
176
     1
 90
        3
176
     1
 62
     5
420
      255
176
     1
290
     0
176
     1
 90
       50
176
     1
 90
       50
176
     1
 90
       50
176
     1
290
     0
176
     1
 90
       50
176
     1
 62
   256
176
     0
 40
1.0
176
     0
 90
        2
176
     1
  1
strokes_ogs.tif
176
     1
290
     0
176
     1
 40
1.0
176
     1
 40
1.0
176
     1
1001
ACAD
1000
AcDbSavedByObjectVersion
1070
     0
  0
VISUALSTYLE
  5
2C
102
{ACAD_REACTORS
330
2A
102
}
330
2A
100
AcDbVisualStyle
  2
FlatWithEdges
 70
     1
177
     3
291
     1
 70
    58
 90
        2
176
     1
 90
        1
176
     1
 90
        1
176
     1
 90
        2
176
     1
 40
0.6
176
     1
 40
30.0
176
     1
 62
     7
420
 16777215
176
     1
 90
        1
176
     1
 90
        0
176
     1
 62
     7
176
     1
 62
   257
176
     1
 90
        1
176
     1
 90
        1
176
     1
 40
1.0
176
     1
 90
        0
176
     1
 62
   257
176
     1
 40
1.0
176
     1
 90
        1
176
     1
 90
        6
176
     1
 90
        2
176
     1
 62
     7
176
     1
 90
        5
176
     1
 90
        0
176
     1
 90
        0
176
     1
290
     0
176
     1
 90
       13
176
     1
 40
0.0
176
     1
 90
        0
176
     1
290
     0
176
     1
290
     1
176
     1
290
     1
176
     1
290
     0
176
     1
290
     0
176
     1
290
     0
176
     1
290
     0
176
     1
290
     0
176
     1
290
     0
176
     1
 90
       50
176
     1
 40
0.0
176
     1
 40
1.0
176
     1
 90
        0
176
     1
 62
    18
420
        0
176
     1
 90
       50
176
     1
 90
        3
176
     1
 62
     5
420
      255
176
     1
290
     0
176
     1
 90
       50
176
     1
 90
       50
176
     1
 90
       50
176
     1
290
     0
176
     1
 90
       50
176
     1
 62
   256
176
     0
 40
1.0
176
     0
 90
        2
176
     1
  1
strokes_ogs.tif
176
     1
290
     0
176
     1
 40
1.0
176
     1
 40
1.0
176
     1
1001
ACAD
1000
AcDbSavedByObjectVersion
1070
     0
  0
VISUALSTYLE
  5
2D
102
{ACAD_REACTORS
330
2A
102
}
330
2A
100
AcDbVisualStyle
  2
Gouraud
 70
     2
177
     3
291
     1
 70
    58
 90
        2
176
     1
 90
        2
176
     1
 90
        1
176
     1
 90
        2
176
     1
 40
0.6
176
     1
 40
30.0
176
     1
 62
     7
420
 16777215
176
     1
 90
        0
176
     1
 90
        0
176
     1
 62
     7
176
     1
 62
   257
176
     1
 90
        1
176
     1
 90
        1
176
     1
 40
1.0
176
     1
 90
        0
176
     1
 62
     7
176
     1
 40
1.0
176
     1
 90
        1
176
     1
 90
        6
176
     1
 90
        2
176
     1
 62
     7
176
     1
 90
        5
176
     1
 90
        0
176
     1
 90
        0
176
     1
290
     0
176
     1
 90
       13
176
     1
 40
0.0
176
     1
 90
        0
176
     1
290
     0
176
     1
290
     1
176
     1
290
     1
176
     1
290
     0
176
     1
290
     0
176
     1
290
     0
176
     1
290
     0
176
     1
290
     0
176
     1
290
     0
176
     1
 90
       50
176
     1
 40
0.0
176
     1
 40
1.0
176
     1
 90
        0
176
     1
 62
    18
420
        0
176
     1
 90
       50
176
     1
 90
        3
176
     1
 62
     5
420
      255
176
     1
290
     0
176
     1
 90
       50
176
     1
 90
       50
176
     1
 90
       50
176
     1
290
     0
176
     1
 90
       50
176
     1
 62
   256
176
     0
 40
1.0
176
     0
 90
        2
176
     1
  1
strokes_ogs.tif
176
     1
290
     0
176
     1
 40
1.0
176
     1
 40
1.0
176
     1
1001
ACAD
1000
AcDbSavedByObjectVersion
1070
     0
  0
VISUALSTYLE
  5
2E
102
{ACAD_REACTORS
330
2A
102
}
330
2A
100
AcDbVisualStyle
  2
GouraudWithEdges
 70
     3
177
     3
291
     1
 70
    58
 90
        2
176
     1
 90
        2
176
     1
 90
        1
176
     1
 90
        2
176
     1
 40
0.6
176
     1
 40
30.0
176
     1
 62
     7
420
 16777215
176
     1
 90
        1
176
     1
 90
        0
176
     1
 62
     7
176
     1
 62
   257
176
     1
 90
        1
176
     1
 90
        1
176
     1
 40
1.0
176
     1
 90
        0
176
     1
 62
   257
176
     1
 40
1.0
176
     1
 90
        1
176
     1
 90
        6
176
     1
 90
        2
176
     1
 62
     7
176
     1
 90
        5
176
     1
 90
        0
176
     1
 90
        0
176
     1
290
     0
176
     1
 90
       13
176
     1
 40
0.0
176
     1
 90
        0
176
     1
290
     0
176
     1
290
     1
176
     1
290
     1
176
     1
290
     0
176
     1
290
     0
176
     1
290
     0
176
     1
290
     0
176
     1
290
     0
176
     1
290
     0
176
     1
 90
       50
176
     1
 40
0.0
176
     1
 40
1.0
176
     1
 90
        0
176
     1
 62
    18
420
        0
176
     1
 90
       50
176
     1
 90
        3
176
     1
 62
     5
420
      255
176
     1
290
     0
176
     1
 90
       50
176
     1
 90
       50
176
     1
 90
       50
176
     1
290
     0
176
     1
 90
       50
176
     1
 62
   256
176
     0
 40
1.0
176
     0
 90
        2
176
     1
  1
strokes_ogs.tif
176
     1
290
     0
176
     1
 40
1.0
176
     1
 40
1.0
176
     1
1001
ACAD
1000
AcDbSavedByObjectVersion
1070
     0
  0
VISUALSTYLE
  5
31
102
{ACAD_REACTORS
330
2A
102
}
330
2A
100
AcDbVisualStyle
  2
Hidden
 70
     6
177
     3
291
     0
 70
    58
 90
        1
176
     1
 90
        2
176
     1
 90
        2
176
     1
 90
        0
176
     1
 40
0.6
176
     1
 40
30.0
176
     1
 62
     7
420
 16777215
176
     1
 90
        2
176
     1
 90
        2
176
     1
 62
     7
176
     1
 62
   257
176
     1
 90
        2
176
     1
 90
        1
176
     1
 40
40.0
176
     1
 90
        0
176
     1
 62
   257
176
     1
 40
1.0
176
     1
 90
        1
176
     1
 90
        6
176
     1
 90
        2
176
     1
 62
     7
176
     1
 90
        3
176
     1
 90
        0
176
     1
 90
        0
176
     1
290
     0
176
     1
 90
        1
176
     1
 40
0.0
176
     1
 90
        0
176
     1
290
     0
176
     1
290
     1
176
     1
290
     1
176
     1
290
     0
176
     1
290
     0
176
     1
290
     0
176
     1
290
     0
176
     1
290
     0
176
     1
290
     0
176
     1
 90
       50
176
     1
 40
0.0
176
     1
 40
1.0
176
     1
 90
        0
176
     1
 62
    18
420
        0
176
     1
 90
       50
176
     1
 90
        3
176
     1
 62
     5
420
      255
176
     1
290
     0
176
     1
 90
       50
176
     1
 90
       50
176
     1
 90
       50
176
     1
290
     0
176
     1
 90
       50
176
     1
 62
   256
176
     0
 40
1.0
176
     0
 90
        2
176
     1
  1
strokes_ogs.tif
176
     1
290
     0
176
     1
 40
1.0
176
     1
 40
1.0
176
     1
1001
ACAD
1000
AcDbSavedByObjectVersion
1070
     0
  0
VISUALSTYLE
  5
3B
102
{ACAD_REACTORS
330
2A
102
}
330
2A
100
AcDbVisualStyle
  2
JitterOff
 70
    20
177
     3
291
     1
 70
    58
 90
        2
176
     0
 90
        2
176
     0
 90
        0
176
     0
 90
        0
176
     0
 40
0.6
176
     0
 40
30.0
176
     0
 62
     7
420
 16777215
176
     0
 90
        1
176
     0
 90
        4
176
     0
 62
     7
176
     0
 62
   257
176
     0
 90
        1
176
     0
 90
        1
176
     0
 40
1.0
176
     0
 90
       10
176
     2
 62
     7
176
     0
 40
1.0
176
     0
 90
        1
176
     0
 90
        6
176
     0
 90
        2
176
     0
 62
     7
176
     0
 90
        5
176
     0
 90
        0
176
     0
 90
        0
176
     0
290
     0
176
     0
 90
        1
176
     0
 40
0.0
176
     0
 90
        0
176
     0
290
     0
176
     1
290
     1
176
     1
290
     1
176
     1
290
     0
176
     1
290
     0
176
     1
290
     0
176
     1
290
     0
176
     1
290
     0
176
     1
290
     0
176
     1
 90
       50
176
     1
 40
0.0
176
     1
 40
1.0
176
     1
 90
        0
176
     1
 62
    18
420
        0
176
     1
 90
       50
176
     1
 90
        3
176
     1
 62
     5
420
      255
176
     1
290
     0
176
     1
 90
       50
176
     1
 90
       50
176
     1
 90
       50
176
     1
290
     0
176
     1
 90
       50
176
     1
 62
   256
176
     0
 40
1.0
176
     0
 90
        2
176
     1
  1
strokes_ogs.tif
176
     1
290
     0
176
     1
 40
1.0
176
     1
 40
1.0
176
     1
1001
ACAD
1000
AcDbSavedByObjectVersion
1070
     0
  0
VISUALSTYLE
  5
38
102
{ACAD_REACTORS
330
2A
102
}
330
2A
100
AcDbVisualStyle
  2
Linepattern
 70
    14
177
     3
291
     1
 70
    58
 90
        2
176
     1
 90
        2
176
     1
 90
        0
176
     1
 90
        0
176
     1
 40
0.6
176
     1
 40
30.0
176
     1
 62
     7
420
 16777215
176
     1
 90
        1
176
     1
 90
        4
176
     1
 62
     7
176
     1
 62
   257
176
     1
 90
        7
176
     1
 90
        7
176
     1
 40
1.0
176
     1
 90
        8
176
     1
 62
     7
176
     1
 40
1.0
176
     1
 90
        1
176
     1
 90
        6
176
     1
 90
        2
176
     1
 62
     7
176
     1
 90
        5
176
     1
 90
        0
176
     1
 90
        0
176
     1
290
     0
176
     1
 90
        1
176
     1
 40
0.0
176
     1
 90
        0
176
     1
290
     0
176
     1
290
     1
176
     1
290
     1
176
     1
290
     0
176
     1
290
     0
176
     1
290
     0
176
     1
290
     0
176
     1
290
     0
176
     1
290
     0
176
     1
 90
       50
176
     1
 40
0.0
176
     1
 40
1.0
176
     1
 90
        0
176
     1
 62
    18
420
        0
176
     1
 90
       50
176
     1
 90
        3
176
     1
 62
     5
420
      255
176
     1
290
     0
176
     1
 90
       50
176
     1
 90
       50
176
     1
 90
       50
176
     1
290
     0
176
     1
 90
       50
176
     1
 62
   256
176
     0
 40
1.0
176
     0
 90
        2
176
     1
  1
strokes_ogs.tif
176
     1
290
     0
176
     1
 40
1.0
176
     1
 40
1.0
176
     1
1001
ACAD
1000
AcDbSavedByObjectVersion
1070
     0
  0
VISUALSTYLE
  5
3C
102
{ACAD_REACTORS
330
2A
102
}
330
2A
100
AcDbVisualStyle
  2
OverhangOff
 70
    21
177
     3
291
     1
 70
    58
 90
        2
176
     0
 90
        2
176
     0
 90
        0
176
     0
 90
        0
176
     0
 40
0.6
176
     0
 40
30.0
176
     0
 62
     7
420
 16777215
176
     0
 90
        1
176
     0
 90
        4
176
     0
 62
     7
176
     0
 62
   257
176
     0
 90
        1
176
     0
 90
        1
176
     0
 40
1.0
176
     0
 90
        9
176
     2
 62
     7
176
     0
 40
1.0
176
     0
 90
        1
176
     0
 90
        6
176
     0
 90
        2
176
     0
 62
     7
176
     0
 90
        5
176
     0
 90
        0
176
     0
 90
        0
176
     0
290
     0
176
     0
 90
        1
176
     0
 40
0.0
176
     0
 90
        0
176
     0
290
     0
176
     1
290
     1
176
     1
290
     1
176
     1
290
     0
176
     1
290
     0
176
     1
290
     0
176
     1
290
     0
176
     1
290
     0
176
     1
290
     0
176
     1
 90
       50
176
     1
 40
0.0
176
     1
 40
1.0
176
     1
 90
        0
176
     1
 62
    18
420
        0
176
     1
 90
       50
176
     1
 90
        3
176
     1
 62
     5
420
      255
176
     1
290
     0
176
     1
 90
       50
176
     1
 90
       50
176
     1
 90
       50
176
     1
290
     0
176
     1
 90
       50
176
     1
 62
   256
176
     0
 40
1.0
176
     0
 90
        2
176
     1
  1
strokes_ogs.tif
176
     1
290
     0
176
     1
 40
1.0
176
     1
 40
1.0
176
     1
1001
ACAD
1000
AcDbSavedByObjectVersion
1070
     0
  0
VISUALSTYLE
  5
33
102
{ACAD_REACTORS
330
2A
102
}
330
2A
100
AcDbVisualStyle
  2
Realistic
 70
     8
177
     3
291
     0
 70
    58
 90
        2
176
     1
 90
        3
176
     1
 90
        0
176
     1
 90
        2
176
     1
 40
0.6
176
     1
 40
30.0
176
     1
 62
     7
420
 16777215
176
     1
 90
        0
176
     1
 90
        0
176
     1
 62
     7
176
     1
 62
   257
176
     1
 90
        1
176
     1
 90
        1
176
     1
 40
1.0
176
     1
 90
        8
176
     1
 62
   257
176
     1
 40
1.0
176
     1
 90
        1
176
     1
 90
        6
176
     1
 90
        2
176
     1
 62
     7
176
     1
 90
        3
176
     1
 90
        0
176
     1
 90
        0
176
     1
290
     0
176
     1
 90
       13
176
     1
 40
0.0
176
     1
 90
        0
176
     1
290
     0
176
     1
290
     1
176
     1
290
     1
176
     1
290
     0
176
     1
290
     0
176
     1
290
     0
176
     1
290
     0
176
     1
290
     0
176
     1
290
     0
176
     1
 90
       50
176
     1
 40
0.0
176
     1
 40
1.0
176
     1
 90
        0
176
     1
 62
    18
420
        0
176
     1
 90
       50
176
     1
 90
        3
176
     1
 62
     5
420
      255
176
     1
290
     0
176
     1
 90
       50
176
     1
 90
       50
176
     1
 90
       50
176
     1
290
     0
176
     1
 90
       50
176
     1
 62
   256
176
     0
 40
1.0
176
     0
 90
        2
176
     1
  1
strokes_ogs.tif
176
     1
290
     0
176
     1
 40
1.0
176
     1
 40
1.0
176
     1
1001
ACAD
1000
AcDbSavedByObjectVersion
1070
     0
  0
VISUALSTYLE
  5
42
102
{ACAD_REACTORS
330
2A
102
}
330
2A
100
AcDbVisualStyle
  2
Shaded
 70
    27
177
     3
291
     0
 70
    58
 90
        2
176
     1
 90
        2
176
     1
 90
        1
176
     1
 90
        2
176
     1
 40
0.6
176
     1
 40
30.0
176
     1
 62
     7
420
 16777215
176
     1
 90
        0
176
     1
 90
        4
176
     1
 62
     7
176
     1
 62
   257
176
     1
 90
        1
176
     1
 90
        1
176
     1
 40
1.0
176
     1
 90
        8
176
     1
 62
   257
176
     1
 40
1.0
176
     1
 90
        1
176
     1
 90
        6
176
     1
 90
        2
176
     1
 62
     8
420
  7895160
176
     1
 90
        3
176
     1
 90
        0
176
     1
 90
        0
176
     1
290
     0
176
     1
 90
        5
176
     1
 40
0.0
176
     1
 90
        0
176
     1
290
     0
176
     1
290
     1
176
     1
290
     1
176
     1
290
     0
176
     1
290
     0
176
     1
290
     0
176
     1
290
     0
176
     1
290
     0
176
     1
290
     0
176
     1
 90
       50
176
     1
 40
0.0
176
     1
 40
1.0
176
     1
 90
        0
176
     1
 62
    18
420
        0
176
     1
 90
       50
176
     1
 90
        3
176
     1
 62
     5
420
      255
176
     1
290
     0
176
     1
 90
       50
176
     1
 90
       50
176
     1
 90
       50
176
     1
290
     0
176
     1
 90
       50
176
     1
 62
   256
176
     0
 40
1.0
176
     0
 90
        2
176
     1
  1
strokes_ogs.tif
176
     1
290
     0
176
     1
 40
1.0
176
     1
 40
1.0
176
     1
1001
ACAD
1000
AcDbSavedByObjectVersion
1070
     0
  0
VISUALSTYLE
  5
41
102
{ACAD_REACTORS
330
2A
102
}
330
2A
100
AcDbVisualStyle
  2
Shaded with edges
 70
    26
177
     3
291
     0
 70
    58
 90
        2
176
     1
 90
        2
176
     1
 90
        1
176
     1
 90
        2
176
     1
 40
0.6
176
     1
 40
30.0
176
     1
 62
     7
420
 16777215
176
     1
 90
        1
176
     1
 90
       10
176
     1
 62
     7
176
     1
 62
   257
176
     1
 90
        2
176
     1
 90
        1
176
     1
 40
1.0
176
     1
 90
        8
176
     1
 62
   257
176
     1
 40
1.0
176
     1
 90
        1
176
     1
 90
        6
176
     1
 90
        2
176
     1
 62
     7
176
     1
 90
        3
176
     1
 90
        0
176
     1
 90
        0
176
     1
290
     0
176
     1
 90
        5
176
     1
 40
0.0
176
     1
 90
        0
176
     1
290
     0
176
     1
290
     1
176
     1
290
     1
176
     1
290
     0
176
     1
290
     0
176
     1
290
     0
176
     1
290
     0
176
     1
290
     0
176
     1
290
     0
176
     1
 90
       50
176
     1
 40
0.0
176
     1
 40
1.0
176
     1
 90
        0
176
     1
 62
    18
420
        0
176
     1
 90
       50
176
     1
 90
        3
176
     1
 62
     5
420
      255
176
     1
290
     0
176
     1
 90
       50
176
     1
 90
       50
176
     1
 90
       50
176
     1
290
     0
176
     1
 90
       50
176
     1
 62
   256
176
     0
 40
1.0
176
     0
 90
        2
176
     1
  1
strokes_ogs.tif
176
     1
290
     0
176
     1
 40
1.0
176
     1
 40
1.0
176
     1
1001
ACAD
1000
AcDbSavedByObjectVersion
1070
     0
  0
VISUALSTYLE
  5
3E
102
{ACAD_REACTORS
330
2A
102
}
330
2A
100
AcDbVisualStyle
  2
Shades of Gray
 70
    23
177
     3
291
     0
 70
    58
 90
        2
176
     1
 90
        2
176
     1
 90
        3
176
     1
 90
        0
176
     1
 40
0.6
176
     1
 40
30.0
176
     1
 62
     7
420
 16777215
176
     1
 90
        2
176
     1
 90
        2
176
     1
 62
     7
176
     1
 62
     7
176
     1
 90
        1
176
     1
 90
        1
176
     1
 40
40.0
176
     1
 90
        8
176
     1
 62
     7
176
     1
 40
1.0
176
     1
 90
        1
176
     1
 90
        6
176
     1
 90
        2
176
     1
 62
     7
176
     1
 90
        3
176
     1
 90
        0
176
     1
 90
        0
176
     1
290
     0
176
     1
 90
        1
176
     1
 40
0.0
176
     1
 90
        0
176
     1
290
     0
176
     1
290
     1
176
     1
290
     1
176
     1
290
     0
176
     1
290
     0
176
     1
290
     0
176
     1
290
     0
176
     1
290
     0
176
     1
290
     0
176
     1
 90
       50
176
     1
 40
0.0
176
     1
 40
1.0
176
     1
 90
        0
176
     1
 62
    18
420
        0
176
     1
 90
       50
176
     1
 90
        3
176
     1
 62
     5
420
      255
176
     1
290
     0
176
     1
 90
       50
176
     1
 90
       50
176
     1
 90
       50
176
     1
290
     0
176
     1
 90
       50
176
     1
 62
   256
176
     0
 40
1.0
176
     0
 90
        2
176
     1
  1
strokes_ogs.tif
176
     1
290
     0
176
     1
 40
1.0
176
     1
 40
1.0
176
     1
1001
ACAD
1000
AcDbSavedByObjectVersion
1070
     0
  0
VISUALSTYLE
  5
3F
102
{ACAD_REACTORS
330
2A
102
}
330
2A
100
AcDbVisualStyle
  2
Sketchy
 70
    24
177
     3
291
     0
 70
    58
 90
        1
176
     1
 90
        2
176
     1
 90
        2
176
     1
 90
        0
176
     1
 40
0.6
176
     1
 40
30.0
176
     1
 62
     7
420
 16777215
176
     1
 90
        2
176
     1
 90
        2
176
     1
 62
     7
176
     1
 62
     7
176
     1
 90
        1
176
     1
 90
        1
176
     1
 40
40.0
176
     1
 90
       11
176
     1
 62
     7
176
     1
 40
1.0
176
     1
 90
        1
176
     1
 90
        6
176
     1
 90
        2
176
     1
 62
     7
176
     1
 90
        6
176
     1
 90
        0
176
     1
 90
        0
176
     1
290
     0
176
     1
 90
        1
176
     1
 40
0.0
176
     1
 90
        0
176
     1
290
     0
176
     1
290
     1
176
     1
290
     1
176
     1
290
     0
176
     1
290
     0
176
     1
290
     0
176
     1
290
     0
176
     1
290
     0
176
     1
290
     0
176
     1
 90
       50
176
     1
 40
0.0
176
     1
 40
1.0
176
     1
 90
        0
176
     1
 62
    18
420
        0
176
     1
 90
       50
176
     1
 90
        3
176
     1
 62
     5
420
      255
176
     1
290
     0
176
     1
 90
       50
176
     1
 90
       50
176
     1
 90
       50
176
     1
290
     0
176
     1
 90
       50
176
     1
 62
   256
176
     0
 40
1.0
176
     0
 90
        2
176
     1
  1
strokes_ogs.tif
176
     1
290
     0
176
     1
 40
1.0
176
     1
 40
1.0
176
     1
1001
ACAD
1000
AcDbSavedByObjectVersion
1070
     0
  0
VISUALSTYLE
  5
37
102
{ACAD_REACTORS
330
2A
102
}
330
2A
100
AcDbVisualStyle
  2
Thicken
 70
    13
177
     3
291
     1
 70
    58
 90
        2
176
     1
 90
        2
176
     1
 90
        0
176
     1
 90
        0
176
     1
 40
0.6
176
     1
 40
30.0
176
     1
 62
     7
420
 16777215
176
     1
 90
        1
176
     1
 90
        4
176
     1
 62
     7
176
     1
 62
   257
176
     1
 90
        1
176
     1
 90
        1
176
     1
 40
1.0
176
     1
 90
       12
176
     1
 62
     7
176
     1
 40
1.0
176
     1
 90
        1
176
     1
 90
        6
176
     1
 90
        2
176
     1
 62
     7
176
     1
 90
        5
176
     1
 90
        0
176
     1
 90
        0
176
     1
290
     0
176
     1
 90
        1
176
     1
 40
0.0
176
     1
 90
        0
176
     1
290
     0
176
     1
290
     1
176
     1
290
     1
176
     1
290
     0
176
     1
290
     0
176
     1
290
     0
176
     1
290
     0
176
     1
290
     0
176
     1
290
     0
176
     1
 90
       50
176
     1
 40
0.0
176
     1
 40
1.0
176
     1
 90
        0
176
     1
 62
    18
420
        0
176
     1
 90
       50
176
     1
 90
        3
176
     1
 62
     5
420
      255
176
     1
290
     0
176
     1
 90
       50
176
     1
 90
       50
176
     1
 90
       50
176
     1
290
     0
176
     1
 90
       50
176
     1
 62
   256
176
     0
 40
1.0
176
     0
 90
        2
176
     1
  1
strokes_ogs.tif
176
     1
290
     0
176
     1
 40
1.0
176
     1
 40
1.0
176
     1
1001
ACAD
1000
AcDbSavedByObjectVersion
1070
     0
  0
VISUALSTYLE
  5
30
102
{ACAD_REACTORS
330
2A
102
}
330
2A
100
AcDbVisualStyle
  2
Wireframe
 70
     5
177
     3
291
     0
 70
    58
 90
        0
176
     1
 90
        2
176
     1
 90
        0
176
     1
 90
        0
176
     1
 40
0.6
176
     1
 40
30.0
176
     1
 62
     7
420
 16777215
176
     1
 90
        1
176
     1
 90
        4
176
     1
 62
     7
176
     1
 62
   257
176
     1
 90
        1
176
     1
 90
        1
176
     1
 40
1.0
176
     1
 90
        0
176
     1
 62
   257
176
     1
 40
1.0
176
     1
 90
        1
176
     1
 90
        6
176
     1
 90
        2
176
     1
 62
     7
176
     1
 90
        3
176
     1
 90
        0
176
     1
 90
        0
176
     1
290
     0
176
     1
 90
        1
176
     1
 40
0.0
176
     1
 90
        0
176
     1
290
     0
176
     1
290
     1
176
     1
290
     1
176
     1
290
     0
176
     1
290
     0
176
     1
290
     0
176
     1
290
     0
176
     1
290
     0
176
     1
290
     0
176
     1
 90
       50
176
     1
 40
0.0
176
     1
 40
1.0
176
     1
 90
        0
176
     1
 62
    18
420
        0
176
     1
 90
       50
176
     1
 90
        3
176
     1
 62
     5
420
      255
176
     1
290
     0
176
     1
 90
       50
176
     1
 90
       50
176
     1
 90
       50
176
     1
290
     0
176
     1
 90
       50
176
     1
 62
   256
176
     0
 40
1.0
176
     0
 90
        2
176
     1
  1
strokes_ogs.tif
176
     1
290
     0
176
     1
 40
1.0
176
     1
 40
1.0
176
     1
1001
ACAD
1000
AcDbSavedByObjectVersion
1070
     0
  0
VISUALSTYLE
  5
40
102
{ACAD_REACTORS
330
2A
102
}
330
2A
100
AcDbVisualStyle
  2
X-Ray
 70
    25
177
     3
291
     0
 70
    58
 90
        2
176
     1
 90
        2
176
     1
 90
        1
176
     1
 90
        1
176
     1
 40
0.5
176
     1
 40
30.0
176
     1
 62
     7
420
 16777215
176
     1
 90
        1
176
     1
 90
        0
176
     1
 62
     7
176
     1
 62
   257
176
     1
 90
        1
176
     1
 90
        1
176
     1
 40
1.0
176
     1
 90
        8
176
     1
 62
     7
176
     1
 40
1.0
176
     1
 90
        1
176
     1
 90
        6
176
     1
 90
        2
176
     1
 62
     7
176
     1
 90
        3
176
     1
 90
        0
176
     1
 90
        0
176
     1
290
     0
176
     1
 90
       13
176
     1
 40
0.0
176
     1
 90
        0
176
     1
290
     0
176
     1
290
     1
176
     1
290
     1
176
     1
290
     0
176
     1
290
     0
176
     1
290
     0
176
     1
290
     0
176
     1
290
     0
176
     1
290
     0
176
     1
 90
       50
176
     1
 40
0.0
176
     1
 40
1.0
176
     1
 90
        0
176
     1
 62
    18
420
        0
176
     1
 90
       50
176
     1
 90
        3
176
     1
 62
     5
420
      255
176
     1
290
     0
176
     1
 90
       50
176
     1
 90
       50
176
     1
 90
       50
176
     1
290
     0
176
     1
 90
       50
176
     1
 62
   256
176
     0
 40
1.0
176
     0
 90
        2
176
     1
  1
strokes_ogs.tif
176
     1
290
     0
176
     1
 40
1.0
176
     1
 40
1.0
176
     1
1001
ACAD
1000
AcDbSavedByObjectVersion
1070
     0
  0
DICTIONARYVAR
  5
2B6
102
{ACAD_REACTORS
330
2B5
102
}
330
2B5
100
DictionaryVariables
280
     0
  1
1:1
  0
DICTIONARYVAR
  5
2BE
102
{ACAD_REACTORS
330
2B5
102
}
330
2B5
100
DictionaryVariables
280
     0
  1
3.500000
  0
DICTIONARYVAR
  5
2BF
102
{ACAD_REACTORS
330
2B5
102
}
330
2B5
100
DictionaryVariables
280
     0
  1
acadiso.lin
  0
DICTIONARYVAR
  5
2BB
102
{ACAD_REACTORS
330
2B5
102
}
330
2B5
100
DictionaryVariables
280
     0
  1
STANDARD
  0
DICTIONARYVAR
  5
2BA
102
{ACAD_REACTORS
330
2B5
102
}
330
2B5
100
DictionaryVariables
280
     0
  1
STANDARD
  0
DICTIONARYVAR
  5
2D1
102
{ACAD_REACTORS
330
2B5
102
}
330
2B5
100
DictionaryVariables
280
     0
  1
Metric50
  0
DICTIONARYVAR
  5
2D2
102
{ACAD_REACTORS
330
2B5
102
}
330
2B5
100
DictionaryVariables
280
     0
  1
Metric50
  0
DICTIONARY
  5
2D8
330
2C4
100
AcDbDictionary
280
     1
281
     1
  3
ACAD_XREC_ROUNDTRIP
360
2D9
  0
DICTIONARY
  5
2D6
330
2C3
100
AcDbDictionary
280
     1
281
     1
  3
ACAD_XREC_ROUNDTRIP
360
2D7
  0
DICTIONARY
  5
2B7
330
6A
100
AcDbDictionary
280
     1
281
     1
  3
ACAD_ROUNDTRIP_2008_TABLESTYLE_CELLSTYLEMAP
360
2D4
  0
XRECORD
  5
2D9
102
{ACAD_REACTORS
330
2D8
102
}
330
2D8
100
AcDbXrecord
280
     1
102
DISPLAYNAME
  1
Metric50
102
FLAGS
 90
        0
  0
XRECORD
  5
2D7
102
{ACAD_REACTORS
330
2D6
102
}
330
2D6
100
AcDbXrecord
280
     1
102
DISPLAYNAME
  1
Metric50
102
FLAGS
 90
        0
  0
CELLSTYLEMAP
  5
2D4
102
{ACAD_REACTORS
330
2B7
102
}
330
2B7
100
AcDbCellStyleMap
 90
        3
300
CELLSTYLE
  1
TABLEFORMAT_BEGIN
 90
        5
170
     1
 91
        0
 92
    32768
 62
   257
 93
        1
300
CONTENTFORMAT
  1
CONTENTFORMAT_BEGIN
 90
        0
 91
        0
 92
        4
 93
        0
300

 40
0.0
140
1.0
 94
        5
 62
     0
340
11
144
6.0
309
CONTENTFORMAT_END
171
     1
301
MARGIN
  1
CELLMARGIN_BEGIN
 40
1.5
 40
1.5
 40
1.5
 40
1.5
 40
0.18
 40
0.18
309
CELLMARGIN_END
 94
        6
 95
        1
302
GRIDFORMAT
  1
GRIDFORMAT_BEGIN
 90
        0
 91
        1
 62
     0
 92
       -2
340
14
 93
        0
 40
0.045
309
GRIDFORMAT_END
 95
        2
302
GRIDFORMAT
  1
GRIDFORMAT_BEGIN
 90
        0
 91
        1
 62
     0
 92
       -2
340
14
 93
        0
 40
0.045
309
GRIDFORMAT_END
 95
        4
302
GRIDFORMAT
  1
GRIDFORMAT_BEGIN
 90
        0
 91
        1
 62
     0
 92
       -2
340
14
 93
        0
 40
0.045
309
GRIDFORMAT_END
 95
        8
302
GRIDFORMAT
  1
GRIDFORMAT_BEGIN
 90
        0
 91
        1
 62
     0
 92
       -2
340
14
 93
        0
 40
0.045
309
GRIDFORMAT_END
 95
       16
302
GRIDFORMAT
  1
GRIDFORMAT_BEGIN
 90
        0
 91
        1
 62
     0
 92
       -2
340
14
 93
        0
 40
0.045
309
GRIDFORMAT_END
 95
       32
302
GRIDFORMAT
  1
GRIDFORMAT_BEGIN
 90
        0
 91
        1
 62
     0
 92
       -2
340
14
 93
        0
 40
0.045
309
GRIDFORMAT_END
309
TABLEFORMAT_END
  1
CELLSTYLE_BEGIN
 90
        1
 91
        1
300
_TITLE
309
CELLSTYLE_END
300
CELLSTYLE
  1
TABLEFORMAT_BEGIN
 90
        5
170
     1
 91
        0
 92
        0
 62
   257
 93
        1
300
CONTENTFORMAT
  1
CONTENTFORMAT_BEGIN
 90
        0
 91
        0
 92
        4
 93
        0
300

 40
0.0
140
1.0
 94
        5
 62
     0
340
11
144
4.5
309
CONTENTFORMAT_END
171
     1
301
MARGIN
  1
CELLMARGIN_BEGIN
 40
1.5
 40
1.5
 40
1.5
 40
1.5
 40
0.18
 40
0.18
309
CELLMARGIN_END
 94
        6
 95
        1
302
GRIDFORMAT
  1
GRIDFORMAT_BEGIN
 90
        0
 91
        1
 62
     0
 92
       -2
340
14
 93
        0
 40
0.045
309
GRIDFORMAT_END
 95
        2
302
GRIDFORMAT
  1
GRIDFORMAT_BEGIN
 90
        0
 91
        1
 62
     0
 92
       -2
340
14
 93
        0
 40
0.045
309
GRIDFORMAT_END
 95
        4
302
GRIDFORMAT
  1
GRIDFORMAT_BEGIN
 90
        0
 91
        1
 62
     0
 92
       -2
340
14
 93
        0
 40
0.045
309
GRIDFORMAT_END
 95
        8
302
GRIDFORMAT
  1
GRIDFORMAT_BEGIN
 90
        0
 91
        1
 62
     0
 92
       -2
340
14
 93
        0
 40
0.045
309
GRIDFORMAT_END
 95
       16
302
GRIDFORMAT
  1
GRIDFORMAT_BEGIN
 90
        0
 91
        1
 62
     0
 92
       -2
340
14
 93
        0
 40
0.045
309
GRIDFORMAT_END
 95
       32
302
GRIDFORMAT
  1
GRIDFORMAT_BEGIN
 90
        0
 91
        1
 62
     0
 92
       -2
340
14
 93
        0
 40
0.045
309
GRIDFORMAT_END
309
TABLEFORMAT_END
  1
CELLSTYLE_BEGIN
 90
        2
 91
        1
300
_HEADER
309
CELLSTYLE_END
300
CELLSTYLE
  1
TABLEFORMAT_BEGIN
 90
        5
170
     1
 91
        0
 92
        0
 62
   257
 93
        1
300
CONTENTFORMAT
  1
CONTENTFORMAT_BEGIN
 90
        0
 91
        0
 92
        4
 93
        0
300

 40
0.0
140
1.0
 94
        2
 62
     0
340
11
144
4.5
309
CONTENTFORMAT_END
171
     1
301
MARGIN
  1
CELLMARGIN_BEGIN
 40
1.5
 40
1.5
 40
1.5
 40
1.5
 40
0.18
 40
0.18
309
CELLMARGIN_END
 94
        6
 95
        1
302
GRIDFORMAT
  1
GRIDFORMAT_BEGIN
 90
        0
 91
        1
 62
     0
 92
       -2
340
14
 93
        0
 40
0.045
309
GRIDFORMAT_END
 95
        2
302
GRIDFORMAT
  1
GRIDFORMAT_BEGIN
 90
        0
 91
        1
 62
     0
 92
       -2
340
14
 93
        0
 40
0.045
309
GRIDFORMAT_END
 95
        4
302
GRIDFORMAT
  1
GRIDFORMAT_BEGIN
 90
        0
 91
        1
 62
     0
 92
       -2
340
14
 93
        0
 40
0.045
309
GRIDFORMAT_END
 95
        8
302
GRIDFORMAT
  1
GRIDFORMAT_BEGIN
 90
        0
 91
        1
 62
     0
 92
       -2
340
14
 93
        0
 40
0.045
309
GRIDFORMAT_END
 95
       16
302
GRIDFORMAT
  1
GRIDFORMAT_BEGIN
 90
        0
 91
        1
 62
     0
 92
       -2
340
14
 93
        0
 40
0.045
309
GRIDFORMAT_END
 95
       32
302
GRIDFORMAT
  1
GRIDFORMAT_BEGIN
 90
        0
 91
        1
 62
     0
 92
       -2
340
14
 93
        0
 40
0.045
309
GRIDFORMAT_END
309
TABLEFORMAT_END
  1
CELLSTYLE_BEGIN
 90
        3
 91
        2
300
_DATA
309
CELLSTYLE_END
  0
ENDSEC
  0
EOF
